<svg xmlns="http://www.w3.org/2000/svg" xmlns:xlink="http://www.w3.org/1999/xlink" width="1240" height="479.774" viewBox="0 0 1240 479.774">
  <defs>
    <clipPath id="clip-path">
      <path id="Rectangle_652" data-name="Rectangle 652" d="M1220.473,478.957H19.528C8.743,478.957,0,471.015,0,461.218V17.739C0,7.942,8.743,0,19.528,0H1220.473C1231.257,0,1240,7.942,1240,17.739V461.218C1240,471.015,1231.257,478.957,1220.473,478.957Z" fill="none" opacity="0.238"/>
    </clipPath>
    <clipPath id="clip-path-2">
      <rect id="Rect치ngulo_34915" data-name="Rect치ngulo 34915" width="129" height="59" transform="translate(0)" fill="#91b3fa" stroke="#707070" stroke-width="1"/>
    </clipPath>
    <linearGradient id="linear-gradient" x1="7.465" y1="0.5" x2="6.465" y2="0.5" gradientUnits="objectBoundingBox">
      <stop offset="0" stop-color="#09005d"/>
      <stop offset="1" stop-color="#1a0f91"/>
    </linearGradient>
    <linearGradient id="linear-gradient-2" x1="2.963" y1="0.5" x2="1.963" y2="0.5" xlink:href="#linear-gradient"/>
    <linearGradient id="linear-gradient-3" x1="2.887" y1="0.5" x2="1.887" y2="0.5" xlink:href="#linear-gradient"/>
    <linearGradient id="linear-gradient-4" x1="1.538" y1="0.5" x2="0.538" y2="0.5" xlink:href="#linear-gradient"/>
    <linearGradient id="linear-gradient-5" x1="0.365" y1="0.5" x2="-0.635" y2="0.5" xlink:href="#linear-gradient"/>
    <linearGradient id="linear-gradient-6" x1="1.157" y1="0.5" x2="0.157" y2="0.5" xlink:href="#linear-gradient"/>
    <linearGradient id="linear-gradient-7" x1="3.783" y1="0.5" x2="2.783" y2="0.5" xlink:href="#linear-gradient"/>
    <linearGradient id="linear-gradient-8" x1="11.081" y1="0.5" x2="10.081" y2="0.5" xlink:href="#linear-gradient"/>
    <linearGradient id="linear-gradient-9" x1="89.925" y1="194.877" x2="88.925" y2="194.877" xlink:href="#linear-gradient"/>
    <linearGradient id="linear-gradient-10" x1="97.951" y1="204.32" x2="96.951" y2="204.32" xlink:href="#linear-gradient"/>
    <linearGradient id="linear-gradient-11" x1="95.508" y1="222.19" x2="94.508" y2="222.19" xlink:href="#linear-gradient"/>
    <linearGradient id="linear-gradient-12" x1="68.143" y1="0.5" x2="67.147" y2="0.5" xlink:href="#linear-gradient"/>
    <linearGradient id="linear-gradient-13" x1="29.251" y1="0.5" x2="28.255" y2="0.5" xlink:href="#linear-gradient"/>
    <linearGradient id="linear-gradient-14" x1="13.592" y1="0.5" x2="12.597" y2="0.5" xlink:href="#linear-gradient"/>
    <linearGradient id="linear-gradient-15" x1="-20.368" y1="0.5" x2="-21.364" y2="0.5" xlink:href="#linear-gradient"/>
    <linearGradient id="linear-gradient-16" x1="40.076" y1="0.5" x2="39.076" y2="0.5" xlink:href="#linear-gradient"/>
    <linearGradient id="linear-gradient-17" x1="28.882" y1="0.5" x2="27.882" y2="0.5" xlink:href="#linear-gradient"/>
    <linearGradient id="linear-gradient-18" x1="16.648" y1="0.499" x2="15.648" y2="0.499" xlink:href="#linear-gradient"/>
    <linearGradient id="linear-gradient-19" x1="-3.698" y1="0.499" x2="-4.698" y2="0.499" xlink:href="#linear-gradient"/>
  </defs>
  <g id="Grupo_1024392" data-name="Grupo 1024392" transform="translate(-180 -3680.366)">
    <g id="Grupo_1022427" data-name="Grupo 1022427" transform="translate(0 412.633)">
      <path id="Trazado_730055" data-name="Trazado 730055" d="M23,0H1217c12.7,0,23,9.519,23,21.262V458.513c0,11.743-10.3,21.262-23,21.262H23c-12.7,0-23-9.519-23-21.262V21.262C0,9.519,10.3,0,23,0Z" transform="translate(180 3267.733)" fill="#f6f6f6"/>
      <g id="Grupo_80238" data-name="Grupo 80238" transform="translate(180 3268.551)" clip-path="url(#clip-path)">
        <path id="Trazado_151747" data-name="Trazado 151747" d="M1582.466,649.811,1458.635,297.5l33.824-161.339L1248.777,1.669c-3.195,3.542-6.146,7.35-9.631,10.582-26.1,24.212-50.589,50.568-78.845,71.965-56.026,42.417-118.2,49.666-183.576,22.2Q942.6,92.084,909.358,75.655C868.352,55.331,825.782,43.233,779.492,45.88c-28.973,1.656-54.548,10.593-76.831,29.378-33.351,28.119-56.553,64.568-82.817,98.561-13.916,18.013-28.124,35.947-43.724,52.489-32.081,34.02-71.083,49.572-119,45.275-51.547-4.623-94.623-22-125.785-65.344-26-36.169-52.349-72.264-81.014-106.322-46.4-55.128-106.928-73.724-176.892-59.59C48.381,45.387,24.221,54.756-.346,62.156L154.5,485.089Z" transform="matrix(0.454, 0.891, -0.891, 0.454, 75.783, -459.114)" fill="#727997" opacity="0.166"/>
        <path id="Trazado_151748" data-name="Trazado 151748" d="M985.328,113.592s-86.594-1.024-232.805-87.224S588.76,93.388,500.068,92.39s-111.707-66.6-207.86-49.076S171.732,133.759,57.455,101.061,34.713,205.426,34.713,205.426l937.69,20.7Z" transform="translate(549.761 452.482) rotate(-6)" fill="none" stroke="#12263f" stroke-width="3" stroke-dasharray="11" opacity="0.142"/>
        <g id="Grupo_80237" data-name="Grupo 80237" transform="translate(16 0)" clip-path="url(#clip-path-2)">
          <g id="Grupo_80236" data-name="Grupo 80236" transform="translate(3 -68)">
            <path id="Sustracci칩n_11" data-name="Sustracci칩n 11" d="M62.5,0A62.962,62.962,0,0,0,49.9,1.27a62.158,62.158,0,0,0-22.348,9.4,62.682,62.682,0,0,0-22.644,27.5A62.187,62.187,0,0,0,1.27,49.9a63.11,63.11,0,0,0,0,25.192,62.158,62.158,0,0,0,9.4,22.348,62.682,62.682,0,0,0,27.5,22.644A62.188,62.188,0,0,0,49.9,123.73a63.11,63.11,0,0,0,25.192,0,62.158,62.158,0,0,0,22.348-9.4,62.682,62.682,0,0,0,22.644-27.5A62.188,62.188,0,0,0,123.73,75.1a63.11,63.11,0,0,0,0-25.192,62.158,62.158,0,0,0-9.4-22.348,62.682,62.682,0,0,0-27.5-22.644A62.187,62.187,0,0,0,75.1,1.27,62.962,62.962,0,0,0,62.5,0Zm-.233,95.339a32.846,32.846,0,0,1-6.571-.662A32.428,32.428,0,0,1,44.037,89.77,32.7,32.7,0,0,1,32.224,75.425a32.441,32.441,0,0,1-1.9-6.121,32.924,32.924,0,0,1,0-13.143A32.427,32.427,0,0,1,35.23,44.5,32.7,32.7,0,0,1,49.575,32.689a32.441,32.441,0,0,1,6.121-1.9,32.924,32.924,0,0,1,13.142,0A32.428,32.428,0,0,1,80.5,35.7,32.7,32.7,0,0,1,92.311,50.041a32.44,32.44,0,0,1,1.9,6.121,32.924,32.924,0,0,1,0,13.143A32.428,32.428,0,0,1,89.3,80.963,32.7,32.7,0,0,1,74.959,92.777a32.44,32.44,0,0,1-6.12,1.9A32.846,32.846,0,0,1,62.267,95.339Z" fill="#91b3fa"/>
          </g>
        </g>
        <path id="Trazado_151751" data-name="Trazado 151751" d="M1370.308,562.552,1263.417,256.8l29.441-140.1L1081.98.17c-2.77,3.078-5.329,6.387-8.35,9.2-22.625,21.045-43.852,43.95-68.341,62.553C956.736,108.8,902.895,115.15,846.309,91.371q-29.539-12.414-58.3-26.645C752.518,47.12,715.667,36.657,675.582,39c-25.089,1.465-47.244,9.248-66.557,25.578-28.905,24.443-49.031,56.11-71.8,85.647-12.067,15.652-24.387,31.234-37.911,45.611-27.812,29.566-61.6,43.1-103.088,39.42-44.63-3.964-81.914-19.008-108.855-56.61-22.482-31.376-45.261-62.688-70.049-92.228C177.193,38.6,124.8,22.513,64.2,34.851,42.509,39.266,21.58,47.423.3,53.871L133.982,420.9Z" transform="matrix(0.891, -0.454, 0.454, 0.891, 217.233, 443.504)" fill="none" stroke="#fff" stroke-width="1" opacity="0.81"/>
        <g id="Grupo_1020679" data-name="Grupo 1020679" transform="translate(-268.569 -68.872)" opacity="0.1">
          <path id="Trazado_117938" data-name="Trazado 117938" d="M1396.839,84.967a.374.374,0,0,0,.105,0,.117.117,0,0,0,.082-.07.247.247,0,0,0,0-.07.2.2,0,0,0,0-.141c.07-.949-.386-5.3-3.322-26.71-1.942-14.128-4.679-33.786-8.259-58.446-6.013-41.975-12.224-84.442-12.283-84.875a.27.27,0,0,0-.175-.2.3.3,0,0,0-.281,0l-107.761,70a.234.234,0,0,0-.117.187.293.293,0,0,0,.094.2l131.2,99.695L1183.095,106.3v.492l212.68-21.72c-2.024,1.371-7.7,5.775-24.425,19.154-14.038,11.2-33.924,27.237-59.2,47.7-46.417,37.547-100.895,81.841-129.227,104.9l.386.363C1314.217,150.688,1393.927,86.4,1396.839,84.967ZM1372.707-84.9c8.188,56.232,23.4,161.07,23.84,169.071L1265.624-15.349Z" transform="translate(-1182.919 189.012)" fill="url(#linear-gradient)"/>
          <path id="Trazado_117939" data-name="Trazado 117939" d="M1014.025,150.788a.2.2,0,0,0,.129-.187l11.16-194.176,171.223,62.582a.362.362,0,0,0,.222,0,.246.246,0,0,0,.152-.129l43.809-89.034a.235.235,0,0,0,0-.2.234.234,0,0,0-.153-.128l-122.536-45.173L1084.4-173.87l-.515.223,33.678,58.294a.234.234,0,0,0,.14.117l122.36,45.161L1196.5,18.455l-171.34-62.628a.339.339,0,0,0-.316,0L845.5,99.675a.234.234,0,0,0,.105.41l168.158,50.738h.105a.257.257,0,0,0,.152-.035Zm10.7-194.141L1013.6,150.237,846.242,99.757Z" transform="translate(-631.819 173.87)" fill="url(#linear-gradient-2)"/>
          <path id="Trazado_117940" data-name="Trazado 117940" d="M1021.592,228.632h0l272.433-72.211a.246.246,0,0,0,.2-.293L1256.744-9.428a.257.257,0,0,0-.187-.187.339.339,0,0,0-.281,0L1073.5,122.2a.164.164,0,0,0-.082.094l-51.951,105.564L905.747,71.558a.3.3,0,0,0-.281-.117.281.281,0,0,0-.234.187L850.826,259.677l.562.117L905.654,72.307,1021.1,228.269l-96.882,31.244.2.457ZM1256.276-8.889l37.433,164.936L1022.06,228.035l51.9-105.435Z" transform="translate(-691.628 202.034)" fill="url(#linear-gradient-3)"/>
          <path id="Trazado_117941" data-name="Trazado 117941" d="M769.441,49.783,927.422,26.142a.292.292,0,0,0,.21-.129.223.223,0,0,0,0-.223L850.484-109.659a.292.292,0,0,0-.175-.129.362.362,0,0,0-.222,0L622.585,7.573a.27.27,0,0,0-.14.246.281.281,0,0,0,.2.211L769.3,49.771h.14ZM850.157-109.19l76.785,134.9L769.418,49.291,623.427,7.726Z" transform="translate(-57.902 184.857)" fill="url(#linear-gradient-4)"/>
          <path id="Trazado_117942" data-name="Trazado 117942" d="M576.7,206.953l250.9-31.209v-.129l.222.094a.315.315,0,0,0,.3,0,.234.234,0,0,0,.105-.258l-93.42-334.323a.3.3,0,0,0-.339-.187L426.381-101.4a.316.316,0,0,0-.211.141l-80.926,159,.526.2,80.868-158.879L734.294-158.52,827.5,175.029,503.8,34.121a.3.3,0,0,0-.316,0,.211.211,0,0,0-.082.269l73,172.375a.292.292,0,0,0,.269.164Zm250.219-31.631-250.067,31.1L504.2,34.848Z" transform="translate(365.792 176.409)" fill="url(#linear-gradient-5)"/>
          <path id="Trazado_117943" data-name="Trazado 117943" d="M800.694,236.024l-.386-.363,99.432-78.608L560.91,132.241,670.952,235.333l-.421.34L559.986,132.112a.235.235,0,0,1,0-.281.316.316,0,0,1,.281-.141l340.188,24.965a.281.281,0,0,1,.257.164.223.223,0,0,1-.082.258Z" transform="translate(42.154 226.274)" fill="url(#linear-gradient-6)"/>
          <path id="Trazado_117944" data-name="Trazado 117944" d="M1020.837,240.543l-.526-.2,50.418-103.268-219.921-33.7.105-.492,220.226,33.763a.316.316,0,0,1,.2.117.246.246,0,0,1,0,.223Z" transform="translate(-468.741 221.333)" fill="url(#linear-gradient-7)"/>
          <path id="Trazado_117945" data-name="Trazado 117945" d="M1096.138,225.156l-84.518-31.349.234-.457L1096.36,224.7Z" transform="translate(-681.855 236.848)" fill="url(#linear-gradient-8)"/>
          <g id="Grupo_54547" data-name="Grupo 54547" transform="translate(457.214 321.589)">
            <ellipse id="Elipse_4152" data-name="Elipse 4152" cx="21.887" cy="18.861" rx="21.887" ry="18.861" transform="translate(0 0)" opacity="0.51" fill="url(#linear-gradient-9)"/>
          </g>
          <g id="Grupo_54548" data-name="Grupo 54548" transform="translate(74.761 348.392)">
            <ellipse id="Elipse_4153" data-name="Elipse 4153" cx="21.887" cy="18.861" rx="21.887" ry="18.861" transform="translate(0 0)" opacity="0.31" fill="url(#linear-gradient-10)"/>
          </g>
          <g id="Grupo_54549" data-name="Grupo 54549" transform="translate(930.723 367.254)">
            <ellipse id="Elipse_4154" data-name="Elipse 4154" cx="17.851" cy="15.382" rx="17.851" ry="15.382" opacity="0.55" fill="url(#linear-gradient-11)"/>
          </g>
          <path id="Trazado_117946" data-name="Trazado 117946" d="M1084.88,200.256c-3.849,0-6.96-2.683-6.96-6s3.112-6,6.96-6,7.019,2.683,7.019,6S1088.717,200.256,1084.88,200.256Z" transform="translate(-754.952 235.975)" fill="url(#linear-gradient-12)"/>
          <path id="Trazado_117947" data-name="Trazado 117947" d="M852.589,138.826c-3.849,0-7.019-2.683-7.019-6s3.112-6,7.019-6,6.96,2.683,6.96,6S856.437,138.826,852.589,138.826Z" transform="translate(-250.8 225.44)" fill="url(#linear-gradient-13)"/>
          <path id="Trazado_117948" data-name="Trazado 117948" d="M758.96,32.916c-3.849,0-6.96-2.683-6.96-6s3.112-6,6.96-6,7.019,2.683,7.019,6S762.844,32.916,758.96,32.916Z" transform="translate(-47.773 207.277)" fill="url(#linear-gradient-14)"/>
          <path id="Trazado_117949" data-name="Trazado 117949" d="M556.03,160.006c-3.837,0-6.96-2.683-6.96-6s3.123-6,6.96-6,7.019,2.683,7.019,6S559.879,160.006,556.03,160.006Z" transform="translate(392.544 229.073)" fill="url(#linear-gradient-15)"/>
          <path id="Trazado_117950" data-name="Trazado 117950" d="M1185.063,74.713c-8.27,0-14.974-5.775-14.974-12.887s6.7-12.887,14.974-12.887,14.974,5.775,14.974,12.887S1193.334,74.713,1185.063,74.713Z" transform="translate(-970.909 212.082)" fill="url(#linear-gradient-16)"/>
          <ellipse id="Elipse_4155" data-name="Elipse 4155" cx="14.973" cy="12.898" rx="14.973" ry="12.898" transform="translate(366.789 311.619)" fill="url(#linear-gradient-17)"/>
          <path id="Trazado_117951" data-name="Trazado 117951" d="M885.173,5.243C876.9,5.243,870.2-.532,870.2-7.643s6.7-12.887,14.973-12.887,14.973,5.775,14.973,12.887S893.362,5.243,885.173,5.243Z" transform="translate(-320.21 200.168)" fill="url(#linear-gradient-18)"/>
          <path id="Trazado_117952" data-name="Trazado 117952" d="M624.745,21.343c-8.27,0-14.985-5.787-14.985-12.887S616.475-4.43,624.745-4.43s14.973,5.775,14.973,12.887S633.016,21.343,624.745,21.343Z" transform="translate(244.88 202.929)" fill="url(#linear-gradient-19)"/>
        </g>
      </g>
    </g>
  </g>
</svg>
