<svg xmlns="http://www.w3.org/2000/svg" xmlns:xlink="http://www.w3.org/1999/xlink" width="136.934" height="135.983" viewBox="0 0 136.934 135.983">
  <defs>
    <clipPath id="clip-path">
      <rect id="Rectángulo_358803" data-name="Rectángulo 358803" width="67.105" height="67.091" fill="none"/>
    </clipPath>
  </defs>
  <g id="Grupo_1022844" data-name="Grupo 1022844" transform="translate(-263 -595.534)">
    <g id="Grupo_156356" data-name="Grupo 156356" transform="translate(263 650.743)">
      <g id="Grupo_156332" data-name="Grupo 156332" transform="translate(0 0)">
        <path id="Trazado_99257" data-name="Trazado 99257" d="M419.306,105.213a2.549,2.549,0,1,1-2.548-2.434A2.492,2.492,0,0,1,419.306,105.213Z" transform="translate(-414.214 -102.779)" fill="#12263f"/>
        <path id="Trazado_116526" data-name="Trazado 116526" d="M419.306,105.213a2.549,2.549,0,1,1-2.548-2.434A2.492,2.492,0,0,1,419.306,105.213Z" transform="translate(-356.555 -102.779)" fill="#12263f"/>
        <path id="Trazado_99258" data-name="Trazado 99258" d="M427.752,105.213a2.549,2.549,0,1,1-2.545-2.434A2.492,2.492,0,0,1,427.752,105.213Z" transform="translate(-411.129 -102.779)" fill="#12263f"/>
        <path id="Trazado_116527" data-name="Trazado 116527" d="M427.752,105.213a2.549,2.549,0,1,1-2.545-2.434A2.492,2.492,0,0,1,427.752,105.213Z" transform="translate(-353.469 -102.779)" fill="#12263f"/>
        <path id="Trazado_99259" data-name="Trazado 99259" d="M436.2,105.213a2.549,2.549,0,1,1-2.545-2.434A2.492,2.492,0,0,1,436.2,105.213Z" transform="translate(-408.043 -102.779)" fill="#12263f"/>
        <path id="Trazado_116531" data-name="Trazado 116531" d="M436.2,105.213a2.549,2.549,0,1,1-2.545-2.434A2.492,2.492,0,0,1,436.2,105.213Z" transform="translate(-350.384 -102.779)" fill="#12263f"/>
        <path id="Trazado_99260" data-name="Trazado 99260" d="M444.645,105.213a2.549,2.549,0,1,1-2.547-2.434A2.492,2.492,0,0,1,444.645,105.213Z" transform="translate(-404.958 -102.779)" fill="#12263f"/>
        <path id="Trazado_116532" data-name="Trazado 116532" d="M444.645,105.213a2.549,2.549,0,1,1-2.547-2.434A2.492,2.492,0,0,1,444.645,105.213Z" transform="translate(-347.298 -102.779)" fill="#12263f"/>
        <path id="Trazado_99261" data-name="Trazado 99261" d="M453.091,105.213a2.549,2.549,0,1,1-2.545-2.434A2.492,2.492,0,0,1,453.091,105.213Z" transform="translate(-401.872 -102.779)" fill="#12263f"/>
      </g>
      <g id="Grupo_156331" data-name="Grupo 156331" transform="translate(0 12.649)">
        <ellipse id="Elipse_3975" data-name="Elipse 3975" cx="2.546" cy="2.435" rx="2.546" ry="2.435" transform="translate(0 0.001)" fill="#12263f"/>
        <ellipse id="Elipse_4742" data-name="Elipse 4742" cx="2.546" cy="2.435" rx="2.546" ry="2.435" transform="translate(57.659 0.001)" fill="#12263f"/>
        <path id="Trazado_99268" data-name="Trazado 99268" d="M427.752,112.721a2.549,2.549,0,1,1-2.545-2.434A2.493,2.493,0,0,1,427.752,112.721Z" transform="translate(-411.129 -110.287)" fill="#12263f"/>
        <path id="Trazado_116528" data-name="Trazado 116528" d="M427.752,112.721a2.549,2.549,0,1,1-2.545-2.434A2.493,2.493,0,0,1,427.752,112.721Z" transform="translate(-353.469 -110.287)" fill="#12263f"/>
        <ellipse id="Elipse_3976" data-name="Elipse 3976" cx="2.546" cy="2.435" rx="2.546" ry="2.435" transform="translate(23.064 0.001)" fill="#12263f"/>
        <ellipse id="Elipse_4743" data-name="Elipse 4743" cx="2.546" cy="2.435" rx="2.546" ry="2.435" transform="translate(80.723 0.001)" fill="#12263f"/>
        <path id="Trazado_99269" data-name="Trazado 99269" d="M444.645,112.721a2.549,2.549,0,1,1-2.547-2.434A2.494,2.494,0,0,1,444.645,112.721Z" transform="translate(-404.958 -110.287)" fill="#12263f"/>
        <path id="Trazado_116533" data-name="Trazado 116533" d="M444.645,112.721a2.549,2.549,0,1,1-2.547-2.434A2.494,2.494,0,0,1,444.645,112.721Z" transform="translate(-347.298 -110.287)" fill="#12263f"/>
        <path id="Trazado_99270" data-name="Trazado 99270" d="M453.091,112.721a2.549,2.549,0,1,1-2.545-2.434A2.493,2.493,0,0,1,453.091,112.721Z" transform="translate(-401.872 -110.287)" fill="#12263f"/>
      </g>
      <g id="Grupo_156330" data-name="Grupo 156330" transform="translate(0 25.3)">
        <path id="Trazado_99274" data-name="Trazado 99274" d="M419.306,120.23a2.549,2.549,0,1,1-2.548-2.436A2.494,2.494,0,0,1,419.306,120.23Z" transform="translate(-414.214 -117.794)" fill="#12263f"/>
        <path id="Trazado_116529" data-name="Trazado 116529" d="M419.306,120.23a2.549,2.549,0,1,1-2.548-2.436A2.494,2.494,0,0,1,419.306,120.23Z" transform="translate(-356.555 -117.794)" fill="#12263f"/>
        <path id="Trazado_99275" data-name="Trazado 99275" d="M427.752,120.23a2.549,2.549,0,1,1-2.545-2.436A2.493,2.493,0,0,1,427.752,120.23Z" transform="translate(-411.129 -117.794)" fill="#12263f"/>
        <path id="Trazado_116530" data-name="Trazado 116530" d="M427.752,120.23a2.549,2.549,0,1,1-2.545-2.436A2.493,2.493,0,0,1,427.752,120.23Z" transform="translate(-353.469 -117.794)" fill="#12263f"/>
        <path id="Trazado_99276" data-name="Trazado 99276" d="M436.2,120.23a2.549,2.549,0,1,1-2.545-2.436A2.493,2.493,0,0,1,436.2,120.23Z" transform="translate(-408.043 -117.794)" fill="#12263f"/>
        <path id="Trazado_116534" data-name="Trazado 116534" d="M436.2,120.23a2.549,2.549,0,1,1-2.545-2.436A2.493,2.493,0,0,1,436.2,120.23Z" transform="translate(-350.384 -117.794)" fill="#12263f"/>
        <path id="Trazado_99277" data-name="Trazado 99277" d="M444.645,120.23a2.549,2.549,0,1,1-2.547-2.436A2.494,2.494,0,0,1,444.645,120.23Z" transform="translate(-404.958 -117.794)" fill="#12263f"/>
        <path id="Trazado_116535" data-name="Trazado 116535" d="M444.645,120.23a2.549,2.549,0,1,1-2.547-2.436A2.494,2.494,0,0,1,444.645,120.23Z" transform="translate(-347.298 -117.794)" fill="#12263f"/>
        <path id="Trazado_99278" data-name="Trazado 99278" d="M453.091,120.23a2.549,2.549,0,1,1-2.545-2.436A2.493,2.493,0,0,1,453.091,120.23Z" transform="translate(-401.872 -117.794)" fill="#12263f"/>
      </g>
      <g id="Grupo_156327" data-name="Grupo 156327" transform="translate(0 63.252)">
        <path id="Trazado_116550" data-name="Trazado 116550" d="M419.306,120.23a2.549,2.549,0,1,1-2.548-2.436A2.494,2.494,0,0,1,419.306,120.23Z" transform="translate(-414.214 -117.794)" fill="#12263f"/>
        <path id="Trazado_116551" data-name="Trazado 116551" d="M419.306,120.23a2.549,2.549,0,1,1-2.548-2.436A2.494,2.494,0,0,1,419.306,120.23Z" transform="translate(-356.555 -117.794)" fill="#12263f"/>
        <path id="Trazado_116552" data-name="Trazado 116552" d="M427.752,120.23a2.549,2.549,0,1,1-2.545-2.436A2.493,2.493,0,0,1,427.752,120.23Z" transform="translate(-411.129 -117.794)" fill="#12263f"/>
        <path id="Trazado_116553" data-name="Trazado 116553" d="M427.752,120.23a2.549,2.549,0,1,1-2.545-2.436A2.493,2.493,0,0,1,427.752,120.23Z" transform="translate(-353.469 -117.794)" fill="#12263f"/>
        <path id="Trazado_116554" data-name="Trazado 116554" d="M436.2,120.23a2.549,2.549,0,1,1-2.545-2.436A2.493,2.493,0,0,1,436.2,120.23Z" transform="translate(-408.043 -117.794)" fill="#12263f"/>
        <path id="Trazado_116555" data-name="Trazado 116555" d="M436.2,120.23a2.549,2.549,0,1,1-2.545-2.436A2.493,2.493,0,0,1,436.2,120.23Z" transform="translate(-350.384 -117.794)" fill="#12263f"/>
        <path id="Trazado_116556" data-name="Trazado 116556" d="M444.645,120.23a2.549,2.549,0,1,1-2.547-2.436A2.494,2.494,0,0,1,444.645,120.23Z" transform="translate(-404.958 -117.794)" fill="#12263f"/>
        <path id="Trazado_116557" data-name="Trazado 116557" d="M444.645,120.23a2.549,2.549,0,1,1-2.547-2.436A2.494,2.494,0,0,1,444.645,120.23Z" transform="translate(-347.298 -117.794)" fill="#12263f"/>
        <path id="Trazado_116558" data-name="Trazado 116558" d="M453.091,120.23a2.549,2.549,0,1,1-2.545-2.436A2.493,2.493,0,0,1,453.091,120.23Z" transform="translate(-401.872 -117.794)" fill="#12263f"/>
      </g>
      <g id="Grupo_156329" data-name="Grupo 156329" transform="translate(0 37.951)">
        <ellipse id="Elipse_3980" data-name="Elipse 3980" cx="2.546" cy="2.435" rx="2.546" ry="2.435" transform="translate(0 0.002)" fill="#12263f"/>
        <ellipse id="Elipse_4744" data-name="Elipse 4744" cx="2.546" cy="2.435" rx="2.546" ry="2.435" transform="translate(57.659 0.002)" fill="#12263f"/>
        <path id="Trazado_99285" data-name="Trazado 99285" d="M427.752,127.738a2.549,2.549,0,1,1-2.545-2.436A2.491,2.491,0,0,1,427.752,127.738Z" transform="translate(-411.129 -125.302)" fill="#12263f"/>
        <path id="Trazado_116536" data-name="Trazado 116536" d="M427.752,127.738a2.549,2.549,0,1,1-2.545-2.436A2.491,2.491,0,0,1,427.752,127.738Z" transform="translate(-353.469 -125.302)" fill="#12263f"/>
        <ellipse id="Elipse_3981" data-name="Elipse 3981" cx="2.546" cy="2.435" rx="2.546" ry="2.435" transform="translate(23.064 0.002)" fill="#12263f"/>
        <ellipse id="Elipse_4745" data-name="Elipse 4745" cx="2.546" cy="2.435" rx="2.546" ry="2.435" transform="translate(80.723 0.002)" fill="#12263f"/>
        <path id="Trazado_99286" data-name="Trazado 99286" d="M444.645,127.738A2.549,2.549,0,1,1,442.1,125.3,2.492,2.492,0,0,1,444.645,127.738Z" transform="translate(-404.958 -125.302)" fill="#12263f"/>
        <path id="Trazado_116537" data-name="Trazado 116537" d="M444.645,127.738A2.549,2.549,0,1,1,442.1,125.3,2.492,2.492,0,0,1,444.645,127.738Z" transform="translate(-347.298 -125.302)" fill="#12263f"/>
        <path id="Trazado_99287" data-name="Trazado 99287" d="M453.091,127.738a2.549,2.549,0,1,1-2.545-2.436A2.491,2.491,0,0,1,453.091,127.738Z" transform="translate(-401.872 -125.302)" fill="#12263f"/>
      </g>
      <g id="Grupo_156326" data-name="Grupo 156326" transform="translate(0 75.904)">
        <ellipse id="Elipse_4754" data-name="Elipse 4754" cx="2.546" cy="2.435" rx="2.546" ry="2.435" transform="translate(0 0.001)" fill="#12263f"/>
        <ellipse id="Elipse_4750" data-name="Elipse 4750" cx="2.546" cy="2.435" rx="2.546" ry="2.435" transform="translate(57.659 0.001)" fill="#12263f"/>
        <path id="Trazado_116548" data-name="Trazado 116548" d="M427.752,127.738a2.549,2.549,0,1,1-2.545-2.436A2.491,2.491,0,0,1,427.752,127.738Z" transform="translate(-411.129 -125.302)" fill="#12263f"/>
        <path id="Trazado_116542" data-name="Trazado 116542" d="M427.752,127.738a2.549,2.549,0,1,1-2.545-2.436A2.491,2.491,0,0,1,427.752,127.738Z" transform="translate(-353.469 -125.302)" fill="#12263f"/>
        <ellipse id="Elipse_4751" data-name="Elipse 4751" cx="2.546" cy="2.435" rx="2.546" ry="2.435" transform="translate(23.064 0.001)" fill="#12263f"/>
        <ellipse id="Elipse_4752" data-name="Elipse 4752" cx="2.546" cy="2.435" rx="2.546" ry="2.435" transform="translate(80.723 0.001)" fill="#12263f"/>
        <path id="Trazado_116543" data-name="Trazado 116543" d="M444.645,127.738A2.549,2.549,0,1,1,442.1,125.3,2.492,2.492,0,0,1,444.645,127.738Z" transform="translate(-404.958 -125.302)" fill="#12263f"/>
        <path id="Trazado_116544" data-name="Trazado 116544" d="M444.645,127.738A2.549,2.549,0,1,1,442.1,125.3,2.492,2.492,0,0,1,444.645,127.738Z" transform="translate(-347.298 -125.302)" fill="#12263f"/>
        <path id="Trazado_116545" data-name="Trazado 116545" d="M453.091,127.738a2.549,2.549,0,1,1-2.545-2.436A2.491,2.491,0,0,1,453.091,127.738Z" transform="translate(-401.872 -125.302)" fill="#12263f"/>
      </g>
      <g id="Grupo_156328" data-name="Grupo 156328" transform="translate(0 50.602)">
        <ellipse id="Elipse_3985" data-name="Elipse 3985" cx="2.546" cy="2.435" rx="2.546" ry="2.435" transform="translate(0 0.001)" fill="#12263f"/>
        <ellipse id="Elipse_4746" data-name="Elipse 4746" cx="2.546" cy="2.435" rx="2.546" ry="2.435" transform="translate(57.659 0.001)" fill="#12263f"/>
        <path id="Trazado_99291" data-name="Trazado 99291" d="M427.752,135.246a2.549,2.549,0,1,1-2.545-2.436A2.491,2.491,0,0,1,427.752,135.246Z" transform="translate(-411.129 -132.81)" fill="#12263f"/>
        <path id="Trazado_116538" data-name="Trazado 116538" d="M427.752,135.246a2.549,2.549,0,1,1-2.545-2.436A2.491,2.491,0,0,1,427.752,135.246Z" transform="translate(-353.469 -132.81)" fill="#12263f"/>
        <ellipse id="Elipse_3986" data-name="Elipse 3986" cx="2.546" cy="2.435" rx="2.546" ry="2.435" transform="translate(23.064 0.001)" fill="#12263f"/>
        <ellipse id="Elipse_4747" data-name="Elipse 4747" cx="2.546" cy="2.435" rx="2.546" ry="2.435" transform="translate(80.723 0.001)" fill="#12263f"/>
        <path id="Trazado_99292" data-name="Trazado 99292" d="M444.645,135.246a2.549,2.549,0,1,1-2.547-2.436A2.492,2.492,0,0,1,444.645,135.246Z" transform="translate(-404.958 -132.81)" fill="#12263f"/>
        <path id="Trazado_116539" data-name="Trazado 116539" d="M444.645,135.246a2.549,2.549,0,1,1-2.547-2.436A2.492,2.492,0,0,1,444.645,135.246Z" transform="translate(-347.298 -132.81)" fill="#12263f"/>
        <path id="Trazado_99293" data-name="Trazado 99293" d="M453.091,135.246a2.549,2.549,0,1,1-2.545-2.436A2.491,2.491,0,0,1,453.091,135.246Z" transform="translate(-401.872 -132.81)" fill="#12263f"/>
      </g>
    </g>
    <g id="Grupo_1015138" data-name="Grupo 1015138" transform="translate(277.562 595.534)">
      <circle id="Elipse_8447" data-name="Elipse 8447" cx="61.186" cy="61.186" r="61.186" transform="translate(0 0)" fill="#91b3fa"/>
      <circle id="Elipse_8448" data-name="Elipse 8448" cx="51.264" cy="51.264" r="51.264" transform="translate(9.922 9.922)" fill="#fff"/>
      <g id="Grupo_1022847" data-name="Grupo 1022847" transform="translate(27.633 27.641)">
        <g id="Grupo_1022846" data-name="Grupo 1022846" clip-path="url(#clip-path)">
          <path id="Trazado_752720" data-name="Trazado 752720" d="M5.11,117.867a5.861,5.861,0,0,1,5.213-2.536,15.52,15.52,0,0,0,1.962-.01c.592-.055.786.148.69.71a1.782,1.782,0,0,0,.018.39,1.287,1.287,0,0,0-.018.325c.132.664-.181.762-.778.756a11.2,11.2,0,0,0-3.807.25c-.045-.328-.233-.3-.452-.178s-.283.252-.063.431c-.363.172-.514.551-.791.807-.057-.288-.189-.339-.349-.081a.682.682,0,0,0,0,.557,4.9,4.9,0,0,0-.26,2.236q.041,17.126,0,34.253c0,.568.175.664.7.664q26.362-.021,52.724,0c.527,0,.694-.1.693-.668-.018-11.309,0-22.617-.035-33.926,0-.931.229-1.949-.438-2.8.168-.017.292-.082.246-.278a.218.218,0,0,0-.215-.194c-.144,0-.135.134-.16.231l-.776-.7c-.011-.212.054-.458-.19-.582-.227-.115-.368.017-.467.213a11.3,11.3,0,0,0-3.475-.256c-1.074-.009-1.074,0-1.131-1.065.058-1.087.058-1.1,1.164-1.084a12.41,12.41,0,0,1,4.081.4,8.121,8.121,0,0,1,1.931,1.361c.892.618,1.059,1.663,1.449,2.559a3.778,3.778,0,0,1,.166,1.461q.012,17.373.005,34.746c0,.087-.014.173-.021.26-.178.025-.414-.074-.48.2a.3.3,0,0,0,.2.362c.2.1.375.152.435-.148.612.03,1.242-.182,1.834.131.08.3.27.261.481.153.238.006.363.213.549.31-.234.084-.273.23-.069.369.226.154.433.384.756.32a.8.8,0,0,1,.256.512c-.143.332-.312.671.232.8a.25.25,0,0,1,.025.123.6.6,0,0,0,0,.936l-.026.513c-.188.02-.334.1-.351.3-.014.172.116.205.251.223a3.842,3.842,0,0,1-.642,1.839c-.172.02-.359.033-.136.26a2.737,2.737,0,0,1-.57.91c-.446.024-.888.053-.643.706a.074.074,0,0,1-.062.063c-.662-.254-.72.156-.708.643l-.651.432c-.489-.316-.671-.027-.785.4a2.505,2.505,0,0,1-1.574.519c-.018-.164-.079-.29-.273-.242s-.247.2-.248.381q-.005.057-.006.115h-.524q-.131-.2-.262,0H6.551c0-.217,0-.45-.276-.5s-.236.171-.249.336a4.259,4.259,0,0,1-1.835-.648l-.152-.1a.148.148,0,0,1-.11-.028l-.141-.107a1.553,1.553,0,0,1-.911-.646c.17-.311.2-.576-.233-.679a.506.506,0,0,1-.338-.36c-.14-.347-.366-.293-.618-.148a1.665,1.665,0,0,1-.655-.918c.163-.02.3-.079.244-.276-.075-.262-.3-.254-.512-.246a3.547,3.547,0,0,1-.6-1.71c.166-.012.376.007.33-.252s-.28-.272-.5-.272v-.524l.136-.131c.412-.217.41-.435,0-.655q0-.13-.005-.26c.505-.142.528-.365.113-.664a2.21,2.21,0,0,1,.8-1.187c.412.325.381,0,.392-.266a3.61,3.61,0,0,1,2.329-.627c.455.03.578-.1.574-.562-.024-2.922-.012-5.845-.012-8.767q0-13.446,0-26.891c0-.255-.054-.522.152-.735.586-.141.62-.239.226-.66.034-.092-.015-.224.128-.263.217.007.44.013.513-.253.055-.2-.071-.314-.234-.4m34.332,42.747c.161.222.362.329.562.079.164-.2.064-.349-.19-.383a3.066,3.066,0,0,0,.153-1.265c.022-.337-.079-.487-.433-.442a4.128,4.128,0,0,1-.523,0q-5.722,0-11.443.011c-.192,0-.487-.173-.58.213a1.4,1.4,0,0,0,1.482,1.934q5.035.009,10.07,0a5.1,5.1,0,0,0,.515-.051c.122.053.252.124.251-.108l.136.009M61.185,164.8c.029.143.094.254.261.195s.119-.209.132-.333l.524-.262c.316.539.578.066.832-.064.239-.123.237-.3-.037-.413l.852-.846c.118.276.287.265.414.032.144-.265.567-.533.071-.86l.223-.366c.385.028.56-.157.525-.534a1.138,1.138,0,0,1,.1-.788c.084-.131-.057-.224-.2-.249l-.009-.786c.13-.021.245-.07.215-.227-.037-.193-.206-.152-.341-.166l-.263-.341c.2-.093.278-.267.063-.364-.247-.111-.572-.245-.744.155-.261.007-.523.02-.784.02h-19.7c-1.09,0-1.09,0-1.149,1.053q-.426.1-.1.4a1.7,1.7,0,0,1-.251,1.052c-.641-.058-.542.4-.545.784a.736.736,0,0,1-.521.4c-.325-.219-.237.072-.268.217a3.569,3.569,0,0,1-1.725.43c-3.668-.015-7.336-.012-11-.016a1.673,1.673,0,0,1-.562-.086,3.364,3.364,0,0,1-2.3-3.091c-.013-1.141-.013-1.141-1.175-1.141q-4.585,0-9.17,0-5.763.006-11.527.02c-.029-.262-.2-.319-.409-.243-.291.105-.26.348-.206.588-.01.5-.558.924-.2,1.474-.084.014-.183.026-.181.133s.1.116.186.129l.167.78c-.219.221-.041.24.133.262a.513.513,0,0,1,.172.437c-.076.684.107.938.611.849l.933.934c-.088.506.168.689.85.609a.493.493,0,0,1,.434.18c.014.094,0,.219.138.211.043,0,.08-.111.12-.171a5.541,5.541,0,0,0,2.327.292q13.352-.025,26.7-.01c3.338,0,6.676-.011,10.014.012.516,0,.671-.138.652-.655-.039-1.068,0-2.138-.017-3.207,0-.325.077-.465.434-.463q2.782.021,5.563,0c.372,0,.493.121.484.489-.019.741,0,1.483.007,2.225.01,1.65.01,1.637,1.659,1.608.394-.007.528-.111.519-.517-.025-1.112,0-2.225-.016-3.338-.007-.368.1-.489.479-.486q2.749.024,5.5,0c.413,0,.523.139.514.531-.023,1.025.02,2.052-.019,3.076-.02.54.142.671.618.445m-12.459-1.868c-1.137,0-1.137,0-1.137,1.048,0,1.106,0,1.106,1.1,1.106s1.093,0,1.093-1.1c0-1.056,0-1.056-1.055-1.056m8.655,2.154c1.052,0,1.052,0,1.052-1,0-1.153,0-1.153-1.149-1.153-1.038,0-1.038,0-1.038,1.014,0,1.14,0,1.14,1.135,1.14" transform="translate(0 -100.169)"/>
          <path id="Trazado_752721" data-name="Trazado 752721" d="M.245,444c.414.3.392.522-.113.664l-.132,0V444.4c.246-.032.02-.354.245-.4" transform="translate(0 -385.692)"/>
          <path id="Trazado_752722" data-name="Trazado 752722" d="M46.286,507.576c-.072-.2-.266-.1-.393-.159.013-.165-.012-.379.248-.336s.275.279.276.5Z" transform="translate(-39.866 -440.486)"/>
          <path id="Trazado_752723" data-name="Trazado 752723" d="M.165,461.531c-.073-.124.033-.323-.165-.393v-.131c.215,0,.447,0,.5.272s-.164.24-.33.252" transform="translate(0 -400.467)"/>
          <path id="Trazado_752724" data-name="Trazado 752724" d="M.137,451.03c.408.219.41.438,0,.655A.28.28,0,0,0,0,451.423v-.131a.286.286,0,0,0,.137-.262" transform="translate(0 -391.8)"/>
          <path id="Trazado_752725" data-name="Trazado 752725" d="M.137,449.3a.286.286,0,0,1-.137.262v-.524l.132,0,.006.26" transform="translate(0 -390.067)" fill="#020201"/>
          <path id="Trazado_752726" data-name="Trazado 752726" d="M0,454.023a.28.28,0,0,1,.136.262L0,454.416v-.393" transform="translate(0 -394.4)" fill="#020201"/>
          <path id="Trazado_752727" data-name="Trazado 752727" d="M454.944,510.224q.131-.2.262,0Z" transform="translate(-395.2 -443.133)"/>
          <path id="Trazado_752728" data-name="Trazado 752728" d="M102.916,126.387c.667.848.435,1.866.438,2.8.033,11.308.017,22.617.035,33.926,0,.563-.166.668-.693.668q-26.362-.021-52.724,0c-.522,0-.7-.1-.7-.664q.028-17.127,0-34.253a4.906,4.906,0,0,1,.26-2.236l.346-.476c.277-.256.428-.635.791-.807a.778.778,0,0,0,.515-.253,11.2,11.2,0,0,1,3.806-.25c.6.005.91-.092.778-.756a1.293,1.293,0,0,1,.018-.325l2.073,0c0,1.058,0,1.057,1.046,1.058l9.694.013.131.109q0,1.571-.007,3.142H66.528a4,4,0,0,1-.015-.652c.048-.359-.1-.432-.432-.431-4.191.01-8.382,0-12.572.016a2.1,2.1,0,0,0-2.069,2.1q0,13.423,0,26.847c0,1.2-.006,2.4,0,3.6a2.118,2.118,0,0,0,2.091,2.062q3.536-.007,7.072,0,18.99,0,37.979,0a2.766,2.766,0,0,0,1.326-.168,2.618,2.618,0,0,0,1.3-2.665q.026-14.569-.008-29.138c-.006-1.678-.616-2.662-2.682-2.648-3.776.026-7.552.007-11.328.007-1.13,0-1.13,0-1.187,1.078H83.943q0-1.571-.007-3.142l.131-.109q4.662-.007,9.324-.015a2.866,2.866,0,0,0,1.2-.092c.168-.084.106-.63.148-.967l2.008,0c.057,1.063.057,1.056,1.131,1.065a11.3,11.3,0,0,1,3.475.256,1.694,1.694,0,0,0,.657.369l.776.7c0,.1-.009.211.128.242" transform="translate(-42.792 -107.505)" fill="#cbd1da"/>
          <path id="Trazado_752729" data-name="Trazado 752729" d="M90.195,20.584l.007-3.142c.014-.106-.037-.133-.131-.109l-9.694-.013c-1.043,0-1.043,0-1.046-1.058a8.177,8.177,0,0,0,.083-2.127c.029-.916-.015-1.834.017-2.75.015-.43-.115-.557-.545-.55-1.441.025-2.882-.009-4.322.02-.461.009-.585-.125-.583-.584q.029-4.847,0-9.693c0-.464.126-.574.579-.572q5.927.027,11.855,0c.448,0,.579.1.576.565q-.034,4.847,0,9.693c0,.448-.106.6-.576.591-1.418-.03-2.839.015-4.257-.025-.514-.015-.614.153-.6.624.036,1.025.039,2.053,0,3.077-.02.507.113.658.64.654,3.078-.027,6.157.006,9.235-.028.654-.007,1.048.063.875.836a.237.237,0,0,0,.1.285q.018,2.153.035,4.305c-.01.238-.029.477-.029.715,0,2.436-.018,4.871.012,7.307.007.526-.149.683-.653.633-.474-.047-.954-.027-1.432-.037l-.089-.1c-.009-.346-.023-.693-.024-1.039q-.016-3.74-.028-7.48M80.488,8.668c1.286,0,2.572-.011,3.858.007.347,0,.5-.057.491-.454-.021-1.852-.018-3.7,0-5.557,0-.359-.085-.489-.468-.487q-3.857.023-7.715,0c-.358,0-.489.079-.485.464.019,1.852.025,3.705,0,5.557-.007.448.174.481.533.476,1.264-.017,2.528-.007,3.792-.007" transform="translate(-64.264 -0.005)"/>
          <path id="Trazado_752730" data-name="Trazado 752730" d="M309.3,16.258c-.042.337.021.883-.148.967a2.868,2.868,0,0,1-1.2.092q-4.662.012-9.324.015c-.094-.024-.145,0-.131.109q0,1.571.007,3.142c-.009.281-.025.562-.026.844q-.015,3.838-.026,7.676l-.089.1c-.477.01-.958-.01-1.432.037-.5.05-.657-.107-.653-.633.019-2.674-.007-5.348-.017-8.021.048-1.442.054-2.883,0-4.324.017-1.087.017-1.087,1.094-1.087,3.054,0,6.109-.01,9.163.01.464,0,.651-.076.629-.6-.045-1.067-.033-2.138,0-3.206.011-.419-.094-.556-.534-.547-1.439.029-2.88-.009-4.319.022-.468.01-.578-.137-.576-.587q.027-4.876,0-9.752c0-.391.081-.512.5-.51q5.988.026,11.977,0c.445,0,.534.137.532.551q-.024,4.876,0,9.752c0,.441-.132.551-.554.545-1.461-.023-2.923,0-4.385-.014-.329,0-.518.033-.51.447.03,1.657.025,3.315.033,4.972m-1.152-7.591c1.264,0,2.528-.017,3.792.01.428.009.6-.059.594-.55-.032-1.808-.022-3.618-.005-5.426,0-.375-.058-.531-.49-.527q-3.825.033-7.65,0c-.453,0-.533.156-.529.561.019,1.787.023,3.574,0,5.361-.006.444.086.6.563.585,1.241-.036,2.484-.012,3.727-.012" transform="translate(-257.35 -0.004)"/>
          <path id="Trazado_752731" data-name="Trazado 752731" d="M211.24,16.247c.009-1.657.006-3.315.038-4.971.008-.424-.194-.443-.516-.441-1.44.01-2.881-.018-4.32.017-.506.012-.613-.153-.61-.63q.031-4.81,0-9.621c0-.507.144-.6.62-.6q5.891.03,11.782,0c.475,0,.624.092.62.6q-.04,4.81,0,9.621c0,.477-.1.643-.61.631-1.439-.035-2.88-.007-4.32-.017-.322,0-.524.016-.516.441.032,1.657.028,3.314.038,4.971q-.008,2.17-.015,4.341c0,.305-.012.611-.013.916q-.016,3.8-.031,7.594l-.121.107h-1.838L211.3,29.1c-.01-.239-.028-.478-.029-.718q-.01-3.9-.015-7.792a1.306,1.306,0,0,1-.081-.419,25.632,25.632,0,0,0,.066-3.921m1.1-7.584c1.286,0,2.573-.012,3.859.008.36.006.482-.083.478-.463q-.029-2.78,0-5.559c0-.365-.092-.48-.469-.477q-3.859.024-7.718,0c-.365,0-.483.089-.479.468q.028,2.779,0,5.559c0,.374.109.476.472.471,1.286-.019,2.573-.007,3.859-.007" transform="translate(-178.8 0)"/>
          <path id="Trazado_752732" data-name="Trazado 752732" d="M263.664,128.058l.015-4.341,4.265.008c.058,1.441.051,2.883,0,4.324l-4.283.008" transform="translate(-229.039 -107.47)" fill="#cbd1da"/>
          <path id="Trazado_752733" data-name="Trazado 752733" d="M218.569,123.719a25.651,25.651,0,0,1-.066,3.921,1.3,1.3,0,0,0,.081.419l-4.283-.008q-.018-2.153-.035-4.305Z" transform="translate(-186.128 -107.472)" fill="#cbd1da"/>
          <path id="Trazado_752734" data-name="Trazado 752734" d="M474.615,426.5c-.06.3-.238.245-.435.148a.3.3,0,0,1-.2-.362c.066-.275.3-.176.48-.2.064.134-.059.337.155.415" transform="translate(-411.727 -370.134)"/>
          <path id="Trazado_752735" data-name="Trazado 752735" d="M487.858,493.928c-.012-.487.046-.9.708-.643a2.207,2.207,0,0,1-.708.643" transform="translate(-423.791 -428.439)"/>
          <path id="Trazado_752736" data-name="Trazado 752736" d="M493.263,488.648c-.246-.654.2-.682.643-.707a2.191,2.191,0,0,1-.643.707" transform="translate(-428.426 -423.865)"/>
          <path id="Trazado_752737" data-name="Trazado 752737" d="M500.059,434.458c-.323.064-.529-.166-.756-.32-.2-.139-.166-.285.069-.369l.687.689" transform="translate(-433.619 -376.806)"/>
          <path id="Trazado_752738" data-name="Trazado 752738" d="M37.063,134.772c.163.082.289.2.234.4-.073.265-.3.26-.513.252a.771.771,0,0,1,.28-.649" transform="translate(-31.953 -117.074)"/>
          <path id="Trazado_752739" data-name="Trazado 752739" d="M476.932,501.5c.114-.424.3-.713.785-.4a1.6,1.6,0,0,1-.785.4" transform="translate(-414.301 -435.179)"/>
          <path id="Trazado_752740" data-name="Trazado 752740" d="M34.3,141.714c.394.421.36.52-.226.66a1.037,1.037,0,0,1,.226-.66" transform="translate(-29.599 -123.104)"/>
          <path id="Trazado_752741" data-name="Trazado 752741" d="M508.355,450.908a.6.6,0,0,1,0-.936.8.8,0,0,1,0,.936" transform="translate(-441.401 -390.881)"/>
          <path id="Trazado_752742" data-name="Trazado 752742" d="M507.174,443.719c-.545-.133-.375-.472-.232-.8a1.047,1.047,0,0,1,.232.8" transform="translate(-440.246 -384.751)"/>
          <path id="Trazado_752743" data-name="Trazado 752743" d="M460.977,507.431c0-.181.056-.333.248-.381s.255.079.273.242c-.125.228-.353.07-.521.138" transform="translate(-400.441 -440.455)"/>
          <path id="Trazado_752744" data-name="Trazado 752744" d="M507.224,461.534c-.134-.018-.264-.051-.251-.223.017-.208.163-.284.351-.3,0,.182.119.387-.1.527" transform="translate(-440.396 -400.467)"/>
          <path id="Trazado_752745" data-name="Trazado 752745" d="M8.326,432.931c-.011.265.019.591-.392.266a.406.406,0,0,1,.392-.266" transform="translate(-6.892 -376.078)"/>
          <path id="Trazado_752746" data-name="Trazado 752746" d="M493.337,430.226c-.211.108-.4.151-.481-.153.21-.1.309.138.481.153" transform="translate(-428.133 -373.572)"/>
          <path id="Trazado_752747" data-name="Trazado 752747" d="M502.286,479.287c-.223-.227-.036-.24.136-.26-.023.1.018.23-.136.26" transform="translate(-436.237 -416.121)"/>
          <path id="Trazado_752748" data-name="Trazado 752748" d="M54.519,448.554a.736.736,0,0,0,.521-.4,1.8,1.8,0,0,0,.545-.784,1.7,1.7,0,0,0,.251-1.052c.18-.1.111-.254.1-.4.06-1.053.06-1.053,1.149-1.053h19.7c.261,0,.523-.013.784-.02l.681.209.263.341.126.393.009.786-.428,1.571-.222.365-.485.827-.852.846-.8.478-.524.262-.393.138c-.476.226-.638.095-.618-.445.038-1.024,0-2.051.019-3.076.009-.393-.1-.536-.514-.531q-2.749.029-5.5,0c-.374,0-.485.118-.479.486.021,1.112-.009,2.226.016,3.338.009.406-.125.51-.519.517-1.649.029-1.649.042-1.659-1.608,0-.742-.025-1.484-.007-2.225.009-.367-.112-.492-.484-.489q-2.782.022-5.563,0c-.357,0-.439.138-.434.463.015,1.069-.022,2.139.017,3.207.019.517-.136.658-.652.655-3.338-.023-6.676-.012-10.014-.012q-13.352,0-26.7.01a5.539,5.539,0,0,1-2.327-.292l-.259-.04a.49.49,0,0,0-.435-.18l-.85-.61-.933-.934-.611-.849a.513.513,0,0,0-.172-.437c-.013-.1.006-.223-.133-.262l-.167-.78q0-.131,0-.262c-.355-.55.193-.975.2-1.474.144-.224.443-.169.615-.344q5.763-.01,11.527-.02,4.585,0,9.17,0c1.162,0,1.162,0,1.175,1.141a3.364,3.364,0,0,0,2.3,3.091,1.673,1.673,0,0,0,.562.086c3.668,0,7.336,0,11,.016a3.569,3.569,0,0,0,1.725-.43.32.32,0,0,0,.268-.217" transform="translate(-13.767 -386.428)" fill="#949fab"/>
          <path id="Trazado_752749" data-name="Trazado 752749" d="M217.1,446.929a5.1,5.1,0,0,1-.515.051q-5.035,0-10.07,0a1.4,1.4,0,0,1-1.482-1.934c.094-.386.388-.212.58-.213,3.814-.013,7.629-.01,11.443-.011a4.174,4.174,0,0,0,.523,0c.353-.045.455.1.432.442a3.068,3.068,0,0,1-.153,1.265l-.372.3-.136-.009c-.1-.012-.22-.05-.251.108" transform="translate(-178.049 -386.384)" fill="#fe7062"/>
          <path id="Trazado_752750" data-name="Trazado 752750" d="M363.525,477.967c1.055,0,1.055,0,1.055,1.056,0,1.1,0,1.1-1.093,1.1s-1.1,0-1.1-1.106c0-1.048,0-1.048,1.137-1.048" transform="translate(-314.799 -415.2)" fill="#fe7062"/>
          <path id="Trazado_752751" data-name="Trazado 752751" d="M429.441,480.121c-1.135,0-1.135,0-1.135-1.14,0-1.014,0-1.014,1.038-1.014,1.149,0,1.149,0,1.149,1.153,0,1,0,1-1.052,1" transform="translate(-372.06 -415.2)" fill="#fe7062"/>
          <path id="Trazado_752752" data-name="Trazado 752752" d="M14.05,489.425a2.374,2.374,0,0,1-1.188-1.187c.252-.146.478-.2.618.148a.506.506,0,0,0,.338.36c.438.1.4.368.233.679" transform="translate(-11.173 -424.025)"/>
          <path id="Trazado_752753" data-name="Trazado 752753" d="M490.836,459.585l.428-1.571c.143.025.284.118.2.249a1.138,1.138,0,0,0-.1.788c.035.377-.14.562-.525.534" transform="translate(-426.379 -397.867)"/>
          <path id="Trazado_752754" data-name="Trazado 752754" d="M485.451,473.588l.485-.827c.5.326.073.595-.071.86-.127.233-.3.244-.414-.032" transform="translate(-421.701 -410.677)"/>
          <path id="Trazado_752755" data-name="Trazado 752755" d="M472.906,485.984l.8-.478c.273.115.275.291.036.413-.254.131-.516.6-.832.064" transform="translate(-410.803 -421.749)"/>
          <path id="Trazado_752756" data-name="Trazado 752756" d="M32.037,485.852l.85.61c-.682.079-.937-.1-.85-.61" transform="translate(-27.816 -422.049)"/>
          <path id="Trazado_752757" data-name="Trazado 752757" d="M486.555,443.272l-.681-.209c.172-.4.5-.266.744-.155.216.1.14.271-.063.364" transform="translate(-422.068 -384.646)"/>
          <path id="Trazado_752758" data-name="Trazado 752758" d="M20.275,472.273l.611.849c-.5.09-.688-.165-.611-.849" transform="translate(-17.598 -410.253)"/>
          <path id="Trazado_752759" data-name="Trazado 752759" d="M446.607,132.5a1.693,1.693,0,0,1-.657-.369c.1-.2.24-.328.467-.213.244.124.179.37.19.582" transform="translate(-387.387 -114.554)"/>
          <path id="Trazado_752760" data-name="Trazado 752760" d="M59.6,132.164a.778.778,0,0,1-.515.253c-.22-.179-.147-.317.063-.431s.407-.15.452.178" transform="translate(-51.21 -114.581)"/>
          <path id="Trazado_752761" data-name="Trazado 752761" d="M18.682,443.351c-.171.175-.471.12-.615.344-.054-.239-.085-.482.206-.587.211-.076.38-.019.409.243" transform="translate(-15.663 -384.891)"/>
          <path id="Trazado_752762" data-name="Trazado 752762" d="M300.345,458.28l.372-.3c.255.033.354.178.19.383-.2.25-.4.143-.562-.079" transform="translate(-260.903 -397.834)"/>
          <path id="Trazado_752763" data-name="Trazado 752763" d="M314.811,464.032a1.8,1.8,0,0,1-.545.784c0-.385-.1-.842.545-.784" transform="translate(-272.992 -403.09)"/>
          <path id="Trazado_752764" data-name="Trazado 752764" d="M6.106,478.526A.776.776,0,0,1,5.838,478c.214-.008.437-.016.512.246.056.2-.081.256-.244.276" transform="translate(-5.071 -415.23)"/>
          <path id="Trazado_752765" data-name="Trazado 752765" d="M51.242,140.316l-.346.476a.683.683,0,0,1,0-.557c.161-.259.293-.208.349.081" transform="translate(-44.158 -121.674)"/>
          <path id="Trazado_752766" data-name="Trazado 752766" d="M456.991,140.655c-.137-.03-.125-.14-.128-.242.025-.1.016-.226.16-.231a.218.218,0,0,1,.215.194c.046.2-.078.262-.246.278" transform="translate(-396.867 -121.773)"/>
          <path id="Trazado_752767" data-name="Trazado 752767" d="M465.92,491.276l.393-.138c-.013.124.026.277-.132.333s-.232-.051-.261-.195" transform="translate(-404.735 -426.641)"/>
          <path id="Trazado_752768" data-name="Trazado 752768" d="M493.192,449.426l-.126-.393c.135.013.3-.028.341.166.03.158-.085.206-.215.227" transform="translate(-428.316 -390.065)"/>
          <path id="Trazado_752769" data-name="Trazado 752769" d="M319.513,453.027c.011.144.08.3-.1.4q-.327-.293.1-.4" transform="translate(-277.344 -393.535)"/>
          <path id="Trazado_752770" data-name="Trazado 752770" d="M308.55,472.561a.32.32,0,0,1-.268.217c.031-.145-.057-.436.268-.217" transform="translate(-267.798 -410.435)"/>
          <path id="Trazado_752771" data-name="Trazado 752771" d="M17.4,466.947c.139.04.12.159.133.262-.173-.022-.352-.042-.133-.262" transform="translate(-15.024 -405.627)"/>
          <path id="Trazado_752772" data-name="Trazado 752772" d="M41.927,491.864l.259.04c-.04.06-.077.169-.12.171-.134.007-.124-.118-.138-.212" transform="translate(-36.421 -427.272)"/>
          <path id="Trazado_752773" data-name="Trazado 752773" d="M15.562,459.013q0,.131,0,.262c-.084-.013-.183-.022-.185-.129s.1-.12.181-.133" transform="translate(-13.362 -398.735)"/>
          <path id="Trazado_752774" data-name="Trazado 752774" d="M297.4,460.24c.031-.159.146-.121.251-.108,0,.232-.129.161-.251.108" transform="translate(-258.342 -399.695)"/>
          <path id="Trazado_752775" data-name="Trazado 752775" d="M28.986,503.046c-.092.024-.126-.03-.141-.107l.141.107" transform="translate(-25.057 -436.892)"/>
          <path id="Trazado_752776" data-name="Trazado 752776" d="M30.912,504.071c-.091.026-.129-.026-.152-.1l.152.1" transform="translate(-26.721 -437.787)"/>
          <path id="Trazado_752777" data-name="Trazado 752777" d="M99.718,156.7l4.283.008q.007,3.9.015,7.792c0,.239.019.478.029.718-.018.1.036.121.121.107H106c.085.015.139,0,.121-.107q.015-3.8.031-7.594c0-.305.009-.611.013-.916l4.283-.008c.01,2.674.036,5.348.017,8.021,0,.526.149.683.653.633.474-.047.954-.027,1.432-.037.083.016.121-.01.089-.1q.013-3.838.027-7.676c0-.281.017-.562.026-.843h2.063c.056,1.061.056,1.06,1.123,1.062l11.737.018.124.1c.018.193.053.387.053.58q0,14.309,0,28.618c0,.174-.022.348-.018.522.007.351-.13.475-.5.465-1.091-.029-2.183-.033-3.274,0-.46.014-.546-.168-.539-.571.02-1.157.014-2.314,0-3.471-.006-.7.2-1.542-.126-2.047s-1.249-.483-1.9-.731a5.051,5.051,0,0,0-.558-.124.737.737,0,0,1-.549-.465c-.908-2.1-.909-2.1.154-4.186.058-.114.123-.225.182-.338a.474.474,0,0,0-.051-.614c-.506-.644-1.161-1.13-1.7-1.739-1.073-1.2-2.27-2.3-3.392-3.458a.491.491,0,0,0-.715-.091c-.682.39-1.373.768-2.074,1.121-.12.06-.24.219-.463.086a8.686,8.686,0,0,0-1.683-.739,1,1,0,0,1-.777-.835,7.239,7.239,0,0,0-.425-1.242,1.109,1.109,0,0,0-.226-.661c.052-.529-.323-.462-.648-.462q-3.308,0-6.616.007c-1,0-1,0-1.251.945-.022.082.01.181-.02.258-.326.835-.349,1.806-1.492,2.17-1.008.321-1.926.809-2.856-.105a1.559,1.559,0,0,0-.4-.192c-.983-.5-.978-.491-1.712.247-1.185,1.193-2.39,2.366-3.559,3.573-.463.478-1.292.848-1.294,1.463,0,.6.589,1.192.884,1.805a1.337,1.337,0,0,1,.122,1.426,3.78,3.78,0,0,0-.519,1.45c-.03.27-.239.447-.561.537a22.96,22.96,0,0,0-2.37.736c-.215.086-.274.168-.252.359.2,1.778.019,3.563.1,5.342.019.449-.147.555-.564.544-.96-.026-1.921-.008-2.882-.008-.886,0-.891,0-.891-.853q0-14.41-.013-28.821c0-.533.161-.638.657-.635,3.712.02,7.424.011,11.135.011,1.072,0,1.072,0,1.128-1.061h2.194q.013,3.74.028,7.48c0,.346.016.693.024,1.039-.032.089.006.114.089.1.477.01.958-.01,1.432.037.5.05.659-.107.653-.633-.03-2.435-.014-4.871-.012-7.307,0-.238.019-.477.029-.715" transform="translate(-71.545 -136.118)" fill="#f3f9ff"/>
          <path id="Trazado_752778" data-name="Trazado 752778" d="M113.272,150.6l-11.737-.018c-1.067,0-1.067,0-1.123-1.062.057-1.077.057-1.077,1.187-1.077,3.776,0,7.552.018,11.328-.007,2.066-.014,2.676.97,2.682,2.648q.056,14.569.008,29.138a2.618,2.618,0,0,1-1.3,2.665,2.769,2.769,0,0,1-1.326.168q-18.99.007-37.979,0-3.536,0-7.072,0A2.118,2.118,0,0,1,65.846,181c0-1.2,0-2.4,0-3.6q0-13.423,0-26.847a2.1,2.1,0,0,1,2.069-2.1c4.191-.017,8.382-.005,12.572-.015.329,0,.48.072.432.431a3.992,3.992,0,0,0,.015.652c-.056,1.061-.056,1.061-1.128,1.061-3.712,0-7.424.009-11.135-.011-.5,0-.658.1-.657.635q.026,14.41.014,28.821c0,.853.005.853.891.853.961,0,1.922-.018,2.882.008.416.011.583-.095.563-.544-.077-1.779.108-3.564-.1-5.342-.022-.191.037-.272.252-.359a22.96,22.96,0,0,1,2.37-.736c.322-.09.531-.267.561-.537a3.78,3.78,0,0,1,.519-1.45,1.337,1.337,0,0,0-.122-1.426c-.295-.613-.886-1.205-.884-1.805,0-.615.83-.985,1.294-1.463,1.17-1.207,2.374-2.381,3.559-3.573.734-.739.729-.742,1.712-.247a1.558,1.558,0,0,1,.4.192c.93.914,1.848.426,2.856.105,1.144-.364,1.166-1.336,1.492-2.17.03-.077,0-.176.02-.258.252-.941.253-.943,1.251-.945q3.308-.006,6.616-.007c.324,0,.7-.068.648.462-.258.334-.184.555.226.661a7.24,7.24,0,0,1,.425,1.242,1,1,0,0,0,.777.835,8.69,8.69,0,0,1,1.683.739c.223.133.343-.026.463-.086.7-.353,1.392-.731,2.074-1.121a.491.491,0,0,1,.715.091c1.122,1.162,2.319,2.254,3.392,3.458.542.608,1.2,1.094,1.7,1.739a.474.474,0,0,1,.051.614c-.059.113-.124.224-.182.338-1.063,2.091-1.062,2.09-.154,4.186a.737.737,0,0,0,.549.465,5.051,5.051,0,0,1,.558.124c.647.248,1.571.222,1.9.731s.12,1.351.126,2.047c.01,1.157.016,2.314,0,3.471-.007.4.079.586.539.571,1.09-.034,2.183-.029,3.274,0,.373.01.511-.114.5-.465,0-.174.018-.348.018-.522q0-14.309,0-28.618c0-.193-.034-.387-.053-.58,0-.083-.031-.13-.124-.1M85.4,180.311c.083-.013.18-.026.18-.131s-.1-.118-.18-.131a6.117,6.117,0,0,1,.162-3.028,6.49,6.49,0,0,1,2.847-3.257c.129.074.239.106.236-.108a9.414,9.414,0,0,1,1.3-.279,5.428,5.428,0,0,1,6.147,5.606c0,.568-.115,1.151-.15,1.73-.146-.023-.31.091-.258.17.089.138.275.117.409-.016,1.157,0,2.316-.035,3.469.03.542.03.685-.241.731-.639a10.259,10.259,0,0,0-.107-3.816,9.721,9.721,0,0,0-4.033-5.781,9.536,9.536,0,0,0-7.108-1.493,8.806,8.806,0,0,0-4.575,2.07c-2.708,2.436-4.067,5.449-3.314,9.192.073.361.145.463.5.456,1.2-.022,2.4-.015,3.6-.019.149.145.378.153.444.007.089-.2-.1-.3-.3-.295q0-.134,0-.268m-6.559-2.882c.217,0,.443-.016.476-.288.031-.257-.184-.222-.344-.236a.423.423,0,0,1-.018-.129,11.831,11.831,0,0,1,4.791-7.694,9.962,9.962,0,0,1,6.072-2.128,14.638,14.638,0,0,1,3.284.213,13.612,13.612,0,0,1,2.326.64,13.241,13.241,0,0,1,4.717,3.709,11.949,11.949,0,0,1,2.236,5.131,12.963,12.963,0,0,1,.118,3.824c-.019.329.068.415.378.412q1.866-.017,3.733,0c.282,0,.378-.1.375-.381-.011-1.157.007-2.314-.012-3.471-.007-.414-.032-.793-.642-.875a9.67,9.67,0,0,1-1.546-.555.781.781,0,0,1-.546-.622,9.926,9.926,0,0,0-.962-2.494c-.458-.743-.736-1.445-.016-2.2.177-.187.178-.531.335-.749a.723.723,0,0,0-.161-1.1c-.881-.805-1.686-1.688-2.561-2.5a.746.746,0,0,0-1-.144c-.493.246-.94.577-1.46.781a.627.627,0,0,1-.6.04,12.541,12.541,0,0,0-3.212-1.357,1,1,0,0,1-.845-.808c-.131-.532-.372-1.037-.5-1.569a.42.42,0,0,0-.488-.384q-2.1.008-4.191,0c-.246,0-.4.064-.452.346a18.168,18.168,0,0,1-.628,1.858.556.556,0,0,1-.456.441,14.953,14.953,0,0,0-3.281,1.383.847.847,0,0,1-.961,0c-.476-.281-.973-.526-1.452-.8-.305-.175-.536-.14-.706.179l-.108.1c-1,.858-1.881,1.839-2.819,2.761a.389.389,0,0,0-.069.552c.3.562.571,1.141.87,1.7a.6.6,0,0,1,0,.627,14.337,14.337,0,0,0-1.318,3.231.9.9,0,0,1-.753.748c-.555.11-1.068.412-1.615.579-.25.077-.337.155-.333.424q.027,1.9.006,3.8c0,.333.084.461.437.456,1.222-.018,2.445-.012,3.667,0,.3,0,.463-.067.367-.408a11.54,11.54,0,0,1-.126-3.046m11.9,3.449h1.375c1.134,0,1.409-.187,1.72-1.273a4.566,4.566,0,0,0,.052-.908c.146-2.035-1.858-3.565-4.122-3.017a3.264,3.264,0,0,0-2.3,3.611,1.639,1.639,0,0,0,1.83,1.588h1.44" transform="translate(-57.198 -128.941)"/>
          <path id="Trazado_752779" data-name="Trazado 752779" d="M313.293,132.006c-.014-.106.037-.133.131-.109l-.131.109" transform="translate(-272.149 -114.569)" fill="#949fab"/>
          <path id="Trazado_752780" data-name="Trazado 752780" d="M196.511,131.9c.094-.024.145,0,.131.109l-.131-.109" transform="translate(-170.705 -114.569)" fill="#949fab"/>
          <path id="Trazado_752781" data-name="Trazado 752781" d="M94.929,23.024c-1.264,0-2.528-.011-3.792.007-.359,0-.54-.029-.533-.476.028-1.852.023-3.7,0-5.557,0-.385.128-.466.485-.464q3.857.021,7.715,0c.383,0,.471.128.468.487-.016,1.852-.019,3.705,0,5.557,0,.4-.144.459-.491.454-1.286-.018-2.572-.007-3.858-.007m.043-2.153h.458c1.769,0,1.758,0,1.667-1.782-.016-.32-.113-.4-.417-.4-.763.018-1.526.006-2.29.006-1.726,0-1.716,0-1.64,1.728.015.342.118.461.455.45.588-.019,1.177-.005,1.766,0" transform="translate(-78.705 -14.362)" fill="#91b3fa"/>
          <path id="Trazado_752782" data-name="Trazado 752782" d="M197.868,221.679c-.083.016-.121-.01-.089-.1l.089.1" transform="translate(-171.796 -192.483)" fill="#0e0e0e"/>
          <path id="Trazado_752783" data-name="Trazado 752783" d="M358.439,23c-1.242,0-2.485-.024-3.727.012-.476.014-.569-.141-.563-.585.026-1.787.021-3.574,0-5.361,0-.4.076-.565.529-.56q3.825.034,7.65,0c.431,0,.493.152.49.528-.017,1.809-.027,3.618.005,5.426.009.49-.167.559-.594.55-1.263-.027-2.528-.01-3.792-.01m.026-2.156h.589c1.671,0,1.659,0,1.624-1.7-.008-.366-.1-.49-.477-.479-.85.026-1.7.008-2.551.008-1.311,0-1.276,0-1.325,1.32-.024.652.115.962.833.861a9.527,9.527,0,0,1,1.307-.011" transform="translate(-307.642 -14.342)" fill="#91b3fa"/>
          <path id="Trazado_752784" data-name="Trazado 752784" d="M312.371,221.581c.032.089-.005.114-.089.1l.089-.1" transform="translate(-271.273 -192.483)" fill="#0e0e0e"/>
          <path id="Trazado_752785" data-name="Trazado 752785" d="M226.735,23.021c-1.286,0-2.573-.012-3.859.007-.363.005-.476-.1-.472-.471q.029-2.779,0-5.559c0-.378.114-.47.479-.468q3.859.022,7.718,0c.377,0,.473.112.469.477q-.025,2.78,0,5.559c0,.38-.118.469-.478.463-1.286-.02-2.573-.008-3.859-.009m-2.087-4.279a8.215,8.215,0,0,0-.075,1.8c-.018.272.14.325.367.325q1.8,0,3.593,0c.227,0,.386-.052.368-.324a8.3,8.3,0,0,0-.074-1.8l-.123-.025H224.77l-.122.024" transform="translate(-193.197 -14.359)" fill="#91b3fa"/>
          <path id="Trazado_752786" data-name="Trazado 752786" d="M247.584,221.679c-.085.015-.139-.005-.121-.107l.121.107" transform="translate(-214.962 -192.475)" fill="#020201"/>
          <path id="Trazado_752787" data-name="Trazado 752787" d="M262.528,221.572c.018.1-.036.121-.121.107l.121-.107" transform="translate(-227.947 -192.475)" fill="#020201"/>
          <path id="Trazado_752788" data-name="Trazado 752788" d="M285.674,243.132c-.41-.106-.484-.327-.226-.661a1.109,1.109,0,0,1,.226.661" transform="translate(-247.832 -210.629)"/>
          <path id="Trazado_752789" data-name="Trazado 752789" d="M427,164.868c.093-.027.123.02.124.1l-.124-.1" transform="translate(-370.924 -143.211)" fill="#26bcd6"/>
          <path id="Trazado_752790" data-name="Trazado 752790" d="M137.8,258.881c.17-.319.4-.354.706-.179.48.275.977.52,1.452.8a.847.847,0,0,0,.961,0,14.949,14.949,0,0,1,3.281-1.382.557.557,0,0,0,.456-.441,18.137,18.137,0,0,0,.628-1.858c.05-.282.206-.346.452-.346q2.1,0,4.191,0a.421.421,0,0,1,.488.384c.129.532.37,1.037.5,1.569a1,1,0,0,0,.845.808,12.543,12.543,0,0,1,3.212,1.357.627.627,0,0,0,.605-.04c.52-.2.967-.535,1.46-.781a.745.745,0,0,1,1,.144c.875.814,1.68,1.7,2.561,2.5a.723.723,0,0,1,.161,1.1c-.157.218-.157.563-.335.749-.719.758-.442,1.46.016,2.2a9.934,9.934,0,0,1,.962,2.494.781.781,0,0,0,.546.622,9.657,9.657,0,0,0,1.546.555c.61.082.635.461.642.875.019,1.157,0,2.314.012,3.471,0,.282-.093.383-.375.381q-1.866-.014-3.733,0c-.31,0-.4-.083-.378-.412a12.963,12.963,0,0,0-.118-3.824,11.95,11.95,0,0,0-2.236-5.131,13.24,13.24,0,0,0-4.717-3.709,13.6,13.6,0,0,0-2.326-.64,14.638,14.638,0,0,0-3.284-.213,9.964,9.964,0,0,0-6.072,2.128,11.832,11.832,0,0,0-4.791,7.694.422.422,0,0,0,.018.129l-.131.524a11.547,11.547,0,0,0,.127,3.046c.1.341-.064.41-.367.408-1.222-.01-2.445-.015-3.667,0-.352.005-.441-.123-.437-.456q.022-1.9-.006-3.8c0-.27.084-.348.333-.424.547-.167,1.061-.47,1.615-.579a.9.9,0,0,0,.753-.748,14.34,14.34,0,0,1,1.318-3.231.6.6,0,0,0,0-.627c-.3-.563-.569-1.142-.87-1.7a.389.389,0,0,1,.069-.552c.938-.922,1.818-1.9,2.819-2.761.088.019.12-.018.108-.1" transform="translate(-114.371 -221.922)" fill="#e6b046"/>
          <path id="Trazado_752791" data-name="Trazado 752791" d="M185.167,317.064c-1.2,0-2.4,0-3.6.019-.353.007-.425-.1-.5-.456-.753-3.743.606-6.756,3.314-9.192a8.806,8.806,0,0,1,4.575-2.07,9.536,9.536,0,0,1,7.108,1.493,9.72,9.72,0,0,1,4.033,5.781,10.259,10.259,0,0,1,.107,3.816c-.047.4-.189.669-.731.639-1.153-.065-2.312-.026-3.469-.03,0-.1-.051-.152-.151-.155.035-.579.151-1.162.15-1.73a5.428,5.428,0,0,0-6.147-5.606,9.4,9.4,0,0,0-1.3.279c-.1-.007-.224-.074-.236.108a6.49,6.49,0,0,0-2.847,3.257,6.119,6.119,0,0,0-.162,3.028v.263q0,.134,0,.268l-.145.288" transform="translate(-157.112 -265.139)" fill="#e6b046"/>
          <path id="Trazado_752792" data-name="Trazado 752792" d="M233.6,360.358h-1.44a1.639,1.639,0,0,1-1.83-1.588,3.264,3.264,0,0,1,2.3-3.611c2.263-.548,4.268.982,4.122,3.017a4.566,4.566,0,0,1-.052.909c-.311,1.086-.586,1.273-1.72,1.273Z" transform="translate(-200.06 -308.421)" fill="#57dbd8"/>
          <path id="Trazado_752793" data-name="Trazado 752793" d="M164.784,365.755l.131-.524c.161.014.375-.02.344.236-.033.272-.258.288-.475.288" transform="translate(-143.144 -317.268)"/>
          <path id="Trazado_752794" data-name="Trazado 752794" d="M213.64,393.5l.145-.288c.2,0,.389.1.3.295-.066.146-.295.138-.444-.007" transform="translate(-185.584 -341.575)" fill="#525457"/>
          <path id="Trazado_752795" data-name="Trazado 752795" d="M293.258,394.209c.1,0,.155.051.151.155-.134.133-.32.154-.409.016-.051-.079.112-.193.258-.17" transform="translate(-254.515 -342.438)" fill="#525457"/>
          <path id="Trazado_752796" data-name="Trazado 752796" d="M214.729,389.436v-.263c.083.013.18.026.18.131s-.1.118-.18.131" transform="translate(-186.53 -338.066)" fill="#020201"/>
          <path id="Trazado_752797" data-name="Trazado 752797" d="M237.646,340.482c.012-.182.138-.115.236-.108,0,.215-.107.183-.236.108" transform="translate(-206.438 -295.66)" fill="#020201"/>
          <path id="Trazado_752798" data-name="Trazado 752798" d="M177.713,281.441c.012.085-.02.123-.108.1l.108-.1" transform="translate(-154.282 -244.482)" fill="#020201"/>
          <path id="Trazado_752799" data-name="Trazado 752799" d="M109.012,35.152c-.589,0-1.178-.014-1.766.005-.337.011-.44-.108-.455-.45-.076-1.728-.086-1.728,1.64-1.728.763,0,1.527.012,2.29-.006.3-.007.4.077.417.4.091,1.783.1,1.782-1.667,1.782h-.458" transform="translate(-92.745 -28.644)"/>
          <path id="Trazado_752800" data-name="Trazado 752800" d="M372.839,35.134a9.527,9.527,0,0,0-1.307.011c-.718.1-.857-.209-.833-.861.049-1.319.014-1.32,1.325-1.32.85,0,1.7.018,2.551-.008.375-.011.469.113.477.479.035,1.7.047,1.7-1.624,1.7Z" transform="translate(-322.016 -28.627)"/>
          <path id="Trazado_752801" data-name="Trazado 752801" d="M243.085,33.216a8.312,8.312,0,0,1,.074,1.8c.018.272-.142.324-.368.324q-1.8,0-3.593,0c-.227,0-.385-.053-.367-.325a8.216,8.216,0,0,1,.075-1.8c.053.052.091.034.122-.024h3.935c.031.059.07.075.123.025" transform="translate(-207.455 -28.832)"/>
          <path id="Trazado_752802" data-name="Trazado 752802" d="M270.515,33.216c-.053.051-.092.035-.123-.025l.123.025" transform="translate(-234.884 -28.832)" fill="#020201"/>
          <path id="Trazado_752803" data-name="Trazado 752803" d="M239.619,33.19c-.031.058-.07.076-.122.024l.122-.024" transform="translate(-208.046 -28.831)" fill="#020201"/>
        </g>
      </g>
    </g>
  </g>
</svg>
