<svg xmlns="http://www.w3.org/2000/svg" xmlns:xlink="http://www.w3.org/1999/xlink" width="392.032" height="234.176" viewBox="0 0 392.032 234.176">
  <defs>
    <clipPath id="clip-path">
      <rect id="Rectángulo_352791" data-name="Rectángulo 352791" width="197.311" height="100.658" fill="#12263f"/>
    </clipPath>
    <clipPath id="clip-path-2">
      <rect id="Rectángulo_360295" data-name="Rectángulo 360295" width="283.53" height="234.176" fill="none"/>
    </clipPath>
    <clipPath id="clip-path-6">
      <rect id="Rectángulo_360267" data-name="Rectángulo 360267" width="13.8" height="8.651" fill="none"/>
    </clipPath>
    <clipPath id="clip-path-7">
      <rect id="Rectángulo_360268" data-name="Rectángulo 360268" width="1.635" height="1.635" fill="none"/>
    </clipPath>
    <clipPath id="clip-path-8">
      <rect id="Rectángulo_360269" data-name="Rectángulo 360269" width="1.716" height="1.708" fill="none"/>
    </clipPath>
    <clipPath id="clip-path-9">
      <rect id="Rectángulo_360270" data-name="Rectángulo 360270" width="22.095" height="1.78" fill="none"/>
    </clipPath>
    <clipPath id="clip-path-10">
      <rect id="Rectángulo_360271" data-name="Rectángulo 360271" width="10.926" height="2.243" fill="none"/>
    </clipPath>
    <clipPath id="clip-path-14">
      <rect id="Rectángulo_360291" data-name="Rectángulo 360291" width="32.356" height="46.522" fill="#bfaf99"/>
    </clipPath>
    <clipPath id="clip-path-15">
      <rect id="Rectángulo_358199" data-name="Rectángulo 358199" width="157.781" height="118.445" fill="none"/>
    </clipPath>
    <clipPath id="clip-path-16">
      <rect id="Rectángulo_356484" data-name="Rectángulo 356484" width="74.937" height="13.507" fill="none"/>
    </clipPath>
    <clipPath id="clip-path-17">
      <rect id="Rectángulo_360296" data-name="Rectángulo 360296" width="52.445" height="52.445" fill="none"/>
    </clipPath>
  </defs>
  <g id="Grupo_1023331" data-name="Grupo 1023331" transform="translate(8715 -195.685)">
    <g id="Grupo_1022857" data-name="Grupo 1022857" transform="translate(-667.398 7757.953)">
      <g id="Grupo_1020694" data-name="Grupo 1020694" transform="translate(-8047.602 -7532)">
        <g id="Enmascarar_grupo_1018593" data-name="Enmascarar grupo 1018593" transform="translate(194.721 0)" clip-path="url(#clip-path)">
          <path id="Trazado_151731" data-name="Trazado 151731" d="M93.947,148.336a54.39,54.39,0,1,1,54.39-54.39,54.452,54.452,0,0,1-54.39,54.39m0,39.556A93.946,93.946,0,1,0,0,93.946,93.946,93.946,0,0,0,93.947,187.893Z" transform="translate(4.076 6.713)" fill="#4adbd1"/>
        </g>
        <g id="Grupo_1018971" data-name="Grupo 1018971" transform="translate(0 0)">
          <path id="Trazado_145969" data-name="Trazado 145969" d="M55.641,0A55.641,55.641,0,1,1,0,55.641,55.641,55.641,0,0,1,55.641,0Z" transform="translate(0 2.824)" fill="#ffca28" opacity="0.444" style="mix-blend-mode: multiply;isolation: isolate"/>
          <rect id="Rectángulo_34812" data-name="Rectángulo 34812" width="392.032" height="165.125" transform="translate(0)" fill="none"/>
          <path id="Trazado_145971" data-name="Trazado 145971" d="M6.35,0A6.35,6.35,0,1,1,0,6.35,6.35,6.35,0,0,1,6.35,0Z" transform="translate(25.088 139.84)" fill="#31313c" opacity="0.444" style="mix-blend-mode: multiply;isolation: isolate"/>
          <g id="Grupo_80270" data-name="Grupo 80270" transform="translate(267.108 48.717)">
            <path id="Trazado_145968" data-name="Trazado 145968" d="M62.462,0A62.462,62.462,0,1,1,0,62.462,62.462,62.462,0,0,1,62.462,0Z" transform="translate(0)" fill="#31313c" opacity="0.444" style="mix-blend-mode: multiply;isolation: isolate"/>
            <g id="Grupo_78276" data-name="Grupo 78276" transform="translate(24.387 25.822)">
              <g id="Grupo_53306" data-name="Grupo 53306">
                <path id="Trazado_99200" data-name="Trazado 99200" d="M415.91,51.035a.849.849,0,1,1-.849-.811A.83.83,0,0,1,415.91,51.035Z" transform="translate(-414.214 -50.224)" fill="#fff"/>
                <path id="Trazado_99201" data-name="Trazado 99201" d="M424.356,51.035a.849.849,0,1,1-.848-.811A.83.83,0,0,1,424.356,51.035Z" transform="translate(-415.027 -50.224)" fill="#fff"/>
                <path id="Trazado_99202" data-name="Trazado 99202" d="M432.8,51.035a.849.849,0,1,1-.848-.811A.83.83,0,0,1,432.8,51.035Z" transform="translate(-415.84 -50.224)" fill="#fff"/>
                <path id="Trazado_99203" data-name="Trazado 99203" d="M441.249,51.035a.849.849,0,1,1-.849-.811A.83.83,0,0,1,441.249,51.035Z" transform="translate(-416.653 -50.224)" fill="#fff"/>
                <path id="Trazado_99204" data-name="Trazado 99204" d="M449.7,51.035a.849.849,0,1,1-.848-.811A.83.83,0,0,1,449.7,51.035Z" transform="translate(-417.466 -50.224)" fill="#fff"/>
                <path id="Trazado_99205" data-name="Trazado 99205" d="M458.141,51.035a.849.849,0,1,1-.848-.811A.83.83,0,0,1,458.141,51.035Z" transform="translate(-418.278 -50.224)" fill="#fff"/>
                <path id="Trazado_99206" data-name="Trazado 99206" d="M466.588,51.035a.849.849,0,1,1-.849-.811A.831.831,0,0,1,466.588,51.035Z" transform="translate(-419.091 -50.224)" fill="#fff"/>
                <path id="Trazado_99207" data-name="Trazado 99207" d="M475.035,51.035a.849.849,0,1,1-.848-.811A.83.83,0,0,1,475.035,51.035Z" transform="translate(-419.904 -50.224)" fill="#fff"/>
                <path id="Trazado_99208" data-name="Trazado 99208" d="M483.48,51.035a.849.849,0,1,1-.848-.811A.83.83,0,0,1,483.48,51.035Z" transform="translate(-420.717 -50.224)" fill="#fff"/>
                <path id="Trazado_99209" data-name="Trazado 99209" d="M491.927,51.035a.849.849,0,1,1-.849-.811A.831.831,0,0,1,491.927,51.035Z" transform="translate(-421.53 -50.224)" fill="#fff"/>
                <path id="Trazado_99210" data-name="Trazado 99210" d="M500.374,51.035a.849.849,0,1,1-.849-.811A.83.83,0,0,1,500.374,51.035Z" transform="translate(-422.343 -50.224)" fill="#fff"/>
              </g>
              <g id="Grupo_53307" data-name="Grupo 53307" transform="translate(0 6.489)">
                <path id="Trazado_99211" data-name="Trazado 99211" d="M415.91,58.543a.849.849,0,1,1-.849-.811A.83.83,0,0,1,415.91,58.543Z" transform="translate(-414.214 -57.732)" fill="#fff"/>
                <path id="Trazado_99212" data-name="Trazado 99212" d="M424.356,58.543a.849.849,0,1,1-.848-.811A.83.83,0,0,1,424.356,58.543Z" transform="translate(-415.027 -57.732)" fill="#fff"/>
                <path id="Trazado_99213" data-name="Trazado 99213" d="M432.8,58.543a.849.849,0,1,1-.848-.811A.83.83,0,0,1,432.8,58.543Z" transform="translate(-415.84 -57.732)" fill="#fff"/>
                <path id="Trazado_99214" data-name="Trazado 99214" d="M441.249,58.543a.849.849,0,1,1-.849-.811A.83.83,0,0,1,441.249,58.543Z" transform="translate(-416.653 -57.732)" fill="#fff"/>
                <path id="Trazado_99215" data-name="Trazado 99215" d="M449.7,58.543a.849.849,0,1,1-.848-.811A.83.83,0,0,1,449.7,58.543Z" transform="translate(-417.466 -57.732)" fill="#fff"/>
                <path id="Trazado_99216" data-name="Trazado 99216" d="M458.141,58.543a.849.849,0,1,1-.848-.811A.83.83,0,0,1,458.141,58.543Z" transform="translate(-418.278 -57.732)" fill="#fff"/>
                <path id="Trazado_99217" data-name="Trazado 99217" d="M466.588,58.543a.849.849,0,1,1-.849-.811A.831.831,0,0,1,466.588,58.543Z" transform="translate(-419.091 -57.732)" fill="#fff"/>
                <path id="Trazado_99218" data-name="Trazado 99218" d="M475.035,58.543a.849.849,0,1,1-.848-.811A.83.83,0,0,1,475.035,58.543Z" transform="translate(-419.904 -57.732)" fill="#fff"/>
                <path id="Trazado_99219" data-name="Trazado 99219" d="M483.48,58.543a.849.849,0,1,1-.848-.811A.83.83,0,0,1,483.48,58.543Z" transform="translate(-420.717 -57.732)" fill="#fff"/>
                <path id="Trazado_99220" data-name="Trazado 99220" d="M491.927,58.543a.849.849,0,1,1-.849-.811A.831.831,0,0,1,491.927,58.543Z" transform="translate(-421.53 -57.732)" fill="#fff"/>
                <path id="Trazado_99221" data-name="Trazado 99221" d="M500.374,58.543a.849.849,0,1,1-.849-.811A.83.83,0,0,1,500.374,58.543Z" transform="translate(-422.343 -57.732)" fill="#fff"/>
              </g>
              <g id="Grupo_53308" data-name="Grupo 53308" transform="translate(0 12.978)">
                <ellipse id="Elipse_3955" data-name="Elipse 3955" cx="0.848" cy="0.811" rx="0.848" ry="0.811" fill="#fff"/>
                <path id="Trazado_99222" data-name="Trazado 99222" d="M424.356,66.051a.849.849,0,1,1-.848-.811A.83.83,0,0,1,424.356,66.051Z" transform="translate(-415.027 -65.24)" fill="#fff"/>
                <ellipse id="Elipse_3956" data-name="Elipse 3956" cx="0.848" cy="0.811" rx="0.848" ry="0.811" transform="translate(15.267)" fill="#fff"/>
                <path id="Trazado_99223" data-name="Trazado 99223" d="M441.249,66.051a.849.849,0,1,1-.849-.811A.831.831,0,0,1,441.249,66.051Z" transform="translate(-416.653 -65.24)" fill="#fff"/>
                <path id="Trazado_99224" data-name="Trazado 99224" d="M449.7,66.051a.849.849,0,1,1-.848-.811A.831.831,0,0,1,449.7,66.051Z" transform="translate(-417.466 -65.24)" fill="#fff"/>
                <ellipse id="Elipse_3957" data-name="Elipse 3957" cx="0.848" cy="0.811" rx="0.848" ry="0.811" transform="translate(38.167)" fill="#fff"/>
                <path id="Trazado_99225" data-name="Trazado 99225" d="M466.588,66.051a.849.849,0,1,1-.849-.811A.831.831,0,0,1,466.588,66.051Z" transform="translate(-419.091 -65.24)" fill="#fff"/>
                <ellipse id="Elipse_3958" data-name="Elipse 3958" cx="0.848" cy="0.811" rx="0.848" ry="0.811" transform="translate(53.434)" fill="#fff"/>
                <ellipse id="Elipse_3959" data-name="Elipse 3959" cx="0.848" cy="0.811" rx="0.848" ry="0.811" transform="translate(61.067)" fill="#fff"/>
                <path id="Trazado_99226" data-name="Trazado 99226" d="M491.927,66.051a.849.849,0,1,1-.849-.811A.831.831,0,0,1,491.927,66.051Z" transform="translate(-421.53 -65.24)" fill="#fff"/>
                <path id="Trazado_99227" data-name="Trazado 99227" d="M500.374,66.051a.849.849,0,1,1-.849-.811A.831.831,0,0,1,500.374,66.051Z" transform="translate(-422.343 -65.24)" fill="#fff"/>
              </g>
              <g id="Grupo_53309" data-name="Grupo 53309" transform="translate(0 19.466)">
                <ellipse id="Elipse_3960" data-name="Elipse 3960" cx="0.848" cy="0.811" rx="0.848" ry="0.811" transform="translate(0 0)" fill="#fff"/>
                <path id="Trazado_99228" data-name="Trazado 99228" d="M424.356,73.559a.849.849,0,1,1-.848-.812A.83.83,0,0,1,424.356,73.559Z" transform="translate(-415.027 -72.747)" fill="#fff"/>
                <ellipse id="Elipse_3961" data-name="Elipse 3961" cx="0.848" cy="0.811" rx="0.848" ry="0.811" transform="translate(15.267 0)" fill="#fff"/>
                <path id="Trazado_99229" data-name="Trazado 99229" d="M441.249,73.559a.849.849,0,1,1-.849-.812A.83.83,0,0,1,441.249,73.559Z" transform="translate(-416.653 -72.747)" fill="#fff"/>
                <path id="Trazado_99230" data-name="Trazado 99230" d="M449.7,73.559a.849.849,0,1,1-.848-.812A.83.83,0,0,1,449.7,73.559Z" transform="translate(-417.466 -72.747)" fill="#fff"/>
                <ellipse id="Elipse_3962" data-name="Elipse 3962" cx="0.848" cy="0.811" rx="0.848" ry="0.811" transform="translate(38.167 0)" fill="#fff"/>
                <path id="Trazado_99231" data-name="Trazado 99231" d="M466.588,73.559a.849.849,0,1,1-.849-.812A.831.831,0,0,1,466.588,73.559Z" transform="translate(-419.091 -72.747)" fill="#fff"/>
                <ellipse id="Elipse_3963" data-name="Elipse 3963" cx="0.848" cy="0.811" rx="0.848" ry="0.811" transform="translate(53.434 0)" fill="#fff"/>
                <ellipse id="Elipse_3964" data-name="Elipse 3964" cx="0.848" cy="0.811" rx="0.848" ry="0.811" transform="translate(61.067 0)" fill="#fff"/>
                <path id="Trazado_99232" data-name="Trazado 99232" d="M491.927,73.559a.849.849,0,1,1-.849-.812A.831.831,0,0,1,491.927,73.559Z" transform="translate(-421.53 -72.747)" fill="#fff"/>
                <path id="Trazado_99233" data-name="Trazado 99233" d="M500.374,73.559a.849.849,0,1,1-.849-.812A.83.83,0,0,1,500.374,73.559Z" transform="translate(-422.343 -72.747)" fill="#fff"/>
              </g>
              <g id="Grupo_53310" data-name="Grupo 53310" transform="translate(0 25.955)">
                <path id="Trazado_99234" data-name="Trazado 99234" d="M415.91,81.067a.849.849,0,1,1-.849-.812A.83.83,0,0,1,415.91,81.067Z" transform="translate(-414.214 -80.255)" fill="#fff"/>
                <path id="Trazado_99235" data-name="Trazado 99235" d="M424.356,81.067a.849.849,0,1,1-.848-.812A.83.83,0,0,1,424.356,81.067Z" transform="translate(-415.027 -80.255)" fill="#fff"/>
                <path id="Trazado_99236" data-name="Trazado 99236" d="M432.8,81.067a.849.849,0,1,1-.848-.812A.83.83,0,0,1,432.8,81.067Z" transform="translate(-415.84 -80.255)" fill="#fff"/>
                <path id="Trazado_99237" data-name="Trazado 99237" d="M441.249,81.067a.849.849,0,1,1-.849-.812A.83.83,0,0,1,441.249,81.067Z" transform="translate(-416.653 -80.255)" fill="#fff"/>
                <path id="Trazado_99238" data-name="Trazado 99238" d="M449.7,81.067a.849.849,0,1,1-.848-.812A.83.83,0,0,1,449.7,81.067Z" transform="translate(-417.466 -80.255)" fill="#fff"/>
                <path id="Trazado_99239" data-name="Trazado 99239" d="M458.141,81.067a.849.849,0,1,1-.848-.812A.83.83,0,0,1,458.141,81.067Z" transform="translate(-418.278 -80.255)" fill="#fff"/>
                <path id="Trazado_99240" data-name="Trazado 99240" d="M466.588,81.067a.849.849,0,1,1-.849-.812A.831.831,0,0,1,466.588,81.067Z" transform="translate(-419.091 -80.255)" fill="#fff"/>
                <path id="Trazado_99241" data-name="Trazado 99241" d="M475.035,81.067a.849.849,0,1,1-.848-.812A.83.83,0,0,1,475.035,81.067Z" transform="translate(-419.904 -80.255)" fill="#fff"/>
                <path id="Trazado_99242" data-name="Trazado 99242" d="M483.48,81.067a.849.849,0,1,1-.848-.812A.83.83,0,0,1,483.48,81.067Z" transform="translate(-420.717 -80.255)" fill="#fff"/>
                <path id="Trazado_99243" data-name="Trazado 99243" d="M491.927,81.067a.849.849,0,1,1-.849-.812A.831.831,0,0,1,491.927,81.067Z" transform="translate(-421.53 -80.255)" fill="#fff"/>
                <path id="Trazado_99244" data-name="Trazado 99244" d="M500.374,81.067a.849.849,0,1,1-.849-.812A.83.83,0,0,1,500.374,81.067Z" transform="translate(-422.343 -80.255)" fill="#fff"/>
              </g>
              <g id="Grupo_53311" data-name="Grupo 53311" transform="translate(0 32.444)">
                <ellipse id="Elipse_3965" data-name="Elipse 3965" cx="0.848" cy="0.811" rx="0.848" ry="0.811" transform="translate(0 0)" fill="#fff"/>
                <path id="Trazado_99245" data-name="Trazado 99245" d="M424.356,88.575a.849.849,0,1,1-.848-.812A.83.83,0,0,1,424.356,88.575Z" transform="translate(-415.027 -87.763)" fill="#fff"/>
                <ellipse id="Elipse_3966" data-name="Elipse 3966" cx="0.848" cy="0.811" rx="0.848" ry="0.811" transform="translate(15.267 0)" fill="#fff"/>
                <path id="Trazado_99246" data-name="Trazado 99246" d="M441.249,88.575a.849.849,0,1,1-.849-.812A.83.83,0,0,1,441.249,88.575Z" transform="translate(-416.653 -87.763)" fill="#fff"/>
                <path id="Trazado_99247" data-name="Trazado 99247" d="M449.7,88.575a.849.849,0,1,1-.848-.812A.83.83,0,0,1,449.7,88.575Z" transform="translate(-417.466 -87.763)" fill="#fff"/>
                <ellipse id="Elipse_3967" data-name="Elipse 3967" cx="0.848" cy="0.811" rx="0.848" ry="0.811" transform="translate(38.167 0)" fill="#fff"/>
                <path id="Trazado_99248" data-name="Trazado 99248" d="M466.588,88.575a.849.849,0,1,1-.849-.812A.831.831,0,0,1,466.588,88.575Z" transform="translate(-419.091 -87.763)" fill="#fff"/>
                <ellipse id="Elipse_3968" data-name="Elipse 3968" cx="0.848" cy="0.811" rx="0.848" ry="0.811" transform="translate(53.434 0)" fill="#fff"/>
                <ellipse id="Elipse_3969" data-name="Elipse 3969" cx="0.848" cy="0.811" rx="0.848" ry="0.811" transform="translate(61.067 0)" fill="#fff"/>
                <path id="Trazado_99249" data-name="Trazado 99249" d="M491.927,88.575a.849.849,0,1,1-.849-.812A.831.831,0,0,1,491.927,88.575Z" transform="translate(-421.53 -87.763)" fill="#fff"/>
                <path id="Trazado_99250" data-name="Trazado 99250" d="M500.374,88.575a.849.849,0,1,1-.849-.812A.83.83,0,0,1,500.374,88.575Z" transform="translate(-422.343 -87.763)" fill="#fff"/>
              </g>
              <g id="Grupo_53312" data-name="Grupo 53312" transform="translate(0 38.933)">
                <ellipse id="Elipse_3970" data-name="Elipse 3970" cx="0.848" cy="0.811" rx="0.848" ry="0.811" fill="#fff"/>
                <path id="Trazado_99251" data-name="Trazado 99251" d="M424.356,96.082a.849.849,0,1,1-.848-.811A.83.83,0,0,1,424.356,96.082Z" transform="translate(-415.027 -95.271)" fill="#fff"/>
                <ellipse id="Elipse_3971" data-name="Elipse 3971" cx="0.848" cy="0.811" rx="0.848" ry="0.811" transform="translate(15.267)" fill="#fff"/>
                <path id="Trazado_99252" data-name="Trazado 99252" d="M441.249,96.082a.849.849,0,1,1-.849-.811A.83.83,0,0,1,441.249,96.082Z" transform="translate(-416.653 -95.271)" fill="#fff"/>
                <path id="Trazado_99253" data-name="Trazado 99253" d="M449.7,96.082a.849.849,0,1,1-.848-.811A.83.83,0,0,1,449.7,96.082Z" transform="translate(-417.466 -95.271)" fill="#fff"/>
                <ellipse id="Elipse_3972" data-name="Elipse 3972" cx="0.848" cy="0.811" rx="0.848" ry="0.811" transform="translate(38.167)" fill="#fff"/>
                <path id="Trazado_99254" data-name="Trazado 99254" d="M466.588,96.082a.849.849,0,1,1-.849-.811A.831.831,0,0,1,466.588,96.082Z" transform="translate(-419.091 -95.271)" fill="#fff"/>
                <ellipse id="Elipse_3973" data-name="Elipse 3973" cx="0.848" cy="0.811" rx="0.848" ry="0.811" transform="translate(53.434)" fill="#fff"/>
                <ellipse id="Elipse_3974" data-name="Elipse 3974" cx="0.848" cy="0.811" rx="0.848" ry="0.811" transform="translate(61.067)" fill="#fff"/>
                <path id="Trazado_99255" data-name="Trazado 99255" d="M491.927,96.082a.849.849,0,1,1-.849-.811A.831.831,0,0,1,491.927,96.082Z" transform="translate(-421.53 -95.271)" fill="#fff"/>
                <path id="Trazado_99256" data-name="Trazado 99256" d="M500.374,96.082a.849.849,0,1,1-.849-.811A.83.83,0,0,1,500.374,96.082Z" transform="translate(-422.343 -95.271)" fill="#fff"/>
              </g>
              <g id="Grupo_53313" data-name="Grupo 53313" transform="translate(0 45.422)">
                <path id="Trazado_99257" data-name="Trazado 99257" d="M415.91,103.59a.849.849,0,1,1-.849-.811A.83.83,0,0,1,415.91,103.59Z" transform="translate(-414.214 -102.779)" fill="#fff"/>
                <path id="Trazado_99258" data-name="Trazado 99258" d="M424.356,103.59a.849.849,0,1,1-.848-.811A.83.83,0,0,1,424.356,103.59Z" transform="translate(-415.027 -102.779)" fill="#fff"/>
                <path id="Trazado_99259" data-name="Trazado 99259" d="M432.8,103.59a.849.849,0,1,1-.848-.811A.83.83,0,0,1,432.8,103.59Z" transform="translate(-415.84 -102.779)" fill="#fff"/>
                <path id="Trazado_99260" data-name="Trazado 99260" d="M441.249,103.59a.849.849,0,1,1-.849-.811A.83.83,0,0,1,441.249,103.59Z" transform="translate(-416.653 -102.779)" fill="#fff"/>
                <path id="Trazado_99261" data-name="Trazado 99261" d="M449.7,103.59a.849.849,0,1,1-.848-.811A.83.83,0,0,1,449.7,103.59Z" transform="translate(-417.466 -102.779)" fill="#fff"/>
                <path id="Trazado_99262" data-name="Trazado 99262" d="M458.141,103.59a.849.849,0,1,1-.848-.811A.83.83,0,0,1,458.141,103.59Z" transform="translate(-418.278 -102.779)" fill="#fff"/>
                <path id="Trazado_99263" data-name="Trazado 99263" d="M466.588,103.59a.849.849,0,1,1-.849-.811A.831.831,0,0,1,466.588,103.59Z" transform="translate(-419.091 -102.779)" fill="#fff"/>
                <path id="Trazado_99264" data-name="Trazado 99264" d="M475.035,103.59a.849.849,0,1,1-.848-.811A.83.83,0,0,1,475.035,103.59Z" transform="translate(-419.904 -102.779)" fill="#fff"/>
                <path id="Trazado_99265" data-name="Trazado 99265" d="M483.48,103.59a.849.849,0,1,1-.848-.811A.83.83,0,0,1,483.48,103.59Z" transform="translate(-420.717 -102.779)" fill="#fff"/>
                <path id="Trazado_99266" data-name="Trazado 99266" d="M491.927,103.59a.849.849,0,1,1-.849-.811A.831.831,0,0,1,491.927,103.59Z" transform="translate(-421.53 -102.779)" fill="#fff"/>
                <path id="Trazado_99267" data-name="Trazado 99267" d="M500.374,103.59a.849.849,0,1,1-.849-.811A.83.83,0,0,1,500.374,103.59Z" transform="translate(-422.343 -102.779)" fill="#fff"/>
              </g>
              <g id="Grupo_53314" data-name="Grupo 53314" transform="translate(0 51.911)">
                <ellipse id="Elipse_3975" data-name="Elipse 3975" cx="0.848" cy="0.811" rx="0.848" ry="0.811" fill="#fff"/>
                <path id="Trazado_99268" data-name="Trazado 99268" d="M424.356,111.1a.849.849,0,1,1-.848-.811A.831.831,0,0,1,424.356,111.1Z" transform="translate(-415.027 -110.287)" fill="#fff"/>
                <ellipse id="Elipse_3976" data-name="Elipse 3976" cx="0.848" cy="0.811" rx="0.848" ry="0.811" transform="translate(15.267)" fill="#fff"/>
                <path id="Trazado_99269" data-name="Trazado 99269" d="M441.249,111.1a.849.849,0,1,1-.849-.811A.831.831,0,0,1,441.249,111.1Z" transform="translate(-416.653 -110.287)" fill="#fff"/>
                <path id="Trazado_99270" data-name="Trazado 99270" d="M449.7,111.1a.849.849,0,1,1-.848-.811A.831.831,0,0,1,449.7,111.1Z" transform="translate(-417.466 -110.287)" fill="#fff"/>
                <ellipse id="Elipse_3977" data-name="Elipse 3977" cx="0.848" cy="0.811" rx="0.848" ry="0.811" transform="translate(38.167)" fill="#fff"/>
                <path id="Trazado_99271" data-name="Trazado 99271" d="M466.588,111.1a.849.849,0,1,1-.849-.811A.831.831,0,0,1,466.588,111.1Z" transform="translate(-419.091 -110.287)" fill="#fff"/>
                <ellipse id="Elipse_3978" data-name="Elipse 3978" cx="0.848" cy="0.811" rx="0.848" ry="0.811" transform="translate(53.434)" fill="#fff"/>
                <ellipse id="Elipse_3979" data-name="Elipse 3979" cx="0.848" cy="0.811" rx="0.848" ry="0.811" transform="translate(61.067)" fill="#fff"/>
                <path id="Trazado_99272" data-name="Trazado 99272" d="M491.927,111.1a.849.849,0,1,1-.849-.811A.831.831,0,0,1,491.927,111.1Z" transform="translate(-421.53 -110.287)" fill="#fff"/>
                <path id="Trazado_99273" data-name="Trazado 99273" d="M500.374,111.1a.849.849,0,1,1-.849-.811A.831.831,0,0,1,500.374,111.1Z" transform="translate(-422.343 -110.287)" fill="#fff"/>
              </g>
              <g id="Grupo_53315" data-name="Grupo 53315" transform="translate(0 58.399)">
                <path id="Trazado_99274" data-name="Trazado 99274" d="M415.91,118.606a.849.849,0,1,1-.849-.812A.831.831,0,0,1,415.91,118.606Z" transform="translate(-414.214 -117.794)" fill="#fff"/>
                <path id="Trazado_99275" data-name="Trazado 99275" d="M424.356,118.606a.849.849,0,1,1-.848-.812A.83.83,0,0,1,424.356,118.606Z" transform="translate(-415.027 -117.794)" fill="#fff"/>
                <path id="Trazado_99276" data-name="Trazado 99276" d="M432.8,118.606a.849.849,0,1,1-.848-.812A.831.831,0,0,1,432.8,118.606Z" transform="translate(-415.84 -117.794)" fill="#fff"/>
                <path id="Trazado_99277" data-name="Trazado 99277" d="M441.249,118.606a.849.849,0,1,1-.849-.812A.831.831,0,0,1,441.249,118.606Z" transform="translate(-416.653 -117.794)" fill="#fff"/>
                <path id="Trazado_99278" data-name="Trazado 99278" d="M449.7,118.606a.849.849,0,1,1-.848-.812A.831.831,0,0,1,449.7,118.606Z" transform="translate(-417.466 -117.794)" fill="#fff"/>
                <path id="Trazado_99279" data-name="Trazado 99279" d="M458.141,118.606a.849.849,0,1,1-.848-.812A.831.831,0,0,1,458.141,118.606Z" transform="translate(-418.278 -117.794)" fill="#fff"/>
                <path id="Trazado_99280" data-name="Trazado 99280" d="M466.588,118.606a.849.849,0,1,1-.849-.812A.831.831,0,0,1,466.588,118.606Z" transform="translate(-419.091 -117.794)" fill="#fff"/>
                <path id="Trazado_99281" data-name="Trazado 99281" d="M475.035,118.606a.849.849,0,1,1-.848-.812A.831.831,0,0,1,475.035,118.606Z" transform="translate(-419.904 -117.794)" fill="#fff"/>
                <path id="Trazado_99282" data-name="Trazado 99282" d="M483.48,118.606a.849.849,0,1,1-.848-.812A.831.831,0,0,1,483.48,118.606Z" transform="translate(-420.717 -117.794)" fill="#fff"/>
                <path id="Trazado_99283" data-name="Trazado 99283" d="M491.927,118.606a.849.849,0,1,1-.849-.812A.831.831,0,0,1,491.927,118.606Z" transform="translate(-421.53 -117.794)" fill="#fff"/>
                <path id="Trazado_99284" data-name="Trazado 99284" d="M500.374,118.606a.849.849,0,1,1-.849-.812A.831.831,0,0,1,500.374,118.606Z" transform="translate(-422.343 -117.794)" fill="#fff"/>
              </g>
              <g id="Grupo_53316" data-name="Grupo 53316" transform="translate(0 64.888)">
                <ellipse id="Elipse_3980" data-name="Elipse 3980" cx="0.848" cy="0.811" rx="0.848" ry="0.811" transform="translate(0 0)" fill="#fff"/>
                <path id="Trazado_99285" data-name="Trazado 99285" d="M424.356,126.114a.849.849,0,1,1-.848-.812A.83.83,0,0,1,424.356,126.114Z" transform="translate(-415.027 -125.302)" fill="#fff"/>
                <ellipse id="Elipse_3981" data-name="Elipse 3981" cx="0.848" cy="0.811" rx="0.848" ry="0.811" transform="translate(15.267 0)" fill="#fff"/>
                <path id="Trazado_99286" data-name="Trazado 99286" d="M441.249,126.114a.849.849,0,1,1-.849-.812A.83.83,0,0,1,441.249,126.114Z" transform="translate(-416.653 -125.302)" fill="#fff"/>
                <path id="Trazado_99287" data-name="Trazado 99287" d="M449.7,126.114a.849.849,0,1,1-.848-.812A.83.83,0,0,1,449.7,126.114Z" transform="translate(-417.466 -125.302)" fill="#fff"/>
                <ellipse id="Elipse_3982" data-name="Elipse 3982" cx="0.848" cy="0.811" rx="0.848" ry="0.811" transform="translate(38.167 0)" fill="#fff"/>
                <path id="Trazado_99288" data-name="Trazado 99288" d="M466.588,126.114a.849.849,0,1,1-.849-.812A.831.831,0,0,1,466.588,126.114Z" transform="translate(-419.091 -125.302)" fill="#fff"/>
                <ellipse id="Elipse_3983" data-name="Elipse 3983" cx="0.848" cy="0.811" rx="0.848" ry="0.811" transform="translate(53.434 0)" fill="#fff"/>
                <ellipse id="Elipse_3984" data-name="Elipse 3984" cx="0.848" cy="0.811" rx="0.848" ry="0.811" transform="translate(61.067 0)" fill="#fff"/>
                <path id="Trazado_99289" data-name="Trazado 99289" d="M491.927,126.114a.849.849,0,1,1-.849-.812A.831.831,0,0,1,491.927,126.114Z" transform="translate(-421.53 -125.302)" fill="#fff"/>
                <path id="Trazado_99290" data-name="Trazado 99290" d="M500.374,126.114a.849.849,0,1,1-.849-.812A.83.83,0,0,1,500.374,126.114Z" transform="translate(-422.343 -125.302)" fill="#fff"/>
              </g>
              <g id="Grupo_53317" data-name="Grupo 53317" transform="translate(0 71.378)">
                <ellipse id="Elipse_3985" data-name="Elipse 3985" cx="0.848" cy="0.811" rx="0.848" ry="0.811" transform="translate(0 0)" fill="#fff"/>
                <path id="Trazado_99291" data-name="Trazado 99291" d="M424.356,133.622a.849.849,0,1,1-.848-.812A.83.83,0,0,1,424.356,133.622Z" transform="translate(-415.027 -132.81)" fill="#fff"/>
                <ellipse id="Elipse_3986" data-name="Elipse 3986" cx="0.848" cy="0.811" rx="0.848" ry="0.811" transform="translate(15.267 0)" fill="#fff"/>
                <path id="Trazado_99292" data-name="Trazado 99292" d="M441.249,133.622a.849.849,0,1,1-.849-.812A.83.83,0,0,1,441.249,133.622Z" transform="translate(-416.653 -132.81)" fill="#fff"/>
                <path id="Trazado_99293" data-name="Trazado 99293" d="M449.7,133.622a.849.849,0,1,1-.848-.812A.83.83,0,0,1,449.7,133.622Z" transform="translate(-417.466 -132.81)" fill="#fff"/>
                <ellipse id="Elipse_3987" data-name="Elipse 3987" cx="0.848" cy="0.811" rx="0.848" ry="0.811" transform="translate(38.167 0)" fill="#fff"/>
                <path id="Trazado_99294" data-name="Trazado 99294" d="M466.588,133.622a.849.849,0,1,1-.849-.812A.831.831,0,0,1,466.588,133.622Z" transform="translate(-419.091 -132.81)" fill="#fff"/>
                <ellipse id="Elipse_3988" data-name="Elipse 3988" cx="0.848" cy="0.811" rx="0.848" ry="0.811" transform="translate(53.434 0)" fill="#fff"/>
                <ellipse id="Elipse_3989" data-name="Elipse 3989" cx="0.848" cy="0.811" rx="0.848" ry="0.811" transform="translate(61.067 0)" fill="#fff"/>
                <path id="Trazado_99295" data-name="Trazado 99295" d="M491.927,133.622a.849.849,0,1,1-.849-.812A.831.831,0,0,1,491.927,133.622Z" transform="translate(-421.53 -132.81)" fill="#fff"/>
                <path id="Trazado_99296" data-name="Trazado 99296" d="M500.374,133.622a.849.849,0,1,1-.849-.812A.83.83,0,0,1,500.374,133.622Z" transform="translate(-422.343 -132.81)" fill="#fff"/>
              </g>
            </g>
          </g>
          <line id="Línea_138" data-name="Línea 138" y2="118.58" transform="translate(13.623 28.542)" fill="none" stroke="#31313c" stroke-linecap="round" stroke-width="4" stroke-dasharray="8"/>
        </g>
      </g>
      <g id="Grupo_1023327" data-name="Grupo 1023327" transform="translate(-8011.861 -7562.268)">
        <g id="Grupo_1023326" data-name="Grupo 1023326" clip-path="url(#clip-path-2)">
          <rect id="Rectángulo_360250" data-name="Rectángulo 360250" width="68.899" height="123.772" transform="translate(187.307 8.068)" fill="#ebebeb"/>
          <rect id="Rectángulo_360251" data-name="Rectángulo 360251" width="62.683" height="116.496" transform="translate(190.06 11.657)" fill="#fafafa"/>
          <path id="Trazado_755248" data-name="Trazado 755248" d="M488.545,138.3l-2.914-1.116V11.314h2.914Z" transform="translate(-229.425 -5.345)" fill="#e0e0e0"/>
          <rect id="Rectángulo_360252" data-name="Rectángulo 360252" width="64.044" height="1.24" transform="translate(190.06 45.169)" fill="#e0e0e0"/>
          <rect id="Rectángulo_360253" data-name="Rectángulo 360253" width="64.044" height="1.24" transform="translate(190.06 72.912)" fill="#e0e0e0"/>
          <rect id="Rectángulo_360254" data-name="Rectángulo 360254" width="64.044" height="1.24" transform="translate(190.06 100.654)" fill="#e0e0e0"/>
          <rect id="Rectángulo_360255" data-name="Rectángulo 360255" width="3.167" height="85.666" transform="translate(219.818 45.79)" fill="#e0e0e0"/>
          <rect id="Rectángulo_360256" data-name="Rectángulo 360256" width="1.435" height="34.132" transform="translate(202.13 11.657)" fill="#e0e0e0"/>
          <rect id="Rectángulo_360257" data-name="Rectángulo 360257" width="1.434" height="34.132" transform="translate(214.504 11.657)" fill="#e0e0e0"/>
          <rect id="Rectángulo_360258" data-name="Rectángulo 360258" width="1.434" height="34.132" transform="translate(226.878 11.657)" fill="#e0e0e0"/>
          <rect id="Rectángulo_360259" data-name="Rectángulo 360259" width="1.434" height="34.132" transform="translate(239.252 11.657)" fill="#e0e0e0"/>
          <rect id="Rectángulo_360260" data-name="Rectángulo 360260" width="2.914" height="126.637" transform="translate(184.393 5.968)" fill="#e0e0e0"/>
          <rect id="Rectángulo_360261" data-name="Rectángulo 360261" width="74.727" height="3.377" transform="translate(184.393 4.691)" fill="#e0e0e0"/>
          <rect id="Rectángulo_360262" data-name="Rectángulo 360262" width="78.767" height="3.146" transform="translate(182.325 133.372)" fill="#e0e0e0"/>
          <path id="Trazado_755249" data-name="Trazado 755249" d="M419.473,249.9l4.887,1.532H345.593l4.981-1.532Z" transform="translate(-163.267 -118.058)" fill="#e0e0e0"/>
          <g id="Grupo_1023291" data-name="Grupo 1023291">
            <g id="Grupo_1023290" data-name="Grupo 1023290" clip-path="url(#clip-path-2)">
              <path id="Trazado_755250" data-name="Trazado 755250" d="M518.132,307.688a.752.752,0,0,1-.007-.1c0-.075,0-.17-.007-.289q-.005-.4-.016-1.108c-.008-.972-.021-2.37-.036-4.133l.066.066-21.291.042c.047-.048-.11.109.107-.108v.722q0,.36,0,.719v1.421q0,1.41,0,2.771l-.106-.106,15.174.048,4.479.031,1.211.014.317.007a.776.776,0,0,1,.112.007.49.49,0,0,1-.1.007l-.3.007-1.188.014-4.454.031-15.248.048h-.106v-.107q0-1.359,0-2.771,0-.705,0-1.421,0-.359,0-.719v-.722c.217-.217.061-.06.11-.109l21.291.043h.066v.066c-.015,1.78-.028,3.191-.036,4.173q-.01.7-.016,1.094c0,.113-.005.2-.007.277a.429.429,0,0,1-.006.09" transform="translate(-234.668 -142.643)" fill="#e0e0e0"/>
              <path id="Trazado_755251" data-name="Trazado 755251" d="M512.556,85.015a.711.711,0,0,1-.006-.1c0-.075,0-.17-.007-.289q-.005-.4-.016-1.108c-.008-.972-.021-2.37-.036-4.133l.066.066-21.291.043c.048-.049-.11.108.107-.109v1.441q0,.716,0,1.421,0,1.41,0,2.771l-.106-.106,15.174.048,4.479.031,1.211.014.317.007a.771.771,0,0,1,.112.007.489.489,0,0,1-.1.007l-.3.007-1.188.014-4.454.031-15.248.048h-.106v-.107q0-1.359,0-2.771,0-.705,0-1.421V79.382c.217-.217.061-.06.11-.109l21.291.043h.067v.066c-.015,1.78-.028,3.191-.036,4.173q-.01.7-.016,1.094c0,.113-.005.2-.007.278a.436.436,0,0,1-.007.089" transform="translate(-232.035 -37.446)" fill="#e0e0e0"/>
              <path id="Trazado_755252" data-name="Trazado 755252" d="M525.637,74.325a.631.631,0,0,1-.008-.107c0-.081-.005-.179-.008-.3q-.007-.416-.02-1.13c-.01-.988-.025-2.383-.042-4.1l.078.078-12.793.031c-.1.1.131-.132.108-.108v.737q0,.367,0,.73,0,.726,0,1.434c0,.942,0,1.856,0,2.731l-.1-.1,9.152.049,2.666.028.719.013a2.188,2.188,0,0,1,.257.013,1.509,1.509,0,0,1-.232.013l-.7.013-2.643.028-9.221.049h-.1v-.1c0-.875,0-1.789,0-2.731q0-.707,0-1.434V68.693l.109-.109,12.793.031h.079v.078c-.018,1.735-.032,3.146-.042,4.145q-.012.7-.02,1.112a3.293,3.293,0,0,1-.016.376" transform="translate(-242.229 -32.389)" fill="#e0e0e0"/>
              <rect id="Rectángulo_360263" data-name="Rectángulo 360263" width="21.293" height="5.633" transform="translate(161.351 167.787)" fill="#e0e0e0"/>
              <rect id="Rectángulo_360264" data-name="Rectángulo 360264" width="21.293" height="5.633" transform="translate(176.66 156.221)" fill="#ebebeb"/>
              <path id="Trazado_755253" data-name="Trazado 755253" d="M338.984,312.885a.738.738,0,0,1-.007-.1c0-.075,0-.17-.007-.289q-.006-.4-.016-1.108c-.008-.972-.021-2.37-.036-4.133l.066.066-21.291.043c.048-.049-.11.108.107-.109v1.441q0,.716,0,1.421,0,1.41,0,2.771l-.106-.106,15.174.048,4.479.031,1.211.014.317.007a.689.689,0,0,1,.112.007.491.491,0,0,1-.1.007l-.3.007-1.188.014-4.454.031-15.248.048h-.106v-.107q0-1.359,0-2.771,0-.705,0-1.421v-1.441c.217-.217.061-.06.11-.109l21.291.043h.066v.066c-.015,1.779-.028,3.191-.036,4.173q-.01.7-.016,1.094c0,.113-.005.2-.007.277a.449.449,0,0,1-.007.09" transform="translate(-150.035 -145.098)" fill="#e0e0e0"/>
            </g>
          </g>
          <g id="Grupo_1023293" data-name="Grupo 1023293">
            <g id="Grupo_1023292" data-name="Grupo 1023292" clip-path="url(#clip-path-2)">
              <path id="Trazado_755254" data-name="Trazado 755254" d="M278.386,432.624c0,.076-62.324.137-139.186.137C62.31,432.761,0,432.7,0,432.624s62.31-.137,139.2-.137c76.863,0,139.186.061,139.186.137" transform="translate(0 -204.318)" fill="#263238"/>
            </g>
          </g>
          <g id="Grupo_1023316" data-name="Grupo 1023316">
            <g id="Grupo_1023315" data-name="Grupo 1023315" clip-path="url(#clip-path-2)">
              <path id="Trazado_755255" data-name="Trazado 755255" d="M483.941,395.58l3.391,13.456,5.751,9.869a1.421,1.421,0,0,1-1.9,1.969c-2.582-1.393-12.056-6.565-12.249-7.564-.223-1.156-4.519-13.956-4.519-13.956Z" transform="translate(-224.127 -186.883)" fill="#91b3fa"/>
              <g id="Grupo_1023296" data-name="Grupo 1023296" transform="translate(254.558 225.525)" opacity="0.6">
                <g id="Grupo_1023295" data-name="Grupo 1023295">
                  <g id="Grupo_1023294" data-name="Grupo 1023294" clip-path="url(#clip-path-6)">
                    <path id="Trazado_755256" data-name="Trazado 755256" d="M496.308,435.963l-13.8-8.487.157.567a2.137,2.137,0,0,0,.859,1.2c1.125.763,4.278,2.8,11.443,6.71a1.42,1.42,0,0,0,1.342.009" transform="translate(-482.508 -427.476)" fill="#fff"/>
                  </g>
                </g>
              </g>
              <g id="Grupo_1023299" data-name="Grupo 1023299" transform="translate(255.033 220.402)" opacity="0.6">
                <g id="Grupo_1023298" data-name="Grupo 1023298">
                  <g id="Grupo_1023297" data-name="Grupo 1023297" clip-path="url(#clip-path-7)">
                    <path id="Trazado_755257" data-name="Trazado 755257" d="M484.485,417.816a.86.86,0,0,1,.527,1.02.828.828,0,0,1-1.007.53.907.907,0,0,1-.552-1.083.858.858,0,0,1,1.108-.436" transform="translate(-483.408 -417.766)" fill="#fff"/>
                  </g>
                </g>
              </g>
              <path id="Trazado_755258" data-name="Trazado 755258" d="M499.774,432.163a3.068,3.068,0,0,1,2.343-2.085c0-.036-.2-.093-.521-.051a2.268,2.268,0,0,0-1.812,1.612c-.08.318-.046.522-.01.523" transform="translate(-236.088 -203.149)" fill="#263238"/>
              <path id="Trazado_755259" data-name="Trazado 755259" d="M502.539,435.639c.08.04.389-.513,1.026-.9a11.483,11.483,0,0,1,1.26-.529,1.575,1.575,0,0,0-1.422.271c-.723.448-.943,1.144-.864,1.161" transform="translate(-237.406 -205.098)" fill="#263238"/>
              <path id="Trazado_755260" data-name="Trazado 755260" d="M495.236,428.4a7.3,7.3,0,0,1,3.345-2.511,3.886,3.886,0,0,0-3.345,2.511" transform="translate(-233.958 -201.19)" fill="#263238"/>
              <path id="Trazado_755261" data-name="Trazado 755261" d="M492.639,421.976c.058.07.712-.443,1.663-.743s1.777-.28,1.783-.371a3.53,3.53,0,0,0-3.447,1.114" transform="translate(-232.734 -198.772)" fill="#263238"/>
              <path id="Trazado_755262" data-name="Trazado 755262" d="M490.562,414.561a4.519,4.519,0,0,1,3.608-.865c.014-.034-.179-.161-.537-.254a3.1,3.1,0,0,0-2.709.649c-.277.245-.391.446-.363.47" transform="translate(-231.753 -195.282)" fill="#263238"/>
              <path id="Trazado_755263" data-name="Trazado 755263" d="M491.192,410.327a1.193,1.193,0,0,0-.122-.511,3.631,3.631,0,0,0-.768-1.214,1.617,1.617,0,0,0-.874-.559.57.57,0,0,0-.587.294.932.932,0,0,0-.045.663,2.01,2.01,0,0,0,2.193,1.323,2.33,2.33,0,0,0,1.882-1.785.805.805,0,0,0-.142-.658.559.559,0,0,0-.644-.13,1.981,1.981,0,0,0-.754.7,4.061,4.061,0,0,0-.626,1.292,1.231,1.231,0,0,0-.078.519,6.465,6.465,0,0,1,.875-1.68,1.849,1.849,0,0,1,.673-.6.3.3,0,0,1,.352.068.556.556,0,0,1,.068.438,2.081,2.081,0,0,1-1.649,1.529,1.745,1.745,0,0,1-1.878-1.1.678.678,0,0,1,.012-.464.311.311,0,0,1,.322-.167,1.464,1.464,0,0,1,.749.46,5.393,5.393,0,0,1,1.043,1.573" transform="translate(-230.902 -192.608)" fill="#263238"/>
              <path id="Trazado_755264" data-name="Trazado 755264" d="M397.094,399.282l.749,11.3s-11.251,3.734-11.316,5.836l21.982.159-.444-17.662Z" transform="translate(-182.606 -188.46)" fill="#91b3fa"/>
              <g id="Grupo_1023302" data-name="Grupo 1023302" transform="translate(220.952 220.937)" opacity="0.6">
                <g id="Grupo_1023301" data-name="Grupo 1023301">
                  <g id="Grupo_1023300" data-name="Grupo 1023300" clip-path="url(#clip-path-8)">
                    <path id="Trazado_755265" data-name="Trazado 755265" d="M419.859,418.81a.9.9,0,0,1,.652,1.005.864.864,0,0,1-.991.655.947.947,0,0,1-.684-1.068.9.9,0,0,1,1.106-.567" transform="translate(-418.808 -418.779)" fill="#fff"/>
                  </g>
                </g>
              </g>
              <g id="Grupo_1023305" data-name="Grupo 1023305" transform="translate(203.809 226.341)" opacity="0.6">
                <g id="Grupo_1023304" data-name="Grupo 1023304">
                  <g id="Grupo_1023303" data-name="Grupo 1023303" clip-path="url(#clip-path-9)">
                    <path id="Trazado_755266" data-name="Trazado 755266" d="M408.409,430.8l-.045-1.781-21.232.586a1.52,1.52,0,0,0-.818,1.194Z" transform="translate(-386.314 -429.023)" fill="#fff"/>
                  </g>
                </g>
              </g>
              <path id="Trazado_755267" data-name="Trazado 755267" d="M407.294,420.743c.007.107.544.14,1.083.468s.833.771.93.726c.1-.024-.081-.661-.74-1.047s-1.3-.245-1.274-.147" transform="translate(-192.416 -198.718)" fill="#263238"/>
              <path id="Trazado_755268" data-name="Trazado 755268" d="M402.981,422.738c-.022.1.448.273.826.716s.5.92.605.912c.1.014.157-.617-.324-1.159s-1.109-.571-1.107-.469" transform="translate(-190.379 -199.69)" fill="#263238"/>
              <path id="Trazado_755269" data-name="Trazado 755269" d="M399.841,426.447c.1.02.231-.521-.062-1.1s-.8-.8-.845-.707c-.058.09.277.4.511.875s.289.925.4.932" transform="translate(-188.464 -200.602)" fill="#263238"/>
              <path id="Trazado_755270" data-name="Trazado 755270" d="M407.509,415.549c.048.1.536-.066,1.143-.044s1.086.2,1.139.106-.413-.462-1.129-.479-1.209.334-1.153.417" transform="translate(-192.516 -196.119)" fill="#263238"/>
              <g id="Grupo_1023308" data-name="Grupo 1023308" transform="translate(214.64 212.832)" opacity="0.3">
                <g id="Grupo_1023307" data-name="Grupo 1023307">
                  <g id="Grupo_1023306" data-name="Grupo 1023306" clip-path="url(#clip-path-10)">
                    <path id="Trazado_755271" data-name="Trazado 755271" d="M406.843,403.646l.131,2.015,10.8-.425-.042-1.817Z" transform="translate(-406.843 -403.418)"/>
                  </g>
                </g>
              </g>
              <path id="Trazado_755272" data-name="Trazado 755272" d="M407.306,409.934a2.06,2.06,0,0,0,1.1-.039,4.955,4.955,0,0,0,1.141-.388,5.276,5.276,0,0,0,.622-.355,1.352,1.352,0,0,0,.324-.269.468.468,0,0,0,.032-.572.589.589,0,0,0-.477-.231,1.43,1.43,0,0,0-.411.07,3.923,3.923,0,0,0-.677.255,3.876,3.876,0,0,0-.994.7c-.5.487-.657.894-.62.913s.288-.31.794-.715a4.415,4.415,0,0,1,.965-.582,4.117,4.117,0,0,1,.626-.214c.231-.068.429-.075.492.026.023.039.026.054-.021.123a1.117,1.117,0,0,1-.238.2,5.807,5.807,0,0,1-.571.35,6.148,6.148,0,0,1-1.051.44,7.527,7.527,0,0,0-1.034.294" transform="translate(-192.422 -192.788)" fill="#263238"/>
              <path id="Trazado_755273" data-name="Trazado 755273" d="M406.221,408.775a1.755,1.755,0,0,0,.258-1.072,3.554,3.554,0,0,0-.487-1.86.91.91,0,0,0-.719-.534.515.515,0,0,0-.451.321,1.5,1.5,0,0,0-.1.407,2.452,2.452,0,0,0,.022.741,2.529,2.529,0,0,0,.5,1.122c.447.557.9.671.906.635.034-.055-.346-.251-.691-.788a2.524,2.524,0,0,1-.379-1.023,2.254,2.254,0,0,1,0-.636c.027-.234.109-.425.2-.4.109-.005.3.165.4.349a3.665,3.665,0,0,1,.291.588,3.976,3.976,0,0,1,.246,1.092c.05.644-.053,1.049.006,1.064" transform="translate(-191.193 -191.479)" fill="#263238"/>
              <path id="Trazado_755274" data-name="Trazado 755274" d="M404.286,212.559l33.495-.252,16.185,106.305-13.9,1.765L422.25,232.968l-5.332,87.72-.014.261-15.034-.262Z" transform="translate(-189.854 -100.3)" fill="#263238"/>
              <path id="Trazado_755275" data-name="Trazado 755275" d="M437.858,239.218a7.236,7.236,0,0,0-.087-1.3c-.075-.8-.163-1.9-.2-3.117s-.015-2.324.012-3.124a7.176,7.176,0,0,0,.008-1.3,5.3,5.3,0,0,0-.2,1.288,26.328,26.328,0,0,0,.19,6.277,5.265,5.265,0,0,0,.281,1.274" transform="translate(-206.584 -108.837)" fill="#455a64"/>
              <path id="Trazado_755276" data-name="Trazado 755276" d="M432.1,230.887c0-.014-.059-.061-.2-.075a.851.851,0,0,0-.554.165.972.972,0,0,0-.418.767.974.974,0,0,0,1.694.574.97.97,0,0,0,.133-.863.847.847,0,0,0-.34-.469c-.118-.073-.2-.074-.2-.061-.026.038.269.158.353.578a.805.805,0,0,1-.143.656.737.737,0,0,1-1.239-.419.807.807,0,0,1,.284-.608,1.22,1.22,0,0,1,.632-.244" transform="translate(-203.58 -109.04)" fill="#455a64"/>
              <path id="Trazado_755277" data-name="Trazado 755277" d="M449.4,226.9c-.012.015.1.113.307.279a5.573,5.573,0,0,0,.955.6,7.6,7.6,0,0,0,1.569.594,8.24,8.24,0,0,0,4.081,0,7.59,7.59,0,0,0,1.57-.592,5.568,5.568,0,0,0,.956-.6c.209-.165.318-.263.306-.278-.031-.043-.5.315-1.347.7a8.545,8.545,0,0,1-1.545.521,8.727,8.727,0,0,1-3.96,0,8.548,8.548,0,0,1-1.545-.522c-.849-.385-1.315-.744-1.346-.7" transform="translate(-212.309 -107.192)" fill="#455a64"/>
              <path id="Trazado_755278" data-name="Trazado 755278" d="M410.1,229.657a2.261,2.261,0,0,0,.918.194,6.5,6.5,0,0,0,4.294-1.226c.467-.349.7-.626.677-.649a8.7,8.7,0,0,1-5.889,1.681" transform="translate(-193.744 -107.7)" fill="#455a64"/>
              <path id="Trazado_755279" data-name="Trazado 755279" d="M475.186,330.792a1.208,1.208,0,0,1-.1-.226c-.05-.156-.115-.391-.189-.7-.15-.623-.348-1.548-.589-2.742-.48-2.388-1.131-5.854-1.91-10.141-1.562-8.573-3.643-20.43-5.935-33.527s-4.39-24.947-5.9-33.54c-.774-4.279-1.4-7.745-1.836-10.156-.223-1.188-.4-2.115-.518-2.758-.06-.3-.108-.543-.142-.716s-.058-.242-.058-.242.006.085.031.247.066.414.114.721c.109.646.266,1.575.466,2.767.416,2.415,1.012,5.886,1.749,10.171,1.492,8.6,3.549,20.454,5.823,33.554,2.292,13.1,4.4,24.95,6.015,33.515.805,4.283,1.485,7.744,2,10.127a15.3,15.3,0,0,0,.98,3.649" transform="translate(-216.376 -111.512)" fill="#455a64"/>
              <path id="Trazado_755280" data-name="Trazado 755280" d="M409.594,328.662s.009-.083.014-.245.008-.413.014-.72c.006-.646.015-1.575.026-2.767s.015-2.671.045-4.377.041-3.649.1-5.8c.083-4.295.248-9.407.5-15.08.263-5.673.619-11.906,1.1-18.441s1.075-12.755,1.661-18.4c.6-5.648,1.2-10.727,1.76-14.986.263-2.131.54-4.055.767-5.746s.435-3.146.609-4.335.3-2.1.387-2.739c.04-.3.071-.541.093-.714s.023-.244.023-.244-.022.081-.051.24-.069.407-.121.71l-.438,2.731c-.19,1.187-.416,2.639-.655,4.329s-.533,3.611-.808,5.742c-.583,4.258-1.2,9.336-1.82,14.985-.6,5.65-1.187,11.87-1.683,18.41s-.833,12.775-1.083,18.451c-.233,5.676-.377,10.791-.436,15.088-.046,2.148-.045,4.091-.058,5.8s-.009,3.177,0,4.378.02,2.121.026,2.767c.006.307.011.545.014.719s.014.245.014.245" transform="translate(-193.472 -110.58)" fill="#455a64"/>
              <path id="Trazado_755281" data-name="Trazado 755281" d="M341.347,134.388l20.93,6.109L374,133.576l8.9,10.553L366.3,151.314a8.627,8.627,0,0,1-7.372-.244L338.37,140.5Z" transform="translate(-159.855 -63.105)" fill="#ffbe9d"/>
              <path id="Trazado_755282" data-name="Trazado 755282" d="M324.977,126.687l-2.592-1.345-7.208-3.75a.672.672,0,0,0-.832.953l4.6,3.778-1.923.733a1.635,1.635,0,0,0-.877.793l-1.022,2.033s-1.167.124-1.284.883c-.124.8.758,1.02.758,1.02l-.219.886a1.511,1.511,0,0,0,.213,1.208c1.116.459,2-1.879,2-1.879l1.189.124,1.3,2.622c1.65.4.868-2.2.868-2.2l.728.181c.728.181,1.111.7,2.243,1.278a12.024,12.024,0,0,0,3.359.785L327.921,136l4.992-6.831Z" transform="translate(-148.258 -57.419)" fill="#fafafa"/>
              <path id="Trazado_755283" data-name="Trazado 755283" d="M324.858,126.6a.6.6,0,0,1,.142.031l.409.114,1.571.466,5.842,1.784.122.037-.075.1L327.9,135.98l-.071.1-.1-.072-1.648-1.21.062.024a11.826,11.826,0,0,1-3.249-.72,9.953,9.953,0,0,1-1.5-.9,3,3,0,0,0-.745-.4c-.266-.076-.571-.145-.857-.217l.16-.169a4.322,4.322,0,0,1,.178,1.5,1.078,1.078,0,0,1-.358.761,1.04,1.04,0,0,1-.848.116l-.06-.012-.03-.061-1.3-2.621.109.075-1.04-.109-.149-.015.143-.088a5.9,5.9,0,0,1-.635,1.191,1.769,1.769,0,0,1-1.1.827l-.192,0a1.738,1.738,0,0,1-.185-.044l-.045-.012-.023-.007h0l-.063-.051v0l0,0-.006-.009-.046-.075a1.613,1.613,0,0,1-.08-.156,1.642,1.642,0,0,1-.143-.68,2.665,2.665,0,0,1,.116-.659l.153-.615.1.164a1.29,1.29,0,0,1-.713-.479.978.978,0,0,1-.1-.86,1.149,1.149,0,0,1,.592-.6,2.491,2.491,0,0,1,.768-.226l-.1.072.645-1.28.318-.63a1.934,1.934,0,0,1,.421-.6,1.777,1.777,0,0,1,.626-.385l.637-.241,1.249-.474-.034.212-4.586-3.79-.015-.013-.011-.019a.78.78,0,0,1,.111-.907.767.767,0,0,1,.854-.193l.007,0,0,0,7.143,3.768,1.939,1.037.5.277a.963.963,0,0,1,.167.1.937.937,0,0,1-.179-.076l-.514-.251-1.968-.991-7.185-3.687.009,0a.556.556,0,0,0-.622.145.565.565,0,0,0-.076.66l-.026-.032,4.606,3.766.165.135-.2.077-1.248.479-.636.244a1.513,1.513,0,0,0-.539.332,1.665,1.665,0,0,0-.367.535q-.157.313-.316.63l-.643,1.281-.031.062-.074.011c-.446.065-.982.252-1.135.655a.712.712,0,0,0,.072.616,1.034,1.034,0,0,0,.556.368l.131.037-.031.127-.152.616a2.393,2.393,0,0,0-.107.595,1.38,1.38,0,0,0,.119.568c.02.044.043.088.067.13l.039.062.005.008,0,0,0,0-.061-.05h0l.016,0,.033.008c.043.01.085.025.129.033l.132,0a1.528,1.528,0,0,0,.91-.714,5.677,5.677,0,0,0,.6-1.129l.04-.1.1.011.149.016,1.039.109.075.008.033.068,1.3,2.622-.09-.072a.783.783,0,0,0,.62-.067.824.824,0,0,0,.253-.573,4.088,4.088,0,0,0-.166-1.391l-.061-.226.222.058c.294.076.572.137.875.224a3.247,3.247,0,0,1,.811.43,9.787,9.787,0,0,0,1.459.887,11.666,11.666,0,0,0,3.165.709l.036,0,.026.02,1.642,1.218-.168.026,5.015-6.814.046.141-5.823-1.866-1.555-.511-.4-.138a.586.586,0,0,1-.132-.055" transform="translate(-148.14 -57.328)" fill="#263238"/>
              <path id="Trazado_755284" data-name="Trazado 755284" d="M320.009,136.76c-.007.031-.576-.072-1.551-.217s-2.358-.321-3.986-.457h.026a.908.908,0,0,1-.839-1.26,1.738,1.738,0,0,1,1.391-.976c.619-.1,1.191-.13,1.752-.231s1.093-.2,1.6-.33.978-.27,1.417-.417a1.515,1.515,0,0,0,.553-.284.383.383,0,0,0,.113-.45,1.353,1.353,0,0,0-.33-.406l-.357-.359c-.219-.226-.409-.415-.574-.559-.33-.289-.543-.412-.532-.432a1.823,1.823,0,0,1,.6.349,7.771,7.771,0,0,1,.614.532l.369.341a1.479,1.479,0,0,1,.388.456.589.589,0,0,1-.143.681,1.679,1.679,0,0,1-.626.347c-.441.159-.919.311-1.428.447s-1.05.255-1.617.351-1.171.143-1.745.236a1.482,1.482,0,0,0-1.189.8.652.652,0,0,0,.557.91l.013,0h.014c1.632.157,3.018.369,3.99.558.485.094.868.18,1.129.247a1.516,1.516,0,0,1,.4.124" transform="translate(-148.149 -61.595)" fill="#263238"/>
              <path id="Trazado_755285" data-name="Trazado 755285" d="M323.3,135.339a2.493,2.493,0,0,1-1.378.185,4.835,4.835,0,0,1-.732-.094l.126-.076c-.155.358-.282.585-.329.569s0-.273.11-.647l.024-.083.1.007.713.05a6.315,6.315,0,0,1,1.363.089" transform="translate(-151.637 -63.868)" fill="#263238"/>
              <path id="Trazado_755286" data-name="Trazado 755286" d="M402.875,119.05,389.39,129.4l9.455,12.451,11.531-6.546Z" transform="translate(-183.958 -56.242)" fill="#91b3fa"/>
              <path id="Trazado_755287" data-name="Trazado 755287" d="M409.254,115.378h0c1.952-1.2,8.7-2.682,8.7-2.682l13.051-1.419,11.319,5.2-4.652,19.485,4.073,36.733-38.857,2.116Z" transform="translate(-190.336 -52.571)" fill="#91b3fa"/>
              <rect id="Rectángulo_360272" data-name="Rectángulo 360272" width="6.693" height="1.805" transform="translate(234.407 79.106)" fill="#fafafa"/>
              <path id="Trazado_755288" data-name="Trazado 755288" d="M451.006,151.75h-6.719v-1.832h6.719Zm-6.693-.026h6.666v-1.779h-6.666Z" transform="translate(-209.893 -70.825)" fill="#263238"/>
              <path id="Trazado_755289" data-name="Trazado 755289" d="M411.691,135.06a16.38,16.38,0,0,1-.192-2.991,16.379,16.379,0,0,1,.083-3,16.448,16.448,0,0,1,.192,2.992,16.43,16.43,0,0,1-.083,3" transform="translate(-194.398 -60.977)" fill="#263238"/>
              <path id="Trazado_755290" data-name="Trazado 755290" d="M441.5,68.593l-1.428,20.23a6.307,6.307,0,0,1-12.585-.857c.127-1.926.241-3.5.241-3.5s-4.9-.761-4.958-5.658c-.036-2.828.453-9.246.871-14.163a6.421,6.421,0,0,1,6.4-5.876H433a9.062,9.062,0,0,1,8.5,9.826" transform="translate(-199.727 -27.763)" fill="#ffbe9d"/>
              <path id="Trazado_755291" data-name="Trazado 755291" d="M432.143,105.715a11.387,11.387,0,0,0,6.384-1.814s-1.509,3.524-6.4,3.083Z" transform="translate(-204.15 -49.086)" fill="#eb996e"/>
              <path id="Trazado_755292" data-name="Trazado 755292" d="M426.31,81.067a.7.7,0,0,0,.674.705.668.668,0,0,0,.721-.63.7.7,0,0,0-.673-.706.67.67,0,0,0-.722.631" transform="translate(-201.4 -38)" fill="#263238"/>
              <path id="Trazado_755293" data-name="Trazado 755293" d="M426.011,78.553c.087.091.616-.3,1.369-.3s1.3.378,1.385.286c.04-.041-.048-.205-.289-.38a1.916,1.916,0,0,0-1.109-.342,1.847,1.847,0,0,0-1.09.351c-.231.178-.31.343-.267.384" transform="translate(-201.254 -36.763)" fill="#263238"/>
              <path id="Trazado_755294" data-name="Trazado 755294" d="M440.021,81.067a.7.7,0,0,0,.674.705.669.669,0,0,0,.721-.63.7.7,0,0,0-.674-.706.669.669,0,0,0-.721.631" transform="translate(-207.877 -38)" fill="#263238"/>
              <path id="Trazado_755295" data-name="Trazado 755295" d="M440.031,78.819c.087.091.617-.3,1.369-.3s1.3.378,1.386.286c.04-.041-.048-.205-.289-.38a1.915,1.915,0,0,0-1.109-.342,1.845,1.845,0,0,0-1.089.351c-.231.178-.31.343-.267.384" transform="translate(-207.877 -36.889)" fill="#263238"/>
              <path id="Trazado_755296" data-name="Trazado 755296" d="M433.28,84.088a4.99,4.99,0,0,0-1.222-.221c-.193-.02-.375-.058-.407-.189a.981.981,0,0,1,.129-.57l.568-1.463a25.06,25.06,0,0,0,1.277-3.828,25.222,25.222,0,0,0-1.582,3.716q-.284.771-.544,1.472a1.113,1.113,0,0,0-.1.754.483.483,0,0,0,.316.281,1.32,1.32,0,0,0,.327.045,4.882,4.882,0,0,0,1.238,0" transform="translate(-203.787 -36.763)" fill="#263238"/>
              <path id="Trazado_755297" data-name="Trazado 755297" d="M439.669,74.025c.074.2.826.108,1.708.214.885.089,1.6.347,1.714.164.052-.088-.072-.28-.36-.479a2.992,2.992,0,0,0-2.607-.288c-.324.13-.487.291-.455.388" transform="translate(-207.71 -34.705)" fill="#263238"/>
              <path id="Trazado_755298" data-name="Trazado 755298" d="M426.02,75.714c.132.171.651-.006,1.274-.015.623-.03,1.151.115,1.273-.064.053-.087-.03-.258-.26-.42a1.845,1.845,0,0,0-2.052.063c-.22.176-.293.352-.234.435" transform="translate(-201.254 -35.401)" fill="#263238"/>
              <path id="Trazado_755299" data-name="Trazado 755299" d="M454.973,84.219c.083-.036,3.364-1,3.258,2.352s-3.446,2.55-3.449,2.454.191-4.806.191-4.806" transform="translate(-214.851 -39.714)" fill="#ffbe9d"/>
              <path id="Trazado_755300" data-name="Trazado 755300" d="M456.794,88.771c.015-.01.057.043.154.091a.585.585,0,0,0,.436.023,1.444,1.444,0,0,0,.709-1.273,1.924,1.924,0,0,0-.137-.84.674.674,0,0,0-.424-.462.3.3,0,0,0-.349.149c-.048.092-.029.16-.047.165s-.07-.058-.039-.2a.37.37,0,0,1,.138-.205.441.441,0,0,1,.326-.075.819.819,0,0,1,.592.538,1.978,1.978,0,0,1,.173.94,1.516,1.516,0,0,1-.9,1.419.625.625,0,0,1-.531-.106c-.1-.086-.116-.161-.1-.167" transform="translate(-215.8 -40.696)" fill="#eb996e"/>
              <path id="Trazado_755301" data-name="Trazado 755301" d="M444.887,71.557a1.76,1.76,0,0,0-1.612.826c-.217.478-.265,1.02-.482,1.5a1.184,1.184,0,0,1-1.219.79,1.029,1.029,0,0,1-.7-.764,2.823,2.823,0,0,1-.01-1.079c.2-1.564.526-3.114.589-4.689a8.045,8.045,0,0,0-.988-4.552,4.4,4.4,0,0,0-3.916-2.2c-1.04.084-1.995.626-3.028.771a4.088,4.088,0,0,1-3.4-1.134c-.112-.112-.635-.456-.635-.456a1.928,1.928,0,0,1,.352-1.035c2.051-1.9,5.746-2.426,8.455-1.744a9.768,9.768,0,0,1,6.413,5.133c1.165,2.538.82,6.069.178,8.637" transform="translate(-202.903 -27.166)" fill="#263238"/>
              <path id="Trazado_755302" data-name="Trazado 755302" d="M424.318,62.463s12.846-4.133,18.4,6.981a20.845,20.845,0,0,0,.83-4.272,9.53,9.53,0,0,0-6.7-8.792s-9.193-3.508-12.536,6.083" transform="translate(-200.459 -26.34)" fill="#e6b046"/>
              <path id="Trazado_755303" data-name="Trazado 755303" d="M435.889,66.938a2.794,2.794,0,0,1-4.448.4,1.648,1.648,0,0,1-3.114-.164,3.729,3.729,0,0,1-1.25.913,1.275,1.275,0,0,1-1.427-.3,1.246,1.246,0,0,1,.089-1.474,3.046,3.046,0,0,1,1.3-.877,9.413,9.413,0,0,1,4.847-.735,6.533,6.533,0,0,1,4.25,2.315" transform="translate(-200.993 -30.537)" fill="#263238"/>
              <path id="Trazado_755305" data-name="Trazado 755305" d="M436.6,68.387a24.2,24.2,0,0,0-7.484-7.169,47.22,47.22,0,0,0-11.2-4.562,7.308,7.308,0,0,0-3.094-.324,2.788,2.788,0,0,0-2.294,1.877c-.32,1.269,1.931,3.227,2.99,4a34.588,34.588,0,0,0,3.216,1.9s-.029-2.353,3.737-2.838c5.123-.66,14.129,7.122,14.129,7.122" transform="translate(-194.874 -26.583)" fill="#f0dcc0"/>
              <path id="Trazado_755306" data-name="Trazado 755306" d="M434.892,59.37a12.111,12.111,0,0,0-3.71-1.262,4.773,4.773,0,0,1,1.008-.605,9.555,9.555,0,0,1,2.891.972Z" transform="translate(-203.702 -27.165)" fill="#e0e0e0"/>
              <path id="Trazado_755307" data-name="Trazado 755307" d="M452.456,84.568a6.132,6.132,0,0,1-.693.521l-1.687,1.234a17.949,17.949,0,0,1-2.46,1.655,14.566,14.566,0,0,1,2.3-1.877,8.867,8.867,0,0,1,2.541-1.533" transform="translate(-211.465 -39.947)" fill="#ebebeb"/>
              <path id="Trazado_755308" data-name="Trazado 755308" d="M453.419,93.833a10.227,10.227,0,0,1-4.492,3.812c-.04-.073,1.113-.73,2.349-1.785s2.078-2.079,2.143-2.027" transform="translate(-212.085 -44.328)" fill="#ebebeb"/>
              <path id="Trazado_755309" data-name="Trazado 755309" d="M422.161,90.654a10.382,10.382,0,0,0,1.673.359c2.424-.13,3.277-.949,7.237-.1a5.51,5.51,0,0,0,1.944.061,16.714,16.714,0,0,1,2.373-.168l.763,5.291s-4.7,4.11-8.933,3.649c-5.473-.6-6.12-6.98-5.058-9.086" transform="translate(-199.238 -42.77)" fill="#fafafa"/>
              <path id="Trazado_755310" data-name="Trazado 755310" d="M422.144,90.621s-.049.14-.144.387a5.946,5.946,0,0,0-.227,1.152,8.351,8.351,0,0,0,.764,4.208,5.965,5.965,0,0,0,1.886,2.262,6.027,6.027,0,0,0,3.2,1.046,8.9,8.9,0,0,0,3.68-.732,18.024,18.024,0,0,0,3.553-1.97c.431-.307.852-.623,1.245-.956l-.018.05-.76-5.292.051.044a21.269,21.269,0,0,0-2.8.21,5.489,5.489,0,0,1-1.322-.07c-.424-.078-.826-.174-1.226-.232a12.647,12.647,0,0,0-2.257-.188,12.207,12.207,0,0,0-1.929.209c-.581.1-1.106.183-1.568.222a3.36,3.36,0,0,1-.645.017c-.2-.029-.371-.069-.527-.1-.625-.151-.954-.263-.954-.263a6.348,6.348,0,0,0,3.684.065,12.1,12.1,0,0,1,1.938-.222,12.647,12.647,0,0,1,2.272.178c.4.056.81.152,1.228.227a5.468,5.468,0,0,0,1.3.065,21.225,21.225,0,0,1,2.807-.218h.045l.006.044c.24,1.657.5,3.436.766,5.291l0,.03-.023.019c-.4.339-.82.654-1.254.963a17.953,17.953,0,0,1-3.576,1.98,8.949,8.949,0,0,1-3.725.733,6.118,6.118,0,0,1-3.246-1.072,6.037,6.037,0,0,1-1.9-2.3,8.3,8.3,0,0,1-.737-4.246A5.571,5.571,0,0,1,421.98,91c.107-.254.164-.378.164-.378" transform="translate(-199.221 -42.736)" fill="#263238"/>
              <path id="Trazado_755311" data-name="Trazado 755311" d="M423.38,96.42a12.933,12.933,0,0,0,11.751-.216,8.578,8.578,0,0,1-2.5,2.262,8.306,8.306,0,0,1-3.809.617,6.8,6.8,0,0,1-3.037-.485,7,7,0,0,1-2.273-2.189" transform="translate(-200.016 -45.449)" fill="#e0e0e0"/>
              <path id="Trazado_755312" data-name="Trazado 755312" d="M435.1,94.077a6.934,6.934,0,0,1-1.517.4,24.338,24.338,0,0,1-7.546.267,6.953,6.953,0,0,1-1.542-.292,12.388,12.388,0,0,1,1.561.1,33.221,33.221,0,0,0,7.494-.265,12.235,12.235,0,0,1,1.549-.208" transform="translate(-200.541 -44.44)" fill="#e0e0e0"/>
              <path id="Trazado_755313" data-name="Trazado 755313" d="M438.073,98.256a4.3,4.3,0,0,1-1.037,1.053,8.9,8.9,0,0,1-6.738,1.866,4.3,4.3,0,0,1-1.431-.37c.012-.044.556.1,1.452.177a9.747,9.747,0,0,0,6.6-1.827c.729-.525,1.122-.93,1.154-.9" transform="translate(-202.608 -46.418)" fill="#e0e0e0"/>
              <path id="Trazado_755314" data-name="Trazado 755314" d="M435.529,95.949a1.759,1.759,0,0,1-.423.271,9.244,9.244,0,0,1-1.24.575,12.445,12.445,0,0,1-1.948.577,13.093,13.093,0,0,1-4.956.079A12.424,12.424,0,0,1,425,96.936a9.318,9.318,0,0,1-1.258-.535,1.758,1.758,0,0,1-.431-.257c.022-.045.66.272,1.749.608A14.418,14.418,0,0,0,427,97.2a14.145,14.145,0,0,0,4.865-.078,14.422,14.422,0,0,0,1.93-.511c1.078-.371,1.706-.708,1.729-.663" transform="translate(-199.983 -45.327)" fill="#263238"/>
              <path id="Trazado_755315" data-name="Trazado 755315" d="M433.426,95.722a13.6,13.6,0,0,1-6.245-.254c.015-.08,1.4.15,3.119.216s3.117-.043,3.126.038" transform="translate(-201.812 -45.094)" fill="#263238"/>
              <path id="Trazado_755316" data-name="Trazado 755316" d="M328.592,182.328V139.547H388.1v42.781l-31.538.266Z" transform="translate(-155.236 -65.926)" fill="#bfaf99"/>
              <path id="Trazado_755317" data-name="Trazado 755317" d="M356.561,182.595l-27.97-.266V139.547h27.878Z" transform="translate(-155.235 -65.926)" fill="#f0dcc0"/>
              <rect id="Rectángulo_360276" data-name="Rectángulo 360276" width="3.711" height="7.422" transform="translate(184.725 73.621)" fill="#263238"/>
              <rect id="Rectángulo_360277" data-name="Rectángulo 360277" width="7.387" height="7.387" transform="translate(175.341 106.961)" fill="#fafafa"/>
              <path id="Trazado_755318" data-name="Trazado 755318" d="M339.741,210.131h-7.413v-7.413h7.413Zm-7.387-.027h7.36v-7.36h-7.36Z" transform="translate(-157.001 -95.769)" fill="#263238"/>
              <path id="Trazado_755319" data-name="Trazado 755319" d="M452.354,157.057l1.23,9.958L435.12,177.974l2.871,6.316,20.986-8.478c2.546-1.289,4.722-3.2,4.541-6.061l-1.011-13.929Z" transform="translate(-205.562 -73.614)" fill="#ffbe9d"/>
              <path id="Trazado_755320" data-name="Trazado 755320" d="M471.062,121.129a10.027,10.027,0,0,1,3.37,6c.707,3.859,3.108,14.639,3.108,14.639l-12.653,1.5s.008-2.96.007-2.962c-.021-.042-1.178-5.559-1.178-5.559l2.359-7.615Z" transform="translate(-219.072 -57.225)" fill="#91b3fa"/>
              <path id="Trazado_755321" data-name="Trazado 755321" d="M477.184,152.651a5.348,5.348,0,0,1-.865.157l-2.369.327c-2,.264-4.77.61-7.83.975l-1.07.127-.142.017-.011-.143c-.21-2.823-.444-5.332-.616-7.135-.083-.866-.151-1.581-.2-2.127a4.484,4.484,0,0,1-.045-.778,4.509,4.509,0,0,1,.146.766c.076.5.176,1.22.287,2.119.221,1.8.486,4.307.7,7.135l-.152-.126,1.07-.128c3.059-.366,5.831-.681,7.839-.9l2.38-.241a5.328,5.328,0,0,1,.877-.051" transform="translate(-219.218 -68.063)" fill="#263238"/>
              <path id="Trazado_755322" data-name="Trazado 755322" d="M470.562,122.442c.018.044-.46.242-1.162.673a10.093,10.093,0,0,0-4.074,4.822c-.308.764-.423,1.268-.47,1.258a4.024,4.024,0,0,1,.288-1.326,8.977,8.977,0,0,1,4.159-4.922,4.033,4.033,0,0,1,1.259-.5" transform="translate(-219.607 -57.843)" fill="#263238"/>
              <path id="Trazado_755323" data-name="Trazado 755323" d="M421.174,196.756,418.463,198l-1.163-.449-5.917-.37-3.706.819-.106.212c0,2.01,3.807,1.216,4.97,1.534s.105,2.8.105,2.8-5.234,6.82-6.146,8.46c-.456.82-.307,1.269-.044,1.514a.791.791,0,0,0,.989.036l1.932-1.368s5.316.309,5.681.129a5.523,5.523,0,0,0,1.289-1.368,40.306,40.306,0,0,1,8.42-6.211Z" transform="translate(-191.903 -92.953)" fill="#fafafa"/>
              <path id="Trazado_755324" data-name="Trazado 755324" d="M421.053,196.755a.578.578,0,0,1,.066.109l.189.346.725,1.36,2.693,5.125.041.078-.079.042a40.737,40.737,0,0,0-8.377,6.222l.017-.02a5.6,5.6,0,0,1-1.238,1.357.626.626,0,0,1-.265.1l-.24.02-.471.01c-.313,0-.628,0-.946-.011-1.27-.032-2.58-.094-3.92-.168l.085-.025-1.254.889-.635.45a.981.981,0,0,1-.856.178.882.882,0,0,1-.613-.648,1.456,1.456,0,0,1,.107-.859,8.7,8.7,0,0,1,.838-1.4c1.839-2.65,3.729-5.115,5.5-7.438l-.016.028a6.668,6.668,0,0,0,.345-1.1,2.442,2.442,0,0,0,.039-1.086.617.617,0,0,0-.262-.378,1.336,1.336,0,0,0-.494-.117c-.362-.035-.733-.031-1.1-.034a10.928,10.928,0,0,1-2.168-.151,2.293,2.293,0,0,1-.99-.436,1.317,1.317,0,0,1-.438-.979v-.025l.013-.025.106-.211.025-.049.052-.012,3.708-.806.014,0h.014l5.915.4h.011l.009,0,1.16.458-.045,0,2.045-.9.519-.223a1.062,1.062,0,0,1,.171-.066,1.589,1.589,0,0,1-.18.095l-.519.253-1.988.947-.022.01-.023-.009-1.166-.44.02,0-5.919-.338.028,0-3.7.833.077-.06-.1.212.012-.051a1.083,1.083,0,0,0,.361.8,2.078,2.078,0,0,0,.89.381,10.791,10.791,0,0,0,2.118.136c.367,0,.74,0,1.125.031a1.528,1.528,0,0,1,.6.149.872.872,0,0,1,.38.528,2.672,2.672,0,0,1-.032,1.21,6.9,6.9,0,0,1-.357,1.151l-.006.014-.011.015c-1.762,2.324-3.651,4.8-5.48,7.432a8.616,8.616,0,0,0-.81,1.35,1.2,1.2,0,0,0-.1.695.609.609,0,0,0,.42.448.705.705,0,0,0,.624-.137l.636-.449,1.255-.887.039-.027.047,0c1.337.075,2.646.141,3.911.176.316.008.629.015.939.014l.46-.008.22-.017a.346.346,0,0,0,.162-.059,5.473,5.473,0,0,0,1.169-1.281l.009-.013.008-.008a40.074,40.074,0,0,1,8.462-6.2l-.037.12c-1.092-2.166-1.969-3.906-2.582-5.124l-.694-1.4-.179-.368a.953.953,0,0,1-.058-.133" transform="translate(-191.782 -92.952)" fill="#263238"/>
              <path id="Trazado_755325" data-name="Trazado 755325" d="M417.225,215.383a27.793,27.793,0,0,1-2.444,2.368c-.691.636-1.321,1.207-1.784,1.612a4.347,4.347,0,0,1-.782.623,31.34,31.34,0,0,1,5.01-4.6" transform="translate(-194.74 -101.751)" fill="#263238"/>
              <path id="Trazado_755326" data-name="Trazado 755326" d="M421.757,217.884a7.726,7.726,0,0,1-1.537,1.857,9.3,9.3,0,0,1-1.819,1.58,12.441,12.441,0,0,1,1.623-1.773,17.151,17.151,0,0,1,1.732-1.663" transform="translate(-197.663 -102.934)" fill="#263238"/>
            </g>
          </g>
          <rect id="Rectángulo_360279" data-name="Rectángulo 360279" width="16.958" height="23.768" transform="translate(142.199 53.437)" fill="#455a64"/>
          <rect id="Rectángulo_360280" data-name="Rectángulo 360280" width="16.958" height="2.755" transform="translate(142.199 53.437)" fill="#263238"/>
          <rect id="Rectángulo_360281" data-name="Rectángulo 360281" width="16.958" height="2.755" transform="translate(142.199 74.45)" fill="#263238"/>
          <rect id="Rectángulo_360282" data-name="Rectángulo 360282" width="10.303" height="5.369" transform="translate(145.507 57.886)" fill="#263238"/>
          <g id="Grupo_1023318" data-name="Grupo 1023318">
            <g id="Grupo_1023317" data-name="Grupo 1023317" clip-path="url(#clip-path-2)">
              <path id="Trazado_755327" data-name="Trazado 755327" d="M285.735,112.539c-.026,0-.024-.215-.128-.578a2.414,2.414,0,0,0-.887-1.268,2.3,2.3,0,1,0,0,3.691,2.413,2.413,0,0,0,.887-1.268c.1-.362.1-.579.128-.578.009,0,.016.053.02.156a1.835,1.835,0,0,1-.044.447,2.409,2.409,0,0,1-.873,1.4,2.507,2.507,0,0,1-2.39.391,2.537,2.537,0,0,1,0-4.782,2.506,2.506,0,0,1,2.39.391,2.406,2.406,0,0,1,.873,1.4,1.835,1.835,0,0,1,.044.447c0,.1-.011.156-.02.156" transform="translate(-132.638 -51.968)" fill="#455a64"/>
              <path id="Trazado_755328" data-name="Trazado 755328" d="M277.337,123.455a.4.4,0,1,1-.4-.4.4.4,0,0,1,.4.4" transform="translate(-130.643 -58.134)" fill="#263238"/>
              <path id="Trazado_755329" data-name="Trazado 755329" d="M283.07,123.455a.4.4,0,1,1-.4-.4.4.4,0,0,1,.4.4" transform="translate(-133.352 -58.134)" fill="#263238"/>
              <path id="Trazado_755330" data-name="Trazado 755330" d="M288.8,123.455a.4.4,0,1,1-.4-.4.4.4,0,0,1,.4.4" transform="translate(-136.06 -58.134)" fill="#263238"/>
              <path id="Trazado_755331" data-name="Trazado 755331" d="M277.337,128.313a.4.4,0,1,1-.4-.4.4.4,0,0,1,.4.4" transform="translate(-130.643 -60.43)" fill="#263238"/>
              <path id="Trazado_755332" data-name="Trazado 755332" d="M283.07,128.313a.4.4,0,1,1-.4-.4.4.4,0,0,1,.4.4" transform="translate(-133.352 -60.43)" fill="#263238"/>
              <path id="Trazado_755333" data-name="Trazado 755333" d="M288.8,128.313a.4.4,0,1,1-.4-.4.4.4,0,0,1,.4.4" transform="translate(-136.06 -60.43)" fill="#263238"/>
              <path id="Trazado_755334" data-name="Trazado 755334" d="M277.337,133.171a.4.4,0,1,1-.4-.4.4.4,0,0,1,.4.4" transform="translate(-130.643 -62.725)" fill="#263238"/>
              <path id="Trazado_755335" data-name="Trazado 755335" d="M283.07,133.171a.4.4,0,1,1-.4-.4.4.4,0,0,1,.4.4" transform="translate(-133.352 -62.725)" fill="#263238"/>
              <path id="Trazado_755336" data-name="Trazado 755336" d="M288.8,133.171a.4.4,0,1,1-.4-.4.4.4,0,0,1,.4.4" transform="translate(-136.06 -62.725)" fill="#263238"/>
              <path id="Trazado_755337" data-name="Trazado 755337" d="M294.874,127.373a1.449,1.449,0,1,1-1.449-1.449,1.449,1.449,0,0,1,1.449,1.449" transform="translate(-137.937 -59.49)" fill="#e8505b"/>
            </g>
          </g>
          <rect id="Rectángulo_360284" data-name="Rectángulo 360284" width="9.814" height="228.304" transform="translate(125.149 0.001)" fill="#263238"/>
          <rect id="Rectángulo_360285" data-name="Rectángulo 360285" width="97.712" height="218.672" transform="translate(27.436 9.633)" fill="#455a64"/>
          <rect id="Rectángulo_360286" data-name="Rectángulo 360286" width="9.043" height="228.304" transform="translate(21.132 0.001)" fill="#263238"/>
          <rect id="Rectángulo_360287" data-name="Rectángulo 360287" width="113.831" height="9.632" transform="translate(21.132 0.001)" fill="#263238"/>
          <g id="Grupo_1023320" data-name="Grupo 1023320">
            <g id="Grupo_1023319" data-name="Grupo 1023319" clip-path="url(#clip-path-2)">
              <path id="Trazado_755338" data-name="Trazado 755338" d="M247.262,0a2.047,2.047,0,0,1-.367.382l-1.06.971-3.516,3.181c-1.365,1.25-2.583,2.4-3.418,3.276a11.22,11.22,0,0,0-.934,1.077,2.347,2.347,0,0,0-.2.325c-.025.079-.043.125-.053.125s-.01-.046,0-.142a1.6,1.6,0,0,1,.164-.366,8.09,8.09,0,0,1,.88-1.15,47.5,47.5,0,0,1,3.375-3.347c1.367-1.253,2.641-2.348,3.574-3.125.468-.388.85-.7,1.119-.905a1.959,1.959,0,0,1,.436-.3" transform="translate(-112.299 0)" fill="#455a64"/>
              <path id="Trazado_755339" data-name="Trazado 755339" d="M49.1,9.831c-.056.051-2.126-2.108-4.622-4.821S40,.052,40.055,0s2.125,2.107,4.622,4.822S49.153,9.78,49.1,9.831" transform="translate(-18.922 0)" fill="#455a64"/>
              <path id="Trazado_755340" data-name="Trazado 755340" d="M65.485,236.062H65.2a3.147,3.147,0,0,1-3.148-3.148V210.006a3.147,3.147,0,0,1,3.148-3.148h.28a3.147,3.147,0,0,1,3.148,3.148v22.909a3.147,3.147,0,0,1-3.148,3.148" transform="translate(-29.317 -97.725)" fill="#263238"/>
              <path id="Trazado_755341" data-name="Trazado 755341" d="M68.834,247.629a1.108,1.108,0,1,0-1.606.985V249.9a.5.5,0,0,0,1,0v-1.287a1.1,1.1,0,0,0,.61-.985" transform="translate(-31.472 -116.463)" fill="#455a64"/>
              <path id="Trazado_755342" data-name="Trazado 755342" d="M84.552,229H69.795a1.672,1.672,0,0,1-1.672-1.672v-.149a1.672,1.672,0,0,1,1.672-1.672H84.552a1.672,1.672,0,0,1,1.672,1.672v.149A1.672,1.672,0,0,1,84.552,229" transform="translate(-32.183 -106.534)" fill="#263238"/>
              <path id="Trazado_755343" data-name="Trazado 755343" d="M74.392,228.906a2.344,2.344,0,0,1-.55.046l-1.5.065a13.426,13.426,0,0,1-2.238-.077,4.938,4.938,0,0,1-1.3-.329,2.316,2.316,0,0,1-1.118-.958,1.667,1.667,0,0,1-.071-1.482,1.2,1.2,0,0,1,.5-.541,3.14,3.14,0,0,1,.616-.263,7.072,7.072,0,0,1,2.234-.264c.636,0,1.148.032,1.5.053a2.2,2.2,0,0,1,.549.062,18.2,18.2,0,0,1-2.048.08,7.355,7.355,0,0,0-2.157.31,1.444,1.444,0,0,0-.952.68,1.407,1.407,0,0,0,.068,1.235,2.072,2.072,0,0,0,.987.844,4.842,4.842,0,0,0,1.231.324,15.257,15.257,0,0,0,2.2.133,11.131,11.131,0,0,1,2.05.083" transform="translate(-31.875 -106.345)" fill="#455a64"/>
              <path id="Trazado_755344" data-name="Trazado 755344" d="M113.418,78.959s0-.061-.007-.175,0-.288-.007-.5c0-.451-.008-1.1-.014-1.942-.008-1.7-.019-4.176-.033-7.312-.015-6.273-.036-15.185-.062-25.785l.123.122-28.993.015h0l.137-.137c-.008,13.213-.016,25.5-.023,35.715l-.114-.114,21.02.059,5.882.03,1.554.013c.352,0,.541.013.541.013s-.171.008-.516.013l-1.532.013-5.856.03-21.092.059h-.114v-.115c-.007-10.217-.014-22.5-.023-35.715v-.138h.141l28.993.015h.123v.123c-.025,10.632-.047,19.572-.062,25.864-.014,3.123-.025,5.589-.033,7.284-.006.832-.011,1.473-.014,1.918,0,.209-.005.37-.007.489a1.341,1.341,0,0,1-.007.161" transform="translate(-39.818 -20.364)" fill="#263238"/>
              <path id="Trazado_755345" data-name="Trazado 755345" d="M112.418,78.178a1.057,1.057,0,0,1-.007-.136c0-.1,0-.225-.007-.387,0-.351-.008-.849-.015-1.491-.008-1.31-.019-3.2-.033-5.6-.015-4.795-.036-11.584-.062-19.618l.124.125-19.977.013c-.034.028.259-.257.135-.132v1.89q0,.944,0,1.879,0,1.868,0,3.693c0,2.432,0,4.8,0,7.092-.007,4.58-.013,8.845-.019,12.67l-.112-.112,14.5.059,4.041.029,1.067.013c.243,0,.374.012.374.012s-.115.008-.35.012l-1.046.013-4.016.029-14.567.058h-.112v-.112c-.005-3.825-.012-8.09-.018-12.67,0-2.291,0-4.66,0-7.092q0-1.824,0-3.693,0-.935,0-1.879v-1.89c-.122.121.166-.174.14-.142l19.977.013h.125v.124c-.025,8.067-.047,14.884-.062,19.7-.014,2.38-.026,4.265-.033,5.568-.006.632-.012,1.122-.015,1.467,0,.157-.005.279-.007.374a.686.686,0,0,1-.007.121" transform="translate(-43.591 -24.004)" fill="#263238"/>
              <path id="Trazado_755346" data-name="Trazado 755346" d="M113.418,194.041s-.005-.114-.008-.332,0-.542-.008-.961c0-.851-.009-2.1-.016-3.713-.008-3.239-.021-7.951-.036-13.874-.016-11.839-.037-28.514-.062-47.9l.131.131-28.992.006h0l.137-.137c-.015,26.006-.029,49.587-.039,66.776l-.1-.1,21.187.053,5.779.024,1.509.011c.341,0,.521.01.521.01s-.166.007-.5.01l-1.491.011-5.757.024-21.247.053h-.1v-.1c-.01-17.189-.024-40.77-.039-66.776v-.138h.142l28.992.007h.131v.131c-.025,19.418-.046,36.125-.062,47.985-.015,5.911-.027,10.612-.036,13.844-.007,1.6-.013,2.84-.016,3.685,0,.412-.006.727-.008.946s-.008.315-.008.315" transform="translate(-39.818 -60.058)" fill="#263238"/>
              <path id="Trazado_755347" data-name="Trazado 755347" d="M112.445,194.027s-.006-.1-.008-.3,0-.486-.008-.859c0-.761-.009-1.872-.017-3.308-.009-2.885-.022-7.072-.037-12.319-.015-10.488-.037-25.21-.062-42.177l.133.133-19.976,0h0l.137-.137c-.018,23.572-.035,44.728-.046,58.96l-.091-.091,14.659.05,3.943.022,1.023.01c.232,0,.354.009.354.009s-.11.006-.336.009l-1.008.01-3.922.022-14.714.05h-.091v-.091c-.012-14.232-.028-35.388-.047-58.96v-.137h.141l19.976,0h.133v.133c-.025,17-.046,31.757-.062,42.268-.016,5.235-.028,9.411-.037,12.288-.007,1.424-.013,2.525-.017,3.28,0,.365-.006.645-.008.843s-.008.281-.008.281" transform="translate(-43.618 -63.745)" fill="#263238"/>
              <path id="Trazado_755348" data-name="Trazado 755348" d="M113.418,354.34s-.005-.115-.008-.332,0-.543-.008-.961c0-.851-.009-2.1-.016-3.713-.008-3.239-.021-7.951-.036-13.874-.016-11.839-.037-28.514-.062-47.9l.131.131-28.992.006h0l.137-.137c-.015,26.006-.029,49.587-.039,66.776l-.1-.1,21.187.053,5.779.024,1.509.011c.341,0,.521.01.521.01s-.166.007-.5.01l-1.491.011-5.757.025-21.247.053h-.1v-.1c-.01-17.189-.024-40.77-.039-66.776v-.138h.142l28.992.007h.131v.131c-.025,19.418-.046,36.125-.062,47.985-.015,5.911-.027,10.612-.036,13.844-.007,1.6-.013,2.84-.016,3.685,0,.412-.006.727-.008.946s-.008.315-.008.315" transform="translate(-39.818 -135.788)" fill="#263238"/>
              <path id="Trazado_755349" data-name="Trazado 755349" d="M112.445,354.326s-.006-.1-.008-.3,0-.486-.008-.859c0-.761-.009-1.872-.017-3.308-.009-2.885-.022-7.071-.037-12.319-.015-10.488-.037-25.21-.062-42.177l.133.133-19.976,0h0l.137-.137c-.018,23.572-.035,44.728-.046,58.96l-.091-.091,14.659.05,3.943.022,1.023.009c.232,0,.354.009.354.009s-.11.006-.336.01l-1.008.009-3.922.022-14.714.05h-.091v-.091c-.012-14.232-.028-35.388-.047-58.96v-.138h.141l19.976,0h.133v.133c-.025,17-.046,31.757-.062,42.268-.016,5.235-.028,9.411-.037,12.288-.007,1.424-.013,2.526-.017,3.28,0,.366-.006.645-.008.843s-.008.281-.008.281" transform="translate(-43.618 -139.474)" fill="#263238"/>
              <path id="Trazado_755350" data-name="Trazado 755350" d="M88.877,102.661a19.979,19.979,0,0,1-2.479,2.2,20.068,20.068,0,0,1-2.653,1.982,20.029,20.029,0,0,1,2.479-2.2,20.085,20.085,0,0,1,2.653-1.982" transform="translate(-39.563 -48.498)" fill="#263238"/>
              <path id="Trazado_755351" data-name="Trazado 755351" d="M135.569,106.6a17.6,17.6,0,0,1-4.744-3.868c.055-.057,1.068.865,2.376,1.929s2.412,1.873,2.368,1.939" transform="translate(-61.804 -48.532)" fill="#263238"/>
              <path id="Trazado_755352" data-name="Trazado 755352" d="M134.623,44.969a14.448,14.448,0,0,1-2.188,1.761,14.454,14.454,0,0,1-2.35,1.539,14.491,14.491,0,0,1,2.189-1.762,14.452,14.452,0,0,1,2.35-1.539" transform="translate(-61.455 -21.243)" fill="#263238"/>
              <path id="Trazado_755353" data-name="Trazado 755353" d="M88.7,47.43a9.947,9.947,0,0,1-2.4-1.352,9.924,9.924,0,0,1-2.119-1.761,23.036,23.036,0,0,1,2.275,1.535A23,23,0,0,1,88.7,47.43" transform="translate(-39.767 -20.935)" fill="#263238"/>
              <path id="Trazado_755354" data-name="Trazado 755354" d="M88.708,131.192A9.741,9.741,0,0,1,84.6,126.55c.074-.041.74,1.2,1.881,2.475s2.276,2.1,2.227,2.167" transform="translate(-39.965 -59.785)" fill="#263238"/>
              <path id="Trazado_755355" data-name="Trazado 755355" d="M134.973,127.326a29.765,29.765,0,0,1-4.294,3.774,29.841,29.841,0,0,1,4.294-3.774" transform="translate(-61.735 -60.151)" fill="#263238"/>
              <path id="Trazado_755356" data-name="Trazado 755356" d="M88.807,247.519c.044.067-.919.765-2.011,1.735s-1.907,1.837-1.968,1.785a11.622,11.622,0,0,1,3.979-3.52" transform="translate(-40.074 -116.933)" fill="#263238"/>
              <path id="Trazado_755357" data-name="Trazado 755357" d="M134.521,250.665a24.947,24.947,0,0,1-3.839-3.545,25.022,25.022,0,0,1,3.839,3.545" transform="translate(-61.737 -116.744)" fill="#263238"/>
              <path id="Trazado_755358" data-name="Trazado 755358" d="M89.117,292.629a20.834,20.834,0,0,1-2.436-2.338,20.938,20.938,0,0,1-2.238-2.529,20.8,20.8,0,0,1,2.437,2.338,20.809,20.809,0,0,1,2.238,2.529" transform="translate(-39.892 -135.946)" fill="#263238"/>
              <path id="Trazado_755359" data-name="Trazado 755359" d="M135.172,287.366a37.576,37.576,0,0,1-4.629,4.459,37.677,37.677,0,0,1,4.629-4.459" transform="translate(-61.671 -135.758)" fill="#263238"/>
              <path id="Trazado_755360" data-name="Trazado 755360" d="M88.236,406.593a13.288,13.288,0,0,1-1.705,2.089,13.306,13.306,0,0,1-1.909,1.9,26.454,26.454,0,0,1,3.614-3.994" transform="translate(-39.976 -192.084)" fill="#263238"/>
              <path id="Trazado_755361" data-name="Trazado 755361" d="M134.863,410.758a16.7,16.7,0,0,1-4.169-3.905,24.5,24.5,0,0,1,2.1,1.932,24.618,24.618,0,0,1,2.064,1.973" transform="translate(-61.742 -192.207)" fill="#263238"/>
              <path id="Trazado_755362" data-name="Trazado 755362" d="M186.569,78.959s0-.061-.007-.175,0-.288-.007-.5c0-.451-.008-1.1-.014-1.942-.008-1.7-.019-4.176-.033-7.312-.015-6.273-.036-15.185-.061-25.785l.122.122-28.993.015h0l.137-.137c-.008,13.213-.016,25.5-.023,35.715l-.114-.114,21.02.059,5.882.03,1.554.013c.352,0,.541.013.541.013s-.171.008-.516.013l-1.532.013-5.856.03-21.092.059h-.114v-.115c-.007-10.217-.014-22.5-.023-35.715v-.138h.141l28.993.015h.123v.123c-.025,10.632-.046,19.572-.061,25.864-.014,3.123-.025,5.589-.033,7.284-.006.832-.011,1.473-.014,1.918,0,.209-.005.37-.007.489a1.209,1.209,0,0,1-.007.161" transform="translate(-74.376 -20.364)" fill="#263238"/>
              <path id="Trazado_755363" data-name="Trazado 755363" d="M185.568,78.178a1.057,1.057,0,0,1-.007-.136c0-.1,0-.225-.007-.387,0-.351-.009-.849-.015-1.491-.007-1.31-.019-3.2-.033-5.6-.015-4.795-.036-11.584-.062-19.618l.124.125-19.977.013c-.033.028.259-.257.135-.132v1.89q0,.944,0,1.879,0,1.868,0,3.693c0,2.432,0,4.8,0,7.092-.007,4.58-.013,8.845-.019,12.67l-.112-.112,14.5.059,4.041.029,1.067.013c.243,0,.374.012.374.012s-.115.008-.35.012l-1.046.013-4.016.029-14.567.058h-.112v-.112c-.005-3.825-.012-8.09-.018-12.67,0-2.291,0-4.66,0-7.092q0-1.824,0-3.693V50.954c-.122.121.166-.174.14-.142l19.977.013h.125v.124c-.025,8.067-.047,14.884-.062,19.7-.014,2.38-.025,4.265-.033,5.568-.006.632-.012,1.122-.015,1.467,0,.157-.006.279-.007.374a.686.686,0,0,1-.007.121" transform="translate(-78.149 -24.004)" fill="#263238"/>
              <path id="Trazado_755364" data-name="Trazado 755364" d="M186.569,194.041s-.005-.114-.008-.332,0-.542-.008-.961c0-.851-.009-2.1-.016-3.713-.008-3.239-.021-7.951-.036-13.874-.016-11.839-.037-28.514-.062-47.9l.131.131-28.992.006h0l.137-.137c-.015,26.006-.029,49.587-.039,66.776l-.1-.1L178.76,194l5.779.024,1.509.011c.341,0,.521.01.521.01s-.166.007-.5.01l-1.491.011-5.757.024-21.247.053h-.1v-.1c-.01-17.189-.024-40.77-.039-66.776v-.138h.142l28.992.007h.131v.131c-.025,19.418-.046,36.125-.062,47.985-.015,5.911-.027,10.612-.036,13.844-.007,1.6-.013,2.84-.016,3.685,0,.412-.006.727-.008.946s-.008.315-.008.315" transform="translate(-74.376 -60.058)" fill="#263238"/>
              <path id="Trazado_755365" data-name="Trazado 755365" d="M185.595,194.027s-.006-.1-.008-.3,0-.486-.008-.859c0-.761-.009-1.872-.017-3.308-.009-2.885-.022-7.072-.037-12.319-.015-10.488-.037-25.21-.062-42.177l.133.133-19.975,0h0l.137-.137c-.018,23.572-.035,44.728-.046,58.96l-.091-.091,14.659.05,3.943.022,1.023.01c.232,0,.354.009.354.009s-.11.006-.336.009l-1.008.01-3.922.022-14.714.05h-.091v-.091c-.011-14.232-.027-35.388-.046-58.96v-.137h.141l19.975,0h.133v.133c-.025,17-.046,31.757-.062,42.268-.016,5.235-.029,9.411-.037,12.288-.007,1.424-.013,2.525-.017,3.28,0,.365-.006.645-.008.843s-.008.281-.008.281" transform="translate(-78.176 -63.745)" fill="#263238"/>
              <path id="Trazado_755366" data-name="Trazado 755366" d="M186.569,354.34s-.005-.115-.008-.332,0-.543-.008-.961c0-.851-.009-2.1-.016-3.713-.008-3.239-.021-7.951-.036-13.874-.016-11.839-.037-28.514-.062-47.9l.131.131-28.992.006h0l.137-.137c-.015,26.006-.029,49.587-.039,66.776l-.1-.1,21.187.053,5.779.024,1.509.011c.341,0,.521.01.521.01s-.166.007-.5.01l-1.491.011-5.757.025-21.247.053h-.1v-.1c-.01-17.189-.024-40.77-.039-66.776v-.138h.142l28.992.007h.131v.131c-.025,19.418-.046,36.125-.062,47.985-.015,5.911-.027,10.612-.036,13.844-.007,1.6-.013,2.84-.016,3.685,0,.412-.006.727-.008.946s-.008.315-.008.315" transform="translate(-74.376 -135.788)" fill="#263238"/>
              <path id="Trazado_755367" data-name="Trazado 755367" d="M185.595,354.326s-.006-.1-.008-.3,0-.486-.008-.859c0-.761-.009-1.872-.017-3.308-.009-2.885-.022-7.071-.037-12.319-.015-10.488-.037-25.21-.062-42.177l.133.133-19.975,0h0l.137-.137c-.018,23.572-.035,44.728-.046,58.96l-.091-.091,14.659.05,3.943.022,1.023.009c.232,0,.354.009.354.009s-.11.006-.336.01l-1.008.009-3.922.022-14.714.05h-.091v-.091c-.011-14.232-.027-35.388-.046-58.96v-.138h.141l19.975,0h.133v.133c-.025,17-.046,31.757-.062,42.268-.016,5.235-.029,9.411-.037,12.288-.007,1.424-.013,2.526-.017,3.28,0,.366-.006.645-.008.843s-.008.281-.008.281" transform="translate(-78.176 -139.474)" fill="#263238"/>
              <path id="Trazado_755368" data-name="Trazado 755368" d="M162.027,102.661a19.977,19.977,0,0,1-2.479,2.2,20.067,20.067,0,0,1-2.653,1.982,39.89,39.89,0,0,1,5.132-4.177" transform="translate(-74.121 -48.498)" fill="#263238"/>
              <path id="Trazado_755369" data-name="Trazado 755369" d="M208.719,106.6a17.6,17.6,0,0,1-4.744-3.868c.055-.057,1.068.865,2.376,1.929s2.412,1.873,2.368,1.939" transform="translate(-96.362 -48.532)" fill="#263238"/>
              <path id="Trazado_755370" data-name="Trazado 755370" d="M207.773,44.969a14.449,14.449,0,0,1-2.188,1.761,14.453,14.453,0,0,1-2.35,1.539,14.492,14.492,0,0,1,2.189-1.762,14.452,14.452,0,0,1,2.35-1.539" transform="translate(-96.013 -21.243)" fill="#263238"/>
              <path id="Trazado_755371" data-name="Trazado 755371" d="M161.848,47.43a9.947,9.947,0,0,1-2.4-1.352,9.923,9.923,0,0,1-2.119-1.761,23.04,23.04,0,0,1,2.275,1.535,23,23,0,0,1,2.245,1.578" transform="translate(-74.325 -20.935)" fill="#263238"/>
              <path id="Trazado_755372" data-name="Trazado 755372" d="M161.859,131.192a9.736,9.736,0,0,1-4.107-4.642c.074-.041.74,1.2,1.88,2.475s2.276,2.1,2.227,2.167" transform="translate(-74.524 -59.785)" fill="#263238"/>
              <path id="Trazado_755373" data-name="Trazado 755373" d="M208.123,127.326a29.765,29.765,0,0,1-4.294,3.774,29.841,29.841,0,0,1,4.294-3.774" transform="translate(-96.293 -60.151)" fill="#263238"/>
              <path id="Trazado_755374" data-name="Trazado 755374" d="M161.957,247.519c.044.067-.919.765-2.011,1.735s-1.907,1.837-1.968,1.785a11.622,11.622,0,0,1,3.979-3.52" transform="translate(-74.632 -116.933)" fill="#263238"/>
              <path id="Trazado_755375" data-name="Trazado 755375" d="M207.671,250.665a24.949,24.949,0,0,1-3.839-3.545,25.02,25.02,0,0,1,3.839,3.545" transform="translate(-96.295 -116.744)" fill="#263238"/>
              <path id="Trazado_755376" data-name="Trazado 755376" d="M162.268,292.629a41.522,41.522,0,0,1-4.675-4.867,41.419,41.419,0,0,1,4.675,4.867" transform="translate(-74.45 -135.946)" fill="#263238"/>
              <path id="Trazado_755377" data-name="Trazado 755377" d="M208.322,287.366a37.574,37.574,0,0,1-4.629,4.459,37.675,37.675,0,0,1,4.629-4.459" transform="translate(-96.229 -135.758)" fill="#263238"/>
              <path id="Trazado_755378" data-name="Trazado 755378" d="M161.386,406.593a26.453,26.453,0,0,1-3.614,3.994,26.453,26.453,0,0,1,3.614-3.994" transform="translate(-74.534 -192.084)" fill="#263238"/>
              <path id="Trazado_755379" data-name="Trazado 755379" d="M208.013,410.758a16.69,16.69,0,0,1-4.168-3.905,142.868,142.868,0,0,1,4.168,3.905" transform="translate(-96.3 -192.207)" fill="#263238"/>
            </g>
          </g>
          <rect id="Rectángulo_360289" data-name="Rectángulo 360289" width="64.711" height="46.522" transform="translate(104.382 181.784)" fill="#f0dcc0"/>
          <g id="Grupo_1023325" data-name="Grupo 1023325">
            <g id="Grupo_1023324" data-name="Grupo 1023324" clip-path="url(#clip-path-2)">
              <path id="Trazado_755380" data-name="Trazado 755380" d="M226.464,344.566c.092,0,0,9.822,0,9.822h-4.79v-9.822Z" transform="translate(-104.725 -162.782)" fill="#263238"/>
              <g id="Grupo_1023323" data-name="Grupo 1023323" transform="translate(136.738 181.784)" opacity="0.4">
                <g id="Grupo_1023322" data-name="Grupo 1023322">
                  <g id="Grupo_1023321" data-name="Grupo 1023321" clip-path="url(#clip-path-14)">
                    <rect id="Rectángulo_360290" data-name="Rectángulo 360290" width="32.356" height="46.522" transform="translate(0 0)" fill="#bfaf99"/>
                  </g>
                </g>
              </g>
              <rect id="Rectángulo_360292" data-name="Rectángulo 360292" width="8.662" height="6.13" transform="translate(106.355 219.198)" fill="#fafafa"/>
              <path id="Trazado_755381" data-name="Trazado 755381" d="M210.257,421.615h-8.689v-6.157h8.689Zm-8.663-.027h8.636v-6.1h-8.636Z" transform="translate(-95.226 -196.273)" fill="#263238"/>
              <rect id="Rectángulo_360293" data-name="Rectángulo 360293" width="4.331" height="6.13" transform="translate(116.616 219.198)" fill="#fafafa"/>
              <path id="Trazado_755382" data-name="Trazado 755382" d="M225.376,421.615h-4.358v-6.157h4.358Zm-4.331-.027h4.3v-6.1h-4.3Z" transform="translate(-104.415 -196.273)" fill="#263238"/>
            </g>
          </g>
        </g>
      </g>
    </g>
    <g id="Grupo_1023328" data-name="Grupo 1023328" transform="translate(-8501.504 308.455)">
      <g id="Grupo_1022381" data-name="Grupo 1022381" clip-path="url(#clip-path-15)">
        <path id="Trazado_751235" data-name="Trazado 751235" d="M305.317,0H284.758a2.711,2.711,0,0,0-2.63,2.054L256.794,103.511l1.865,0L283.785,2.888a1.277,1.277,0,0,1,1.239-.967h20.293a.96.96,0,1,0,0-1.92" transform="translate(-221.746)" fill="#12263f"/>
        <path id="Trazado_751236" data-name="Trazado 751236" d="M841.8.613H821.211a2.711,2.711,0,0,0-2.63,2.054L793.247,104.124l1.865,0L820.239,3.5a1.277,1.277,0,0,1,1.239-.967H841.8a.96.96,0,0,0,0-1.92" transform="translate(-684.982 -0.529)" fill="#12263f"/>
        <path id="Trazado_751237" data-name="Trazado 751237" d="M321.12,730.541c-.042-3.917-1.536-8.4-5.471-9.784-1.807-.412-3.717-.122-5.56-.191-4.879-.713-8.362,3.6-8.459,9.975.1,6.374,3.579,10.687,8.459,9.975,1.843-.068,3.753.221,5.56-.191,3.908-1.33,5.455-5.949,5.471-9.784" transform="translate(-260.463 -622.154)" fill="#12263f"/>
        <path id="Trazado_751238" data-name="Trazado 751238" d="M70.641,726.624c-.886-2.739-3.05-5.643-6.176-5.657-1.955.009-3.982.005-5.9,0-3.77.089-6.8,4.616-6.738,10.151.065,5.459,3.115,9.851,6.9,9.821q2.869-.011,5.74,0c4.78-.217,6.877-5.813,6.852-9.987a13.839,13.839,0,0,0-.676-4.33" transform="translate(-44.754 -622.567)" fill="#12263f"/>
        <rect id="Rectángulo_358193" data-name="Rectángulo 358193" width="49.278" height="60.758" transform="translate(73.152 44.218)" fill="#bfaf99"/>
        <rect id="Rectángulo_358194" data-name="Rectángulo 358194" width="5.838" height="6.928" transform="translate(99.349 44.218)" fill="#fdf1e6"/>
        <path id="Trazado_751245" data-name="Trazado 751245" d="M0,0H74.247V60.758H0Z" transform="translate(7.073 44.218)" fill="#f0dcc0"/>
        <rect id="Rectángulo_358196" data-name="Rectángulo 358196" width="8.796" height="6.928" transform="translate(39.799 44.218)" fill="#fdf1e6"/>
        <rect id="Rectángulo_358197" data-name="Rectángulo 358197" width="129.503" height="3.465" transform="translate(0 104.443)" fill="#727997"/>
        <rect id="Rectángulo_358198" data-name="Rectángulo 358198" width="64.752" height="3.465" transform="translate(0 104.443)" fill="#12263f"/>
        <path id="Trazado_751239" data-name="Trazado 751239" d="M787.511,720.517q-2.25.012-4.5,0c-10.184-1.446-10.772,19.647-1.285,19.974q2.25-.012,4.5,0c10.184,1.446,10.772-19.647,1.286-19.974" transform="translate(-669.204 -622.118)" fill="#12263f"/>
        <path id="Trazado_751240" data-name="Trazado 751240" d="M830.328,731.774c-.178,13.144-13.527,13.143-13.7,0,.178-13.144,13.527-13.142,13.7,0" transform="translate(-705.169 -623.387)" fill="#b0c0d2"/>
        <path id="Trazado_751241" data-name="Trazado 751241" d="M853.738,770.111c-.064,5.064-4.851,5.064-4.914,0,.064-5.064,4.851-5.064,4.914,0" transform="translate(-732.974 -661.725)" fill="#12263f"/>
        <rect id="Rectángulo_358200" data-name="Rectángulo 358200" width="0.702" height="9.892" transform="translate(24.76 90.114)" fill="#263238"/>
        <rect id="Rectángulo_358201" data-name="Rectángulo 358201" width="0.702" height="9.892" transform="translate(23.077 90.114)" fill="#263238"/>
        <rect id="Rectángulo_358202" data-name="Rectángulo 358202" width="0.701" height="9.892" transform="translate(21.393 90.114)" fill="#263238"/>
        <rect id="Rectángulo_358203" data-name="Rectángulo 358203" width="0.702" height="9.892" transform="translate(19.709 90.114)" fill="#263238"/>
        <rect id="Rectángulo_358204" data-name="Rectángulo 358204" width="0.702" height="9.892" transform="translate(18.026 90.114)" fill="#263238"/>
        <rect id="Rectángulo_358205" data-name="Rectángulo 358205" width="0.702" height="9.892" transform="translate(16.344 90.114)" fill="#263238"/>
        <rect id="Rectángulo_358206" data-name="Rectángulo 358206" width="0.702" height="9.892" transform="translate(14.66 90.114)" fill="#263238"/>
        <rect id="Rectángulo_358207" data-name="Rectángulo 358207" width="0.702" height="9.892" transform="translate(12.977 90.114)" fill="#263238"/>
        <rect id="Rectángulo_358208" data-name="Rectángulo 358208" width="0.702" height="9.892" transform="translate(11.293 90.114)" fill="#263238"/>
        <path id="Trazado_751246" data-name="Trazado 751246" d="M209.7,137.888l-2.7.751h6.336l-2.7-.76v-3.636c1.932-.253,2.7-2.159,2.7-5.492H207c0,3.324.767,5.239,2.7,5.492Z" transform="translate(-177.353 -38.634)" fill="#263238"/>
        <path id="Trazado_751247" data-name="Trazado 751247" d="M215.082,133.8h1.654v4.842h4.235V133.8h1.661l-3.779-5.045Z" transform="translate(-177.624 -38.634)" fill="#263238"/>
        <g id="Grupo_1022383" data-name="Grupo 1022383" transform="translate(6.463 90.99)" opacity="0.1">
          <g id="Grupo_1019470" data-name="Grupo 1019470" transform="translate(0 0)">
            <g id="Grupo_1019469" data-name="Grupo 1019469" clip-path="url(#clip-path-16)">
              <path id="Trazado_747756" data-name="Trazado 747756" d="M183.014,143.162v-4.737l74.936-8.77v13.5Z" transform="translate(-183.014 -129.655)"/>
            </g>
          </g>
        </g>
        <path id="Trazado_751248" data-name="Trazado 751248" d="M537.707,720.517q-2.251.012-4.5,0c-10.184-1.446-10.772,19.647-1.286,19.974q2.25-.012,4.5,0c10.184,1.446,10.772-19.647,1.286-19.974" transform="translate(-453.494 -622.118)" fill="#12263f"/>
        <path id="Trazado_751249" data-name="Trazado 751249" d="M580.524,731.774c-.178,13.144-13.527,13.143-13.7,0,.178-13.144,13.527-13.142,13.7,0" transform="translate(-489.459 -623.387)" fill="#b0c0d2"/>
        <path id="Trazado_751250" data-name="Trazado 751250" d="M603.934,770.111c-.064,5.064-4.851,5.064-4.914,0,.064-5.064,4.851-5.064,4.914,0" transform="translate(-517.264 -661.724)" fill="#12263f"/>
      </g>
    </g>
    <g id="Grupo_1023330" data-name="Grupo 1023330" transform="translate(-8416 211.734)">
      <g id="Grupo_1023329" data-name="Grupo 1023329" transform="translate(0 0)" clip-path="url(#clip-path-17)">
        <path id="Trazado_755383" data-name="Trazado 755383" d="M50.909,22.261H1.537A1.537,1.537,0,0,0,0,23.8V55.89a5.658,5.658,0,0,0,5.651,5.651H41.034a1.536,1.536,0,0,0,1.086-.451L52,51.216a1.538,1.538,0,0,0,.449-1.087V23.8a1.537,1.537,0,0,0-1.537-1.537" transform="translate(0 -9.095)" fill="#e8e8e8"/>
        <path id="Trazado_755384" data-name="Trazado 755384" d="M46.794,5.566H5.65A5.657,5.657,0,0,0,0,11.217v5.759H52.445V11.217a5.658,5.658,0,0,0-5.651-5.651" transform="translate(0 -2.274)" fill="#12263f"/>
        <path id="Trazado_755385" data-name="Trazado 755385" d="M26.581,9.656A1.537,1.537,0,0,1,25.044,8.12V1.537a1.537,1.537,0,1,1,3.073,0V8.12a1.536,1.536,0,0,1-1.537,1.537" transform="translate(-10.232 0)" fill="#fefbfa"/>
        <path id="Trazado_755386" data-name="Trazado 755386" d="M15.45,9.656A1.536,1.536,0,0,1,13.913,8.12V1.537a1.537,1.537,0,1,1,3.073,0V8.12A1.537,1.537,0,0,1,15.45,9.656" transform="translate(-5.685 0)" fill="#fefbfa"/>
        <path id="Trazado_755387" data-name="Trazado 755387" d="M48.843,9.656A1.536,1.536,0,0,1,47.306,8.12V1.537a1.537,1.537,0,0,1,3.073,0V8.12a1.537,1.537,0,0,1-1.537,1.537" transform="translate(-19.328 0)" fill="#fefbfa"/>
        <path id="Trazado_755388" data-name="Trazado 755388" d="M37.712,9.656A1.537,1.537,0,0,1,36.175,8.12V1.537a1.537,1.537,0,0,1,3.073,0V8.12a1.536,1.536,0,0,1-1.537,1.537" transform="translate(-14.78 0)" fill="#fefbfa"/>
        <path id="Trazado_755389" data-name="Trazado 755389" d="M71.1,9.656A1.537,1.537,0,0,1,69.567,8.12V1.537a1.537,1.537,0,1,1,3.073,0V8.12A1.536,1.536,0,0,1,71.1,9.656" transform="translate(-28.424 0)" fill="#fefbfa"/>
        <path id="Trazado_755390" data-name="Trazado 755390" d="M59.974,9.656A1.536,1.536,0,0,1,58.437,8.12V1.537a1.537,1.537,0,1,1,3.073,0V8.12a1.536,1.536,0,0,1-1.537,1.537" transform="translate(-23.876 0)" fill="#fefbfa"/>
        <path id="Trazado_755391" data-name="Trazado 755391" d="M26.581,39.248a1.535,1.535,0,1,1,1.087-.449,1.549,1.549,0,0,1-1.087.449" transform="translate(-10.232 -14.78)" fill="#57dbd8"/>
        <path id="Trazado_755392" data-name="Trazado 755392" d="M37.712,39.248A1.535,1.535,0,1,1,38.8,38.8a1.549,1.549,0,0,1-1.087.449" transform="translate(-14.78 -14.78)" fill="#57dbd8"/>
        <path id="Trazado_755393" data-name="Trazado 755393" d="M48.843,39.248a1.536,1.536,0,1,1,1.086-.449,1.547,1.547,0,0,1-1.086.449" transform="translate(-19.328 -14.78)" fill="#393d68"/>
        <path id="Trazado_755394" data-name="Trazado 755394" d="M59.973,39.248A1.535,1.535,0,1,1,61.06,38.8a1.549,1.549,0,0,1-1.087.449" transform="translate(-23.876 -14.78)" fill="#393d68"/>
        <path id="Trazado_755395" data-name="Trazado 755395" d="M71.1,39.248a1.535,1.535,0,1,1,1.087-.449,1.549,1.549,0,0,1-1.087.449" transform="translate(-28.424 -14.78)" fill="#393d68"/>
        <path id="Trazado_755396" data-name="Trazado 755396" d="M15.45,50.379a1.538,1.538,0,1,1,1.086-.45,1.546,1.546,0,0,1-1.086.45" transform="translate(-5.684 -19.328)" fill="#393d68"/>
        <path id="Trazado_755397" data-name="Trazado 755397" d="M26.581,50.379a1.536,1.536,0,1,1,1.087-.45,1.545,1.545,0,0,1-1.087.45" transform="translate(-10.232 -19.328)" fill="#393d68"/>
        <path id="Trazado_755398" data-name="Trazado 755398" d="M37.712,50.379a1.536,1.536,0,1,1,1.087-.45,1.547,1.547,0,0,1-1.087.45" transform="translate(-14.78 -19.328)" fill="#393d68"/>
        <path id="Trazado_755399" data-name="Trazado 755399" d="M48.843,50.379a1.537,1.537,0,1,1,1.086-.45,1.545,1.545,0,0,1-1.086.45" transform="translate(-19.328 -19.328)" fill="#393d68"/>
        <path id="Trazado_755400" data-name="Trazado 755400" d="M15.451,61.509a1.537,1.537,0,1,1,1.086-.449,1.548,1.548,0,0,1-1.086.449" transform="translate(-5.685 -23.876)" fill="#393d68"/>
        <path id="Trazado_755401" data-name="Trazado 755401" d="M26.581,61.509a1.535,1.535,0,1,1,1.087-.449,1.547,1.547,0,0,1-1.087.449" transform="translate(-10.232 -23.876)" fill="#393d68"/>
        <path id="Trazado_755402" data-name="Trazado 755402" d="M37.712,61.509A1.535,1.535,0,1,1,38.8,61.06a1.547,1.547,0,0,1-1.087.449" transform="translate(-14.78 -23.876)" fill="#393d68"/>
        <path id="Trazado_755403" data-name="Trazado 755403" d="M15.449,72.64a1.538,1.538,0,1,1,1.087-.449,1.549,1.549,0,0,1-1.087.449" transform="translate(-5.685 -28.424)" fill="#393d68"/>
        <path id="Trazado_755404" data-name="Trazado 755404" d="M26.581,72.64a1.535,1.535,0,1,1,1.087-.449,1.547,1.547,0,0,1-1.087.449" transform="translate(-10.232 -28.424)" fill="#393d68"/>
        <path id="Trazado_755405" data-name="Trazado 755405" d="M37.712,72.64a1.535,1.535,0,1,1,1.087-.449,1.547,1.547,0,0,1-1.087.449" transform="translate(-14.78 -28.424)" fill="#393d68"/>
        <path id="Trazado_755406" data-name="Trazado 755406" d="M72.435,62.561a9.875,9.875,0,1,1-9.874-9.874,9.875,9.875,0,0,1,9.874,9.874" transform="translate(-21.526 -21.527)" fill="#91b3fa"/>
        <path id="Trazado_755407" data-name="Trazado 755407" d="M61.5,72.911A11.411,11.411,0,1,1,72.91,61.5,11.423,11.423,0,0,1,61.5,72.911m0-19.749A8.338,8.338,0,1,0,69.837,61.5,8.347,8.347,0,0,0,61.5,53.161" transform="translate(-20.465 -20.465)" fill="#393d68"/>
        <path id="Trazado_755408" data-name="Trazado 755408" d="M71.612,67.584H68.321a1.537,1.537,0,0,1-1.537-1.537V62.757a1.537,1.537,0,0,1,3.073,0v1.755h1.755a1.537,1.537,0,0,1,0,3.073" transform="translate(-27.287 -25.013)" fill="#fefbfa"/>
      </g>
    </g>
  </g>
</svg>
