<svg xmlns="http://www.w3.org/2000/svg" xmlns:xlink="http://www.w3.org/1999/xlink" width="93" height="94" viewBox="0 0 93 94">
  <defs>
    <clipPath id="clip-path">
      <rect id="Rectángulo_358608" data-name="Rectángulo 358608" width="55.863" height="61.957" fill="#12263f"/>
    </clipPath>
  </defs>
  <g id="Grupo_1023662" data-name="Grupo 1023662" transform="translate(0.275 -0.334)">
    <ellipse id="Elipse_4870" data-name="Elipse 4870" cx="46.5" cy="47" rx="46.5" ry="47" transform="translate(-0.275 0.334)" fill="#91b3fa"/>
    <g id="Grupo_1022770" data-name="Grupo 1022770" transform="translate(23.253 13.537)">
      <g id="Grupo_1022769" data-name="Grupo 1022769" clip-path="url(#clip-path)">
        <path id="Trazado_752480" data-name="Trazado 752480" d="M0,10.594c.083-.263.166-.526.25-.788A5.155,5.155,0,0,1,5.041,6.213c1.054-.023,2.109,0,3.192,0,.167-.867.747-1.05,1.528-1.045,3.512.022,7.024.01,10.64.01A3.435,3.435,0,0,1,19.7,2.605,3.1,3.1,0,0,1,24.928.887c1.132,1.111,1.221,2.546.2,4.286h.714q5.01,0,10.021,0c.9,0,1.1.14,1.444,1.033,1.017,0,2.051-.014,3.083,0a5.127,5.127,0,0,1,5.122,5.09c.029,6.086.01,12.173.009,18.259,0,.085-.016.17-.03.3H43.449v-.775q0-8.678,0-17.356a3.136,3.136,0,0,0-3.49-3.459H37.281v2.067c.361,0,.7-.012,1.038,0A2.021,2.021,0,0,1,40.332,12.3c.02,5.785.009,11.57.007,17.355a1,1,0,0,1-.056.214H38.277V12.44h-1a3.136,3.136,0,0,1-2.5,2.977,4.492,4.492,0,0,1-1.026.077q-10.861.006-21.722,0c-2.344,0-3.332-.79-3.816-3.072H7.284V55.736H32.009v2.09H7.666c-1.721,0-2.493-.764-2.493-2.467,0-14.151.017-28.3-.022-42.453-.005-1.778,1.088-2.753,2.6-2.573a4.414,4.414,0,0,0,.483,0V8.3c-1.175,0-2.339-.084-3.487.021a3.016,3.016,0,0,0-2.675,3.063c-.016,2.366,0,4.731,0,7.1q0,18.936,0,37.872c0,2.33,1.211,3.543,3.536,3.543H40.346v2.065H4.4a16.5,16.5,0,0,1-2.2-.977A5.306,5.306,0,0,1,0,57.568V10.594M10.345,7.259c0,1.611,0,3.155,0,4.7,0,1.177.3,1.474,1.5,1.474H27.087c2.283,0,4.566,0,6.848,0,.848,0,1.224-.378,1.236-1.215.009-.645,0-1.29,0-1.934V7.259ZM23.789,3.121a1.03,1.03,0,1,0-1.026,1.016,1.037,1.037,0,0,0,1.026-1.016" transform="translate(0 0.001)" fill="#12263f"/>
        <path id="Trazado_752481" data-name="Trazado 752481" d="M251.01,262.271c-.258,1.057-.433,2.142-.789,3.165a13.4,13.4,0,1,1,.67-6.174,2.987,2.987,0,0,0,.119.428Zm-13.433,10.065a11.356,11.356,0,1,0-11.393-11.356,11.4,11.4,0,0,0,11.393,11.356" transform="translate(-195.147 -215.543)" fill="#12263f"/>
        <path id="Trazado_752482" data-name="Trazado 752482" d="M87.989,268.7c0-1.312-.006-2.624,0-3.936.006-.844.38-1.221,1.226-1.223q3.943-.01,7.887,0c.845,0,1.224.38,1.226,1.223q.01,3.935,0,7.871c0,.842-.383,1.222-1.227,1.224q-3.943.01-7.887,0c-.844,0-1.22-.381-1.225-1.224-.009-1.312,0-2.624,0-3.936m2.1,3.053h6.127v-6.116H90.086Z" transform="translate(-76.609 -229.462)" fill="#12263f"/>
        <path id="Trazado_752483" data-name="Trazado 752483" d="M95.213,151.818v2.028H90.1v6.187h6.133v-1.986h2.092c0,1.055.036,2.1-.014,3.147a.95.95,0,0,1-1.043.932q-4.1.017-8.205,0a1,1,0,0,1-1.068-1.114q-.016-4.03,0-8.06c0-.65.344-1.112.919-1.121,2.083-.03,4.167-.012,6.3-.012" transform="translate(-76.606 -132.181)" fill="#12263f"/>
        <path id="Trazado_752484" data-name="Trazado 752484" d="M106.557,157.438l1.47-1.332,2.233,2.292,4.487-4.512,1.447,1.573-3.151,3.139c-.624.622-1.239,1.254-1.876,1.863a.982.982,0,0,1-1.493.095c-1.051-1.01-2.064-2.06-3.118-3.118" transform="translate(-92.778 -133.987)" fill="#12263f"/>
        <rect id="Rectángulo_358606" data-name="Rectángulo 358606" width="8.194" height="1.987" transform="translate(25.893 22.758)" fill="#12263f"/>
        <rect id="Rectángulo_358607" data-name="Rectángulo 358607" width="8.194" height="1.987" transform="translate(25.893 26.888)" fill="#12263f"/>
        <path id="Trazado_752485" data-name="Trazado 752485" d="M272.3,295.488c1.982,0,3.965,0,5.947,0a2.087,2.087,0,0,1,2.294,2.276q.007,4.968,0,9.935a2.072,2.072,0,0,1-2.265,2.24q-6.012.007-12.024,0a2.077,2.077,0,0,1-2.259-2.245q-.008-4.967,0-9.935a2.077,2.077,0,0,1,2.3-2.27c2,0,4.008,0,6.012,0m-3.137,6.229H266.1v6.11h12.337v-6.1h-3.069c0,.232,0,.422,0,.613-.008,1.093-.327,1.408-1.433,1.41q-1.616,0-3.232,0c-1.25,0-1.53-.273-1.541-1.495,0-.167,0-.334,0-.534m4.093-4.113h-1.991v4.049h1.991Zm-7.159,1.971h3.016v-1.99h-3.016Zm9.321.012h3.019v-2.009h-3.019Z" transform="translate(-229.849 -257.277)" fill="#12263f"/>
      </g>
    </g>
  </g>
</svg>
