<svg xmlns="http://www.w3.org/2000/svg" xmlns:xlink="http://www.w3.org/1999/xlink" width="93" height="94" viewBox="0 0 93 94">
  <defs>
    <clipPath id="clip-path">
      <rect id="Rect치ngulo_358611" data-name="Rect치ngulo 358611" width="50.798" height="49.471" fill="#12263f"/>
    </clipPath>
  </defs>
  <g id="Grupo_1023664" data-name="Grupo 1023664" transform="translate(0.275 -0.334)">
    <ellipse id="Elipse_4870" data-name="Elipse 4870" cx="46.5" cy="47" rx="46.5" ry="47" transform="translate(-0.275 0.334)" fill="#91b3fa"/>
    <g id="Grupo_1022774" data-name="Grupo 1022774" transform="translate(22.892 20.117)">
      <g id="Grupo_1022773" data-name="Grupo 1022773" clip-path="url(#clip-path)">
        <path id="Trazado_752491" data-name="Trazado 752491" d="M0,49.466V0H41.3V19.646l.073.037,4.487-4.377L50.8,19.9c-.082.089-.147.166-.219.236q-4.5,4.374-9.015,8.742a.8.8,0,0,0-.264.638c.007,3.657,0,7.313.01,10.97a.76.76,0,0,1-.239.586q-4.034,4.081-8.053,8.177a.667.667,0,0,1-.524.222q-16.074-.008-32.147,0Zm21.726-5.588c.049-.165.072-.256.1-.344.813-2.285,1.631-4.569,2.435-6.858a1.8,1.8,0,0,1,.452-.733q6.992-6.81,13.975-13.63a.672.672,0,0,0,.221-.528q-.008-9.524,0-19.048c0-.3-.085-.37-.373-.37q-17.9.01-35.807.007c-.111,0-.222.013-.329.019V47.041h28.96c.011-.189.025-.357.03-.526.069-2.14.142-4.28.2-6.42.007-.272.074-.359.359-.357,2.2.012,4.41,0,6.614.012.254,0,.347-.056.346-.331-.01-2.533-.006-5.067-.007-7.6,0-.087-.014-.175-.026-.313-.13.119-.216.2-.3.275q-4.563,4.429-9.125,8.859a2.844,2.844,0,0,1-1.133.754c-1.3.422-2.561.952-3.838,1.438l-2.762,1.048M45.895,17.956,26.586,36.807l1.893,2.108L48.024,19.94l-2.13-1.984M33.374,45.381l-.067-.107,3.785-3.593c-.113-.013-.152-.022-.191-.022-1.059,0-2.119,0-3.178-.005-.216,0-.266.082-.27.28-.02.943-.053,1.885-.079,2.827-.006.207,0,.414,0,.621m-8.467-4.766,2.275-.867-1.408-1.57-.867,2.437" transform="translate(-0.001)" fill="#12263f"/>
        <path id="Trazado_752493" data-name="Trazado 752493" d="M222.875,89.878h2.793v2.464a16.513,16.513,0,0,1,1.659.212c.74.169,1.463.413,2.194.623.233.067.3.177.231.438-.252.9-.471,1.8-.7,2.705-.015.059-.038.117-.069.208-.236-.1-.457-.189-.679-.279a8.13,8.13,0,0,0-4.291-.594,2.565,2.565,0,0,0-.994.384,1.284,1.284,0,0,0-.156,2.072,4.73,4.73,0,0,0,1.111.724c.7.33,1.432.582,2.135.9a21.41,21.41,0,0,1,2.3,1.133,4.947,4.947,0,0,1,.547,7.851,6.761,6.761,0,0,1-3.118,1.487c-.231.047-.312.126-.308.367.015.856.006,1.713.006,2.593H222.75V110.51c-.6-.078-1.17-.134-1.73-.227a10.72,10.72,0,0,1-2.847-.869c-.233-.11-.3-.22-.23-.482.255-.918.482-1.844.72-2.767.018-.07.042-.138.073-.238.117.055.218.1.319.15a9.264,9.264,0,0,0,5.1,1.029,3.5,3.5,0,0,0,1.232-.378,1.514,1.514,0,0,0,.368-2.469,3.952,3.952,0,0,0-1.116-.767c-.689-.32-1.429-.533-2.122-.845a18.478,18.478,0,0,1-2.376-1.2,4.635,4.635,0,0,1,.022-7.786,7.128,7.128,0,0,1,2.445-1.03c.209-.046.274-.127.271-.335-.011-.793,0-1.587,0-2.421" transform="translate(-204.055 -84.161)" fill="#12263f"/>
        <path id="Trazado_752494" data-name="Trazado 752494" d="M74.358,512.756V510.4c.14-.006.264-.016.387-.016H89.684c.409,0,.409,0,.409.417,0,.643,0,1.287,0,1.951Z" transform="translate(-69.629 -477.925)" fill="#12263f"/>
        <rect id="Rect치ngulo_358610" data-name="Rect치ngulo 358610" width="15.712" height="2.328" transform="translate(4.727 36.766)" fill="#12263f"/>
        <path id="Trazado_752495" data-name="Trazado 752495" d="M74.356,652.794v-2.37H89.684c.407,0,.407,0,.408.418,0,.644,0,1.287,0,1.952Z" transform="translate(-69.627 -609.055)" fill="#12263f"/>
      </g>
    </g>
  </g>
</svg>
