<svg id="Grupo_1022570" data-name="Grupo 1022570" xmlns="http://www.w3.org/2000/svg" width="14.7" height="14.7" viewBox="0 0 14.7 14.7">
  <path id="Trazado_712721" data-name="Trazado 712721" d="M7.35,0A7.35,7.35,0,1,1,0,7.35,7.35,7.35,0,0,1,7.35,0Z" fill="#4adbd1"/>
  <path id="Trazado_231796" data-name="Trazado 231796" d="M168.492,198.232c1.192-1.193,2.332-2.342,3.482-3.483a.776.776,0,0,1,1.3.152.718.718,0,0,1-.132.864q-2.038,2.057-4.1,4.1a.74.74,0,0,1-1.112-.02q-.989-.962-1.952-1.951a.774.774,0,1,1,1.091-1.1c.474.459.927.939,1.418,1.44" transform="translate(-162.197 -189.934)" fill="#fff"/>
</svg>
