<svg xmlns="http://www.w3.org/2000/svg" xmlns:xlink="http://www.w3.org/1999/xlink" width="166.478" height="166" viewBox="0 0 166.478 166">
  <defs>
    <clipPath id="clip-path">
      <rect id="Rectángulo_360119" data-name="Rectángulo 360119" width="166.478" height="76.966" fill="none"/>
    </clipPath>
    <clipPath id="clip-path-3">
      <rect id="Rectángulo_360018" data-name="Rectángulo 360018" width="1.439" height="3.553" fill="none"/>
    </clipPath>
    <clipPath id="clip-path-5">
      <rect id="Rectángulo_360070" data-name="Rectángulo 360070" width="0.874" height="2.158" fill="none"/>
    </clipPath>
    <clipPath id="clip-path-8">
      <rect id="Rectángulo_360081" data-name="Rectángulo 360081" width="0.875" height="2.158" fill="none"/>
    </clipPath>
  </defs>
  <g id="Grupo_1017665" data-name="Grupo 1017665" transform="translate(-716.761 -9375)">
    <circle id="Elipse_8443" data-name="Elipse 8443" cx="83" cy="83" r="83" transform="translate(717 9375)" fill="#fff" opacity="0.45"/>
    <circle id="Elipse_8444" data-name="Elipse 8444" cx="67" cy="67" r="67" transform="translate(733 9391)" fill="#fff"/>
    <g id="Grupo_1023263" data-name="Grupo 1023263" transform="translate(716.761 9425.414)">
      <g id="Grupo_1023262" data-name="Grupo 1023262" clip-path="url(#clip-path)">
        <rect id="Rectángulo_359918" data-name="Rectángulo 359918" width="94.674" height="49.227" transform="translate(67.817 12.507)" fill="#cfdfe0"/>
        <rect id="Rectángulo_359919" data-name="Rectángulo 359919" width="92.436" height="4.837" transform="translate(70.055 12.869)" fill="#95a5a6"/>
        <rect id="Rectángulo_359920" data-name="Rectángulo 359920" width="92.436" height="3.901" transform="translate(74.042 12.549)" fill="#2c535e"/>
        <path id="Trazado_755151" data-name="Trazado 755151" d="M92.109,22.219V68.742H4.39V22.219L48.249,4.165Z" transform="translate(0.745 0.707)" fill="#deeff0"/>
        <path id="Trazado_755152" data-name="Trazado 755152" d="M92.109,22.219v4.226L48.233,8.184,4.39,27.083V22.219L48.249,4.165Z" transform="translate(0.745 0.707)" fill="#a5b5b6"/>
        <rect id="Rectángulo_359921" data-name="Rectángulo 359921" width="60.738" height="38.548" transform="translate(18.626 30.901)" fill="#2c545e"/>
        <rect id="Rectángulo_359922" data-name="Rectángulo 359922" width="41.007" height="33.399" transform="translate(107.734 28.336)" fill="#213f47"/>
        <rect id="Rectángulo_359923" data-name="Rectángulo 359923" width="62.732" height="10.234" transform="translate(17.623 30.9)" fill="#e0e0e0"/>
        <rect id="Rectángulo_359924" data-name="Rectángulo 359924" width="62.732" height="0.557" transform="translate(17.623 37.122)" fill="silver"/>
        <rect id="Rectángulo_359925" data-name="Rectángulo 359925" width="62.732" height="0.557" transform="translate(17.623 34.197)" fill="silver"/>
        <rect id="Rectángulo_359926" data-name="Rectángulo 359926" width="65.789" height="1.993" transform="translate(16.1 29.904)" fill="#b5c5c6"/>
        <rect id="Rectángulo_359927" data-name="Rectángulo 359927" width="65.789" height="1.993" transform="translate(16.1 28.908)" fill="#e8f9fa"/>
        <rect id="Rectángulo_359928" data-name="Rectángulo 359928" width="41.365" height="6.778" transform="translate(107.624 21.837)" fill="#e0e0e0"/>
        <rect id="Rectángulo_359929" data-name="Rectángulo 359929" width="41.365" height="0.557" transform="translate(107.624 28.058)" fill="silver"/>
        <rect id="Rectángulo_359930" data-name="Rectángulo 359930" width="41.365" height="0.557" transform="translate(107.624 25.134)" fill="silver"/>
        <rect id="Rectángulo_359931" data-name="Rectángulo 359931" width="43.38" height="1.993" transform="translate(106.62 20.841)" fill="#b5c5c6"/>
        <rect id="Rectángulo_359932" data-name="Rectángulo 359932" width="43.38" height="1.993" transform="translate(106.62 19.844)" fill="#deeff0"/>
        <rect id="Rectángulo_359933" data-name="Rectángulo 359933" width="2.919" height="2.919" transform="translate(62.168 52.868)" fill="#213f47"/>
        <rect id="Rectángulo_359934" data-name="Rectángulo 359934" width="2.917" height="2.919" transform="translate(65.164 52.868)" fill="#213f47"/>
        <rect id="Rectángulo_359935" data-name="Rectángulo 359935" width="2.919" height="2.919" transform="translate(68.158 52.868)" fill="#213f47"/>
        <rect id="Rectángulo_359936" data-name="Rectángulo 359936" width="2.919" height="2.917" transform="translate(62.168 55.9)" fill="#213f47"/>
        <rect id="Rectángulo_359937" data-name="Rectángulo 359937" width="2.917" height="2.917" transform="translate(65.164 55.9)" fill="#213f47"/>
        <rect id="Rectángulo_359938" data-name="Rectángulo 359938" width="2.919" height="2.917" transform="translate(68.158 55.9)" fill="#213f47"/>
        <rect id="Rectángulo_359939" data-name="Rectángulo 359939" width="2.919" height="2.919" transform="translate(62.168 46.808)" fill="#213f47"/>
        <rect id="Rectángulo_359940" data-name="Rectángulo 359940" width="2.917" height="2.919" transform="translate(65.164 46.808)" fill="#213f47"/>
        <rect id="Rectángulo_359941" data-name="Rectángulo 359941" width="2.919" height="2.919" transform="translate(68.158 46.808)" fill="#213f47"/>
        <rect id="Rectángulo_359942" data-name="Rectángulo 359942" width="2.919" height="2.919" transform="translate(62.168 49.84)" fill="#213f47"/>
        <rect id="Rectángulo_359943" data-name="Rectángulo 359943" width="2.917" height="2.919" transform="translate(65.164 49.84)" fill="#213f47"/>
        <rect id="Rectángulo_359944" data-name="Rectángulo 359944" width="2.919" height="2.919" transform="translate(68.158 49.84)" fill="#213f47"/>
        <rect id="Rectángulo_359945" data-name="Rectángulo 359945" width="2.919" height="2.919" transform="translate(62.168 59.114)" fill="#213f47"/>
        <rect id="Rectángulo_359946" data-name="Rectángulo 359946" width="2.917" height="2.919" transform="translate(65.164 59.114)" fill="#213f47"/>
        <rect id="Rectángulo_359947" data-name="Rectángulo 359947" width="2.919" height="2.919" transform="translate(68.158 59.114)" fill="#213f47"/>
        <rect id="Rectángulo_359948" data-name="Rectángulo 359948" width="2.919" height="2.919" transform="translate(62.168 62.146)" fill="#213f47"/>
        <rect id="Rectángulo_359949" data-name="Rectángulo 359949" width="2.917" height="2.919" transform="translate(65.164 62.146)" fill="#213f47"/>
        <rect id="Rectángulo_359950" data-name="Rectángulo 359950" width="2.919" height="2.919" transform="translate(68.158 62.146)" fill="#213f47"/>
        <rect id="Rectángulo_359951" data-name="Rectángulo 359951" width="4.326" height="3.744" transform="translate(19.946 51.475)" fill="#213f47"/>
        <rect id="Rectángulo_359952" data-name="Rectángulo 359952" width="4.326" height="3.744" transform="translate(24.384 51.475)" fill="#213f47"/>
        <rect id="Rectángulo_359953" data-name="Rectángulo 359953" width="4.326" height="3.744" transform="translate(28.824 51.475)" fill="#213f47"/>
        <rect id="Rectángulo_359954" data-name="Rectángulo 359954" width="4.326" height="3.744" transform="translate(19.946 55.365)" fill="#213f47"/>
        <rect id="Rectángulo_359955" data-name="Rectángulo 359955" width="4.326" height="3.744" transform="translate(24.384 55.365)" fill="#213f47"/>
        <rect id="Rectángulo_359956" data-name="Rectángulo 359956" width="4.326" height="3.744" transform="translate(28.824 55.365)" fill="#213f47"/>
        <rect id="Rectángulo_359957" data-name="Rectángulo 359957" width="4.326" height="3.744" transform="translate(19.946 43.697)" fill="#213f47"/>
        <rect id="Rectángulo_359958" data-name="Rectángulo 359958" width="4.326" height="3.744" transform="translate(24.384 43.697)" fill="#213f47"/>
        <rect id="Rectángulo_359959" data-name="Rectángulo 359959" width="4.326" height="3.744" transform="translate(28.824 43.697)" fill="#213f47"/>
        <rect id="Rectángulo_359960" data-name="Rectángulo 359960" width="4.326" height="3.744" transform="translate(19.946 47.588)" fill="#213f47"/>
        <rect id="Rectángulo_359961" data-name="Rectángulo 359961" width="4.326" height="3.744" transform="translate(24.384 47.588)" fill="#213f47"/>
        <rect id="Rectángulo_359962" data-name="Rectángulo 359962" width="4.326" height="3.744" transform="translate(28.824 47.588)" fill="#213f47"/>
        <rect id="Rectángulo_359963" data-name="Rectángulo 359963" width="4.326" height="3.744" transform="translate(19.946 59.489)" fill="#213f47"/>
        <rect id="Rectángulo_359964" data-name="Rectángulo 359964" width="4.326" height="3.744" transform="translate(24.384 59.489)" fill="#213f47"/>
        <rect id="Rectángulo_359965" data-name="Rectángulo 359965" width="4.326" height="3.744" transform="translate(28.824 59.489)" fill="#213f47"/>
        <rect id="Rectángulo_359966" data-name="Rectángulo 359966" width="4.326" height="3.744" transform="translate(19.946 63.38)" fill="#213f47"/>
        <rect id="Rectángulo_359967" data-name="Rectángulo 359967" width="4.326" height="3.744" transform="translate(24.384 63.38)" fill="#213f47"/>
        <rect id="Rectángulo_359968" data-name="Rectángulo 359968" width="4.326" height="3.744" transform="translate(28.824 63.38)" fill="#213f47"/>
        <rect id="Rectángulo_359969" data-name="Rectángulo 359969" width="39.309" height="7.313" transform="translate(28.509 19.937)" fill="#469da7"/>
        <rect id="Rectángulo_359970" data-name="Rectángulo 359970" width="1.794" height="9.543" transform="translate(38.955 17.707)" fill="#deeff0"/>
        <rect id="Rectángulo_359971" data-name="Rectángulo 359971" width="1.794" height="9.543" transform="translate(55.103 17.707)" fill="#deeff0"/>
        <rect id="Rectángulo_359972" data-name="Rectángulo 359972" width="1.282" height="3.046" transform="translate(1.149 73.356)" fill="#ad7c5e"/>
        <rect id="Rectángulo_359973" data-name="Rectángulo 359973" width="1.282" height="3.046" transform="translate(7.668 73.356)" fill="#ad7c5e"/>
        <rect id="Rectángulo_359974" data-name="Rectángulo 359974" width="1.282" height="3.046" transform="translate(14.187 73.356)" fill="#ad7c5e"/>
        <rect id="Rectángulo_359975" data-name="Rectángulo 359975" width="1.282" height="3.046" transform="translate(20.706 73.356)" fill="#ad7c5e"/>
        <rect id="Rectángulo_359976" data-name="Rectángulo 359976" width="1.282" height="3.046" transform="translate(27.226 73.356)" fill="#ad7c5e"/>
        <rect id="Rectángulo_359977" data-name="Rectángulo 359977" width="29.656" height="1.127" transform="translate(0 72.793)" fill="#cd9c7d"/>
        <rect id="Rectángulo_359978" data-name="Rectángulo 359978" width="29.656" height="1.127" transform="translate(0 75.839)" fill="#cd9c7d"/>
        <rect id="Rectángulo_359979" data-name="Rectángulo 359979" width="0.75" height="1.779" transform="translate(94.953 63.943)" fill="#ad7c5e"/>
        <rect id="Rectángulo_359980" data-name="Rectángulo 359980" width="0.75" height="1.779" transform="translate(98.76 63.943)" fill="#ad7c5e"/>
        <rect id="Rectángulo_359981" data-name="Rectángulo 359981" width="0.75" height="1.779" transform="translate(102.569 63.943)" fill="#ad7c5e"/>
        <rect id="Rectángulo_359982" data-name="Rectángulo 359982" width="0.749" height="1.779" transform="translate(106.377 63.943)" fill="#ad7c5e"/>
        <rect id="Rectángulo_359983" data-name="Rectángulo 359983" width="0.749" height="1.779" transform="translate(110.184 63.943)" fill="#ad7c5e"/>
        <rect id="Rectángulo_359984" data-name="Rectángulo 359984" width="17.322" height="0.657" transform="translate(94.282 63.614)" fill="#cd9c7d"/>
        <rect id="Rectángulo_359985" data-name="Rectángulo 359985" width="17.322" height="0.657" transform="translate(94.282 65.393)" fill="#cd9c7d"/>
        <g id="Grupo_1023261" data-name="Grupo 1023261" transform="translate(0 0)">
          <g id="Grupo_1023260" data-name="Grupo 1023260" clip-path="url(#clip-path)">
            <rect id="Rectángulo_359986" data-name="Rectángulo 359986" width="29.034" height="25.659" rx="0.675" transform="translate(113.734 37.959)" fill="#ccc"/>
            <path id="Trazado_755153" data-name="Trazado 755153" d="M121.516,34.315H121.5l-.579-3.188a1.2,1.2,0,0,0-1.2-1.2H102.887a1.2,1.2,0,0,0-1.2,1.2l-.579,3.188h-.019a1.2,1.2,0,0,0-1.2,1.2V48.263a1.2,1.2,0,0,0,1.2,1.2h20.422a1.2,1.2,0,0,0,1.2-1.2V35.511a1.2,1.2,0,0,0-1.2-1.2" transform="translate(16.961 5.082)" fill="#fff"/>
            <path id="Rectángulo_359987" data-name="Rectángulo 359987" d="M1.021,0H20.1a1.021,1.021,0,0,1,1.021,1.021V6.249A1.022,1.022,0,0,1,20.1,7.271H1.022A1.022,1.022,0,0,1,0,6.249V1.021A1.021,1.021,0,0,1,1.021,0Z" transform="translate(117.707 41.59)" fill="#333"/>
            <path id="Trazado_755154" data-name="Trazado 755154" d="M114.412,30.7a.423.423,0,0,1-.423.423h-7.471a.423.423,0,0,1,0-.847h7.471a.423.423,0,0,1,.423.423" transform="translate(18.013 5.14)" fill="gray"/>
            <path id="Trazado_755155" data-name="Trazado 755155" d="M105.673,34.749a.473.473,0,0,1-.473.473h-1.825a.473.473,0,1,1,0-.945H105.2a.472.472,0,0,1,.473.473" transform="translate(17.471 5.82)" fill="#fbcb43"/>
            <path id="Trazado_755156" data-name="Trazado 755156" d="M111.236,34.749a.473.473,0,0,1-.473.473h-1.825a.473.473,0,1,1,0-.945h1.825a.472.472,0,0,1,.473.473" transform="translate(18.416 5.82)" fill="#fbcb43"/>
            <path id="Trazado_755157" data-name="Trazado 755157" d="M116.8,34.749a.472.472,0,0,1-.473.473H114.5a.473.473,0,1,1,0-.945h1.825a.471.471,0,0,1,.473.473" transform="translate(19.36 5.82)" fill="#fbcb43"/>
            <path id="Trazado_755158" data-name="Trazado 755158" d="M102.368,42.045a.9.9,0,1,1-1.81,0V37.48a.9.9,0,1,1,1.81,0Z" transform="translate(17.073 6.21)" fill="#666"/>
            <path id="Trazado_755159" data-name="Trazado 755159" d="M118.856,42.045a.905.905,0,0,1-1.811,0V37.48a.905.905,0,0,1,1.811,0Z" transform="translate(19.873 6.21)" fill="#666"/>
            <path id="Trazado_755160" data-name="Trazado 755160" d="M114.4,45.745a3.244,3.244,0,1,1,3.186-3.244,3.219,3.219,0,0,1-3.186,3.244m0-5.89A2.647,2.647,0,1,0,116.99,42.5a2.621,2.621,0,0,0-2.588-2.646" transform="translate(18.883 6.665)" fill="#4d4d4d"/>
            <path id="Trazado_755161" data-name="Trazado 755161" d="M123.631,47.354l-.047-.008c-.015-.009-.033-.015-.048-.023a1.2,1.2,0,0,0,.043-.305v-4.9a1.2,1.2,0,0,0-1.2-1.2H100.952a1.2,1.2,0,0,0-1.2,1.2v4.9a1.2,1.2,0,0,0,.026.244,1.193,1.193,0,0,0-.2.092c-1.027.215-1.827,1.865-1.827,3.873a6.859,6.859,0,0,0,.053.879,5.714,5.714,0,0,0,.1.58,1.192,1.192,0,0,0,1.082.682h25.238a1.192,1.192,0,0,0,1.082-.682c.016-.077.032-.158.046-.239.009-.04.014-.082.02-.124.011-.071.021-.143.03-.218a7.077,7.077,0,0,0,.053-.879c0-2.009-.8-3.658-1.828-3.873" transform="translate(16.598 6.947)" fill="#fff"/>
            <path id="Rectángulo_359988" data-name="Rectángulo 359988" d="M1.022,0H3.361A1.021,1.021,0,0,1,4.382,1.021V4.756A1.022,1.022,0,0,1,3.36,5.778H1.022A1.022,1.022,0,0,1,0,4.756V1.022A1.022,1.022,0,0,1,1.022,0Z" transform="translate(115.058 65.896)" fill="#1a1a1a"/>
            <path id="Rectángulo_359989" data-name="Rectángulo 359989" d="M1.022,0H3.361A1.022,1.022,0,0,1,4.383,1.022V4.756A1.022,1.022,0,0,1,3.361,5.778H1.021A1.021,1.021,0,0,1,0,4.757V1.022A1.022,1.022,0,0,1,1.022,0Z" transform="translate(136.973 65.896)" fill="#1a1a1a"/>
            <path id="Trazado_755162" data-name="Trazado 755162" d="M113.585,50.23a.5.5,0,0,1-.5.5H107.21a.5.5,0,1,1,0-1h5.875a.5.5,0,0,1,.5.5" transform="translate(18.118 8.444)" fill="#4d4d4d"/>
            <path id="Trazado_755163" data-name="Trazado 755163" d="M116.606,47.19a.941.941,0,0,1-.942.941H105.548a.941.941,0,0,1-.941-.941l-.6-3.372a.943.943,0,0,1,.942-.942h11.312a.943.943,0,0,1,.942.942Z" transform="translate(17.659 7.28)" fill="#a0a0a0"/>
            <path id="Trazado_755164" data-name="Trazado 755164" d="M106.272,50.535a.7.7,0,0,1-.663.49H99.655a.691.691,0,0,1-.67-.538,2.8,2.8,0,0,1,2.785-2.493c1.1,0,4.2.873,4.5,2.541" transform="translate(16.806 8.149)" fill="#ccc"/>
            <path id="Trazado_755165" data-name="Trazado 755165" d="M106.3,50.792a.694.694,0,0,1-.694.694H99.659a.692.692,0,0,1-.688-.694,2.443,2.443,0,0,1,.018-.305,2.8,2.8,0,0,1,2.785-2.493c1.1,0,4.2.873,4.5,2.541l.018.125a1.009,1.009,0,0,1,.012.132" transform="translate(16.804 8.149)" fill="#ccc"/>
            <path id="Trazado_755166" data-name="Trazado 755166" d="M114.325,50.535a.7.7,0,0,0,.663.49h5.953a.689.689,0,0,0,.669-.538,2.8,2.8,0,0,0-2.784-2.493c-1.1,0-4.2.873-4.5,2.541" transform="translate(19.411 8.149)" fill="#ccc"/>
            <path id="Trazado_755167" data-name="Trazado 755167" d="M114.3,50.792a.694.694,0,0,0,.693.694h5.953a.693.693,0,0,0,.688-.694,2.689,2.689,0,0,0-.018-.305,2.8,2.8,0,0,0-2.785-2.493c-1.1,0-4.2.873-4.5,2.541l-.018.125a1.009,1.009,0,0,0-.012.132" transform="translate(19.406 8.149)" fill="#ccc"/>
            <rect id="Rectángulo_359990" data-name="Rectángulo 359990" width="28.292" height="7.657" rx="1.022" transform="translate(114.12 60.231)" fill="#333"/>
            <path id="Trazado_755168" data-name="Trazado 755168" d="M125.276,54.845v.394a1.191,1.191,0,0,1-1.2,1.2H99.18a1.2,1.2,0,0,1-1.2-1.2v-.394a1.194,1.194,0,0,1,1.2-1.194h24.9a1.191,1.191,0,0,1,1.2,1.194" transform="translate(16.636 9.109)" fill="gray"/>
            <path id="Rectángulo_359991" data-name="Rectángulo 359991" d="M1.022,0H2.266A1.021,1.021,0,0,1,3.287,1.021V2.265A1.022,1.022,0,0,1,2.265,3.287H1.022A1.022,1.022,0,0,1,0,2.265V1.022A1.022,1.022,0,0,1,1.022,0Z" transform="translate(111.771 45.624)" fill="#404040"/>
            <path id="Trazado_755169" data-name="Trazado 755169" d="M101.332,44.534a.3.3,0,0,1-.283-.2l-.952-2.837a.287.287,0,0,1-.015-.095.65.65,0,0,0-.649-.649H97.506a.3.3,0,0,1,0-.6h1.925a1.248,1.248,0,0,1,1.245,1.2l.938,2.793a.3.3,0,0,1-.188.379.292.292,0,0,1-.095.015" transform="translate(16.504 6.817)" fill="#404040"/>
            <rect id="Rectángulo_359992" data-name="Rectángulo 359992" width="3.288" height="3.287" rx="1.022" transform="translate(141.446 45.624)" fill="#404040"/>
            <path id="Trazado_755170" data-name="Trazado 755170" d="M118.583,44.534a.3.3,0,0,1-.283-.394l.938-2.793a1.249,1.249,0,0,1,1.246-1.2h1.925a.3.3,0,0,1,0,.6h-1.925a.65.65,0,0,0-.65.649.287.287,0,0,1-.015.095l-.952,2.837a.3.3,0,0,1-.283.2" transform="translate(20.083 6.817)" fill="#404040"/>
            <path id="Trazado_755171" data-name="Trazado 755171" d="M102.341,54.875a.771.771,0,1,1-.772-.772.772.772,0,0,1,.772.772" transform="translate(17.114 9.186)" fill="#999"/>
            <path id="Trazado_755172" data-name="Trazado 755172" d="M101.612,55.989a1.071,1.071,0,1,1,1.07-1.07,1.072,1.072,0,0,1-1.07,1.07" transform="translate(17.071 9.143)" fill="#666"/>
            <path id="Trazado_755173" data-name="Trazado 755173" d="M118.725,54.875a.772.772,0,1,1-.772-.772.772.772,0,0,1,.772.772" transform="translate(19.896 9.186)" fill="#999"/>
            <path id="Trazado_755174" data-name="Trazado 755174" d="M118,55.989a1.071,1.071,0,1,1,1.07-1.07,1.073,1.073,0,0,1-1.07,1.07" transform="translate(19.852 9.143)" fill="#666"/>
            <path id="Trazado_755175" data-name="Trazado 755175" d="M118.42,53.651H103.1a1.251,1.251,0,0,0-.012.15c0,.64,1.117,1.152,1.751,1.152h3.38a.558.558,0,0,0,.54.729h4.007a.567.567,0,0,0,.567-.567.531.531,0,0,0-.027-.161h3.385c.633,0,1.745-.512,1.745-1.152a.639.639,0,0,0-.018-.15" transform="translate(17.503 9.109)" fill="#292929"/>
            <path id="Trazado_755176" data-name="Trazado 755176" d="M1.893,27,0,22.6,48.947,1.5,97.989,21.909l-1.837,4.417L48.981,6.692Z" transform="translate(0 0.254)" fill="#33616e"/>
            <rect id="Rectángulo_359993" data-name="Rectángulo 359993" width="1.833" height="3.337" transform="translate(134.985 9.17)" fill="#b5c5c6"/>
            <rect id="Rectángulo_359994" data-name="Rectángulo 359994" width="1.833" height="3.337" transform="translate(87.805 9.17)" fill="#b5c5c6"/>
            <rect id="Rectángulo_359995" data-name="Rectángulo 359995" width="1.833" height="3.337" transform="translate(111.395 9.17)" fill="#b5c5c6"/>
            <rect id="Rectángulo_359996" data-name="Rectángulo 359996" width="1.833" height="3.337" transform="translate(158.575 9.17)" fill="#b5c5c6"/>
            <rect id="Rectángulo_359997" data-name="Rectángulo 359997" width="81.762" height="10.367" transform="translate(83.226)" fill="#cfdfe0"/>
            <path id="Trazado_755177" data-name="Trazado 755177" d="M88.057,7.646H87.044l-.965-3.4c-.041-.147-.094-.36-.156-.64s-.1-.473-.113-.583q-.039.249-.126.647c-.058.264-.106.462-.146.592L84.6,7.646H83.582L82.846,4.8,82.1,1.954h.95l.814,3.318a14.3,14.3,0,0,1,.271,1.408c.03-.22.073-.467.129-.739s.11-.492.157-.662l.926-3.325h.923l.95,3.34a12.937,12.937,0,0,1,.288,1.386,10.089,10.089,0,0,1,.281-1.417L88.6,1.954h.944Z" transform="translate(13.939 0.332)" fill="#2c545e"/>
            <path id="Trazado_755178" data-name="Trazado 755178" d="M92.791,7.65l-.569-1.58H90.046l-.557,1.58h-.981l2.129-5.716H91.65L93.779,7.65Zm-.813-2.383-.533-1.55c-.04-.1-.094-.267-.163-.49s-.116-.387-.142-.49a8.888,8.888,0,0,1-.308,1.047l-.515,1.483Z" transform="translate(15.027 0.328)" fill="#2c545e"/>
            <path id="Trazado_755179" data-name="Trazado 755179" d="M94.587,5.372V7.646h-.93V1.954h1.608a2.655,2.655,0,0,1,1.631.412,1.484,1.484,0,0,1,.53,1.247,1.558,1.558,0,0,1-1.107,1.514l1.608,2.52H96.869L95.505,5.372Zm0-.771h.647a1.474,1.474,0,0,0,.942-.241.876.876,0,0,0,.292-.717.77.77,0,0,0-.316-.693,1.724,1.724,0,0,0-.95-.211h-.615Z" transform="translate(15.902 0.332)" fill="#2c545e"/>
            <path id="Trazado_755180" data-name="Trazado 755180" d="M101.233,7.646H98.014V1.954h3.219V2.74H98.944V4.289h2.145v.779H98.944V6.856h2.289Z" transform="translate(16.641 0.332)" fill="#2c545e"/>
            <path id="Trazado_755181" data-name="Trazado 755181" d="M106.56,7.646H105.42l-2.8-4.536h-.029l.019.254c.035.483.053.923.053,1.323v2.96h-.843V1.954h1.13l2.791,4.512h.022c0-.058-.014-.277-.03-.652s-.022-.668-.022-.879V1.954h.852Z" transform="translate(17.287 0.332)" fill="#2c545e"/>
            <path id="Trazado_755182" data-name="Trazado 755182" d="M111.646,7.646h-.933V5.081h-2.625V7.646h-.93V1.954h.93V4.282h2.625V1.954h.933Z" transform="translate(18.194 0.332)" fill="#2c545e"/>
            <path id="Trazado_755183" data-name="Trazado 755183" d="M117.371,4.8a3.113,3.113,0,0,1-.7,2.162,2.51,2.51,0,0,1-1.968.77,2.537,2.537,0,0,1-1.98-.764,3.135,3.135,0,0,1-.691-2.175,3.079,3.079,0,0,1,.7-2.165,2.558,2.558,0,0,1,1.984-.756,2.505,2.505,0,0,1,1.962.767,3.11,3.11,0,0,1,.694,2.161m-4.346,0A2.55,2.55,0,0,0,113.45,6.4a1.726,1.726,0,0,0,2.508.006,2.547,2.547,0,0,0,.423-1.6,2.56,2.56,0,0,0-.419-1.589,1.477,1.477,0,0,0-1.247-.542,1.51,1.51,0,0,0-1.265.542,2.529,2.529,0,0,0-.426,1.589" transform="translate(19.022 0.319)" fill="#2c545e"/>
            <path id="Trazado_755184" data-name="Trazado 755184" d="M122.111,1.954V5.636a2.2,2.2,0,0,1-.269,1.1,1.8,1.8,0,0,1-.784.728,2.7,2.7,0,0,1-1.224.256,2.3,2.3,0,0,1-1.648-.56,2.032,2.032,0,0,1-.588-1.543V1.954h.935v3.6a1.439,1.439,0,0,0,.329,1.04,1.344,1.344,0,0,0,1,.333q1.314,0,1.315-1.382V1.954Z" transform="translate(19.966 0.332)" fill="#2c545e"/>
            <path id="Trazado_755185" data-name="Trazado 755185" d="M126.037,6.113a1.437,1.437,0,0,1-.549,1.192,2.4,2.4,0,0,1-1.516.432,3.629,3.629,0,0,1-1.58-.3V6.556a4.41,4.41,0,0,0,.828.289,3.492,3.492,0,0,0,.815.1,1.292,1.292,0,0,0,.815-.209.686.686,0,0,0,.263-.565.708.708,0,0,0-.242-.542,3.634,3.634,0,0,0-1-.525,2.63,2.63,0,0,1-1.1-.721,1.524,1.524,0,0,1-.319-.973,1.363,1.363,0,0,1,.507-1.122,2.1,2.1,0,0,1,1.358-.408,3.991,3.991,0,0,1,1.627.358L125.656,3a3.557,3.557,0,0,0-1.355-.319,1.046,1.046,0,0,0-.685.2.646.646,0,0,0-.234.521.728.728,0,0,0,.094.379.941.941,0,0,0,.308.3,5.349,5.349,0,0,0,.77.371,4.185,4.185,0,0,1,.921.487,1.414,1.414,0,0,1,.427.509,1.53,1.53,0,0,1,.137.67" transform="translate(20.78 0.32)" fill="#2c545e"/>
            <path id="Trazado_755186" data-name="Trazado 755186" d="M129.669,7.646H126.45V1.954h3.219V2.74H127.38V4.289h2.145v.779H127.38V6.856h2.289Z" transform="translate(21.469 0.332)" fill="#2c545e"/>
            <rect id="Rectángulo_359998" data-name="Rectángulo 359998" width="13.1" height="8.07" transform="translate(96.188 55.455)" fill="#d7ba76"/>
            <rect id="Rectángulo_359999" data-name="Rectángulo 359999" width="5.624" height="2.53" transform="translate(96.767 60.43)" fill="#fcf7ea"/>
            <rect id="Rectángulo_360000" data-name="Rectángulo 360000" width="0.332" height="2.156" transform="translate(97.071 60.617)" fill="#354546"/>
            <rect id="Rectángulo_360001" data-name="Rectángulo 360001" width="0.112" height="2.156" transform="translate(97.606 60.617)" fill="#354546"/>
            <rect id="Rectángulo_360002" data-name="Rectángulo 360002" width="0.112" height="2.156" transform="translate(101.252 60.617)" fill="#354546"/>
            <rect id="Rectángulo_360003" data-name="Rectángulo 360003" width="0.333" height="2.156" transform="translate(98.141 60.617)" fill="#354546"/>
            <rect id="Rectángulo_360004" data-name="Rectángulo 360004" width="0.166" height="2.156" transform="translate(98.677 60.617)" fill="#354546"/>
            <rect id="Rectángulo_360005" data-name="Rectángulo 360005" width="0.166" height="2.156" transform="translate(97.86 60.617)" fill="#354546"/>
            <rect id="Rectángulo_360006" data-name="Rectángulo 360006" width="0.556" height="2.156" transform="translate(98.99 60.617)" fill="#354546"/>
            <rect id="Rectángulo_360007" data-name="Rectángulo 360007" width="0.333" height="2.156" transform="translate(100.809 60.617)" fill="#354546"/>
            <rect id="Rectángulo_360008" data-name="Rectángulo 360008" width="0.332" height="2.156" transform="translate(100.049 60.617)" fill="#354546"/>
            <rect id="Rectángulo_360009" data-name="Rectángulo 360009" width="0.167" height="2.156" transform="translate(99.746 60.617)" fill="#354546"/>
            <rect id="Rectángulo_360010" data-name="Rectángulo 360010" width="0.167" height="2.156" transform="translate(100.487 60.617)" fill="#354546"/>
            <rect id="Rectángulo_360011" data-name="Rectángulo 360011" width="0.549" height="2.156" transform="translate(101.445 60.617)" fill="#354546"/>
            <rect id="Rectángulo_360012" data-name="Rectángulo 360012" width="0.409" height="8.07" transform="translate(102.739 55.455)" fill="#b59d63"/>
            <rect id="Rectángulo_360013" data-name="Rectángulo 360013" width="13.1" height="1.852" transform="translate(96.188 55.454)" fill="#b59d63"/>
            <rect id="Rectángulo_360014" data-name="Rectángulo 360014" width="0.347" height="1.397" transform="translate(104.575 61.003)" fill="#b59d63"/>
            <path id="Trazado_755187" data-name="Trazado 755187" d="M89.1,52.411l.521-.9.521.9Z" transform="translate(15.128 8.746)" fill="#b59d63"/>
            <rect id="Rectángulo_360015" data-name="Rectángulo 360015" width="0.347" height="1.397" transform="translate(105.728 61.003)" fill="#b59d63"/>
            <path id="Trazado_755188" data-name="Trazado 755188" d="M90.085,52.411l.521-.9.521.9Z" transform="translate(15.295 8.746)" fill="#b59d63"/>
            <rect id="Rectángulo_360016" data-name="Rectángulo 360016" width="2.193" height="0.218" transform="translate(104.229 62.555)" fill="#b59d63"/>
            <g id="Grupo_1023220" data-name="Grupo 1023220" transform="translate(98.308 55.454)" style="mix-blend-mode: multiply;isolation: isolate">
              <g id="Grupo_1023219" data-name="Grupo 1023219">
                <g id="Grupo_1023218" data-name="Grupo 1023218" clip-path="url(#clip-path-3)">
                  <rect id="Rectángulo_360017" data-name="Rectángulo 360017" width="1.439" height="3.554" transform="translate(0.001 0)" fill="#b59d63"/>
                </g>
              </g>
            </g>
            <g id="Grupo_1023223" data-name="Grupo 1023223" transform="translate(105.461 55.454)" style="mix-blend-mode: multiply;isolation: isolate">
              <g id="Grupo_1023222" data-name="Grupo 1023222">
                <g id="Grupo_1023221" data-name="Grupo 1023221" clip-path="url(#clip-path-3)">
                  <rect id="Rectángulo_360019" data-name="Rectángulo 360019" width="1.439" height="3.554" transform="translate(0.001 0)" fill="#b59d63"/>
                </g>
              </g>
            </g>
            <path id="Trazado_755189" data-name="Trazado 755189" d="M54.548,51.216H48.869v7.6h-.4v-5.3a.224.224,0,0,0-.222-.223h-.218a.224.224,0,0,0-.1.025V49.983a.322.322,0,0,0-.321-.322H46.385a.323.323,0,0,0-.322.322v4.563H45.8L44.372,48.93a.619.619,0,0,0-.629-.553h-4.82a.617.617,0,0,0-.632.6v3.93a.25.25,0,0,0-.032-.007H33.122a.3.3,0,0,0-.3.3v.557a.3.3,0,0,0,.3.3h.419a1.08,1.08,0,0,0-.034.262V58.4a1.1,1.1,0,0,0,1.1,1.1h.244c0,.02-.007.037-.007.058a1.615,1.615,0,0,0,3.053.739.447.447,0,0,0,.3.376.459.459,0,0,0,.142.022.449.449,0,0,0,.367-.193,1.169,1.169,0,0,0,.129.011H43a1.081,1.081,0,0,0,.464-.105.448.448,0,0,0,.416.288.464.464,0,0,0,.142-.022.448.448,0,0,0,.3-.422,1.615,1.615,0,1,0,2.722-1.694.447.447,0,0,0,.47-.1.442.442,0,0,0,.046-.566h.044a.32.32,0,0,0,.194-.073v1.335a.217.217,0,0,0,.075.164.294.294,0,0,0,.225.108h5.5a.3.3,0,0,0,.3-.3v-.009a.3.3,0,0,0-.025-.118h1.943V51.216ZM38.923,48.975h4.82c.02,0,.03.008.033,0a.244.244,0,0,0,.009.071l1.4,5.512a.527.527,0,0,0-.124.046L44.3,52.927a.232.232,0,0,0,.081-.284l-.032-.071a.236.236,0,0,0-.311-.118l-1.139.514a.234.234,0,0,0-.117.31l.032.071a.235.235,0,0,0,.31.118l.908-.408.793,1.764a.542.542,0,0,0-.076.273v1.479a.528.528,0,0,0,.063.248h-1.37a.919.919,0,0,0,.192-.558v-.232a.927.927,0,0,0-.85-.919.6.6,0,0,0-.418-1.025H41.03a.6.6,0,0,0-.255.058l-.746-1.62a.356.356,0,1,0-.647.3l.762,1.654a.354.354,0,0,0,.29.2v.007a.6.6,0,0,0,.172.42h-1a.917.917,0,0,0-.716.347l0-6.464a.045.045,0,0,1,.035-.013" transform="translate(5.573 8.214)" fill="#213f47"/>
            <rect id="Rectángulo_360021" data-name="Rectángulo 360021" width="3.871" height="3.87" transform="translate(66.301 52.066)" fill="#827047"/>
            <rect id="Rectángulo_360022" data-name="Rectángulo 360022" width="3.871" height="3.87" transform="translate(70.274 52.066)" fill="#827047"/>
            <rect id="Rectángulo_360023" data-name="Rectángulo 360023" width="3.87" height="3.87" transform="translate(74.246 52.066)" fill="#827047"/>
            <rect id="Rectángulo_360024" data-name="Rectángulo 360024" width="3.871" height="3.87" transform="translate(66.301 56.088)" fill="#827047"/>
            <rect id="Rectángulo_360025" data-name="Rectángulo 360025" width="3.871" height="3.87" transform="translate(70.274 56.088)" fill="#827047"/>
            <rect id="Rectángulo_360026" data-name="Rectángulo 360026" width="3.87" height="3.87" transform="translate(74.246 56.088)" fill="#827047"/>
            <rect id="Rectángulo_360027" data-name="Rectángulo 360027" width="3.871" height="3.87" transform="translate(66.301 44.028)" fill="#827047"/>
            <rect id="Rectángulo_360028" data-name="Rectángulo 360028" width="3.871" height="3.87" transform="translate(70.274 44.028)" fill="#827047"/>
            <rect id="Rectángulo_360029" data-name="Rectángulo 360029" width="3.87" height="3.87" transform="translate(74.246 44.028)" fill="#827047"/>
            <rect id="Rectángulo_360030" data-name="Rectángulo 360030" width="3.871" height="3.87" transform="translate(66.301 48.049)" fill="#827047"/>
            <rect id="Rectángulo_360031" data-name="Rectángulo 360031" width="3.871" height="3.87" transform="translate(70.274 48.049)" fill="#827047"/>
            <rect id="Rectángulo_360032" data-name="Rectángulo 360032" width="3.87" height="3.87" transform="translate(74.246 48.049)" fill="#827047"/>
            <rect id="Rectángulo_360033" data-name="Rectángulo 360033" width="3.871" height="3.87" transform="translate(66.301 60.35)" fill="#827047"/>
            <rect id="Rectángulo_360034" data-name="Rectángulo 360034" width="3.871" height="3.87" transform="translate(70.274 60.35)" fill="#827047"/>
            <rect id="Rectángulo_360035" data-name="Rectángulo 360035" width="3.87" height="3.87" transform="translate(74.246 60.35)" fill="#827047"/>
            <rect id="Rectángulo_360036" data-name="Rectángulo 360036" width="3.871" height="3.87" transform="translate(66.301 64.371)" fill="#827047"/>
            <rect id="Rectángulo_360037" data-name="Rectángulo 360037" width="3.871" height="3.87" transform="translate(70.274 64.371)" fill="#827047"/>
            <rect id="Rectángulo_360038" data-name="Rectángulo 360038" width="3.87" height="3.87" transform="translate(74.246 64.371)" fill="#827047"/>
            <rect id="Rectángulo_360039" data-name="Rectángulo 360039" width="0.818" height="1.942" transform="translate(63 67.148)" fill="#ad7c5e"/>
            <rect id="Rectángulo_360040" data-name="Rectángulo 360040" width="0.818" height="1.942" transform="translate(67.156 67.148)" fill="#ad7c5e"/>
            <rect id="Rectángulo_360041" data-name="Rectángulo 360041" width="0.818" height="1.942" transform="translate(71.311 67.148)" fill="#ad7c5e"/>
            <rect id="Rectángulo_360042" data-name="Rectángulo 360042" width="0.818" height="1.942" transform="translate(75.466 67.148)" fill="#ad7c5e"/>
            <rect id="Rectángulo_360043" data-name="Rectángulo 360043" width="0.818" height="1.942" transform="translate(79.623 67.148)" fill="#ad7c5e"/>
            <rect id="Rectángulo_360044" data-name="Rectángulo 360044" width="5.177" height="5.177" transform="translate(63.971 56.233)" fill="#d7ba76"/>
            <rect id="Rectángulo_360045" data-name="Rectángulo 360045" width="5.177" height="5.177" transform="translate(69.285 56.233)" fill="#d7ba76"/>
            <rect id="Rectángulo_360046" data-name="Rectángulo 360046" width="5.177" height="5.177" transform="translate(74.598 56.233)" fill="#d7ba76"/>
            <rect id="Rectángulo_360047" data-name="Rectángulo 360047" width="5.177" height="5.177" transform="translate(63.971 61.611)" fill="#d7ba76"/>
            <rect id="Rectángulo_360048" data-name="Rectángulo 360048" width="5.177" height="5.177" transform="translate(69.285 61.611)" fill="#d7ba76"/>
            <rect id="Rectángulo_360049" data-name="Rectángulo 360049" width="5.177" height="5.177" transform="translate(74.598 61.611)" fill="#d7ba76"/>
            <rect id="Rectángulo_360050" data-name="Rectángulo 360050" width="18.905" height="0.718" transform="translate(62.268 66.789)" fill="#cd9c7d"/>
            <rect id="Rectángulo_360051" data-name="Rectángulo 360051" width="18.905" height="0.718" transform="translate(62.268 68.731)" fill="#cd9c7d"/>
            <rect id="Rectángulo_360052" data-name="Rectángulo 360052" width="5.177" height="5.177" transform="translate(20.606 58.92)" fill="#a68f5b"/>
            <rect id="Rectángulo_360053" data-name="Rectángulo 360053" width="5.177" height="5.177" transform="translate(25.919 58.92)" fill="#a68f5b"/>
            <rect id="Rectángulo_360054" data-name="Rectángulo 360054" width="5.177" height="5.177" transform="translate(31.233 58.92)" fill="#a68f5b"/>
            <rect id="Rectángulo_360055" data-name="Rectángulo 360055" width="5.177" height="5.177" transform="translate(20.606 64.298)" fill="#a68f5b"/>
            <rect id="Rectángulo_360056" data-name="Rectángulo 360056" width="5.177" height="5.177" transform="translate(25.919 64.298)" fill="#a68f5b"/>
            <rect id="Rectángulo_360057" data-name="Rectángulo 360057" width="5.177" height="5.177" transform="translate(31.233 64.298)" fill="#a68f5b"/>
            <rect id="Rectángulo_360058" data-name="Rectángulo 360058" width="5.177" height="5.177" transform="translate(20.606 48.167)" fill="#a68f5b"/>
            <rect id="Rectángulo_360059" data-name="Rectángulo 360059" width="5.177" height="5.177" transform="translate(25.919 48.167)" fill="#a68f5b"/>
            <rect id="Rectángulo_360060" data-name="Rectángulo 360060" width="5.177" height="5.177" transform="translate(31.233 48.167)" fill="#a68f5b"/>
            <rect id="Rectángulo_360061" data-name="Rectángulo 360061" width="5.177" height="5.177" transform="translate(20.606 53.546)" fill="#a68f5b"/>
            <rect id="Rectángulo_360062" data-name="Rectángulo 360062" width="5.177" height="5.177" transform="translate(25.919 53.546)" fill="#a68f5b"/>
            <rect id="Rectángulo_360063" data-name="Rectángulo 360063" width="5.177" height="5.177" transform="translate(31.233 53.546)" fill="#a68f5b"/>
            <rect id="Rectángulo_360064" data-name="Rectángulo 360064" width="7.957" height="8.91" transform="translate(2.878 63.753)" fill="#d7ba76"/>
            <rect id="Rectángulo_360065" data-name="Rectángulo 360065" width="3.416" height="1.537" transform="translate(3.229 70.784)" fill="#fcf7ea"/>
            <rect id="Rectángulo_360066" data-name="Rectángulo 360066" width="2.921" height="1.31" transform="translate(3.482 70.896)" fill="#354546"/>
            <rect id="Rectángulo_360067" data-name="Rectángulo 360067" width="0.248" height="8.91" transform="translate(6.856 63.753)" fill="#b59d63"/>
            <rect id="Rectángulo_360068" data-name="Rectángulo 360068" width="7.957" height="1.125" transform="translate(2.878 63.752)" fill="#b59d63"/>
            <g id="Grupo_1023226" data-name="Grupo 1023226" transform="translate(4.164 63.753)" style="mix-blend-mode: multiply;isolation: isolate">
              <g id="Grupo_1023225" data-name="Grupo 1023225">
                <g id="Grupo_1023224" data-name="Grupo 1023224" clip-path="url(#clip-path-5)">
                  <rect id="Rectángulo_360069" data-name="Rectángulo 360069" width="0.874" height="2.158" transform="translate(0 0)" fill="#b59d63"/>
                </g>
              </g>
            </g>
            <g id="Grupo_1023229" data-name="Grupo 1023229" transform="translate(8.509 63.753)" style="mix-blend-mode: multiply;isolation: isolate">
              <g id="Grupo_1023228" data-name="Grupo 1023228">
                <g id="Grupo_1023227" data-name="Grupo 1023227" clip-path="url(#clip-path-5)">
                  <rect id="Rectángulo_360071" data-name="Rectángulo 360071" width="0.874" height="2.158" transform="translate(0.001 0)" fill="#b59d63"/>
                </g>
              </g>
            </g>
            <rect id="Rectángulo_360073" data-name="Rectángulo 360073" width="7.958" height="8.91" transform="translate(11.755 63.753)" fill="#d7ba76"/>
            <rect id="Rectángulo_360074" data-name="Rectángulo 360074" width="3.416" height="1.537" transform="translate(12.107 70.784)" fill="#fcf7ea"/>
            <rect id="Rectángulo_360075" data-name="Rectángulo 360075" width="2.921" height="1.31" transform="translate(12.361 70.896)" fill="#354546"/>
            <rect id="Rectángulo_360076" data-name="Rectángulo 360076" width="0.248" height="8.91" transform="translate(15.735 63.753)" fill="#b59d63"/>
            <rect id="Rectángulo_360077" data-name="Rectángulo 360077" width="7.958" height="1.125" transform="translate(11.755 63.752)" fill="#b59d63"/>
            <g id="Grupo_1023232" data-name="Grupo 1023232" transform="translate(13.043 63.753)" style="mix-blend-mode: multiply;isolation: isolate">
              <g id="Grupo_1023231" data-name="Grupo 1023231">
                <g id="Grupo_1023230" data-name="Grupo 1023230" clip-path="url(#clip-path-5)">
                  <rect id="Rectángulo_360078" data-name="Rectángulo 360078" width="0.874" height="2.158" transform="translate(0 0)" fill="#b59d63"/>
                </g>
              </g>
            </g>
            <g id="Grupo_1023235" data-name="Grupo 1023235" transform="translate(17.388 63.753)" style="mix-blend-mode: multiply;isolation: isolate">
              <g id="Grupo_1023234" data-name="Grupo 1023234">
                <g id="Grupo_1023233" data-name="Grupo 1023233" clip-path="url(#clip-path-8)">
                  <rect id="Rectángulo_360080" data-name="Rectángulo 360080" width="0.875" height="2.158" transform="translate(0 0)" fill="#b59d63"/>
                </g>
              </g>
            </g>
            <rect id="Rectángulo_360082" data-name="Rectángulo 360082" width="7.958" height="8.91" transform="translate(20.478 63.753)" fill="#d7ba76"/>
            <rect id="Rectángulo_360083" data-name="Rectángulo 360083" width="3.416" height="1.537" transform="translate(20.83 70.784)" fill="#fcf7ea"/>
            <rect id="Rectángulo_360084" data-name="Rectángulo 360084" width="2.921" height="1.31" transform="translate(21.084 70.896)" fill="#354546"/>
            <rect id="Rectángulo_360085" data-name="Rectángulo 360085" width="0.248" height="8.91" transform="translate(24.458 63.753)" fill="#b59d63"/>
            <rect id="Rectángulo_360086" data-name="Rectángulo 360086" width="7.958" height="1.125" transform="translate(20.478 63.752)" fill="#b59d63"/>
            <g id="Grupo_1023238" data-name="Grupo 1023238" transform="translate(21.765 63.753)" style="mix-blend-mode: multiply;isolation: isolate">
              <g id="Grupo_1023237" data-name="Grupo 1023237">
                <g id="Grupo_1023236" data-name="Grupo 1023236" clip-path="url(#clip-path-5)">
                  <rect id="Rectángulo_360087" data-name="Rectángulo 360087" width="0.874" height="2.158" transform="translate(0.001 0)" fill="#b59d63"/>
                </g>
              </g>
            </g>
            <g id="Grupo_1023241" data-name="Grupo 1023241" transform="translate(26.111 63.753)" style="mix-blend-mode: multiply;isolation: isolate">
              <g id="Grupo_1023240" data-name="Grupo 1023240">
                <g id="Grupo_1023239" data-name="Grupo 1023239" clip-path="url(#clip-path-5)">
                  <rect id="Rectángulo_360089" data-name="Rectángulo 360089" width="0.874" height="2.158" transform="translate(0 0)" fill="#b59d63"/>
                </g>
              </g>
            </g>
            <rect id="Rectángulo_360091" data-name="Rectángulo 360091" width="7.957" height="8.91" transform="translate(2.878 54.718)" fill="#d7ba76"/>
            <rect id="Rectángulo_360092" data-name="Rectángulo 360092" width="3.416" height="1.537" transform="translate(3.229 61.749)" fill="#fcf7ea"/>
            <rect id="Rectángulo_360093" data-name="Rectángulo 360093" width="2.921" height="1.31" transform="translate(3.482 61.862)" fill="#354546"/>
            <rect id="Rectángulo_360094" data-name="Rectángulo 360094" width="0.248" height="8.91" transform="translate(6.856 54.718)" fill="#b59d63"/>
            <rect id="Rectángulo_360095" data-name="Rectángulo 360095" width="7.957" height="1.124" transform="translate(2.878 54.719)" fill="#b59d63"/>
            <g id="Grupo_1023244" data-name="Grupo 1023244" transform="translate(4.164 54.718)" style="mix-blend-mode: multiply;isolation: isolate">
              <g id="Grupo_1023243" data-name="Grupo 1023243">
                <g id="Grupo_1023242" data-name="Grupo 1023242" clip-path="url(#clip-path-5)">
                  <rect id="Rectángulo_360096" data-name="Rectángulo 360096" width="0.874" height="2.158" transform="translate(0 0.001)" fill="#b59d63"/>
                </g>
              </g>
            </g>
            <g id="Grupo_1023247" data-name="Grupo 1023247" transform="translate(8.509 54.718)" style="mix-blend-mode: multiply;isolation: isolate">
              <g id="Grupo_1023246" data-name="Grupo 1023246">
                <g id="Grupo_1023245" data-name="Grupo 1023245" clip-path="url(#clip-path-5)">
                  <rect id="Rectángulo_360098" data-name="Rectángulo 360098" width="0.874" height="2.158" transform="translate(0.001 0.001)" fill="#b59d63"/>
                </g>
              </g>
            </g>
            <rect id="Rectángulo_360100" data-name="Rectángulo 360100" width="7.958" height="8.91" transform="translate(11.755 54.718)" fill="#d7ba76"/>
            <rect id="Rectángulo_360101" data-name="Rectángulo 360101" width="3.416" height="1.537" transform="translate(12.107 61.749)" fill="#fcf7ea"/>
            <rect id="Rectángulo_360102" data-name="Rectángulo 360102" width="2.921" height="1.31" transform="translate(12.361 61.862)" fill="#354546"/>
            <rect id="Rectángulo_360103" data-name="Rectángulo 360103" width="0.248" height="8.91" transform="translate(15.735 54.718)" fill="#b59d63"/>
            <rect id="Rectángulo_360104" data-name="Rectángulo 360104" width="7.958" height="1.124" transform="translate(11.755 54.719)" fill="#b59d63"/>
            <g id="Grupo_1023250" data-name="Grupo 1023250" transform="translate(13.043 54.718)" style="mix-blend-mode: multiply;isolation: isolate">
              <g id="Grupo_1023249" data-name="Grupo 1023249">
                <g id="Grupo_1023248" data-name="Grupo 1023248" clip-path="url(#clip-path-5)">
                  <rect id="Rectángulo_360105" data-name="Rectángulo 360105" width="0.874" height="2.158" transform="translate(0 0.001)" fill="#b59d63"/>
                </g>
              </g>
            </g>
            <g id="Grupo_1023253" data-name="Grupo 1023253" transform="translate(17.388 54.718)" style="mix-blend-mode: multiply;isolation: isolate">
              <g id="Grupo_1023252" data-name="Grupo 1023252">
                <g id="Grupo_1023251" data-name="Grupo 1023251" clip-path="url(#clip-path-8)">
                  <rect id="Rectángulo_360107" data-name="Rectángulo 360107" width="0.875" height="2.158" transform="translate(0 0.001)" fill="#b59d63"/>
                </g>
              </g>
            </g>
            <rect id="Rectángulo_360109" data-name="Rectángulo 360109" width="7.958" height="8.91" transform="translate(20.478 54.718)" fill="#d7ba76"/>
            <rect id="Rectángulo_360110" data-name="Rectángulo 360110" width="3.416" height="1.537" transform="translate(20.83 61.749)" fill="#fcf7ea"/>
            <rect id="Rectángulo_360111" data-name="Rectángulo 360111" width="2.921" height="1.31" transform="translate(21.084 61.862)" fill="#354546"/>
            <rect id="Rectángulo_360112" data-name="Rectángulo 360112" width="0.248" height="8.91" transform="translate(24.458 54.718)" fill="#b59d63"/>
            <rect id="Rectángulo_360113" data-name="Rectángulo 360113" width="7.958" height="1.124" transform="translate(20.478 54.719)" fill="#b59d63"/>
            <g id="Grupo_1023256" data-name="Grupo 1023256" transform="translate(21.765 54.718)" style="mix-blend-mode: multiply;isolation: isolate">
              <g id="Grupo_1023255" data-name="Grupo 1023255">
                <g id="Grupo_1023254" data-name="Grupo 1023254" clip-path="url(#clip-path-5)">
                  <rect id="Rectángulo_360114" data-name="Rectángulo 360114" width="0.874" height="2.158" transform="translate(0.001 0.001)" fill="#b59d63"/>
                </g>
              </g>
            </g>
            <g id="Grupo_1023259" data-name="Grupo 1023259" transform="translate(26.111 54.718)" style="mix-blend-mode: multiply;isolation: isolate">
              <g id="Grupo_1023258" data-name="Grupo 1023258">
                <g id="Grupo_1023257" data-name="Grupo 1023257" clip-path="url(#clip-path-5)">
                  <rect id="Rectángulo_360116" data-name="Rectángulo 360116" width="0.874" height="2.158" transform="translate(0 0.001)" fill="#b59d63"/>
                </g>
              </g>
            </g>
          </g>
        </g>
      </g>
    </g>
  </g>
</svg>
