<svg xmlns="http://www.w3.org/2000/svg" xmlns:xlink="http://www.w3.org/1999/xlink" width="136.934" height="135.983" viewBox="0 0 136.934 135.983">
  <defs>
    <clipPath id="clip-path">
      <rect id="Rectángulo_360640" data-name="Rectángulo 360640" width="57.563" height="66.841" fill="none"/>
    </clipPath>
  </defs>
  <g id="Grupo_1022424" data-name="Grupo 1022424" transform="translate(-263 -595.534)">
    <g id="Grupo_156356" data-name="Grupo 156356" transform="translate(263 650.743)">
      <g id="Grupo_156332" data-name="Grupo 156332" transform="translate(0 0)">
        <path id="Trazado_99257" data-name="Trazado 99257" d="M419.306,105.213a2.549,2.549,0,1,1-2.548-2.434A2.492,2.492,0,0,1,419.306,105.213Z" transform="translate(-414.214 -102.779)" fill="#12263f"/>
        <path id="Trazado_116526" data-name="Trazado 116526" d="M419.306,105.213a2.549,2.549,0,1,1-2.548-2.434A2.492,2.492,0,0,1,419.306,105.213Z" transform="translate(-356.555 -102.779)" fill="#12263f"/>
        <path id="Trazado_99258" data-name="Trazado 99258" d="M427.752,105.213a2.549,2.549,0,1,1-2.545-2.434A2.492,2.492,0,0,1,427.752,105.213Z" transform="translate(-411.129 -102.779)" fill="#12263f"/>
        <path id="Trazado_116527" data-name="Trazado 116527" d="M427.752,105.213a2.549,2.549,0,1,1-2.545-2.434A2.492,2.492,0,0,1,427.752,105.213Z" transform="translate(-353.469 -102.779)" fill="#12263f"/>
        <path id="Trazado_99259" data-name="Trazado 99259" d="M436.2,105.213a2.549,2.549,0,1,1-2.545-2.434A2.492,2.492,0,0,1,436.2,105.213Z" transform="translate(-408.043 -102.779)" fill="#12263f"/>
        <path id="Trazado_116531" data-name="Trazado 116531" d="M436.2,105.213a2.549,2.549,0,1,1-2.545-2.434A2.492,2.492,0,0,1,436.2,105.213Z" transform="translate(-350.384 -102.779)" fill="#12263f"/>
        <path id="Trazado_99260" data-name="Trazado 99260" d="M444.645,105.213a2.549,2.549,0,1,1-2.547-2.434A2.492,2.492,0,0,1,444.645,105.213Z" transform="translate(-404.958 -102.779)" fill="#12263f"/>
        <path id="Trazado_116532" data-name="Trazado 116532" d="M444.645,105.213a2.549,2.549,0,1,1-2.547-2.434A2.492,2.492,0,0,1,444.645,105.213Z" transform="translate(-347.298 -102.779)" fill="#12263f"/>
        <path id="Trazado_99261" data-name="Trazado 99261" d="M453.091,105.213a2.549,2.549,0,1,1-2.545-2.434A2.492,2.492,0,0,1,453.091,105.213Z" transform="translate(-401.872 -102.779)" fill="#12263f"/>
      </g>
      <g id="Grupo_156331" data-name="Grupo 156331" transform="translate(0 12.649)">
        <ellipse id="Elipse_3975" data-name="Elipse 3975" cx="2.546" cy="2.435" rx="2.546" ry="2.435" transform="translate(0 0.001)" fill="#12263f"/>
        <ellipse id="Elipse_4742" data-name="Elipse 4742" cx="2.546" cy="2.435" rx="2.546" ry="2.435" transform="translate(57.659 0.001)" fill="#12263f"/>
        <path id="Trazado_99268" data-name="Trazado 99268" d="M427.752,112.721a2.549,2.549,0,1,1-2.545-2.434A2.493,2.493,0,0,1,427.752,112.721Z" transform="translate(-411.129 -110.287)" fill="#12263f"/>
        <path id="Trazado_116528" data-name="Trazado 116528" d="M427.752,112.721a2.549,2.549,0,1,1-2.545-2.434A2.493,2.493,0,0,1,427.752,112.721Z" transform="translate(-353.469 -110.287)" fill="#12263f"/>
        <ellipse id="Elipse_3976" data-name="Elipse 3976" cx="2.546" cy="2.435" rx="2.546" ry="2.435" transform="translate(23.064 0.001)" fill="#12263f"/>
        <ellipse id="Elipse_4743" data-name="Elipse 4743" cx="2.546" cy="2.435" rx="2.546" ry="2.435" transform="translate(80.723 0.001)" fill="#12263f"/>
        <path id="Trazado_99269" data-name="Trazado 99269" d="M444.645,112.721a2.549,2.549,0,1,1-2.547-2.434A2.494,2.494,0,0,1,444.645,112.721Z" transform="translate(-404.958 -110.287)" fill="#12263f"/>
        <path id="Trazado_116533" data-name="Trazado 116533" d="M444.645,112.721a2.549,2.549,0,1,1-2.547-2.434A2.494,2.494,0,0,1,444.645,112.721Z" transform="translate(-347.298 -110.287)" fill="#12263f"/>
        <path id="Trazado_99270" data-name="Trazado 99270" d="M453.091,112.721a2.549,2.549,0,1,1-2.545-2.434A2.493,2.493,0,0,1,453.091,112.721Z" transform="translate(-401.872 -110.287)" fill="#12263f"/>
      </g>
      <g id="Grupo_156330" data-name="Grupo 156330" transform="translate(0 25.3)">
        <path id="Trazado_99274" data-name="Trazado 99274" d="M419.306,120.23a2.549,2.549,0,1,1-2.548-2.436A2.494,2.494,0,0,1,419.306,120.23Z" transform="translate(-414.214 -117.794)" fill="#12263f"/>
        <path id="Trazado_116529" data-name="Trazado 116529" d="M419.306,120.23a2.549,2.549,0,1,1-2.548-2.436A2.494,2.494,0,0,1,419.306,120.23Z" transform="translate(-356.555 -117.794)" fill="#12263f"/>
        <path id="Trazado_99275" data-name="Trazado 99275" d="M427.752,120.23a2.549,2.549,0,1,1-2.545-2.436A2.493,2.493,0,0,1,427.752,120.23Z" transform="translate(-411.129 -117.794)" fill="#12263f"/>
        <path id="Trazado_116530" data-name="Trazado 116530" d="M427.752,120.23a2.549,2.549,0,1,1-2.545-2.436A2.493,2.493,0,0,1,427.752,120.23Z" transform="translate(-353.469 -117.794)" fill="#12263f"/>
        <path id="Trazado_99276" data-name="Trazado 99276" d="M436.2,120.23a2.549,2.549,0,1,1-2.545-2.436A2.493,2.493,0,0,1,436.2,120.23Z" transform="translate(-408.043 -117.794)" fill="#12263f"/>
        <path id="Trazado_116534" data-name="Trazado 116534" d="M436.2,120.23a2.549,2.549,0,1,1-2.545-2.436A2.493,2.493,0,0,1,436.2,120.23Z" transform="translate(-350.384 -117.794)" fill="#12263f"/>
        <path id="Trazado_99277" data-name="Trazado 99277" d="M444.645,120.23a2.549,2.549,0,1,1-2.547-2.436A2.494,2.494,0,0,1,444.645,120.23Z" transform="translate(-404.958 -117.794)" fill="#12263f"/>
        <path id="Trazado_116535" data-name="Trazado 116535" d="M444.645,120.23a2.549,2.549,0,1,1-2.547-2.436A2.494,2.494,0,0,1,444.645,120.23Z" transform="translate(-347.298 -117.794)" fill="#12263f"/>
        <path id="Trazado_99278" data-name="Trazado 99278" d="M453.091,120.23a2.549,2.549,0,1,1-2.545-2.436A2.493,2.493,0,0,1,453.091,120.23Z" transform="translate(-401.872 -117.794)" fill="#12263f"/>
      </g>
      <g id="Grupo_156327" data-name="Grupo 156327" transform="translate(0 63.252)">
        <path id="Trazado_116550" data-name="Trazado 116550" d="M419.306,120.23a2.549,2.549,0,1,1-2.548-2.436A2.494,2.494,0,0,1,419.306,120.23Z" transform="translate(-414.214 -117.794)" fill="#12263f"/>
        <path id="Trazado_116551" data-name="Trazado 116551" d="M419.306,120.23a2.549,2.549,0,1,1-2.548-2.436A2.494,2.494,0,0,1,419.306,120.23Z" transform="translate(-356.555 -117.794)" fill="#12263f"/>
        <path id="Trazado_116552" data-name="Trazado 116552" d="M427.752,120.23a2.549,2.549,0,1,1-2.545-2.436A2.493,2.493,0,0,1,427.752,120.23Z" transform="translate(-411.129 -117.794)" fill="#12263f"/>
        <path id="Trazado_116553" data-name="Trazado 116553" d="M427.752,120.23a2.549,2.549,0,1,1-2.545-2.436A2.493,2.493,0,0,1,427.752,120.23Z" transform="translate(-353.469 -117.794)" fill="#12263f"/>
        <path id="Trazado_116554" data-name="Trazado 116554" d="M436.2,120.23a2.549,2.549,0,1,1-2.545-2.436A2.493,2.493,0,0,1,436.2,120.23Z" transform="translate(-408.043 -117.794)" fill="#12263f"/>
        <path id="Trazado_116555" data-name="Trazado 116555" d="M436.2,120.23a2.549,2.549,0,1,1-2.545-2.436A2.493,2.493,0,0,1,436.2,120.23Z" transform="translate(-350.384 -117.794)" fill="#12263f"/>
        <path id="Trazado_116556" data-name="Trazado 116556" d="M444.645,120.23a2.549,2.549,0,1,1-2.547-2.436A2.494,2.494,0,0,1,444.645,120.23Z" transform="translate(-404.958 -117.794)" fill="#12263f"/>
        <path id="Trazado_116557" data-name="Trazado 116557" d="M444.645,120.23a2.549,2.549,0,1,1-2.547-2.436A2.494,2.494,0,0,1,444.645,120.23Z" transform="translate(-347.298 -117.794)" fill="#12263f"/>
        <path id="Trazado_116558" data-name="Trazado 116558" d="M453.091,120.23a2.549,2.549,0,1,1-2.545-2.436A2.493,2.493,0,0,1,453.091,120.23Z" transform="translate(-401.872 -117.794)" fill="#12263f"/>
      </g>
      <g id="Grupo_156329" data-name="Grupo 156329" transform="translate(0 37.951)">
        <ellipse id="Elipse_3980" data-name="Elipse 3980" cx="2.546" cy="2.435" rx="2.546" ry="2.435" transform="translate(0 0.002)" fill="#12263f"/>
        <ellipse id="Elipse_4744" data-name="Elipse 4744" cx="2.546" cy="2.435" rx="2.546" ry="2.435" transform="translate(57.659 0.002)" fill="#12263f"/>
        <path id="Trazado_99285" data-name="Trazado 99285" d="M427.752,127.738a2.549,2.549,0,1,1-2.545-2.436A2.491,2.491,0,0,1,427.752,127.738Z" transform="translate(-411.129 -125.302)" fill="#12263f"/>
        <path id="Trazado_116536" data-name="Trazado 116536" d="M427.752,127.738a2.549,2.549,0,1,1-2.545-2.436A2.491,2.491,0,0,1,427.752,127.738Z" transform="translate(-353.469 -125.302)" fill="#12263f"/>
        <ellipse id="Elipse_3981" data-name="Elipse 3981" cx="2.546" cy="2.435" rx="2.546" ry="2.435" transform="translate(23.064 0.002)" fill="#12263f"/>
        <ellipse id="Elipse_4745" data-name="Elipse 4745" cx="2.546" cy="2.435" rx="2.546" ry="2.435" transform="translate(80.723 0.002)" fill="#12263f"/>
        <path id="Trazado_99286" data-name="Trazado 99286" d="M444.645,127.738A2.549,2.549,0,1,1,442.1,125.3,2.492,2.492,0,0,1,444.645,127.738Z" transform="translate(-404.958 -125.302)" fill="#12263f"/>
        <path id="Trazado_116537" data-name="Trazado 116537" d="M444.645,127.738A2.549,2.549,0,1,1,442.1,125.3,2.492,2.492,0,0,1,444.645,127.738Z" transform="translate(-347.298 -125.302)" fill="#12263f"/>
        <path id="Trazado_99287" data-name="Trazado 99287" d="M453.091,127.738a2.549,2.549,0,1,1-2.545-2.436A2.491,2.491,0,0,1,453.091,127.738Z" transform="translate(-401.872 -125.302)" fill="#12263f"/>
      </g>
      <g id="Grupo_156326" data-name="Grupo 156326" transform="translate(0 75.904)">
        <ellipse id="Elipse_4754" data-name="Elipse 4754" cx="2.546" cy="2.435" rx="2.546" ry="2.435" transform="translate(0 0.001)" fill="#12263f"/>
        <ellipse id="Elipse_4750" data-name="Elipse 4750" cx="2.546" cy="2.435" rx="2.546" ry="2.435" transform="translate(57.659 0.001)" fill="#12263f"/>
        <path id="Trazado_116548" data-name="Trazado 116548" d="M427.752,127.738a2.549,2.549,0,1,1-2.545-2.436A2.491,2.491,0,0,1,427.752,127.738Z" transform="translate(-411.129 -125.302)" fill="#12263f"/>
        <path id="Trazado_116542" data-name="Trazado 116542" d="M427.752,127.738a2.549,2.549,0,1,1-2.545-2.436A2.491,2.491,0,0,1,427.752,127.738Z" transform="translate(-353.469 -125.302)" fill="#12263f"/>
        <ellipse id="Elipse_4751" data-name="Elipse 4751" cx="2.546" cy="2.435" rx="2.546" ry="2.435" transform="translate(23.064 0.001)" fill="#12263f"/>
        <ellipse id="Elipse_4752" data-name="Elipse 4752" cx="2.546" cy="2.435" rx="2.546" ry="2.435" transform="translate(80.723 0.001)" fill="#12263f"/>
        <path id="Trazado_116543" data-name="Trazado 116543" d="M444.645,127.738A2.549,2.549,0,1,1,442.1,125.3,2.492,2.492,0,0,1,444.645,127.738Z" transform="translate(-404.958 -125.302)" fill="#12263f"/>
        <path id="Trazado_116544" data-name="Trazado 116544" d="M444.645,127.738A2.549,2.549,0,1,1,442.1,125.3,2.492,2.492,0,0,1,444.645,127.738Z" transform="translate(-347.298 -125.302)" fill="#12263f"/>
        <path id="Trazado_116545" data-name="Trazado 116545" d="M453.091,127.738a2.549,2.549,0,1,1-2.545-2.436A2.491,2.491,0,0,1,453.091,127.738Z" transform="translate(-401.872 -125.302)" fill="#12263f"/>
      </g>
      <g id="Grupo_156328" data-name="Grupo 156328" transform="translate(0 50.602)">
        <ellipse id="Elipse_3985" data-name="Elipse 3985" cx="2.546" cy="2.435" rx="2.546" ry="2.435" transform="translate(0 0.001)" fill="#12263f"/>
        <ellipse id="Elipse_4746" data-name="Elipse 4746" cx="2.546" cy="2.435" rx="2.546" ry="2.435" transform="translate(57.659 0.001)" fill="#12263f"/>
        <path id="Trazado_99291" data-name="Trazado 99291" d="M427.752,135.246a2.549,2.549,0,1,1-2.545-2.436A2.491,2.491,0,0,1,427.752,135.246Z" transform="translate(-411.129 -132.81)" fill="#12263f"/>
        <path id="Trazado_116538" data-name="Trazado 116538" d="M427.752,135.246a2.549,2.549,0,1,1-2.545-2.436A2.491,2.491,0,0,1,427.752,135.246Z" transform="translate(-353.469 -132.81)" fill="#12263f"/>
        <ellipse id="Elipse_3986" data-name="Elipse 3986" cx="2.546" cy="2.435" rx="2.546" ry="2.435" transform="translate(23.064 0.001)" fill="#12263f"/>
        <ellipse id="Elipse_4747" data-name="Elipse 4747" cx="2.546" cy="2.435" rx="2.546" ry="2.435" transform="translate(80.723 0.001)" fill="#12263f"/>
        <path id="Trazado_99292" data-name="Trazado 99292" d="M444.645,135.246a2.549,2.549,0,1,1-2.547-2.436A2.492,2.492,0,0,1,444.645,135.246Z" transform="translate(-404.958 -132.81)" fill="#12263f"/>
        <path id="Trazado_116539" data-name="Trazado 116539" d="M444.645,135.246a2.549,2.549,0,1,1-2.547-2.436A2.492,2.492,0,0,1,444.645,135.246Z" transform="translate(-347.298 -132.81)" fill="#12263f"/>
        <path id="Trazado_99293" data-name="Trazado 99293" d="M453.091,135.246a2.549,2.549,0,1,1-2.545-2.436A2.491,2.491,0,0,1,453.091,135.246Z" transform="translate(-401.872 -132.81)" fill="#12263f"/>
      </g>
    </g>
    <g id="Grupo_1015138" data-name="Grupo 1015138" transform="translate(277.562 595.534)">
      <circle id="Elipse_8447" data-name="Elipse 8447" cx="61.186" cy="61.186" r="61.186" transform="translate(0 0)" fill="#91b3fa"/>
      <circle id="Elipse_8448" data-name="Elipse 8448" cx="51.264" cy="51.264" r="51.264" transform="translate(9.922 9.922)" fill="#fff"/>
      <g id="Grupo_1024291" data-name="Grupo 1024291" transform="translate(30.748 27.765)">
        <g id="Grupo_1024290" data-name="Grupo 1024290" clip-path="url(#clip-path)">
          <path id="Trazado_755828" data-name="Trazado 755828" d="M13.8,0H53.592a3.715,3.715,0,0,1,2.356,3.859c-.038,3.109.01,6.22-.02,9.329a10.727,10.727,0,0,0,.628,4,17.241,17.241,0,0,1,.977,7.039A16.641,16.641,0,0,1,56.5,29.5a10.171,10.171,0,0,0-.582,3.877A59.015,59.015,0,0,1,55.7,41.14a17.259,17.259,0,0,1-1.539,5.222A16.4,16.4,0,0,1,50.3,51.5a1.37,1.37,0,0,0-.465,1.132c.018,3.7-.014,7.394.021,11.091a3.215,3.215,0,0,1-3.1,3.113q-19.3-.06-38.606-.008A3.085,3.085,0,0,1,5.33,63.956c.082-.994,0-2,.023-3a.988.988,0,0,0-.338-.789c-1.374-1.361-2.679-2.8-4.126-4.076a3.126,3.126,0,0,1-.023-4.339c1.392-1.312,2.7-2.708,4.072-4.044a1.281,1.281,0,0,0,.413-1.018q-.016-11.678-.008-23.356c0-4.784.036-9.569-.026-14.353A3.008,3.008,0,0,1,7.226,6.265,9.571,9.571,0,0,1,10.054,6.1c1.387-.029,1.387-.008,1.387-1.386,0-.435.026-.872,0-1.3A2.963,2.963,0,0,1,13.8,0M26.711,40.347l-.345.179a.554.554,0,0,0,.475.008h2.884l.092-.016-.1-.018a2.685,2.685,0,0,0-.911-.484,2.264,2.264,0,0,0-2.1.332M24.239,10.075c-1.431-.006-2.862,0-4.293-.026-.418-.009-.515.145-.5.528.025.693.007,1.388.007,2.082,0,1.726,0,1.721,1.749,1.548a.676.676,0,0,0,.657-.521,2.355,2.355,0,0,1,.395-.788c.532-.964,1.4-1.676,1.99-2.594.107-.078.217-.156,0-.229m1.307,32.463a1.838,1.838,0,0,0-2.061.825,2.247,2.247,0,0,0-.353,1.169c-.013.1.379.066.59.036,2.964.01,5.927.026,8.891.029,1.384,0,2.767-.022,4.151-.034.172.012.344.035.517.035,3,0,5.995-.016,8.992.012a7.425,7.425,0,0,0,6.422-3.426,7.636,7.636,0,0,0,1.2-3.5c.07-.885.04-1.764.089-2.644.005-.1.057-.229-.067-.288-.164-.077-.231.078-.3.173a9.748,9.748,0,0,1-.871,1.105,21.521,21.521,0,0,1-5.554,4.344.217.217,0,0,0-.295.16h.3c.542,0,1.086-.016,1.625.021a.984.984,0,0,1,.969.853c.062.42-.184.719-.611.931a1.651,1.651,0,0,1-.787.162q-8.132,0-16.264,0c-.237,0-.474.024-.711.036q-2.934-.1-5.869,0m28.16-30.916c.054.1.1.213.236.206a1.375,1.375,0,0,0,.019-.214c.007-2.82.019-5.64.016-8.459A1.108,1.108,0,0,0,52.8,1.962c-1.04-.01-2.081.01-3.121.017a1.873,1.873,0,0,0-.194-.02q-17.475,0-34.95,0c-.888,0-1.134.257-1.136,1.157-.006,2.457,0,4.914,0,7.371a1.27,1.27,0,0,1-1.023,1.41,1,1,0,0,1-.932-1.091c0-.782,0-1.565,0-2.347,0-.24-.007-.422-.331-.416-1,.017-2-.023-3,.036a.779.779,0,0,0-.828.852q.016,17.9.01,35.8c0,.136-.109.328.082.4.176.065.249-.132.349-.231,1.095-1.087,2.175-2.188,3.284-3.261a1.349,1.349,0,0,0,.44-1.074c-.014-8.26,0-16.519-.025-24.779,0-.738.223-1.172.947-1.32.872.227,1.033.861,1.032,1.663q-.02,11.221-.008,22.442v.721a5.338,5.338,0,0,1,2.273-.923,4.827,4.827,0,0,0,3.214-1.726,22.847,22.847,0,0,1,1.785-1.81,2.317,2.317,0,0,0,.5-3,23.467,23.467,0,0,1-1.37-3.781,23.757,23.757,0,0,1-.548-3.254,14.261,14.261,0,0,1,.1-4.109,16.033,16.033,0,0,1,1.074-4.139c.111-.259.059-.405-.269-.392-.434.018-.87.006-1.3,0-1.035-.006-1.339-.3-1.342-1.333-.006-1.8.027-3.611-.014-5.415-.02-.885.335-1.326,1.368-1.315,2.413.026,4.825.009,7.238.008a1.079,1.079,0,0,0,.741-.136,16.361,16.361,0,0,1,1.675-1.1,17,17,0,0,1,3.547-1.75,20.069,20.069,0,0,1,7.115-.961,20.784,20.784,0,0,1,4.688.766,22.126,22.126,0,0,1,5.813,2.792c.711.632,1.443,1.242,2.125,1.9.662.64,1.273,1.333,1.907,2M13.8,41.62c-.16.144-.326.282-.478.434q-4.931,4.93-9.859,9.862c-.4.4-.81.788-1.2,1.2a1.068,1.068,0,0,0,.017,1.59q.82.835,1.637,1.674c.74.908,1.627,1.673,2.439,2.512.666.688,1.049.685,1.721.015,1.415-1.411,2.854-2.8,4.226-4.252a1.5,1.5,0,0,1,2-.492c.376.818-.025,1.369-.615,1.884a2.274,2.274,0,0,0-.346,2.028c.266.674.818.705,1.431.7,5.646-.01,11.293-.018,16.938.011a9.151,9.151,0,0,0,1.817-.1,7.342,7.342,0,0,0,5.712-4.767,8.8,8.8,0,0,0,.544-3.244c-.007-1.354,0-2.708,0-4.089h-4.2q-6.358-.016-12.715-.03c-.118,0-.263-.047-.322.129a7.205,7.205,0,0,1-1.3,1.88c-.051-.006-.11-.019-.094.065a.4.4,0,0,0,.1,0c2.891.006,5.783.015,8.674.013a2.76,2.76,0,0,1,1.228.255.768.768,0,0,1,.369.946,1.023,1.023,0,0,1-1.026.774c-3.39-.016-6.781.007-10.172.017a1.777,1.777,0,0,0-1.967.7,7.025,7.025,0,0,1-.9.919.949.949,0,0,1-1.409.079c-.436-.739-.412-.995.176-1.586,1.166-1.171,2.324-2.349,3.511-3.5.341-.33.424-.536.043-.908q-2.448-2.393-4.842-4.842c-.479-.491-.809-.464-1.138.108M11.723,59.24c-.023-.08-.041-.163-.071-.24-.256-.666-.257-.667-.752-.174-.524.522-1.038,1.053-1.57,1.565a2.474,2.474,0,0,1-1.6.808c-.363.015-.434.192-.43.5.008.674,0,1.348,0,2.022.006.915.228,1.144,1.126,1.144q19.1,0,38.207,0c.865,0,1.253-.38,1.255-1.249q.008-4.468,0-8.936c0-.164.09-.393-.075-.481-.231-.123-.336.145-.452.271a22.8,22.8,0,0,1-5.385,4.38,15.828,15.828,0,0,0-2.2.881,15.219,15.219,0,0,1-5.617,1.009c-6.5-.025-13-.037-19.495.018a3.363,3.363,0,0,1-2.938-1.514M21.2,24.27c-.246.046-.206.232-.2.4a11.163,11.163,0,0,1,.423,1.856,13.394,13.394,0,0,0,1.613,4.707,4.182,4.182,0,0,1-.752,4.717c-.925.887-1.834,1.791-2.773,2.71.914.913,1.791,1.755,2.625,2.639.295.313.439.248.7-.02.756-.78,1.535-1.538,2.316-2.293a4.352,4.352,0,0,1,4.418-.77c.884.435,1.773.849,2.685,1.226a17.289,17.289,0,0,0,8.575.967,15.535,15.535,0,0,0,5.913-2.028A16.939,16.939,0,0,0,52.9,32.612a18.614,18.614,0,0,0,2.31-5.432,18.154,18.154,0,0,0,.448-3.5,18.926,18.926,0,0,0-.717-5.009,15.3,15.3,0,0,0-3.583-6.8A15.967,15.967,0,0,0,46.191,7.9a14.7,14.7,0,0,0-4.726-1.6c-.592-.066-1.194-.137-1.784-.146a17.605,17.605,0,0,0-4.388.228,18.243,18.243,0,0,0-3.853,1.075,27.317,27.317,0,0,0-4.686,3.031,19.93,19.93,0,0,0-2.58,2.836,12.61,12.61,0,0,0-1.559,2.869,15.222,15.222,0,0,0-1.35,4.793A27.356,27.356,0,0,0,21.2,24.27M52.859,44.089a1.183,1.183,0,0,0-.2.106,9.728,9.728,0,0,1-6.949,2.368c-.977-.031-1.956-.016-2.934,0-.793.014-1.033.267-1.036,1.044,0,1.087.023,2.175-.01,3.261a13.738,13.738,0,0,1-.2,2.1A10.06,10.06,0,0,1,39.112,57.8a1.3,1.3,0,0,0,.421-.006,14.5,14.5,0,0,0,4.388-2.669c1.972-1.835,3.812-3.811,5.739-5.7A16.585,16.585,0,0,0,52.9,44.442a.318.318,0,0,0-.042-.353M17.724,39.781c-.307.072-.613.148-.921.216-.443.1-.591.217-.178.616,1.266,1.223,2.5,2.484,3.745,3.725a3.831,3.831,0,0,0,.457.35c.089.065.171.114.27-.009a1.81,1.81,0,0,0-.091-1.892q-1.336-1.339-2.673-2.676c-.168-.168-.316-.374-.609-.331" transform="translate(0)"/>
          <path id="Trazado_755829" data-name="Trazado 755829" d="M131.885,20.727a22.127,22.127,0,0,0-5.813-2.792,20.788,20.788,0,0,0-4.688-.766,20.074,20.074,0,0,0-7.115.96,17,17,0,0,0-3.547,1.75,16.339,16.339,0,0,0-1.675,1.1,1.08,1.08,0,0,1-.741.135c-2.413,0-4.826.019-7.238-.007-1.032-.011-1.388.43-1.368,1.315.041,1.8.008,3.609.014,5.415,0,1.032.307,1.328,1.342,1.333.435,0,.87.014,1.3,0,.328-.013.38.133.269.392a16.033,16.033,0,0,0-1.074,4.139,14.265,14.265,0,0,0-.1,4.109,23.739,23.739,0,0,0,.548,3.254,23.471,23.471,0,0,0,1.37,3.781,2.317,2.317,0,0,1-.5,3,22.827,22.827,0,0,0-1.785,1.81,4.827,4.827,0,0,1-3.214,1.726,5.336,5.336,0,0,0-2.273.923v-.721q0-11.221.008-22.442c0-.8-.159-1.436-1.032-1.663V24.909a1.27,1.27,0,0,0,1.023-1.41c0-2.457,0-4.914,0-7.371,0-.9.248-1.157,1.136-1.157q17.475-.005,34.95,0a1.876,1.876,0,0,1,.194.02Z" transform="translate(-82.211 -13.01)" fill="#f3fbff"/>
          <path id="Trazado_755830" data-name="Trazado 755830" d="M150.891,64.961a27.331,27.331,0,0,1,.061-3.285,15.219,15.219,0,0,1,1.35-4.793,12.605,12.605,0,0,1,1.559-2.869,19.916,19.916,0,0,1,2.58-2.836,27.316,27.316,0,0,1,4.686-3.031,18.242,18.242,0,0,1,3.853-1.075,17.6,17.6,0,0,1,4.388-.228c.589.009,1.192.08,1.784.146a14.7,14.7,0,0,1,4.726,1.6,15.964,15.964,0,0,1,5.165,3.971,15.3,15.3,0,0,1,3.583,6.8,18.918,18.918,0,0,1,.717,5.009,18.143,18.143,0,0,1-.447,3.5,18.615,18.615,0,0,1-2.31,5.432,16.94,16.94,0,0,1-6.151,5.772,15.536,15.536,0,0,1-5.912,2.028,17.287,17.287,0,0,1-8.575-.967c-.912-.377-1.8-.791-2.685-1.226a4.351,4.351,0,0,0-4.417.77c-.781.755-1.56,1.513-2.317,2.293-.259.268-.4.333-.7.02-.834-.884-1.711-1.727-2.625-2.639.939-.919,1.848-1.823,2.773-2.71a4.182,4.182,0,0,0,.752-4.717,13.4,13.4,0,0,1-1.613-4.706,11.129,11.129,0,0,0-.423-1.856c.288-.025.244-.213.2-.4m31.343-.243c.358-.156.879-.033.924-.681a13.157,13.157,0,0,0-.507-4.174,11.7,11.7,0,0,0-1.31-3.241,14.541,14.541,0,0,0-3.283-4,19.222,19.222,0,0,0-3.513-2.375c-.3-.142-.4-.527-.778-.546a10.54,10.54,0,0,1-3.729-.938c-.077-.034-.21-.1-.23-.078-.4.455-.862.115-1.285.107a32.162,32.162,0,0,0-3.873.393c-.729.074-1.321.713-2.1.43a.245.245,0,0,0-.207.117c-.147.414-.568.434-.869.618a15.32,15.32,0,0,0-3.534,2.371c-.452.487-.966.911-1.387,1.439a6.991,6.991,0,0,1-.807,1.141,6.854,6.854,0,0,0-1.864,3.215A13.651,13.651,0,0,0,153,64.67c.047.533-.19,1.141.365,1.568.075.058.044.211-.032.3-.27.319-.082.654-.019.972a18.657,18.657,0,0,0,1.137,3.029,12.443,12.443,0,0,0,1.578,2.586c.426.606,1.155.977,1.51,1.527.455.706,1.164,1,1.692,1.553a10.036,10.036,0,0,0,2.98,1.721,5.7,5.7,0,0,0,.891.364,6.081,6.081,0,0,1,1.943.518,1.489,1.489,0,0,0,.362.12,6.132,6.132,0,0,0,2.279.162c.942-.031,1.935.263,2.8-.387.05-.038.17-.012.245.016a2.013,2.013,0,0,0,1.526-.144,24.176,24.176,0,0,0,3.6-1.68,11.53,11.53,0,0,0,3.006-2.339A11.1,11.1,0,0,0,181,71.642c.352-.857,1.165-1.483,1.322-2.5.111-.719.045-1.09-.619-1.455a7.069,7.069,0,0,0,.528-2.969" transform="translate(-129.687 -40.69)" fill="#afafaf"/>
          <path id="Trazado_755831" data-name="Trazado 755831" d="M60.642,65.345V67.91c-.724.148-.949.582-.947,1.32.023,8.259.011,16.519.025,24.779a1.35,1.35,0,0,1-.44,1.074c-1.109,1.072-2.189,2.174-3.284,3.261-.1.1-.173.3-.349.231-.192-.071-.082-.263-.082-.4q0-17.9-.01-35.8a.779.779,0,0,1,.828-.852c1-.058,2-.019,3-.036.325-.006.333.177.331.417-.006.782,0,1.565,0,2.347a1,1,0,0,0,.932,1.091" transform="translate(-48.269 -53.446)" fill="#cdf0ff"/>
          <path id="Trazado_755832" data-name="Trazado 755832" d="M113.191,359.976c3.391-.01,6.781-.033,10.172-.017a1.023,1.023,0,0,0,1.026-.774.767.767,0,0,0-.369-.946,2.758,2.758,0,0,0-1.228-.255c-2.891,0-5.783-.007-8.674-.013l.024-.035-.027-.033a7.2,7.2,0,0,0,1.3-1.88c.059-.176.2-.129.322-.129q6.357.012,12.715.03a18.786,18.786,0,0,1-.147,3.569,8.372,8.372,0,0,1-8.029,6.974c-4.322.126-8.65.029-12.976.024-.133,0-.3.084-.462-.2.224-.194.483-.392.711-.621q2.825-2.844,5.64-5.7" transform="translate(-92.864 -309.334)" fill="#f3fbff"/>
          <path id="Trazado_755833" data-name="Trazado 755833" d="M90.463,418.74a22.8,22.8,0,0,0,5.384-4.38c.116-.126.221-.394.452-.271.165.088.075.317.075.481q.007,4.468,0,8.936c0,.869-.39,1.249-1.255,1.249q-19.1,0-38.207,0c-.9,0-1.12-.229-1.126-1.144,0-.674,0-1.348,0-2.022,0-.3.067-.481.43-.5a2.474,2.474,0,0,0,1.6-.808c.532-.513,1.047-1.044,1.57-1.565.494-.492.5-.492.752.174.03.078.047.16.071.24-1.354,1.335-2.469,2.936-4.236,3.928h.743q12.254,0,24.508-.011a11.873,11.873,0,0,0,1.547.13,11.6,11.6,0,0,0,4.321-1.293,8.69,8.69,0,0,0,3.37-3.148" transform="translate(-48.487 -359.894)" fill="#a5e8fe"/>
          <path id="Trazado_755834" data-name="Trazado 755834" d="M108.336,360.217q-2.819,2.85-5.64,5.7c-.227.229-.487.427-.711.621.158.281.329.2.462.2,4.325.005,8.654.1,12.976-.024a8.372,8.372,0,0,0,8.029-6.974,18.787,18.787,0,0,0,.147-3.569h4.2c0,1.381,0,2.735,0,4.089a8.791,8.791,0,0,1-.545,3.244,7.342,7.342,0,0,1-5.712,4.768,9.152,9.152,0,0,1-1.817.1c-5.646-.028-11.292-.021-16.938-.011-.613,0-1.165-.03-1.431-.7a2.274,2.274,0,0,1,.346-2.028c.589-.515.991-1.065.615-1.884l1.741-1.817a.949.949,0,0,0,1.409-.079,7.043,7.043,0,0,0,.9-.919,1.777,1.777,0,0,1,1.967-.705" transform="translate(-88.01 -309.575)" fill="#e1f7fe"/>
          <path id="Trazado_755835" data-name="Trazado 755835" d="M42.084,325.872l-1.741,1.817a1.5,1.5,0,0,0-2,.492c-1.372,1.452-2.811,2.841-4.226,4.252-.672.67-1.055.673-1.721-.015-.812-.838-1.7-1.6-2.439-2.512.3-.023.434-.271.612-.449q4.717-4.709,9.426-9.426a3.149,3.149,0,0,0,.256-4.39c-.135-.168-.277-.33-.416-.494.329-.572.659-.6,1.139-.108q2.389,2.452,4.842,4.842c.381.373.3.579-.043.909-1.187,1.148-2.346,2.327-3.511,3.5-.588.591-.612.847-.176,1.586" transform="translate(-26.037 -273.527)" fill="#f27d00"/>
          <path id="Trazado_755836" data-name="Trazado 755836" d="M91.722,449.854A8.69,8.69,0,0,1,88.352,453a11.6,11.6,0,0,1-4.321,1.293,11.873,11.873,0,0,1-1.547-.13q-12.254.023-24.508.011h-.743c1.768-.992,2.882-2.593,4.236-3.928a3.362,3.362,0,0,0,2.938,1.514c6.5-.055,13-.042,19.495-.018a15.22,15.22,0,0,0,5.617-1.009,15.812,15.812,0,0,1,2.2-.881" transform="translate(-49.746 -391.008)" fill="#cdf0ff"/>
          <path id="Trazado_755837" data-name="Trazado 755837" d="M312.74,337.041a.318.318,0,0,1,.042.353,16.582,16.582,0,0,1-3.241,4.984c-1.927,1.885-3.767,3.86-5.739,5.7a14.5,14.5,0,0,1-4.388,2.669,1.291,1.291,0,0,1-.421.006,10.062,10.062,0,0,0,2.419-4.821,13.738,13.738,0,0,0,.2-2.1c.033-1.086.005-2.174.01-3.261,0-.777.243-1.03,1.036-1.044.978-.017,1.957-.033,2.934,0a9.729,9.729,0,0,0,6.949-2.368,1.179,1.179,0,0,1,.2-.106" transform="translate(-259.881 -292.952)" fill="#f3fbff"/>
          <path id="Trazado_755838" data-name="Trazado 755838" d="M26.54,318.166c.139.165.281.326.416.494a3.148,3.148,0,0,1-.256,4.39q-4.711,4.715-9.426,9.426c-.179.178-.316.426-.612.449q-.818-.837-1.637-1.674a1.068,1.068,0,0,1-.017-1.59c.386-.412.8-.8,1.2-1.2q4.929-4.932,9.859-9.862c.152-.152.318-.289.478-.434" transform="translate(-12.743 -276.546)" fill="#f38f21"/>
          <path id="Trazado_755839" data-name="Trazado 755839" d="M255.927,271.135a21.511,21.511,0,0,0,5.554-4.344,9.756,9.756,0,0,0,.871-1.105c.065-.1.132-.251.3-.173.124.058.072.192.067.287-.048.88-.018,1.76-.089,2.644a7.632,7.632,0,0,1-1.2,3.5,7.424,7.424,0,0,1-6.422,3.426c-3-.028-5.994-.01-8.991-.012-.172,0-.345-.023-.517-.035.1-.294.264-.576-.293-.591a13.153,13.153,0,0,1-3.85-.809c-.41-.139-.966-.113-1.205-.624.237-.013.474-.036.711-.036q8.132,0,16.264,0a1.653,1.653,0,0,0,.788-.161c.427-.212.673-.511.611-.931a.984.984,0,0,0-.969-.853c-.54-.036-1.083-.016-1.625-.021.014-.016.041-.035.039-.047a.726.726,0,0,0-.044-.114" transform="translate(-208.738 -230.763)" fill="#e1f7fe"/>
          <path id="Trazado_755840" data-name="Trazado 755840" d="M379.732,20.735l0-5.738c1.04-.007,2.081-.027,3.121-.017a1.108,1.108,0,0,1,1.177,1.193c0,2.82-.01,5.639-.016,8.459l-.254.008c-.634-.67-1.245-1.362-1.907-2-.683-.66-1.415-1.27-2.125-1.9" transform="translate(-330.059 -13.019)" fill="#e1f7fe"/>
          <path id="Trazado_755841" data-name="Trazado 755841" d="M189.03,324.89c.24.511.8.484,1.205.623a13.15,13.15,0,0,0,3.85.809c.558.015.393.3.293.591-1.384.012-2.767.035-4.151.034-2.964,0-5.927-.018-8.891-.029.039-.259.261-.381.418-.548.465-.5.937-.989,1.407-1.482q2.935-.089,5.869,0" transform="translate(-157.615 -282.35)" fill="#f3fbff"/>
          <path id="Trazado_755842" data-name="Trazado 755842" d="M153.435,77.077c-.593.918-1.458,1.63-1.99,2.594a2.359,2.359,0,0,0-.395.788.676.676,0,0,1-.657.521c-1.75.174-1.749.178-1.749-1.548,0-.694.018-1.389-.007-2.082-.014-.382.083-.536.5-.528,1.43.029,2.862.02,4.293.026q0,.114,0,.229" transform="translate(-129.193 -66.772)" fill="#91b3fa"/>
          <path id="Trazado_755843" data-name="Trazado 755843" d="M126.568,304.069c.293-.043.442.163.609.331q1.337,1.338,2.673,2.676a1.81,1.81,0,0,1,.091,1.892c-.1.122-.181.074-.27.009a3.826,3.826,0,0,1-.457-.35c-1.249-1.241-2.479-2.5-3.745-3.725-.413-.4-.265-.519.178-.616.308-.068.614-.144.921-.216" transform="translate(-108.845 -264.289)" fill="#f38f21"/>
          <path id="Trazado_755844" data-name="Trazado 755844" d="M179.24,324.688c-.469.494-.942.984-1.407,1.482-.157.168-.379.289-.418.548-.21.03-.6.067-.59-.036a2.249,2.249,0,0,1,.353-1.169,1.837,1.837,0,0,1,2.061-.825" transform="translate(-153.695 -282.149)" fill="#e1f7fe"/>
          <path id="Trazado_755845" data-name="Trazado 755845" d="M207.209,305.579h-2.884c.032-.116-.014-.176-.131-.187a2.264,2.264,0,0,1,2.1-.332,2.687,2.687,0,0,1,.911.484l.008.034" transform="translate(-177.483 -265.046)" fill="#e1f7fe"/>
          <path id="Trazado_755846" data-name="Trazado 755846" d="M201.9,308.435c.117.011.163.072.131.187a.556.556,0,0,1-.476-.008l.345-.179" transform="translate(-175.192 -268.088)" fill="#67cd89"/>
          <path id="Trazado_755847" data-name="Trazado 755847" d="M160.736,185.535c.048.19.092.378-.2.4-.009-.171-.05-.357.2-.4" transform="translate(-139.532 -161.265)" fill="#363636"/>
          <path id="Trazado_755848" data-name="Trazado 755848" d="M358.781,308.562a.723.723,0,0,1,.044.114c0,.012-.025.031-.039.047h-.3a.217.217,0,0,1,.295-.16" transform="translate(-311.592 -268.189)" fill="#67cd89"/>
          <path id="Trazado_755849" data-name="Trazado 755849" d="M410.558,88.792l.254-.008a1.4,1.4,0,0,1-.018.214c-.137.007-.182-.107-.236-.206" transform="translate(-356.852 -77.17)" fill="#d7ebf2"/>
          <path id="Trazado_755850" data-name="Trazado 755850" d="M185.3,77.253q0-.114,0-.229c.221.073.111.151,0,.229" transform="translate(-161.054 -66.948)" fill="#4bba62"/>
          <path id="Trazado_755851" data-name="Trazado 755851" d="M227.185,309.629l-.008-.034.1.018-.092.016" transform="translate(-197.46 -269.097)" fill="#67cd89"/>
          <path id="Trazado_755852" data-name="Trazado 755852" d="M161.811,371.263l.027.033-.024.035a.4.4,0,0,1-.1,0c-.016-.084.043-.071.094-.065" transform="translate(-140.56 -322.694)" fill="#a1bcc8"/>
          <path id="Trazado_755853" data-name="Trazado 755853" d="M206.574,80.06c.664.364.73.736.619,1.455-.158,1.018-.971,1.644-1.323,2.5a11.1,11.1,0,0,1-2.146,2.917,11.53,11.53,0,0,1-3.006,2.339,24.169,24.169,0,0,1-3.6,1.68,2.012,2.012,0,0,1-1.526.144c-.075-.029-.195-.054-.245-.016-.861.65-1.854.356-2.8.387a6.135,6.135,0,0,1-2.279-.162,1.483,1.483,0,0,1-.362-.12,6.078,6.078,0,0,0-1.943-.518,5.7,5.7,0,0,1-.891-.364,10.039,10.039,0,0,1-2.98-1.721c-.528-.551-1.237-.848-1.692-1.553-.355-.55-1.084-.922-1.51-1.527a12.442,12.442,0,0,1-1.577-2.586,18.654,18.654,0,0,1-1.137-3.029c-.063-.317-.251-.652.019-.972.076-.09.108-.243.032-.3-.555-.427-.318-1.035-.365-1.569a13.648,13.648,0,0,1,.88-6.157,6.852,6.852,0,0,1,1.864-3.215,6.988,6.988,0,0,0,.807-1.141c.421-.528.934-.952,1.387-1.439a15.326,15.326,0,0,1,3.534-2.371c.3-.184.722-.2.869-.618a.245.245,0,0,1,.207-.117c.781.283,1.373-.356,2.1-.43a32.156,32.156,0,0,1,3.873-.393c.424.008.89.348,1.285-.107.02-.023.153.044.23.078a10.541,10.541,0,0,0,3.729.938c.379.019.482.4.778.546a19.221,19.221,0,0,1,3.513,2.375,14.539,14.539,0,0,1,3.283,4,11.708,11.708,0,0,1,1.31,3.242,13.165,13.165,0,0,1,.507,4.174c-.045.648-.566.526-.924.681-.274-.205-.821.044-.889-.44a8.144,8.144,0,0,1-.146-1.074,12.174,12.174,0,0,0-1.854-6.138c-.08-.137-.109-.4-.4-.32a18.968,18.968,0,0,1-2.581.133q-9.537-.015-19.073-.032c-.182,0-.352.009-.45.182a16.012,16.012,0,0,0-1.223,2.483,16.556,16.556,0,0,0-.758,3.368c-.015.088.016.127.108.1q8.033.008,16.065.016c1.994,0,3.988-.007,5.982-.01.237.007.474.009.71.023a.969.969,0,0,1,.987.944.979.979,0,0,1-.992,1.01c-.366.018-.732.017-1.1.024-.195-.012-.39-.033-.585-.033q-10.333,0-20.665,0c-.17,0-.34.018-.553.03a1.994,1.994,0,0,1,.16.773c.021,1.179.147,1.291,1.3,1.291q6.682,0,13.364,0c2.107,0,4.214-.015,6.322-.023.258.008.516,0,.773.027.748.068,1.1.444,1.063,1.127-.026.509-.439.811-1.135.824-.624.011-1.248.017-1.871.025-.13-.008-.259-.023-.389-.023H180.7c.277.569.524,1.051.747,1.544a.9.9,0,0,0,.96.563c4.845-.019,9.69-.008,14.535-.018a1.743,1.743,0,0,1,1.028.276c.584,1.028.2,1.679-.995,1.689-.409,0-.818.015-1.227.022H183.308a13.735,13.735,0,0,0,3.572,2.7c.232.1.47.181.695.291a11.526,11.526,0,0,0,4.364,1.146,13.27,13.27,0,0,0,6.563-1.25,12.653,12.653,0,0,0,3.7-2.494c.164-.163.424-.251.54-.437a18.569,18.569,0,0,0,2.541-4.389,1.133,1.133,0,0,1,1.294-.954m-4.288-12.822c.168-.051.133-.12.017-.2a12.079,12.079,0,0,0-4.291-2.886,13.083,13.083,0,0,0-6.638-.866,7.091,7.091,0,0,0-3.337.758c-.677.435-1.491.709-2.19,1.153a6.817,6.817,0,0,0-2.281,1.932l-.14.109.184.009c3.406.006,6.812.018,10.218.016,2.82,0,5.64-.019,8.46-.03" transform="translate(-154.554 -53.063)"/>
          <path id="Trazado_755854" data-name="Trazado 755854" d="M259.906,134.917c.624-.008,1.248-.014,1.871-.025.7-.013,1.109-.315,1.134-.824.035-.683-.314-1.06-1.063-1.127-.256-.023-.515-.019-.773-.027l.655-2.037c.366-.007.733-.006,1.1-.024a.979.979,0,0,0,.992-1.01.969.969,0,0,0-.987-.944c-.236-.014-.473-.016-.71-.023q0-1.031,0-2.062c.531-.19,1.007-.467.9-1.122a1.069,1.069,0,0,0-1.157-.881,5.919,5.919,0,0,0-.4-2.042,18.947,18.947,0,0,0,2.581-.133c.289-.08.318.183.4.32a12.175,12.175,0,0,1,1.854,6.138,8.16,8.16,0,0,0,.146,1.074c.068.484.615.235.889.44a7.068,7.068,0,0,1-.527,2.969,1.133,1.133,0,0,0-1.294.955,18.567,18.567,0,0,1-2.541,4.39c-.116.185-.377.273-.54.436a12.646,12.646,0,0,1-3.7,2.494,13.27,13.27,0,0,1-6.563,1.25,11.526,11.526,0,0,1-4.364-1.147c-.225-.11-.463-.194-.695-.29.082-.354.372-.237.584-.234a14.1,14.1,0,0,0,8.281-2.462c.409-.008.818-.019,1.226-.023,1.195-.01,1.579-.661.995-1.689,0-.275.225-.406.381-.58a11.461,11.461,0,0,0,1.318-1.761" transform="translate(-214.795 -106.58)" fill="#7bddfe"/>
          <path id="Trazado_755855" data-name="Trazado 755855" d="M213.951,123.536a5.923,5.923,0,0,1,.4,2.042L202.5,125.6a6.086,6.086,0,0,0-.651.012.928.928,0,0,0-.72,1.478c.276.47.722.465,1.175.466l12.305.023q0,1.031,0,2.062c-1.994,0-3.988.012-5.982.01q-8.033,0-16.065-.016l-.108-.1a16.552,16.552,0,0,1,.758-3.368,16.01,16.01,0,0,1,1.223-2.483c.1-.172.269-.182.45-.182q9.537.019,19.073.032" transform="translate(-167.273 -107.348)" fill="#a5e8fe"/>
          <path id="Trazado_755856" data-name="Trazado 755856" d="M221.773,81.39a6.818,6.818,0,0,1,2.281-1.932c.7-.445,1.513-.718,2.19-1.153a7.092,7.092,0,0,1,3.337-.758,13.083,13.083,0,0,1,6.638.866,12.076,12.076,0,0,1,4.291,2.886q-.009.1-.017.2c-2.82.01-5.64.028-8.46.03-3.406,0-6.812-.01-10.218-.016a.151.151,0,0,0-.044-.118" transform="translate(-192.763 -67.321)" fill="#91b3fa"/>
          <path id="Trazado_755857" data-name="Trazado 755857" d="M213.936,185.51l-.655,2.037c-2.107.008-4.214.022-6.322.023q-6.682.005-13.364,0c-1.155,0-1.281-.112-1.3-1.291a1.994,1.994,0,0,0-.16-.773c.213-.012.383-.03.553-.03q10.333,0,20.665,0c.195,0,.39.021.585.033" transform="translate(-167 -161.213)" fill="#a5e8fe"/>
          <path id="Trazado_755858" data-name="Trazado 755858" d="M218.815,216.465a11.466,11.466,0,0,1-1.318,1.761c-.156.174-.379.3-.381.58a1.744,1.744,0,0,0-1.029-.276c-4.845.009-9.69,0-14.535.018a.9.9,0,0,1-.96-.563c-.223-.493-.47-.975-.747-1.544h18.58c.13,0,.259.015.389.023" transform="translate(-173.704 -188.128)" fill="#a5e8fe"/>
          <path id="Trazado_755859" data-name="Trazado 755859" d="M232.249,247.6a14.1,14.1,0,0,1-8.281,2.462c-.212,0-.5-.12-.584.234a13.738,13.738,0,0,1-3.572-2.7Z" transform="translate(-191.058 -215.21)" fill="#a5e8fe"/>
          <path id="Trazado_755860" data-name="Trazado 755860" d="M364.887,107.055q.008-.1.017-.2c.116.076.151.145-.017.2" transform="translate(-317.156 -92.881)" fill="#5b6265"/>
          <path id="Trazado_755861" data-name="Trazado 755861" d="M220.841,107.556a.152.152,0,0,1,.044.118l-.184-.009.14-.109" transform="translate(-191.831 -93.486)" fill="#5b6265"/>
          <path id="Trazado_755862" data-name="Trazado 755862" d="M192.423,169.624l.108.1c-.092.026-.123-.013-.108-.1" transform="translate(-167.248 -147.435)" fill="#a1bcc8"/>
          <path id="Trazado_755863" data-name="Trazado 755863" d="M271.155,141.367l-12.305-.023c-.453,0-.9,0-1.175-.466a.928.928,0,0,1,.721-1.478,6.054,6.054,0,0,1,.651-.012l11.849-.025a1.069,1.069,0,0,1,1.157.881c.109.655-.366.932-.9,1.122" transform="translate(-223.821 -121.134)"/>
        </g>
      </g>
    </g>
  </g>
</svg>
