<svg xmlns="http://www.w3.org/2000/svg" xmlns:xlink="http://www.w3.org/1999/xlink" width="608" height="397" viewBox="0 0 608 397">
  <defs>
    <clipPath id="clip-path">
      <rect id="Rectángulo_360733" data-name="Rectángulo 360733" width="40.484" height="31.372" fill="#12263f"/>
    </clipPath>
    <clipPath id="clip-path-2">
      <rect id="Rectángulo_360733-2" data-name="Rectángulo 360733" width="60.484" height="69.372" transform="translate(0 -38)" fill="#12263f"/>
    </clipPath>
  </defs>
  <g id="Grupo_1024394" data-name="Grupo 1024394" transform="translate(-182 -8545)">
    <path id="Trazado_762524" data-name="Trazado 762524" d="M0,0H608V397H0Z" transform="translate(182 8545)" fill="#f6f6f6"/>
    <path id="Trazado_762559" data-name="Trazado 762559" d="M4.157,0H-5.8l.236-1.515L.2-7.122,1.257-8.164a6.165,6.165,0,0,0,2.009-3.352A2.485,2.485,0,0,0,2.8-13.444a2.173,2.173,0,0,0-1.7-.79,3.2,3.2,0,0,0-2.353.822A3.775,3.775,0,0,0-2.4-11.043l-1.923.011a5.44,5.44,0,0,1,.886-2.551,4.937,4.937,0,0,1,1.966-1.708,5.649,5.649,0,0,1,2.648-.564A4.34,4.34,0,0,1,4.27-14.679a3.485,3.485,0,0,1,.983,2.938A7.487,7.487,0,0,1,2.879-7.4l-.988,1-5.027,4.78H4.415Z" transform="translate(290 8823.534)" fill="#12263f"/>
    <path id="Trazado_762549" data-name="Trazado 762549" d="M4.157,0H-5.8l.236-1.515L.2-7.122,1.257-8.164a6.165,6.165,0,0,0,2.009-3.352A2.485,2.485,0,0,0,2.8-13.444a2.173,2.173,0,0,0-1.7-.79,3.2,3.2,0,0,0-2.353.822A3.775,3.775,0,0,0-2.4-11.043l-1.923.011a5.44,5.44,0,0,1,.886-2.551,4.937,4.937,0,0,1,1.966-1.708,5.649,5.649,0,0,1,2.648-.564A4.34,4.34,0,0,1,4.27-14.679a3.485,3.485,0,0,1,.983,2.938A7.487,7.487,0,0,1,2.879-7.4l-.988,1-5.027,4.78H4.415Z" transform="translate(609 8648.535)" fill="#12263f"/>
    <path id="Trazado_762528" data-name="Trazado 762528" d="M4.157,0H-5.8l.236-1.515L.2-7.122,1.257-8.164a6.165,6.165,0,0,0,2.009-3.352A2.485,2.485,0,0,0,2.8-13.444a2.173,2.173,0,0,0-1.7-.79,3.2,3.2,0,0,0-2.353.822A3.775,3.775,0,0,0-2.4-11.043l-1.923.011a5.44,5.44,0,0,1,.886-2.551,4.937,4.937,0,0,1,1.966-1.708,5.649,5.649,0,0,1,2.648-.564A4.34,4.34,0,0,1,4.27-14.679a3.485,3.485,0,0,1,.983,2.938A7.487,7.487,0,0,1,2.879-7.4l-.988,1-5.027,4.78H4.415Z" transform="translate(667 8738.349)" fill="#12263f"/>
    <path id="Trazado_762553" data-name="Trazado 762553" d="M-6.418,0-3.7-15.641.36-15.63a5.638,5.638,0,0,1,3.292.956,5.273,5.273,0,0,1,1.982,2.637,8.2,8.2,0,0,1,.354,3.765l-.107.784A8.844,8.844,0,0,1,3.228-2.036,7.716,7.716,0,0,1-2.25,0Zm4.437-13.954L-4.109-1.7l1.987.011A5.585,5.585,0,0,0,1.74-3.1,6.731,6.731,0,0,0,3.8-6.993a12.652,12.652,0,0,0,.258-3.362,4.1,4.1,0,0,0-1.106-2.6,3.582,3.582,0,0,0-2.535-.983Z" transform="translate(334 8823.534)" fill="#12263f"/>
    <path id="Trazado_762550" data-name="Trazado 762550" d="M-6.418,0-3.7-15.641.36-15.63a5.638,5.638,0,0,1,3.292.956,5.273,5.273,0,0,1,1.982,2.637,8.2,8.2,0,0,1,.354,3.765l-.107.784A8.844,8.844,0,0,1,3.228-2.036,7.716,7.716,0,0,1-2.25,0Zm4.437-13.954L-4.109-1.7l1.987.011A5.585,5.585,0,0,0,1.74-3.1,6.731,6.731,0,0,0,3.8-6.993a12.652,12.652,0,0,0,.258-3.362,4.1,4.1,0,0,0-1.106-2.6,3.582,3.582,0,0,0-2.535-.983Z" transform="translate(653 8648.535)" fill="#12263f"/>
    <path id="Trazado_762529" data-name="Trazado 762529" d="M-6.418,0-3.7-15.641.36-15.63a5.638,5.638,0,0,1,3.292.956,5.273,5.273,0,0,1,1.982,2.637,8.2,8.2,0,0,1,.354,3.765l-.107.784A8.844,8.844,0,0,1,3.228-2.036,7.716,7.716,0,0,1-2.25,0Zm4.437-13.954L-4.109-1.7l1.987.011A5.585,5.585,0,0,0,1.74-3.1,6.731,6.731,0,0,0,3.8-6.993a12.652,12.652,0,0,0,.258-3.362,4.1,4.1,0,0,0-1.106-2.6,3.582,3.582,0,0,0-2.535-.983Z" transform="translate(711 8738.349)" fill="#12263f"/>
    <path id="Trazado_762539" data-name="Trazado 762539" d="M3.035-4.028q.236-1.719-1.783-2.514L-.607-7.219l-.623-.269Q-4.367-8.916-4.163-11.5a4.2,4.2,0,0,1,.892-2.3,5.073,5.073,0,0,1,2.079-1.542,6.668,6.668,0,0,1,2.755-.51,5.5,5.5,0,0,1,2.53.634,4.073,4.073,0,0,1,1.692,1.681A4.583,4.583,0,0,1,6.3-11.107l-2.03-.011a2.8,2.8,0,0,0-.645-2.237,2.886,2.886,0,0,0-2.148-.814,4,4,0,0,0-2.46.689,2.688,2.688,0,0,0-1.139,1.937q-.215,1.6,1.966,2.432l1.6.57L2.25-8.2Q5.28-6.8,5.054-4.05a4.142,4.142,0,0,1-.892,2.283,4.985,4.985,0,0,1-2.1,1.488A7.24,7.24,0,0,1-.79.215,5.967,5.967,0,0,1-3.48-.414,4.39,4.39,0,0,1-5.333-2.105a4.232,4.232,0,0,1-.559-2.438l2.02.011a2.661,2.661,0,0,0,.757,2.218A3.409,3.409,0,0,0-.7-1.472a4.306,4.306,0,0,0,2.567-.677A2.635,2.635,0,0,0,3.035-4.028Z" transform="translate(378 8823.534)" fill="#12263f"/>
    <path id="Trazado_762551" data-name="Trazado 762551" d="M3.035-4.028q.236-1.719-1.783-2.514L-.607-7.219l-.623-.269Q-4.367-8.916-4.163-11.5a4.2,4.2,0,0,1,.892-2.3,5.073,5.073,0,0,1,2.079-1.542,6.668,6.668,0,0,1,2.755-.51,5.5,5.5,0,0,1,2.53.634,4.073,4.073,0,0,1,1.692,1.681A4.583,4.583,0,0,1,6.3-11.107l-2.03-.011a2.8,2.8,0,0,0-.645-2.237,2.886,2.886,0,0,0-2.148-.814,4,4,0,0,0-2.46.689,2.688,2.688,0,0,0-1.139,1.937q-.215,1.6,1.966,2.432l1.6.57L2.25-8.2Q5.28-6.8,5.054-4.05a4.142,4.142,0,0,1-.892,2.283,4.985,4.985,0,0,1-2.1,1.488A7.24,7.24,0,0,1-.79.215,5.967,5.967,0,0,1-3.48-.414,4.39,4.39,0,0,1-5.333-2.105a4.232,4.232,0,0,1-.559-2.438l2.02.011a2.661,2.661,0,0,0,.757,2.218A3.409,3.409,0,0,0-.7-1.472a4.306,4.306,0,0,0,2.567-.677A2.635,2.635,0,0,0,3.035-4.028Z" transform="translate(697 8648.535)" fill="#12263f"/>
    <path id="Trazado_762530" data-name="Trazado 762530" d="M3.035-4.028q.236-1.719-1.783-2.514L-.607-7.219l-.623-.269Q-4.367-8.916-4.163-11.5a4.2,4.2,0,0,1,.892-2.3,5.073,5.073,0,0,1,2.079-1.542,6.668,6.668,0,0,1,2.755-.51,5.5,5.5,0,0,1,2.53.634,4.073,4.073,0,0,1,1.692,1.681A4.583,4.583,0,0,1,6.3-11.107l-2.03-.011a2.8,2.8,0,0,0-.645-2.237,2.886,2.886,0,0,0-2.148-.814,4,4,0,0,0-2.46.689,2.688,2.688,0,0,0-1.139,1.937q-.215,1.6,1.966,2.432l1.6.57L2.25-8.2Q5.28-6.8,5.054-4.05a4.142,4.142,0,0,1-.892,2.283,4.985,4.985,0,0,1-2.1,1.488A7.24,7.24,0,0,1-.79.215,5.967,5.967,0,0,1-3.48-.414,4.39,4.39,0,0,1-5.333-2.105a4.232,4.232,0,0,1-.559-2.438l2.02.011a2.661,2.661,0,0,0,.757,2.218A3.409,3.409,0,0,0-.7-1.472a4.306,4.306,0,0,0,2.567-.677A2.635,2.635,0,0,0,3.035-4.028Z" transform="translate(755 8738.349)" fill="#12263f"/>
    <path id="Trazado_762557" data-name="Trazado 762557" d="M-.526-10.608-3.5-11.574l.73-1.545L.215-11.906l.548-3.734H2.374l-.752,3.691,3.255-1.159.2,1.706L1.7-10.425,3.276-7.471,1.9-6.526.494-9.641-1.891-6.633-3.115-7.686Z" transform="translate(311 8827.534)" fill="#12263f"/>
    <path id="Trazado_762546" data-name="Trazado 762546" d="M-.526-10.608-3.5-11.574l.73-1.545L.215-11.906l.548-3.734H2.374l-.752,3.691,3.255-1.159.2,1.706L1.7-10.425,3.276-7.471,1.9-6.526.494-9.641-1.891-6.633-3.115-7.686Z" transform="translate(630 8652.535)" fill="#12263f"/>
    <path id="Trazado_762531" data-name="Trazado 762531" d="M-.526-10.608-3.5-11.574l.73-1.545L.215-11.906l.548-3.734H2.374l-.752,3.691,3.255-1.159.2,1.706L1.7-10.425,3.276-7.471,1.9-6.526.494-9.641-1.891-6.633-3.115-7.686Z" transform="translate(688 8742.349)" fill="#12263f"/>
    <path id="Trazado_762547" data-name="Trazado 762547" d="M-.526-10.608-3.5-11.574l.73-1.545L.215-11.906l.548-3.734H2.374l-.752,3.691,3.255-1.159.2,1.706L1.7-10.425,3.276-7.471,1.9-6.526.494-9.641-1.891-6.633-3.115-7.686Z" transform="translate(355 8827.534)" fill="#12263f"/>
    <path id="Trazado_762548" data-name="Trazado 762548" d="M-.526-10.608-3.5-11.574l.73-1.545L.215-11.906l.548-3.734H2.374l-.752,3.691,3.255-1.159.2,1.706L1.7-10.425,3.276-7.471,1.9-6.526.494-9.641-1.891-6.633-3.115-7.686Z" transform="translate(674 8652.535)" fill="#12263f"/>
    <path id="Trazado_762532" data-name="Trazado 762532" d="M-.526-10.608-3.5-11.574l.73-1.545L.215-11.906l.548-3.734H2.374l-.752,3.691,3.255-1.159.2,1.706L1.7-10.425,3.276-7.471,1.9-6.526.494-9.641-1.891-6.633-3.115-7.686Z" transform="translate(732 8742.349)" fill="#12263f"/>
    <path id="Trazado_762554" data-name="Trazado 762554" d="M4.863,0H2.751L4.065-7.558H-3.919L-5.233,0H-7.345L-4.5-16.352h2.111l-1.224,7.03H4.357l1.224-7.03H7.7Z" transform="translate(334 8857.534)" fill="#12263f"/>
    <path id="Trazado_762540" data-name="Trazado 762540" d="M4.863,0H2.751L4.065-7.558H-3.919L-5.233,0H-7.345L-4.5-16.352h2.111l-1.224,7.03H4.357l1.224-7.03H7.7Z" transform="translate(653 8682.535)" fill="#12263f"/>
    <path id="Trazado_762525" data-name="Trazado 762525" d="M4.863,0H2.751L4.065-7.558H-3.919L-5.233,0H-7.345L-4.5-16.352h2.111l-1.224,7.03H4.357l1.224-7.03H7.7Z" transform="translate(711 8772.349)" fill="#12263f"/>
    <path id="Trazado_762526" data-name="Trazado 762526" d="M3.023,0H-4.219l.172-1.1L.148-5.18l.766-.758A4.483,4.483,0,0,0,2.375-8.375a1.807,1.807,0,0,0-.336-1.4A1.58,1.58,0,0,0,.8-10.352a2.328,2.328,0,0,0-1.711.6,2.745,2.745,0,0,0-.836,1.723l-1.4.008A3.956,3.956,0,0,1-2.5-9.879a3.59,3.59,0,0,1,1.43-1.242,4.108,4.108,0,0,1,1.926-.41,3.156,3.156,0,0,1,2.246.855A2.535,2.535,0,0,1,3.82-8.539,5.445,5.445,0,0,1,2.094-5.383l-.719.727L-2.281-1.18H3.211Z" transform="translate(459 8825.534)" fill="#12263f"/>
    <path id="Trazado_762527" data-name="Trazado 762527" d="M-19.019-7.229h-6.574l-.967,5.543h7.648L-19.212,0H-28.87l2.718-15.641h9.55l-.3,1.687h-7.53l-.87,5.038h6.574ZM-10.9.215A5.008,5.008,0,0,1-13.492-.5,4.663,4.663,0,0,1-15.227-2.53a7.628,7.628,0,0,1-.7-3,14.26,14.26,0,0,1,.29-3.212,11.014,11.014,0,0,1,1.225-3.448,7.77,7.77,0,0,1,2.116-2.46,6.091,6.091,0,0,1,3.846-1.2,4.627,4.627,0,0,1,3.609,1.584A6.589,6.589,0,0,1-3.421-10.1a15.366,15.366,0,0,1-.231,2.868A11.874,11.874,0,0,1-4.63-4a8.07,8.07,0,0,1-1.789,2.5A6.151,6.151,0,0,1-10.9.215ZM-5.409-9.6a5.42,5.42,0,0,0-.741-3.282,2.822,2.822,0,0,0-2.4-1.208,4.074,4.074,0,0,0-2.573.773,5.855,5.855,0,0,0-1.858,2.444,12.592,12.592,0,0,0-.918,4.12l-.032.7a5.466,5.466,0,0,0,.752,3.3A2.8,2.8,0,0,0-10.8-1.525,4.138,4.138,0,0,0-7.434-2.992a8.328,8.328,0,0,0,1.778-4.27A19.24,19.24,0,0,0-5.409-9.6ZM7.256-.816,9.587,1.429,8.094,2.643,5.366.032A7.5,7.5,0,0,1,3.776.2,4.823,4.823,0,0,1,1.187-.51,4.64,4.64,0,0,1-.548-2.541a7.752,7.752,0,0,1-.682-3A14.279,14.279,0,0,1-.945-8.771a10.936,10.936,0,0,1,1.2-3.384A7.883,7.883,0,0,1,2.3-14.588a6.106,6.106,0,0,1,3.932-1.268,5.073,5.073,0,0,1,2.632.73A4.572,4.572,0,0,1,10.6-13.1a7.816,7.816,0,0,1,.677,3A11.533,11.533,0,0,1,11.2-8.3l-.129.913Q10.4-2.761,7.256-.816ZM9.276-9.6a5.316,5.316,0,0,0-.741-3.3A2.844,2.844,0,0,0,6.15-14.094a4.074,4.074,0,0,0-2.573.773,5.855,5.855,0,0,0-1.858,2.444A12.592,12.592,0,0,0,.8-6.757l-.032.7a6.936,6.936,0,0,0,.29,2.31A3.173,3.173,0,0,0,2.116-2.116a2.982,2.982,0,0,0,1.778.591A4.066,4.066,0,0,0,7.219-2.954,8.226,8.226,0,0,0,9.018-7.2,18.47,18.47,0,0,0,9.276-9.6Zm19.089.859h-8.7l.3-1.729h8.712Zm-.773,4.458h-8.7L19.191-6H27.9Z" transform="translate(577 8747.722)" fill="#12263f"/>
    <path id="Trazado_762536" data-name="Trazado 762536" d="M2.073-8.744h-8.7l.3-1.729H2.385ZM1.3-4.286H-7.4L-7.1-6H1.611Z" transform="translate(412 8840.534)" fill="#12263f"/>
    <path id="Trazado_762542" data-name="Trazado 762542" d="M2.073-8.744h-8.7l.3-1.729H2.385ZM1.3-4.286H-7.4L-7.1-6H1.611Z" transform="translate(731 8665.535)" fill="#12263f"/>
    <path id="Trazado_762533" data-name="Trazado 762533" d="M5.049-.816,7.38,1.429,5.887,2.643,3.158.032A7.5,7.5,0,0,1,1.568.2,4.823,4.823,0,0,1-1.021-.51a4.64,4.64,0,0,1-1.735-2.03,7.752,7.752,0,0,1-.682-3,14.279,14.279,0,0,1,.285-3.228,10.936,10.936,0,0,1,1.2-3.384A7.883,7.883,0,0,1,.1-14.588a6.106,6.106,0,0,1,3.932-1.268,5.073,5.073,0,0,1,2.632.73A4.572,4.572,0,0,1,8.39-13.1a7.816,7.816,0,0,1,.677,3A11.533,11.533,0,0,1,8.991-8.3l-.129.913Q8.2-2.761,5.049-.816ZM7.068-9.6a5.316,5.316,0,0,0-.741-3.3,2.844,2.844,0,0,0-2.385-1.192,4.074,4.074,0,0,0-2.573.773A5.855,5.855,0,0,0-.489-10.876a12.592,12.592,0,0,0-.918,4.12l-.032.7a6.936,6.936,0,0,0,.29,2.31A3.173,3.173,0,0,0-.091-2.116a2.982,2.982,0,0,0,1.778.591A4.066,4.066,0,0,0,5.011-2.954,8.226,8.226,0,0,0,6.811-7.2,18.47,18.47,0,0,0,7.068-9.6Z" transform="translate(445 8838.534)" fill="#12263f"/>
    <path id="Trazado_762543" data-name="Trazado 762543" d="M5.049-.816,7.38,1.429,5.887,2.643,3.158.032A7.5,7.5,0,0,1,1.568.2,4.823,4.823,0,0,1-1.021-.51a4.64,4.64,0,0,1-1.735-2.03,7.752,7.752,0,0,1-.682-3,14.279,14.279,0,0,1,.285-3.228,10.936,10.936,0,0,1,1.2-3.384A7.883,7.883,0,0,1,.1-14.588a6.106,6.106,0,0,1,3.932-1.268,5.073,5.073,0,0,1,2.632.73A4.572,4.572,0,0,1,8.39-13.1a7.816,7.816,0,0,1,.677,3A11.533,11.533,0,0,1,8.991-8.3l-.129.913Q8.2-2.761,5.049-.816ZM7.068-9.6a5.316,5.316,0,0,0-.741-3.3,2.844,2.844,0,0,0-2.385-1.192,4.074,4.074,0,0,0-2.573.773A5.855,5.855,0,0,0-.489-10.876a12.592,12.592,0,0,0-.918,4.12l-.032.7a6.936,6.936,0,0,0,.29,2.31A3.173,3.173,0,0,0-.091-2.116a2.982,2.982,0,0,0,1.778.591A4.066,4.066,0,0,0,5.011-2.954,8.226,8.226,0,0,0,6.811-7.2,18.47,18.47,0,0,0,7.068-9.6Z" transform="translate(744 8663.535)" fill="#12263f"/>
    <path id="Trazado_762538" data-name="Trazado 762538" d="M0,0H112V3H0Z" transform="translate(278 8831.534)" fill="#12263f"/>
    <path id="Trazado_762545" data-name="Trazado 762545" d="M0,0H112V3H0Z" transform="translate(597 8656.535)" fill="#12263f"/>
    <path id="Trazado_762534" data-name="Trazado 762534" d="M0,0H112V3H0Z" transform="translate(655 8746.349)" fill="#12263f"/>
    <g id="Grupo_1024360" data-name="Grupo 1024360" transform="translate(414.758 8808.534)">
      <g id="Grupo_1024359" data-name="Grupo 1024359" clip-path="url(#clip-path)">
        <path id="Trazado_762442" data-name="Trazado 762442" d="M13.5,23.625c.425-1.087.823-2.095,1.214-3.106Q17.156,14.194,19.6,7.868c.81-2.095,1.636-4.183,2.436-6.282A2.153,2.153,0,0,1,23.5.091a2.676,2.676,0,0,1,.666-.083c4.7,0,9.4,0,14.1-.008A2.069,2.069,0,0,1,40.45,1.671,1.984,1.984,0,0,1,38.74,3.99c-.409.041-.824.016-1.236.016q-5.937,0-11.874,0c-.161,0-.255.027-.319.192q-1.553,4.035-3.118,8.066-2.152,5.55-4.306,11.1-1.221,3.155-2.424,6.318a2.416,2.416,0,0,1-1.137,1.471,1.95,1.95,0,0,1-2.684-.925c-.345-.787-.615-1.607-.906-2.418q-1.687-4.7-3.373-9.408a.338.338,0,0,0-.249-.181c-1.585-.013-3.17,0-4.754-.021a3.274,3.274,0,0,1-1.074-.147A1.936,1.936,0,0,1,.012,15.99a1.958,1.958,0,0,1,1.8-1.762c.532-.04,1.068-.038,1.6-.039q2.518-.008,5.037,0A2.039,2.039,0,0,1,10.654,15.7c.739,2,1.444,4.015,2.163,6.024l.683,1.9" transform="translate(0 0)" fill="#12263f"/>
      </g>
    </g>
    <g id="Grupo_1024361" data-name="Grupo 1024361" transform="translate(233 8833.534)">
      <g id="Grupo_1024359-2" data-name="Grupo 1024359" clip-path="url(#clip-path-2)">
        <path id="Trazado_762442-2" data-name="Trazado 762442" d="M13.5,23.625c.425-1.087.823-2.095,1.214-3.106Q17.156,14.194,19.6,7.868c.81-2.095,14.649-39.221,15.449-41.319a2.153,2.153,0,0,1,1.468-1.5,2.676,2.676,0,0,1,.666-.083c4.7,0,9.4,0,14.1-.008a2.069,2.069,0,0,1,2.187,1.671,1.984,1.984,0,0,1-1.711,2.319c-.409.041-.824.016-1.236.016q-5.937,0-11.874,0c-.161,0-.255.027-.319.192-1.036,2.69-15.089,40.416-16.131,43.1q-2.152,5.55-4.306,11.1-1.221,3.155-2.424,6.318a2.416,2.416,0,0,1-1.137,1.471,1.95,1.95,0,0,1-2.684-.925c-.345-.787-.615-1.607-.906-2.418q-1.687-4.7-3.373-9.408a.338.338,0,0,0-.249-.181c-1.585-.013-3.17,0-4.754-.021a3.274,3.274,0,0,1-1.074-.147A1.936,1.936,0,0,1,.012,15.99a1.958,1.958,0,0,1,1.8-1.762c.532-.04,1.068-.038,1.6-.039q2.518-.008,5.037,0A2.039,2.039,0,0,1,10.654,15.7c.739,2,1.444,4.015,2.163,6.024l.683,1.9" transform="translate(0 0)" fill="#12263f"/>
      </g>
    </g>
    <g id="Grupo_1024363" data-name="Grupo 1024363" transform="translate(552 8658.535)">
      <g id="Grupo_1024359-3" data-name="Grupo 1024359" clip-path="url(#clip-path-2)">
        <path id="Trazado_762442-3" data-name="Trazado 762442" d="M13.5,23.625c.425-1.087.823-2.095,1.214-3.106Q17.156,14.194,19.6,7.868c.81-2.095,14.649-39.221,15.449-41.319a2.153,2.153,0,0,1,1.468-1.5,2.676,2.676,0,0,1,.666-.083c4.7,0,9.4,0,14.1-.008a2.069,2.069,0,0,1,2.187,1.671,1.984,1.984,0,0,1-1.711,2.319c-.409.041-.824.016-1.236.016q-5.937,0-11.874,0c-.161,0-.255.027-.319.192-1.036,2.69-15.089,40.416-16.131,43.1q-2.152,5.55-4.306,11.1-1.221,3.155-2.424,6.318a2.416,2.416,0,0,1-1.137,1.471,1.95,1.95,0,0,1-2.684-.925c-.345-.787-.615-1.607-.906-2.418q-1.687-4.7-3.373-9.408a.338.338,0,0,0-.249-.181c-1.585-.013-3.17,0-4.754-.021a3.274,3.274,0,0,1-1.074-.147A1.936,1.936,0,0,1,.012,15.99a1.958,1.958,0,0,1,1.8-1.762c.532-.04,1.068-.038,1.6-.039q2.518-.008,5.037,0A2.039,2.039,0,0,1,10.654,15.7c.739,2,1.444,4.015,2.163,6.024l.683,1.9" transform="translate(0 0)" fill="#12263f"/>
      </g>
    </g>
    <g id="Grupo_1024364" data-name="Grupo 1024364" transform="translate(610 8748.349)">
      <g id="Grupo_1024359-4" data-name="Grupo 1024359" clip-path="url(#clip-path-2)">
        <path id="Trazado_762442-4" data-name="Trazado 762442" d="M13.5,23.625c.425-1.087.823-2.095,1.214-3.106Q17.156,14.194,19.6,7.868c.81-2.095,14.649-39.221,15.449-41.319a2.153,2.153,0,0,1,1.468-1.5,2.676,2.676,0,0,1,.666-.083c4.7,0,9.4,0,14.1-.008a2.069,2.069,0,0,1,2.187,1.671,1.984,1.984,0,0,1-1.711,2.319c-.409.041-.824.016-1.236.016q-5.937,0-11.874,0c-.161,0-.255.027-.319.192-1.036,2.69-15.089,40.416-16.131,43.1q-2.152,5.55-4.306,11.1-1.221,3.155-2.424,6.318a2.416,2.416,0,0,1-1.137,1.471,1.95,1.95,0,0,1-2.684-.925c-.345-.787-.615-1.607-.906-2.418q-1.687-4.7-3.373-9.408a.338.338,0,0,0-.249-.181c-1.585-.013-3.17,0-4.754-.021a3.274,3.274,0,0,1-1.074-.147A1.936,1.936,0,0,1,.012,15.99a1.958,1.958,0,0,1,1.8-1.762c.532-.04,1.068-.038,1.6-.039q2.518-.008,5.037,0A2.039,2.039,0,0,1,10.654,15.7c.739,2,1.444,4.015,2.163,6.024l.683,1.9" transform="translate(0 0)" fill="#12263f"/>
      </g>
    </g>
    <g id="Grupo_1024365" data-name="Grupo 1024365" transform="translate(43 8440.234)">
      <text id="_" data-name="=" transform="translate(289 202.486)" fill="#12263f" font-size="18" font-family="Roboto-Bold, Roboto" font-weight="700"><tspan x="-5.15" y="17">=</tspan></text>
      <text id="D" transform="translate(225 207.486)" fill="#12263f" font-size="23" font-family="Roboto-Italic, Roboto" font-style="italic"><tspan x="-7.373" y="0">D</tspan></text>
      <text id="Q" transform="translate(352 206.486)" fill="#12263f" font-size="22" font-family="Roboto-Italic, Roboto" font-style="italic"><tspan x="-7.391" y="0">Q</tspan></text>
      <text id="Q-2" data-name="Q" transform="translate(225 239.486)" fill="#12263f" font-size="22" font-family="Roboto-Italic, Roboto" font-style="italic"><tspan x="-7.391" y="0">Q</tspan></text>
      <text id="_2" data-name="2" transform="translate(352 240.486)" fill="#12263f" font-size="23" font-family="Roboto-Italic, Roboto" font-style="italic"><tspan x="-6.323" y="0">2</tspan></text>
      <text id="_S" data-name="* S" transform="translate(263 225.486)" fill="#12263f" font-size="23" font-family="Roboto-Italic, Roboto" font-style="italic"><tspan x="-14.358" y="0">* S</tspan></text>
      <text id="_H" data-name="* H" transform="translate(390 224.486)" fill="#12263f" font-size="22" font-family="Roboto-Italic, Roboto" font-style="italic"><tspan x="-15.007" y="0">* H</tspan></text>
      <rect id="Rectángulo_360713" data-name="Rectángulo 360713" width="26" height="3" transform="translate(213 215.486)" fill="#12263f"/>
      <rect id="Rectángulo_360714" data-name="Rectángulo 360714" width="26" height="3" transform="translate(340 215.486)" fill="#12263f"/>
      <text id="_2-2" data-name="(" transform="translate(201 234.486)" fill="#12263f" font-size="59" font-family="Roboto-Regular, Roboto"><tspan x="-10.083" y="0">(</tspan></text>
      <text id="_3" data-name="(" transform="translate(328 234.486)" fill="#12263f" font-size="59" font-family="Roboto-Regular, Roboto"><tspan x="-10.083" y="0">(</tspan></text>
      <text id="_4" data-name=")" transform="translate(284 236.486)" fill="#12263f" font-size="61" font-family="Roboto-Regular, Roboto"><tspan x="-10.604" y="0">)</tspan></text>
      <text id="_5" data-name=")" transform="translate(411 236.486)" fill="#12263f" font-size="61" font-family="Roboto-Regular, Roboto"><tspan x="-10.604" y="0">)</tspan></text>
    </g>
    <path id="Trazado_762560" data-name="Trazado 762560" d="M4.157,0H-5.8l.236-1.515L.2-7.122,1.257-8.164a6.165,6.165,0,0,0,2.009-3.352A2.485,2.485,0,0,0,2.8-13.444a2.173,2.173,0,0,0-1.7-.79,3.2,3.2,0,0,0-2.353.822A3.775,3.775,0,0,0-2.4-11.043l-1.923.011a5.44,5.44,0,0,1,.886-2.551,4.937,4.937,0,0,1,1.966-1.708,5.649,5.649,0,0,1,2.648-.564A4.34,4.34,0,0,1,4.27-14.679a3.485,3.485,0,0,1,.983,2.938A7.487,7.487,0,0,1,2.879-7.4l-.988,1-5.027,4.78H4.415Z" transform="translate(275 8739.721)" fill="#12263f"/>
    <path id="Trazado_762555" data-name="Trazado 762555" d="M-6.418,0-3.7-15.641.36-15.63a5.638,5.638,0,0,1,3.292.956,5.273,5.273,0,0,1,1.982,2.637,8.2,8.2,0,0,1,.354,3.765l-.107.784A8.844,8.844,0,0,1,3.228-2.036,7.716,7.716,0,0,1-2.25,0Zm4.437-13.954L-4.109-1.7l1.987.011A5.585,5.585,0,0,0,1.74-3.1,6.731,6.731,0,0,0,3.8-6.993a12.652,12.652,0,0,0,.258-3.362,4.1,4.1,0,0,0-1.106-2.6,3.582,3.582,0,0,0-2.535-.983Z" transform="translate(319 8739.721)" fill="#12263f"/>
    <path id="Trazado_762544" data-name="Trazado 762544" d="M3.035-4.028q.236-1.719-1.783-2.514L-.607-7.219l-.623-.269Q-4.367-8.916-4.163-11.5a4.2,4.2,0,0,1,.892-2.3,5.073,5.073,0,0,1,2.079-1.542,6.668,6.668,0,0,1,2.755-.51,5.5,5.5,0,0,1,2.53.634,4.073,4.073,0,0,1,1.692,1.681A4.583,4.583,0,0,1,6.3-11.107l-2.03-.011a2.8,2.8,0,0,0-.645-2.237,2.886,2.886,0,0,0-2.148-.814,4,4,0,0,0-2.46.689,2.688,2.688,0,0,0-1.139,1.937q-.215,1.6,1.966,2.432l1.6.57L2.25-8.2Q5.28-6.8,5.054-4.05a4.142,4.142,0,0,1-.892,2.283,4.985,4.985,0,0,1-2.1,1.488A7.24,7.24,0,0,1-.79.215,5.967,5.967,0,0,1-3.48-.414,4.39,4.39,0,0,1-5.333-2.105a4.232,4.232,0,0,1-.559-2.438l2.02.011a2.661,2.661,0,0,0,.757,2.218A3.409,3.409,0,0,0-.7-1.472a4.306,4.306,0,0,0,2.567-.677A2.635,2.635,0,0,0,3.035-4.028Z" transform="translate(363 8739.721)" fill="#12263f"/>
    <path id="Trazado_762558" data-name="Trazado 762558" d="M-.526-10.608-3.5-11.574l.73-1.545L.215-11.906l.548-3.734H2.374l-.752,3.691,3.255-1.159.2,1.706L1.7-10.425,3.276-7.471,1.9-6.526.494-9.641-1.891-6.633-3.115-7.686Z" transform="translate(296 8743.721)" fill="#12263f"/>
    <path id="Trazado_762552" data-name="Trazado 762552" d="M-.526-10.608-3.5-11.574l.73-1.545L.215-11.906l.548-3.734H2.374l-.752,3.691,3.255-1.159.2,1.706L1.7-10.425,3.276-7.471,1.9-6.526.494-9.641-1.891-6.633-3.115-7.686Z" transform="translate(340 8743.721)" fill="#12263f"/>
    <path id="Trazado_762556" data-name="Trazado 762556" d="M4.863,0H2.751L4.065-7.558H-3.919L-5.233,0H-7.345L-4.5-16.352h2.111l-1.224,7.03H4.357l1.224-7.03H7.7Z" transform="translate(319 8773.721)" fill="#12263f"/>
    <path id="Trazado_762535" data-name="Trazado 762535" d="M3.023,0H-4.219l.172-1.1L.148-5.18l.766-.758A4.483,4.483,0,0,0,2.375-8.375a1.807,1.807,0,0,0-.336-1.4A1.58,1.58,0,0,0,.8-10.352a2.328,2.328,0,0,0-1.711.6,2.745,2.745,0,0,0-.836,1.723l-1.4.008A3.956,3.956,0,0,1-2.5-9.879a3.59,3.59,0,0,1,1.43-1.242,4.108,4.108,0,0,1,1.926-.41,3.156,3.156,0,0,1,2.246.855A2.535,2.535,0,0,1,3.82-8.539,5.445,5.445,0,0,1,2.094-5.383l-.719.727L-2.281-1.18H3.211Z" transform="translate(424 8741.721)" fill="#12263f"/>
    <path id="Trazado_762537" data-name="Trazado 762537" d="M-5.317-8.744h-8.7l.3-1.729h8.712Zm-.773,4.458h-8.7l.3-1.719h8.712ZM10.957-.816l2.331,2.245L11.795,2.643,9.066.032A7.5,7.5,0,0,1,7.477.2,4.823,4.823,0,0,1,4.888-.51a4.64,4.64,0,0,1-1.735-2.03,7.752,7.752,0,0,1-.682-3,14.279,14.279,0,0,1,.285-3.228,10.936,10.936,0,0,1,1.2-3.384A7.883,7.883,0,0,1,6-14.588a6.106,6.106,0,0,1,3.932-1.268,5.073,5.073,0,0,1,2.632.73A4.572,4.572,0,0,1,14.3-13.1a7.816,7.816,0,0,1,.677,3A11.533,11.533,0,0,1,14.9-8.3l-.129.913Q14.1-2.761,10.957-.816ZM12.977-9.6a5.316,5.316,0,0,0-.741-3.3,2.844,2.844,0,0,0-2.385-1.192,4.074,4.074,0,0,0-2.573.773,5.855,5.855,0,0,0-1.858,2.444A12.592,12.592,0,0,0,4.5-6.757l-.032.7a6.936,6.936,0,0,0,.29,2.31A3.173,3.173,0,0,0,5.817-2.116a2.982,2.982,0,0,0,1.778.591,4.066,4.066,0,0,0,3.325-1.429,8.226,8.226,0,0,0,1.8-4.243A18.47,18.47,0,0,0,12.977-9.6Z" transform="translate(402 8756.721)" fill="#12263f"/>
    <path id="Trazado_762541" data-name="Trazado 762541" d="M0,0H112V3H0Z" transform="translate(263 8747.721)" fill="#12263f"/>
    <g id="Grupo_1024366" data-name="Grupo 1024366" transform="translate(17 25)">
      <rect id="Rectángulo_360738" data-name="Rectángulo 360738" width="23" height="23" transform="translate(193 8592)" fill="#57dbd8"/>
      <text id="_1" data-name="1" transform="translate(204 8610)" fill="#12263f" font-size="17" font-family="Roboto-Bold, Roboto" font-weight="700"><tspan x="-4.877" y="0">1</tspan></text>
    </g>
    <g id="Grupo_1024369" data-name="Grupo 1024369" transform="translate(327 25)">
      <rect id="Rectángulo_360738-2" data-name="Rectángulo 360738" width="23" height="23" transform="translate(193 8592)" fill="#57dbd8"/>
      <text id="_4-2" data-name="4" transform="translate(204 8610)" fill="#12263f" font-size="17" font-family="Roboto-Bold, Roboto" font-weight="700"><tspan x="-4.877" y="0">4</tspan></text>
    </g>
    <g id="Grupo_1024370" data-name="Grupo 1024370" transform="translate(327 112)">
      <rect id="Rectángulo_360738-3" data-name="Rectángulo 360738" width="23" height="23" transform="translate(193 8592)" fill="#57dbd8"/>
      <text id="_5-2" data-name="5" transform="translate(204 8610)" fill="#12263f" font-size="17" font-family="Roboto-Bold, Roboto" font-weight="700"><tspan x="-4.877" y="0">5</tspan></text>
    </g>
    <g id="Grupo_1024367" data-name="Grupo 1024367" transform="translate(17 119)">
      <rect id="Rectángulo_360738-4" data-name="Rectángulo 360738" width="23" height="23" transform="translate(193 8592)" fill="#57dbd8"/>
      <text id="_2-3" data-name="2" transform="translate(204 8610)" fill="#12263f" font-size="17" font-family="Roboto-Bold, Roboto" font-weight="700"><tspan x="-4.877" y="0">2</tspan></text>
    </g>
    <g id="Grupo_1024368" data-name="Grupo 1024368" transform="translate(17 190)">
      <rect id="Rectángulo_360738-5" data-name="Rectángulo 360738" width="23" height="23" transform="translate(193 8592)" fill="#57dbd8"/>
      <text id="_3-2" data-name="3" transform="translate(204 8610)" fill="#12263f" font-size="17" font-family="Roboto-Bold, Roboto" font-weight="700"><tspan x="-4.877" y="0">3</tspan></text>
    </g>
  </g>
</svg>
