<svg id="Grupo_1024321" data-name="Grupo 1024321" xmlns="http://www.w3.org/2000/svg" xmlns:xlink="http://www.w3.org/1999/xlink" width="320.567" height="228.308" viewBox="0 0 320.567 228.308">
  <defs>
    <clipPath id="clip-path">
      <rect id="Rectángulo_357991" data-name="Rectángulo 357991" width="320.567" height="228.307" fill="none"/>
    </clipPath>
    <clipPath id="clip-path-3">
      <rect id="Rectángulo_357969" data-name="Rectángulo 357969" width="254.909" height="138.109" fill="none"/>
    </clipPath>
    <clipPath id="clip-path-5">
      <rect id="Rectángulo_357971" data-name="Rectángulo 357971" width="68.584" height="37.378" fill="none"/>
    </clipPath>
    <clipPath id="clip-path-7">
      <rect id="Rectángulo_357975" data-name="Rectángulo 357975" width="148.4" height="80.479" fill="none"/>
    </clipPath>
    <clipPath id="clip-path-9">
      <rect id="Rectángulo_357977" data-name="Rectángulo 357977" width="28.712" height="16.218" fill="none"/>
    </clipPath>
    <clipPath id="clip-path-11">
      <rect id="Rectángulo_357979" data-name="Rectángulo 357979" width="30.659" height="11.941" fill="none"/>
    </clipPath>
    <clipPath id="clip-path-13">
      <rect id="Rectángulo_357981" data-name="Rectángulo 357981" width="9.437" height="5.634" fill="none"/>
    </clipPath>
    <clipPath id="clip-path-15">
      <rect id="Rectángulo_357983" data-name="Rectángulo 357983" width="97.616" height="52.942" fill="none"/>
    </clipPath>
    <clipPath id="clip-path-17">
      <rect id="Rectángulo_357985" data-name="Rectángulo 357985" width="97.609" height="52.952" fill="none"/>
    </clipPath>
    <clipPath id="clip-path-19">
      <rect id="Rectángulo_357987" data-name="Rectángulo 357987" width="72.761" height="39.416" fill="none"/>
    </clipPath>
    <clipPath id="clip-path-21">
      <rect id="Rectángulo_357989" data-name="Rectángulo 357989" width="72.85" height="39.475" fill="none"/>
    </clipPath>
  </defs>
  <g id="Grupo_1021536" data-name="Grupo 1021536" clip-path="url(#clip-path)">
    <path id="Trazado_751504" data-name="Trazado 751504" d="M365.917,181.17l-.32.149v.228l.32.162h.387l.323-.162v-.228l-.323-.149Z" transform="translate(-102.29 -50.689)" fill="#d8d1c7"/>
    <path id="Trazado_751505" data-name="Trazado 751505" d="M365.6,186.826l.32.163.014-5.1-.014-.031-.32-.162Z" transform="translate(-102.29 -50.836)" fill="#f4efe9"/>
    <path id="Trazado_751506" data-name="Trazado 751506" d="M366.042,181.919v5.133l.387-.007.019-5.095-.019-.031Z" transform="translate(-102.414 -50.899)" fill="#d8d1c7"/>
    <path id="Trazado_751507" data-name="Trazado 751507" d="M366.579,181.856v5.126l.323-.156v-5.132Z" transform="translate(-102.564 -50.836)" fill="#a39c95"/>
    <path id="Trazado_751508" data-name="Trazado 751508" d="M297.6,144.256l-.3.148v.228l.3.179h.393l.291-.179V144.4l-.291-.148Z" transform="translate(-83.18 -40.361)" fill="#d8d1c7"/>
    <path id="Trazado_751509" data-name="Trazado 751509" d="M297.3,149.915l.3.166.022-5.108-.022-.014-.3-.179Z" transform="translate(-83.18 -40.507)" fill="#f4efe9"/>
    <path id="Trazado_751510" data-name="Trazado 751510" d="M297.716,145.027v5.124h.393l.034-5.109-.034-.014Z" transform="translate(-83.297 -40.577)" fill="#d8d1c7"/>
    <path id="Trazado_751511" data-name="Trazado 751511" d="M298.263,144.958v5.124l.291-.166v-5.136Z" transform="translate(-83.45 -40.507)" fill="#a39c95"/>
    <g id="Grupo_1021490" data-name="Grupo 1021490">
      <g id="Grupo_1021489" data-name="Grupo 1021489" clip-path="url(#clip-path)">
        <g id="Grupo_1021488" data-name="Grupo 1021488" transform="translate(38.602 90.199)" opacity="0.3">
          <g id="Grupo_1021487" data-name="Grupo 1021487">
            <g id="Grupo_1021486" data-name="Grupo 1021486" clip-path="url(#clip-path-3)">
              <path id="Trazado_751512" data-name="Trazado 751512" d="M163.128,263.348,53.6,204.019,199,125.239l109.5,59.325Z" transform="translate(-53.598 -125.239)"/>
            </g>
          </g>
        </g>
      </g>
    </g>
    <path id="Trazado_751513" data-name="Trazado 751513" d="M163.913,262.681,56.4,204.457l143.384-77.65L307.245,185Z" transform="translate(-15.781 -35.479)" fill="#853e2a"/>
    <path id="Trazado_751514" data-name="Trazado 751514" d="M165.283,260.3,61.3,203.969l139.858-75.761,103.928,56.313Z" transform="translate(-17.151 -35.871)" fill="#d18067"/>
    <path id="Trazado_751515" data-name="Trazado 751515" d="M348.377,207.272,205.045,284.949l-1.631-1.548,1.631-1.229,139.8-75.775Z" transform="translate(-56.913 -57.747)" fill="#693121"/>
    <path id="Trazado_751516" data-name="Trazado 751516" d="M163.913,292.5,56.4,234.28l3.526-.88,103.984,56.327Z" transform="translate(-15.781 -65.302)" fill="#944e39"/>
    <g id="Grupo_1021495" data-name="Grupo 1021495">
      <g id="Grupo_1021494" data-name="Grupo 1021494" clip-path="url(#clip-path)">
        <g id="Grupo_1021493" data-name="Grupo 1021493" transform="translate(196.55 104.465)" opacity="0.3">
          <g id="Grupo_1021492" data-name="Grupo 1021492">
            <g id="Grupo_1021491" data-name="Grupo 1021491" clip-path="url(#clip-path-5)">
              <path id="Trazado_751517" data-name="Trazado 751517" d="M327.208,182.424l-54.3-29.416,14.693-7.962,49.912,27.032,3.4,3.437.582.311-1.988-.042Z" transform="translate(-272.905 -145.047)"/>
            </g>
          </g>
        </g>
      </g>
    </g>
    <path id="Trazado_751518" data-name="Trazado 751518" d="M327.609,184.608l-53.273-28.87V154.8l66.972,21.436Z" transform="translate(-76.756 -43.312)" fill="#d8d1c7"/>
    <path id="Trazado_751519" data-name="Trazado 751519" d="M348.3,192.936v-.946l4.222-5.572L362,184.566v2.007h-1.922Z" transform="translate(-97.451 -51.639)" fill="#a39c95"/>
    <path id="Trazado_751520" data-name="Trazado 751520" d="M327.609,180.769l-53.273-28.86L288,144.461l53.309,28.884Z" transform="translate(-76.756 -40.418)" fill="#e6e1dd"/>
    <path id="Trazado_751521" data-name="Trazado 751521" d="M349.979,182.149h-2.054l-1.409.771v1.1l1.409.8h2.054l1.446-.8v-1.1Z" transform="translate(-96.951 -50.963)" fill="#f4efe9"/>
    <path id="Trazado_751522" data-name="Trazado 751522" d="M352.581,185.086l-1.446.784-.49-.166.49-.155,1.446-.8Z" transform="translate(-98.106 -51.689)" fill="#a39c95"/>
    <path id="Trazado_751523" data-name="Trazado 751523" d="M347.925,185.87l-1.409-.784v-.341l1.409.8.846.156Z" transform="translate(-96.951 -51.689)" fill="#d8d1c7"/>
    <rect id="Rectángulo_357973" data-name="Rectángulo 357973" width="2.053" height="0.321" transform="translate(250.975 133.859)" fill="#b5afa7"/>
    <path id="Trazado_751524" data-name="Trazado 751524" d="M293.6,151.608h-2.025l-1.461.781v1.085l1.461.791H293.6l1.472-.791v-1.085Z" transform="translate(-81.171 -42.418)" fill="#f4efe9"/>
    <path id="Trazado_751525" data-name="Trazado 751525" d="M296.25,154.561l-1.472.756-.46-.148.46-.179,1.472-.792Z" transform="translate(-82.346 -43.142)" fill="#a39c95"/>
    <path id="Trazado_751526" data-name="Trazado 751526" d="M291.578,155.317l-1.461-.756V154.2l1.461.792.814.179Z" transform="translate(-81.171 -43.142)" fill="#d8d1c7"/>
    <rect id="Rectángulo_357974" data-name="Rectángulo 357974" width="2.025" height="0.328" transform="translate(210.407 111.847)" fill="#b5afa7"/>
    <path id="Trazado_751527" data-name="Trazado 751527" d="M338.967,189.787l8.436-4.563-94.768-51.333-7.872,4.28,15.06,11.137,51.366,30Z" transform="translate(-68.482 -37.461)" fill="#fff"/>
    <path id="Trazado_751528" data-name="Trazado 751528" d="M241.456,139.833l-8.513,5.492,12.882,18.242,54.248,27.063,27.622,5.993,7.965-5.174Z" transform="translate(-65.174 -39.124)" fill="#f4efe9"/>
    <path id="Trazado_751529" data-name="Trazado 751529" d="M189.81,147.46,78.782,207.586l94.738,51.325,111.043-60.154Z" transform="translate(-22.042 -41.257)" fill="#fff"/>
    <path id="Trazado_751530" data-name="Trazado 751530" d="M240.76,162.807l-3.843,2.117,68.89,37.308,3.842-2.069Z" transform="translate(-66.286 -45.551)" fill="#e0dedc"/>
    <path id="Trazado_751531" data-name="Trazado 751531" d="M276.243,197.819l-50.03-27.084-3.813,2.093,49.989,27.092Z" transform="translate(-62.225 -47.769)" fill="#e0dedc"/>
    <path id="Trazado_751532" data-name="Trazado 751532" d="M134.679,232.712l-11.13-6.035,11.13-6.028,11.137,6.028Zm0-15.043-16.629,9.008,16.629,9.012,16.636-9.012Z" transform="translate(-33.029 -60.901)" fill="#e0dedc"/>
    <path id="Trazado_751533" data-name="Trazado 751533" d="M170.477,213.321l-11.137-6.035,11.137-6.027,11.141,6.027Zm0-15.043-16.629,9.008,16.629,9.012,16.633-9.012Z" transform="translate(-43.045 -55.476)" fill="#e0dedc"/>
    <path id="Trazado_751534" data-name="Trazado 751534" d="M206.255,193.931,195.118,187.9l11.137-6.038L217.4,187.9Zm0-15.043L189.626,187.9l16.629,9.008,16.633-9.008Z" transform="translate(-53.055 -50.051)" fill="#e0dedc"/>
    <path id="Trazado_751535" data-name="Trazado 751535" d="M172.184,201.576l.1,7.827,31.123,3.309-25.967-6.056,2.138-6.062Z" transform="translate(-48.175 -56.124)" fill="#cfdb77"/>
    <path id="Trazado_751536" data-name="Trazado 751536" d="M207.814,182.751l.11,7.817,31.112,3.319-25.959-6.059,2.142-6.058Z" transform="translate(-58.144 -50.857)" fill="#cfdb77"/>
    <path id="Trazado_751537" data-name="Trazado 751537" d="M189.953,265.135l19.2,10.4L213,273.463,193.8,263.049Z" transform="translate(-53.146 -73.598)" fill="#e0dedc"/>
    <path id="Trazado_751538" data-name="Trazado 751538" d="M279.748,153.552v.321l.229.321.264.156.213-.107v-.318l-.213-.338-.264-.142Z" transform="translate(-78.27 -42.932)" fill="#d8d1c7"/>
    <path id="Trazado_751539" data-name="Trazado 751539" d="M280.33,150.862l-.265-.142,12.911-7.012.31.135-12.9,7.019Z" transform="translate(-78.359 -40.208)" fill="#f4efe9"/>
    <path id="Trazado_751540" data-name="Trazado 751540" d="M280.646,151.253l-.213-.338,12.955-7.019.176.37L280.69,151.3Z" transform="translate(-78.462 -40.26)" fill="#d8d1c7"/>
    <path id="Trazado_751541" data-name="Trazado 751541" d="M280.729,151.715V151.4l12.918-6.988v.321Z" transform="translate(-78.544 -40.404)" fill="#a39c95"/>
    <path id="Trazado_751542" data-name="Trazado 751542" d="M348.053,190.694l.254-.342.283-.169.214.142v.3l-.214.346-.283.124-.254-.1Z" transform="translate(-97.381 -53.211)" fill="#d8d1c7"/>
    <path id="Trazado_751543" data-name="Trazado 751543" d="M329.388,180.073l.284-.169-48.963-26.459-.276.142,48.882,26.487Z" transform="translate(-78.462 -42.932)" fill="#f4efe9"/>
    <path id="Trazado_751544" data-name="Trazado 751544" d="M328.943,180.47l.254-.342-48.955-26.487-.493.214,49.187,26.632Z" transform="translate(-78.27 -42.987)" fill="#d8d1c7"/>
    <path id="Trazado_751545" data-name="Trazado 751545" d="M329.48,181.134v-.3l-49.732-26.891v.072l.229.321Z" transform="translate(-78.27 -43.07)" fill="#a39c95"/>
    <path id="Trazado_751546" data-name="Trazado 751546" d="M348.69,187.843l-.284-.135,12.912-6.974.272.141-12.878,6.967Z" transform="translate(-97.479 -50.567)" fill="#f4efe9"/>
    <path id="Trazado_751547" data-name="Trazado 751547" d="M348.8,188.381V187.9l12.9-6.967.228.321-12.775,7.04Z" transform="translate(-97.59 -50.622)" fill="#d8d1c7"/>
    <path id="Trazado_751548" data-name="Trazado 751548" d="M348.74,188.811l-.155-.179.155-.125,13.129-7.129v.321Z" transform="translate(-97.529 -50.747)" fill="#a39c95"/>
    <g id="Grupo_1021500" data-name="Grupo 1021500">
      <g id="Grupo_1021499" data-name="Grupo 1021499" clip-path="url(#clip-path)">
        <g id="Grupo_1021498" data-name="Grupo 1021498" transform="translate(40.442 43.896)" opacity="0.3">
          <g id="Grupo_1021497" data-name="Grupo 1021497">
            <g id="Grupo_1021496" data-name="Grupo 1021496" clip-path="url(#clip-path-7)">
              <path id="Trazado_751549" data-name="Trazado 751549" d="M129,60.948,204.554,101.9l-72.828,39.523L56.153,100.481Z" transform="translate(-56.153 -60.948)"/>
            </g>
          </g>
        </g>
      </g>
    </g>
    <path id="Trazado_751550" data-name="Trazado 751550" d="M132.634,92.631,59.567,53.04v45.5l18.406,8.155,23.857,14.746,30.8,16.69,3.43-27.267Z" transform="translate(-16.666 -14.84)" fill="#efc58b"/>
    <g id="Grupo_1021505" data-name="Grupo 1021505">
      <g id="Grupo_1021504" data-name="Grupo 1021504" clip-path="url(#clip-path)">
        <g id="Grupo_1021503" data-name="Grupo 1021503" transform="translate(50.071 80.741)" opacity="0.1">
          <g id="Grupo_1021502" data-name="Grupo 1021502">
            <g id="Grupo_1021501" data-name="Grupo 1021501" clip-path="url(#clip-path-9)">
              <path id="Trazado_751551" data-name="Trazado 751551" d="M69.522,112.107l11.825.694,16.887,15.523L81.175,116.8Z" transform="translate(-69.522 -112.107)"/>
            </g>
          </g>
        </g>
      </g>
    </g>
    <path id="Trazado_751552" data-name="Trazado 751552" d="M231.42,100.468l-70.4,38.2,2.039-26.328-2.039-19.167,70.4-38.2v5.731L228.042,85.09l2.532,8.083Z" transform="translate(-45.051 -15.382)" fill="#c79d5c"/>
    <g id="Grupo_1021510" data-name="Grupo 1021510">
      <g id="Grupo_1021509" data-name="Grupo 1021509" clip-path="url(#clip-path)">
        <g id="Grupo_1021508" data-name="Grupo 1021508" transform="translate(147.9 69.377)" opacity="0.1">
          <g id="Grupo_1021507" data-name="Grupo 1021507">
            <g id="Grupo_1021506" data-name="Grupo 1021506" clip-path="url(#clip-path-11)">
              <path id="Trazado_751553" data-name="Trazado 751553" d="M236.015,96.328l-19.426,3.154-11.233,8.787,15.33-6.981Z" transform="translate(-205.356 -96.328)"/>
            </g>
          </g>
        </g>
      </g>
    </g>
    <path id="Trazado_751554" data-name="Trazado 751554" d="M168.648,140.767v12.241l11.3-6.131V134.625Zm.508,11.426V141.026l10.3-5.574V146.6Z" transform="translate(-47.186 -37.666)" fill="#995d43"/>
    <path id="Trazado_751555" data-name="Trazado 751555" d="M177.678,141.377,176,141.325l-.765.429v-.363l-.111-.058-.151.093-.107.166v.349l-.78.431-1.66,1.848-.96,2.173v.7l3.4-1.834v3.8l-.7,1.113-.376.2-.7-.38v-.622l-.125-.055-.151.094-.089.155v.8l.9.5.7-.359.913-1.486v-3.958l3.39-1.844V142.5Z" transform="translate(-47.975 -39.541)" fill="#995d43"/>
    <path id="Trazado_751556" data-name="Trazado 751556" d="M187.623,130.474v12.259l11.3-6.145V124.367Zm.519,11.44v-11.16l10.28-5.579v11.15Z" transform="translate(-52.495 -34.796)" fill="#995d43"/>
    <path id="Trazado_751557" data-name="Trazado 751557" d="M217.914,114.079l-11.3,6.114,0,12.241,11.292-6.11Zm-10.8,17.544V120.469l10.295-5.582v11.157Z" transform="translate(-57.809 -31.918)" fill="#995d43"/>
    <path id="Trazado_751558" data-name="Trazado 751558" d="M190.842,137.684l.828.456.387-.215v3.223l-.387.215-.828.739v.048l2.816-1.52v-.055l-.817.156-.394.218v-3.237l.394-.21.817-1.337v-4.249l-2.816,1.524Z" transform="translate(-53.395 -36.908)" fill="#995d43"/>
    <path id="Trazado_751559" data-name="Trazado 751559" d="M196.213,134.773l.828.435.387-.2v3.223l-.387.214-.828.743v.028l2.805-1.513v-.041l-.817.138-.39.232v-3.24l.39-.2.817-1.344v-4.256l-2.805,1.534Zm.254-4.11,2.308-1.254v3.772l-.747,1.233-.987.526-.574-.3Z" transform="translate(-54.898 -36.091)" fill="#995d43"/>
    <path id="Trazado_751560" data-name="Trazado 751560" d="M216.955,121.219l.232-.394-.084-.035-.2.328-.261.142-.181-.1v-.277l.181-.311.261-.131.2.111.084-.142-.232-.117-.364.2-.246.4v.39l.246.12Z" transform="translate(-60.53 -33.655)" fill="#995d43"/>
    <path id="Trazado_751561" data-name="Trazado 751561" d="M211.9,127.7l.228-.387-.078-.042-.187.321-.261.142-.18-.094v-.277l.18-.3.261-.135.187.114.078-.148-.228-.12-.35.193-.25.4v.38l.25.135Z" transform="translate(-59.119 -35.47)" fill="#995d43"/>
    <path id="Trazado_751562" data-name="Trazado 751562" d="M214.017,123.108V120.78l-.291-.145-.4.2-.28.476v3.361l-.791,1.281-1.145.622v.162l1.2-.67.74-1.161V127.5l-.6.94v.977l.645.352.895-.49.625-1.029v-.956l-.588-.328v-3.644l.769-1.278,1.16-.615v-.159l-1.211.653Zm-.158.231-.673,1.095v-3.143l.2-.315.272-.151.2.1Z" transform="translate(-59.064 -33.752)" fill="#995d43"/>
    <path id="Trazado_751563" data-name="Trazado 751563" d="M130,0l-8.848,4.8L114.7,11.254,90.215,25.046,68.937,31.54,59.567,38.2,83.008,50.89l20.821,13.24,2.69,4.021,21,6.874,5.113,2.767,70.4-38.2L170.469,21.934l-6.86-.514-1.038-3.762Z" transform="translate(-16.666 0)" fill="#f7e6bb"/>
    <path id="Trazado_751564" data-name="Trazado 751564" d="M92.115,65.73l23.511-9.523L129.1,55.6l12.061,1.976,30.6-4.535L132.005,69.761l-16.379,13.23Z" transform="translate(-25.773 -14.84)" fill="#e8d8b0"/>
    <path id="Trazado_751565" data-name="Trazado 751565" d="M143.469,47.619l42.588-23.1,7.888,4.269L155.531,49.594l-8.568,1.161Z" transform="translate(-40.141 -6.86)" fill="#b88f5a"/>
    <path id="Trazado_751566" data-name="Trazado 751566" d="M145.413,58.569,115.159,80.521,110.2,77.65l-2.889-2.884,26.044-18.172Z" transform="translate(-30.023 -15.834)" fill="#ab8554"/>
    <path id="Trazado_751567" data-name="Trazado 751567" d="M115.159,96.969l-7.85-4.266V81.825l7.85,5.754Z" transform="translate(-30.024 -22.894)" fill="#a16739"/>
    <path id="Trazado_751568" data-name="Trazado 751568" d="M183.691,266.13l-.821-.007,2.11,6.124Z" transform="translate(-51.165 -74.458)" fill="#836e69"/>
    <path id="Trazado_751569" data-name="Trazado 751569" d="M185.1,265.7l-.78.266,1.067,6.166Z" transform="translate(-51.57 -74.338)" fill="#403531"/>
    <path id="Trazado_751570" data-name="Trazado 751570" d="M184.448,266.142l-.2-.225-.567.345,1.524,5.928Z" transform="translate(-51.392 -74.4)" fill="#685750"/>
    <path id="Trazado_751571" data-name="Trazado 751571" d="M184.212,251l-5.108-1.106-3.331,2.494,2.279,3.658,3.44,6.4,1.053-.183.221-7.04Z" transform="translate(-49.179 -69.917)" fill="#d1d1d1"/>
    <path id="Trazado_751572" data-name="Trazado 751572" d="M186.625,251.428l-2.227,1.741.56,9.527.655-.515Z" transform="translate(-51.592 -70.346)" fill="#adadad"/>
    <path id="Trazado_751573" data-name="Trazado 751573" d="M178.5,254.286l-2.723-.929,4.913,9.792.806.27Z" transform="translate(-49.179 -70.886)" fill="#e6e1dd"/>
    <path id="Trazado_751574" data-name="Trazado 751574" d="M171.346,195.531l-3.673.591-2.856-.967-.364-1.965,2.323-1.841,3.654-.6,2.853.992.368,1.965Z" transform="translate(-46.012 -53.367)" fill="#785b56"/>
    <path id="Trazado_751575" data-name="Trazado 751575" d="M167.815,197.836l-2.856-.967,7.645,41.015,2.841.988-2.363-20.2Z" transform="translate(-46.153 -55.081)" fill="#fa5c52"/>
    <path id="Trazado_751576" data-name="Trazado 751576" d="M172.6,197.391l-3.673.591,7.63,41.036,3.662-.6L177.7,217.7Z" transform="translate(-47.263 -55.228)" fill="#c84030"/>
    <path id="Trazado_751577" data-name="Trazado 751577" d="M176.328,194.849l-2.3,1.831,7.619,41.022,2.329-1.827Z" transform="translate(-48.69 -54.516)" fill="#8a1c14"/>
    <g id="Grupo_1021515" data-name="Grupo 1021515">
      <g id="Grupo_1021514" data-name="Grupo 1021514" clip-path="url(#clip-path)">
        <g id="Grupo_1021513" data-name="Grupo 1021513" transform="translate(118.717 139.829)" opacity="0.3">
          <g id="Grupo_1021512" data-name="Grupo 1021512">
            <g id="Grupo_1021511" data-name="Grupo 1021511" clip-path="url(#clip-path-13)">
              <path id="Trazado_751578" data-name="Trazado 751578" d="M173.658,194.149l-2.323,1.817-3.658.611-2.842-.974.586,3.188,2.867.991,3.648-.6,2.337-1.831Z" transform="translate(-164.836 -194.149)"/>
            </g>
          </g>
        </g>
      </g>
    </g>
    <path id="Trazado_751579" data-name="Trazado 751579" d="M162.845,149.8l-4.17.683-3.242-1.1L155,147.12l2.65-2.09,4.189-.684,3.235,1.116.441,2.273Z" transform="translate(-43.366 -40.386)" fill="#d1d1d1"/>
    <path id="Trazado_751580" data-name="Trazado 751580" d="M158.844,152.441l-3.242-1.1,6.378,34.328,3.261,1.123-6.11-34.083Z" transform="translate(-43.535 -42.343)" fill="#fa5c52"/>
    <path id="Trazado_751581" data-name="Trazado 751581" d="M164.274,151.92l-4.17.683,6.4,34.349,4.166-.694L164.649,152.1Z" transform="translate(-44.795 -42.505)" fill="#c84030"/>
    <path id="Trazado_751582" data-name="Trazado 751582" d="M168.562,149.052l-2.668,2.066,6.393,34.338,2.668-2.084Z" transform="translate(-46.415 -41.703)" fill="#8a1c14"/>
    <path id="Trazado_751583" data-name="Trazado 751583" d="M155.433,146.389,155,144.127l1.281-10.208,1.634-.272,1.605,10.9Z" transform="translate(-43.367 -37.393)" fill="#d1d1d1"/>
    <path id="Trazado_751584" data-name="Trazado 751584" d="M166.892,144.6l-.442-2.273-4.888-9.181-1.638.259,2.451,10.756Z" transform="translate(-44.745 -37.253)" fill="gray"/>
    <path id="Trazado_751585" data-name="Trazado 751585" d="M158.251,134.855l-1.634.279L155.6,146.728l3.242,1.112.489-5.406Z" transform="translate(-43.535 -37.731)" fill="#e6e1dd"/>
    <path id="Trazado_751586" data-name="Trazado 751586" d="M159.855,133.709l-1.086,1.527.961,12.283,4.171-.694-.725-5.711Z" transform="translate(-44.422 -37.41)" fill="#d1d1d1"/>
    <path id="Trazado_751587" data-name="Trazado 751587" d="M161.834,134.158l-1.557-.449.516,1.26,3.53,11.855,2.672-2.066Z" transform="translate(-44.843 -37.41)" fill="#adadad"/>
    <path id="Trazado_751588" data-name="Trazado 751588" d="M159.813,134.637l-1.6.266-1.266-.421-.169-.877,1.027-.812,1.627-.273,1.251.452.173.853Z" transform="translate(-43.864 -37.077)" fill="#f4efe9"/>
    <path id="Trazado_751589" data-name="Trazado 751589" d="M161.808,168.43l-3.242-1.119.14.812,3.268,1.112.147-.549Z" transform="translate(-44.365 -46.811)" fill="#fbe979"/>
    <path id="Trazado_751590" data-name="Trazado 751590" d="M167.26,167.9l-4.192.694.166.8,4.174-.683.217-.632Z" transform="translate(-45.624 -46.976)" fill="#e3bd5e"/>
    <path id="Trazado_751591" data-name="Trazado 751591" d="M171.531,165.022l-2.642,2.073.147.815,2.646-2.089Z" transform="translate(-47.253 -46.171)" fill="#cc934c"/>
    <path id="Trazado_751592" data-name="Trazado 751592" d="M164.745,195.936l-2.547-.874-6.883-37.019,2.764.543Z" transform="translate(-43.455 -44.219)" fill="#d1d1d1"/>
    <path id="Trazado_751593" data-name="Trazado 751593" d="M158.867,158.021l-1.008.49-2.544-.884,1.362-1.075,2.551.878-.317.591Z" transform="translate(-43.455 -43.801)" fill="#f4efe9"/>
    <path id="Trazado_751594" data-name="Trazado 751594" d="M165.733,195.86l-6.886-37.008,1.369-1.081.081.449-1,.788L166.1,195.58Z" transform="translate(-44.443 -44.142)" fill="#adadad"/>
    <g id="Grupo_1021520" data-name="Grupo 1021520">
      <g id="Grupo_1021519" data-name="Grupo 1021519" clip-path="url(#clip-path)">
        <g id="Grupo_1021518" data-name="Grupo 1021518" transform="translate(13.681 98.689)" opacity="0.3">
          <g id="Grupo_1021517" data-name="Grupo 1021517">
            <g id="Grupo_1021516" data-name="Grupo 1021516" clip-path="url(#clip-path-15)">
              <path id="Trazado_751595" data-name="Trazado 751595" d="M66.92,137.028l49.692,26.942-47.907,26L19,163.035Z" transform="translate(-18.996 -137.028)"/>
            </g>
          </g>
        </g>
      </g>
    </g>
    <path id="Trazado_751596" data-name="Trazado 751596" d="M69.314,157.877,21.249,131.829v29.927L69.314,187.8Z" transform="translate(-5.945 -36.884)" fill="#efc58b"/>
    <path id="Trazado_751597" data-name="Trazado 751597" d="M134.291,163.028,87.985,188.157V158.234l46.305-25.129Z" transform="translate(-24.617 -37.241)" fill="#c79d5c"/>
    <path id="Trazado_751598" data-name="Trazado 751598" d="M93.3,179.227v12.255l11.3-6.131V173.089Zm.5,11.433V179.494l10.3-5.579v11.16Z" transform="translate(-26.104 -48.428)" fill="#995d43"/>
    <path id="Trazado_751599" data-name="Trazado 751599" d="M102.329,179.849l-1.678-.045-.773.418v-.359l-.1-.052-.162.083-.1.169v.359l-.788.418-1.659,1.847-.957,2.179v.705l3.4-1.834v3.8l-.692,1.106-.394.214-.692-.377v-.629l-.114-.055-.151.09-.1.159v.8l.894.5.7-.366.913-1.486v-3.955l3.4-1.852v-.708Z" transform="translate(-26.892 -50.307)" fill="#995d43"/>
    <path id="Trazado_751600" data-name="Trazado 751600" d="M112.286,168.933v12.273l11.307-6.145V162.826Zm.508,11.454V169.219l10.291-5.582v11.154Z" transform="translate(-31.416 -45.557)" fill="#995d43"/>
    <path id="Trazado_751601" data-name="Trazado 751601" d="M142.591,152.528l-11.31,6.128.007,12.248,11.3-6.128Zm-10.81,17.554V158.936l10.3-5.592V164.5Z" transform="translate(-36.731 -42.675)" fill="#995d43"/>
    <path id="Trazado_751602" data-name="Trazado 751602" d="M115.51,176.162l.814.449.394-.215v3.223l-.394.214-.814.746v.048l2.8-1.53v-.059l-.813.166-.39.221v-3.247l.39-.214.813-1.344V170.38l-2.8,1.526Z" transform="translate(-32.318 -47.67)" fill="#995d43"/>
    <path id="Trazado_751603" data-name="Trazado 751603" d="M120.872,173.236l.824.439.4-.21v3.24l-.4.214-.824.732v.041l2.811-1.52v-.048l-.817.148-.393.228v-3.244l.393-.193.817-1.351v-4.259L120.872,169Zm.257-4.114,2.308-1.25v3.772l-.75,1.234-.99.525-.567-.3Z" transform="translate(-33.818 -46.852)" fill="#995d43"/>
    <path id="Trazado_751604" data-name="Trazado 751604" d="M141.632,159.677l.228-.4-.085-.035-.2.332-.261.131-.181-.093v-.28l.181-.315.261-.131.2.117.085-.145-.228-.117-.368.2-.243.4v.39l.243.115Z" transform="translate(-39.456 -44.415)" fill="#995d43"/>
    <path id="Trazado_751605" data-name="Trazado 751605" d="M136.566,166.158l.239-.383-.081-.045-.188.325-.257.138-.192-.09v-.283l.192-.294.257-.138.188.117.081-.156-.239-.121-.342.193-.246.4v.383l.246.142Z" transform="translate(-38.045 -46.229)" fill="#995d43"/>
    <path id="Trazado_751606" data-name="Trazado 751606" d="M138.688,161.563v-2.324l-.3-.159L138,159.3l-.291.473v3.361l-.788,1.281-1.137.619v.169l1.2-.663.725-1.178v2.6l-.6.95v.971l.652.356.89-.49.626-1.033v-.954l-.588-.332v-3.647l.776-1.275,1.159-.629v-.156l-1.211.657Zm-.155.232-.67,1.1v-3.154l.191-.315.284-.158.2.1Z" transform="translate(-37.99 -44.509)" fill="#995d43"/>
    <path id="Trazado_751607" data-name="Trazado 751607" d="M67.58,96.938,88.25,108.15l1.318,3.354,6.566.912,19.485,10.57L69.313,148.115,21.249,122.067Z" transform="translate(-5.945 -27.122)" fill="#f7e6bb"/>
    <path id="Trazado_751608" data-name="Trazado 751608" d="M57.829,141.88l-2.97.618-4.884-4.87,46.313-25.122,7.883,4.266Z" transform="translate(-13.982 -31.478)" fill="#b88f5a"/>
    <path id="Trazado_751609" data-name="Trazado 751609" d="M57.829,162.537l-7.855-4.252v-10.9l7.855,4.252Z" transform="translate(-13.982 -41.237)" fill="#a16739"/>
    <path id="Trazado_751610" data-name="Trazado 751610" d="M0,100.684l4.766.977,4.339-3.275-4.774-.048Z" transform="translate(0 -27.514)" fill="#a1b346"/>
    <path id="Trazado_751611" data-name="Trazado 751611" d="M6.618,100.751l16.74,9.067,4.335-2.349L10.957,98.4Z" transform="translate(-1.852 -27.532)" fill="#dde65c"/>
    <path id="Trazado_751612" data-name="Trazado 751612" d="M29.86,113.339l4.387,6.128,4.715-3.361L34.2,110.99Z" transform="translate(-8.355 -31.054)" fill="#a1b346"/>
    <path id="Trazado_751613" data-name="Trazado 751613" d="M39.889,139.488l-4.332,2.339L33.172,126.86l2.385-6.419,4.332-2.349Z" transform="translate(-9.281 -33.041)" fill="#92a145"/>
    <path id="Trazado_751614" data-name="Trazado 751614" d="M0,122.986l13.143,19.284,13.132-5.06V115.826l-4.77-5.116L4.766,101.643,0,101.595Z" transform="translate(0 -28.425)" fill="#b4c342"/>
    <path id="Trazado_751615" data-name="Trazado 751615" d="M23.518,116.911v17.762l-9.842,3.792L3.838,124.009V106.234Zm1.163-.642L2.653,104.338l-.747.407.725,2.432-.339,16.832,11.384,16.124,9.411-3.623.836-.211.758-.41Z" transform="translate(-0.533 -29.192)" fill="#d1d1d1"/>
    <path id="Trazado_751616" data-name="Trazado 751616" d="M23.3,128.887v-1.178l-.769-1.24-1.064-.57-7.4,4L10.9,124.731l-1.075-.591-1.543.846.218,1.592,5.021,6.435,1.093.58Z" transform="translate(-2.316 -34.733)" fill="#d1d1d1"/>
    <path id="Trazado_751617" data-name="Trazado 751617" d="M22.754,117.477v17.768l-9.842,3.785L3.073,124.579V106.808Zm1.17-.632L1.907,104.9v19.627l11,16.172,11.012-4.245Z" transform="translate(-0.534 -29.351)" fill="#fff"/>
    <path id="Trazado_751618" data-name="Trazado 751618" d="M21.464,130.059v-1.164l-.773-1.247-1.067-.588-7.394,4.007-3.173-5.161-1.075-.591-.765.408V126.9L11.7,134.19l1.078.577Z" transform="translate(-2.019 -35.062)" fill="#fff"/>
    <g id="Grupo_1021525" data-name="Grupo 1021525">
      <g id="Grupo_1021524" data-name="Grupo 1021524" clip-path="url(#clip-path)">
        <g id="Grupo_1021523" data-name="Grupo 1021523" transform="translate(222.958 77.792)" opacity="0.3">
          <g id="Grupo_1021522" data-name="Grupo 1021522">
            <g id="Grupo_1021521" data-name="Grupo 1021521" clip-path="url(#clip-path-17)">
              <path id="Trazado_751619" data-name="Trazado 751619" d="M357.486,108.012l49.7,26.95-47.9,26-49.71-26.939Z" transform="translate(-309.572 -108.012)"/>
            </g>
          </g>
        </g>
      </g>
    </g>
    <path id="Trazado_751620" data-name="Trazado 751620" d="M359.876,128.869l-48.05-26.052v29.927l48.05,26.041Z" transform="translate(-87.245 -28.767)" fill="#efc58b"/>
    <path id="Trazado_751621" data-name="Trazado 751621" d="M424.862,134.017l-46.321,25.126V129.226l46.321-25.133Z" transform="translate(-105.911 -29.124)" fill="#c79d5c"/>
    <path id="Trazado_751622" data-name="Trazado 751622" d="M383.873,150.218V162.47l11.3-6.131V144.073Zm.5,11.441V150.484l10.3-5.579v11.158Z" transform="translate(-107.403 -40.31)" fill="#995d43"/>
    <path id="Trazado_751623" data-name="Trazado 751623" d="M392.9,150.846l-1.667-.048-.78.408v-.352l-.1-.055-.155.1-.1.159v.363l-.784.421-1.659,1.844-.954,2.176v.7l3.4-1.831v3.8l-.688,1.116-.4.207-.692-.372v-.629l-.11-.058-.158.09-.091.162v.8l.9.5.7-.366.917-1.485v-3.959l3.4-1.851v-.712Z" transform="translate(-108.192 -42.191)" fill="#995d43"/>
    <path id="Trazado_751624" data-name="Trazado 751624" d="M402.853,139.929V152.2l11.307-6.151V133.815Zm.515,11.447v-11.16l10.284-5.585v11.15Z" transform="translate(-112.713 -37.44)" fill="#995d43"/>
    <path id="Trazado_751625" data-name="Trazado 751625" d="M433.162,123.532l-11.314,6.11,0,12.262,11.31-6.134Zm-10.806,17.547V129.922l10.3-5.582v11.154Z" transform="translate(-118.028 -34.563)" fill="#995d43"/>
    <path id="Trazado_751626" data-name="Trazado 751626" d="M406.077,147.147l.821.456.394-.218v3.223l-.394.217-.821.746v.045l2.812-1.53v-.055l-.82.159-.387.221v-3.244l.387-.211.82-1.34v-4.249l-2.812,1.527Z" transform="translate(-113.615 -39.553)" fill="#995d43"/>
    <path id="Trazado_751627" data-name="Trazado 751627" d="M411.448,144.232l.825.439.4-.215v3.24l-.4.221-.825.725v.045l2.808-1.52v-.051l-.82.145-.394.225v-3.24l.394-.19.82-1.358v-4.252l-2.808,1.534Zm.254-4.12,2.308-1.25v3.768l-.747,1.24-.99.521-.57-.3Z" transform="translate(-115.118 -38.736)" fill="#995d43"/>
    <path id="Trazado_751628" data-name="Trazado 751628" d="M432.206,130.669l.235-.4-.1-.027-.194.331-.254.135-.192-.1v-.283l.192-.311.254-.135.194.117.1-.135-.235-.127-.368.2-.239.4v.394l.239.117Z" transform="translate(-120.756 -36.298)" fill="#995d43"/>
    <path id="Trazado_751629" data-name="Trazado 751629" d="M427.143,137.151l.232-.383-.081-.049-.192.328-.262.135-.18-.083v-.284l.18-.3.262-.142.192.121.081-.158-.232-.117-.349.2-.254.4v.384l.254.142Z" transform="translate(-119.34 -38.113)" fill="#995d43"/>
    <path id="Trazado_751630" data-name="Trazado 751630" d="M429.262,132.55v-2.325l-.3-.152-.394.215-.291.476v3.361L427.5,135.4l-1.144.629v.166l1.2-.663.732-1.181v2.6l-.6.949v.974l.659.352.879-.487.634-1.04v-.943l-.589-.335v-3.651l.769-1.274,1.163-.619v-.162l-1.211.656Zm-.166.238-.659,1.1V130.74l.188-.321.287-.156.184.1Z" transform="translate(-119.287 -36.393)" fill="#995d43"/>
    <path id="Trazado_751631" data-name="Trazado 751631" d="M358.15,67.931,378.827,79.14l1.314,3.358,6.566.919L406.2,93.975l-46.32,25.133-48.05-26.052Z" transform="translate(-87.245 -19.006)" fill="#f7e6bb"/>
    <path id="Trazado_751632" data-name="Trazado 751632" d="M348.4,112.876l-2.97.618-4.888-4.877,46.32-25.122,7.881,4.276Z" transform="translate(-95.279 -23.361)" fill="#b88f5a"/>
    <path id="Trazado_751633" data-name="Trazado 751633" d="M348.4,133.522l-7.858-4.245v-10.9l7.858,4.259Z" transform="translate(-95.279 -33.12)" fill="#a16739"/>
    <path id="Trazado_751634" data-name="Trazado 751634" d="M347.342,85.11,299.285,59.058V88.989l48.058,26.044Z" transform="translate(-83.736 -16.524)" fill="#efc58b"/>
    <path id="Trazado_751635" data-name="Trazado 751635" d="M412.328,90.26l-46.316,25.133V85.47l46.316-25.126Z" transform="translate(-102.405 -16.883)" fill="#c79d5c"/>
    <path id="Trazado_751636" data-name="Trazado 751636" d="M371.332,106.46v12.252l11.31-6.128V100.319Zm.5,11.437V106.727l10.3-5.575V112.3Z" transform="translate(-103.894 -28.068)" fill="#995d43"/>
    <path id="Trazado_751637" data-name="Trazado 751637" d="M380.353,107.082l-1.664-.048-.773.418v-.359l-.1-.051-.166.089-.1.159v.369l-.792.418-1.649,1.848-.964,2.176v.7l3.4-1.827v3.8l-.692,1.116-.394.211-.7-.387v-.622l-.11-.058-.151.09-.092.162v.8l.89.5.7-.369.916-1.482v-3.955l3.4-1.852v-.714Z" transform="translate(-104.682 -29.947)" fill="#995d43"/>
    <path id="Trazado_751638" data-name="Trazado 751638" d="M390.322,96.166v12.276l11.3-6.148V90.069Zm.511,11.457V96.456l10.283-5.578v11.153Z" transform="translate(-109.207 -25.2)" fill="#995d43"/>
    <path id="Trazado_751639" data-name="Trazado 751639" d="M420.622,79.758l-11.315,6.125.015,12.252,11.3-6.124ZM409.808,97.323V86.166l10.309-5.589v11.16Z" transform="translate(-114.519 -22.315)" fill="#995d43"/>
    <path id="Trazado_751640" data-name="Trazado 751640" d="M393.541,103.393l.821.449.382-.215v3.223l-.382.214-.821.747v.048l2.812-1.526v-.059l-.82.163-.39.221v-3.244l.39-.211.82-1.34V97.615l-2.812,1.526Z" transform="translate(-110.108 -27.311)" fill="#995d43"/>
    <path id="Trazado_751641" data-name="Trazado 751641" d="M398.907,100.472l.828.436.39-.2v3.234l-.39.218-.828.732v.045l2.816-1.52v-.052l-.825.145-.39.225v-3.244l.39-.189.825-1.348V94.693l-2.816,1.534Zm.258-4.11,2.308-1.257v3.772l-.75,1.237-.987.525-.57-.3Z" transform="translate(-111.609 -26.494)" fill="#995d43"/>
    <path id="Trazado_751642" data-name="Trazado 751642" d="M419.654,86.91l.236-.4-.085-.031-.194.328-.261.138-.192-.1v-.28l.192-.314.261-.128.194.115.085-.138-.236-.125-.357.2-.251.4v.4l.251.111Z" transform="translate(-117.244 -24.054)" fill="#995d43"/>
    <path id="Trazado_751643" data-name="Trazado 751643" d="M414.6,93.387l.236-.38-.077-.049-.188.325-.261.145-.188-.094v-.276l.188-.3.261-.142.188.117.077-.158-.236-.121-.346.193-.247.408v.383l.247.131Z" transform="translate(-115.834 -25.869)" fill="#995d43"/>
    <path id="Trazado_751644" data-name="Trazado 751644" d="M416.72,88.8V86.476l-.3-.156-.395.214-.29.472v3.358l-.784,1.281-1.145.622v.169l1.2-.67.73-1.174v2.6l-.6.953v.972l.651.352.887-.494.629-1.033v-.95l-.589-.332V89.021l.773-1.285,1.163-.619v-.158l-1.211.653Zm-.158.231-.663,1.1V86.983l.191-.321.276-.151.2.1Z" transform="translate(-115.778 -24.151)" fill="#995d43"/>
    <path id="Trazado_751645" data-name="Trazado 751645" d="M345.616,24.172l20.67,11.209,1.318,3.364,6.562.909,19.493,10.57L347.343,75.349,299.285,49.3Z" transform="translate(-83.736 -6.763)" fill="#f7e6bb"/>
    <path id="Trazado_751646" data-name="Trazado 751646" d="M335.859,69.113l-2.967.622L328,64.857l46.32-25.122,7.881,4.273Z" transform="translate(-91.77 -11.117)" fill="#b88f5a"/>
    <path id="Trazado_751647" data-name="Trazado 751647" d="M335.859,89.767,328,85.515v-10.9l7.858,4.256Z" transform="translate(-91.77 -20.877)" fill="#a16739"/>
    <path id="Trazado_751648" data-name="Trazado 751648" d="M287.14,26.772l-4.774-.059-4.325,2.346,4.759.985Z" transform="translate(-77.792 -7.474)" fill="#a1b346"/>
    <path id="Trazado_751649" data-name="Trazado 751649" d="M284.649,29.131,301.4,38.2l4.32-2.345L288.988,26.8Z" transform="translate(-79.641 -7.497)" fill="#dde65c"/>
    <path id="Trazado_751650" data-name="Trazado 751650" d="M307.9,41.721l4.38,6.131L317,44.488l-4.777-5.112Z" transform="translate(-86.147 -11.017)" fill="#a1b346"/>
    <path id="Trazado_751651" data-name="Trazado 751651" d="M317.923,67.859l-4.328,2.352L311.2,55.241l2.393-6.421,4.328-2.345Z" transform="translate(-87.07 -13.003)" fill="#92a145"/>
    <path id="Trazado_751652" data-name="Trazado 751652" d="M299.547,39.089,282.8,30.019l-4.758-.048V51.363l13.136,19.288,13.14-5.057V44.2Z" transform="translate(-77.792 -8.385)" fill="#b4c342"/>
    <path id="Trazado_751653" data-name="Trazado 751653" d="M301.552,45.29V63.055l-9.845,3.786-9.842-14.453V34.614Zm1.163-.642L280.691,32.714l-.758.411.736,2.429-.346,16.836,11.384,16.124,9.418-3.631.828-.2.762-.411Z" transform="translate(-78.322 -9.153)" fill="#d1d1d1"/>
    <path id="Trazado_751654" data-name="Trazado 751654" d="M301.327,57.263V56.1l-.758-1.243-1.075-.577-7.391,4-3.173-5.168-1.078-.591-1.543.85.221,1.6,5.024,6.428,1.082.58Z" transform="translate(-80.106 -14.693)" fill="#d1d1d1"/>
    <path id="Trazado_751655" data-name="Trazado 751655" d="M300.793,45.858V63.626l-9.856,3.79L281.106,52.96V35.2Zm1.16-.632L279.932,33.285V52.909l11,16.179,11.016-4.249Z" transform="translate(-78.321 -9.313)" fill="#fff"/>
    <path id="Trazado_751656" data-name="Trazado 751656" d="M299.5,58.446V57.275l-.762-1.247-1.078-.584-7.394,4.011-3.169-5.168-1.079-.591-.761.414v1.171l4.479,7.289,1.071.583Z" transform="translate(-79.81 -15.024)" fill="#fff"/>
    <g id="Grupo_1021530" data-name="Grupo 1021530">
      <g id="Grupo_1021529" data-name="Grupo 1021529" clip-path="url(#clip-path)">
        <g id="Grupo_1021528" data-name="Grupo 1021528" transform="translate(185.855 187.368)" opacity="0.3">
          <g id="Grupo_1021527" data-name="Grupo 1021527">
            <g id="Grupo_1021526" data-name="Grupo 1021526" clip-path="url(#clip-path-19)">
              <path id="Trazado_751657" data-name="Trazado 751657" d="M330.816,266.958,270.6,299.572l-12.548-6.791,60.215-32.625Z" transform="translate(-258.055 -260.157)"/>
            </g>
          </g>
        </g>
      </g>
    </g>
    <path id="Trazado_751658" data-name="Trazado 751658" d="M357.233,260.273l-1.906,1.758-.776-1.937-2.536-3.029,2.941-.491Z" transform="translate(-98.489 -71.786)" fill="#dde65c"/>
    <path id="Trazado_751659" data-name="Trazado 751659" d="M358.247,265.21l-1.509.822-1.1-2.562,1.1-.936,1.509-.822Z" transform="translate(-99.503 -73.223)" fill="#92a145"/>
    <path id="Trazado_751660" data-name="Trazado 751660" d="M349.349,255.672l-9.665-5.237-2.285,1.234v3.5l2.285,3.7,9.665,5.24,2.286-1.233v-3.5Z" transform="translate(-94.4 -70.069)" fill="#e3bd5e"/>
    <path id="Trazado_751661" data-name="Trazado 751661" d="M350.237,255.355l-9.665-5.237,1.512-.815,9.669,5.236Z" transform="translate(-95.288 -69.752)" fill="#edf763"/>
    <path id="Trazado_751662" data-name="Trazado 751662" d="M296.438,293.131,286.42,287.7l-2.533-4.11v-3.872l2.533-1.379,10.018,5.43,2.521,4.1v3.879Z" transform="translate(-79.428 -77.877)" fill="#685750"/>
    <path id="Trazado_751663" data-name="Trazado 751663" d="M335.306,255.262,318.1,267.584,297.422,275.8l-10.018-5.43,37.885-20.532Z" transform="translate(-80.412 -69.901)" fill="#836e69"/>
    <path id="Trazado_751664" data-name="Trazado 751664" d="M340.2,257.447,324.244,266.1l-2.264-1.223,15.956-8.649Z" transform="translate(-90.086 -71.688)" fill="#a39685"/>
    <path id="Trazado_751665" data-name="Trazado 751665" d="M342.713,266.959l-37.9,20.528v-3.879l15.746-10.933,22.153-9.588Z" transform="translate(-85.283 -73.609)" fill="#362c29"/>
    <path id="Trazado_751666" data-name="Trazado 751666" d="M341.734,261.488l-37.9,20.522-2.521-4.1L339.2,257.37Z" transform="translate(-84.304 -72.009)" fill="#685750"/>
    <path id="Trazado_751667" data-name="Trazado 751667" d="M302.205,290.094l-1.9,1.758-.769-1.941-2.558-3.033,2.941-.5Z" transform="translate(-83.09 -80.124)" fill="#dde65c"/>
    <path id="Trazado_751668" data-name="Trazado 751668" d="M303.222,295.03l-1.524.815-1.09-2.549,1.09-.94,1.524-.819Z" transform="translate(-84.106 -81.568)" fill="#92a145"/>
    <path id="Trazado_751669" data-name="Trazado 751669" d="M294.32,285.494l-9.658-5.237-2.282,1.233v3.5l2.282,3.706,9.658,5.237,2.278-1.24V289.2Z" transform="translate(-79.006 -78.412)" fill="#e3bd5e"/>
    <path id="Trazado_751670" data-name="Trazado 751670" d="M295.206,285.176l-9.658-5.237,1.513-.818,9.658,5.226Z" transform="translate(-79.893 -78.094)" fill="#edf763"/>
    <path id="Trazado_751671" data-name="Trazado 751671" d="M296.99,294.444l-2.83,1.541-2.249-4.148,5.08-.884Z" transform="translate(-81.673 -81.405)" fill="#cc934c"/>
    <path id="Trazado_751672" data-name="Trazado 751672" d="M280.76,298.282l-3.788-2.041v-3.5l6.261.653Z" transform="translate(-77.493 -81.905)" fill="#e3bd5e"/>
    <path id="Trazado_751673" data-name="Trazado 751673" d="M291.451,296.2l-9.22,1.8v-3.492l3.725-2.781,5.5.981Z" transform="translate(-78.965 -81.621)" fill="#ffd46a"/>
    <path id="Trazado_751674" data-name="Trazado 751674" d="M283.138,283.672l-2.849,1.537-3.316,4.995,3.787,2.048,9.22-1.8,2.83-1.538Z" transform="translate(-77.494 -79.368)" fill="#fbe979"/>
    <path id="Trazado_751675" data-name="Trazado 751675" d="M274.1,295.81l-2.738,2.135-1.528,2.356,5.429-4.535-.335-.4Z" transform="translate(-75.497 -82.639)" fill="#e3bd5e"/>
    <path id="Trazado_751676" data-name="Trazado 751676" d="M269.839,301.368l2.933-.076,3.338-1.178.821-.446-.207-.491Z" transform="translate(-75.498 -83.706)" fill="#e3bd5e"/>
    <path id="Trazado_751677" data-name="Trazado 751677" d="M274.933,295.074l-2.985,2.256-2.108,2.681,2.8-2.121.869-.163.95-.46.857-.8,1.152-.166,1-1.344-1.17-.632Z" transform="translate(-75.498 -82.348)" fill="#fbe979"/>
    <path id="Trazado_751678" data-name="Trazado 751678" d="M276.1,295.941l-3.327,2.086-2.929,2.228,2.318-.5.953-.626.854-.162,1.325-.383.644-.522,1-.5,1.362-1.019-.825-1.343Z" transform="translate(-75.498 -82.594)" fill="#fff3ab"/>
    <path id="Trazado_751679" data-name="Trazado 751679" d="M269.86,300.777l3.5-.39,3.574-1.309,1.362-.746v-1.264l-1.362.736-3.577,1.689Z" transform="translate(-75.503 -83.116)" fill="#fbe979"/>
    <path id="Trazado_751680" data-name="Trazado 751680" d="M271.837,306.464l-10.03-5.434-2.521-4.107v-3.872l2.521-1.375,10.03,5.43,2.518,4.117v3.869Z" transform="translate(-72.545 -81.607)" fill="#685750"/>
    <path id="Trazado_751681" data-name="Trazado 751681" d="M289.195,284.776l-8.259,6.387-8.119,2.494-10.03-5.43,16.393-8.88Z" transform="translate(-73.524 -78.158)" fill="#836e69"/>
    <path id="Trazado_751682" data-name="Trazado 751682" d="M296.605,296.465l-16.4,8.884V301.48l8.429-6.007,7.968-2.881Z" transform="translate(-78.399 -81.864)" fill="#362c29"/>
    <path id="Trazado_751683" data-name="Trazado 751683" d="M295.627,291l-16.4,8.887-2.518-4.117,16.379-8.881Z" transform="translate(-77.42 -80.267)" fill="#685750"/>
    <path id="Trazado_751684" data-name="Trazado 751684" d="M277.594,303.426l-1.906,1.762-.773-1.938-2.536-3.029,2.933-.5Z" transform="translate(-76.208 -83.858)" fill="#dde65c"/>
    <path id="Trazado_751685" data-name="Trazado 751685" d="M278.607,308.365l-1.517.819L276,306.627l1.093-.94,1.517-.823Z" transform="translate(-77.221 -85.297)" fill="#92a145"/>
    <path id="Trazado_751686" data-name="Trazado 751686" d="M269.723,298.827l-9.676-5.237-2.279,1.237v3.489l2.279,3.71,9.676,5.237,2.267-1.233v-3.5Z" transform="translate(-72.12 -82.143)" fill="#b4c342"/>
    <path id="Trazado_751687" data-name="Trazado 751687" d="M270.608,298.506l-9.676-5.237,1.516-.825,9.662,5.24Z" transform="translate(-73.005 -81.822)" fill="#edf763"/>
    <g id="Grupo_1021535" data-name="Grupo 1021535">
      <g id="Grupo_1021534" data-name="Grupo 1021534" clip-path="url(#clip-path)">
        <g id="Grupo_1021533" data-name="Grupo 1021533" transform="translate(166.984 144.999)" opacity="0.3">
          <g id="Grupo_1021532" data-name="Grupo 1021532">
            <g id="Grupo_1021531" data-name="Grupo 1021531" clip-path="url(#clip-path-21)">
              <path id="Trazado_751688" data-name="Trazado 751688" d="M304.7,208.14,244.416,240.8,231.854,234l60.284-32.67Z" transform="translate(-231.854 -201.328)"/>
            </g>
          </g>
        </g>
      </g>
    </g>
    <path id="Trazado_751689" data-name="Trazado 751689" d="M331.166,201.456l-1.911,1.762-.772-1.948-2.547-3.029,2.944-.494Z" transform="translate(-91.193 -55.327)" fill="#bf261b"/>
    <path id="Trazado_751690" data-name="Trazado 751690" d="M332.183,206.393l-1.517.822-1.1-2.556,1.1-.951,1.517-.811Z" transform="translate(-92.209 -56.768)" fill="#991f16"/>
    <path id="Trazado_751691" data-name="Trazado 751691" d="M323.272,196.841,313.6,191.6l-2.286,1.233v3.506l2.286,3.709,9.676,5.24,2.285-1.233v-3.506Z" transform="translate(-87.1 -53.607)" fill="#c84030"/>
    <path id="Trazado_751692" data-name="Trazado 751692" d="M324.16,196.524l-9.676-5.243,1.516-.815,9.676,5.243Z" transform="translate(-87.988 -53.29)" fill="#fa5c52"/>
    <path id="Trazado_751693" data-name="Trazado 751693" d="M270.279,234.354l-10.03-5.437-2.532-4.124v-3.879l2.532-1.375,10.03,5.44,2.539,4.125v3.875Z" transform="translate(-72.106 -61.424)" fill="#685750"/>
    <path id="Trazado_751694" data-name="Trazado 751694" d="M309.213,196.438l-17.247,12.324-20.7,8.231-10.03-5.44L299.176,191Z" transform="translate(-73.09 -53.439)" fill="#836e69"/>
    <path id="Trazado_751695" data-name="Trazado 751695" d="M314.107,198.623l-15.984,8.663-2.271-1.222,15.988-8.663Z" transform="translate(-82.775 -55.23)" fill="#a39685"/>
    <path id="Trazado_751696" data-name="Trazado 751696" d="M316.636,208.135,278.685,228.7v-3.875l15.756-10.967,22.194-9.6Z" transform="translate(-77.973 -57.149)" fill="#362c29"/>
    <path id="Trazado_751697" data-name="Trazado 751697" d="M315.649,202.662,277.7,223.232l-2.539-4.124,37.95-20.556Z" transform="translate(-76.986 -55.552)" fill="#685750"/>
    <path id="Trazado_751698" data-name="Trazado 751698" d="M276.059,231.313l-1.918,1.762-.765-1.938-2.551-3.036,2.951-.494Z" transform="translate(-75.773 -63.681)" fill="#bf261b"/>
    <path id="Trazado_751699" data-name="Trazado 751699" d="M277.077,236.258l-1.524.822-1.09-2.566,1.09-.946,1.524-.815Z" transform="translate(-76.791 -65.121)" fill="#991f16"/>
    <path id="Trazado_751700" data-name="Trazado 751700" d="M268.17,226.7l-9.683-5.25-2.282,1.24v3.5l2.282,3.717,9.683,5.243,2.274-1.229v-3.513Z" transform="translate(-71.683 -61.96)" fill="#c84030"/>
    <path id="Trazado_751701" data-name="Trazado 751701" d="M269.057,226.386l-9.683-5.25,1.512-.815,9.687,5.247Z" transform="translate(-72.569 -61.643)" fill="#fa5c52"/>
    <path id="Trazado_751702" data-name="Trazado 751702" d="M270.846,235.676l-2.853,1.544-2.238-4.156,5.09-.887Z" transform="translate(-74.355 -64.96)" fill="#991f16"/>
    <path id="Trazado_751703" data-name="Trazado 751703" d="M254.578,239.52l-3.78-2.055v-3.5l6.268.66Z" transform="translate(-70.17 -65.461)" fill="#c84030"/>
    <path id="Trazado_751704" data-name="Trazado 751704" d="M265.277,237.437l-9.231,1.8v-3.5l3.736-2.781,5.5.985Z" transform="translate(-71.638 -65.177)" fill="#bf261b"/>
    <path id="Trazado_751705" data-name="Trazado 751705" d="M256.959,224.887l-2.845,1.533-3.316,5.005,3.78,2.052,9.231-1.8,2.852-1.544Z" transform="translate(-70.17 -62.92)" fill="#fa5c52"/>
    <path id="Trazado_751706" data-name="Trazado 751706" d="M247.91,237.036l-2.735,2.138-1.528,2.356L249.081,237l-.342-.4Z" transform="translate(-68.17 -66.196)" fill="#991f16"/>
    <path id="Trazado_751707" data-name="Trazado 751707" d="M243.648,242.6l2.944-.066,3.331-1.182.835-.449-.22-.487Z" transform="translate(-68.17 -67.265)" fill="#991f16"/>
    <path id="Trazado_751708" data-name="Trazado 751708" d="M248.739,236.3l-2.985,2.262-2.105,2.674,2.786-2.117.876-.163.964-.463.854-.8,1.159-.166,1-1.351-1.17-.632Z" transform="translate(-68.17 -65.902)" fill="#bf261b"/>
    <path id="Trazado_751709" data-name="Trazado 751709" d="M249.909,237.171l-3.324,2.076-2.937,2.235,2.323-.5.946-.618.858-.156,1.322-.383.67-.525.986-.5,1.362-1.033-.828-1.344Z" transform="translate(-68.17 -66.147)" fill="#fa5c52"/>
    <path id="Trazado_751710" data-name="Trazado 751710" d="M243.658,242l3.519-.39,3.585-1.306,1.362-.75-.007-1.271-1.362.743-3.585,1.7Z" transform="translate(-68.172 -66.67)" fill="#bf261b"/>
    <path id="Trazado_751711" data-name="Trazado 751711" d="M245.635,247.711l-10.026-5.437-2.54-4.124v-3.886l2.54-1.368,10.026,5.44,2.532,4.118v3.875Z" transform="translate(-65.21 -65.161)" fill="#685750"/>
    <path id="Trazado_751712" data-name="Trazado 751712" d="M263.037,225.978l-8.3,6.4-8.12,2.5-10.026-5.44,16.4-8.891Z" transform="translate(-66.196 -61.707)" fill="#836e69"/>
    <path id="Trazado_751713" data-name="Trazado 751713" d="M270.444,237.7l-16.412,8.887v-3.875l8.443-6.01,7.968-2.884Z" transform="translate(-71.075 -65.419)" fill="#362c29"/>
    <path id="Trazado_751714" data-name="Trazado 751714" d="M269.461,232.214l-16.412,8.895-2.532-4.117,16.415-8.9Z" transform="translate(-70.091 -63.816)" fill="#685750"/>
    <path id="Trazado_751715" data-name="Trazado 751715" d="M251.4,244.665l-1.9,1.765-.773-1.948-2.555-3.029,2.949-.494Z" transform="translate(-68.877 -67.417)" fill="#bf261b"/>
    <path id="Trazado_751716" data-name="Trazado 751716" d="M252.421,249.607l-1.505.825-1.1-2.563,1.1-.94,1.505-.825Z" transform="translate(-69.894 -68.857)" fill="#991f16"/>
    <path id="Trazado_751717" data-name="Trazado 751717" d="M243.528,240.053l-9.688-5.243-2.278,1.24v3.5l2.278,3.71,9.688,5.247,2.282-1.233v-3.5Z" transform="translate(-64.788 -65.697)" fill="#c84030"/>
    <path id="Trazado_751718" data-name="Trazado 751718" d="M244.413,239.734l-9.688-5.243,1.51-.822,9.687,5.25Z" transform="translate(-65.673 -65.377)" fill="#fa5c52"/>
  </g>
</svg>
