<svg xmlns="http://www.w3.org/2000/svg" xmlns:xlink="http://www.w3.org/1999/xlink" width="555.774" height="265.582" viewBox="0 0 555.774 265.582">
  <defs>
    <clipPath id="clip-path">
      <rect id="Rectángulo_360739" data-name="Rectángulo 360739" width="523.132" height="260.003" fill="none"/>
    </clipPath>
  </defs>
  <g id="Grupo_1024395" data-name="Grupo 1024395" transform="translate(-821.344 -8676.535)">
    <g id="Grupo_1024391" data-name="Grupo 1024391" transform="translate(853.434 8676.535)">
      <path id="Trazado_762443" data-name="Trazado 762443" d="M4.444,222.582v0Z" transform="translate(0.687 0.154)" fill="#84d6e0"/>
      <g id="Grupo_1024372" data-name="Grupo 1024372">
        <g id="Grupo_1024371" data-name="Grupo 1024371" clip-path="url(#clip-path)">
          <line id="Línea_3351" data-name="Línea 3351" y2="221.582" transform="translate(5.131 1.154)" fill="none" stroke="#12263f" stroke-miterlimit="10" stroke-width="3"/>
        </g>
      </g>
      <path id="Trazado_762444" data-name="Trazado 762444" d="M0,189.045H0Z" transform="translate(0 29.204)" fill="#84d6e0"/>
      <g id="Grupo_1024374" data-name="Grupo 1024374">
        <g id="Grupo_1024373" data-name="Grupo 1024373" clip-path="url(#clip-path)">
          <path id="Trazado_762465" data-name="Trazado 762465" d="M523.132,0H0" transform="translate(0 218.248)" fill="none" stroke="#12263f" stroke-width="3"/>
        </g>
      </g>
      <path id="Trazado_762445" data-name="Trazado 762445" d="M.257,30.69h0Z" transform="translate(0.04 4.741)" fill="#84d6e0"/>
      <g id="Grupo_1024376" data-name="Grupo 1024376">
        <g id="Grupo_1024375" data-name="Grupo 1024375" clip-path="url(#clip-path)">
          <line id="Línea_3353" data-name="Línea 3353" x1="4.835" transform="translate(0.296 35.431)" fill="none" stroke="#12263f" stroke-miterlimit="10" stroke-width="2"/>
        </g>
      </g>
      <path id="Trazado_762446" data-name="Trazado 762446" d="M.257,62.181h0Z" transform="translate(0.04 9.606)" fill="#84d6e0"/>
      <g id="Grupo_1024378" data-name="Grupo 1024378">
        <g id="Grupo_1024377" data-name="Grupo 1024377" clip-path="url(#clip-path)">
          <line id="Línea_3354" data-name="Línea 3354" x1="4.835" transform="translate(0.296 71.786)" fill="none" stroke="#12263f" stroke-miterlimit="10" stroke-width="2"/>
        </g>
      </g>
      <path id="Trazado_762447" data-name="Trazado 762447" d="M.257,94.971h0Z" transform="translate(0.04 14.671)" fill="#84d6e0"/>
      <g id="Grupo_1024380" data-name="Grupo 1024380">
        <g id="Grupo_1024379" data-name="Grupo 1024379" clip-path="url(#clip-path)">
          <line id="Línea_3355" data-name="Línea 3355" x1="4.835" transform="translate(0.296 109.642)" fill="none" stroke="#12263f" stroke-miterlimit="10" stroke-width="2"/>
        </g>
      </g>
      <path id="Trazado_762448" data-name="Trazado 762448" d="M.257,126.162h0Z" transform="translate(0.04 19.49)" fill="#84d6e0"/>
      <g id="Grupo_1024382" data-name="Grupo 1024382">
        <g id="Grupo_1024381" data-name="Grupo 1024381" clip-path="url(#clip-path)">
          <line id="Línea_3356" data-name="Línea 3356" x1="4.835" transform="translate(0.296 145.651)" fill="none" stroke="#12263f" stroke-miterlimit="10" stroke-width="2"/>
        </g>
      </g>
      <path id="Trazado_762449" data-name="Trazado 762449" d="M.257,157.276h0Z" transform="translate(0.04 24.296)" fill="#84d6e0"/>
      <g id="Grupo_1024384" data-name="Grupo 1024384">
        <g id="Grupo_1024383" data-name="Grupo 1024383" clip-path="url(#clip-path)">
          <line id="Línea_3357" data-name="Línea 3357" x2="4.835" transform="translate(0.296 181.572)" fill="none" stroke="#12263f" stroke-miterlimit="10" stroke-width="2"/>
        </g>
      </g>
      <path id="Trazado_762450" data-name="Trazado 762450" d="M78.465,193.888v0Z" transform="translate(12.121 29.204)" fill="#84d6e0"/>
      <line id="Línea_3358" data-name="Línea 3358" y1="4.843" transform="translate(90.586 218.248)" fill="none" stroke="#12263f" stroke-miterlimit="10" stroke-width="2"/>
      <path id="Trazado_762451" data-name="Trazado 762451" d="M152.935,193.888v0Z" transform="translate(23.625 29.204)" fill="#84d6e0"/>
      <line id="Línea_3359" data-name="Línea 3359" y1="4.843" transform="translate(176.561 218.248)" fill="none" stroke="#12263f" stroke-miterlimit="10" stroke-width="2"/>
      <path id="Trazado_762452" data-name="Trazado 762452" d="M228.356,193.888v0Z" transform="translate(35.276 29.204)" fill="#84d6e0"/>
      <line id="Línea_3360" data-name="Línea 3360" y1="4.843" transform="translate(263.633 218.248)" fill="none" stroke="#12263f" stroke-miterlimit="10" stroke-width="2"/>
      <path id="Trazado_762453" data-name="Trazado 762453" d="M301.777,193.888v0Z" transform="translate(46.619 29.204)" fill="#84d6e0"/>
      <line id="Línea_3361" data-name="Línea 3361" y1="4.843" transform="translate(348.396 218.248)" fill="none" stroke="#12263f" stroke-miterlimit="10" stroke-width="2"/>
      <path id="Trazado_762454" data-name="Trazado 762454" d="M376.087,193.888v0Z" transform="translate(58.098 29.204)" fill="#84d6e0"/>
      <line id="Línea_3362" data-name="Línea 3362" y1="4.843" transform="translate(434.185 218.248)" fill="none" stroke="#12263f" stroke-miterlimit="10" stroke-width="2"/>
      <path id="Trazado_762455" data-name="Trazado 762455" d="M452.071,193.888v0Z" transform="translate(69.836 29.204)" fill="#84d6e0"/>
      <g id="Grupo_1024386" data-name="Grupo 1024386">
        <g id="Grupo_1024385" data-name="Grupo 1024385" clip-path="url(#clip-path)">
          <line id="Línea_3363" data-name="Línea 3363" y1="4.843" transform="translate(521.907 218.248)" fill="none" stroke="#12263f" stroke-miterlimit="10" stroke-width="2"/>
        </g>
      </g>
      <path id="Trazado_762456" data-name="Trazado 762456" d="M.257,1h0Z" transform="translate(0.04 0.154)" fill="#84d6e0"/>
      <g id="Grupo_1024388" data-name="Grupo 1024388">
        <g id="Grupo_1024387" data-name="Grupo 1024387" clip-path="url(#clip-path)">
          <line id="Línea_3364" data-name="Línea 3364" x1="6.056" transform="translate(0.296 1.154)" fill="none" stroke="#12263f" stroke-miterlimit="10" stroke-width="2"/>
        </g>
      </g>
      <path id="Trazado_762457" data-name="Trazado 762457" d="M400.786,189.044V198.6H92.129v-9.558" transform="translate(14.232 29.204)" fill="none" stroke="#12263f" stroke-miterlimit="10" stroke-width="1"/>
      <line id="Línea_3365" data-name="Línea 3365" y2="6.845" transform="translate(263.633 227.805)" fill="none" stroke="#12263f" stroke-miterlimit="10" stroke-width="1"/>
      <line id="Línea_3366" data-name="Línea 3366" y1="71.55" x2="72.148" transform="translate(12.119 181.572)" fill="none" stroke="#57dbd8" stroke-miterlimit="10" stroke-width="1"/>
      <path id="Trazado_762458" data-name="Trazado 762458" d="M4.444,156.746h0Z" transform="translate(0.687 24.214)" fill="#84d6e0"/>
      <line id="Línea_3367" data-name="Línea 3367" x2="409.887" transform="translate(5.131 180.961)" fill="none" stroke="#57dbd8" stroke-miterlimit="10" stroke-width="2" stroke-dasharray="4 4"/>
      <path id="Trazado_762459" data-name="Trazado 762459" d="M4.444,111.77h0Z" transform="translate(0.687 17.266)" fill="#84d6e0"/>
      <path id="Trazado_762464" data-name="Trazado 762464" d="M0,0H409.887" transform="translate(5.131 129.036)" fill="none" stroke="#fe7062" stroke-width="2"/>
      <path id="Trazado_762460" data-name="Trazado 762460" d="M4.444,30.69h0Z" transform="translate(0.687 4.741)" fill="#84d6e0"/>
      <line id="Línea_3369" data-name="Línea 3369" x2="457.044" transform="translate(5.131 35.431)" fill="none" stroke="#12263f" stroke-miterlimit="10" stroke-width="2"/>
      <path id="Trazado_762461" data-name="Trazado 762461" d="M5.5,36.754,105.512,210.5V31.865L209.224,210.5V31.865l103.132,180.56V31.865l101.811,178.3" transform="translate(0.85 4.922)" fill="none" stroke="#1a0f91" stroke-miterlimit="10" stroke-width="2"/>
      <g id="Grupo_1024390" data-name="Grupo 1024390">
        <g id="Grupo_1024389" data-name="Grupo 1024389" clip-path="url(#clip-path)">
          <path id="Trazado_762462" data-name="Trazado 762462" d="M83.309,189.044v39.481H97.229" transform="translate(12.87 30.9)" fill="none" stroke="#b4661c" stroke-miterlimit="10" stroke-width="1"/>
        </g>
      </g>
      <path id="Trazado_762463" data-name="Trazado 762463" d="M73.991,193.051v0Z" transform="translate(11.43 24.296)" fill="#84d6e0"/>
      <line id="Línea_3370" data-name="Línea 3370" y1="35.775" transform="translate(85.421 181.572)" fill="none" stroke="#57dbd8" stroke-miterlimit="10" stroke-width="2" stroke-dasharray="4 4"/>
    </g>
    <g id="Trazado_762569" data-name="Trazado 762569" transform="translate(933 8851)" fill="#fff">
      <path d="M 6 11.5 C 2.967289924621582 11.5 0.5 9.032710075378418 0.5 6 C 0.5 2.967289924621582 2.967289924621582 0.5 6 0.5 C 9.032710075378418 0.5 11.5 2.967289924621582 11.5 6 C 11.5 9.032710075378418 9.032710075378418 11.5 6 11.5 Z" stroke="none"/>
      <path d="M 6 1 C 3.242989540100098 1 1 3.242989540100098 1 6 C 1 8.757009506225586 3.242989540100098 11 6 11 C 8.757009506225586 11 11 8.757009506225586 11 6 C 11 3.242989540100098 8.757009506225586 1 6 1 M 6 0 C 9.31371021270752 0 12 2.68628978729248 12 6 C 12 9.31371021270752 9.31371021270752 12 6 12 C 2.68628978729248 12 0 9.31371021270752 0 6 C 0 2.68628978729248 2.68628978729248 0 6 0 Z" stroke="none" fill="#12263f"/>
    </g>
    <g id="Trazado_762566" data-name="Trazado 762566" transform="translate(1037 8851)" fill="#fff">
      <path d="M 6 11.5 C 2.967289924621582 11.5 0.5 9.032710075378418 0.5 6 C 0.5 2.967289924621582 2.967289924621582 0.5 6 0.5 C 9.032710075378418 0.5 11.5 2.967289924621582 11.5 6 C 11.5 9.032710075378418 9.032710075378418 11.5 6 11.5 Z" stroke="none"/>
      <path d="M 6 1 C 3.242989540100098 1 1 3.242989540100098 1 6 C 1 8.757009506225586 3.242989540100098 11 6 11 C 8.757009506225586 11 11 8.757009506225586 11 6 C 11 3.242989540100098 8.757009506225586 1 6 1 M 6 0 C 9.31371021270752 0 12 2.68628978729248 12 6 C 12 9.31371021270752 9.31371021270752 12 6 12 C 2.68628978729248 12 0 9.31371021270752 0 6 C 0 2.68628978729248 2.68628978729248 0 6 0 Z" stroke="none" fill="#12263f"/>
    </g>
    <g id="Trazado_762563" data-name="Trazado 762563" transform="translate(1141 8851)" fill="#fff">
      <path d="M 6 11.5 C 2.967289924621582 11.5 0.5 9.032710075378418 0.5 6 C 0.5 2.967289924621582 2.967289924621582 0.5 6 0.5 C 9.032710075378418 0.5 11.5 2.967289924621582 11.5 6 C 11.5 9.032710075378418 9.032710075378418 11.5 6 11.5 Z" stroke="none"/>
      <path d="M 6 1 C 3.242989540100098 1 1 3.242989540100098 1 6 C 1 8.757009506225586 3.242989540100098 11 6 11 C 8.757009506225586 11 11 8.757009506225586 11 6 C 11 3.242989540100098 8.757009506225586 1 6 1 M 6 0 C 9.31371021270752 0 12 2.68628978729248 12 6 C 12 9.31371021270752 9.31371021270752 12 6 12 C 2.68628978729248 12 0 9.31371021270752 0 6 C 0 2.68628978729248 2.68628978729248 0 6 0 Z" stroke="none" fill="#12263f"/>
    </g>
    <g id="Trazado_762564" data-name="Trazado 762564" transform="translate(1245 8851)" fill="#fff">
      <path d="M 6 11.5 C 2.967289924621582 11.5 0.5 9.032710075378418 0.5 6 C 0.5 2.967289924621582 2.967289924621582 0.5 6 0.5 C 9.032710075378418 0.5 11.5 2.967289924621582 11.5 6 C 11.5 9.032710075378418 9.032710075378418 11.5 6 11.5 Z" stroke="none"/>
      <path d="M 6 1 C 3.242989540100098 1 1 3.242989540100098 1 6 C 1 8.757009506225586 3.242989540100098 11 6 11 C 8.757009506225586 11 11 8.757009506225586 11 6 C 11 3.242989540100098 8.757009506225586 1 6 1 M 6 0 C 9.31371021270752 0 12 2.68628978729248 12 6 C 12 9.31371021270752 9.31371021270752 12 6 12 C 2.68628978729248 12 0 9.31371021270752 0 6 C 0 2.68628978729248 2.68628978729248 0 6 0 Z" stroke="none" fill="#12263f"/>
    </g>
    <path id="Trazado_762567" data-name="Trazado 762567" d="M-24.252-.92h3.926L-20.49,0h-5.027l1.482-8.531h1.107ZM-16.617.117a2.286,2.286,0,0,1-1.852-.873,3,3,0,0,1-.562-2.174L-19-3.182a4.218,4.218,0,0,1,.56-1.723A3.254,3.254,0,0,1-17.32-6.079a2.618,2.618,0,0,1,1.43-.378,2.016,2.016,0,0,1,1.535.65,2.675,2.675,0,0,1,.609,1.7,4.966,4.966,0,0,1-.023.762l-.064.486h-4.143a2.142,2.142,0,0,0,.284,1.465,1.346,1.346,0,0,0,1.163.627,2.255,2.255,0,0,0,1.734-.844l.609.516a2.789,2.789,0,0,1-1.028.9A2.914,2.914,0,0,1-16.617.117Zm.674-5.689a1.549,1.549,0,0,0-1.146.445,3.165,3.165,0,0,0-.776,1.377l3.082.006.023-.094A1.734,1.734,0,0,0-15-5.065,1.116,1.116,0,0,0-15.943-5.572ZM-9.258,0A1.42,1.42,0,0,1-9.3-.334l.018-.334a2.6,2.6,0,0,1-1.852.785A1.894,1.894,0,0,1-12.5-.413a1.6,1.6,0,0,1-.478-1.3,1.952,1.952,0,0,1,.882-1.573A3.754,3.754,0,0,1-9.926-3.85l1.107.006.07-.5a1.159,1.159,0,0,0-.22-.9A1.06,1.06,0,0,0-9.8-5.59a1.635,1.635,0,0,0-.964.267,1.135,1.135,0,0,0-.513.735l-1.066.006a1.7,1.7,0,0,1,.434-.987,2.523,2.523,0,0,1,.979-.668A3.161,3.161,0,0,1-9.7-6.463a2.1,2.1,0,0,1,1.541.6A1.863,1.863,0,0,1-7.693-4.33l-.516,3.141-.029.451a2.212,2.212,0,0,0,.07.639L-8.18,0Zm-1.664-.82a1.85,1.85,0,0,0,.964-.243,2.441,2.441,0,0,0,.782-.706l.229-1.307-.8-.006a3.041,3.041,0,0,0-1.535.316,1.165,1.165,0,0,0-.6.9.908.908,0,0,0,.208.741A.991.991,0,0,0-10.922-.82Zm4.482-2.361a4.933,4.933,0,0,1,.533-1.746A3.023,3.023,0,0,1-4.881-6.094a2.345,2.345,0,0,1,1.342-.369,1.98,1.98,0,0,1,1.629.773L-1.3-9H-.24L-1.8,0h-.967l.111-.68a2.337,2.337,0,0,1-1.852.8,1.751,1.751,0,0,1-1.4-.688,3,3,0,0,1-.562-1.784A5.7,5.7,0,0,1-6.439-3.182Zm1.02.606a2.2,2.2,0,0,0,.3,1.3A1.078,1.078,0,0,0-4.2-.8a1.916,1.916,0,0,0,1.635-.925l.5-2.926a1.316,1.316,0,0,0-1.277-.89,1.607,1.607,0,0,0-1.1.377,2.442,2.442,0,0,0-.727,1.106A4.561,4.561,0,0,0-5.42-2.576Zm11.039-5.3L5.35-6.34H6.5L6.357-5.5H5.209L4.547-1.559a1.375,1.375,0,0,0-.006.281.447.447,0,0,0,.5.457,3.037,3.037,0,0,0,.516-.059L5.473.006A2.885,2.885,0,0,1,4.7.111,1.107,1.107,0,0,1,3.75-.354,1.8,1.8,0,0,1,3.5-1.576L4.148-5.5H3.029l.146-.838H4.295l.27-1.535ZM7.828,0H6.773l1.1-6.34H8.93ZM8.7-8.654a.58.58,0,0,1,.448.161.6.6,0,0,1,.179.454.637.637,0,0,1-.179.451A.642.642,0,0,1,8.7-7.4a.584.584,0,0,1-.451-.158A.573.573,0,0,1,8.08-8a.665.665,0,0,1,.176-.457A.62.62,0,0,1,8.7-8.654Zm2.953,2.309-.135.709a2.479,2.479,0,0,1,1.928-.82,1.956,1.956,0,0,1,1.022.275,1.351,1.351,0,0,1,.577.744,2.618,2.618,0,0,1,2.1-1.02,1.676,1.676,0,0,1,1.4.639,2.281,2.281,0,0,1,.334,1.652L18.188,0H17.133l.691-4.178a2.207,2.207,0,0,0,0-.557q-.111-.8-1.043-.814a1.6,1.6,0,0,0-1.052.36,1.667,1.667,0,0,0-.606.976L14.4,0H13.336l.7-4.172a1.34,1.34,0,0,0-.2-1A1.033,1.033,0,0,0,13-5.537a1.736,1.736,0,0,0-1.576.9L10.617,0H9.557l1.1-6.34ZM22.564.117a2.286,2.286,0,0,1-1.852-.873A3,3,0,0,1,20.15-2.93l.029-.252a4.218,4.218,0,0,1,.56-1.723,3.254,3.254,0,0,1,1.122-1.175,2.618,2.618,0,0,1,1.43-.378,2.016,2.016,0,0,1,1.535.65,2.675,2.675,0,0,1,.609,1.7,4.966,4.966,0,0,1-.023.762l-.064.486H21.205a2.142,2.142,0,0,0,.284,1.465,1.346,1.346,0,0,0,1.163.627,2.255,2.255,0,0,0,1.734-.844L25-1.1a2.789,2.789,0,0,1-1.028.9A2.914,2.914,0,0,1,22.564.117Zm.674-5.689a1.549,1.549,0,0,0-1.146.445,3.165,3.165,0,0,0-.776,1.377l3.082.006.023-.094a1.734,1.734,0,0,0-.237-1.228A1.116,1.116,0,0,0,23.238-5.572Z" transform="translate(994 8939)" fill="#b4661c"/>
    <path id="Trazado_762561" data-name="Trazado 762561" d="M-116.276,0V-8.531h2.625a3.986,3.986,0,0,1,2.013.507,3.534,3.534,0,0,1,1.386,1.441,4.446,4.446,0,0,1,.5,2.124v.393a4.458,4.458,0,0,1-.489,2.115,3.5,3.5,0,0,1-1.38,1.436,4.016,4.016,0,0,1-2.01.516Zm1.758-7.107v5.7h.85a1.909,1.909,0,0,0,1.576-.674,3.045,3.045,0,0,0,.557-1.928v-.451a3.093,3.093,0,0,0-.539-1.972,1.9,1.9,0,0,0-1.576-.671ZM-106.761,0h-1.693V-6.34h1.693Zm-.5-8.912h1.846L-107.036-7.1h-1.377ZM-101.628,0a1.88,1.88,0,0,1-.17-.568,2.049,2.049,0,0,1-1.6.686,2.251,2.251,0,0,1-1.544-.539,1.734,1.734,0,0,1-.612-1.359,1.792,1.792,0,0,1,.747-1.547,3.686,3.686,0,0,1,2.159-.545h.779v-.363a1.045,1.045,0,0,0-.226-.7.887.887,0,0,0-.712-.264,1.009,1.009,0,0,0-.671.205.7.7,0,0,0-.243.563h-1.693a1.7,1.7,0,0,1,.34-1.02,2.246,2.246,0,0,1,.961-.735,3.5,3.5,0,0,1,1.395-.267,2.767,2.767,0,0,1,1.86.589,2.06,2.06,0,0,1,.688,1.655v2.748A3.031,3.031,0,0,0-99.917-.1V0Zm-1.4-1.178a1.458,1.458,0,0,0,.691-.167,1.1,1.1,0,0,0,.469-.448v-1.09h-.633q-1.271,0-1.354.879l-.006.1a.678.678,0,0,0,.223.521A.865.865,0,0,0-103.028-1.178Zm7.594-.574a.546.546,0,0,0-.308-.489,3.494,3.494,0,0,0-.987-.319q-2.262-.475-2.262-1.922a1.742,1.742,0,0,1,.7-1.409,2.825,2.825,0,0,1,1.831-.565,3.04,3.04,0,0,1,1.931.568,1.791,1.791,0,0,1,.724,1.477H-95.5a.819.819,0,0,0-.234-.6.992.992,0,0,0-.732-.237,1.013,1.013,0,0,0-.662.193.61.61,0,0,0-.234.492.522.522,0,0,0,.267.454,2.743,2.743,0,0,0,.9.3,7.346,7.346,0,0,1,1.066.284,1.752,1.752,0,0,1,1.342,1.705,1.654,1.654,0,0,1-.744,1.4,3.21,3.21,0,0,1-1.922.536,3.353,3.353,0,0,1-1.415-.284,2.374,2.374,0,0,1-.97-.779,1.811,1.811,0,0,1-.352-1.069h1.605a.884.884,0,0,0,.334.691,1.325,1.325,0,0,0,.832.24,1.226,1.226,0,0,0,.735-.185A.574.574,0,0,0-95.435-1.752ZM-86.792.117a3.112,3.112,0,0,1-2.271-.855,3.041,3.041,0,0,1-.876-2.279v-.164a3.83,3.83,0,0,1,.369-1.708,2.709,2.709,0,0,1,1.046-1.16,2.936,2.936,0,0,1,1.544-.407,2.631,2.631,0,0,1,2.048.82,3.333,3.333,0,0,1,.747,2.326v.691h-4.037a1.573,1.573,0,0,0,.5,1,1.5,1.5,0,0,0,1.046.375,1.828,1.828,0,0,0,1.529-.709l.832.932a2.542,2.542,0,0,1-1.031.841A3.383,3.383,0,0,1-86.792.117Zm-.193-5.209a1.058,1.058,0,0,0-.817.341,1.768,1.768,0,0,0-.4.977h2.355v-.135a1.261,1.261,0,0,0-.3-.874A1.092,1.092,0,0,0-86.985-5.092Zm5.32-1.248.053.732a2.213,2.213,0,0,1,1.822-.85,1.84,1.84,0,0,1,1.5.592,2.761,2.761,0,0,1,.5,1.77V0h-1.693V-4.055a1.1,1.1,0,0,0-.234-.782,1.049,1.049,0,0,0-.779-.243,1.165,1.165,0,0,0-1.072.609V0h-1.693V-6.34ZM-71.728,0h-1.7V-9h1.7ZM-70.6-3.229a3.76,3.76,0,0,1,.363-1.682,2.659,2.659,0,0,1,1.046-1.143,3.051,3.051,0,0,1,1.585-.4,2.887,2.887,0,0,1,2.095.785A3.151,3.151,0,0,1-64.6-3.539l.012.434a3.314,3.314,0,0,1-.814,2.341,2.831,2.831,0,0,1-2.186.882,2.845,2.845,0,0,1-2.188-.879A3.372,3.372,0,0,1-70.6-3.152Zm1.693.12a2.37,2.37,0,0,0,.34,1.382,1.121,1.121,0,0,0,.973.478,1.124,1.124,0,0,0,.961-.472,2.593,2.593,0,0,0,.346-1.511A2.346,2.346,0,0,0-66.63-4.6a1.124,1.124,0,0,0-.973-.487,1.105,1.105,0,0,0-.961.484A2.637,2.637,0,0,0-68.9-3.108Zm8.789,1.356a.546.546,0,0,0-.308-.489,3.494,3.494,0,0,0-.987-.319q-2.262-.475-2.262-1.922a1.742,1.742,0,0,1,.7-1.409,2.825,2.825,0,0,1,1.831-.565,3.04,3.04,0,0,1,1.931.568,1.791,1.791,0,0,1,.724,1.477h-1.693a.819.819,0,0,0-.234-.6.992.992,0,0,0-.732-.237,1.013,1.013,0,0,0-.662.193.61.61,0,0,0-.234.492.522.522,0,0,0,.267.454,2.743,2.743,0,0,0,.9.3,7.346,7.346,0,0,1,1.066.284,1.752,1.752,0,0,1,1.342,1.705,1.654,1.654,0,0,1-.744,1.4,3.21,3.21,0,0,1-1.922.536,3.353,3.353,0,0,1-1.415-.284,2.374,2.374,0,0,1-.97-.779,1.811,1.811,0,0,1-.352-1.069h1.605a.884.884,0,0,0,.334.691,1.325,1.325,0,0,0,.832.24,1.226,1.226,0,0,0,.735-.185A.574.574,0,0,0-60.114-1.752Zm8.361.5a1.111,1.111,0,0,0,.762-.258.9.9,0,0,0,.3-.686H-49.1a2.172,2.172,0,0,1-.352,1.181,2.32,2.32,0,0,1-.946.832,2.962,2.962,0,0,1-1.327.3,2.752,2.752,0,0,1-2.145-.864,3.42,3.42,0,0,1-.785-2.388v-.111a3.381,3.381,0,0,1,.779-2.338,2.72,2.72,0,0,1,2.139-.873,2.667,2.667,0,0,1,1.907.677,2.4,2.4,0,0,1,.729,1.8h-1.588a1.164,1.164,0,0,0-.3-.8,1.016,1.016,0,0,0-.773-.309,1.02,1.02,0,0,0-.894.431,2.5,2.5,0,0,0-.3,1.4v.176a2.531,2.531,0,0,0,.3,1.408A1.033,1.033,0,0,0-51.753-1.248Zm7.418.6a2.124,2.124,0,0,1-1.734.762,2,2,0,0,1-1.556-.586,2.5,2.5,0,0,1-.548-1.717V-6.34h1.693v4.1q0,.991.9.991a1.223,1.223,0,0,0,1.184-.6V-6.34h1.7V0h-1.594ZM-37.743,0a1.88,1.88,0,0,1-.17-.568,2.049,2.049,0,0,1-1.6.686,2.251,2.251,0,0,1-1.544-.539,1.734,1.734,0,0,1-.612-1.359,1.792,1.792,0,0,1,.747-1.547,3.686,3.686,0,0,1,2.159-.545h.779v-.363a1.045,1.045,0,0,0-.226-.7.887.887,0,0,0-.712-.264A1.009,1.009,0,0,0-39.592-5a.7.7,0,0,0-.243.563h-1.693a1.7,1.7,0,0,1,.34-1.02,2.246,2.246,0,0,1,.961-.735,3.5,3.5,0,0,1,1.395-.267,2.767,2.767,0,0,1,1.86.589,2.06,2.06,0,0,1,.688,1.655v2.748A3.031,3.031,0,0,0-36.032-.1V0Zm-1.4-1.178a1.458,1.458,0,0,0,.691-.167,1.1,1.1,0,0,0,.469-.448v-1.09h-.633q-1.271,0-1.354.879l-.006.1a.678.678,0,0,0,.223.521A.865.865,0,0,0-39.144-1.178ZM-33.2,0h-1.7V-9h1.7Zm4.313.117a3.112,3.112,0,0,1-2.271-.855,3.041,3.041,0,0,1-.876-2.279v-.164a3.83,3.83,0,0,1,.369-1.708,2.709,2.709,0,0,1,1.046-1.16,2.936,2.936,0,0,1,1.544-.407,2.631,2.631,0,0,1,2.048.82,3.333,3.333,0,0,1,.747,2.326v.691h-4.037a1.573,1.573,0,0,0,.5,1,1.5,1.5,0,0,0,1.046.375,1.828,1.828,0,0,0,1.529-.709l.832.932a2.542,2.542,0,0,1-1.031.841A3.383,3.383,0,0,1-28.884.117Zm-.193-5.209a1.058,1.058,0,0,0-.817.341,1.768,1.768,0,0,0-.4.977h2.355v-.135a1.261,1.261,0,0,0-.3-.874A1.092,1.092,0,0,0-29.077-5.092Zm7.2,3.34a.546.546,0,0,0-.308-.489,3.494,3.494,0,0,0-.987-.319q-2.262-.475-2.262-1.922a1.742,1.742,0,0,1,.7-1.409,2.825,2.825,0,0,1,1.831-.565,3.04,3.04,0,0,1,1.931.568,1.791,1.791,0,0,1,.724,1.477h-1.693a.819.819,0,0,0-.234-.6.992.992,0,0,0-.732-.237,1.013,1.013,0,0,0-.662.193.61.61,0,0,0-.234.492.522.522,0,0,0,.267.454,2.743,2.743,0,0,0,.9.3,7.346,7.346,0,0,1,1.066.284,1.752,1.752,0,0,1,1.342,1.705,1.654,1.654,0,0,1-.744,1.4A3.21,3.21,0,0,1-22.9.117a3.353,3.353,0,0,1-1.415-.284,2.374,2.374,0,0,1-.97-.779,1.811,1.811,0,0,1-.352-1.069h1.605a.884.884,0,0,0,.334.691,1.325,1.325,0,0,0,.832.24,1.226,1.226,0,0,0,.735-.185A.574.574,0,0,0-21.882-1.752Zm9.158,0a.546.546,0,0,0-.308-.489,3.494,3.494,0,0,0-.987-.319q-2.262-.475-2.262-1.922a1.742,1.742,0,0,1,.7-1.409,2.825,2.825,0,0,1,1.831-.565,3.04,3.04,0,0,1,1.931.568,1.791,1.791,0,0,1,.724,1.477h-1.693a.819.819,0,0,0-.234-.6.992.992,0,0,0-.732-.237,1.013,1.013,0,0,0-.662.193.61.61,0,0,0-.234.492.522.522,0,0,0,.267.454,2.743,2.743,0,0,0,.9.3,7.346,7.346,0,0,1,1.066.284,1.752,1.752,0,0,1,1.342,1.705,1.654,1.654,0,0,1-.744,1.4,3.21,3.21,0,0,1-1.922.536,3.353,3.353,0,0,1-1.415-.284,2.374,2.374,0,0,1-.97-.779,1.811,1.811,0,0,1-.352-1.069h1.605a.884.884,0,0,0,.334.691,1.325,1.325,0,0,0,.832.24,1.226,1.226,0,0,0,.735-.185A.574.574,0,0,0-12.724-1.752ZM-7.069.117A3.112,3.112,0,0,1-9.34-.738a3.041,3.041,0,0,1-.876-2.279v-.164A3.83,3.83,0,0,1-9.847-4.89,2.709,2.709,0,0,1-8.8-6.05a2.936,2.936,0,0,1,1.544-.407,2.631,2.631,0,0,1,2.048.82,3.333,3.333,0,0,1,.747,2.326v.691H-8.5a1.573,1.573,0,0,0,.5,1,1.5,1.5,0,0,0,1.046.375,1.828,1.828,0,0,0,1.529-.709l.832.932a2.542,2.542,0,0,1-1.031.841A3.383,3.383,0,0,1-7.069.117Zm-.193-5.209a1.058,1.058,0,0,0-.817.341,1.768,1.768,0,0,0-.4.977h2.355v-.135a1.261,1.261,0,0,0-.3-.874A1.092,1.092,0,0,0-7.263-5.092Zm10.313.34A4.6,4.6,0,0,0,2.44-4.8a1.24,1.24,0,0,0-1.26.65V0H-.513V-6.34h1.6l.047.756a1.569,1.569,0,0,1,1.412-.873,1.774,1.774,0,0,1,.527.076ZM6.671.117A3.112,3.112,0,0,1,4.4-.738a3.041,3.041,0,0,1-.876-2.279v-.164A3.83,3.83,0,0,1,3.894-4.89,2.709,2.709,0,0,1,4.939-6.05a2.936,2.936,0,0,1,1.544-.407,2.631,2.631,0,0,1,2.048.82,3.333,3.333,0,0,1,.747,2.326v.691H5.241a1.573,1.573,0,0,0,.5,1,1.5,1.5,0,0,0,1.046.375,1.828,1.828,0,0,0,1.529-.709l.832.932a2.542,2.542,0,0,1-1.031.841A3.383,3.383,0,0,1,6.671.117ZM6.478-5.092a1.058,1.058,0,0,0-.817.341,1.768,1.768,0,0,0-.4.977H7.614v-.135a1.261,1.261,0,0,0-.3-.874A1.092,1.092,0,0,0,6.478-5.092Zm9.469,1.98a3.8,3.8,0,0,1-.665,2.347,2.132,2.132,0,0,1-1.8.882,1.975,1.975,0,0,1-1.553-.668V2.438H10.239V-6.34h1.57l.059.621a1.99,1.99,0,0,1,1.605-.738A2.147,2.147,0,0,1,15.3-5.59a3.905,3.905,0,0,1,.65,2.391Zm-1.693-.123A2.5,2.5,0,0,0,13.939-4.6a1.021,1.021,0,0,0-.911-.48,1.109,1.109,0,0,0-1.1.609v2.6a1.128,1.128,0,0,0,1.107.627Q14.253-1.248,14.253-3.234Zm2.479.006a3.76,3.76,0,0,1,.363-1.682,2.659,2.659,0,0,1,1.046-1.143,3.051,3.051,0,0,1,1.585-.4,2.887,2.887,0,0,1,2.095.785,3.151,3.151,0,0,1,.905,2.133l.012.434a3.314,3.314,0,0,1-.814,2.341,2.831,2.831,0,0,1-2.186.882,2.845,2.845,0,0,1-2.188-.879,3.372,3.372,0,0,1-.817-2.391Zm1.693.12a2.37,2.37,0,0,0,.34,1.382,1.121,1.121,0,0,0,.973.478A1.124,1.124,0,0,0,20.7-1.72a2.593,2.593,0,0,0,.346-1.511A2.346,2.346,0,0,0,20.7-4.6a1.124,1.124,0,0,0-.973-.487,1.105,1.105,0,0,0-.961.484A2.637,2.637,0,0,0,18.425-3.108ZM25.339-6.34l.053.732a2.213,2.213,0,0,1,1.822-.85,1.84,1.84,0,0,1,1.5.592,2.761,2.761,0,0,1,.5,1.77V0H27.524V-4.055a1.1,1.1,0,0,0-.234-.782,1.049,1.049,0,0,0-.779-.243,1.165,1.165,0,0,0-1.072.609V0H23.745V-6.34ZM33.419.117a3.112,3.112,0,0,1-2.271-.855,3.041,3.041,0,0,1-.876-2.279v-.164a3.83,3.83,0,0,1,.369-1.708,2.709,2.709,0,0,1,1.046-1.16,2.936,2.936,0,0,1,1.544-.407,2.631,2.631,0,0,1,2.048.82,3.333,3.333,0,0,1,.747,2.326v.691H31.989a1.573,1.573,0,0,0,.5,1,1.5,1.5,0,0,0,1.046.375,1.828,1.828,0,0,0,1.529-.709l.832.932a2.542,2.542,0,0,1-1.031.841A3.383,3.383,0,0,1,33.419.117Zm-.193-5.209a1.058,1.058,0,0,0-.817.341,1.768,1.768,0,0,0-.4.977h2.355v-.135a1.261,1.261,0,0,0-.3-.874A1.092,1.092,0,0,0,33.226-5.092Zm5.32-1.248.053.732a2.213,2.213,0,0,1,1.822-.85,1.84,1.84,0,0,1,1.5.592,2.761,2.761,0,0,1,.5,1.77V0H40.731V-4.055a1.1,1.1,0,0,0-.234-.782,1.049,1.049,0,0,0-.779-.243,1.165,1.165,0,0,0-1.072.609V0H36.952V-6.34ZM48.483,0h-1.7V-9h1.7Zm5.068,0a1.88,1.88,0,0,1-.17-.568,2.049,2.049,0,0,1-1.6.686,2.251,2.251,0,0,1-1.544-.539,1.734,1.734,0,0,1-.612-1.359,1.792,1.792,0,0,1,.747-1.547,3.686,3.686,0,0,1,2.159-.545h.779v-.363a1.045,1.045,0,0,0-.226-.7.887.887,0,0,0-.712-.264A1.009,1.009,0,0,0,51.7-5a.7.7,0,0,0-.243.563H49.767a1.7,1.7,0,0,1,.34-1.02,2.246,2.246,0,0,1,.961-.735,3.5,3.5,0,0,1,1.395-.267,2.767,2.767,0,0,1,1.86.589,2.06,2.06,0,0,1,.688,1.655v2.748A3.031,3.031,0,0,0,55.263-.1V0Zm-1.4-1.178a1.458,1.458,0,0,0,.691-.167,1.1,1.1,0,0,0,.469-.448v-1.09h-.633q-1.271,0-1.354.879l-.006.1a.678.678,0,0,0,.223.521A.865.865,0,0,0,52.151-1.178Zm7.594-.574a.546.546,0,0,0-.308-.489,3.494,3.494,0,0,0-.987-.319q-2.262-.475-2.262-1.922a1.742,1.742,0,0,1,.7-1.409,2.825,2.825,0,0,1,1.831-.565,3.04,3.04,0,0,1,1.931.568,1.791,1.791,0,0,1,.724,1.477H59.681a.819.819,0,0,0-.234-.6.992.992,0,0,0-.732-.237,1.013,1.013,0,0,0-.662.193.61.61,0,0,0-.234.492.522.522,0,0,0,.267.454,2.743,2.743,0,0,0,.9.3,7.346,7.346,0,0,1,1.066.284,1.752,1.752,0,0,1,1.342,1.705,1.654,1.654,0,0,1-.744,1.4,3.21,3.21,0,0,1-1.922.536,3.353,3.353,0,0,1-1.415-.284,2.374,2.374,0,0,1-.97-.779,1.811,1.811,0,0,1-.352-1.069h1.605a.884.884,0,0,0,.334.691,1.325,1.325,0,0,0,.832.24,1.226,1.226,0,0,0,.735-.185A.574.574,0,0,0,59.745-1.752ZM69.267-.645a2.124,2.124,0,0,1-1.734.762,2,2,0,0,1-1.556-.586,2.5,2.5,0,0,1-.548-1.717V-6.34h1.693v4.1q0,.991.9.991a1.223,1.223,0,0,0,1.184-.6V-6.34h1.7V0H69.313Zm4.477-5.7.053.732a2.213,2.213,0,0,1,1.822-.85,1.84,1.84,0,0,1,1.5.592,2.761,2.761,0,0,1,.5,1.77V0H75.929V-4.055a1.1,1.1,0,0,0-.234-.782,1.049,1.049,0,0,0-.779-.243,1.165,1.165,0,0,0-1.072.609V0H72.149V-6.34ZM80.692,0h-1.7V-6.34h1.7Zm-1.8-7.98a.834.834,0,0,1,.255-.627.958.958,0,0,1,.694-.246.96.96,0,0,1,.691.246.829.829,0,0,1,.258.627.831.831,0,0,1-.261.633.962.962,0,0,1-.688.246.962.962,0,0,1-.688-.246A.831.831,0,0,1,78.894-7.98Zm2.93,4.764a3.821,3.821,0,0,1,.665-2.361,2.158,2.158,0,0,1,1.819-.879,1.942,1.942,0,0,1,1.529.691V-9h1.7V0H86.007l-.082-.674A1.993,1.993,0,0,1,84.3.117a2.152,2.152,0,0,1-1.8-.882A3.944,3.944,0,0,1,81.823-3.217Zm1.693.126a2.5,2.5,0,0,0,.311,1.367,1.012,1.012,0,0,0,.9.475,1.133,1.133,0,0,0,1.107-.663V-4.417a1.117,1.117,0,0,0-1.1-.663Q83.517-5.08,83.517-3.091ZM92.522,0a1.88,1.88,0,0,1-.17-.568,2.049,2.049,0,0,1-1.6.686,2.251,2.251,0,0,1-1.544-.539A1.734,1.734,0,0,1,88.6-1.781a1.792,1.792,0,0,1,.747-1.547A3.686,3.686,0,0,1,91.5-3.873h.779v-.363a1.045,1.045,0,0,0-.226-.7.887.887,0,0,0-.712-.264A1.009,1.009,0,0,0,90.674-5a.7.7,0,0,0-.243.563H88.737a1.7,1.7,0,0,1,.34-1.02,2.246,2.246,0,0,1,.961-.735,3.5,3.5,0,0,1,1.395-.267,2.767,2.767,0,0,1,1.86.589,2.06,2.06,0,0,1,.688,1.655v2.748A3.031,3.031,0,0,0,94.233-.1V0Zm-1.4-1.178a1.458,1.458,0,0,0,.691-.167,1.1,1.1,0,0,0,.469-.448v-1.09h-.633q-1.271,0-1.354.879l-.006.1a.678.678,0,0,0,.223.521A.865.865,0,0,0,91.122-1.178Zm3.9-2.039a3.821,3.821,0,0,1,.665-2.361A2.158,2.158,0,0,1,97.5-6.457a1.942,1.942,0,0,1,1.529.691V-9h1.7V0H99.2L99.12-.674a1.993,1.993,0,0,1-1.629.791,2.152,2.152,0,0,1-1.8-.882A3.944,3.944,0,0,1,95.019-3.217Zm1.693.126a2.5,2.5,0,0,0,.311,1.367,1.012,1.012,0,0,0,.9.475,1.133,1.133,0,0,0,1.107-.663V-4.417a1.117,1.117,0,0,0-1.1-.663Q96.712-5.08,96.712-3.091Zm8.25,3.208a3.112,3.112,0,0,1-2.271-.855,3.041,3.041,0,0,1-.876-2.279v-.164a3.83,3.83,0,0,1,.369-1.708,2.709,2.709,0,0,1,1.046-1.16,2.936,2.936,0,0,1,1.544-.407,2.631,2.631,0,0,1,2.048.82,3.333,3.333,0,0,1,.747,2.326v.691h-4.037a1.573,1.573,0,0,0,.5,1,1.5,1.5,0,0,0,1.046.375,1.828,1.828,0,0,0,1.529-.709l.832.932a2.542,2.542,0,0,1-1.031.841A3.383,3.383,0,0,1,104.962.117Zm-.193-5.209a1.058,1.058,0,0,0-.817.341,1.768,1.768,0,0,0-.4.977h2.355v-.135a1.261,1.261,0,0,0-.3-.874A1.092,1.092,0,0,0,104.769-5.092Zm7.2,3.34a.546.546,0,0,0-.308-.489,3.494,3.494,0,0,0-.987-.319q-2.262-.475-2.262-1.922a1.742,1.742,0,0,1,.7-1.409,2.825,2.825,0,0,1,1.831-.565,3.04,3.04,0,0,1,1.931.568,1.791,1.791,0,0,1,.724,1.477H111.9a.819.819,0,0,0-.234-.6.992.992,0,0,0-.732-.237,1.013,1.013,0,0,0-.662.193.61.61,0,0,0-.234.492.522.522,0,0,0,.267.454,2.743,2.743,0,0,0,.9.3,7.346,7.346,0,0,1,1.066.284,1.752,1.752,0,0,1,1.342,1.705,1.654,1.654,0,0,1-.744,1.4,3.21,3.21,0,0,1-1.922.536,3.353,3.353,0,0,1-1.415-.284,2.374,2.374,0,0,1-.97-.779,1.811,1.811,0,0,1-.352-1.069h1.605a.884.884,0,0,0,.334.691,1.325,1.325,0,0,0,.832.24,1.226,1.226,0,0,0,.735-.185A.574.574,0,0,0,111.964-1.752Z" transform="translate(1113 8923)" fill="#12263f"/>
    <path id="Trazado_762568" data-name="Trazado 762568" d="M-5.766-3.7H-9.141v2.285H-5.18V0H-10.9V-8.531h5.707v1.424H-9.141v2.033h3.375Zm8.625-.375a5.15,5.15,0,0,1-.445,2.209A3.354,3.354,0,0,1,1.14-.4a3.525,3.525,0,0,1-1.9.516,3.549,3.549,0,0,1-1.893-.51A3.387,3.387,0,0,1-3.943-1.849a5,5,0,0,1-.463-2.177v-.422a5.123,5.123,0,0,1,.454-2.218A3.381,3.381,0,0,1-2.669-8.136a3.53,3.53,0,0,1,1.9-.513,3.53,3.53,0,0,1,1.9.513A3.381,3.381,0,0,1,2.405-6.665a5.109,5.109,0,0,1,.454,2.212ZM1.078-4.459A3.59,3.59,0,0,0,.6-6.5,1.566,1.566,0,0,0-.773-7.2a1.566,1.566,0,0,0-1.365.688,3.549,3.549,0,0,0-.486,2.019v.416a3.635,3.635,0,0,0,.48,2.027,1.562,1.562,0,0,0,1.383.721A1.548,1.548,0,0,0,.6-2.019a3.614,3.614,0,0,0,.48-2.024Zm10.055.387A5.14,5.14,0,0,1,10.746-2,3.566,3.566,0,0,1,9.674-.58L11.092.533l-1.119.99L8.156.064a3.845,3.845,0,0,1-.645.053,3.549,3.549,0,0,1-1.893-.51A3.387,3.387,0,0,1,4.33-1.849a5,5,0,0,1-.463-2.177v-.422a5.123,5.123,0,0,1,.454-2.218A3.381,3.381,0,0,1,5.6-8.136a3.53,3.53,0,0,1,1.9-.513,3.53,3.53,0,0,1,1.9.513,3.381,3.381,0,0,1,1.283,1.471,5.109,5.109,0,0,1,.454,2.212ZM9.352-4.459A3.59,3.59,0,0,0,8.871-6.5,1.566,1.566,0,0,0,7.5-7.2a1.566,1.566,0,0,0-1.365.688,3.549,3.549,0,0,0-.486,2.019v.416a3.635,3.635,0,0,0,.48,2.027,1.562,1.562,0,0,0,1.383.721,1.548,1.548,0,0,0,1.359-.694,3.614,3.614,0,0,0,.48-2.024Z" transform="translate(1339 8716)" fill="#12263f"/>
    <path id="Trazado_762565" data-name="Trazado 762565" d="M-42.788,0h-1.758V-8.531h1.758Zm3.076-6.34.053.732a2.213,2.213,0,0,1,1.822-.85,1.84,1.84,0,0,1,1.5.592,2.761,2.761,0,0,1,.5,1.77V0h-1.693V-4.055a1.1,1.1,0,0,0-.234-.782,1.049,1.049,0,0,0-.779-.243,1.165,1.165,0,0,0-1.072.609V0h-1.693V-6.34Zm7.535,4.271L-31-6.34h1.77L-31.368,0h-1.617l-2.139-6.34h1.77ZM-25.644.117a3.112,3.112,0,0,1-2.271-.855,3.041,3.041,0,0,1-.876-2.279v-.164a3.83,3.83,0,0,1,.369-1.708,2.709,2.709,0,0,1,1.046-1.16,2.936,2.936,0,0,1,1.544-.407,2.631,2.631,0,0,1,2.048.82,3.333,3.333,0,0,1,.747,2.326v.691h-4.037a1.573,1.573,0,0,0,.5,1,1.5,1.5,0,0,0,1.046.375A1.828,1.828,0,0,0-24-1.957l.832.932A2.542,2.542,0,0,1-24.2-.185,3.383,3.383,0,0,1-25.644.117Zm-.193-5.209a1.058,1.058,0,0,0-.817.341,1.768,1.768,0,0,0-.4.977H-24.7v-.135a1.261,1.261,0,0,0-.3-.874A1.092,1.092,0,0,0-25.837-5.092Zm5.32-1.248.053.732a2.213,2.213,0,0,1,1.822-.85,1.84,1.84,0,0,1,1.5.592,2.761,2.761,0,0,1,.5,1.77V0h-1.693V-4.055a1.1,1.1,0,0,0-.234-.782,1.049,1.049,0,0,0-.779-.243,1.165,1.165,0,0,0-1.072.609V0H-22.11V-6.34ZM-13.327-7.9V-6.34h1.084V-5.1h-1.084v3.164a.756.756,0,0,0,.135.5.677.677,0,0,0,.516.152,2.7,2.7,0,0,0,.5-.041V-.035A3.486,3.486,0,0,1-13.2.117a1.617,1.617,0,0,1-1.816-1.8V-5.1h-.926V-6.34h.926V-7.9Zm5.7,7.9A1.88,1.88,0,0,1-7.8-.568,2.049,2.049,0,0,1-9.4.117a2.251,2.251,0,0,1-1.544-.539,1.734,1.734,0,0,1-.612-1.359A1.792,1.792,0,0,1-10.8-3.328a3.686,3.686,0,0,1,2.159-.545h.779v-.363a1.045,1.045,0,0,0-.226-.7A.887.887,0,0,0-8.8-5.2,1.009,1.009,0,0,0-9.475-5a.7.7,0,0,0-.243.563h-1.693a1.7,1.7,0,0,1,.34-1.02,2.246,2.246,0,0,1,.961-.735,3.5,3.5,0,0,1,1.395-.267,2.767,2.767,0,0,1,1.86.589,2.06,2.06,0,0,1,.688,1.655v2.748A3.031,3.031,0,0,0-5.915-.1V0Zm-1.4-1.178a1.458,1.458,0,0,0,.691-.167,1.1,1.1,0,0,0,.469-.448v-1.09H-8.5q-1.271,0-1.354.879l-.006.1a.678.678,0,0,0,.223.521A.865.865,0,0,0-9.026-1.178ZM-1.3-4.752A4.6,4.6,0,0,0-1.913-4.8a1.24,1.24,0,0,0-1.26.65V0H-4.866V-6.34h1.6l.047.756a1.569,1.569,0,0,1,1.412-.873,1.774,1.774,0,0,1,.527.076ZM1.3,0H-.4V-6.34H1.3ZM-.5-7.98a.834.834,0,0,1,.255-.627.958.958,0,0,1,.694-.246.96.96,0,0,1,.691.246A.829.829,0,0,1,1.4-7.98a.831.831,0,0,1-.261.633A.962.962,0,0,1,.448-7.1.962.962,0,0,1-.24-7.348.831.831,0,0,1-.5-7.98Zm2.93,4.752A3.76,3.76,0,0,1,2.792-4.91,2.659,2.659,0,0,1,3.838-6.053a3.051,3.051,0,0,1,1.585-.4,2.887,2.887,0,0,1,2.095.785,3.151,3.151,0,0,1,.905,2.133l.012.434A3.314,3.314,0,0,1,7.62-.765,2.831,2.831,0,0,1,5.435.117,2.845,2.845,0,0,1,3.246-.762a3.372,3.372,0,0,1-.817-2.391Zm1.693.12a2.37,2.37,0,0,0,.34,1.382,1.121,1.121,0,0,0,.973.478A1.124,1.124,0,0,0,6.4-1.72a2.593,2.593,0,0,0,.346-1.511A2.346,2.346,0,0,0,6.4-4.6a1.124,1.124,0,0,0-.973-.487,1.105,1.105,0,0,0-.961.484A2.637,2.637,0,0,0,4.122-3.108ZM14.054-6.34l.053.709a2.228,2.228,0,0,1,1.822-.826,1.691,1.691,0,0,1,1.682.967,2.177,2.177,0,0,1,1.9-.967,1.891,1.891,0,0,1,1.535.6,2.761,2.761,0,0,1,.5,1.808V0h-1.7V-4.043a1.207,1.207,0,0,0-.211-.788A.935.935,0,0,0,18.9-5.08a1.057,1.057,0,0,0-1.055.727L17.851,0H16.157V-4.037a1.193,1.193,0,0,0-.217-.8A.944.944,0,0,0,15.2-5.08a1.1,1.1,0,0,0-1.043.6V0H12.466V-6.34ZM25.772.117A3.112,3.112,0,0,1,23.5-.738a3.041,3.041,0,0,1-.876-2.279v-.164A3.83,3.83,0,0,1,23-4.89a2.709,2.709,0,0,1,1.046-1.16,2.936,2.936,0,0,1,1.544-.407,2.631,2.631,0,0,1,2.048.82,3.333,3.333,0,0,1,.747,2.326v.691H24.343a1.573,1.573,0,0,0,.5,1,1.5,1.5,0,0,0,1.046.375,1.828,1.828,0,0,0,1.529-.709l.832.932a2.542,2.542,0,0,1-1.031.841A3.383,3.383,0,0,1,25.772.117Zm-.193-5.209a1.058,1.058,0,0,0-.817.341,1.768,1.768,0,0,0-.4.977h2.355v-.135a1.261,1.261,0,0,0-.3-.874A1.092,1.092,0,0,0,25.579-5.092Zm3.5,1.875a3.821,3.821,0,0,1,.665-2.361,2.158,2.158,0,0,1,1.819-.879,1.942,1.942,0,0,1,1.529.691V-9h1.7V0H33.261l-.082-.674A1.993,1.993,0,0,1,31.55.117a2.152,2.152,0,0,1-1.8-.882A3.944,3.944,0,0,1,29.077-3.217Zm1.693.126a2.5,2.5,0,0,0,.311,1.367,1.012,1.012,0,0,0,.9.475,1.133,1.133,0,0,0,1.107-.663V-4.417A1.117,1.117,0,0,0,32-5.08Q30.771-5.08,30.771-3.091ZM37.89,0h-1.7V-6.34h1.7Zm-1.8-7.98a.834.834,0,0,1,.255-.627.958.958,0,0,1,.694-.246.96.96,0,0,1,.691.246.829.829,0,0,1,.258.627.831.831,0,0,1-.261.633.962.962,0,0,1-.688.246.962.962,0,0,1-.688-.246A.831.831,0,0,1,36.091-7.98Zm2.93,4.752a3.76,3.76,0,0,1,.363-1.682A2.659,2.659,0,0,1,40.43-6.053a3.051,3.051,0,0,1,1.585-.4,2.887,2.887,0,0,1,2.095.785,3.151,3.151,0,0,1,.905,2.133l.012.434a3.314,3.314,0,0,1-.814,2.341,2.831,2.831,0,0,1-2.186.882,2.845,2.845,0,0,1-2.188-.879,3.372,3.372,0,0,1-.817-2.391Zm1.693.12a2.37,2.37,0,0,0,.34,1.382,1.121,1.121,0,0,0,.973.478,1.124,1.124,0,0,0,.961-.472,2.593,2.593,0,0,0,.346-1.511A2.346,2.346,0,0,0,42.987-4.6a1.124,1.124,0,0,0-.973-.487,1.105,1.105,0,0,0-.961.484A2.637,2.637,0,0,0,40.714-3.108Z" transform="translate(1317 8809)" fill="#fe7062"/>
    <path id="Trazado_762562" data-name="Trazado 762562" d="M-13.327-7.107H-15.94V0H-17.7V-7.107h-2.578V-8.531h6.949ZM-10.649,0h-1.7V-6.34h1.7Zm-1.8-7.98a.834.834,0,0,1,.255-.627.958.958,0,0,1,.694-.246.96.96,0,0,1,.691.246.829.829,0,0,1,.258.627.831.831,0,0,1-.261.633A.962.962,0,0,1-11.5-7.1a.962.962,0,0,1-.688-.246A.831.831,0,0,1-12.448-7.98Zm6.111,8.1A3.112,3.112,0,0,1-8.607-.738a3.041,3.041,0,0,1-.876-2.279v-.164A3.83,3.83,0,0,1-9.114-4.89,2.709,2.709,0,0,1-8.068-6.05a2.936,2.936,0,0,1,1.544-.407,2.631,2.631,0,0,1,2.048.82,3.333,3.333,0,0,1,.747,2.326v.691H-7.767a1.573,1.573,0,0,0,.5,1,1.5,1.5,0,0,0,1.046.375A1.828,1.828,0,0,0-4.7-1.957l.832.932A2.542,2.542,0,0,1-4.9-.185,3.383,3.383,0,0,1-6.337.117ZM-6.53-5.092a1.058,1.058,0,0,0-.817.341,1.768,1.768,0,0,0-.4.977h2.355v-.135a1.261,1.261,0,0,0-.3-.874A1.092,1.092,0,0,0-6.53-5.092Zm5.35-1.248.053.709A2.228,2.228,0,0,1,.694-6.457a1.691,1.691,0,0,1,1.682.967,2.177,2.177,0,0,1,1.9-.967,1.891,1.891,0,0,1,1.535.6,2.761,2.761,0,0,1,.5,1.808V0H4.62V-4.043a1.207,1.207,0,0,0-.211-.788.935.935,0,0,0-.744-.249,1.057,1.057,0,0,0-1.055.727L2.616,0H.923V-4.037a1.193,1.193,0,0,0-.217-.8A.944.944,0,0,0-.032-5.08a1.1,1.1,0,0,0-1.043.6V0H-2.769V-6.34ZM13.327-3.111a3.8,3.8,0,0,1-.665,2.347,2.132,2.132,0,0,1-1.8.882A1.975,1.975,0,0,1,9.313-.551V2.438H7.62V-6.34H9.19l.059.621a1.99,1.99,0,0,1,1.605-.738,2.147,2.147,0,0,1,1.822.867,3.905,3.905,0,0,1,.65,2.391Zm-1.693-.123A2.5,2.5,0,0,0,11.32-4.6a1.021,1.021,0,0,0-.911-.48,1.109,1.109,0,0,0-1.1.609v2.6a1.128,1.128,0,0,0,1.107.627Q11.634-1.248,11.634-3.234Zm2.479.006a3.76,3.76,0,0,1,.363-1.682,2.659,2.659,0,0,1,1.046-1.143,3.051,3.051,0,0,1,1.585-.4,2.887,2.887,0,0,1,2.095.785,3.151,3.151,0,0,1,.905,2.133l.012.434A3.314,3.314,0,0,1,19.3-.765a2.831,2.831,0,0,1-2.186.882A2.845,2.845,0,0,1,14.93-.762a3.372,3.372,0,0,1-.817-2.391Zm1.693.12a2.37,2.37,0,0,0,.34,1.382,1.121,1.121,0,0,0,.973.478,1.124,1.124,0,0,0,.961-.472,2.593,2.593,0,0,0,.346-1.511A2.346,2.346,0,0,0,18.079-4.6a1.124,1.124,0,0,0-.973-.487,1.105,1.105,0,0,0-.961.484A2.637,2.637,0,0,0,15.806-3.108Z" transform="translate(1357 8918)" fill="#12263f"/>
    <path id="Trazado_762570" data-name="Trazado 762570" d="M-43.9-3.006V0h-1.758V-8.531h3.328a3.85,3.85,0,0,1,1.69.352,2.591,2.591,0,0,1,1.122,1,2.786,2.786,0,0,1,.393,1.474,2.45,2.45,0,0,1-.858,1.978,3.575,3.575,0,0,1-2.376.724Zm0-1.424h1.57a1.544,1.544,0,0,0,1.063-.328A1.193,1.193,0,0,0-40.9-5.7a1.407,1.407,0,0,0-.369-1.014,1.379,1.379,0,0,0-1.02-.4H-43.9ZM-34.23-.645a2.124,2.124,0,0,1-1.734.762,2,2,0,0,1-1.556-.586,2.5,2.5,0,0,1-.548-1.717V-6.34h1.693v4.1q0,.991.9.991a1.223,1.223,0,0,0,1.184-.6V-6.34h1.7V0h-1.594Zm4.477-5.7.053.732a2.213,2.213,0,0,1,1.822-.85,1.84,1.84,0,0,1,1.5.592,2.761,2.761,0,0,1,.5,1.77V0h-1.693V-4.055a1.1,1.1,0,0,0-.234-.782,1.049,1.049,0,0,0-.779-.243,1.165,1.165,0,0,0-1.072.609V0h-1.693V-6.34ZM-22.564-7.9V-6.34h1.084V-5.1h-1.084v3.164a.756.756,0,0,0,.135.5.677.677,0,0,0,.516.152,2.7,2.7,0,0,0,.5-.041V-.035a3.486,3.486,0,0,1-1.025.152,1.617,1.617,0,0,1-1.816-1.8V-5.1h-.926V-6.34h.926V-7.9Zm1.588,4.67a3.76,3.76,0,0,1,.363-1.682,2.659,2.659,0,0,1,1.046-1.143,3.051,3.051,0,0,1,1.585-.4,2.887,2.887,0,0,1,2.095.785,3.151,3.151,0,0,1,.905,2.133l.012.434a3.314,3.314,0,0,1-.814,2.341,2.831,2.831,0,0,1-2.186.882,2.845,2.845,0,0,1-2.188-.879,3.372,3.372,0,0,1-.817-2.391Zm1.693.12a2.37,2.37,0,0,0,.34,1.382,1.121,1.121,0,0,0,.973.478,1.124,1.124,0,0,0,.961-.472,2.593,2.593,0,0,0,.346-1.511A2.346,2.346,0,0,0-17.01-4.6a1.124,1.124,0,0,0-.973-.487,1.105,1.105,0,0,0-.961.484A2.637,2.637,0,0,0-19.283-3.108Zm8.08-.108a3.821,3.821,0,0,1,.665-2.361,2.158,2.158,0,0,1,1.819-.879,1.942,1.942,0,0,1,1.529.691V-9h1.7V0H-7.02L-7.1-.674A1.993,1.993,0,0,1-8.73.117a2.152,2.152,0,0,1-1.8-.882A3.944,3.944,0,0,1-11.2-3.217Zm1.693.126A2.5,2.5,0,0,0-9.2-1.723a1.012,1.012,0,0,0,.9.475,1.133,1.133,0,0,0,1.107-.663V-4.417a1.117,1.117,0,0,0-1.1-.663Q-9.51-5.08-9.51-3.091ZM-1.26.117A3.112,3.112,0,0,1-3.53-.738a3.041,3.041,0,0,1-.876-2.279v-.164A3.83,3.83,0,0,1-4.037-4.89,2.709,2.709,0,0,1-2.991-6.05a2.936,2.936,0,0,1,1.544-.407A2.631,2.631,0,0,1,.6-5.637a3.333,3.333,0,0,1,.747,2.326v.691H-2.689a1.573,1.573,0,0,0,.5,1,1.5,1.5,0,0,0,1.046.375A1.828,1.828,0,0,0,.381-1.957l.832.932A2.542,2.542,0,0,1,.182-.185,3.383,3.383,0,0,1-1.26.117Zm-.193-5.209a1.058,1.058,0,0,0-.817.341,1.768,1.768,0,0,0-.4.977H-.316v-.135a1.261,1.261,0,0,0-.3-.874A1.092,1.092,0,0,0-1.453-5.092Zm10.313.34A4.6,4.6,0,0,0,8.25-4.8a1.24,1.24,0,0,0-1.26.65V0H5.3V-6.34H6.9l.047.756a1.569,1.569,0,0,1,1.412-.873,1.774,1.774,0,0,1,.527.076ZM12.48.117A3.112,3.112,0,0,1,10.21-.738a3.041,3.041,0,0,1-.876-2.279v-.164A3.83,3.83,0,0,1,9.7-4.89a2.709,2.709,0,0,1,1.046-1.16,2.936,2.936,0,0,1,1.544-.407,2.631,2.631,0,0,1,2.048.82,3.333,3.333,0,0,1,.747,2.326v.691H11.051a1.573,1.573,0,0,0,.5,1,1.5,1.5,0,0,0,1.046.375,1.828,1.828,0,0,0,1.529-.709l.832.932a2.542,2.542,0,0,1-1.031.841A3.383,3.383,0,0,1,12.48.117Zm-.193-5.209a1.058,1.058,0,0,0-.817.341,1.768,1.768,0,0,0-.4.977h2.355v-.135a1.261,1.261,0,0,0-.3-.874A1.092,1.092,0,0,0,12.287-5.092Zm3.5,1.863a3.76,3.76,0,0,1,.363-1.682,2.659,2.659,0,0,1,1.046-1.143,3.051,3.051,0,0,1,1.585-.4,2.887,2.887,0,0,1,2.095.785,3.151,3.151,0,0,1,.905,2.133l.012.434a3.314,3.314,0,0,1-.814,2.341,2.831,2.831,0,0,1-2.186.882A2.845,2.845,0,0,1,16.6-.762a3.372,3.372,0,0,1-.817-2.391Zm1.693.12a2.37,2.37,0,0,0,.34,1.382,1.121,1.121,0,0,0,.973.478,1.124,1.124,0,0,0,.961-.472A2.593,2.593,0,0,0,20.1-3.232,2.346,2.346,0,0,0,19.752-4.6a1.124,1.124,0,0,0-.973-.487,1.105,1.105,0,0,0-.961.484A2.637,2.637,0,0,0,17.479-3.108ZM26.4-4.752a4.6,4.6,0,0,0-.609-.047,1.24,1.24,0,0,0-1.26.65V0H22.834V-6.34h1.6l.047.756a1.569,1.569,0,0,1,1.412-.873,1.774,1.774,0,0,1,.527.076Zm.439,1.535A3.821,3.821,0,0,1,27.5-5.578a2.158,2.158,0,0,1,1.819-.879,1.942,1.942,0,0,1,1.529.691V-9h1.7V0H31.02l-.082-.674a1.993,1.993,0,0,1-1.629.791,2.152,2.152,0,0,1-1.8-.882A3.944,3.944,0,0,1,26.836-3.217Zm1.693.126a2.5,2.5,0,0,0,.311,1.367,1.012,1.012,0,0,0,.9.475,1.133,1.133,0,0,0,1.107-.663V-4.417a1.117,1.117,0,0,0-1.1-.663Q28.529-5.08,28.529-3.091ZM36.779.117a3.112,3.112,0,0,1-2.271-.855,3.041,3.041,0,0,1-.876-2.279v-.164A3.83,3.83,0,0,1,34-4.89a2.709,2.709,0,0,1,1.046-1.16,2.936,2.936,0,0,1,1.544-.407,2.631,2.631,0,0,1,2.048.82,3.333,3.333,0,0,1,.747,2.326v.691H35.35a1.573,1.573,0,0,0,.5,1,1.5,1.5,0,0,0,1.046.375,1.828,1.828,0,0,0,1.529-.709l.832.932a2.542,2.542,0,0,1-1.031.841A3.383,3.383,0,0,1,36.779.117Zm-.193-5.209a1.058,1.058,0,0,0-.817.341,1.768,1.768,0,0,0-.4.977h2.355v-.135a1.261,1.261,0,0,0-.3-.874A1.092,1.092,0,0,0,36.586-5.092Zm5.32-1.248.053.732a2.213,2.213,0,0,1,1.822-.85,1.84,1.84,0,0,1,1.5.592,2.761,2.761,0,0,1,.5,1.77V0H44.092V-4.055a1.1,1.1,0,0,0-.234-.782,1.049,1.049,0,0,0-.779-.243,1.165,1.165,0,0,0-1.072.609V0H40.313V-6.34Z" transform="translate(867 8942)" fill="#57dbd8"/>
    <path id="Trazado_762571" data-name="Trazado 762571" d="M-17.988-8.531v5.619A2.877,2.877,0,0,1-18.864-.7a3.377,3.377,0,0,1-2.394.814,3.415,3.415,0,0,1-2.373-.791,2.828,2.828,0,0,1-.9-2.174V-8.531h1.758V-2.9a1.626,1.626,0,0,0,.4,1.222,1.541,1.541,0,0,0,1.11.384q1.482,0,1.506-1.559V-8.531ZM-15.1-6.34l.053.732a2.213,2.213,0,0,1,1.822-.85,1.84,1.84,0,0,1,1.5.592,2.761,2.761,0,0,1,.5,1.77V0h-1.693V-4.055a1.1,1.1,0,0,0-.234-.782,1.049,1.049,0,0,0-.779-.243A1.165,1.165,0,0,0-15-4.471V0h-1.693V-6.34ZM-8.15,0h-1.7V-6.34h1.7Zm-1.8-7.98a.834.834,0,0,1,.255-.627A.958.958,0,0,1-9-8.854a.96.96,0,0,1,.691.246.829.829,0,0,1,.258.627.831.831,0,0,1-.261.633A.962.962,0,0,1-9-7.1a.962.962,0,0,1-.688-.246A.831.831,0,0,1-9.949-7.98Zm2.93,4.764a3.821,3.821,0,0,1,.665-2.361,2.158,2.158,0,0,1,1.819-.879,1.942,1.942,0,0,1,1.529.691V-9h1.7V0H-2.836l-.082-.674A1.993,1.993,0,0,1-4.547.117a2.152,2.152,0,0,1-1.8-.882A3.944,3.944,0,0,1-7.02-3.217Zm1.693.126a2.5,2.5,0,0,0,.311,1.367,1.012,1.012,0,0,0,.9.475,1.133,1.133,0,0,0,1.107-.663V-4.417A1.117,1.117,0,0,0-4.1-5.08Q-5.326-5.08-5.326-3.091ZM3.68,0a1.88,1.88,0,0,1-.17-.568,2.049,2.049,0,0,1-1.6.686A2.251,2.251,0,0,1,.366-.422,1.734,1.734,0,0,1-.246-1.781,1.792,1.792,0,0,1,.5-3.328,3.686,3.686,0,0,1,2.66-3.873h.779v-.363a1.045,1.045,0,0,0-.226-.7A.887.887,0,0,0,2.5-5.2,1.009,1.009,0,0,0,1.831-5a.7.7,0,0,0-.243.563H-.105a1.7,1.7,0,0,1,.34-1.02A2.246,2.246,0,0,1,1.2-6.19,3.5,3.5,0,0,1,2.59-6.457a2.767,2.767,0,0,1,1.86.589,2.06,2.06,0,0,1,.688,1.655v2.748A3.031,3.031,0,0,0,5.391-.1V0Zm-1.4-1.178a1.458,1.458,0,0,0,.691-.167,1.1,1.1,0,0,0,.469-.448v-1.09H2.807q-1.271,0-1.354.879l-.006.1a.678.678,0,0,0,.223.521A.865.865,0,0,0,2.279-1.178Zm3.9-2.039a3.821,3.821,0,0,1,.665-2.361A2.158,2.158,0,0,1,8.66-6.457a1.942,1.942,0,0,1,1.529.691V-9h1.7V0H10.359l-.082-.674A1.993,1.993,0,0,1,8.648.117a2.152,2.152,0,0,1-1.8-.882A3.944,3.944,0,0,1,6.176-3.217Zm1.693.126A2.5,2.5,0,0,0,8.18-1.723a1.012,1.012,0,0,0,.9.475,1.133,1.133,0,0,0,1.107-.663V-4.417a1.117,1.117,0,0,0-1.1-.663Q7.869-5.08,7.869-3.091ZM16.119.117a3.112,3.112,0,0,1-2.271-.855,3.041,3.041,0,0,1-.876-2.279v-.164a3.83,3.83,0,0,1,.369-1.708,2.709,2.709,0,0,1,1.046-1.16,2.936,2.936,0,0,1,1.544-.407,2.631,2.631,0,0,1,2.048.82,3.333,3.333,0,0,1,.747,2.326v.691H14.689a1.573,1.573,0,0,0,.5,1,1.5,1.5,0,0,0,1.046.375,1.828,1.828,0,0,0,1.529-.709l.832.932a2.542,2.542,0,0,1-1.031.841A3.383,3.383,0,0,1,16.119.117Zm-.193-5.209a1.058,1.058,0,0,0-.817.341,1.768,1.768,0,0,0-.4.977h2.355v-.135a1.261,1.261,0,0,0-.3-.874A1.092,1.092,0,0,0,15.926-5.092Zm7.2,3.34a.546.546,0,0,0-.308-.489,3.494,3.494,0,0,0-.987-.319q-2.262-.475-2.262-1.922a1.742,1.742,0,0,1,.7-1.409A2.825,2.825,0,0,1,22.1-6.457a3.04,3.04,0,0,1,1.931.568,1.791,1.791,0,0,1,.724,1.477H23.057a.819.819,0,0,0-.234-.6.992.992,0,0,0-.732-.237,1.013,1.013,0,0,0-.662.193.61.61,0,0,0-.234.492.522.522,0,0,0,.267.454,2.743,2.743,0,0,0,.9.3,7.346,7.346,0,0,1,1.066.284,1.752,1.752,0,0,1,1.342,1.705,1.654,1.654,0,0,1-.744,1.4A3.21,3.21,0,0,1,22.1.117a3.353,3.353,0,0,1-1.415-.284,2.374,2.374,0,0,1-.97-.779,1.811,1.811,0,0,1-.352-1.069h1.605a.884.884,0,0,0,.334.691,1.325,1.325,0,0,0,.832.24,1.226,1.226,0,0,0,.735-.185A.574.574,0,0,0,23.121-1.752Z" transform="translate(844 8702) rotate(-90)" fill="#12263f"/>
  </g>
</svg>
