<svg xmlns="http://www.w3.org/2000/svg" xmlns:xlink="http://www.w3.org/1999/xlink" width="608" height="397" viewBox="0 0 608 397">
  <defs>
    <clipPath id="clip-path">
      <rect id="Rect치ngulo_360733" data-name="Rect치ngulo 360733" width="40.484" height="31.372" fill="#12263f"/>
    </clipPath>
    <clipPath id="clip-path-2">
      <rect id="Rect치ngulo_360733-2" data-name="Rect치ngulo 360733" width="60.484" height="69.372" transform="translate(0 -38)" fill="#12263f"/>
    </clipPath>
  </defs>
  <g id="Grupo_1024393" data-name="Grupo 1024393" transform="translate(-182 -8545)">
    <path id="Trazado_762496" data-name="Trazado 762496" d="M0,0H608V397H0Z" transform="translate(182 8545)" fill="#f6f6f6"/>
    <path id="Trazado_762548" data-name="Trazado 762548" d="M4.157,0H-5.8l.236-1.515L.2-7.122,1.257-8.164a6.165,6.165,0,0,0,2.009-3.352A2.485,2.485,0,0,0,2.8-13.444a2.173,2.173,0,0,0-1.7-.79,3.2,3.2,0,0,0-2.353.822A3.775,3.775,0,0,0-2.4-11.043l-1.923.011a5.44,5.44,0,0,1,.886-2.551,4.937,4.937,0,0,1,1.966-1.708,5.649,5.649,0,0,1,2.648-.564A4.34,4.34,0,0,1,4.27-14.679a3.485,3.485,0,0,1,.983,2.938A7.487,7.487,0,0,1,2.879-7.4l-.988,1-5.027,4.78H4.415Z" transform="translate(290 8823.534)" fill="#12263f"/>
    <path id="Trazado_762528" data-name="Trazado 762528" d="M4.157,0H-5.8l.236-1.515L.2-7.122,1.257-8.164a6.165,6.165,0,0,0,2.009-3.352A2.485,2.485,0,0,0,2.8-13.444a2.173,2.173,0,0,0-1.7-.79,3.2,3.2,0,0,0-2.353.822A3.775,3.775,0,0,0-2.4-11.043l-1.923.011a5.44,5.44,0,0,1,.886-2.551,4.937,4.937,0,0,1,1.966-1.708,5.649,5.649,0,0,1,2.648-.564A4.34,4.34,0,0,1,4.27-14.679a3.485,3.485,0,0,1,.983,2.938A7.487,7.487,0,0,1,2.879-7.4l-.988,1-5.027,4.78H4.415Z" transform="translate(609 8648.535)" fill="#12263f"/>
    <path id="Trazado_762498" data-name="Trazado 762498" d="M4.157,0H-5.8l.236-1.515L.2-7.122,1.257-8.164a6.165,6.165,0,0,0,2.009-3.352A2.485,2.485,0,0,0,2.8-13.444a2.173,2.173,0,0,0-1.7-.79,3.2,3.2,0,0,0-2.353.822A3.775,3.775,0,0,0-2.4-11.043l-1.923.011a5.44,5.44,0,0,1,.886-2.551,4.937,4.937,0,0,1,1.966-1.708,5.649,5.649,0,0,1,2.648-.564A4.34,4.34,0,0,1,4.27-14.679a3.485,3.485,0,0,1,.983,2.938A7.487,7.487,0,0,1,2.879-7.4l-.988,1-5.027,4.78H4.415Z" transform="translate(667 8738.349)" fill="#12263f"/>
    <path id="Trazado_762541" data-name="Trazado 762541" d="M-6.418,0-3.7-15.641.36-15.63a5.638,5.638,0,0,1,3.292.956,5.273,5.273,0,0,1,1.982,2.637,8.2,8.2,0,0,1,.354,3.765l-.107.784A8.844,8.844,0,0,1,3.228-2.036,7.716,7.716,0,0,1-2.25,0Zm4.437-13.954L-4.109-1.7l1.987.011A5.585,5.585,0,0,0,1.74-3.1,6.731,6.731,0,0,0,3.8-6.993a12.652,12.652,0,0,0,.258-3.362,4.1,4.1,0,0,0-1.106-2.6,3.582,3.582,0,0,0-2.535-.983Z" transform="translate(334 8823.534)" fill="#12263f"/>
    <path id="Trazado_762529" data-name="Trazado 762529" d="M-6.418,0-3.7-15.641.36-15.63a5.638,5.638,0,0,1,3.292.956,5.273,5.273,0,0,1,1.982,2.637,8.2,8.2,0,0,1,.354,3.765l-.107.784A8.844,8.844,0,0,1,3.228-2.036,7.716,7.716,0,0,1-2.25,0Zm4.437-13.954L-4.109-1.7l1.987.011A5.585,5.585,0,0,0,1.74-3.1,6.731,6.731,0,0,0,3.8-6.993a12.652,12.652,0,0,0,.258-3.362,4.1,4.1,0,0,0-1.106-2.6,3.582,3.582,0,0,0-2.535-.983Z" transform="translate(653 8648.535)" fill="#12263f"/>
    <path id="Trazado_762499" data-name="Trazado 762499" d="M-6.418,0-3.7-15.641.36-15.63a5.638,5.638,0,0,1,3.292.956,5.273,5.273,0,0,1,1.982,2.637,8.2,8.2,0,0,1,.354,3.765l-.107.784A8.844,8.844,0,0,1,3.228-2.036,7.716,7.716,0,0,1-2.25,0Zm4.437-13.954L-4.109-1.7l1.987.011A5.585,5.585,0,0,0,1.74-3.1,6.731,6.731,0,0,0,3.8-6.993a12.652,12.652,0,0,0,.258-3.362,4.1,4.1,0,0,0-1.106-2.6,3.582,3.582,0,0,0-2.535-.983Z" transform="translate(711 8738.349)" fill="#12263f"/>
    <path id="Trazado_762537" data-name="Trazado 762537" d="M3.035-4.028q.236-1.719-1.783-2.514L-.607-7.219l-.623-.269Q-4.367-8.916-4.163-11.5a4.2,4.2,0,0,1,.892-2.3,5.073,5.073,0,0,1,2.079-1.542,6.668,6.668,0,0,1,2.755-.51,5.5,5.5,0,0,1,2.53.634,4.073,4.073,0,0,1,1.692,1.681A4.583,4.583,0,0,1,6.3-11.107l-2.03-.011a2.8,2.8,0,0,0-.645-2.237,2.886,2.886,0,0,0-2.148-.814,4,4,0,0,0-2.46.689,2.688,2.688,0,0,0-1.139,1.937q-.215,1.6,1.966,2.432l1.6.57L2.25-8.2Q5.28-6.8,5.054-4.05a4.142,4.142,0,0,1-.892,2.283,4.985,4.985,0,0,1-2.1,1.488A7.24,7.24,0,0,1-.79.215,5.967,5.967,0,0,1-3.48-.414,4.39,4.39,0,0,1-5.333-2.105a4.232,4.232,0,0,1-.559-2.438l2.02.011a2.661,2.661,0,0,0,.757,2.218A3.409,3.409,0,0,0-.7-1.472a4.306,4.306,0,0,0,2.567-.677A2.635,2.635,0,0,0,3.035-4.028Z" transform="translate(378 8823.534)" fill="#12263f"/>
    <path id="Trazado_762530" data-name="Trazado 762530" d="M3.035-4.028q.236-1.719-1.783-2.514L-.607-7.219l-.623-.269Q-4.367-8.916-4.163-11.5a4.2,4.2,0,0,1,.892-2.3,5.073,5.073,0,0,1,2.079-1.542,6.668,6.668,0,0,1,2.755-.51,5.5,5.5,0,0,1,2.53.634,4.073,4.073,0,0,1,1.692,1.681A4.583,4.583,0,0,1,6.3-11.107l-2.03-.011a2.8,2.8,0,0,0-.645-2.237,2.886,2.886,0,0,0-2.148-.814,4,4,0,0,0-2.46.689,2.688,2.688,0,0,0-1.139,1.937q-.215,1.6,1.966,2.432l1.6.57L2.25-8.2Q5.28-6.8,5.054-4.05a4.142,4.142,0,0,1-.892,2.283,4.985,4.985,0,0,1-2.1,1.488A7.24,7.24,0,0,1-.79.215,5.967,5.967,0,0,1-3.48-.414,4.39,4.39,0,0,1-5.333-2.105a4.232,4.232,0,0,1-.559-2.438l2.02.011a2.661,2.661,0,0,0,.757,2.218A3.409,3.409,0,0,0-.7-1.472a4.306,4.306,0,0,0,2.567-.677A2.635,2.635,0,0,0,3.035-4.028Z" transform="translate(697 8648.535)" fill="#12263f"/>
    <path id="Trazado_762500" data-name="Trazado 762500" d="M3.035-4.028q.236-1.719-1.783-2.514L-.607-7.219l-.623-.269Q-4.367-8.916-4.163-11.5a4.2,4.2,0,0,1,.892-2.3,5.073,5.073,0,0,1,2.079-1.542,6.668,6.668,0,0,1,2.755-.51,5.5,5.5,0,0,1,2.53.634,4.073,4.073,0,0,1,1.692,1.681A4.583,4.583,0,0,1,6.3-11.107l-2.03-.011a2.8,2.8,0,0,0-.645-2.237,2.886,2.886,0,0,0-2.148-.814,4,4,0,0,0-2.46.689,2.688,2.688,0,0,0-1.139,1.937q-.215,1.6,1.966,2.432l1.6.57L2.25-8.2Q5.28-6.8,5.054-4.05a4.142,4.142,0,0,1-.892,2.283,4.985,4.985,0,0,1-2.1,1.488A7.24,7.24,0,0,1-.79.215,5.967,5.967,0,0,1-3.48-.414,4.39,4.39,0,0,1-5.333-2.105a4.232,4.232,0,0,1-.559-2.438l2.02.011a2.661,2.661,0,0,0,.757,2.218A3.409,3.409,0,0,0-.7-1.472a4.306,4.306,0,0,0,2.567-.677A2.635,2.635,0,0,0,3.035-4.028Z" transform="translate(755 8738.349)" fill="#12263f"/>
    <path id="Trazado_762546" data-name="Trazado 762546" d="M-.526-10.608-3.5-11.574l.73-1.545L.215-11.906l.548-3.734H2.374l-.752,3.691,3.255-1.159.2,1.706L1.7-10.425,3.276-7.471,1.9-6.526.494-9.641-1.891-6.633-3.115-7.686Z" transform="translate(311 8827.534)" fill="#12263f"/>
    <path id="Trazado_762525" data-name="Trazado 762525" d="M-.526-10.608-3.5-11.574l.73-1.545L.215-11.906l.548-3.734H2.374l-.752,3.691,3.255-1.159.2,1.706L1.7-10.425,3.276-7.471,1.9-6.526.494-9.641-1.891-6.633-3.115-7.686Z" transform="translate(630 8652.535)" fill="#12263f"/>
    <path id="Trazado_762501" data-name="Trazado 762501" d="M-.526-10.608-3.5-11.574l.73-1.545L.215-11.906l.548-3.734H2.374l-.752,3.691,3.255-1.159.2,1.706L1.7-10.425,3.276-7.471,1.9-6.526.494-9.641-1.891-6.633-3.115-7.686Z" transform="translate(688 8742.349)" fill="#12263f"/>
    <path id="Trazado_762540" data-name="Trazado 762540" d="M-.526-10.608-3.5-11.574l.73-1.545L.215-11.906l.548-3.734H2.374l-.752,3.691,3.255-1.159.2,1.706L1.7-10.425,3.276-7.471,1.9-6.526.494-9.641-1.891-6.633-3.115-7.686Z" transform="translate(355 8827.534)" fill="#12263f"/>
    <path id="Trazado_762526" data-name="Trazado 762526" d="M-.526-10.608-3.5-11.574l.73-1.545L.215-11.906l.548-3.734H2.374l-.752,3.691,3.255-1.159.2,1.706L1.7-10.425,3.276-7.471,1.9-6.526.494-9.641-1.891-6.633-3.115-7.686Z" transform="translate(674 8652.535)" fill="#12263f"/>
    <path id="Trazado_762502" data-name="Trazado 762502" d="M-.526-10.608-3.5-11.574l.73-1.545L.215-11.906l.548-3.734H2.374l-.752,3.691,3.255-1.159.2,1.706L1.7-10.425,3.276-7.471,1.9-6.526.494-9.641-1.891-6.633-3.115-7.686Z" transform="translate(732 8742.349)" fill="#12263f"/>
    <path id="Trazado_762542" data-name="Trazado 762542" d="M4.863,0H2.751L4.065-7.558H-3.919L-5.233,0H-7.345L-4.5-16.352h2.111l-1.224,7.03H4.357l1.224-7.03H7.7Z" transform="translate(334 8857.534)" fill="#12263f"/>
    <path id="Trazado_762507" data-name="Trazado 762507" d="M4.863,0H2.751L4.065-7.558H-3.919L-5.233,0H-7.345L-4.5-16.352h2.111l-1.224,7.03H4.357l1.224-7.03H7.7Z" transform="translate(653 8682.535)" fill="#12263f"/>
    <path id="Trazado_762497" data-name="Trazado 762497" d="M4.863,0H2.751L4.065-7.558H-3.919L-5.233,0H-7.345L-4.5-16.352h2.111l-1.224,7.03H4.357l1.224-7.03H7.7Z" transform="translate(711 8772.349)" fill="#12263f"/>
    <path id="Trazado_762508" data-name="Trazado 762508" d="M3.023,0H-4.219l.172-1.1L.148-5.18l.766-.758A4.483,4.483,0,0,0,2.375-8.375a1.807,1.807,0,0,0-.336-1.4A1.58,1.58,0,0,0,.8-10.352a2.328,2.328,0,0,0-1.711.6,2.745,2.745,0,0,0-.836,1.723l-1.4.008A3.956,3.956,0,0,1-2.5-9.879a3.59,3.59,0,0,1,1.43-1.242,4.108,4.108,0,0,1,1.926-.41,3.156,3.156,0,0,1,2.246.855A2.535,2.535,0,0,1,3.82-8.539,5.445,5.445,0,0,1,2.094-5.383l-.719.727L-2.281-1.18H3.211Z" transform="translate(459 8825.534)" fill="#12263f"/>
    <path id="Trazado_762503" data-name="Trazado 762503" d="M-19.019-7.229h-6.574l-.967,5.543h7.648L-19.212,0H-28.87l2.718-15.641h9.55l-.3,1.687h-7.53l-.87,5.038h6.574ZM-10.9.215A5.008,5.008,0,0,1-13.492-.5,4.663,4.663,0,0,1-15.227-2.53a7.628,7.628,0,0,1-.7-3,14.26,14.26,0,0,1,.29-3.212,11.014,11.014,0,0,1,1.225-3.448,7.77,7.77,0,0,1,2.116-2.46,6.091,6.091,0,0,1,3.846-1.2,4.627,4.627,0,0,1,3.609,1.584A6.589,6.589,0,0,1-3.421-10.1a15.366,15.366,0,0,1-.231,2.868A11.874,11.874,0,0,1-4.63-4a8.07,8.07,0,0,1-1.789,2.5A6.151,6.151,0,0,1-10.9.215ZM-5.409-9.6a5.42,5.42,0,0,0-.741-3.282,2.822,2.822,0,0,0-2.4-1.208,4.074,4.074,0,0,0-2.573.773,5.855,5.855,0,0,0-1.858,2.444,12.592,12.592,0,0,0-.918,4.12l-.032.7a5.466,5.466,0,0,0,.752,3.3A2.8,2.8,0,0,0-10.8-1.525,4.138,4.138,0,0,0-7.434-2.992a8.328,8.328,0,0,0,1.778-4.27A19.24,19.24,0,0,0-5.409-9.6ZM7.256-.816,9.587,1.429,8.094,2.643,5.366.032A7.5,7.5,0,0,1,3.776.2,4.823,4.823,0,0,1,1.187-.51,4.64,4.64,0,0,1-.548-2.541a7.752,7.752,0,0,1-.682-3A14.279,14.279,0,0,1-.945-8.771a10.936,10.936,0,0,1,1.2-3.384A7.883,7.883,0,0,1,2.3-14.588a6.106,6.106,0,0,1,3.932-1.268,5.073,5.073,0,0,1,2.632.73A4.572,4.572,0,0,1,10.6-13.1a7.816,7.816,0,0,1,.677,3A11.533,11.533,0,0,1,11.2-8.3l-.129.913Q10.4-2.761,7.256-.816ZM9.276-9.6a5.316,5.316,0,0,0-.741-3.3A2.844,2.844,0,0,0,6.15-14.094a4.074,4.074,0,0,0-2.573.773,5.855,5.855,0,0,0-1.858,2.444A12.592,12.592,0,0,0,.8-6.757l-.032.7a6.936,6.936,0,0,0,.29,2.31A3.173,3.173,0,0,0,2.116-2.116a2.982,2.982,0,0,0,1.778.591A4.066,4.066,0,0,0,7.219-2.954,8.226,8.226,0,0,0,9.018-7.2,18.47,18.47,0,0,0,9.276-9.6Zm19.089.859h-8.7l.3-1.729h8.712Zm-.773,4.458h-8.7L19.191-6H27.9Z" transform="translate(577 8747.722)" fill="#12263f"/>
    <path id="Trazado_762531" data-name="Trazado 762531" d="M2.073-8.744h-8.7l.3-1.729H2.385ZM1.3-4.286H-7.4L-7.1-6H1.611Z" transform="translate(412 8840.534)" fill="#12263f"/>
    <path id="Trazado_762522" data-name="Trazado 762522" d="M2.073-8.744h-8.7l.3-1.729H2.385ZM1.3-4.286H-7.4L-7.1-6H1.611Z" transform="translate(731 8665.535)" fill="#12263f"/>
    <path id="Trazado_762523" data-name="Trazado 762523" d="M5.049-.816,7.38,1.429,5.887,2.643,3.158.032A7.5,7.5,0,0,1,1.568.2,4.823,4.823,0,0,1-1.021-.51a4.64,4.64,0,0,1-1.735-2.03,7.752,7.752,0,0,1-.682-3,14.279,14.279,0,0,1,.285-3.228,10.936,10.936,0,0,1,1.2-3.384A7.883,7.883,0,0,1,.1-14.588a6.106,6.106,0,0,1,3.932-1.268,5.073,5.073,0,0,1,2.632.73A4.572,4.572,0,0,1,8.39-13.1a7.816,7.816,0,0,1,.677,3A11.533,11.533,0,0,1,8.991-8.3l-.129.913Q8.2-2.761,5.049-.816ZM7.068-9.6a5.316,5.316,0,0,0-.741-3.3,2.844,2.844,0,0,0-2.385-1.192,4.074,4.074,0,0,0-2.573.773A5.855,5.855,0,0,0-.489-10.876a12.592,12.592,0,0,0-.918,4.12l-.032.7a6.936,6.936,0,0,0,.29,2.31A3.173,3.173,0,0,0-.091-2.116a2.982,2.982,0,0,0,1.778.591A4.066,4.066,0,0,0,5.011-2.954,8.226,8.226,0,0,0,6.811-7.2,18.47,18.47,0,0,0,7.068-9.6Z" transform="translate(445 8838.534)" fill="#12263f"/>
    <path id="Trazado_762524" data-name="Trazado 762524" d="M5.049-.816,7.38,1.429,5.887,2.643,3.158.032A7.5,7.5,0,0,1,1.568.2,4.823,4.823,0,0,1-1.021-.51a4.64,4.64,0,0,1-1.735-2.03,7.752,7.752,0,0,1-.682-3,14.279,14.279,0,0,1,.285-3.228,10.936,10.936,0,0,1,1.2-3.384A7.883,7.883,0,0,1,.1-14.588a6.106,6.106,0,0,1,3.932-1.268,5.073,5.073,0,0,1,2.632.73A4.572,4.572,0,0,1,8.39-13.1a7.816,7.816,0,0,1,.677,3A11.533,11.533,0,0,1,8.991-8.3l-.129.913Q8.2-2.761,5.049-.816ZM7.068-9.6a5.316,5.316,0,0,0-.741-3.3,2.844,2.844,0,0,0-2.385-1.192,4.074,4.074,0,0,0-2.573.773A5.855,5.855,0,0,0-.489-10.876a12.592,12.592,0,0,0-.918,4.12l-.032.7a6.936,6.936,0,0,0,.29,2.31A3.173,3.173,0,0,0-.091-2.116a2.982,2.982,0,0,0,1.778.591A4.066,4.066,0,0,0,5.011-2.954,8.226,8.226,0,0,0,6.811-7.2,18.47,18.47,0,0,0,7.068-9.6Z" transform="translate(744 8663.535)" fill="#12263f"/>
    <path id="Trazado_762536" data-name="Trazado 762536" d="M0,0H112V3H0Z" transform="translate(278 8831.534)" fill="#12263f"/>
    <path id="Trazado_762527" data-name="Trazado 762527" d="M0,0H112V3H0Z" transform="translate(597 8656.535)" fill="#12263f"/>
    <path id="Trazado_762504" data-name="Trazado 762504" d="M0,0H112V3H0Z" transform="translate(655 8746.349)" fill="#12263f"/>
    <g id="Grupo_1024359" data-name="Grupo 1024359" transform="translate(414.758 8808.534)" clip-path="url(#clip-path)">
      <path id="Trazado_762442" data-name="Trazado 762442" d="M13.5,23.625c.425-1.087.823-2.095,1.214-3.106Q17.156,14.194,19.6,7.868c.81-2.095,1.636-4.183,2.436-6.282A2.153,2.153,0,0,1,23.5.091a2.676,2.676,0,0,1,.666-.083c4.7,0,9.4,0,14.1-.008A2.069,2.069,0,0,1,40.45,1.671,1.984,1.984,0,0,1,38.74,3.99c-.409.041-.824.016-1.236.016q-5.937,0-11.874,0c-.161,0-.255.027-.319.192q-1.553,4.035-3.118,8.066-2.152,5.55-4.306,11.1-1.221,3.155-2.424,6.318a2.416,2.416,0,0,1-1.137,1.471,1.95,1.95,0,0,1-2.684-.925c-.345-.787-.615-1.607-.906-2.418q-1.687-4.7-3.373-9.408a.338.338,0,0,0-.249-.181c-1.585-.013-3.17,0-4.754-.021a3.274,3.274,0,0,1-1.074-.147A1.936,1.936,0,0,1,.012,15.99a1.958,1.958,0,0,1,1.8-1.762c.532-.04,1.068-.038,1.6-.039q2.518-.008,5.037,0A2.039,2.039,0,0,1,10.654,15.7c.739,2,1.444,4.015,2.163,6.024l.683,1.9" transform="translate(0 0)" fill="#12263f"/>
    </g>
    <g id="Grupo_1024359-2" data-name="Grupo 1024359" transform="translate(233 8833.534)" clip-path="url(#clip-path-2)">
      <path id="Trazado_762442-2" data-name="Trazado 762442" d="M13.5,23.625c.425-1.087.823-2.095,1.214-3.106Q17.156,14.194,19.6,7.868c.81-2.095,14.649-39.221,15.449-41.319a2.153,2.153,0,0,1,1.468-1.5,2.676,2.676,0,0,1,.666-.083c4.7,0,9.4,0,14.1-.008a2.069,2.069,0,0,1,2.187,1.671,1.984,1.984,0,0,1-1.711,2.319c-.409.041-.824.016-1.236.016q-5.937,0-11.874,0c-.161,0-.255.027-.319.192-1.036,2.69-15.089,40.416-16.131,43.1q-2.152,5.55-4.306,11.1-1.221,3.155-2.424,6.318a2.416,2.416,0,0,1-1.137,1.471,1.95,1.95,0,0,1-2.684-.925c-.345-.787-.615-1.607-.906-2.418q-1.687-4.7-3.373-9.408a.338.338,0,0,0-.249-.181c-1.585-.013-3.17,0-4.754-.021a3.274,3.274,0,0,1-1.074-.147A1.936,1.936,0,0,1,.012,15.99a1.958,1.958,0,0,1,1.8-1.762c.532-.04,1.068-.038,1.6-.039q2.518-.008,5.037,0A2.039,2.039,0,0,1,10.654,15.7c.739,2,1.444,4.015,2.163,6.024l.683,1.9" transform="translate(0 0)" fill="#12263f"/>
    </g>
    <g id="Grupo_1024359-3" data-name="Grupo 1024359" transform="translate(552 8658.535)" clip-path="url(#clip-path-2)">
      <path id="Trazado_762442-3" data-name="Trazado 762442" d="M13.5,23.625c.425-1.087.823-2.095,1.214-3.106Q17.156,14.194,19.6,7.868c.81-2.095,14.649-39.221,15.449-41.319a2.153,2.153,0,0,1,1.468-1.5,2.676,2.676,0,0,1,.666-.083c4.7,0,9.4,0,14.1-.008a2.069,2.069,0,0,1,2.187,1.671,1.984,1.984,0,0,1-1.711,2.319c-.409.041-.824.016-1.236.016q-5.937,0-11.874,0c-.161,0-.255.027-.319.192-1.036,2.69-15.089,40.416-16.131,43.1q-2.152,5.55-4.306,11.1-1.221,3.155-2.424,6.318a2.416,2.416,0,0,1-1.137,1.471,1.95,1.95,0,0,1-2.684-.925c-.345-.787-.615-1.607-.906-2.418q-1.687-4.7-3.373-9.408a.338.338,0,0,0-.249-.181c-1.585-.013-3.17,0-4.754-.021a3.274,3.274,0,0,1-1.074-.147A1.936,1.936,0,0,1,.012,15.99a1.958,1.958,0,0,1,1.8-1.762c.532-.04,1.068-.038,1.6-.039q2.518-.008,5.037,0A2.039,2.039,0,0,1,10.654,15.7c.739,2,1.444,4.015,2.163,6.024l.683,1.9" transform="translate(0 0)" fill="#12263f"/>
    </g>
    <g id="Grupo_1024359-4" data-name="Grupo 1024359" transform="translate(610 8748.349)" clip-path="url(#clip-path-2)">
      <path id="Trazado_762442-4" data-name="Trazado 762442" d="M13.5,23.625c.425-1.087.823-2.095,1.214-3.106Q17.156,14.194,19.6,7.868c.81-2.095,14.649-39.221,15.449-41.319a2.153,2.153,0,0,1,1.468-1.5,2.676,2.676,0,0,1,.666-.083c4.7,0,9.4,0,14.1-.008a2.069,2.069,0,0,1,2.187,1.671,1.984,1.984,0,0,1-1.711,2.319c-.409.041-.824.016-1.236.016q-5.937,0-11.874,0c-.161,0-.255.027-.319.192-1.036,2.69-15.089,40.416-16.131,43.1q-2.152,5.55-4.306,11.1-1.221,3.155-2.424,6.318a2.416,2.416,0,0,1-1.137,1.471,1.95,1.95,0,0,1-2.684-.925c-.345-.787-.615-1.607-.906-2.418q-1.687-4.7-3.373-9.408a.338.338,0,0,0-.249-.181c-1.585-.013-3.17,0-4.754-.021a3.274,3.274,0,0,1-1.074-.147A1.936,1.936,0,0,1,.012,15.99a1.958,1.958,0,0,1,1.8-1.762c.532-.04,1.068-.038,1.6-.039q2.518-.008,5.037,0A2.039,2.039,0,0,1,10.654,15.7c.739,2,1.444,4.015,2.163,6.024l.683,1.9" transform="translate(0 0)" fill="#12263f"/>
    </g>
    <path id="Trazado_762509" data-name="Trazado 762509" d="M20.9,10.443H13.045V8.369H20.9Zm0,3.806H13.045V12.175H20.9Z" transform="translate(332 8642.721)" fill="#12263f"/>
    <path id="Trazado_762510" data-name="Trazado 762510" d="M-6.71,0l2.841-16.352,4.245.011a5.894,5.894,0,0,1,3.442,1A5.513,5.513,0,0,1,5.89-12.584a8.57,8.57,0,0,1,.371,3.936l-.112.82a9.246,9.246,0,0,1-2.774,5.7A8.067,8.067,0,0,1-2.353,0Zm4.638-14.588L-4.3-1.774l2.078.011A5.838,5.838,0,0,0,1.819-3.246,7.037,7.037,0,0,0,3.97-7.311a13.227,13.227,0,0,0,.27-3.515A4.281,4.281,0,0,0,3.083-13.55a3.745,3.745,0,0,0-2.65-1.028Z" transform="translate(268 8647.721)" fill="#12263f"/>
    <path id="Trazado_762511" data-name="Trazado 762511" d="M2.353-.816,4.684,1.429,3.19,2.643.462.032A7.5,7.5,0,0,1-1.128.2,4.823,4.823,0,0,1-3.717-.51a4.64,4.64,0,0,1-1.735-2.03,7.752,7.752,0,0,1-.682-3,14.279,14.279,0,0,1,.285-3.228,10.936,10.936,0,0,1,1.2-3.384A7.883,7.883,0,0,1-2.6-14.588a6.106,6.106,0,0,1,3.932-1.268,5.073,5.073,0,0,1,2.632.73A4.572,4.572,0,0,1,5.693-13.1a7.816,7.816,0,0,1,.677,3A11.533,11.533,0,0,1,6.295-8.3l-.129.913Q5.5-2.761,2.353-.816ZM4.372-9.6a5.316,5.316,0,0,0-.741-3.3,2.844,2.844,0,0,0-2.385-1.192,4.074,4.074,0,0,0-2.573.773,5.855,5.855,0,0,0-1.858,2.444A12.592,12.592,0,0,0-4.1-6.757l-.032.7a6.936,6.936,0,0,0,.29,2.31A3.173,3.173,0,0,0-2.788-2.116a2.982,2.982,0,0,0,1.778.591A4.066,4.066,0,0,0,2.315-2.954,8.226,8.226,0,0,0,4.114-7.2,18.47,18.47,0,0,0,4.372-9.6Z" transform="translate(395 8646.721)" fill="#12263f"/>
    <path id="Trazado_762512" data-name="Trazado 762512" d="M2.353-.816,4.684,1.429,3.19,2.643.462.032A7.5,7.5,0,0,1-1.128.2,4.823,4.823,0,0,1-3.717-.51a4.64,4.64,0,0,1-1.735-2.03,7.752,7.752,0,0,1-.682-3,14.279,14.279,0,0,1,.285-3.228,10.936,10.936,0,0,1,1.2-3.384A7.883,7.883,0,0,1-2.6-14.588a6.106,6.106,0,0,1,3.932-1.268,5.073,5.073,0,0,1,2.632.73A4.572,4.572,0,0,1,5.693-13.1a7.816,7.816,0,0,1,.677,3A11.533,11.533,0,0,1,6.295-8.3l-.129.913Q5.5-2.761,2.353-.816ZM4.372-9.6a5.316,5.316,0,0,0-.741-3.3,2.844,2.844,0,0,0-2.385-1.192,4.074,4.074,0,0,0-2.573.773,5.855,5.855,0,0,0-1.858,2.444A12.592,12.592,0,0,0-4.1-6.757l-.032.7a6.936,6.936,0,0,0,.29,2.31A3.173,3.173,0,0,0-2.788-2.116a2.982,2.982,0,0,0,1.778.591A4.066,4.066,0,0,0,2.315-2.954,8.226,8.226,0,0,0,4.114-7.2,18.47,18.47,0,0,0,4.372-9.6Z" transform="translate(268 8679.721)" fill="#12263f"/>
    <path id="Trazado_762513" data-name="Trazado 762513" d="M4.346,0H-6.064l.247-1.583L.213-7.446l1.1-1.089a6.445,6.445,0,0,0,2.1-3.5,2.6,2.6,0,0,0-.483-2.016,2.272,2.272,0,0,0-1.774-.825,3.346,3.346,0,0,0-2.459.859,3.946,3.946,0,0,0-1.2,2.476l-2.01.011A5.687,5.687,0,0,1-3.588-14.2a5.161,5.161,0,0,1,2.055-1.786,5.905,5.905,0,0,1,2.768-.59,4.537,4.537,0,0,1,3.229,1.23,3.644,3.644,0,0,1,1.028,3.072A7.827,7.827,0,0,1,3.01-7.738L1.977-6.693l-5.256,5h7.9Z" transform="translate(395 8680.721)" fill="#12263f"/>
    <path id="Trazado_762514" data-name="Trazado 762514" d="M-10.046-11.09l-3.111-1.01.764-1.615,3.122,1.268.573-3.9h1.685L-7.8-12.492-4.4-13.7l.213,1.784L-7.721-10.9-6.07-7.811l-1.437.988-1.471-3.257-2.493,3.145-1.28-1.1Zm20.9,6.879q.247-1.8-1.864-2.628L7.047-7.547,6.4-7.828q-3.279-1.494-3.066-4.2a4.393,4.393,0,0,1,.932-2.4,5.3,5.3,0,0,1,2.173-1.612,6.971,6.971,0,0,1,2.881-.533,5.75,5.75,0,0,1,2.645.663,4.258,4.258,0,0,1,1.769,1.758,4.791,4.791,0,0,1,.539,2.544l-2.123-.011a2.929,2.929,0,0,0-.674-2.339,3.017,3.017,0,0,0-2.246-.851,4.184,4.184,0,0,0-2.572.72,2.811,2.811,0,0,0-1.19,2.025q-.225,1.676,2.055,2.543l1.673.6.842.359q3.167,1.46,2.931,4.335a4.33,4.33,0,0,1-.932,2.386,5.212,5.212,0,0,1-2.2,1.555A7.569,7.569,0,0,1,6.856.225,6.238,6.238,0,0,1,4.043-.432,4.59,4.59,0,0,1,2.106-2.2,4.424,4.424,0,0,1,1.522-4.75l2.111.011A2.782,2.782,0,0,0,4.425-2.42a3.564,3.564,0,0,0,2.521.882A4.5,4.5,0,0,0,9.63-2.246,2.755,2.755,0,0,0,10.854-4.211Z" transform="translate(306 8665.721)" fill="#12263f"/>
    <path id="Trazado_762515" data-name="Trazado 762515" d="M-10.882-10.608l-2.976-.966.73-1.545,2.986,1.213.548-3.734h1.611l-.752,3.691,3.255-1.159.2,1.706-3.384.977,1.579,2.954-1.375.945L-9.861-9.641l-2.385,3.008-1.225-1.053ZM12,0H9.979l1.257-7.229H3.6L2.342,0H.322L3.04-15.641H5.06L3.889-8.916h7.627l1.171-6.725h2.03Z" transform="translate(433 8664.721)" fill="#12263f"/>
    <path id="Trazado_762516" data-name="Trazado 762516" d="M0,0H26V3H0Z" transform="translate(256 8655.721)" fill="#12263f"/>
    <path id="Trazado_762517" data-name="Trazado 762517" d="M0,0H26V3H0Z" transform="translate(383 8655.721)" fill="#12263f"/>
    <path id="Trazado_762518" data-name="Trazado 762518" d="M-6.251-17.026a44.54,44.54,0,0,1,1.743-12.5,36.32,36.32,0,0,1,5.2-10.89,22.122,22.122,0,0,1,7.173-6.914l1.095,3.515q-4.206,3.227-6.9,9.853A42.712,42.712,0,0,0-.893-19.129L-.922-16.68A42.935,42.935,0,0,0,3.14,2.622a23.053,23.053,0,0,0,5.819,7.663L7.865,13.54A22.832,22.832,0,0,1,.547,6.4Q-6.251-3.4-6.251-17.026Z" transform="translate(244 8674.721)" fill="#12263f"/>
    <path id="Trazado_762519" data-name="Trazado 762519" d="M-6.251-17.026a44.54,44.54,0,0,1,1.743-12.5,36.32,36.32,0,0,1,5.2-10.89,22.122,22.122,0,0,1,7.173-6.914l1.095,3.515q-4.206,3.227-6.9,9.853A42.712,42.712,0,0,0-.893-19.129L-.922-16.68A42.935,42.935,0,0,0,3.14,2.622a23.053,23.053,0,0,0,5.819,7.663L7.865,13.54A22.832,22.832,0,0,1,.547,6.4Q-6.251-3.4-6.251-17.026Z" transform="translate(371 8674.721)" fill="#12263f"/>
    <path id="Trazado_762520" data-name="Trazado 762520" d="M6.285-17.305A46.072,46.072,0,0,1,4.542-4.572,37.652,37.652,0,0,1-.789,6.672,23.359,23.359,0,0,1-8.31,14l-1.162-3.366Q-4.885,7.119-2.1-.283A47.226,47.226,0,0,0,.745-16.709v-.953A49.033,49.033,0,0,0-.566-29.294a39.255,39.255,0,0,0-3.649-9.635,22.256,22.256,0,0,0-5.257-6.642l1.162-3.366A23.268,23.268,0,0,1-.819-41.669,37.732,37.732,0,0,1,4.512-30.44,47.136,47.136,0,0,1,6.285-17.305Z" transform="translate(327 8676.721)" fill="#12263f"/>
    <path id="Trazado_762521" data-name="Trazado 762521" d="M6.285-17.305A46.072,46.072,0,0,1,4.542-4.572,37.652,37.652,0,0,1-.789,6.672,23.359,23.359,0,0,1-8.31,14l-1.162-3.366Q-4.885,7.119-2.1-.283A47.226,47.226,0,0,0,.745-16.709v-.953A49.033,49.033,0,0,0-.566-29.294a39.255,39.255,0,0,0-3.649-9.635,22.256,22.256,0,0,0-5.257-6.642l1.162-3.366A23.268,23.268,0,0,1-.819-41.669,37.732,37.732,0,0,1,4.512-30.44,47.136,47.136,0,0,1,6.285-17.305Z" transform="translate(454 8676.721)" fill="#12263f"/>
    <path id="Trazado_762549" data-name="Trazado 762549" d="M4.157,0H-5.8l.236-1.515L.2-7.122,1.257-8.164a6.165,6.165,0,0,0,2.009-3.352A2.485,2.485,0,0,0,2.8-13.444a2.173,2.173,0,0,0-1.7-.79,3.2,3.2,0,0,0-2.353.822A3.775,3.775,0,0,0-2.4-11.043l-1.923.011a5.44,5.44,0,0,1,.886-2.551,4.937,4.937,0,0,1,1.966-1.708,5.649,5.649,0,0,1,2.648-.564A4.34,4.34,0,0,1,4.27-14.679a3.485,3.485,0,0,1,.983,2.938A7.487,7.487,0,0,1,2.879-7.4l-.988,1-5.027,4.78H4.415Z" transform="translate(275 8739.721)" fill="#12263f"/>
    <path id="Trazado_762545" data-name="Trazado 762545" d="M-6.418,0-3.7-15.641.36-15.63a5.638,5.638,0,0,1,3.292.956,5.273,5.273,0,0,1,1.982,2.637,8.2,8.2,0,0,1,.354,3.765l-.107.784A8.844,8.844,0,0,1,3.228-2.036,7.716,7.716,0,0,1-2.25,0Zm4.437-13.954L-4.109-1.7l1.987.011A5.585,5.585,0,0,0,1.74-3.1,6.731,6.731,0,0,0,3.8-6.993a12.652,12.652,0,0,0,.258-3.362,4.1,4.1,0,0,0-1.106-2.6,3.582,3.582,0,0,0-2.535-.983Z" transform="translate(319 8739.721)" fill="#12263f"/>
    <path id="Trazado_762538" data-name="Trazado 762538" d="M3.035-4.028q.236-1.719-1.783-2.514L-.607-7.219l-.623-.269Q-4.367-8.916-4.163-11.5a4.2,4.2,0,0,1,.892-2.3,5.073,5.073,0,0,1,2.079-1.542,6.668,6.668,0,0,1,2.755-.51,5.5,5.5,0,0,1,2.53.634,4.073,4.073,0,0,1,1.692,1.681A4.583,4.583,0,0,1,6.3-11.107l-2.03-.011a2.8,2.8,0,0,0-.645-2.237,2.886,2.886,0,0,0-2.148-.814,4,4,0,0,0-2.46.689,2.688,2.688,0,0,0-1.139,1.937q-.215,1.6,1.966,2.432l1.6.57L2.25-8.2Q5.28-6.8,5.054-4.05a4.142,4.142,0,0,1-.892,2.283,4.985,4.985,0,0,1-2.1,1.488A7.24,7.24,0,0,1-.79.215,5.967,5.967,0,0,1-3.48-.414,4.39,4.39,0,0,1-5.333-2.105a4.232,4.232,0,0,1-.559-2.438l2.02.011a2.661,2.661,0,0,0,.757,2.218A3.409,3.409,0,0,0-.7-1.472a4.306,4.306,0,0,0,2.567-.677A2.635,2.635,0,0,0,3.035-4.028Z" transform="translate(363 8739.721)" fill="#12263f"/>
    <path id="Trazado_762547" data-name="Trazado 762547" d="M-.526-10.608-3.5-11.574l.73-1.545L.215-11.906l.548-3.734H2.374l-.752,3.691,3.255-1.159.2,1.706L1.7-10.425,3.276-7.471,1.9-6.526.494-9.641-1.891-6.633-3.115-7.686Z" transform="translate(296 8743.721)" fill="#12263f"/>
    <path id="Trazado_762543" data-name="Trazado 762543" d="M-.526-10.608-3.5-11.574l.73-1.545L.215-11.906l.548-3.734H2.374l-.752,3.691,3.255-1.159.2,1.706L1.7-10.425,3.276-7.471,1.9-6.526.494-9.641-1.891-6.633-3.115-7.686Z" transform="translate(340 8743.721)" fill="#12263f"/>
    <path id="Trazado_762544" data-name="Trazado 762544" d="M4.863,0H2.751L4.065-7.558H-3.919L-5.233,0H-7.345L-4.5-16.352h2.111l-1.224,7.03H4.357l1.224-7.03H7.7Z" transform="translate(319 8773.721)" fill="#12263f"/>
    <path id="Trazado_762532" data-name="Trazado 762532" d="M3.023,0H-4.219l.172-1.1L.148-5.18l.766-.758A4.483,4.483,0,0,0,2.375-8.375a1.807,1.807,0,0,0-.336-1.4A1.58,1.58,0,0,0,.8-10.352a2.328,2.328,0,0,0-1.711.6,2.745,2.745,0,0,0-.836,1.723l-1.4.008A3.956,3.956,0,0,1-2.5-9.879a3.59,3.59,0,0,1,1.43-1.242,4.108,4.108,0,0,1,1.926-.41,3.156,3.156,0,0,1,2.246.855A2.535,2.535,0,0,1,3.82-8.539,5.445,5.445,0,0,1,2.094-5.383l-.719.727L-2.281-1.18H3.211Z" transform="translate(424 8741.721)" fill="#12263f"/>
    <path id="Trazado_762533" data-name="Trazado 762533" d="M-5.317-8.744h-8.7l.3-1.729h8.712Zm-.773,4.458h-8.7l.3-1.719h8.712ZM10.957-.816l2.331,2.245L11.795,2.643,9.066.032A7.5,7.5,0,0,1,7.477.2,4.823,4.823,0,0,1,4.888-.51a4.64,4.64,0,0,1-1.735-2.03,7.752,7.752,0,0,1-.682-3,14.279,14.279,0,0,1,.285-3.228,10.936,10.936,0,0,1,1.2-3.384A7.883,7.883,0,0,1,6-14.588a6.106,6.106,0,0,1,3.932-1.268,5.073,5.073,0,0,1,2.632.73A4.572,4.572,0,0,1,14.3-13.1a7.816,7.816,0,0,1,.677,3A11.533,11.533,0,0,1,14.9-8.3l-.129.913Q14.1-2.761,10.957-.816ZM12.977-9.6a5.316,5.316,0,0,0-.741-3.3,2.844,2.844,0,0,0-2.385-1.192,4.074,4.074,0,0,0-2.573.773,5.855,5.855,0,0,0-1.858,2.444A12.592,12.592,0,0,0,4.5-6.757l-.032.7a6.936,6.936,0,0,0,.29,2.31A3.173,3.173,0,0,0,5.817-2.116a2.982,2.982,0,0,0,1.778.591,4.066,4.066,0,0,0,3.325-1.429,8.226,8.226,0,0,0,1.8-4.243A18.47,18.47,0,0,0,12.977-9.6Z" transform="translate(402 8756.721)" fill="#12263f"/>
    <path id="Trazado_762539" data-name="Trazado 762539" d="M0,0H112V3H0Z" transform="translate(263 8747.721)" fill="#12263f"/>
    <path id="Trazado_762550" data-name="Trazado 762550" d="M0,0H23V23H0Z" transform="translate(210 8617)" fill="#57dbd8"/>
    <path id="Trazado_762551" data-name="Trazado 762551" d="M1.772,0h-2.4V-9.247l-2.864.888V-10.31L1.515-12.1h.257Z" transform="translate(221 8635)" fill="#12263f"/>
    <path id="Trazado_762534" data-name="Trazado 762534" d="M0,0H23V23H0Z" transform="translate(520 8617)" fill="#57dbd8"/>
    <path id="Trazado_762535" data-name="Trazado 762535" d="M3.042-4.549h1.37v1.934H3.042V0H.643V-2.615H-4.312L-4.42-4.125l5.039-7.96H3.042Zm-5.072,0H.643V-8.815l-.158.274Z" transform="translate(531 8635)" fill="#12263f"/>
    <path id="Trazado_762505" data-name="Trazado 762505" d="M0,0H23V23H0Z" transform="translate(520 8704)" fill="#57dbd8"/>
    <path id="Trazado_762506" data-name="Trazado 762506" d="M-3.7-5.943l.7-6.143H3.773v2H-1.033l-.3,2.6A3.8,3.8,0,0,1,.486-7.944,3.484,3.484,0,0,1,3.192-6.873a4.277,4.277,0,0,1,.979,3,4.382,4.382,0,0,1-.494,2.1A3.486,3.486,0,0,1,2.262-.344,4.418,4.418,0,0,1,.087.166,4.692,4.692,0,0,1-1.947-.278,3.607,3.607,0,0,1-3.428-1.527a3.4,3.4,0,0,1-.577-1.834h2.374A1.773,1.773,0,0,0-1.1-2.187a1.671,1.671,0,0,0,1.183.419,1.475,1.475,0,0,0,1.253-.585,2.711,2.711,0,0,0,.44-1.656,2.242,2.242,0,0,0-.506-1.577A1.858,1.858,0,0,0-.17-6.134a2.077,2.077,0,0,0-1.386.448l-.232.216Z" transform="translate(531 8722)" fill="#12263f"/>
    <path id="Trazado_762552" data-name="Trazado 762552" d="M0,0H23V23H0Z" transform="translate(210 8711)" fill="#57dbd8"/>
    <path id="Trazado_762553" data-name="Trazado 762553" d="M4.229,0H-4.055V-1.644l3.91-4.167A9.645,9.645,0,0,0,1.046-7.346a2.467,2.467,0,0,0,.386-1.245,1.846,1.846,0,0,0-.407-1.266,1.468,1.468,0,0,0-1.162-.461,1.584,1.584,0,0,0-1.282.56,2.219,2.219,0,0,0-.469,1.473H-4.3A3.962,3.962,0,0,1-3.769-10.3a3.715,3.715,0,0,1,1.49-1.432A4.529,4.529,0,0,1-.1-12.252a4.288,4.288,0,0,1,2.9.9A3.172,3.172,0,0,1,3.839-8.824,4.064,4.064,0,0,1,3.374-7,10.148,10.148,0,0,1,1.781-4.831l-2.748,2.9h5.2Z" transform="translate(221 8729)" fill="#12263f"/>
    <path id="Trazado_762554" data-name="Trazado 762554" d="M0,0H23V23H0Z" transform="translate(210 8782)" fill="#57dbd8"/>
    <path id="Trazado_762555" data-name="Trazado 762555" d="M-1.615-7.105H-.336a1.8,1.8,0,0,0,1.353-.457,1.673,1.673,0,0,0,.44-1.212,1.479,1.479,0,0,0-.436-1.137,1.689,1.689,0,0,0-1.2-.407,1.77,1.77,0,0,0-1.154.378,1.208,1.208,0,0,0-.465.984H-4.2a2.95,2.95,0,0,1,.51-1.7,3.4,3.4,0,0,1,1.428-1.175,4.765,4.765,0,0,1,2.021-.423,4.519,4.519,0,0,1,3,.917A3.13,3.13,0,0,1,3.856-8.807,2.543,2.543,0,0,1,3.349-7.28,3.29,3.29,0,0,1,2.021-6.209a3,3,0,0,1,1.523,1.1,2.972,2.972,0,0,1,.5,1.727A3.181,3.181,0,0,1,2.872-.805,4.723,4.723,0,0,1-.237.166,4.478,4.478,0,0,1-3.2-.789a3.118,3.118,0,0,1-1.15-2.523h2.4A1.39,1.39,0,0,0-1.436-2.2a1.881,1.881,0,0,0,1.258.432A1.89,1.89,0,0,0,1.162-2.22a1.562,1.562,0,0,0,.486-1.2q0-1.81-1.992-1.81h-1.27Z" transform="translate(221 8800)" fill="#12263f"/>
  </g>
</svg>
