<svg xmlns="http://www.w3.org/2000/svg" xmlns:xlink="http://www.w3.org/1999/xlink" width="694.307" height="314.11" viewBox="0 0 694.307 314.11">
  <defs>
    <clipPath id="clip-path">
      <rect id="Rectángulo_360718" data-name="Rectángulo 360718" width="668.322" height="293.609" fill="none"/>
    </clipPath>
  </defs>
  <g id="Grupo_1024393" data-name="Grupo 1024393" transform="translate(-708.953 -8042)">
    <g id="Grupo_1024353" data-name="Grupo 1024353" transform="translate(734.938 8042)">
      <path id="Trazado_762418" data-name="Trazado 762418" d="M6.531,282.075v0Z" transform="translate(3.628 0.555)" fill="#84d6e0"/>
      <g id="Grupo_1024334" data-name="Grupo 1024334">
        <g id="Grupo_1024333" data-name="Grupo 1024333" clip-path="url(#clip-path)">
          <line id="Línea_3320" data-name="Línea 3320" y2="281.076" transform="translate(10.159 1.555)" fill="none" stroke="#12263f" stroke-miterlimit="10" stroke-width="3"/>
        </g>
      </g>
      <path id="Trazado_762419" data-name="Trazado 762419" d="M2.34,178.045h0Z" transform="translate(1.3 98.892)" fill="#84d6e0"/>
      <g id="Grupo_1024336" data-name="Grupo 1024336">
        <g id="Grupo_1024335" data-name="Grupo 1024335" clip-path="url(#clip-path)">
          <line id="Línea_3321" data-name="Línea 3321" x1="664.681" transform="translate(3.641 276.937)" fill="none" stroke="#12263f" stroke-miterlimit="10" stroke-width="3"/>
        </g>
      </g>
      <path id="Trazado_762420" data-name="Trazado 762420" d="M2.582,26.129h0Z" transform="translate(1.434 14.513)" fill="#84d6e0"/>
      <g id="Grupo_1024338" data-name="Grupo 1024338">
        <g id="Grupo_1024337" data-name="Grupo 1024337" clip-path="url(#clip-path)">
          <line id="Línea_3322" data-name="Línea 3322" x1="6.144" transform="translate(4.016 40.642)" fill="none" stroke="#12263f" stroke-miterlimit="10" stroke-width="2"/>
        </g>
      </g>
      <path id="Trazado_762421" data-name="Trazado 762421" d="M2.582,51.07h0Z" transform="translate(1.434 28.366)" fill="#84d6e0"/>
      <g id="Grupo_1024340" data-name="Grupo 1024340">
        <g id="Grupo_1024339" data-name="Grupo 1024339" clip-path="url(#clip-path)">
          <line id="Línea_3323" data-name="Línea 3323" x1="6.144" transform="translate(4.016 79.436)" fill="none" stroke="#12263f" stroke-miterlimit="10" stroke-width="2"/>
        </g>
      </g>
      <path id="Trazado_762422" data-name="Trazado 762422" d="M2.582,77.235h0Z" transform="translate(1.434 42.899)" fill="#84d6e0"/>
      <g id="Grupo_1024342" data-name="Grupo 1024342">
        <g id="Grupo_1024341" data-name="Grupo 1024341" clip-path="url(#clip-path)">
          <line id="Línea_3324" data-name="Línea 3324" x1="6.144" transform="translate(4.016 120.133)" fill="none" stroke="#12263f" stroke-miterlimit="10" stroke-width="2"/>
        </g>
      </g>
      <path id="Trazado_762423" data-name="Trazado 762423" d="M2.582,101.893h0Z" transform="translate(1.434 56.595)" fill="#84d6e0"/>
      <g id="Grupo_1024344" data-name="Grupo 1024344">
        <g id="Grupo_1024343" data-name="Grupo 1024343" clip-path="url(#clip-path)">
          <line id="Línea_3325" data-name="Línea 3325" x1="6.144" transform="translate(4.016 158.488)" fill="none" stroke="#12263f" stroke-miterlimit="10" stroke-width="2"/>
        </g>
      </g>
      <path id="Trazado_762424" data-name="Trazado 762424" d="M2.582,127.641h0Z" transform="translate(1.434 70.896)" fill="#84d6e0"/>
      <g id="Grupo_1024346" data-name="Grupo 1024346">
        <g id="Grupo_1024345" data-name="Grupo 1024345" clip-path="url(#clip-path)">
          <line id="Línea_3326" data-name="Línea 3326" x1="6.144" transform="translate(4.016 198.535)" fill="none" stroke="#12263f" stroke-miterlimit="10" stroke-width="2"/>
        </g>
      </g>
      <path id="Trazado_762425" data-name="Trazado 762425" d="M2.582,152.842h0Z" transform="translate(1.434 84.893)" fill="#84d6e0"/>
      <g id="Grupo_1024348" data-name="Grupo 1024348">
        <g id="Grupo_1024347" data-name="Grupo 1024347" clip-path="url(#clip-path)">
          <line id="Línea_3327" data-name="Línea 3327" x1="6.144" transform="translate(4.016 237.736)" fill="none" stroke="#12263f" stroke-miterlimit="10" stroke-width="2"/>
        </g>
      </g>
      <path id="Trazado_762426" data-name="Trazado 762426" d="M48.988,184.189v0Z" transform="translate(27.209 98.892)" fill="#84d6e0"/>
      <line id="Línea_3328" data-name="Línea 3328" y1="6.144" transform="translate(76.198 276.937)" fill="none" stroke="#12263f" stroke-miterlimit="10" stroke-width="2"/>
      <path id="Trazado_762427" data-name="Trazado 762427" d="M91.388,184.189v0Z" transform="translate(50.76 98.892)" fill="#84d6e0"/>
      <line id="Línea_3329" data-name="Línea 3329" y1="6.144" transform="translate(142.148 276.937)" fill="none" stroke="#12263f" stroke-miterlimit="10" stroke-width="2"/>
      <path id="Trazado_762428" data-name="Trazado 762428" d="M133.365,184.189v0Z" transform="translate(74.075 98.892)" fill="#84d6e0"/>
      <line id="Línea_3330" data-name="Línea 3330" y1="6.144" transform="translate(207.439 276.937)" fill="none" stroke="#12263f" stroke-miterlimit="10" stroke-width="2"/>
      <path id="Trazado_762429" data-name="Trazado 762429" d="M175.529,184.189v0Z" transform="translate(97.494 98.892)" fill="#84d6e0"/>
      <line id="Línea_3331" data-name="Línea 3331" y1="6.144" transform="translate(273.023 276.937)" fill="none" stroke="#12263f" stroke-miterlimit="10" stroke-width="2"/>
      <path id="Trazado_762430" data-name="Trazado 762430" d="M217.694,184.189v0Z" transform="translate(120.914 98.892)" fill="#84d6e0"/>
      <line id="Línea_3332" data-name="Línea 3332" y1="6.144" transform="translate(338.608 276.937)" fill="none" stroke="#12263f" stroke-miterlimit="10" stroke-width="2"/>
      <path id="Trazado_762431" data-name="Trazado 762431" d="M260.047,184.189v0Z" transform="translate(144.438 98.892)" fill="#84d6e0"/>
      <line id="Línea_3333" data-name="Línea 3333" y1="6.144" transform="translate(404.484 276.937)" fill="none" stroke="#12263f" stroke-miterlimit="10" stroke-width="2"/>
      <path id="Trazado_762432" data-name="Trazado 762432" d="M302.023,184.189v0Z" transform="translate(167.753 98.892)" fill="#84d6e0"/>
      <line id="Línea_3334" data-name="Línea 3334" y1="6.144" transform="translate(469.776 276.937)" fill="none" stroke="#12263f" stroke-miterlimit="10" stroke-width="2"/>
      <path id="Trazado_762433" data-name="Trazado 762433" d="M344.752,184.189v0Z" transform="translate(191.486 98.892)" fill="#84d6e0"/>
      <line id="Línea_3335" data-name="Línea 3335" y1="6.144" transform="translate(536.238 276.937)" fill="none" stroke="#12263f" stroke-miterlimit="10" stroke-width="2"/>
      <path id="Trazado_762434" data-name="Trazado 762434" d="M386.728,184.189v0Z" transform="translate(214.801 98.892)" fill="#84d6e0"/>
      <line id="Línea_3336" data-name="Línea 3336" y1="6.144" transform="translate(601.53 276.937)" fill="none" stroke="#12263f" stroke-miterlimit="10" stroke-width="2"/>
      <path id="Trazado_762435" data-name="Trazado 762435" d="M428.67,184.189v0Z" transform="translate(238.097 98.892)" fill="#84d6e0"/>
      <g id="Grupo_1024350" data-name="Grupo 1024350">
        <g id="Grupo_1024349" data-name="Grupo 1024349" clip-path="url(#clip-path)">
          <line id="Línea_3337" data-name="Línea 3337" y1="6.144" transform="translate(666.766 276.937)" fill="none" stroke="#12263f" stroke-miterlimit="10" stroke-width="2"/>
        </g>
      </g>
      <path id="Trazado_762436" data-name="Trazado 762436" d="M2.582,1h0Z" transform="translate(1.434 0.555)" fill="#84d6e0"/>
      <g id="Grupo_1024352" data-name="Grupo 1024352">
        <g id="Grupo_1024351" data-name="Grupo 1024351" clip-path="url(#clip-path)">
          <line id="Línea_3338" data-name="Línea 3338" x1="7.695" transform="translate(4.017 1.555)" fill="none" stroke="#12263f" stroke-miterlimit="10" stroke-width="2"/>
          <path id="Trazado_762437" data-name="Trazado 762437" d="M17.616,20.764s-20.494,203.78,115.36,186.212S585.916,120.9,585.916,120.9" transform="translate(9.173 11.533)" fill="none" stroke="#57dbd8" stroke-miterlimit="10" stroke-width="3"/>
          <path id="Trazado_762438" data-name="Trazado 762438" d="M17.7,20.764s-22.252,195,115.36,215.2,447.67,21.958,447.67,21.958" transform="translate(9.092 11.533)" fill="none" stroke="#fe7062" stroke-miterlimit="10" stroke-width="3"/>
          <path id="Trazado_762439" data-name="Trazado 762439" d="M579.659,0,103.025,111.239,0,135.284" transform="translate(10.159 141.653)" fill="none" stroke="#1a0f91" stroke-width="3"/>
          <line id="Línea_3340" data-name="Línea 3340" y2="69.504" transform="translate(246.38 132.43)" fill="none" stroke="#57dbd8" stroke-miterlimit="10" stroke-width="2"/>
          <line id="Línea_3341" data-name="Línea 3341" y1="34.417" transform="translate(392.669 230.806)" fill="none" stroke="#fe7062" stroke-miterlimit="10" stroke-width="2"/>
          <line id="Línea_3342" data-name="Línea 3342" y2="32.006" transform="translate(525.608 156.639)" fill="none" stroke="#1a0f91" stroke-miterlimit="10" stroke-width="2"/>
          <line id="Línea_3343" data-name="Línea 3343" y1="24.154" transform="translate(138.781 269.455)" fill="#84d6e0"/>
          <line id="Línea_3344" data-name="Línea 3344" y1="24.154" transform="translate(138.781 269.455)" fill="none" stroke="#57dbd8" stroke-miterlimit="10" stroke-width="1"/>
          <line id="Línea_3345" data-name="Línea 3345" y1="50.945" transform="translate(138.781 218.509)" fill="#84d6e0"/>
          <line id="Línea_3346" data-name="Línea 3346" y1="3.111" transform="translate(138.781 266.344)" fill="none" stroke="#57dbd8" stroke-miterlimit="10" stroke-width="1"/>
          <line id="Línea_3347" data-name="Línea 3347" y1="35.14" transform="translate(138.781 224.814)" fill="none" stroke="#57dbd8" stroke-miterlimit="10" stroke-width="1" stroke-dasharray="4.108 4.108"/>
          <line id="Línea_3348" data-name="Línea 3348" y1="3.111" transform="translate(138.781 218.51)" fill="none" stroke="#57dbd8" stroke-miterlimit="10" stroke-width="1"/>
          <line id="Línea_3349" data-name="Línea 3349" x1="129.119" transform="translate(-0.001 219.583)" fill="#84d6e0"/>
          <line id="Línea_3350" data-name="Línea 3350" x1="138.563" transform="translate(0 219.583)" fill="none" stroke="#57dbd8" stroke-miterlimit="10" stroke-width="1"/>
        </g>
      </g>
    </g>
    <path id="Trazado_762516" data-name="Trazado 762516" d="M8.381-8.292H5.332V0H3.281V-8.292H.273V-9.953H8.381ZM12.558,0a2.194,2.194,0,0,1-.2-.663,2.39,2.39,0,0,1-1.866.8,2.626,2.626,0,0,1-1.8-.629,2.023,2.023,0,0,1-.714-1.586,2.09,2.09,0,0,1,.872-1.8,4.3,4.3,0,0,1,2.519-.636h.909v-.424a1.219,1.219,0,0,0-.263-.82,1.035,1.035,0,0,0-.831-.308,1.177,1.177,0,0,0-.783.239.813.813,0,0,0-.284.656H8.142a1.984,1.984,0,0,1,.4-1.189,2.621,2.621,0,0,1,1.121-.858,4.086,4.086,0,0,1,1.627-.311,3.228,3.228,0,0,1,2.17.687,2.4,2.4,0,0,1,.8,1.931v3.206a3.536,3.536,0,0,0,.294,1.593V0ZM10.924-1.374a1.7,1.7,0,0,0,.807-.195,1.28,1.28,0,0,0,.547-.523V-3.363h-.738q-1.483,0-1.579,1.025l-.007.116a.791.791,0,0,0,.26.608A1.009,1.009,0,0,0,10.924-1.374ZM17.63-7.4l.062.827a2.6,2.6,0,0,1,2.126-.964,1.973,1.973,0,0,1,1.962,1.128A2.54,2.54,0,0,1,24-7.533a2.206,2.206,0,0,1,1.791.7,3.221,3.221,0,0,1,.588,2.109V0H24.4V-4.717a1.408,1.408,0,0,0-.246-.919,1.091,1.091,0,0,0-.868-.291,1.233,1.233,0,0,0-1.23.848L22.06,0H20.084V-4.71a1.391,1.391,0,0,0-.253-.93,1.1,1.1,0,0,0-.861-.287,1.28,1.28,0,0,0-1.217.7V0H15.777V-7.4ZM32.184,0a2.194,2.194,0,0,1-.2-.663,2.39,2.39,0,0,1-1.866.8,2.626,2.626,0,0,1-1.8-.629A2.023,2.023,0,0,1,27.6-2.078a2.09,2.09,0,0,1,.872-1.8,4.3,4.3,0,0,1,2.519-.636H31.9v-.424a1.219,1.219,0,0,0-.263-.82,1.035,1.035,0,0,0-.831-.308,1.177,1.177,0,0,0-.783.239.813.813,0,0,0-.284.656H27.768a1.984,1.984,0,0,1,.4-1.189,2.621,2.621,0,0,1,1.121-.858,4.086,4.086,0,0,1,1.627-.311,3.228,3.228,0,0,1,2.17.687,2.4,2.4,0,0,1,.8,1.931v3.206A3.536,3.536,0,0,0,34.18-.116V0ZM30.55-1.374a1.7,1.7,0,0,0,.807-.195,1.28,1.28,0,0,0,.547-.523V-3.363h-.738q-1.483,0-1.579,1.025l-.007.116a.791.791,0,0,0,.26.608A1.009,1.009,0,0,0,30.55-1.374ZM37.222-7.4l.062.854a2.582,2.582,0,0,1,2.126-.991,2.146,2.146,0,0,1,1.75.69,3.221,3.221,0,0,1,.588,2.064V0H39.771V-4.73a1.282,1.282,0,0,0-.273-.913,1.224,1.224,0,0,0-.909-.284,1.359,1.359,0,0,0-1.251.711V0H35.362V-7.4Zm3.924-3.015a1.913,1.913,0,0,1-.451,1.3,1.4,1.4,0,0,1-1.1.523,1.669,1.669,0,0,1-.461-.058,3.1,3.1,0,0,1-.557-.25,3.005,3.005,0,0,0-.513-.236,1.253,1.253,0,0,0-.342-.044.548.548,0,0,0-.407.171.664.664,0,0,0-.167.485L36-8.593a1.942,1.942,0,0,1,.448-1.292,1.381,1.381,0,0,1,1.1-.533,1.412,1.412,0,0,1,.386.051,4.253,4.253,0,0,1,.591.25,3.843,3.843,0,0,0,.567.239,1.3,1.3,0,0,0,.328.041A.577.577,0,0,0,39.83-10,.637.637,0,0,0,40-10.486Zm1.791,6.645a4.387,4.387,0,0,1,.424-1.962,3.1,3.1,0,0,1,1.22-1.333,3.56,3.56,0,0,1,1.849-.472,3.368,3.368,0,0,1,2.444.916A3.676,3.676,0,0,1,49.93-4.129l.014.506a3.866,3.866,0,0,1-.95,2.731A3.3,3.3,0,0,1,46.443.137,3.319,3.319,0,0,1,43.89-.889a3.934,3.934,0,0,1-.954-2.789Zm1.976.14a2.765,2.765,0,0,0,.4,1.612,1.308,1.308,0,0,0,1.135.558,1.311,1.311,0,0,0,1.121-.551,3.025,3.025,0,0,0,.4-1.763,2.737,2.737,0,0,0-.4-1.6A1.311,1.311,0,0,0,46.43-5.94a1.29,1.29,0,0,0-1.121.565A3.076,3.076,0,0,0,44.912-3.626Zm9.427-.127a4.457,4.457,0,0,1,.776-2.755,2.517,2.517,0,0,1,2.123-1.025,2.265,2.265,0,0,1,1.784.807V-10.5H61V0H59.22l-.1-.786a2.325,2.325,0,0,1-1.9.923,2.511,2.511,0,0,1-2.1-1.029A4.6,4.6,0,0,1,54.339-3.753Zm1.976.147a2.92,2.92,0,0,0,.362,1.6,1.18,1.18,0,0,0,1.053.555,1.322,1.322,0,0,0,1.292-.774V-5.153a1.3,1.3,0,0,0-1.278-.774Q56.314-5.927,56.314-3.606ZM65.939.137a3.631,3.631,0,0,1-2.649-1,3.548,3.548,0,0,1-1.022-2.659v-.191A4.468,4.468,0,0,1,62.7-5.7a3.161,3.161,0,0,1,1.22-1.354,3.425,3.425,0,0,1,1.8-.475,3.07,3.07,0,0,1,2.389.957,3.889,3.889,0,0,1,.872,2.714v.807h-4.71a1.835,1.835,0,0,0,.578,1.162,1.746,1.746,0,0,0,1.22.438,2.132,2.132,0,0,0,1.784-.827L68.824-1.2a2.966,2.966,0,0,1-1.2.981A3.947,3.947,0,0,1,65.939.137ZM65.714-5.94a1.234,1.234,0,0,0-.954.4,2.062,2.062,0,0,0-.468,1.14H67.04V-4.56a1.471,1.471,0,0,0-.355-1.02A1.274,1.274,0,0,0,65.714-5.94ZM72.188,0H70.205V-10.5h1.982Zm7.2,0H77.4V-10.5h1.982Zm1.319-3.767a4.387,4.387,0,0,1,.424-1.962,3.1,3.1,0,0,1,1.22-1.333A3.56,3.56,0,0,1,84.2-7.533a3.368,3.368,0,0,1,2.444.916A3.676,3.676,0,0,1,87.7-4.129l.014.506a3.866,3.866,0,0,1-.95,2.731A3.3,3.3,0,0,1,84.212.137,3.319,3.319,0,0,1,81.659-.889a3.934,3.934,0,0,1-.954-2.789Zm1.976.14a2.765,2.765,0,0,0,.4,1.612,1.308,1.308,0,0,0,1.135.558,1.311,1.311,0,0,0,1.121-.551,3.025,3.025,0,0,0,.4-1.763,2.737,2.737,0,0,0-.4-1.6A1.311,1.311,0,0,0,84.2-5.94a1.29,1.29,0,0,0-1.121.565A3.076,3.076,0,0,0,82.681-3.626Zm8.613-5.588V-7.4h1.265v1.449H91.294v3.691a.881.881,0,0,0,.157.588.79.79,0,0,0,.6.178,3.15,3.15,0,0,0,.581-.048v1.5a4.067,4.067,0,0,1-1.2.178,1.886,1.886,0,0,1-2.119-2.1V-5.947h-1.08V-7.4h1.08V-9.215ZM97.063.137a3.631,3.631,0,0,1-2.649-1,3.548,3.548,0,0,1-1.022-2.659v-.191A4.468,4.468,0,0,1,93.823-5.7a3.161,3.161,0,0,1,1.22-1.354,3.425,3.425,0,0,1,1.8-.475,3.07,3.07,0,0,1,2.389.957,3.889,3.889,0,0,1,.872,2.714v.807H95.4a1.835,1.835,0,0,0,.578,1.162,1.746,1.746,0,0,0,1.22.438,2.132,2.132,0,0,0,1.784-.827L99.948-1.2a2.966,2.966,0,0,1-1.2.981A3.947,3.947,0,0,1,97.063.137ZM96.838-5.94a1.234,1.234,0,0,0-.954.4,2.062,2.062,0,0,0-.468,1.14h2.748V-4.56a1.471,1.471,0,0,0-.355-1.02A1.274,1.274,0,0,0,96.838-5.94ZM104.8-4.047a10.491,10.491,0,0,1,.417-2.98,7.865,7.865,0,0,1,1.23-2.505,4.6,4.6,0,0,1,1.764-1.514L108.6-9.98A4.758,4.758,0,0,0,107.037-7.7a10.572,10.572,0,0,0-.561,3.609v.212a10.774,10.774,0,0,0,.554,3.623A4.851,4.851,0,0,0,108.6,2.064l-.383,1.046a4.6,4.6,0,0,1-1.733-1.473A7.734,7.734,0,0,1,105.253-.8a10.428,10.428,0,0,1-.451-2.885Zm13.118-.7a6,6,0,0,1-.451,2.423,4.16,4.16,0,0,1-1.251,1.651l1.654,1.3-1.306,1.155-2.119-1.7a4.486,4.486,0,0,1-.752.062,4.141,4.141,0,0,1-2.208-.595,3.951,3.951,0,0,1-1.5-1.7,5.836,5.836,0,0,1-.54-2.54v-.492a5.977,5.977,0,0,1,.53-2.587,3.945,3.945,0,0,1,1.5-1.716,4.118,4.118,0,0,1,2.211-.6,4.118,4.118,0,0,1,2.211.6,3.945,3.945,0,0,1,1.5,1.716,5.96,5.96,0,0,1,.53,2.581ZM115.842-5.2a4.188,4.188,0,0,0-.561-2.379,1.827,1.827,0,0,0-1.6-.813,1.827,1.827,0,0,0-1.593.8,4.141,4.141,0,0,0-.567,2.355v.485a4.241,4.241,0,0,0,.561,2.365,1.822,1.822,0,0,0,1.613.841,1.806,1.806,0,0,0,1.586-.81,4.216,4.216,0,0,0,.561-2.362ZM122.7-3.89a9.955,9.955,0,0,1-.444,2.974,8.072,8.072,0,0,1-1.278,2.522,4.606,4.606,0,0,1-1.784,1.5l-.383-1.046A4.807,4.807,0,0,0,120.34-.191a10.446,10.446,0,0,0,.581-3.507v-.362a10.682,10.682,0,0,0-.557-3.6A5.011,5.011,0,0,0,118.809-10l.383-1.046a4.607,4.607,0,0,1,1.753,1.463,7.968,7.968,0,0,1,1.278,2.468A9.884,9.884,0,0,1,122.7-4.2Z" transform="translate(1262 8353)" fill="#12263f"/>
    <path id="Trazado_762519" data-name="Trazado 762519" d="M8.7-3.315A3.522,3.522,0,0,1,7.516-.786,4.165,4.165,0,0,1,4.7.137,3.745,3.745,0,0,1,1.685-1.152a5.284,5.284,0,0,1-1.1-3.538V-5.3a5.966,5.966,0,0,1,.506-2.529A3.791,3.791,0,0,1,2.54-9.505a4.05,4.05,0,0,1,2.184-.584A4.058,4.058,0,0,1,7.5-9.167,3.785,3.785,0,0,1,8.716-6.576H6.665a2.079,2.079,0,0,0-.537-1.4,1.987,1.987,0,0,0-1.4-.434,1.742,1.742,0,0,0-1.535.735,4.118,4.118,0,0,0-.523,2.28v.752a4.408,4.408,0,0,0,.489,2.358A1.71,1.71,0,0,0,4.7-1.538a2.025,2.025,0,0,0,1.418-.434,1.961,1.961,0,0,0,.537-1.343Zm.909-.451a4.387,4.387,0,0,1,.424-1.962,3.1,3.1,0,0,1,1.22-1.333A3.56,3.56,0,0,1,13.1-7.533a3.368,3.368,0,0,1,2.444.916A3.676,3.676,0,0,1,16.6-4.129l.014.506a3.866,3.866,0,0,1-.95,2.731A3.3,3.3,0,0,1,13.118.137,3.319,3.319,0,0,1,10.565-.889a3.934,3.934,0,0,1-.954-2.789Zm1.976.14a2.765,2.765,0,0,0,.4,1.612,1.308,1.308,0,0,0,1.135.558,1.311,1.311,0,0,0,1.121-.551,3.025,3.025,0,0,0,.4-1.763,2.737,2.737,0,0,0-.4-1.6A1.311,1.311,0,0,0,13.1-5.94a1.29,1.29,0,0,0-1.121.565A3.076,3.076,0,0,0,11.587-3.626ZM21.841-2.044a.637.637,0,0,0-.359-.571,4.077,4.077,0,0,0-1.152-.373q-2.639-.554-2.639-2.242a2.032,2.032,0,0,1,.817-1.644,3.3,3.3,0,0,1,2.136-.66A3.547,3.547,0,0,1,22.9-6.87a2.09,2.09,0,0,1,.844,1.723H21.766a.956.956,0,0,0-.273-.7,1.157,1.157,0,0,0-.854-.277,1.182,1.182,0,0,0-.772.226.712.712,0,0,0-.273.574.609.609,0,0,0,.311.53,3.2,3.2,0,0,0,1.049.349,8.571,8.571,0,0,1,1.244.332,2.044,2.044,0,0,1,1.565,1.989,1.929,1.929,0,0,1-.868,1.637,3.745,3.745,0,0,1-2.242.625A3.912,3.912,0,0,1,19-.195,2.77,2.77,0,0,1,17.869-1.1a2.113,2.113,0,0,1-.41-1.248h1.873a1.031,1.031,0,0,0,.39.807,1.546,1.546,0,0,0,.971.28,1.43,1.43,0,0,0,.858-.215A.67.67,0,0,0,21.841-2.044ZM27.4-9.215V-7.4h1.265v1.449H27.4v3.691a.881.881,0,0,0,.157.588.79.79,0,0,0,.6.178,3.151,3.151,0,0,0,.581-.048v1.5a4.067,4.067,0,0,1-1.2.178,1.886,1.886,0,0,1-2.119-2.1V-5.947h-1.08V-7.4h1.08V-9.215Zm1.853,5.448a4.387,4.387,0,0,1,.424-1.962A3.1,3.1,0,0,1,30.9-7.062a3.56,3.56,0,0,1,1.849-.472,3.368,3.368,0,0,1,2.444.916,3.676,3.676,0,0,1,1.056,2.488l.014.506a3.866,3.866,0,0,1-.95,2.731A3.3,3.3,0,0,1,32.758.137,3.319,3.319,0,0,1,30.2-.889a3.934,3.934,0,0,1-.954-2.789Zm1.976.14a2.765,2.765,0,0,0,.4,1.612,1.308,1.308,0,0,0,1.135.558,1.311,1.311,0,0,0,1.121-.551,3.025,3.025,0,0,0,.4-1.763,2.737,2.737,0,0,0-.4-1.6,1.311,1.311,0,0,0-1.135-.568,1.29,1.29,0,0,0-1.121.565A3.076,3.076,0,0,0,31.227-3.626Zm12.1-5.588V-7.4h1.265v1.449H43.326v3.691a.881.881,0,0,0,.157.588.79.79,0,0,0,.6.178,3.151,3.151,0,0,0,.581-.048v1.5a4.067,4.067,0,0,1-1.2.178,1.886,1.886,0,0,1-2.119-2.1V-5.947h-1.08V-7.4h1.08V-9.215Zm1.853,5.448A4.387,4.387,0,0,1,45.6-5.729a3.1,3.1,0,0,1,1.22-1.333,3.56,3.56,0,0,1,1.849-.472,3.368,3.368,0,0,1,2.444.916,3.676,3.676,0,0,1,1.056,2.488l.014.506a3.866,3.866,0,0,1-.95,2.731A3.3,3.3,0,0,1,48.686.137,3.319,3.319,0,0,1,46.132-.889a3.934,3.934,0,0,1-.954-2.789Zm1.976.14a2.765,2.765,0,0,0,.4,1.612,1.308,1.308,0,0,0,1.135.558,1.311,1.311,0,0,0,1.121-.551,3.025,3.025,0,0,0,.4-1.763,2.737,2.737,0,0,0-.4-1.6,1.311,1.311,0,0,0-1.135-.568,1.29,1.29,0,0,0-1.121.565A3.076,3.076,0,0,0,47.154-3.626Zm8.613-5.588V-7.4h1.265v1.449H55.768v3.691a.881.881,0,0,0,.157.588.79.79,0,0,0,.6.178,3.151,3.151,0,0,0,.581-.048v1.5a4.067,4.067,0,0,1-1.2.178,1.886,1.886,0,0,1-2.119-2.1V-5.947h-1.08V-7.4h1.08V-9.215ZM62.419,0a2.194,2.194,0,0,1-.2-.663,2.39,2.39,0,0,1-1.866.8,2.626,2.626,0,0,1-1.8-.629,2.023,2.023,0,0,1-.714-1.586,2.09,2.09,0,0,1,.872-1.8,4.3,4.3,0,0,1,2.519-.636h.909v-.424a1.219,1.219,0,0,0-.263-.82,1.035,1.035,0,0,0-.831-.308,1.177,1.177,0,0,0-.783.239.813.813,0,0,0-.284.656H58a1.984,1.984,0,0,1,.4-1.189,2.621,2.621,0,0,1,1.121-.858,4.086,4.086,0,0,1,1.627-.311,3.228,3.228,0,0,1,2.17.687,2.4,2.4,0,0,1,.8,1.931v3.206a3.536,3.536,0,0,0,.294,1.593V0ZM60.785-1.374a1.7,1.7,0,0,0,.807-.195,1.28,1.28,0,0,0,.547-.523V-3.363H61.4q-1.483,0-1.579,1.025l-.007.116a.791.791,0,0,0,.26.608A1.009,1.009,0,0,0,60.785-1.374ZM67.724,0H65.741V-10.5h1.982Z" transform="translate(947 8167)" fill="#12263f"/>
    <path id="Trazado_762522" data-name="Trazado 762522" d="M8.7-3.315A3.522,3.522,0,0,1,7.516-.786,4.165,4.165,0,0,1,4.7.137,3.745,3.745,0,0,1,1.685-1.152a5.284,5.284,0,0,1-1.1-3.538V-5.3a5.966,5.966,0,0,1,.506-2.529A3.791,3.791,0,0,1,2.54-9.505a4.05,4.05,0,0,1,2.184-.584A4.058,4.058,0,0,1,7.5-9.167,3.785,3.785,0,0,1,8.716-6.576H6.665a2.079,2.079,0,0,0-.537-1.4,1.987,1.987,0,0,0-1.4-.434,1.742,1.742,0,0,0-1.535.735,4.118,4.118,0,0,0-.523,2.28v.752a4.408,4.408,0,0,0,.489,2.358A1.71,1.71,0,0,0,4.7-1.538a2.025,2.025,0,0,0,1.418-.434,1.961,1.961,0,0,0,.537-1.343Zm.909-.451a4.387,4.387,0,0,1,.424-1.962,3.1,3.1,0,0,1,1.22-1.333A3.56,3.56,0,0,1,13.1-7.533a3.368,3.368,0,0,1,2.444.916A3.676,3.676,0,0,1,16.6-4.129l.014.506a3.866,3.866,0,0,1-.95,2.731A3.3,3.3,0,0,1,13.118.137,3.319,3.319,0,0,1,10.565-.889a3.934,3.934,0,0,1-.954-2.789Zm1.976.14a2.765,2.765,0,0,0,.4,1.612,1.308,1.308,0,0,0,1.135.558,1.311,1.311,0,0,0,1.121-.551,3.025,3.025,0,0,0,.4-1.763,2.737,2.737,0,0,0-.4-1.6A1.311,1.311,0,0,0,13.1-5.94a1.29,1.29,0,0,0-1.121.565A3.076,3.076,0,0,0,11.587-3.626ZM21.841-2.044a.637.637,0,0,0-.359-.571,4.077,4.077,0,0,0-1.152-.373q-2.639-.554-2.639-2.242a2.032,2.032,0,0,1,.817-1.644,3.3,3.3,0,0,1,2.136-.66A3.547,3.547,0,0,1,22.9-6.87a2.09,2.09,0,0,1,.844,1.723H21.766a.956.956,0,0,0-.273-.7,1.157,1.157,0,0,0-.854-.277,1.182,1.182,0,0,0-.772.226.712.712,0,0,0-.273.574.609.609,0,0,0,.311.53,3.2,3.2,0,0,0,1.049.349,8.571,8.571,0,0,1,1.244.332,2.044,2.044,0,0,1,1.565,1.989,1.929,1.929,0,0,1-.868,1.637,3.745,3.745,0,0,1-2.242.625A3.912,3.912,0,0,1,19-.195,2.77,2.77,0,0,1,17.869-1.1a2.113,2.113,0,0,1-.41-1.248h1.873a1.031,1.031,0,0,0,.39.807,1.546,1.546,0,0,0,.971.28,1.43,1.43,0,0,0,.858-.215A.67.67,0,0,0,21.841-2.044ZM27.4-9.215V-7.4h1.265v1.449H27.4v3.691a.881.881,0,0,0,.157.588.79.79,0,0,0,.6.178,3.151,3.151,0,0,0,.581-.048v1.5a4.067,4.067,0,0,1-1.2.178,1.886,1.886,0,0,1-2.119-2.1V-5.947h-1.08V-7.4h1.08V-9.215Zm1.853,5.448a4.387,4.387,0,0,1,.424-1.962A3.1,3.1,0,0,1,30.9-7.062a3.56,3.56,0,0,1,1.849-.472,3.368,3.368,0,0,1,2.444.916,3.676,3.676,0,0,1,1.056,2.488l.014.506a3.866,3.866,0,0,1-.95,2.731A3.3,3.3,0,0,1,32.758.137,3.319,3.319,0,0,1,30.2-.889a3.934,3.934,0,0,1-.954-2.789Zm1.976.14a2.765,2.765,0,0,0,.4,1.612,1.308,1.308,0,0,0,1.135.558,1.311,1.311,0,0,0,1.121-.551,3.025,3.025,0,0,0,.4-1.763,2.737,2.737,0,0,0-.4-1.6,1.311,1.311,0,0,0-1.135-.568,1.29,1.29,0,0,0-1.121.565A3.076,3.076,0,0,0,31.227-3.626ZM45.247,0a2.194,2.194,0,0,1-.2-.663,2.39,2.39,0,0,1-1.866.8,2.626,2.626,0,0,1-1.8-.629,2.023,2.023,0,0,1-.714-1.586,2.09,2.09,0,0,1,.872-1.8,4.3,4.3,0,0,1,2.519-.636h.909v-.424a1.219,1.219,0,0,0-.263-.82,1.035,1.035,0,0,0-.831-.308,1.177,1.177,0,0,0-.783.239.813.813,0,0,0-.284.656H40.831a1.984,1.984,0,0,1,.4-1.189,2.621,2.621,0,0,1,1.121-.858,4.086,4.086,0,0,1,1.627-.311,3.228,3.228,0,0,1,2.17.687,2.4,2.4,0,0,1,.8,1.931v3.206a3.536,3.536,0,0,0,.294,1.593V0ZM43.613-1.374a1.7,1.7,0,0,0,.807-.195,1.28,1.28,0,0,0,.547-.523V-3.363h-.738q-1.483,0-1.579,1.025l-.007.116a.791.791,0,0,0,.26.608A1.009,1.009,0,0,0,43.613-1.374ZM50.285-7.4l.062.854a2.582,2.582,0,0,1,2.126-.991,2.146,2.146,0,0,1,1.75.69,3.221,3.221,0,0,1,.588,2.064V0H52.835V-4.73a1.282,1.282,0,0,0-.273-.913,1.224,1.224,0,0,0-.909-.284,1.359,1.359,0,0,0-1.251.711V0H48.426V-7.4ZM60.737-.752a2.477,2.477,0,0,1-2.023.889A2.337,2.337,0,0,1,56.9-.547a2.918,2.918,0,0,1-.639-2V-7.4h1.976v4.784q0,1.157,1.053,1.157a1.426,1.426,0,0,0,1.381-.7V-7.4h1.982V0H60.792ZM68.428,0a2.194,2.194,0,0,1-.2-.663,2.39,2.39,0,0,1-1.866.8,2.626,2.626,0,0,1-1.8-.629,2.023,2.023,0,0,1-.714-1.586,2.09,2.09,0,0,1,.872-1.8,4.3,4.3,0,0,1,2.519-.636h.909v-.424a1.219,1.219,0,0,0-.263-.82,1.035,1.035,0,0,0-.831-.308,1.177,1.177,0,0,0-.783.239.813.813,0,0,0-.284.656H64.012a1.985,1.985,0,0,1,.4-1.189,2.621,2.621,0,0,1,1.121-.858,4.086,4.086,0,0,1,1.627-.311,3.228,3.228,0,0,1,2.17.687,2.4,2.4,0,0,1,.8,1.931v3.206a3.536,3.536,0,0,0,.294,1.593V0ZM66.794-1.374a1.7,1.7,0,0,0,.807-.195,1.28,1.28,0,0,0,.547-.523V-3.363h-.738q-1.483,0-1.579,1.025l-.007.116a.791.791,0,0,0,.26.608A1.009,1.009,0,0,0,66.794-1.374ZM73.732,0H71.75V-10.5h1.982Zm5.2-4.047a10.491,10.491,0,0,1,.417-2.98,7.865,7.865,0,0,1,1.23-2.505,4.6,4.6,0,0,1,1.764-1.514l.383,1.066A4.758,4.758,0,0,0,81.17-7.7a10.572,10.572,0,0,0-.561,3.609v.212a10.774,10.774,0,0,0,.554,3.623,4.851,4.851,0,0,0,1.565,2.317L82.346,3.11a4.6,4.6,0,0,1-1.733-1.473A7.734,7.734,0,0,1,79.386-.8a10.428,10.428,0,0,1-.451-2.885ZM91.383-8.292H88.334V0H86.283V-8.292H83.275V-9.953h8.107Zm4.854,4.648H94.6V0H92.552V-9.953h3.7a4.181,4.181,0,0,1,2.721.786,2.713,2.713,0,0,1,.957,2.222,3.062,3.062,0,0,1-.441,1.7A3.007,3.007,0,0,1,98.15-4.163L100.3-.1V0H98.1ZM94.6-5.3h1.654a1.694,1.694,0,0,0,1.2-.393,1.4,1.4,0,0,0,.424-1.083,1.5,1.5,0,0,0-.4-1.107,1.662,1.662,0,0,0-1.227-.4H94.6Zm14.7,1.989a3.522,3.522,0,0,1-1.186,2.529,4.165,4.165,0,0,1-2.82.923,3.745,3.745,0,0,1-3.011-1.289,5.284,5.284,0,0,1-1.1-3.538V-5.3a5.966,5.966,0,0,1,.506-2.529,3.791,3.791,0,0,1,1.446-1.678,4.05,4.05,0,0,1,2.184-.584,4.058,4.058,0,0,1,2.775.923,3.785,3.785,0,0,1,1.217,2.591h-2.051a2.079,2.079,0,0,0-.537-1.4,1.987,1.987,0,0,0-1.4-.434,1.742,1.742,0,0,0-1.535.735,4.118,4.118,0,0,0-.523,2.28v.752a4.408,4.408,0,0,0,.489,2.358,1.71,1.71,0,0,0,1.542.745,2.025,2.025,0,0,0,1.418-.434,1.961,1.961,0,0,0,.537-1.343Zm4.443-.574A9.955,9.955,0,0,1,113.3-.916a8.072,8.072,0,0,1-1.278,2.522,4.606,4.606,0,0,1-1.784,1.5l-.383-1.046a4.807,4.807,0,0,0,1.531-2.256,10.446,10.446,0,0,0,.581-3.507v-.362a10.682,10.682,0,0,0-.557-3.6A5.011,5.011,0,0,0,109.854-10l.383-1.046a4.607,4.607,0,0,1,1.753,1.463,7.968,7.968,0,0,1,1.278,2.468,9.884,9.884,0,0,1,.475,2.919Z" transform="translate(720 8157) rotate(-90)" fill="#12263f"/>
    <path id="Trazado_762517" data-name="Trazado 762517" d="M8.7-3.315A3.522,3.522,0,0,1,7.516-.786,4.165,4.165,0,0,1,4.7.137,3.745,3.745,0,0,1,1.685-1.152a5.284,5.284,0,0,1-1.1-3.538V-5.3a5.966,5.966,0,0,1,.506-2.529A3.791,3.791,0,0,1,2.54-9.505a4.05,4.05,0,0,1,2.184-.584A4.058,4.058,0,0,1,7.5-9.167,3.785,3.785,0,0,1,8.716-6.576H6.665a2.079,2.079,0,0,0-.537-1.4,1.987,1.987,0,0,0-1.4-.434,1.742,1.742,0,0,0-1.535.735,4.118,4.118,0,0,0-.523,2.28v.752a4.408,4.408,0,0,0,.489,2.358A1.71,1.71,0,0,0,4.7-1.538a2.025,2.025,0,0,0,1.418-.434,1.961,1.961,0,0,0,.537-1.343Zm.909-.451a4.387,4.387,0,0,1,.424-1.962,3.1,3.1,0,0,1,1.22-1.333A3.56,3.56,0,0,1,13.1-7.533a3.368,3.368,0,0,1,2.444.916A3.676,3.676,0,0,1,16.6-4.129l.014.506a3.866,3.866,0,0,1-.95,2.731A3.3,3.3,0,0,1,13.118.137,3.319,3.319,0,0,1,10.565-.889a3.934,3.934,0,0,1-.954-2.789Zm1.976.14a2.765,2.765,0,0,0,.4,1.612,1.308,1.308,0,0,0,1.135.558,1.311,1.311,0,0,0,1.121-.551,3.025,3.025,0,0,0,.4-1.763,2.737,2.737,0,0,0-.4-1.6A1.311,1.311,0,0,0,13.1-5.94a1.29,1.29,0,0,0-1.121.565A3.076,3.076,0,0,0,11.587-3.626ZM21.841-2.044a.637.637,0,0,0-.359-.571,4.077,4.077,0,0,0-1.152-.373q-2.639-.554-2.639-2.242a2.032,2.032,0,0,1,.817-1.644,3.3,3.3,0,0,1,2.136-.66A3.547,3.547,0,0,1,22.9-6.87a2.09,2.09,0,0,1,.844,1.723H21.766a.956.956,0,0,0-.273-.7,1.157,1.157,0,0,0-.854-.277,1.182,1.182,0,0,0-.772.226.712.712,0,0,0-.273.574.609.609,0,0,0,.311.53,3.2,3.2,0,0,0,1.049.349,8.571,8.571,0,0,1,1.244.332,2.044,2.044,0,0,1,1.565,1.989,1.929,1.929,0,0,1-.868,1.637,3.745,3.745,0,0,1-2.242.625A3.912,3.912,0,0,1,19-.195,2.77,2.77,0,0,1,17.869-1.1a2.113,2.113,0,0,1-.41-1.248h1.873a1.031,1.031,0,0,0,.39.807,1.546,1.546,0,0,0,.971.28,1.43,1.43,0,0,0,.858-.215A.67.67,0,0,0,21.841-2.044ZM27.4-9.215V-7.4h1.265v1.449H27.4v3.691a.881.881,0,0,0,.157.588.79.79,0,0,0,.6.178,3.151,3.151,0,0,0,.581-.048v1.5a4.067,4.067,0,0,1-1.2.178,1.886,1.886,0,0,1-2.119-2.1V-5.947h-1.08V-7.4h1.08V-9.215Zm1.853,5.448a4.387,4.387,0,0,1,.424-1.962A3.1,3.1,0,0,1,30.9-7.062a3.56,3.56,0,0,1,1.849-.472,3.368,3.368,0,0,1,2.444.916,3.676,3.676,0,0,1,1.056,2.488l.014.506a3.866,3.866,0,0,1-.95,2.731A3.3,3.3,0,0,1,32.758.137,3.319,3.319,0,0,1,30.2-.889a3.934,3.934,0,0,1-.954-2.789Zm1.976.14a2.765,2.765,0,0,0,.4,1.612,1.308,1.308,0,0,0,1.135.558,1.311,1.311,0,0,0,1.121-.551,3.025,3.025,0,0,0,.4-1.763,2.737,2.737,0,0,0-.4-1.6,1.311,1.311,0,0,0-1.135-.568,1.29,1.29,0,0,0-1.121.565A3.076,3.076,0,0,0,31.227-3.626Zm9.427-.127a4.457,4.457,0,0,1,.776-2.755,2.517,2.517,0,0,1,2.123-1.025,2.265,2.265,0,0,1,1.784.807V-10.5h1.982V0H45.534l-.1-.786a2.325,2.325,0,0,1-1.9.923,2.511,2.511,0,0,1-2.1-1.029A4.6,4.6,0,0,1,40.653-3.753Zm1.976.147a2.92,2.92,0,0,0,.362,1.6,1.18,1.18,0,0,0,1.053.555,1.322,1.322,0,0,0,1.292-.774V-5.153a1.3,1.3,0,0,0-1.278-.774Q42.629-5.927,42.629-3.606ZM52.254.137a3.631,3.631,0,0,1-2.649-1,3.548,3.548,0,0,1-1.022-2.659v-.191A4.468,4.468,0,0,1,49.014-5.7a3.161,3.161,0,0,1,1.22-1.354,3.425,3.425,0,0,1,1.8-.475,3.07,3.07,0,0,1,2.389.957A3.889,3.889,0,0,1,55.3-3.862v.807h-4.71a1.835,1.835,0,0,0,.578,1.162,1.746,1.746,0,0,0,1.22.438,2.132,2.132,0,0,0,1.784-.827L55.139-1.2a2.966,2.966,0,0,1-1.2.981A3.947,3.947,0,0,1,52.254.137ZM52.028-5.94a1.234,1.234,0,0,0-.954.4,2.062,2.062,0,0,0-.468,1.14h2.748V-4.56A1.471,1.471,0,0,0,53-5.58,1.274,1.274,0,0,0,52.028-5.94ZM61.988,0H60.006V-7.4h1.982Zm-2.1-9.311a.973.973,0,0,1,.3-.731,1.117,1.117,0,0,1,.81-.287,1.12,1.12,0,0,1,.807.287.967.967,0,0,1,.3.731.97.97,0,0,1-.3.738,1.122,1.122,0,0,1-.8.287,1.122,1.122,0,0,1-.8-.287A.97.97,0,0,1,59.89-9.311ZM65.434-7.4l.062.854a2.582,2.582,0,0,1,2.126-.991,2.146,2.146,0,0,1,1.75.69,3.221,3.221,0,0,1,.588,2.064V0H67.983V-4.73a1.282,1.282,0,0,0-.273-.913,1.224,1.224,0,0,0-.909-.284,1.359,1.359,0,0,0-1.251.711V0H63.574V-7.4Zm8.791,4.983L75.6-7.4h2.064L75.168,0H73.281l-2.5-7.4h2.064ZM81.847.137a3.631,3.631,0,0,1-2.649-1,3.548,3.548,0,0,1-1.022-2.659v-.191A4.468,4.468,0,0,1,78.606-5.7a3.161,3.161,0,0,1,1.22-1.354,3.425,3.425,0,0,1,1.8-.475,3.07,3.07,0,0,1,2.389.957,3.889,3.889,0,0,1,.872,2.714v.807h-4.71a1.835,1.835,0,0,0,.578,1.162,1.746,1.746,0,0,0,1.22.438,2.132,2.132,0,0,0,1.784-.827L84.731-1.2a2.966,2.966,0,0,1-1.2.981A3.947,3.947,0,0,1,81.847.137ZM81.621-5.94a1.234,1.234,0,0,0-.954.4A2.062,2.062,0,0,0,80.2-4.4h2.748V-4.56a1.471,1.471,0,0,0-.355-1.02A1.274,1.274,0,0,0,81.621-5.94ZM87.828-7.4l.062.854a2.582,2.582,0,0,1,2.126-.991,2.146,2.146,0,0,1,1.75.69,3.221,3.221,0,0,1,.588,2.064V0H90.378V-4.73a1.282,1.282,0,0,0-.273-.913,1.224,1.224,0,0,0-.909-.284,1.359,1.359,0,0,0-1.251.711V0H85.969V-7.4Zm8.388-1.818V-7.4H97.48v1.449H96.216v3.691a.881.881,0,0,0,.157.588.79.79,0,0,0,.6.178,3.15,3.15,0,0,0,.581-.048v1.5a4.067,4.067,0,0,1-1.2.178,1.886,1.886,0,0,1-2.119-2.1V-5.947H93.16V-7.4h1.08V-9.215ZM102.867,0a2.194,2.194,0,0,1-.2-.663,2.39,2.39,0,0,1-1.866.8A2.626,2.626,0,0,1,99-.492a2.023,2.023,0,0,1-.714-1.586,2.09,2.09,0,0,1,.872-1.8,4.3,4.3,0,0,1,2.519-.636h.909v-.424a1.219,1.219,0,0,0-.263-.82,1.035,1.035,0,0,0-.831-.308,1.177,1.177,0,0,0-.783.239.813.813,0,0,0-.284.656H98.451a1.985,1.985,0,0,1,.4-1.189,2.621,2.621,0,0,1,1.121-.858,4.086,4.086,0,0,1,1.627-.311,3.228,3.228,0,0,1,2.17.687,2.4,2.4,0,0,1,.8,1.931v3.206a3.536,3.536,0,0,0,.294,1.593V0Zm-1.634-1.374a1.7,1.7,0,0,0,.807-.195,1.28,1.28,0,0,0,.547-.523V-3.363h-.738q-1.483,0-1.579,1.025l-.007.116a.791.791,0,0,0,.26.608A1.009,1.009,0,0,0,101.233-1.374Zm9.01-4.17a5.367,5.367,0,0,0-.711-.055,1.447,1.447,0,0,0-1.47.759V0h-1.976V-7.4h1.866l.055.882a1.831,1.831,0,0,1,1.647-1.019,2.07,2.07,0,0,1,.615.089ZM113.278,0H111.3V-7.4h1.982Zm-2.1-9.311a.973.973,0,0,1,.3-.731,1.117,1.117,0,0,1,.81-.287,1.12,1.12,0,0,1,.807.287.967.967,0,0,1,.3.731.97.97,0,0,1-.3.738,1.122,1.122,0,0,1-.8.287,1.122,1.122,0,0,1-.8-.287A.97.97,0,0,1,111.18-9.311ZM114.6-3.767a4.387,4.387,0,0,1,.424-1.962,3.1,3.1,0,0,1,1.22-1.333,3.56,3.56,0,0,1,1.849-.472,3.368,3.368,0,0,1,2.444.916,3.676,3.676,0,0,1,1.056,2.488l.014.506a3.866,3.866,0,0,1-.95,2.731A3.3,3.3,0,0,1,118.1.137a3.319,3.319,0,0,1-2.553-1.025,3.934,3.934,0,0,1-.954-2.789Zm1.976.14a2.765,2.765,0,0,0,.4,1.612,1.308,1.308,0,0,0,1.135.558,1.311,1.311,0,0,0,1.121-.551,3.025,3.025,0,0,0,.4-1.763,2.737,2.737,0,0,0-.4-1.6,1.311,1.311,0,0,0-1.135-.568,1.29,1.29,0,0,0-1.121.565A3.076,3.076,0,0,0,116.573-3.626Z" transform="translate(1190 8249)" fill="#12263f"/>
    <path id="Trazado_762518" data-name="Trazado 762518" d="M8.7-3.315A3.522,3.522,0,0,1,7.516-.786,4.165,4.165,0,0,1,4.7.137,3.745,3.745,0,0,1,1.685-1.152a5.284,5.284,0,0,1-1.1-3.538V-5.3a5.966,5.966,0,0,1,.506-2.529A3.791,3.791,0,0,1,2.54-9.505a4.05,4.05,0,0,1,2.184-.584A4.058,4.058,0,0,1,7.5-9.167,3.785,3.785,0,0,1,8.716-6.576H6.665a2.079,2.079,0,0,0-.537-1.4,1.987,1.987,0,0,0-1.4-.434,1.742,1.742,0,0,0-1.535.735,4.118,4.118,0,0,0-.523,2.28v.752a4.408,4.408,0,0,0,.489,2.358A1.71,1.71,0,0,0,4.7-1.538a2.025,2.025,0,0,0,1.418-.434,1.961,1.961,0,0,0,.537-1.343Zm.909-.451a4.387,4.387,0,0,1,.424-1.962,3.1,3.1,0,0,1,1.22-1.333A3.56,3.56,0,0,1,13.1-7.533a3.368,3.368,0,0,1,2.444.916A3.676,3.676,0,0,1,16.6-4.129l.014.506a3.866,3.866,0,0,1-.95,2.731A3.3,3.3,0,0,1,13.118.137,3.319,3.319,0,0,1,10.565-.889a3.934,3.934,0,0,1-.954-2.789Zm1.976.14a2.765,2.765,0,0,0,.4,1.612,1.308,1.308,0,0,0,1.135.558,1.311,1.311,0,0,0,1.121-.551,3.025,3.025,0,0,0,.4-1.763,2.737,2.737,0,0,0-.4-1.6A1.311,1.311,0,0,0,13.1-5.94a1.29,1.29,0,0,0-1.121.565A3.076,3.076,0,0,0,11.587-3.626ZM21.841-2.044a.637.637,0,0,0-.359-.571,4.077,4.077,0,0,0-1.152-.373q-2.639-.554-2.639-2.242a2.032,2.032,0,0,1,.817-1.644,3.3,3.3,0,0,1,2.136-.66A3.547,3.547,0,0,1,22.9-6.87a2.09,2.09,0,0,1,.844,1.723H21.766a.956.956,0,0,0-.273-.7,1.157,1.157,0,0,0-.854-.277,1.182,1.182,0,0,0-.772.226.712.712,0,0,0-.273.574.609.609,0,0,0,.311.53,3.2,3.2,0,0,0,1.049.349,8.571,8.571,0,0,1,1.244.332,2.044,2.044,0,0,1,1.565,1.989,1.929,1.929,0,0,1-.868,1.637,3.745,3.745,0,0,1-2.242.625A3.912,3.912,0,0,1,19-.195,2.77,2.77,0,0,1,17.869-1.1a2.113,2.113,0,0,1-.41-1.248h1.873a1.031,1.031,0,0,0,.39.807,1.546,1.546,0,0,0,.971.28,1.43,1.43,0,0,0,.858-.215A.67.67,0,0,0,21.841-2.044ZM27.4-9.215V-7.4h1.265v1.449H27.4v3.691a.881.881,0,0,0,.157.588.79.79,0,0,0,.6.178,3.151,3.151,0,0,0,.581-.048v1.5a4.067,4.067,0,0,1-1.2.178,1.886,1.886,0,0,1-2.119-2.1V-5.947h-1.08V-7.4h1.08V-9.215Zm1.853,5.448a4.387,4.387,0,0,1,.424-1.962A3.1,3.1,0,0,1,30.9-7.062a3.56,3.56,0,0,1,1.849-.472,3.368,3.368,0,0,1,2.444.916,3.676,3.676,0,0,1,1.056,2.488l.014.506a3.866,3.866,0,0,1-.95,2.731A3.3,3.3,0,0,1,32.758.137,3.319,3.319,0,0,1,30.2-.889a3.934,3.934,0,0,1-.954-2.789Zm1.976.14a2.765,2.765,0,0,0,.4,1.612,1.308,1.308,0,0,0,1.135.558,1.311,1.311,0,0,0,1.121-.551,3.025,3.025,0,0,0,.4-1.763,2.737,2.737,0,0,0-.4-1.6,1.311,1.311,0,0,0-1.135-.568,1.29,1.29,0,0,0-1.121.565A3.076,3.076,0,0,0,31.227-3.626Zm9.427-.127a4.457,4.457,0,0,1,.776-2.755,2.517,2.517,0,0,1,2.123-1.025,2.265,2.265,0,0,1,1.784.807V-10.5h1.982V0H45.534l-.1-.786a2.325,2.325,0,0,1-1.9.923,2.511,2.511,0,0,1-2.1-1.029A4.6,4.6,0,0,1,40.653-3.753Zm1.976.147a2.92,2.92,0,0,0,.362,1.6,1.18,1.18,0,0,0,1.053.555,1.322,1.322,0,0,0,1.292-.774V-5.153a1.3,1.3,0,0,0-1.278-.774Q42.629-5.927,42.629-3.606ZM52.254.137a3.631,3.631,0,0,1-2.649-1,3.548,3.548,0,0,1-1.022-2.659v-.191A4.468,4.468,0,0,1,49.014-5.7a3.161,3.161,0,0,1,1.22-1.354,3.425,3.425,0,0,1,1.8-.475,3.07,3.07,0,0,1,2.389.957A3.889,3.889,0,0,1,55.3-3.862v.807h-4.71a1.835,1.835,0,0,0,.578,1.162,1.746,1.746,0,0,0,1.22.438,2.132,2.132,0,0,0,1.784-.827L55.139-1.2a2.966,2.966,0,0,1-1.2.981A3.947,3.947,0,0,1,52.254.137ZM52.028-5.94a1.234,1.234,0,0,0-.954.4,2.062,2.062,0,0,0-.468,1.14h2.748V-4.56A1.471,1.471,0,0,0,53-5.58,1.274,1.274,0,0,0,52.028-5.94ZM59.6-3.767a4.387,4.387,0,0,1,.424-1.962,3.1,3.1,0,0,1,1.22-1.333,3.56,3.56,0,0,1,1.849-.472,3.368,3.368,0,0,1,2.444.916,3.676,3.676,0,0,1,1.056,2.488l.014.506a3.866,3.866,0,0,1-.95,2.731A3.3,3.3,0,0,1,63.1.137,3.319,3.319,0,0,1,60.549-.889,3.934,3.934,0,0,1,59.6-3.678Zm1.976.14a2.765,2.765,0,0,0,.4,1.612,1.308,1.308,0,0,0,1.135.558,1.311,1.311,0,0,0,1.121-.551,3.025,3.025,0,0,0,.4-1.763,2.737,2.737,0,0,0-.4-1.6,1.311,1.311,0,0,0-1.135-.568,1.29,1.29,0,0,0-1.121.565A3.076,3.076,0,0,0,61.571-3.626Zm10.4-1.918a5.367,5.367,0,0,0-.711-.055,1.447,1.447,0,0,0-1.47.759V0H67.819V-7.4h1.866l.055.882a1.831,1.831,0,0,1,1.647-1.019A2.07,2.07,0,0,1,72-7.444Zm.513,1.791a4.457,4.457,0,0,1,.776-2.755,2.517,2.517,0,0,1,2.123-1.025,2.265,2.265,0,0,1,1.784.807V-10.5h1.982V0H77.369l-.1-.786a2.325,2.325,0,0,1-1.9.923,2.511,2.511,0,0,1-2.1-1.029A4.6,4.6,0,0,1,72.488-3.753Zm1.976.147a2.92,2.92,0,0,0,.362,1.6,1.18,1.18,0,0,0,1.053.555,1.322,1.322,0,0,0,1.292-.774V-5.153a1.3,1.3,0,0,0-1.278-.774Q74.464-5.927,74.464-3.606ZM84.089.137a3.631,3.631,0,0,1-2.649-1,3.548,3.548,0,0,1-1.022-2.659v-.191A4.468,4.468,0,0,1,80.849-5.7a3.161,3.161,0,0,1,1.22-1.354,3.425,3.425,0,0,1,1.8-.475,3.07,3.07,0,0,1,2.389.957,3.889,3.889,0,0,1,.872,2.714v.807h-4.71A1.835,1.835,0,0,0,83-1.894a1.746,1.746,0,0,0,1.22.438A2.132,2.132,0,0,0,86-2.283L86.974-1.2a2.966,2.966,0,0,1-1.2.981A3.947,3.947,0,0,1,84.089.137ZM83.863-5.94a1.234,1.234,0,0,0-.954.4,2.062,2.062,0,0,0-.468,1.14h2.748V-4.56a1.471,1.471,0,0,0-.355-1.02A1.274,1.274,0,0,0,83.863-5.94ZM90.07-7.4l.062.854a2.582,2.582,0,0,1,2.126-.991,2.146,2.146,0,0,1,1.75.69A3.221,3.221,0,0,1,94.6-4.778V0H92.62V-4.73a1.282,1.282,0,0,0-.273-.913,1.224,1.224,0,0,0-.909-.284,1.359,1.359,0,0,0-1.251.711V0H88.211V-7.4ZM100.379,0a2.194,2.194,0,0,1-.2-.663,2.39,2.39,0,0,1-1.866.8,2.626,2.626,0,0,1-1.8-.629A2.023,2.023,0,0,1,95.8-2.078a2.09,2.09,0,0,1,.872-1.8,4.3,4.3,0,0,1,2.519-.636h.909v-.424a1.219,1.219,0,0,0-.263-.82A1.035,1.035,0,0,0,99-6.07a1.177,1.177,0,0,0-.783.239.813.813,0,0,0-.284.656H95.963a1.985,1.985,0,0,1,.4-1.189,2.621,2.621,0,0,1,1.121-.858,4.086,4.086,0,0,1,1.627-.311,3.228,3.228,0,0,1,2.17.687,2.4,2.4,0,0,1,.8,1.931v3.206a3.536,3.536,0,0,0,.294,1.593V0ZM98.745-1.374a1.7,1.7,0,0,0,.807-.195,1.28,1.28,0,0,0,.547-.523V-3.363H99.36q-1.483,0-1.579,1.025l-.007.116a.791.791,0,0,0,.26.608A1.009,1.009,0,0,0,98.745-1.374Zm9.01-4.17a5.367,5.367,0,0,0-.711-.055,1.447,1.447,0,0,0-1.47.759V0H103.6V-7.4h1.866l.055.882a1.831,1.831,0,0,1,1.647-1.019,2.07,2.07,0,0,1,.615.089Zm4.129,1.777a4.387,4.387,0,0,1,.424-1.962,3.1,3.1,0,0,1,1.22-1.333,3.56,3.56,0,0,1,1.849-.472,3.368,3.368,0,0,1,2.444.916,3.676,3.676,0,0,1,1.056,2.488l.014.506a3.866,3.866,0,0,1-.95,2.731,3.3,3.3,0,0,1-2.55,1.029,3.319,3.319,0,0,1-2.553-1.025,3.934,3.934,0,0,1-.954-2.789Zm1.976.14a2.765,2.765,0,0,0,.4,1.612,1.308,1.308,0,0,0,1.135.558,1.311,1.311,0,0,0,1.121-.551,3.025,3.025,0,0,0,.4-1.763,2.737,2.737,0,0,0-.4-1.6,1.311,1.311,0,0,0-1.135-.568,1.29,1.29,0,0,0-1.121.565A3.076,3.076,0,0,0,113.859-3.626ZM127.88,0a2.194,2.194,0,0,1-.2-.663,2.39,2.39,0,0,1-1.866.8,2.626,2.626,0,0,1-1.8-.629,2.023,2.023,0,0,1-.714-1.586,2.09,2.09,0,0,1,.872-1.8,4.3,4.3,0,0,1,2.519-.636h.909v-.424a1.219,1.219,0,0,0-.263-.82,1.035,1.035,0,0,0-.831-.308,1.177,1.177,0,0,0-.783.239.813.813,0,0,0-.284.656h-1.976a1.985,1.985,0,0,1,.4-1.189,2.621,2.621,0,0,1,1.121-.858,4.086,4.086,0,0,1,1.627-.311,3.228,3.228,0,0,1,2.17.687,2.4,2.4,0,0,1,.8,1.931v3.206a3.536,3.536,0,0,0,.294,1.593V0Zm-1.634-1.374a1.7,1.7,0,0,0,.807-.195,1.28,1.28,0,0,0,.547-.523V-3.363h-.738q-1.483,0-1.579,1.025l-.007.116a.791.791,0,0,0,.26.608A1.009,1.009,0,0,0,126.246-1.374ZM133.185,0H131.2V-10.5h1.982ZM136.9,0h-1.982V-7.4H136.9Zm-2.1-9.311a.973.973,0,0,1,.3-.731,1.117,1.117,0,0,1,.81-.287,1.12,1.12,0,0,1,.807.287.967.967,0,0,1,.3.731.97.97,0,0,1-.3.738,1.122,1.122,0,0,1-.8.287,1.122,1.122,0,0,1-.8-.287A.97.97,0,0,1,134.8-9.311Zm7.731,7.267a.637.637,0,0,0-.359-.571,4.077,4.077,0,0,0-1.152-.373q-2.639-.554-2.639-2.242a2.032,2.032,0,0,1,.817-1.644,3.3,3.3,0,0,1,2.136-.66,3.547,3.547,0,0,1,2.252.663,2.09,2.09,0,0,1,.844,1.723h-1.976a.956.956,0,0,0-.273-.7,1.157,1.157,0,0,0-.854-.277,1.182,1.182,0,0,0-.772.226.712.712,0,0,0-.273.574.609.609,0,0,0,.311.53,3.2,3.2,0,0,0,1.049.349,8.571,8.571,0,0,1,1.244.332,2.044,2.044,0,0,1,1.565,1.989,1.929,1.929,0,0,1-.868,1.637,3.745,3.745,0,0,1-2.242.625,3.912,3.912,0,0,1-1.651-.332,2.77,2.77,0,0,1-1.131-.909,2.113,2.113,0,0,1-.41-1.248h1.873a1.031,1.031,0,0,0,.39.807,1.546,1.546,0,0,0,.971.28,1.43,1.43,0,0,0,.858-.215A.67.67,0,0,0,142.529-2.044Zm5.558-7.171V-7.4h1.265v1.449h-1.265v3.691a.881.881,0,0,0,.157.588.79.79,0,0,0,.6.178,3.151,3.151,0,0,0,.581-.048v1.5a4.067,4.067,0,0,1-1.2.178,1.886,1.886,0,0,1-2.119-2.1V-5.947h-1.08V-7.4h1.08V-9.215ZM154.738,0a2.194,2.194,0,0,1-.2-.663,2.39,2.39,0,0,1-1.866.8,2.626,2.626,0,0,1-1.8-.629,2.023,2.023,0,0,1-.714-1.586,2.09,2.09,0,0,1,.872-1.8,4.3,4.3,0,0,1,2.519-.636h.909v-.424a1.219,1.219,0,0,0-.263-.82,1.035,1.035,0,0,0-.831-.308,1.177,1.177,0,0,0-.783.239.813.813,0,0,0-.284.656h-1.976a1.984,1.984,0,0,1,.4-1.189,2.621,2.621,0,0,1,1.121-.858,4.086,4.086,0,0,1,1.627-.311,3.228,3.228,0,0,1,2.17.687,2.4,2.4,0,0,1,.8,1.931v3.206a3.536,3.536,0,0,0,.294,1.593V0ZM153.1-1.374a1.7,1.7,0,0,0,.807-.195,1.28,1.28,0,0,0,.547-.523V-3.363h-.738q-1.483,0-1.579,1.025l-.007.116a.791.791,0,0,0,.26.608A1.009,1.009,0,0,0,153.1-1.374Zm9.01-4.17A5.367,5.367,0,0,0,161.4-5.6a1.447,1.447,0,0,0-1.47.759V0h-1.976V-7.4h1.866l.055.882a1.831,1.831,0,0,1,1.647-1.019,2.07,2.07,0,0,1,.615.089Z" transform="translate(1043 8267)" fill="#12263f"/>
    <path id="Trazado_762520" data-name="Trazado 762520" d="M6.877-4.313H2.939v2.666H7.561V0H.889V-9.953H7.547v1.661H2.939V-5.92H6.877Zm10.063-.437a6.008,6.008,0,0,1-.52,2.577A3.913,3.913,0,0,1,14.933-.465a4.113,4.113,0,0,1-2.218.6,4.141,4.141,0,0,1-2.208-.595A3.951,3.951,0,0,1,9-2.157a5.837,5.837,0,0,1-.54-2.54v-.492a5.977,5.977,0,0,1,.53-2.587,3.945,3.945,0,0,1,1.5-1.716,4.118,4.118,0,0,1,2.211-.6,4.118,4.118,0,0,1,2.211.6,3.945,3.945,0,0,1,1.5,1.716,5.96,5.96,0,0,1,.53,2.581ZM14.861-5.2A4.188,4.188,0,0,0,14.3-7.581a1.827,1.827,0,0,0-1.6-.813,1.827,1.827,0,0,0-1.593.8,4.141,4.141,0,0,0-.567,2.355v.485A4.241,4.241,0,0,0,11.1-2.386a1.822,1.822,0,0,0,1.613.841,1.806,1.806,0,0,0,1.586-.81,4.216,4.216,0,0,0,.561-2.362Zm11.73.451a6,6,0,0,1-.451,2.423A4.16,4.16,0,0,1,24.89-.677l1.654,1.3L25.238,1.777,23.119.075a4.486,4.486,0,0,1-.752.062,4.141,4.141,0,0,1-2.208-.595,3.951,3.951,0,0,1-1.5-1.7,5.837,5.837,0,0,1-.54-2.54v-.492a5.977,5.977,0,0,1,.53-2.587,3.945,3.945,0,0,1,1.5-1.716,4.118,4.118,0,0,1,2.211-.6,4.118,4.118,0,0,1,2.211.6,3.945,3.945,0,0,1,1.5,1.716,5.96,5.96,0,0,1,.53,2.581ZM24.514-5.2a4.188,4.188,0,0,0-.561-2.379,1.827,1.827,0,0,0-1.6-.813,1.827,1.827,0,0,0-1.593.8,4.141,4.141,0,0,0-.567,2.355v.485a4.241,4.241,0,0,0,.561,2.365,1.822,1.822,0,0,0,1.613.841,1.806,1.806,0,0,0,1.586-.81,4.216,4.216,0,0,0,.561-2.362Z" transform="translate(858 8353)" fill="#12263f"/>
    <path id="Trazado_762523" data-name="Trazado 762523" d="M8.7-3.315A3.522,3.522,0,0,1,7.516-.786,4.165,4.165,0,0,1,4.7.137,3.745,3.745,0,0,1,1.685-1.152a5.284,5.284,0,0,1-1.1-3.538V-5.3a5.966,5.966,0,0,1,.506-2.529A3.791,3.791,0,0,1,2.54-9.505a4.05,4.05,0,0,1,2.184-.584A4.058,4.058,0,0,1,7.5-9.167,3.785,3.785,0,0,1,8.716-6.576H6.665a2.079,2.079,0,0,0-.537-1.4,1.987,1.987,0,0,0-1.4-.434,1.742,1.742,0,0,0-1.535.735,4.118,4.118,0,0,0-.523,2.28v.752a4.408,4.408,0,0,0,.489,2.358A1.71,1.71,0,0,0,4.7-1.538a2.025,2.025,0,0,0,1.418-.434,1.961,1.961,0,0,0,.537-1.343Zm.909-.451a4.387,4.387,0,0,1,.424-1.962,3.1,3.1,0,0,1,1.22-1.333A3.56,3.56,0,0,1,13.1-7.533a3.368,3.368,0,0,1,2.444.916A3.676,3.676,0,0,1,16.6-4.129l.014.506a3.866,3.866,0,0,1-.95,2.731A3.3,3.3,0,0,1,13.118.137,3.319,3.319,0,0,1,10.565-.889a3.934,3.934,0,0,1-.954-2.789Zm1.976.14a2.765,2.765,0,0,0,.4,1.612,1.308,1.308,0,0,0,1.135.558,1.311,1.311,0,0,0,1.121-.551,3.025,3.025,0,0,0,.4-1.763,2.737,2.737,0,0,0-.4-1.6A1.311,1.311,0,0,0,13.1-5.94a1.29,1.29,0,0,0-1.121.565A3.076,3.076,0,0,0,11.587-3.626ZM21.841-2.044a.637.637,0,0,0-.359-.571,4.077,4.077,0,0,0-1.152-.373q-2.639-.554-2.639-2.242a2.032,2.032,0,0,1,.817-1.644,3.3,3.3,0,0,1,2.136-.66A3.547,3.547,0,0,1,22.9-6.87a2.09,2.09,0,0,1,.844,1.723H21.766a.956.956,0,0,0-.273-.7,1.157,1.157,0,0,0-.854-.277,1.182,1.182,0,0,0-.772.226.712.712,0,0,0-.273.574.609.609,0,0,0,.311.53,3.2,3.2,0,0,0,1.049.349,8.571,8.571,0,0,1,1.244.332,2.044,2.044,0,0,1,1.565,1.989,1.929,1.929,0,0,1-.868,1.637,3.745,3.745,0,0,1-2.242.625A3.912,3.912,0,0,1,19-.195,2.77,2.77,0,0,1,17.869-1.1a2.113,2.113,0,0,1-.41-1.248h1.873a1.031,1.031,0,0,0,.39.807,1.546,1.546,0,0,0,.971.28,1.43,1.43,0,0,0,.858-.215A.67.67,0,0,0,21.841-2.044ZM27.4-9.215V-7.4h1.265v1.449H27.4v3.691a.881.881,0,0,0,.157.588.79.79,0,0,0,.6.178,3.151,3.151,0,0,0,.581-.048v1.5a4.067,4.067,0,0,1-1.2.178,1.886,1.886,0,0,1-2.119-2.1V-5.947h-1.08V-7.4h1.08V-9.215Zm1.853,5.448a4.387,4.387,0,0,1,.424-1.962A3.1,3.1,0,0,1,30.9-7.062a3.56,3.56,0,0,1,1.849-.472,3.368,3.368,0,0,1,2.444.916,3.676,3.676,0,0,1,1.056,2.488l.014.506a3.866,3.866,0,0,1-.95,2.731A3.3,3.3,0,0,1,32.758.137,3.319,3.319,0,0,1,30.2-.889a3.934,3.934,0,0,1-.954-2.789Zm1.976.14a2.765,2.765,0,0,0,.4,1.612,1.308,1.308,0,0,0,1.135.558,1.311,1.311,0,0,0,1.121-.551,3.025,3.025,0,0,0,.4-1.763,2.737,2.737,0,0,0-.4-1.6,1.311,1.311,0,0,0-1.135-.568,1.29,1.29,0,0,0-1.121.565A3.076,3.076,0,0,0,31.227-3.626ZM42.813-7.4l.062.827A2.6,2.6,0,0,1,45-7.533a1.973,1.973,0,0,1,1.962,1.128,2.54,2.54,0,0,1,2.222-1.128,2.206,2.206,0,0,1,1.791.7,3.221,3.221,0,0,1,.588,2.109V0H49.581V-4.717a1.408,1.408,0,0,0-.246-.919,1.091,1.091,0,0,0-.868-.291,1.233,1.233,0,0,0-1.23.848L47.243,0H45.268V-4.71a1.391,1.391,0,0,0-.253-.93,1.1,1.1,0,0,0-.861-.287,1.28,1.28,0,0,0-1.217.7V0H40.961V-7.4ZM55.166,0H53.184V-7.4h1.982Zm-2.1-9.311a.973.973,0,0,1,.3-.731,1.117,1.117,0,0,1,.81-.287,1.12,1.12,0,0,1,.807.287.967.967,0,0,1,.3.731.97.97,0,0,1-.3.738,1.122,1.122,0,0,1-.8.287,1.122,1.122,0,0,1-.8-.287A.97.97,0,0,1,53.067-9.311ZM58.611-7.4l.062.854A2.582,2.582,0,0,1,60.8-7.533a2.146,2.146,0,0,1,1.75.69,3.221,3.221,0,0,1,.588,2.064V0H61.161V-4.73a1.282,1.282,0,0,0-.273-.913,1.224,1.224,0,0,0-.909-.284,1.359,1.359,0,0,0-1.251.711V0H56.752V-7.4ZM66.719,0H64.736V-7.4h1.982Zm-2.1-9.311a.973.973,0,0,1,.3-.731,1.117,1.117,0,0,1,.81-.287,1.12,1.12,0,0,1,.807.287.967.967,0,0,1,.3.731.97.97,0,0,1-.3.738,1.122,1.122,0,0,1-.8.287,1.122,1.122,0,0,1-.8-.287A.97.97,0,0,1,64.62-9.311ZM70.2-7.4l.062.827a2.6,2.6,0,0,1,2.126-.964,1.973,1.973,0,0,1,1.962,1.128,2.54,2.54,0,0,1,2.222-1.128,2.206,2.206,0,0,1,1.791.7,3.221,3.221,0,0,1,.588,2.109V0H76.966V-4.717a1.408,1.408,0,0,0-.246-.919,1.091,1.091,0,0,0-.868-.291,1.233,1.233,0,0,0-1.23.848L74.628,0H72.652V-4.71a1.391,1.391,0,0,0-.253-.93,1.1,1.1,0,0,0-.861-.287,1.28,1.28,0,0,0-1.217.7V0H68.346V-7.4Zm9.96,3.63a4.387,4.387,0,0,1,.424-1.962A3.1,3.1,0,0,1,81.8-7.062a3.56,3.56,0,0,1,1.849-.472,3.368,3.368,0,0,1,2.444.916,3.676,3.676,0,0,1,1.056,2.488l.014.506a3.866,3.866,0,0,1-.95,2.731A3.3,3.3,0,0,1,83.665.137,3.319,3.319,0,0,1,81.112-.889a3.934,3.934,0,0,1-.954-2.789Zm1.976.14a2.765,2.765,0,0,0,.4,1.612,1.308,1.308,0,0,0,1.135.558,1.311,1.311,0,0,0,1.121-.551,3.025,3.025,0,0,0,.4-1.763,2.737,2.737,0,0,0-.4-1.6,1.311,1.311,0,0,0-1.135-.568,1.29,1.29,0,0,0-1.121.565A3.076,3.076,0,0,0,82.134-3.626Z" transform="translate(720 8297) rotate(-90)" fill="#12263f"/>
    <g id="Trazado_762521" data-name="Trazado 762521" transform="translate(866 8282)" fill="#fff">
      <path d="M 6 11.5 C 2.967289924621582 11.5 0.5 9.032710075378418 0.5 6 C 0.5 2.967289924621582 2.967289924621582 0.5 6 0.5 C 9.032710075378418 0.5 11.5 2.967289924621582 11.5 6 C 11.5 9.032710075378418 9.032710075378418 11.5 6 11.5 Z" stroke="none"/>
      <path d="M 6 1 C 3.242989540100098 1 1 3.242989540100098 1 6 C 1 8.757009506225586 3.242989540100098 11 6 11 C 8.757009506225586 11 11 8.757009506225586 11 6 C 11 3.242989540100098 8.757009506225586 1 6 1 M 6 0 C 9.31371021270752 0 12 2.68628978729248 12 6 C 12 9.31371021270752 9.31371021270752 12 6 12 C 2.68628978729248 12 0 9.31371021270752 0 6 C 0 2.68628978729248 2.68628978729248 0 6 0 Z" stroke="none" fill="#12263f"/>
    </g>
  </g>
</svg>
