<svg xmlns="http://www.w3.org/2000/svg" xmlns:xlink="http://www.w3.org/1999/xlink" width="466.073" height="366.108" viewBox="0 0 466.073 366.108">
  <defs>
    <clipPath id="clip-path">
      <rect id="Rectángulo_358192" data-name="Rectángulo 358192" width="256.674" height="352.356" transform="translate(0 0)" fill="none"/>
    </clipPath>
    <clipPath id="clip-path-2">
      <rect id="Rectángulo_356515" data-name="Rectángulo 356515" width="318.868" height="241.178" fill="none"/>
    </clipPath>
    <clipPath id="clip-path-3">
      <rect id="Rectángulo_356456" data-name="Rectángulo 356456" width="481.38" height="313.537" fill="none"/>
    </clipPath>
    <clipPath id="clip-path-5">
      <rect id="Rectángulo_356459" data-name="Rectángulo 356459" width="64.923" height="132.86" fill="none"/>
    </clipPath>
    <clipPath id="clip-path-6">
      <rect id="Rectángulo_356470" data-name="Rectángulo 356470" width="106.499" height="26.593" fill="none"/>
    </clipPath>
    <clipPath id="clip-path-7">
      <rect id="Rectángulo_356473" data-name="Rectángulo 356473" width="40.471" height="86.14" fill="none"/>
    </clipPath>
    <clipPath id="clip-path-8">
      <rect id="Rectángulo_356484" data-name="Rectángulo 356484" width="91.97" height="16.577" fill="none"/>
    </clipPath>
    <clipPath id="clip-path-9">
      <rect id="Rectángulo_356487" data-name="Rectángulo 356487" width="40.471" height="86.139" fill="none"/>
    </clipPath>
    <clipPath id="clip-path-10">
      <rect id="Rectángulo_356498" data-name="Rectángulo 356498" width="91.969" height="16.577" fill="none"/>
    </clipPath>
    <clipPath id="clip-path-11">
      <rect id="Rectángulo_356501" data-name="Rectángulo 356501" width="49.361" height="57.147" fill="none"/>
    </clipPath>
    <clipPath id="clip-path-12">
      <rect id="Rectángulo_356511" data-name="Rectángulo 356511" width="86.723" height="20.219" fill="none"/>
    </clipPath>
    <clipPath id="clip-path-13">
      <rect id="Rectángulo_358199" data-name="Rectángulo 358199" width="265.616" height="199.395" fill="none"/>
    </clipPath>
    <clipPath id="clip-path-14">
      <rect id="Rectángulo_356484-2" data-name="Rectángulo 356484" width="126.153" height="22.739" fill="none"/>
    </clipPath>
    <clipPath id="clip-path-15">
      <rect id="Rectángulo_358209" data-name="Rectángulo 358209" width="192.423" height="315.918" fill="none"/>
    </clipPath>
    <clipPath id="clip-path-16">
      <path id="Trazado_751253" data-name="Trazado 751253" d="M401.891,257.758,390.03,244.772l-15.4,14.065c1.81,2,12.6,13.749,14.078,15.476,5.965,6.985,17.605,7.005,23.6.058l33.413-37.091-7.138-9.3Z" transform="translate(-374.631 -227.976)" fill="none"/>
    </clipPath>
    <clipPath id="clip-path-18">
      <path id="Trazado_751259" data-name="Trazado 751259" d="M34.555,292.495c.691,4.4-5.095,53.243-.353,55.346h0C39.787,354.2,45.93,349,51.051,345.227l-7.157-.072,6.831-48.013,12.94-8.662-9.041-15.931c-7.654,4.512-20.244,9.189-20.069,19.945" transform="translate(-32.317 -272.549)" fill="none"/>
    </clipPath>
    <clipPath id="clip-path-20">
      <path id="Trazado_751263" data-name="Trazado 751263" d="M168.81,436.895l3.4,178.277H184.2l25.126-178.678Z" transform="translate(-168.81 -436.494)" fill="none"/>
    </clipPath>
    <clipPath id="clip-path-22">
      <path id="Trazado_751266" data-name="Trazado 751266" d="M290.508,615.172h12.559l3.4-178.277-40.516-.4Z" transform="translate(-265.953 -436.494)" fill="none"/>
    </clipPath>
    <clipPath id="clip-path-24">
      <path id="Trazado_751271" data-name="Trazado 751271" d="M239.864,45.133c.337,21.828,26.94,21.831,27.28,0,.846-11.256-6.539-16.843-13.857-16.842-7.352,0-14.635,5.643-13.422,16.842" transform="translate(-239.731 -28.291)" fill="none"/>
    </clipPath>
    <clipPath id="clip-path-26">
      <path id="Trazado_751282" data-name="Trazado 751282" d="M187.032,175.62c-12.247-.451-23.282,12.006-24.807,24.94l-9.995,66.028h76.516l-10-66.048c-2.445-16.288-13.971-25.191-27.563-25.192a32.307,32.307,0,0,0-4.155.272" transform="translate(-152.231 -175.348)" fill="none"/>
    </clipPath>
  </defs>
  <g id="Grupo_1024392" data-name="Grupo 1024392" transform="translate(-865.039 -167.035)">
    <g id="Grupo_1022410" data-name="Grupo 1022410" transform="translate(865.039 167.035)">
      <g id="Grupo_1022378" data-name="Grupo 1022378" transform="translate(0 0)" clip-path="url(#clip-path)">
        <path id="Trazado_751225" data-name="Trazado 751225" d="M242.486,428.548H14.187A14.188,14.188,0,0,1,0,414.36V112.794A14.188,14.188,0,0,1,14.187,98.606h228.3a14.188,14.188,0,0,1,14.188,14.188V414.36a14.188,14.188,0,0,1-14.188,14.188" transform="translate(0 -76.192)" fill="#1a0f91"/>
        <rect id="Rectángulo_358179" data-name="Rectángulo 358179" width="224.698" height="290.651" transform="translate(15.988 42.059)" fill="#fff"/>
        <path id="Trazado_751226" data-name="Trazado 751226" d="M467.975,17.23a17.416,17.416,0,0,0-34.829,0H417.009V44.824h67.1V17.23Zm-17.415,2.757a6.143,6.143,0,1,1,6.143-6.143,6.143,6.143,0,0,1-6.143,6.143" transform="translate(-322.224 0.004)" fill="#e6b046"/>
        <rect id="Rectángulo_358180" data-name="Rectángulo 358180" width="152.092" height="9.291" transform="translate(79.415 72.413)" fill="#f1f2f5"/>
        <rect id="Rectángulo_358181" data-name="Rectángulo 358181" width="152.092" height="9.291" transform="translate(79.415 90.554)" fill="#f1f2f5"/>
        <rect id="Rectángulo_358182" data-name="Rectángulo 358182" width="74.121" height="9.291" transform="translate(79.415 108.696)" fill="#f1f2f5"/>
        <path id="Trazado_751227" data-name="Trazado 751227" d="M176.1,362.514H133.323V315.577H176.1Zm-41.412-1.364h40.049v-44.21H134.687Z" transform="translate(-103.019 -243.846)" fill="#9ea9bd"/>
        <path id="Trazado_751228" data-name="Trazado 751228" d="M181.664,314.164l10.025,13.944,27.637-25.995,4.907,6.338-33.977,32.463-14.65-21.238Z" transform="translate(-135.692 -233.443)" fill="#1a0f91"/>
        <rect id="Rectángulo_358183" data-name="Rectángulo 358183" width="152.092" height="9.29" transform="translate(79.415 132.269)" fill="#f1f2f5"/>
        <rect id="Rectángulo_358184" data-name="Rectángulo 358184" width="152.092" height="9.29" transform="translate(79.415 150.411)" fill="#f1f2f5"/>
        <rect id="Rectángulo_358185" data-name="Rectángulo 358185" width="74.121" height="9.29" transform="translate(79.415 168.552)" fill="#f1f2f5"/>
        <path id="Trazado_751229" data-name="Trazado 751229" d="M176.1,625.851H133.323V578.914H176.1Zm-41.412-1.364h40.049v-44.21H134.687Z" transform="translate(-103.019 -447.327)" fill="#9ea9bd"/>
        <path id="Trazado_751230" data-name="Trazado 751230" d="M181.664,577.5l10.025,13.944,27.637-25.995,4.907,6.338-33.977,32.463-14.65-21.238Z" transform="translate(-135.692 -436.924)" fill="#fe7062"/>
        <rect id="Rectángulo_358186" data-name="Rectángulo 358186" width="152.092" height="9.29" transform="translate(79.415 192.125)" fill="#f1f2f5"/>
        <rect id="Rectángulo_358187" data-name="Rectángulo 358187" width="152.092" height="9.29" transform="translate(79.415 210.267)" fill="#f1f2f5"/>
        <rect id="Rectángulo_358188" data-name="Rectángulo 358188" width="74.121" height="9.29" transform="translate(79.415 228.408)" fill="#f1f2f5"/>
        <path id="Trazado_751231" data-name="Trazado 751231" d="M176.1,889.189H133.323V842.251H176.1Zm-41.412-1.364h40.049v-44.21H134.687Z" transform="translate(-103.019 -650.808)" fill="#9ea9bd"/>
        <path id="Trazado_751232" data-name="Trazado 751232" d="M181.664,840.839l10.025,13.944,27.637-25.995,4.907,6.338L190.256,867.59l-14.65-21.239Z" transform="translate(-135.692 -640.406)" fill="#1a0f91"/>
        <rect id="Rectángulo_358189" data-name="Rectángulo 358189" width="152.092" height="9.291" transform="translate(79.415 251.981)" fill="#f1f2f5"/>
        <rect id="Rectángulo_358190" data-name="Rectángulo 358190" width="152.092" height="9.291" transform="translate(79.415 270.122)" fill="#f1f2f5"/>
        <rect id="Rectángulo_358191" data-name="Rectángulo 358191" width="74.121" height="9.29" transform="translate(79.415 288.264)" fill="#f1f2f5"/>
        <path id="Trazado_751233" data-name="Trazado 751233" d="M176.1,1152.526H133.323v-46.938H176.1Zm-41.412-1.364h40.049v-44.21H134.687Z" transform="translate(-103.019 -854.289)" fill="#9ea9bd"/>
        <path id="Trazado_751234" data-name="Trazado 751234" d="M181.664,1104.176l10.025,13.944,27.637-25.995,4.907,6.338-33.977,32.463-14.65-21.239Z" transform="translate(-135.692 -843.887)" fill="#1a0f91"/>
      </g>
    </g>
    <g id="Grupo_1022411" data-name="Grupo 1022411" transform="translate(937.572 291.966)">
      <g id="Grupo_1019488" data-name="Grupo 1019488" transform="translate(0 0)" clip-path="url(#clip-path-2)">
        <rect id="Rectángulo_356457" data-name="Rectángulo 356457" width="171.431" height="132.854" transform="translate(24.5 98.015)" fill="#f0dcc0"/>
        <g id="Grupo_1019485" data-name="Grupo 1019485" transform="translate(-162.512 -72.359)">
          <g id="Grupo_1019484" data-name="Grupo 1019484" clip-path="url(#clip-path-3)">
            <g id="Grupo_1019462" data-name="Grupo 1019462" transform="translate(293.511 170.377)" opacity="0.2">
              <g id="Grupo_1019461" data-name="Grupo 1019461">
                <g id="Grupo_1019460" data-name="Grupo 1019460" clip-path="url(#clip-path-5)">
                  <rect id="Rectángulo_356458" data-name="Rectángulo 356458" width="64.923" height="132.86"/>
                </g>
              </g>
            </g>
            <path id="Trazado_747747" data-name="Trazado 747747" d="M307.183,265.9q-7.212-14.172-14.293-28.433L278.8,208.892l-13.9-28.7q-6.92-14.372-13.695-28.845,7.213,14.171,14.3,28.432l14.083,28.577,13.9,28.7q6.918,14.372,13.695,28.844" transform="translate(46.779 28.183)" fill="#b9a689"/>
            <path id="Trazado_747748" data-name="Trazado 747748" d="M307.183,151.345q-6.783,14.468-13.695,28.845l-13.9,28.7L265.5,237.468q-7.076,14.265-14.3,28.433,6.779-14.468,13.695-28.847l13.9-28.7,14.085-28.577q7.075-14.265,14.293-28.432" transform="translate(46.779 28.183)" fill="#ffc727"/>
            <rect id="Rectángulo_356460" data-name="Rectángulo 356460" width="19.716" height="16.206" transform="translate(316.247 170.377)" fill="#ebebeb"/>
            <rect id="Rectángulo_356461" data-name="Rectángulo 356461" width="1.381" height="19.477" transform="translate(223.033 274.92)" fill="#263238"/>
            <rect id="Rectángulo_356462" data-name="Rectángulo 356462" width="1.381" height="19.477" transform="translate(219.718 274.92)" fill="#263238"/>
            <rect id="Rectángulo_356463" data-name="Rectángulo 356463" width="1.381" height="19.477" transform="translate(216.404 274.92)" fill="#263238"/>
            <rect id="Rectángulo_356464" data-name="Rectángulo 356464" width="1.381" height="19.477" transform="translate(213.091 274.92)" fill="#263238"/>
            <rect id="Rectángulo_356465" data-name="Rectángulo 356465" width="1.381" height="19.477" transform="translate(209.777 274.92)" fill="#263238"/>
            <rect id="Rectángulo_356466" data-name="Rectángulo 356466" width="1.381" height="19.477" transform="translate(206.462 274.92)" fill="#263238"/>
            <rect id="Rectángulo_356467" data-name="Rectángulo 356467" width="1.381" height="19.477" transform="translate(203.148 274.92)" fill="#263238"/>
            <rect id="Rectángulo_356468" data-name="Rectángulo 356468" width="1.381" height="19.477" transform="translate(199.834 274.92)" fill="#263238"/>
            <rect id="Rectángulo_356469" data-name="Rectángulo 356469" width="1.381" height="19.477" transform="translate(196.521 274.92)" fill="#263238"/>
            <path id="Trazado_747749" data-name="Trazado 747749" d="M201.443,249.753l-5.315,1.478H208.6l-5.317-1.495v-7.159c3.8-.5,5.317-4.251,5.317-10.812H196.128c0,6.543,1.514,10.314,5.315,10.812Z" transform="translate(36.523 43.159)" fill="#263238"/>
            <path id="Trazado_747750" data-name="Trazado 747750" d="M209.095,241.7h3.256v9.534h8.338V241.7h3.272l-7.441-9.932Z" transform="translate(38.937 43.159)" fill="#263238"/>
            <g id="Grupo_1019465" data-name="Grupo 1019465" transform="translate(187.012 276.644)" opacity="0.1">
              <g id="Grupo_1019464" data-name="Grupo 1019464">
                <g id="Grupo_1019463" data-name="Grupo 1019463" clip-path="url(#clip-path-6)">
                  <path id="Trazado_747751" data-name="Trazado 747751" d="M157.654,259.808v-9.326l106.5-17.267V259.8Z" transform="translate(-157.654 -233.215)"/>
                </g>
              </g>
            </g>
            <rect id="Rectángulo_356471" data-name="Rectángulo 356471" width="132.446" height="86.137" transform="translate(217.094 84.236)" fill="#f0dcc0"/>
            <g id="Grupo_1019468" data-name="Grupo 1019468" transform="translate(309.064 84.237)" opacity="0.2">
              <g id="Grupo_1019467" data-name="Grupo 1019467">
                <g id="Grupo_1019466" data-name="Grupo 1019466" clip-path="url(#clip-path-7)">
                  <rect id="Rectángulo_356472" data-name="Rectángulo 356472" width="40.471" height="86.139" transform="translate(0 0.001)"/>
                </g>
              </g>
            </g>
            <path id="Trazado_747752" data-name="Trazado 747752" d="M297.792,153.123q-4.5-9.626-8.91-19.312L280.1,114.4l-8.67-19.493q-4.311-9.763-8.535-19.593,4.5,9.624,8.911,19.312l8.779,19.409,8.668,19.494q4.311,9.761,8.537,19.59" transform="translate(48.956 14.026)" fill="#b9a689"/>
            <path id="Trazado_747753" data-name="Trazado 747753" d="M297.792,75.318q-4.228,9.825-8.537,19.592L280.587,114.4l-8.779,19.409q-4.411,9.69-8.911,19.312,4.226-9.827,8.535-19.593l8.67-19.493,8.78-19.408q4.409-9.69,8.91-19.312" transform="translate(48.956 14.026)" fill="#b9a689"/>
            <rect id="Rectángulo_356474" data-name="Rectángulo 356474" width="12.29" height="10.213" transform="translate(323.236 84.237)" fill="#fdf1e6"/>
            <rect id="Rectángulo_356475" data-name="Rectángulo 356475" width="0.861" height="12.141" transform="translate(239.55 152.723)" fill="#263238"/>
            <rect id="Rectángulo_356476" data-name="Rectángulo 356476" width="0.861" height="12.141" transform="translate(237.484 152.723)" fill="#263238"/>
            <rect id="Rectángulo_356477" data-name="Rectángulo 356477" width="0.86" height="12.141" transform="translate(235.418 152.723)" fill="#263238"/>
            <rect id="Rectángulo_356478" data-name="Rectángulo 356478" width="0.861" height="12.141" transform="translate(233.352 152.723)" fill="#263238"/>
            <rect id="Rectángulo_356479" data-name="Rectángulo 356479" width="0.861" height="12.141" transform="translate(231.286 152.723)" fill="#263238"/>
            <rect id="Rectángulo_356480" data-name="Rectángulo 356480" width="0.861" height="12.141" transform="translate(229.22 152.723)" fill="#263238"/>
            <rect id="Rectángulo_356481" data-name="Rectángulo 356481" width="0.861" height="12.141" transform="translate(227.155 152.723)" fill="#263238"/>
            <rect id="Rectángulo_356482" data-name="Rectángulo 356482" width="0.861" height="12.141" transform="translate(225.088 152.723)" fill="#263238"/>
            <rect id="Rectángulo_356483" data-name="Rectángulo 356483" width="0.861" height="12.141" transform="translate(223.022 152.723)" fill="#263238"/>
            <path id="Trazado_747754" data-name="Trazado 747754" d="M210.312,139.964l-3.313.922h7.776l-3.313-.932v-4.463c2.371-.311,3.313-2.65,3.313-6.74H207c0,4.079.942,6.429,3.313,6.74Z" transform="translate(38.547 23.976)" fill="#263238"/>
            <path id="Trazado_747755" data-name="Trazado 747755" d="M215.082,134.942h2.03v5.943h5.2v-5.943h2.039l-4.638-6.192Z" transform="translate(40.052 23.976)" fill="#263238"/>
            <g id="Grupo_1019471" data-name="Grupo 1019471" transform="translate(217.094 153.799)" opacity="0.1">
              <g id="Grupo_1019470" data-name="Grupo 1019470">
                <g id="Grupo_1019469" data-name="Grupo 1019469" clip-path="url(#clip-path-8)">
                  <path id="Trazado_747756" data-name="Trazado 747756" d="M183.014,146.232v-5.814l91.969-10.764v16.573Z" transform="translate(-183.014 -129.655)"/>
                </g>
              </g>
            </g>
            <rect id="Rectángulo_356485" data-name="Rectángulo 356485" width="132.446" height="86.136" transform="translate(304.708 217.098)" fill="#f0dcc0"/>
            <g id="Grupo_1019474" data-name="Grupo 1019474" transform="translate(396.677 217.098)" opacity="0.2">
              <g id="Grupo_1019473" data-name="Grupo 1019473">
                <g id="Grupo_1019472" data-name="Grupo 1019472" clip-path="url(#clip-path-9)">
                  <rect id="Rectángulo_356486" data-name="Rectángulo 356486" width="40.471" height="86.139" transform="translate(0 0)"/>
                </g>
              </g>
            </g>
            <path id="Trazado_747757" data-name="Trazado 747757" d="M371.651,265.126q-4.5-9.626-8.91-19.312l-8.78-19.408-8.669-19.493q-4.313-9.763-8.536-19.592,4.5,9.623,8.911,19.31l8.779,19.409,8.668,19.494q4.313,9.761,8.537,19.59" transform="translate(62.71 34.883)" fill="#b9a689"/>
            <path id="Trazado_747758" data-name="Trazado 747758" d="M371.651,187.321q-4.228,9.825-8.537,19.592l-8.668,19.493-8.779,19.409q-4.411,9.69-8.911,19.31,4.226-9.825,8.536-19.592l8.669-19.493,8.78-19.409q4.411-9.688,8.91-19.31" transform="translate(62.71 34.883)" fill="#b9a689"/>
            <rect id="Rectángulo_356488" data-name="Rectángulo 356488" width="12.29" height="10.212" transform="translate(410.85 217.098)" fill="#ebebeb"/>
            <rect id="Rectángulo_356489" data-name="Rectángulo 356489" width="0.861" height="12.141" transform="translate(327.164 285.585)" fill="#263238"/>
            <rect id="Rectángulo_356490" data-name="Rectángulo 356490" width="0.861" height="12.141" transform="translate(325.097 285.585)" fill="#263238"/>
            <rect id="Rectángulo_356491" data-name="Rectángulo 356491" width="0.861" height="12.141" transform="translate(323.031 285.585)" fill="#263238"/>
            <rect id="Rectángulo_356492" data-name="Rectángulo 356492" width="0.861" height="12.141" transform="translate(320.966 285.585)" fill="#263238"/>
            <rect id="Rectángulo_356493" data-name="Rectángulo 356493" width="0.861" height="12.141" transform="translate(318.899 285.585)" fill="#263238"/>
            <rect id="Rectángulo_356494" data-name="Rectángulo 356494" width="0.861" height="12.141" transform="translate(316.834 285.585)" fill="#263238"/>
            <rect id="Rectángulo_356495" data-name="Rectángulo 356495" width="0.86" height="12.141" transform="translate(314.768 285.585)" fill="#263238"/>
            <rect id="Rectángulo_356496" data-name="Rectángulo 356496" width="0.861" height="12.141" transform="translate(312.701 285.585)" fill="#263238"/>
            <rect id="Rectángulo_356497" data-name="Rectángulo 356497" width="0.861" height="12.141" transform="translate(310.636 285.585)" fill="#263238"/>
            <path id="Trazado_747759" data-name="Trazado 747759" d="M284.172,251.967l-3.313.922h7.776l-3.313-.932v-4.463c2.371-.311,3.313-2.65,3.313-6.74h-7.776c0,4.079.942,6.429,3.313,6.74Z" transform="translate(52.301 44.833)" fill="#263238"/>
            <path id="Trazado_747760" data-name="Trazado 747760" d="M288.941,246.946h2.03v5.943h5.2v-5.943h2.039l-4.638-6.192Z" transform="translate(53.806 44.833)" fill="#263238"/>
            <g id="Grupo_1019477" data-name="Grupo 1019477" transform="translate(304.708 286.66)" opacity="0.1">
              <g id="Grupo_1019476" data-name="Grupo 1019476">
                <g id="Grupo_1019475" data-name="Grupo 1019475" clip-path="url(#clip-path-10)">
                  <path id="Trazado_747761" data-name="Trazado 747761" d="M256.874,258.235v-5.814l91.969-10.764v16.573Z" transform="translate(-256.874 -241.658)"/>
                </g>
              </g>
            </g>
            <rect id="Rectángulo_356499" data-name="Rectángulo 356499" width="136.091" height="57.144" transform="translate(317.46 159.951)" fill="#f0dcc0"/>
            <g id="Grupo_1019480" data-name="Grupo 1019480" transform="translate(404.184 159.951)" opacity="0.2">
              <g id="Grupo_1019479" data-name="Grupo 1019479">
                <g id="Grupo_1019478" data-name="Grupo 1019478" clip-path="url(#clip-path-11)">
                  <rect id="Rectángulo_356500" data-name="Rectángulo 356500" width="49.362" height="57.147" transform="translate(-0.001)"/>
                </g>
              </g>
            </g>
            <path id="Trazado_747762" data-name="Trazado 747762" d="M386.16,187.433q-5.484-6.1-10.867-12.23l-10.709-12.292-10.573-12.345q-5.26-6.181-10.411-12.407,5.484,6.094,10.868,12.229l10.708,12.292,10.572,12.346q5.26,6.181,10.413,12.407" transform="translate(63.984 25.728)" fill="#b9a689"/>
            <path id="Trazado_747763" data-name="Trazado 747763" d="M386.16,138.16q-5.156,6.222-10.413,12.407l-10.572,12.346L354.468,175.2q-5.381,6.135-10.868,12.229,5.155-6.222,10.411-12.408l10.573-12.344,10.709-12.292q5.379-6.137,10.867-12.23" transform="translate(63.984 25.728)" fill="#b9a689"/>
            <rect id="Rectángulo_356502" data-name="Rectángulo 356502" width="0.805" height="11.356" transform="translate(340.149 199.02)" fill="#263238"/>
            <rect id="Rectángulo_356503" data-name="Rectángulo 356503" width="0.805" height="11.356" transform="translate(338.217 199.02)" fill="#263238"/>
            <rect id="Rectángulo_356504" data-name="Rectángulo 356504" width="0.805" height="11.356" transform="translate(336.284 199.02)" fill="#263238"/>
            <rect id="Rectángulo_356505" data-name="Rectángulo 356505" width="0.805" height="11.356" transform="translate(334.352 199.02)" fill="#263238"/>
            <rect id="Rectángulo_356506" data-name="Rectángulo 356506" width="0.805" height="11.356" transform="translate(332.42 199.02)" fill="#263238"/>
            <rect id="Rectángulo_356507" data-name="Rectángulo 356507" width="0.805" height="11.356" transform="translate(330.487 199.02)" fill="#263238"/>
            <rect id="Rectángulo_356508" data-name="Rectángulo 356508" width="0.805" height="11.356" transform="translate(328.555 199.02)" fill="#263238"/>
            <rect id="Rectángulo_356509" data-name="Rectángulo 356509" width="0.805" height="11.356" transform="translate(326.623 199.02)" fill="#263238"/>
            <rect id="Rectángulo_356510" data-name="Rectángulo 356510" width="0.805" height="11.356" transform="translate(324.69 199.02)" fill="#263238"/>
            <path id="Trazado_747764" data-name="Trazado 747764" d="M294.579,178.267l-3.1.862h7.274l-3.1-.872v-4.174c2.218-.291,3.1-2.479,3.1-6.3h-7.274c0,3.816.881,6.014,3.1,6.3Z" transform="translate(54.279 31.244)" fill="#263238"/>
            <path id="Trazado_747765" data-name="Trazado 747765" d="M299.039,173.57h1.9v5.559H305.8V173.57h1.907l-4.338-5.791Z" transform="translate(55.686 31.244)" fill="#263238"/>
            <g id="Grupo_1019483" data-name="Grupo 1019483" transform="translate(317.46 196.879)" opacity="0.1">
              <g id="Grupo_1019482" data-name="Grupo 1019482">
                <g id="Grupo_1019481" data-name="Grupo 1019481" clip-path="url(#clip-path-12)">
                  <path id="Trazado_747766" data-name="Trazado 747766" d="M267.625,186.191V179.1l86.722-13.128v20.213Z" transform="translate(-267.624 -165.972)"/>
                </g>
              </g>
            </g>
            <path id="Trazado_747767" data-name="Trazado 747767" d="M404.757,122.794H355.388l-14.656,14.29H390.1Z" transform="translate(63.45 22.867)" fill="#ffc727"/>
            <path id="Trazado_747768" data-name="Trazado 747768" d="M404.757,122.794H355.388l-14.656,14.29H390.1Z" transform="translate(63.45 22.867)" fill="#b9a689"/>
            <path id="Trazado_747769" data-name="Trazado 747769" d="M255.268,122.794h49.368l14.656,14.29H269.923Z" transform="translate(47.535 22.867)" fill="#ffc727"/>
            <path id="Trazado_747770" data-name="Trazado 747770" d="M255.268,122.794h49.368l14.656,14.29H269.923Z" transform="translate(47.535 22.867)" fill="#b9a689"/>
          </g>
        </g>
      </g>
    </g>
    <g id="Grupo_1022412" data-name="Grupo 1022412" transform="translate(1065.496 324.386)">
      <g id="Grupo_1022381" data-name="Grupo 1022381" clip-path="url(#clip-path-13)">
        <path id="Trazado_751235" data-name="Trazado 751235" d="M338.479,0H303.87a4.564,4.564,0,0,0-4.428,3.458l-42.648,170.8,3.14,0,42.3-169.4a2.149,2.149,0,0,1,2.085-1.629h34.162a1.616,1.616,0,1,0,0-3.233" transform="translate(-197.793)" fill="#12263f"/>
        <path id="Trazado_751236" data-name="Trazado 751236" d="M874.989.613H840.323A4.564,4.564,0,0,0,835.9,4.071l-42.648,170.8,3.14,0,42.3-169.4a2.149,2.149,0,0,1,2.085-1.629h34.218a1.616,1.616,0,1,0,0-3.233" transform="translate(-610.989 -0.472)" fill="#12263f"/>
        <path id="Trazado_751237" data-name="Trazado 751237" d="M334.44,737.411c-.07-6.595-2.586-14.146-9.21-16.471-3.041-.694-6.258-.206-9.36-.322-8.214-1.2-14.077,6.063-14.241,16.793.166,10.731,6.026,17.991,14.241,16.792,3.1-.115,6.318.372,9.36-.321,6.579-2.239,9.183-10.014,9.21-16.471" transform="translate(-232.327 -554.948)" fill="#12263f"/>
        <path id="Trazado_751238" data-name="Trazado 751238" d="M83.5,730.49c-1.492-4.611-5.134-9.5-10.4-9.524-3.291.016-6.7.009-9.931,0-6.346.149-11.446,7.771-11.342,17.088.109,9.189,5.245,16.584,11.611,16.534q4.83-.019,9.663,0c8.048-.365,11.577-9.786,11.535-16.812A23.3,23.3,0,0,0,83.5,730.49" transform="translate(-39.919 -555.316)" fill="#12263f"/>
        <rect id="Rectángulo_358193" data-name="Rectángulo 358193" width="82.957" height="102.282" transform="translate(123.147 74.439)" fill="#bfaf99"/>
        <rect id="Rectángulo_358194" data-name="Rectángulo 358194" width="9.828" height="11.663" transform="translate(167.249 74.439)" fill="#fdf1e6"/>
        <path id="Trazado_751245" data-name="Trazado 751245" d="M0,0H124.99V102.282H0Z" transform="translate(11.908 74.439)" fill="#f0dcc0"/>
        <rect id="Rectángulo_358196" data-name="Rectángulo 358196" width="14.808" height="11.663" transform="translate(66.999 74.439)" fill="#fdf1e6"/>
        <rect id="Rectángulo_358197" data-name="Rectángulo 358197" width="218.012" height="5.833" transform="translate(0 175.824)" fill="#727997"/>
        <rect id="Rectángulo_358198" data-name="Rectángulo 358198" width="109.006" height="5.833" transform="translate(0 175.824)" fill="#12263f"/>
        <path id="Trazado_751239" data-name="Trazado 751239" d="M796.079,720.566q-3.789.02-7.576,0c-17.144-2.434-18.135,33.075-2.164,33.625q3.788-.02,7.576,0c17.144,2.434,18.135-33.075,2.165-33.625" transform="translate(-596.915 -554.915)" fill="#12263f"/>
        <path id="Trazado_751240" data-name="Trazado 751240" d="M839.694,738.511c-.3,22.127-22.771,22.125-23.07,0,.3-22.126,22.771-22.124,23.07,0" transform="translate(-628.995 -556.048)" fill="#b0c0d2"/>
        <path id="Trazado_751241" data-name="Trazado 751241" d="M857.1,772.707c-.108,8.525-8.166,8.524-8.273,0,.108-8.525,8.166-8.524,8.273,0" transform="translate(-653.797 -590.244)" fill="#12263f"/>
        <rect id="Rectángulo_358200" data-name="Rectángulo 358200" width="1.181" height="16.653" transform="translate(41.682 151.702)" fill="#263238"/>
        <rect id="Rectángulo_358201" data-name="Rectángulo 358201" width="1.181" height="16.653" transform="translate(38.849 151.702)" fill="#263238"/>
        <rect id="Rectángulo_358202" data-name="Rectángulo 358202" width="1.18" height="16.653" transform="translate(36.014 151.702)" fill="#263238"/>
        <rect id="Rectángulo_358203" data-name="Rectángulo 358203" width="1.181" height="16.653" transform="translate(33.179 151.702)" fill="#263238"/>
        <rect id="Rectángulo_358204" data-name="Rectángulo 358204" width="1.181" height="16.653" transform="translate(30.346 151.702)" fill="#263238"/>
        <rect id="Rectángulo_358205" data-name="Rectángulo 358205" width="1.181" height="16.653" transform="translate(27.514 151.702)" fill="#263238"/>
        <rect id="Rectángulo_358206" data-name="Rectángulo 358206" width="1.181" height="16.653" transform="translate(24.68 151.702)" fill="#263238"/>
        <rect id="Rectángulo_358207" data-name="Rectángulo 358207" width="1.181" height="16.653" transform="translate(21.845 151.702)" fill="#263238"/>
        <rect id="Rectángulo_358208" data-name="Rectángulo 358208" width="1.181" height="16.653" transform="translate(19.011 151.702)" fill="#263238"/>
        <path id="Trazado_751246" data-name="Trazado 751246" d="M211.544,144.132,207,145.4h10.666l-4.545-1.279V138c3.253-.426,4.545-3.635,4.545-9.245H207c0,5.6,1.292,8.819,4.545,9.245Z" transform="translate(-157.092 22.955)" fill="#263238"/>
        <path id="Trazado_751247" data-name="Trazado 751247" d="M215.082,137.244h2.784V145.4H225v-8.152h2.8l-6.362-8.493Z" transform="translate(-152.024 22.955)" fill="#263238"/>
        <g id="Grupo_1022383" data-name="Grupo 1022383" transform="translate(10.88 153.178)" opacity="0.1">
          <g id="Grupo_1019470-2" data-name="Grupo 1019470" transform="translate(0 0)">
            <g id="Grupo_1019469-2" data-name="Grupo 1019469" clip-path="url(#clip-path-14)">
              <path id="Trazado_747756-2" data-name="Trazado 747756" d="M183.014,152.393v-7.974l126.151-14.764v22.732Z" transform="translate(-183.014 -129.655)"/>
            </g>
          </g>
        </g>
        <path id="Trazado_751248" data-name="Trazado 751248" d="M546.275,720.566q-3.789.02-7.576,0c-17.144-2.434-18.135,33.075-2.164,33.625q3.788-.02,7.576,0c17.144,2.434,18.135-33.075,2.165-33.625" transform="translate(-404.507 -554.915)" fill="#12263f"/>
        <path id="Trazado_751249" data-name="Trazado 751249" d="M589.89,738.511c-.3,22.127-22.771,22.125-23.07,0,.3-22.126,22.771-22.124,23.07,0" transform="translate(-436.587 -556.048)" fill="#b0c0d2"/>
        <path id="Trazado_751250" data-name="Trazado 751250" d="M607.293,772.707c-.108,8.525-8.166,8.524-8.273,0,.108-8.525,8.166-8.524,8.273,0" transform="translate(-461.388 -590.243)" fill="#12263f"/>
      </g>
    </g>
    <g id="Grupo_1022413" data-name="Grupo 1022413" transform="translate(1054.271 207.862)">
      <g id="Grupo_1022385" data-name="Grupo 1022385" transform="translate(0 0)">
        <g id="Grupo_1022384" data-name="Grupo 1022384" transform="translate(0 0)" clip-path="url(#clip-path-15)">
          <path id="Trazado_751251" data-name="Trazado 751251" d="M438.589,227.976l-36.7,29.782L390.03,244.772l-15.4,14.065c1.81,2,12.6,13.749,14.078,15.476,5.965,6.985,17.6,7.005,23.6.058l33.414-37.091Z" transform="translate(-269.729 -164.14)" fill="#f4d2c6"/>
        </g>
      </g>
      <g id="Grupo_1022387" data-name="Grupo 1022387" transform="translate(104.902 63.836)">
        <g id="Grupo_1022386" data-name="Grupo 1022386" clip-path="url(#clip-path-16)">
          <path id="Trazado_751252" data-name="Trazado 751252" d="M417.579,321.6l-10.056,21.855-11.1-9.79,17.562-17.017Z" transform="translate(-390.319 -291.822)" fill="#eda19d"/>
        </g>
      </g>
      <g id="Grupo_1022389" data-name="Grupo 1022389" transform="translate(0 0)">
        <g id="Grupo_1022388" data-name="Grupo 1022388" transform="translate(0 0)" clip-path="url(#clip-path-15)">
          <path id="Trazado_751254" data-name="Trazado 751254" d="M579.461,307.153h-33.98a3.314,3.314,0,0,1-3.314-3.314V253.68a3.314,3.314,0,0,1,3.314-3.314h33.98a3.314,3.314,0,0,1,3.314,3.314v50.158a3.314,3.314,0,0,1-3.314,3.314" transform="translate(-390.352 -180.26)" fill="#12263f"/>
          <rect id="Rectángulo_358210" data-name="Rectángulo 358210" width="32.661" height="48.085" transform="translate(155.788 74.472)" fill="#f3f5fb"/>
          <path id="Trazado_751255" data-name="Trazado 751255" d="M602.4,252.86H591.117a1.326,1.326,0,0,1-1.326-1.326v-4.31a1.326,1.326,0,0,1,1.326-1.326H602.4a1.326,1.326,0,0,1,1.326,1.326v4.31a1.326,1.326,0,0,1-1.326,1.326" transform="translate(-424.641 -177.043)" fill="#e6b046"/>
          <rect id="Rectángulo_358211" data-name="Rectángulo 358211" width="27.124" height="3.27" transform="translate(158.557 82.495)" fill="#e3eaf4"/>
          <rect id="Rectángulo_358212" data-name="Rectángulo 358212" width="27.124" height="3.27" transform="translate(158.557 89.68)" fill="#e3eaf4"/>
          <rect id="Rectángulo_358213" data-name="Rectángulo 358213" width="27.124" height="3.27" transform="translate(158.557 96.864)" fill="#e3eaf4"/>
          <rect id="Rectángulo_358214" data-name="Rectángulo 358214" width="27.124" height="3.27" transform="translate(158.557 104.048)" fill="#e3eaf4"/>
          <rect id="Rectángulo_358215" data-name="Rectángulo 358215" width="19.018" height="3.27" transform="translate(158.557 111.233)" fill="#e3eaf4"/>
          <path id="Trazado_751256" data-name="Trazado 751256" d="M595.577,224.638c-.511,4.3,3.006,6.531,6.357,8.216,4.885,3,11.661-1.913,10.192-7.5-.526-3.952-3.054-5.878-6.749-6.786-4.144-1.339-9.453,1.535-9.8,6.071" transform="translate(-428.771 -157.128)" fill="#f4d2c6"/>
          <rect id="Rectángulo_358216" data-name="Rectángulo 358216" width="45.011" height="27.389" transform="translate(29.104 72.025) rotate(-27.68)" fill="#e6b046"/>
          <path id="Trazado_751257" data-name="Trazado 751257" d="M50.725,297.141l12.94-8.662-9.041-15.931c-7.654,4.512-20.245,9.189-20.069,19.945.691,4.4-5.095,53.243-.353,55.347,5.586,6.359,11.728,1.154,16.848-2.614l-7.157-.071Z" transform="translate(-23.268 -196.231)" fill="#f4d2c6"/>
        </g>
      </g>
      <g id="Grupo_1022391" data-name="Grupo 1022391" transform="translate(9.049 76.317)">
        <g id="Grupo_1022390" data-name="Grupo 1022390" clip-path="url(#clip-path-18)">
          <path id="Trazado_751258" data-name="Trazado 751258" d="M91.629,262.616l4.682,18.737,10.734-6.988-7.351-16.033Z" transform="translate(-75.021 -262.312)" fill="#eda19d"/>
        </g>
      </g>
      <g id="Grupo_1022393" data-name="Grupo 1022393" transform="translate(0 0)">
        <g id="Grupo_1022392" data-name="Grupo 1022392" transform="translate(0 0)" clip-path="url(#clip-path-15)">
          <rect id="Rectángulo_358218" data-name="Rectángulo 358218" width="27.389" height="45.011" transform="translate(81.674 76.354) rotate(-45)" fill="#e6b046"/>
          <path id="Trazado_751260" data-name="Trazado 751260" d="M394,308.706l-5.343-29.261,9.031,25.573Z" transform="translate(-279.831 -201.197)" fill="#d59d31"/>
          <path id="Trazado_751261" data-name="Trazado 751261" d="M168.81,436.9l3.4,178.277H184.2l25.126-178.678Z" transform="translate(-121.541 -314.27)" fill="#668cc8"/>
        </g>
      </g>
      <g id="Grupo_1022395" data-name="Grupo 1022395" transform="translate(47.269 122.224)">
        <g id="Grupo_1022394" data-name="Grupo 1022394" clip-path="url(#clip-path-20)">
          <path id="Trazado_751262" data-name="Trazado 751262" d="M227.638,607.5c-17.42,23.141-22.666,99.908-24.041,133.214h10.517l13.008-81.676Z" transform="translate(-193.856 -559.616)" fill="#466fb1"/>
        </g>
      </g>
      <g id="Grupo_1022397" data-name="Grupo 1022397" transform="translate(0 0)">
        <g id="Grupo_1022396" data-name="Grupo 1022396" transform="translate(0 0)" clip-path="url(#clip-path-15)">
          <path id="Trazado_751264" data-name="Trazado 751264" d="M306.468,436.9l-3.4,178.277H290.508L265.953,436.494Z" transform="translate(-191.482 -314.27)" fill="#668cc8"/>
        </g>
      </g>
      <g id="Grupo_1022399" data-name="Grupo 1022399" transform="translate(74.471 122.224)">
        <g id="Grupo_1022398" data-name="Grupo 1022398" clip-path="url(#clip-path-22)">
          <path id="Trazado_751265" data-name="Trazado 751265" d="M289.454,607.5c14.811,18.818,22.978,105.165,23.34,132.171h-9.663Z" transform="translate(-282.873 -559.616)" fill="#466fb1"/>
        </g>
      </g>
      <g id="Grupo_1022401" data-name="Grupo 1022401" transform="translate(0 0)">
        <g id="Grupo_1022400" data-name="Grupo 1022400" transform="translate(0 0)" clip-path="url(#clip-path-15)">
          <path id="Trazado_751267" data-name="Trazado 751267" d="M235.28,76.293c.922,5.54-3.845,6.35-4.8.816-.922-5.54,3.846-6.35,4.8-.816" transform="translate(-165.854 -52.218)" fill="#eda19d"/>
          <path id="Trazado_751268" data-name="Trazado 751268" d="M329.594,76.293c-.922,5.54,3.846,6.35,4.8.816.922-5.54-3.846-6.35-4.8-.816" transform="translate(-237.218 -52.218)" fill="#eda19d"/>
          <path id="Trazado_751269" data-name="Trazado 751269" d="M267.143,45.132c-.339,21.83-26.943,21.827-27.28,0-2.419-22.346,28.977-22.564,27.28,0" transform="translate(-172.602 -20.369)" fill="#f4d2c6"/>
        </g>
      </g>
      <g id="Grupo_1022403" data-name="Grupo 1022403" transform="translate(67.128 7.921)">
        <g id="Grupo_1022402" data-name="Grupo 1022402" clip-path="url(#clip-path-24)">
          <path id="Trazado_751270" data-name="Trazado 751270" d="M244.421,43.28s10.31,2.132,24.134-1.707h0l-1.5-4.94-20.118.715-2.52,5.089" transform="translate(-243.108 -34.297)" fill="#eda19d"/>
        </g>
      </g>
      <g id="Grupo_1022405" data-name="Grupo 1022405" transform="translate(0 0)">
        <g id="Grupo_1022404" data-name="Grupo 1022404" transform="translate(0 0)" clip-path="url(#clip-path-15)">
          <path id="Trazado_751272" data-name="Trazado 751272" d="M272.626,102.757H258.488c1.706,4.869-2.016,29.253-2.016,29.253h18.17s-3.721-24.384-2.016-29.253" transform="translate(-184.656 -73.984)" fill="#f4d2c6"/>
          <path id="Trazado_751273" data-name="Trazado 751273" d="M263.357,139.626a11.959,11.959,0,0,0,13.751,0l.387,4.423s-7.909,3.7-14.527.045Z" transform="translate(-189.333 -100.529)" fill="#eda19d"/>
          <path id="Trazado_751274" data-name="Trazado 751274" d="M244.634,13s17.837,1.776,22.437-.969S270.7,0,270.7,0C268.088.42,238.456-.3,244.634,13" transform="translate(-175.524 -0.003)" fill="#59445a"/>
          <path id="Trazado_751275" data-name="Trazado 751275" d="M233.522,25.123s-4.982,1.495-5.58,3.537,3.578,9.94,3.578,9.94a2.431,2.431,0,0,0,2.344-1.88l1.551-6.665Z" transform="translate(-164.072 -18.089)" fill="#59445a"/>
          <path id="Trazado_751276" data-name="Trazado 751276" d="M324.815,25.123s4.982,1.495,5.58,3.537-3.578,9.94-3.578,9.94a2.461,2.461,0,0,1-2.345-1.882l-1.551-6.663Z" transform="translate(-232.499 -18.089)" fill="#59445a"/>
          <path id="Trazado_751277" data-name="Trazado 751277" d="M322.922,32.79s4.025-2.33,4.118-4.648c0,0,1.519,5.59-4.118,4.648" transform="translate(-232.499 -20.262)" fill="#34254b"/>
          <path id="Trazado_751278" data-name="Trazado 751278" d="M140.79,1074.6l-1.323,4.635-14.291,6.125a4.631,4.631,0,0,0-2.806,4.256h29.513l-1.12-15.015Z" transform="translate(-88.105 -773.693)" fill="#e6b046"/>
          <path id="Trazado_751279" data-name="Trazado 751279" d="M360.741,1074.6l1.323,4.635,14.291,6.125a4.631,4.631,0,0,1,2.806,4.256H349.648l1.12-15.015Z" transform="translate(-251.741 -773.693)" fill="#e6b046"/>
          <path id="Trazado_751280" data-name="Trazado 751280" d="M218.75,200.539c-2.691-17.925-16.379-26.908-31.717-24.921-12.247-.451-23.282,12.006-24.806,24.941-.2,1.294-9.995,66.028-9.995,66.028h76.516Z" transform="translate(-109.605 -126.248)" fill="#e6b046"/>
        </g>
      </g>
      <g id="Grupo_1022407" data-name="Grupo 1022407" transform="translate(42.627 49.1)">
        <g id="Grupo_1022406" data-name="Grupo 1022406" clip-path="url(#clip-path-26)">
          <path id="Trazado_751281" data-name="Trazado 751281" d="M168.951,345.057l14.088-15.093-29.512-47.915L163.6,326.536,133.368,347.8Z" transform="translate(-138.65 -252.171)" fill="#d59d31"/>
        </g>
      </g>
      <g id="Grupo_1022409" data-name="Grupo 1022409" transform="translate(0 0)">
        <g id="Grupo_1022408" data-name="Grupo 1022408" transform="translate(0 0)" clip-path="url(#clip-path-15)">
          <rect id="Rectángulo_358223" data-name="Rectángulo 358223" width="62.962" height="51.844" transform="translate(0 104.619) rotate(-24.033)" fill="#f0dcc0"/>
          <rect id="Rectángulo_358224" data-name="Rectángulo 358224" width="9.788" height="7.795" transform="translate(24.282 93.791) rotate(-24.032)" fill="#fdf1e6"/>
          <path id="Trazado_751283" data-name="Trazado 751283" d="M57.812,516.871c3.04.666,8.9.47,9.469,4.62l-9.469.478Z" transform="translate(-41.624 -372.14)" fill="#f4d2c6"/>
          <path id="Trazado_751284" data-name="Trazado 751284" d="M260.443,173.832c2.762,8.19,13.186,8.187,15.946,0,0,0-6.82-3.691-15.946,0" transform="translate(-187.515 -123.976)" fill="#f4d2c6"/>
          <path id="Trazado_751285" data-name="Trazado 751285" d="M169.862,501.241h67.085l-66.793,12.98Z" transform="translate(-122.298 -360.886)" fill="#466fb1"/>
          <path id="Trazado_751286" data-name="Trazado 751286" d="M253.751,178.05l7.608,6.166-3.15,1.991c-5.024,2.641-5.84-4.314-7.061-7.416a11.038,11.038,0,0,1,2.6-.741" transform="translate(-180.824 -128.194)" fill="#f3f5fb"/>
          <path id="Trazado_751287" data-name="Trazado 751287" d="M294.42,184.069l2.962,1.838a3.491,3.491,0,0,0,5.268-2.3l.918-4.759s-2.076-.688-2.716-.793Z" transform="translate(-211.978 -128.194)" fill="#f3f5fb"/>
        </g>
      </g>
    </g>
  </g>
</svg>
