<svg xmlns="http://www.w3.org/2000/svg" width="120.437" height="120.437" viewBox="0 0 120.437 120.437">
  <g id="Grupo_1024393" data-name="Grupo 1024393" transform="translate(-1283.563 -4111.782)">
    <path id="Trazado_750200" data-name="Trazado 750200" d="M60.218,0A60.218,60.218,0,1,1,0,60.218,60.218,60.218,0,0,1,60.218,0Z" transform="translate(1283.563 4111.782)" fill="#31313c" opacity="0.444" style="mix-blend-mode: multiply;isolation: isolate"/>
    <g id="Grupo_1021537" data-name="Grupo 1021537" transform="translate(1307.075 4136.677)">
      <g id="Grupo_53306" data-name="Grupo 53306">
        <path id="Trazado_99200" data-name="Trazado 99200" d="M415.849,51.006a.819.819,0,1,1-.818-.782A.8.8,0,0,1,415.849,51.006Z" transform="translate(-414.214 -50.224)" fill="#fff"/>
        <path id="Trazado_99201" data-name="Trazado 99201" d="M424.3,51.006a.819.819,0,1,1-.817-.782A.8.8,0,0,1,424.3,51.006Z" transform="translate(-415.301 -50.224)" fill="#fff"/>
        <path id="Trazado_99202" data-name="Trazado 99202" d="M432.741,51.006a.819.819,0,1,1-.817-.782A.8.8,0,0,1,432.741,51.006Z" transform="translate(-416.388 -50.224)" fill="#fff"/>
        <path id="Trazado_99203" data-name="Trazado 99203" d="M441.188,51.006a.819.819,0,1,1-.818-.782A.8.8,0,0,1,441.188,51.006Z" transform="translate(-417.475 -50.224)" fill="#fff"/>
        <path id="Trazado_99204" data-name="Trazado 99204" d="M449.634,51.006a.819.819,0,1,1-.817-.782A.8.8,0,0,1,449.634,51.006Z" transform="translate(-418.562 -50.224)" fill="#fff"/>
        <path id="Trazado_99205" data-name="Trazado 99205" d="M458.08,51.006a.819.819,0,1,1-.817-.782A.8.8,0,0,1,458.08,51.006Z" transform="translate(-419.649 -50.224)" fill="#fff"/>
        <path id="Trazado_99206" data-name="Trazado 99206" d="M466.527,51.006a.819.819,0,1,1-.818-.782A.8.8,0,0,1,466.527,51.006Z" transform="translate(-420.736 -50.224)" fill="#fff"/>
        <path id="Trazado_99207" data-name="Trazado 99207" d="M474.974,51.006a.819.819,0,1,1-.817-.782A.8.8,0,0,1,474.974,51.006Z" transform="translate(-421.824 -50.224)" fill="#fff"/>
        <path id="Trazado_99208" data-name="Trazado 99208" d="M483.419,51.006a.819.819,0,1,1-.817-.782A.8.8,0,0,1,483.419,51.006Z" transform="translate(-422.91 -50.224)" fill="#fff"/>
        <path id="Trazado_99209" data-name="Trazado 99209" d="M491.866,51.006a.819.819,0,1,1-.818-.782A.8.8,0,0,1,491.866,51.006Z" transform="translate(-423.998 -50.224)" fill="#fff"/>
        <path id="Trazado_99210" data-name="Trazado 99210" d="M500.313,51.006a.819.819,0,1,1-.818-.782A.8.8,0,0,1,500.313,51.006Z" transform="translate(-425.085 -50.224)" fill="#fff"/>
      </g>
      <g id="Grupo_53307" data-name="Grupo 53307" transform="translate(0 6.256)">
        <path id="Trazado_99211" data-name="Trazado 99211" d="M415.849,58.514a.819.819,0,1,1-.818-.782A.8.8,0,0,1,415.849,58.514Z" transform="translate(-414.214 -57.732)" fill="#fff"/>
        <path id="Trazado_99212" data-name="Trazado 99212" d="M424.3,58.514a.819.819,0,1,1-.817-.782A.8.8,0,0,1,424.3,58.514Z" transform="translate(-415.301 -57.732)" fill="#fff"/>
        <path id="Trazado_99213" data-name="Trazado 99213" d="M432.741,58.514a.819.819,0,1,1-.817-.782A.8.8,0,0,1,432.741,58.514Z" transform="translate(-416.388 -57.732)" fill="#fff"/>
        <path id="Trazado_99214" data-name="Trazado 99214" d="M441.188,58.514a.819.819,0,1,1-.818-.782A.8.8,0,0,1,441.188,58.514Z" transform="translate(-417.475 -57.732)" fill="#fff"/>
        <path id="Trazado_99215" data-name="Trazado 99215" d="M449.634,58.514a.819.819,0,1,1-.817-.782A.8.8,0,0,1,449.634,58.514Z" transform="translate(-418.562 -57.732)" fill="#fff"/>
        <path id="Trazado_99216" data-name="Trazado 99216" d="M458.08,58.514a.819.819,0,1,1-.817-.782A.8.8,0,0,1,458.08,58.514Z" transform="translate(-419.649 -57.732)" fill="#fff"/>
        <path id="Trazado_99217" data-name="Trazado 99217" d="M466.527,58.514a.819.819,0,1,1-.818-.782A.8.8,0,0,1,466.527,58.514Z" transform="translate(-420.736 -57.732)" fill="#fff"/>
        <path id="Trazado_99218" data-name="Trazado 99218" d="M474.974,58.514a.819.819,0,1,1-.817-.782A.8.8,0,0,1,474.974,58.514Z" transform="translate(-421.824 -57.732)" fill="#fff"/>
        <path id="Trazado_99219" data-name="Trazado 99219" d="M483.419,58.514a.819.819,0,1,1-.817-.782A.8.8,0,0,1,483.419,58.514Z" transform="translate(-422.91 -57.732)" fill="#fff"/>
        <path id="Trazado_99220" data-name="Trazado 99220" d="M491.866,58.514a.819.819,0,1,1-.818-.782A.8.8,0,0,1,491.866,58.514Z" transform="translate(-423.998 -57.732)" fill="#fff"/>
        <path id="Trazado_99221" data-name="Trazado 99221" d="M500.313,58.514a.819.819,0,1,1-.818-.782A.8.8,0,0,1,500.313,58.514Z" transform="translate(-425.085 -57.732)" fill="#fff"/>
      </g>
      <g id="Grupo_53308" data-name="Grupo 53308" transform="translate(0 12.512)">
        <ellipse id="Elipse_3955" data-name="Elipse 3955" cx="0.818" cy="0.782" rx="0.818" ry="0.782" fill="#fff"/>
        <path id="Trazado_99222" data-name="Trazado 99222" d="M424.3,66.022a.819.819,0,1,1-.817-.782A.8.8,0,0,1,424.3,66.022Z" transform="translate(-415.301 -65.24)" fill="#fff"/>
        <ellipse id="Elipse_3956" data-name="Elipse 3956" cx="0.818" cy="0.782" rx="0.818" ry="0.782" transform="translate(14.718)" fill="#fff"/>
        <path id="Trazado_99223" data-name="Trazado 99223" d="M441.188,66.022a.819.819,0,1,1-.818-.782A.8.8,0,0,1,441.188,66.022Z" transform="translate(-417.475 -65.24)" fill="#fff"/>
        <path id="Trazado_99224" data-name="Trazado 99224" d="M449.634,66.022a.819.819,0,1,1-.817-.782A.8.8,0,0,1,449.634,66.022Z" transform="translate(-418.562 -65.24)" fill="#fff"/>
        <ellipse id="Elipse_3957" data-name="Elipse 3957" cx="0.818" cy="0.782" rx="0.818" ry="0.782" transform="translate(36.796)" fill="#fff"/>
        <path id="Trazado_99225" data-name="Trazado 99225" d="M466.527,66.022a.819.819,0,1,1-.818-.782A.8.8,0,0,1,466.527,66.022Z" transform="translate(-420.736 -65.24)" fill="#fff"/>
        <ellipse id="Elipse_3958" data-name="Elipse 3958" cx="0.818" cy="0.782" rx="0.818" ry="0.782" transform="translate(51.515)" fill="#fff"/>
        <ellipse id="Elipse_3959" data-name="Elipse 3959" cx="0.818" cy="0.782" rx="0.818" ry="0.782" transform="translate(58.874)" fill="#fff"/>
        <path id="Trazado_99226" data-name="Trazado 99226" d="M491.866,66.022a.819.819,0,1,1-.818-.782A.8.8,0,0,1,491.866,66.022Z" transform="translate(-423.998 -65.24)" fill="#fff"/>
        <path id="Trazado_99227" data-name="Trazado 99227" d="M500.313,66.022a.819.819,0,1,1-.818-.782A.8.8,0,0,1,500.313,66.022Z" transform="translate(-425.085 -65.24)" fill="#fff"/>
      </g>
      <g id="Grupo_53309" data-name="Grupo 53309" transform="translate(0 18.767)">
        <ellipse id="Elipse_3960" data-name="Elipse 3960" cx="0.818" cy="0.782" rx="0.818" ry="0.782" transform="translate(0 0)" fill="#fff"/>
        <path id="Trazado_99228" data-name="Trazado 99228" d="M424.3,73.529a.818.818,0,1,1-.817-.782A.8.8,0,0,1,424.3,73.529Z" transform="translate(-415.301 -72.747)" fill="#fff"/>
        <ellipse id="Elipse_3961" data-name="Elipse 3961" cx="0.818" cy="0.782" rx="0.818" ry="0.782" transform="translate(14.718 0)" fill="#fff"/>
        <path id="Trazado_99229" data-name="Trazado 99229" d="M441.188,73.529a.818.818,0,1,1-.818-.782A.8.8,0,0,1,441.188,73.529Z" transform="translate(-417.475 -72.747)" fill="#fff"/>
        <path id="Trazado_99230" data-name="Trazado 99230" d="M449.634,73.529a.819.819,0,1,1-.817-.782A.8.8,0,0,1,449.634,73.529Z" transform="translate(-418.562 -72.747)" fill="#fff"/>
        <ellipse id="Elipse_3962" data-name="Elipse 3962" cx="0.818" cy="0.782" rx="0.818" ry="0.782" transform="translate(36.796 0)" fill="#fff"/>
        <path id="Trazado_99231" data-name="Trazado 99231" d="M466.527,73.529a.819.819,0,1,1-.818-.782A.8.8,0,0,1,466.527,73.529Z" transform="translate(-420.736 -72.747)" fill="#fff"/>
        <ellipse id="Elipse_3963" data-name="Elipse 3963" cx="0.818" cy="0.782" rx="0.818" ry="0.782" transform="translate(51.515 0)" fill="#fff"/>
        <ellipse id="Elipse_3964" data-name="Elipse 3964" cx="0.818" cy="0.782" rx="0.818" ry="0.782" transform="translate(58.874 0)" fill="#fff"/>
        <path id="Trazado_99232" data-name="Trazado 99232" d="M491.866,73.529a.818.818,0,1,1-.818-.782A.8.8,0,0,1,491.866,73.529Z" transform="translate(-423.998 -72.747)" fill="#fff"/>
        <path id="Trazado_99233" data-name="Trazado 99233" d="M500.313,73.529a.818.818,0,1,1-.818-.782A.8.8,0,0,1,500.313,73.529Z" transform="translate(-425.085 -72.747)" fill="#fff"/>
      </g>
      <g id="Grupo_53310" data-name="Grupo 53310" transform="translate(0 25.023)">
        <path id="Trazado_99234" data-name="Trazado 99234" d="M415.849,81.037a.819.819,0,1,1-.818-.782A.8.8,0,0,1,415.849,81.037Z" transform="translate(-414.214 -80.255)" fill="#fff"/>
        <path id="Trazado_99235" data-name="Trazado 99235" d="M424.3,81.037a.818.818,0,1,1-.817-.782A.8.8,0,0,1,424.3,81.037Z" transform="translate(-415.301 -80.255)" fill="#fff"/>
        <path id="Trazado_99236" data-name="Trazado 99236" d="M432.741,81.037a.819.819,0,1,1-.817-.782A.8.8,0,0,1,432.741,81.037Z" transform="translate(-416.388 -80.255)" fill="#fff"/>
        <path id="Trazado_99237" data-name="Trazado 99237" d="M441.188,81.037a.818.818,0,1,1-.818-.782A.8.8,0,0,1,441.188,81.037Z" transform="translate(-417.475 -80.255)" fill="#fff"/>
        <path id="Trazado_99238" data-name="Trazado 99238" d="M449.634,81.037a.819.819,0,1,1-.817-.782A.8.8,0,0,1,449.634,81.037Z" transform="translate(-418.562 -80.255)" fill="#fff"/>
        <path id="Trazado_99239" data-name="Trazado 99239" d="M458.08,81.037a.818.818,0,1,1-.817-.782A.8.8,0,0,1,458.08,81.037Z" transform="translate(-419.649 -80.255)" fill="#fff"/>
        <path id="Trazado_99240" data-name="Trazado 99240" d="M466.527,81.037a.819.819,0,1,1-.818-.782A.8.8,0,0,1,466.527,81.037Z" transform="translate(-420.736 -80.255)" fill="#fff"/>
        <path id="Trazado_99241" data-name="Trazado 99241" d="M474.974,81.037a.818.818,0,1,1-.817-.782A.8.8,0,0,1,474.974,81.037Z" transform="translate(-421.824 -80.255)" fill="#fff"/>
        <path id="Trazado_99242" data-name="Trazado 99242" d="M483.419,81.037a.819.819,0,1,1-.817-.782A.8.8,0,0,1,483.419,81.037Z" transform="translate(-422.91 -80.255)" fill="#fff"/>
        <path id="Trazado_99243" data-name="Trazado 99243" d="M491.866,81.037a.818.818,0,1,1-.818-.782A.8.8,0,0,1,491.866,81.037Z" transform="translate(-423.998 -80.255)" fill="#fff"/>
        <path id="Trazado_99244" data-name="Trazado 99244" d="M500.313,81.037a.818.818,0,1,1-.818-.782A.8.8,0,0,1,500.313,81.037Z" transform="translate(-425.085 -80.255)" fill="#fff"/>
      </g>
      <g id="Grupo_53311" data-name="Grupo 53311" transform="translate(0 31.279)">
        <ellipse id="Elipse_3965" data-name="Elipse 3965" cx="0.818" cy="0.782" rx="0.818" ry="0.782" transform="translate(0 0)" fill="#fff"/>
        <path id="Trazado_99245" data-name="Trazado 99245" d="M424.3,88.545a.818.818,0,1,1-.817-.782A.8.8,0,0,1,424.3,88.545Z" transform="translate(-415.301 -87.763)" fill="#fff"/>
        <ellipse id="Elipse_3966" data-name="Elipse 3966" cx="0.818" cy="0.782" rx="0.818" ry="0.782" transform="translate(14.718 0)" fill="#fff"/>
        <path id="Trazado_99246" data-name="Trazado 99246" d="M441.188,88.545a.818.818,0,1,1-.818-.782A.8.8,0,0,1,441.188,88.545Z" transform="translate(-417.475 -87.763)" fill="#fff"/>
        <path id="Trazado_99247" data-name="Trazado 99247" d="M449.634,88.545a.819.819,0,1,1-.817-.782A.8.8,0,0,1,449.634,88.545Z" transform="translate(-418.562 -87.763)" fill="#fff"/>
        <ellipse id="Elipse_3967" data-name="Elipse 3967" cx="0.818" cy="0.782" rx="0.818" ry="0.782" transform="translate(36.796 0)" fill="#fff"/>
        <path id="Trazado_99248" data-name="Trazado 99248" d="M466.527,88.545a.819.819,0,1,1-.818-.782A.8.8,0,0,1,466.527,88.545Z" transform="translate(-420.736 -87.763)" fill="#fff"/>
        <ellipse id="Elipse_3968" data-name="Elipse 3968" cx="0.818" cy="0.782" rx="0.818" ry="0.782" transform="translate(51.515 0)" fill="#fff"/>
        <ellipse id="Elipse_3969" data-name="Elipse 3969" cx="0.818" cy="0.782" rx="0.818" ry="0.782" transform="translate(58.874 0)" fill="#fff"/>
        <path id="Trazado_99249" data-name="Trazado 99249" d="M491.866,88.545a.818.818,0,1,1-.818-.782A.8.8,0,0,1,491.866,88.545Z" transform="translate(-423.998 -87.763)" fill="#fff"/>
        <path id="Trazado_99250" data-name="Trazado 99250" d="M500.313,88.545a.818.818,0,1,1-.818-.782A.8.8,0,0,1,500.313,88.545Z" transform="translate(-425.085 -87.763)" fill="#fff"/>
      </g>
      <g id="Grupo_53312" data-name="Grupo 53312" transform="translate(0 37.535)">
        <ellipse id="Elipse_3970" data-name="Elipse 3970" cx="0.818" cy="0.782" rx="0.818" ry="0.782" fill="#fff"/>
        <path id="Trazado_99251" data-name="Trazado 99251" d="M424.3,96.053a.819.819,0,1,1-.817-.782A.8.8,0,0,1,424.3,96.053Z" transform="translate(-415.301 -95.271)" fill="#fff"/>
        <ellipse id="Elipse_3971" data-name="Elipse 3971" cx="0.818" cy="0.782" rx="0.818" ry="0.782" transform="translate(14.718)" fill="#fff"/>
        <path id="Trazado_99252" data-name="Trazado 99252" d="M441.188,96.053a.819.819,0,1,1-.818-.782A.8.8,0,0,1,441.188,96.053Z" transform="translate(-417.475 -95.271)" fill="#fff"/>
        <path id="Trazado_99253" data-name="Trazado 99253" d="M449.634,96.053a.819.819,0,1,1-.817-.782A.8.8,0,0,1,449.634,96.053Z" transform="translate(-418.562 -95.271)" fill="#fff"/>
        <ellipse id="Elipse_3972" data-name="Elipse 3972" cx="0.818" cy="0.782" rx="0.818" ry="0.782" transform="translate(36.796)" fill="#fff"/>
        <path id="Trazado_99254" data-name="Trazado 99254" d="M466.527,96.053a.819.819,0,1,1-.818-.782A.8.8,0,0,1,466.527,96.053Z" transform="translate(-420.736 -95.271)" fill="#fff"/>
        <ellipse id="Elipse_3973" data-name="Elipse 3973" cx="0.818" cy="0.782" rx="0.818" ry="0.782" transform="translate(51.515)" fill="#fff"/>
        <ellipse id="Elipse_3974" data-name="Elipse 3974" cx="0.818" cy="0.782" rx="0.818" ry="0.782" transform="translate(58.874)" fill="#fff"/>
        <path id="Trazado_99255" data-name="Trazado 99255" d="M491.866,96.053a.819.819,0,1,1-.818-.782A.8.8,0,0,1,491.866,96.053Z" transform="translate(-423.998 -95.271)" fill="#fff"/>
        <path id="Trazado_99256" data-name="Trazado 99256" d="M500.313,96.053a.819.819,0,1,1-.818-.782A.8.8,0,0,1,500.313,96.053Z" transform="translate(-425.085 -95.271)" fill="#fff"/>
      </g>
      <g id="Grupo_53313" data-name="Grupo 53313" transform="translate(0 43.791)">
        <path id="Trazado_99257" data-name="Trazado 99257" d="M415.849,103.561a.819.819,0,1,1-.818-.782A.8.8,0,0,1,415.849,103.561Z" transform="translate(-414.214 -102.779)" fill="#fff"/>
        <path id="Trazado_99258" data-name="Trazado 99258" d="M424.3,103.561a.819.819,0,1,1-.817-.782A.8.8,0,0,1,424.3,103.561Z" transform="translate(-415.301 -102.779)" fill="#fff"/>
        <path id="Trazado_99259" data-name="Trazado 99259" d="M432.741,103.561a.819.819,0,1,1-.817-.782A.8.8,0,0,1,432.741,103.561Z" transform="translate(-416.388 -102.779)" fill="#fff"/>
        <path id="Trazado_99260" data-name="Trazado 99260" d="M441.188,103.561a.819.819,0,1,1-.818-.782A.8.8,0,0,1,441.188,103.561Z" transform="translate(-417.475 -102.779)" fill="#fff"/>
        <path id="Trazado_99261" data-name="Trazado 99261" d="M449.634,103.561a.819.819,0,1,1-.817-.782A.8.8,0,0,1,449.634,103.561Z" transform="translate(-418.562 -102.779)" fill="#fff"/>
        <path id="Trazado_99262" data-name="Trazado 99262" d="M458.08,103.561a.819.819,0,1,1-.817-.782A.8.8,0,0,1,458.08,103.561Z" transform="translate(-419.649 -102.779)" fill="#fff"/>
        <path id="Trazado_99263" data-name="Trazado 99263" d="M466.527,103.561a.819.819,0,1,1-.818-.782A.8.8,0,0,1,466.527,103.561Z" transform="translate(-420.736 -102.779)" fill="#fff"/>
        <path id="Trazado_99264" data-name="Trazado 99264" d="M474.974,103.561a.819.819,0,1,1-.817-.782A.8.8,0,0,1,474.974,103.561Z" transform="translate(-421.824 -102.779)" fill="#fff"/>
        <path id="Trazado_99265" data-name="Trazado 99265" d="M483.419,103.561a.819.819,0,1,1-.817-.782A.8.8,0,0,1,483.419,103.561Z" transform="translate(-422.91 -102.779)" fill="#fff"/>
        <path id="Trazado_99266" data-name="Trazado 99266" d="M491.866,103.561a.819.819,0,1,1-.818-.782A.8.8,0,0,1,491.866,103.561Z" transform="translate(-423.998 -102.779)" fill="#fff"/>
        <path id="Trazado_99267" data-name="Trazado 99267" d="M500.313,103.561a.819.819,0,1,1-.818-.782A.8.8,0,0,1,500.313,103.561Z" transform="translate(-425.085 -102.779)" fill="#fff"/>
      </g>
      <g id="Grupo_53314" data-name="Grupo 53314" transform="translate(0 50.047)">
        <ellipse id="Elipse_3975" data-name="Elipse 3975" cx="0.818" cy="0.782" rx="0.818" ry="0.782" fill="#fff"/>
        <path id="Trazado_99268" data-name="Trazado 99268" d="M424.3,111.069a.819.819,0,1,1-.817-.782A.8.8,0,0,1,424.3,111.069Z" transform="translate(-415.301 -110.287)" fill="#fff"/>
        <ellipse id="Elipse_3976" data-name="Elipse 3976" cx="0.818" cy="0.782" rx="0.818" ry="0.782" transform="translate(14.718)" fill="#fff"/>
        <path id="Trazado_99269" data-name="Trazado 99269" d="M441.188,111.069a.819.819,0,1,1-.818-.782A.8.8,0,0,1,441.188,111.069Z" transform="translate(-417.475 -110.287)" fill="#fff"/>
        <path id="Trazado_99270" data-name="Trazado 99270" d="M449.634,111.069a.819.819,0,1,1-.817-.782A.8.8,0,0,1,449.634,111.069Z" transform="translate(-418.562 -110.287)" fill="#fff"/>
        <ellipse id="Elipse_3977" data-name="Elipse 3977" cx="0.818" cy="0.782" rx="0.818" ry="0.782" transform="translate(36.796)" fill="#fff"/>
        <path id="Trazado_99271" data-name="Trazado 99271" d="M466.527,111.069a.819.819,0,1,1-.818-.782A.8.8,0,0,1,466.527,111.069Z" transform="translate(-420.736 -110.287)" fill="#fff"/>
        <ellipse id="Elipse_3978" data-name="Elipse 3978" cx="0.818" cy="0.782" rx="0.818" ry="0.782" transform="translate(51.515)" fill="#fff"/>
        <ellipse id="Elipse_3979" data-name="Elipse 3979" cx="0.818" cy="0.782" rx="0.818" ry="0.782" transform="translate(58.874)" fill="#fff"/>
        <path id="Trazado_99272" data-name="Trazado 99272" d="M491.866,111.069a.819.819,0,1,1-.818-.782A.8.8,0,0,1,491.866,111.069Z" transform="translate(-423.998 -110.287)" fill="#fff"/>
        <path id="Trazado_99273" data-name="Trazado 99273" d="M500.313,111.069a.819.819,0,1,1-.818-.782A.8.8,0,0,1,500.313,111.069Z" transform="translate(-425.085 -110.287)" fill="#fff"/>
      </g>
      <g id="Grupo_53315" data-name="Grupo 53315" transform="translate(0 56.302)">
        <path id="Trazado_99274" data-name="Trazado 99274" d="M415.849,118.576a.819.819,0,1,1-.818-.782A.8.8,0,0,1,415.849,118.576Z" transform="translate(-414.214 -117.794)" fill="#fff"/>
        <path id="Trazado_99275" data-name="Trazado 99275" d="M424.3,118.576a.818.818,0,1,1-.817-.782A.8.8,0,0,1,424.3,118.576Z" transform="translate(-415.301 -117.794)" fill="#fff"/>
        <path id="Trazado_99276" data-name="Trazado 99276" d="M432.741,118.576a.819.819,0,1,1-.817-.782A.8.8,0,0,1,432.741,118.576Z" transform="translate(-416.388 -117.794)" fill="#fff"/>
        <path id="Trazado_99277" data-name="Trazado 99277" d="M441.188,118.576a.818.818,0,1,1-.818-.782A.8.8,0,0,1,441.188,118.576Z" transform="translate(-417.475 -117.794)" fill="#fff"/>
        <path id="Trazado_99278" data-name="Trazado 99278" d="M449.634,118.576a.819.819,0,1,1-.817-.782A.8.8,0,0,1,449.634,118.576Z" transform="translate(-418.562 -117.794)" fill="#fff"/>
        <path id="Trazado_99279" data-name="Trazado 99279" d="M458.08,118.576a.818.818,0,1,1-.817-.782A.8.8,0,0,1,458.08,118.576Z" transform="translate(-419.649 -117.794)" fill="#fff"/>
        <path id="Trazado_99280" data-name="Trazado 99280" d="M466.527,118.576a.819.819,0,1,1-.818-.782A.8.8,0,0,1,466.527,118.576Z" transform="translate(-420.736 -117.794)" fill="#fff"/>
        <path id="Trazado_99281" data-name="Trazado 99281" d="M474.974,118.576a.818.818,0,1,1-.817-.782A.8.8,0,0,1,474.974,118.576Z" transform="translate(-421.824 -117.794)" fill="#fff"/>
        <path id="Trazado_99282" data-name="Trazado 99282" d="M483.419,118.576a.819.819,0,1,1-.817-.782A.8.8,0,0,1,483.419,118.576Z" transform="translate(-422.91 -117.794)" fill="#fff"/>
        <path id="Trazado_99283" data-name="Trazado 99283" d="M491.866,118.576a.818.818,0,1,1-.818-.782A.8.8,0,0,1,491.866,118.576Z" transform="translate(-423.998 -117.794)" fill="#fff"/>
        <path id="Trazado_99284" data-name="Trazado 99284" d="M500.313,118.576a.818.818,0,1,1-.818-.782A.8.8,0,0,1,500.313,118.576Z" transform="translate(-425.085 -117.794)" fill="#fff"/>
      </g>
      <g id="Grupo_53316" data-name="Grupo 53316" transform="translate(0 62.558)">
        <ellipse id="Elipse_3980" data-name="Elipse 3980" cx="0.818" cy="0.782" rx="0.818" ry="0.782" transform="translate(0 0)" fill="#fff"/>
        <path id="Trazado_99285" data-name="Trazado 99285" d="M424.3,126.084a.818.818,0,1,1-.817-.782A.8.8,0,0,1,424.3,126.084Z" transform="translate(-415.301 -125.302)" fill="#fff"/>
        <ellipse id="Elipse_3981" data-name="Elipse 3981" cx="0.818" cy="0.782" rx="0.818" ry="0.782" transform="translate(14.718 0)" fill="#fff"/>
        <path id="Trazado_99286" data-name="Trazado 99286" d="M441.188,126.084a.818.818,0,1,1-.818-.782A.8.8,0,0,1,441.188,126.084Z" transform="translate(-417.475 -125.302)" fill="#fff"/>
        <path id="Trazado_99287" data-name="Trazado 99287" d="M449.634,126.084a.819.819,0,1,1-.817-.782A.8.8,0,0,1,449.634,126.084Z" transform="translate(-418.562 -125.302)" fill="#fff"/>
        <ellipse id="Elipse_3982" data-name="Elipse 3982" cx="0.818" cy="0.782" rx="0.818" ry="0.782" transform="translate(36.796 0)" fill="#fff"/>
        <path id="Trazado_99288" data-name="Trazado 99288" d="M466.527,126.084a.819.819,0,1,1-.818-.782A.8.8,0,0,1,466.527,126.084Z" transform="translate(-420.736 -125.302)" fill="#fff"/>
        <ellipse id="Elipse_3983" data-name="Elipse 3983" cx="0.818" cy="0.782" rx="0.818" ry="0.782" transform="translate(51.515 0)" fill="#fff"/>
        <ellipse id="Elipse_3984" data-name="Elipse 3984" cx="0.818" cy="0.782" rx="0.818" ry="0.782" transform="translate(58.874 0)" fill="#fff"/>
        <path id="Trazado_99289" data-name="Trazado 99289" d="M491.866,126.084a.818.818,0,1,1-.818-.782A.8.8,0,0,1,491.866,126.084Z" transform="translate(-423.998 -125.302)" fill="#fff"/>
        <path id="Trazado_99290" data-name="Trazado 99290" d="M500.313,126.084a.818.818,0,1,1-.818-.782A.8.8,0,0,1,500.313,126.084Z" transform="translate(-425.085 -125.302)" fill="#fff"/>
      </g>
      <g id="Grupo_53317" data-name="Grupo 53317" transform="translate(0 68.814)">
        <ellipse id="Elipse_3985" data-name="Elipse 3985" cx="0.818" cy="0.782" rx="0.818" ry="0.782" transform="translate(0 0)" fill="#fff"/>
        <path id="Trazado_99291" data-name="Trazado 99291" d="M424.3,133.592a.818.818,0,1,1-.817-.782A.8.8,0,0,1,424.3,133.592Z" transform="translate(-415.301 -132.81)" fill="#fff"/>
        <ellipse id="Elipse_3986" data-name="Elipse 3986" cx="0.818" cy="0.782" rx="0.818" ry="0.782" transform="translate(14.718 0)" fill="#fff"/>
        <path id="Trazado_99292" data-name="Trazado 99292" d="M441.188,133.592a.818.818,0,1,1-.818-.782A.8.8,0,0,1,441.188,133.592Z" transform="translate(-417.475 -132.81)" fill="#fff"/>
        <path id="Trazado_99293" data-name="Trazado 99293" d="M449.634,133.592a.819.819,0,1,1-.817-.782A.8.8,0,0,1,449.634,133.592Z" transform="translate(-418.562 -132.81)" fill="#fff"/>
        <ellipse id="Elipse_3987" data-name="Elipse 3987" cx="0.818" cy="0.782" rx="0.818" ry="0.782" transform="translate(36.796 0)" fill="#fff"/>
        <path id="Trazado_99294" data-name="Trazado 99294" d="M466.527,133.592a.819.819,0,1,1-.818-.782A.8.8,0,0,1,466.527,133.592Z" transform="translate(-420.736 -132.81)" fill="#fff"/>
        <ellipse id="Elipse_3988" data-name="Elipse 3988" cx="0.818" cy="0.782" rx="0.818" ry="0.782" transform="translate(51.515 0)" fill="#fff"/>
        <ellipse id="Elipse_3989" data-name="Elipse 3989" cx="0.818" cy="0.782" rx="0.818" ry="0.782" transform="translate(58.874 0)" fill="#fff"/>
        <path id="Trazado_99295" data-name="Trazado 99295" d="M491.866,133.592a.818.818,0,1,1-.818-.782A.8.8,0,0,1,491.866,133.592Z" transform="translate(-423.998 -132.81)" fill="#fff"/>
        <path id="Trazado_99296" data-name="Trazado 99296" d="M500.313,133.592a.818.818,0,1,1-.818-.782A.8.8,0,0,1,500.313,133.592Z" transform="translate(-425.085 -132.81)" fill="#fff"/>
      </g>
    </g>
  </g>
</svg>
