<svg xmlns="http://www.w3.org/2000/svg" xmlns:xlink="http://www.w3.org/1999/xlink" width="83.546" height="72.954" viewBox="0 0 83.546 72.954">
  <defs>
    <clipPath id="clip-path">
      <rect id="Rectángulo_351082" data-name="Rectángulo 351082" width="83.546" height="72.954" fill="none"/>
    </clipPath>
  </defs>
  <g id="Grupo_1010996" data-name="Grupo 1010996" clip-path="url(#clip-path)">
    <path id="Trazado_730400" data-name="Trazado 730400" d="M88.8,22.538,58.075.2a1.056,1.056,0,0,0-.686-.2L19.479,2.349a1.055,1.055,0,0,0-.555,1.906L49.644,26.593a1.051,1.051,0,0,0,.686.2l37.91-2.348a1.055,1.055,0,0,0,.555-1.906" transform="translate(-5.685 0)" fill="#595bc1"/>
    <path id="Trazado_730401" data-name="Trazado 730401" d="M45.2,25.928,14.479,3.591a1.056,1.056,0,0,0-1.633.558L.042,48.108A1.051,1.051,0,0,0,.389,49.22l30.08,24.54a1.055,1.055,0,0,0,1.679-.521L45.592,27.076a1.055,1.055,0,0,0-.392-1.148" transform="translate(0 -1.042)" fill="#595bc1"/>
    <path id="Trazado_730402" data-name="Trazado 730402" d="M96.67,32.651a1.059,1.059,0,0,0-.889-.4L57.87,34.6a1.056,1.056,0,0,0-.947.758L43.477,81.523a1.055,1.055,0,0,0,1.159,1.339l38.8-5.406a1.058,1.058,0,0,0,.868-.751L96.86,33.6a1.055,1.055,0,0,0-.19-.953" transform="translate(-13.356 -9.918)" fill="#161091"/>
    <path id="Trazado_730403" data-name="Trazado 730403" d="M69.506,9.584l-37.669,3.76L26.932,30.184a1.2,1.2,0,0,0,.427,1.29l8.464,6.388a1.16,1.16,0,0,0,.386.2,1.2,1.2,0,0,0,1.483-.815l4.686-16.089,39.148-2.83Z" transform="translate(-8.267 -2.947)" fill="#fc7062"/>
    <path id="Trazado_730404" data-name="Trazado 730404" d="M57.194,91.085l14.524-2.058Z" transform="translate(-17.586 -27.375)" fill="#8eb3fa"/>
    <path id="Trazado_730405" data-name="Trazado 730405" d="M56.43,91.631a1.056,1.056,0,0,1,.148-2.059L71.1,87.514a1.055,1.055,0,1,1,.3,2.089l-14.525,2.06a1.054,1.054,0,0,1-.443-.031" transform="translate(-17.118 -26.906)" fill="#fc7062"/>
    <path id="Trazado_730406" data-name="Trazado 730406" d="M59.313,78.577a1.054,1.054,0,0,1-.3-1.883l3.841-2.619a1.054,1.054,0,0,1,1.416.213l1.8,2.245a1.055,1.055,0,1,1-1.646,1.32l-1.189-1.483L60.2,78.437a1.058,1.058,0,0,1-.891.14" transform="translate(-18.004 -22.721)" fill="#fc7062"/>
    <path id="Trazado_730407" data-name="Trazado 730407" d="M60.239,86.938a1.054,1.054,0,0,1-.718-1.307l3.2-10.98a1.055,1.055,0,0,1,2.026.59l-3.2,10.98a1.055,1.055,0,0,1-1.307.717" transform="translate(-18.289 -22.721)" fill="#fc7062"/>
    <path id="Trazado_730408" data-name="Trazado 730408" d="M71.767,77.038a1.053,1.053,0,0,1-.3-1.883l3.838-2.618a1.055,1.055,0,0,1,1.418.212L78.524,75a1.055,1.055,0,0,1-1.646,1.319l-1.189-1.483L72.657,76.9a1.055,1.055,0,0,1-.889.14" transform="translate(-21.834 -22.248)" fill="#fc7062"/>
    <path id="Trazado_730409" data-name="Trazado 730409" d="M72.693,85.4a1.054,1.054,0,0,1-.717-1.307l3.2-10.978A1.054,1.054,0,1,1,77.2,73.7L74,84.682a1.055,1.055,0,0,1-1.308.718" transform="translate(-22.119 -22.248)" fill="#fc7062"/>
    <path id="Trazado_730410" data-name="Trazado 730410" d="M41.49,22.139l-8.762-6.37-.852-.62a1.029,1.029,0,0,0-.161.325L26.931,31.9a1.2,1.2,0,0,0,.427,1.29l8.465,6.387a1.156,1.156,0,0,0,.386.2,1.2,1.2,0,0,0,1.483-.815L42.4,22.8Z" transform="translate(-8.267 -4.658)" fill="#fc7062"/>
  </g>
</svg>
