<svg id="Grupo_1010991" data-name="Grupo 1010991" xmlns="http://www.w3.org/2000/svg" xmlns:xlink="http://www.w3.org/1999/xlink" width="68.108" height="75.411" viewBox="0 0 68.108 75.411">
  <defs>
    <clipPath id="clip-path">
      <rect id="Rectángulo_351056" data-name="Rectángulo 351056" width="68.108" height="75.411" fill="none"/>
    </clipPath>
  </defs>
  <g id="Grupo_1010990" data-name="Grupo 1010990" transform="translate(0 0)" clip-path="url(#clip-path)">
    <path id="Trazado_730372" data-name="Trazado 730372" d="M50.674,2.485.681,15.852a.918.918,0,0,0-.65,1.123L15.666,75.447a.917.917,0,0,0,1.123.649L66.782,62.729a.917.917,0,0,0,.65-1.123L51.8,3.134a.918.918,0,0,0-1.124-.649" transform="translate(0 -0.717)" fill="#161091"/>
    <path id="Trazado_730373" data-name="Trazado 730373" d="M49.423,11.065,11.233,21.277a.918.918,0,0,0-.65,1.124L23.045,69.008a.918.918,0,0,0,1.124.649L62.36,59.446a.918.918,0,0,0,.65-1.124L50.547,11.715a.918.918,0,0,0-1.124-.65" transform="translate(-3.082 -3.223)" fill="#fff"/>
    <path id="Trazado_730374" data-name="Trazado 730374" d="M43.714,1.749,35.151,4.039A6.62,6.62,0,0,0,22.484,7.426L13.92,9.716a.918.918,0,0,0-.65,1.124L15.8,20.3a.918.918,0,0,0,1.124.65l29.794-7.967a.918.918,0,0,0,.65-1.124L44.838,2.4a.918.918,0,0,0-1.124-.65" transform="translate(-3.867 0)" fill="#595bc1"/>
    <path id="Trazado_730375" data-name="Trazado 730375" d="M25.7,34.974a2.469,2.469,0,1,1-3.023-1.749A2.47,2.47,0,0,1,25.7,34.974" transform="translate(-6.089 -9.68)" fill="#fc7062"/>
    <path id="Trazado_730376" data-name="Trazado 730376" d="M33.521,32.047l19.293-5.159Z" transform="translate(-9.791 -7.854)" fill="#161091"/>
    <path id="Trazado_730377" data-name="Trazado 730377" d="M52.672,27.4,33.379,32.554A.918.918,0,1,1,32.9,30.78L52.2,25.621a.918.918,0,1,1,.474,1.774" transform="translate(-9.412 -7.475)" fill="#161091"/>
    <path id="Trazado_730378" data-name="Trazado 730378" d="M28.62,45.89A2.469,2.469,0,1,1,25.6,44.142,2.47,2.47,0,0,1,28.62,45.89" transform="translate(-6.941 -12.869)" fill="#fc7062"/>
    <path id="Trazado_730379" data-name="Trazado 730379" d="M36.44,42.963,55.733,37.8Z" transform="translate(-10.644 -11.042)" fill="#161091"/>
    <path id="Trazado_730380" data-name="Trazado 730380" d="M55.591,38.312,36.3,43.471a.918.918,0,1,1-.474-1.773l19.293-5.159a.918.918,0,1,1,.474,1.774" transform="translate(-10.265 -10.663)" fill="#161091"/>
    <path id="Trazado_730381" data-name="Trazado 730381" d="M31.539,56.807a2.469,2.469,0,1,1-3.023-1.749,2.47,2.47,0,0,1,3.023,1.749" transform="translate(-7.794 -16.057)" fill="#fc7062"/>
    <path id="Trazado_730382" data-name="Trazado 730382" d="M39.359,53.88l19.293-5.159Z" transform="translate(-11.496 -14.231)" fill="#161091"/>
    <path id="Trazado_730383" data-name="Trazado 730383" d="M58.509,49.227,39.216,54.386a.917.917,0,1,1-.474-1.773l19.293-5.159a.918.918,0,1,1,.474,1.773" transform="translate(-11.117 -13.852)" fill="#161091"/>
    <path id="Trazado_730384" data-name="Trazado 730384" d="M34.458,67.723a2.469,2.469,0,1,1-3.023-1.748,2.47,2.47,0,0,1,3.023,1.748" transform="translate(-8.647 -19.246)" fill="#fc7062"/>
    <path id="Trazado_730385" data-name="Trazado 730385" d="M42.278,64.8l19.293-5.159Z" transform="translate(-12.349 -17.419)" fill="#161091"/>
    <path id="Trazado_730386" data-name="Trazado 730386" d="M61.429,60.145,42.136,65.3a.918.918,0,1,1-.474-1.773l19.293-5.159a.918.918,0,0,1,.474,1.774" transform="translate(-11.97 -17.04)" fill="#161091"/>
    <path id="Trazado_730387" data-name="Trazado 730387" d="M76.251,42.029a.921.921,0,0,0-.521-.471l-4.15-1.48a.918.918,0,0,0-1.174.556l-6.184,17.34a.918.918,0,0,0,.556,1.173l4.15,1.481a.92.92,0,0,0,1.172-.557l6.185-17.34a.927.927,0,0,0-.035-.7" transform="translate(-18.743 -11.691)" fill="#fc7062"/>
    <path id="Trazado_730388" data-name="Trazado 730388" d="M84.372,7.387A3.978,3.978,0,0,0,79.289,9.8l-7.47,20.948a.919.919,0,0,0,.555,1.173l5.764,2.056a.919.919,0,0,0,1.173-.556l7.471-20.948a3.98,3.98,0,0,0-2.41-5.082" transform="translate(-20.962 -2.089)" fill="#fc7062"/>
    <path id="Trazado_730389" data-name="Trazado 730389" d="M89.824,28.585a.906.906,0,0,1-.545-.023.918.918,0,0,1-.556-1.172l3.331-9.339L89.9,15.337a.918.918,0,1,1,1.439-1.14l2.467,3.113a.92.92,0,0,1,.144.879l-3.5,9.819a.916.916,0,0,1-.628.578" transform="translate(-25.9 -4.045)" fill="#fc7062"/>
    <path id="Trazado_730390" data-name="Trazado 730390" d="M64.125,65.421l-.287,10.1,6.169-8Z" transform="translate(-18.646 -19.109)" fill="#fc7062"/>
  </g>
</svg>
