<svg xmlns="http://www.w3.org/2000/svg" xmlns:xlink="http://www.w3.org/1999/xlink" width="143.976" height="111.829" viewBox="0 0 143.976 111.829">
  <defs>
    <clipPath id="clip-path">
      <rect id="Rectángulo_360708" data-name="Rectángulo 360708" width="143.976" height="111.829" fill="none"/>
    </clipPath>
  </defs>
  <g id="Grupo_1024304" data-name="Grupo 1024304" transform="translate(0 0)">
    <g id="Grupo_1024303" data-name="Grupo 1024303" transform="translate(0 0)" clip-path="url(#clip-path)">
      <path id="Trazado_762384" data-name="Trazado 762384" d="M93.049,76.588H43.672a3.516,3.516,0,0,1-3.515-3.515V4.048A3.518,3.518,0,0,1,43.672.531H93.049a3.516,3.516,0,0,1,3.515,3.517V73.073a3.515,3.515,0,0,1-3.515,3.515" transform="translate(47.412 0.626)" fill="#705412"/>
      <rect id="Rectángulo_360651" data-name="Rectángulo 360651" width="45.395" height="70.47" transform="translate(92.713 3.757)" fill="#fff"/>
      <path id="Trazado_762385" data-name="Trazado 762385" d="M63.08,6.047H51.585a1.518,1.518,0,0,1-1.513-1.511V1.513A1.518,1.518,0,0,1,51.585,0H63.08a1.515,1.515,0,0,1,1.511,1.513V4.536A1.515,1.515,0,0,1,63.08,6.047" transform="translate(59.118 -0.001)" fill="#505050"/>
      <path id="Trazado_762386" data-name="Trazado 762386" d="M50.461,10.653H43.934V4.124h6.527Zm-5.526-1H49.46V5.127H44.935Z" transform="translate(51.871 4.868)" fill="silver"/>
      <path id="Trazado_762387" data-name="Trazado 762387" d="M50.461,14.758H43.934V8.229h6.527Zm-5.526-1H49.46V9.23H44.935Z" transform="translate(51.871 9.715)" fill="silver"/>
      <path id="Trazado_762388" data-name="Trazado 762388" d="M50.461,18.862H43.934V12.333h6.527Zm-5.526-1H49.46V13.336H44.935Z" transform="translate(51.871 14.56)" fill="silver"/>
      <path id="Trazado_762389" data-name="Trazado 762389" d="M50.461,22.965H43.934V16.438h6.527Zm-5.526-1H49.46V17.439H44.935Z" transform="translate(51.871 19.407)" fill="silver"/>
      <path id="Trazado_762390" data-name="Trazado 762390" d="M50.461,27.071H43.934V20.542h6.527Zm-5.526-1H49.46V21.545H44.935Z" transform="translate(51.871 24.253)" fill="silver"/>
      <path id="Trazado_762391" data-name="Trazado 762391" d="M50.461,31.175H43.934V24.646h6.527Zm-5.526-1H49.46V25.647H44.935Z" transform="translate(51.871 29.098)" fill="silver"/>
      <path id="Trazado_762392" data-name="Trazado 762392" d="M50.461,35.28H43.934V28.751h6.527Zm-5.526-1H49.46V29.754H44.935Z" transform="translate(51.871 33.945)" fill="silver"/>
      <rect id="Rectángulo_360652" data-name="Rectángulo 360652" width="25.695" height="2.765" transform="translate(103.924 12.255)" fill="silver"/>
      <rect id="Rectángulo_360653" data-name="Rectángulo 360653" width="25.695" height="2.765" transform="translate(103.924 21.207)" fill="silver"/>
      <rect id="Rectángulo_360654" data-name="Rectángulo 360654" width="25.695" height="2.765" transform="translate(103.924 30.156)" fill="silver"/>
      <rect id="Rectángulo_360655" data-name="Rectángulo 360655" width="25.695" height="2.765" transform="translate(103.924 39.108)" fill="silver"/>
      <rect id="Rectángulo_360656" data-name="Rectángulo 360656" width="25.695" height="2.765" transform="translate(103.924 48.057)" fill="silver"/>
      <rect id="Rectángulo_360657" data-name="Rectángulo 360657" width="25.695" height="2.765" transform="translate(103.924 57.009)" fill="silver"/>
      <rect id="Rectángulo_360658" data-name="Rectángulo 360658" width="25.695" height="2.765" transform="translate(103.924 65.959)" fill="silver"/>
      <path id="Trazado_762393" data-name="Trazado 762393" d="M48.037,9.469H44.491V8.942l1.417-1.426a11.046,11.046,0,0,0,.859-.938,2.559,2.559,0,0,0,.31-.547,1.586,1.586,0,0,0,.1-.574.91.91,0,0,0-.262-.683,1,1,0,0,0-.726-.253,1.818,1.818,0,0,0-.637.109,2.488,2.488,0,0,0-.669.406l-.327-.419A2.49,2.49,0,0,1,46.183,4a1.715,1.715,0,0,1,1.193.388,1.338,1.338,0,0,1,.432,1.045,2.034,2.034,0,0,1-.286,1.016A6.3,6.3,0,0,1,46.44,7.716l-1.18,1.158V8.9h2.776Z" transform="translate(52.529 4.72)" fill="#213f47"/>
      <path id="Trazado_762394" data-name="Trazado 762394" d="M46.584,13.588h-.6V9.741c0-.318.009-.621.028-.909-.052.055-.111.109-.174.166s-.355.294-.879.72l-.325-.423,1.431-1.1h.515Z" transform="translate(52.704 9.67)" fill="#213f47"/>
      <path id="Trazado_762395" data-name="Trazado 762395" d="M46.111,14.45a1.987,1.987,0,0,1,1.343.421,1.46,1.46,0,0,1,.488,1.16,1.665,1.665,0,0,1-.532,1.311,2.119,2.119,0,0,1-1.47.478,2.718,2.718,0,0,1-1.393-.292v-.589a2.107,2.107,0,0,0,.643.259,3.135,3.135,0,0,0,.755.094,1.517,1.517,0,0,0,1.01-.305,1.1,1.1,0,0,0,.362-.888q0-1.128-1.385-1.13a5.484,5.484,0,0,0-.938.109l-.316-.2.2-2.523h2.682v.565H45.4l-.14,1.62a4.507,4.507,0,0,1,.846-.085" transform="translate(52.595 14.581)" fill="#213f47"/>
      <path id="Trazado_762396" data-name="Trazado 762396" d="M44.521,19.637a3.828,3.828,0,0,1,.615-2.377,2.186,2.186,0,0,1,1.83-.787,2.353,2.353,0,0,1,.656.072v.526a2.043,2.043,0,0,0-.65-.092,1.627,1.627,0,0,0-1.321.539,2.753,2.753,0,0,0-.5,1.7h.044a1.418,1.418,0,0,1,1.284-.637,1.5,1.5,0,0,1,1.145.44,1.648,1.648,0,0,1,.419,1.193,1.85,1.85,0,0,1-.458,1.324,1.634,1.634,0,0,1-1.243.48,1.6,1.6,0,0,1-1.33-.63,2.792,2.792,0,0,1-.486-1.751m1.81,1.862a1.027,1.027,0,0,0,.813-.331,1.4,1.4,0,0,0,.29-.953,1.227,1.227,0,0,0-.268-.842,1.016,1.016,0,0,0-.807-.307,1.354,1.354,0,0,0-.608.137,1.142,1.142,0,0,0-.44.375.858.858,0,0,0-.164.5,1.718,1.718,0,0,0,.146.709,1.262,1.262,0,0,0,.421.521,1.047,1.047,0,0,0,.617.192" transform="translate(52.564 19.448)" fill="#213f47"/>
      <path id="Trazado_762397" data-name="Trazado 762397" d="M46.584,26.064h-.6V22.217c0-.318.009-.621.028-.909-.052.055-.111.109-.174.166s-.355.294-.879.72l-.325-.423,1.431-1.1h.515Z" transform="translate(52.704 24.4)" fill="#213f47"/>
      <path id="Trazado_762398" data-name="Trazado 762398" d="M47.847,26.136a1.241,1.241,0,0,1-.29.846,1.466,1.466,0,0,1-.822.438v.031a1.54,1.54,0,0,1,.964.412,1.231,1.231,0,0,1,.314.87,1.418,1.418,0,0,1-.536,1.188,2.439,2.439,0,0,1-1.52.414,4.4,4.4,0,0,1-.785-.065,2.621,2.621,0,0,1-.691-.227v-.582a3.518,3.518,0,0,0,1.5.353q1.4,0,1.4-1.095c0-.654-.512-.983-1.542-.983H45.3v-.526h.539a1.607,1.607,0,0,0,1-.281.91.91,0,0,0,.371-.772.757.757,0,0,0-.273-.617,1.1,1.1,0,0,0-.735-.227,2.311,2.311,0,0,0-.669.1,3,3,0,0,0-.715.355l-.31-.414a2.605,2.605,0,0,1,.765-.412,2.764,2.764,0,0,1,.912-.148,1.868,1.868,0,0,1,1.223.36,1.2,1.2,0,0,1,.436.986" transform="translate(52.516 29.269)" fill="#213f47"/>
      <path id="Trazado_762399" data-name="Trazado 762399" d="M46.584,34.381h-.6V30.534c0-.318.009-.621.028-.907-.052.055-.111.107-.174.164s-.355.3-.879.72l-.325-.421,1.431-1.106h.515Z" transform="translate(52.704 34.22)" fill="#213f47"/>
      <path id="Trazado_762400" data-name="Trazado 762400" d="M60.32,9.325h-.037a.758.758,0,0,1-.624-.393l-1.278-2.34A.752.752,0,0,1,59.7,5.87l.687,1.26,1.544-2.279a.751.751,0,1,1,1.245.842l-2.235,3.3a.75.75,0,0,1-.621.331" transform="translate(68.821 5.335)" fill="#469da7"/>
      <path id="Trazado_762401" data-name="Trazado 762401" d="M60.32,17.677h-.037a.754.754,0,0,1-.624-.393l-1.278-2.342a.751.751,0,1,1,1.319-.72l.687,1.26L61.932,13.2a.751.751,0,1,1,1.245.842l-2.235,3.3a.754.754,0,0,1-.621.329" transform="translate(68.821 15.193)" fill="#469da7"/>
      <path id="Trazado_762402" data-name="Trazado 762402" d="M60.32,25.743h-.037a.758.758,0,0,1-.624-.393l-1.278-2.342a.751.751,0,1,1,1.319-.72l.687,1.26,1.544-2.279a.751.751,0,1,1,1.245.842l-2.235,3.3a.75.75,0,0,1-.621.331" transform="translate(68.821 24.719)" fill="#469da7"/>
      <path id="Trazado_762403" data-name="Trazado 762403" d="M60.32,29.844h-.037a.751.751,0,0,1-.624-.39l-1.278-2.342a.751.751,0,0,1,1.319-.72l.687,1.258,1.544-2.279a.752.752,0,0,1,1.245.844l-2.235,3.3a.754.754,0,0,1-.621.329" transform="translate(68.821 29.565)" fill="#469da7"/>
      <path id="Trazado_762404" data-name="Trazado 762404" d="M60.8,35.871c-1.411,0-2.514-1.6-2.514-3.648s1.1-3.648,2.514-3.648,2.514,1.6,2.514,3.648-1.1,3.648-2.514,3.648m0-5.794c-.412,0-1.012.835-1.012,2.146s.6,2.146,1.012,2.146,1.012-.835,1.012-2.146-.6-2.146-1.012-2.146" transform="translate(68.817 33.737)" fill="#fd6d60"/>
      <path id="Trazado_762405" data-name="Trazado 762405" d="M114,23.1V81.715a1.338,1.338,0,0,1-.1.521,1.534,1.534,0,0,1-1.478,1.042H4.729a1.522,1.522,0,0,1-1.461-1.042,1.264,1.264,0,0,1-.1-.521V23.1a1.57,1.57,0,0,1,1.564-1.561h107.69A1.572,1.572,0,0,1,114,23.1" transform="translate(3.737 25.427)" fill="#303030"/>
      <path id="Trazado_762406" data-name="Trazado 762406" d="M124.638,50.816a2.731,2.731,0,0,1-2.721,2.721H2.719A2.719,2.719,0,0,1,0,50.816a2.647,2.647,0,0,1,.419-1.444h123.8a2.63,2.63,0,0,1,.421,1.444" transform="translate(0 58.291)" fill="silver"/>
      <path id="Trazado_762407" data-name="Trazado 762407" d="M25.275,49.374a3.636,3.636,0,0,0,3.284,2.08H36.39a3.627,3.627,0,0,0,3.286-2.08Z" transform="translate(29.841 58.293)" fill="#909090"/>
      <rect id="Rectángulo_360659" data-name="Rectángulo 360659" width="103.259" height="54.111" transform="translate(10.557 49.381)" fill="#469da7"/>
      <rect id="Rectángulo_360660" data-name="Rectángulo 360660" width="53.913" height="28.414" transform="translate(20.753 11.462)" fill="#e3d6b6"/>
      <rect id="Rectángulo_360661" data-name="Rectángulo 360661" width="23.146" height="10.415" transform="translate(23.137 27.138)" fill="#fcf7ea"/>
      <rect id="Rectángulo_360662" data-name="Rectángulo 360662" width="1.369" height="8.873" transform="translate(24.386 27.91)" fill="#354546"/>
      <rect id="Rectángulo_360663" data-name="Rectángulo 360663" width="0.46" height="8.873" transform="translate(26.589 27.91)" fill="#354546"/>
      <rect id="Rectángulo_360664" data-name="Rectángulo 360664" width="0.46" height="8.873" transform="translate(41.594 27.91)" fill="#354546"/>
      <rect id="Rectángulo_360665" data-name="Rectángulo 360665" width="1.369" height="8.873" transform="translate(28.791 27.91)" fill="#354546"/>
      <rect id="Rectángulo_360666" data-name="Rectángulo 360666" width="0.685" height="8.873" transform="translate(30.994 27.91)" fill="#354546"/>
      <rect id="Rectángulo_360667" data-name="Rectángulo 360667" width="0.685" height="8.873" transform="translate(27.629 27.91)" fill="#354546"/>
      <rect id="Rectángulo_360668" data-name="Rectángulo 360668" width="2.292" height="8.873" transform="translate(32.276 27.91)" fill="#354546"/>
      <rect id="Rectángulo_360669" data-name="Rectángulo 360669" width="1.369" height="8.873" transform="translate(39.769 27.91)" fill="#354546"/>
      <rect id="Rectángulo_360670" data-name="Rectángulo 360670" width="1.369" height="8.873" transform="translate(36.642 27.91)" fill="#354546"/>
      <rect id="Rectángulo_360671" data-name="Rectángulo 360671" width="0.685" height="8.873" transform="translate(35.401 27.91)" fill="#354546"/>
      <rect id="Rectángulo_360672" data-name="Rectángulo 360672" width="0.683" height="8.873" transform="translate(38.449 27.91)" fill="#354546"/>
      <rect id="Rectángulo_360673" data-name="Rectángulo 360673" width="2.257" height="8.873" transform="translate(42.392 27.91)" fill="#354546"/>
      <rect id="Rectángulo_360674" data-name="Rectángulo 360674" width="1.686" height="28.414" transform="translate(47.709 11.462)" fill="#b59d63"/>
      <rect id="Rectángulo_360675" data-name="Rectángulo 360675" width="1.431" height="5.748" transform="translate(55.271 29.5)" fill="#b59d63"/>
      <path id="Trazado_762408" data-name="Trazado 762408" d="M24.69,15.826l2.144-3.711,2.144,3.711Z" transform="translate(29.151 14.302)" fill="#b59d63"/>
      <rect id="Rectángulo_360676" data-name="Rectángulo 360676" width="1.433" height="5.748" transform="translate(60.012 29.5)" fill="#b59d63"/>
      <path id="Trazado_762409" data-name="Trazado 762409" d="M26.865,15.826l2.141-3.711,2.146,3.711Z" transform="translate(31.719 14.302)" fill="#b59d63"/>
      <rect id="Rectángulo_360677" data-name="Rectángulo 360677" width="9.03" height="0.898" transform="translate(53.841 35.885)" fill="#b59d63"/>
      <rect id="Rectángulo_360678" data-name="Rectángulo 360678" width="5.923" height="14.621" transform="translate(29.476 11.462)" fill="#b59d63"/>
      <rect id="Rectángulo_360679" data-name="Rectángulo 360679" width="5.925" height="14.621" transform="translate(58.915 11.462)" fill="#b59d63"/>
      <rect id="Rectángulo_360680" data-name="Rectángulo 360680" width="63.196" height="1.987" transform="translate(22.707 60.391)" fill="#64e1f0"/>
      <rect id="Rectángulo_360681" data-name="Rectángulo 360681" width="63.196" height="1.989" transform="translate(22.707 74.391)" fill="#64e1f0"/>
      <rect id="Rectángulo_360682" data-name="Rectángulo 360682" width="63.196" height="1.989" transform="translate(22.707 88.09)" fill="#64e1f0"/>
      <rect id="Rectángulo_360683" data-name="Rectángulo 360683" width="1.989" height="37.656" transform="translate(22.465 61.386)" fill="#64e1f0"/>
      <rect id="Rectángulo_360684" data-name="Rectángulo 360684" width="1.989" height="37.656" transform="translate(42.381 61.386)" fill="#64e1f0"/>
      <rect id="Rectángulo_360685" data-name="Rectángulo 360685" width="1.989" height="37.656" transform="translate(61.194 61.386)" fill="#64e1f0"/>
      <rect id="Rectángulo_360686" data-name="Rectángulo 360686" width="1.989" height="37.656" transform="translate(78.353 61.386)" fill="#64e1f0"/>
      <path id="Trazado_762410" data-name="Trazado 762410" d="M27.633,35.509l-2.281-2.281,2.281-2.279-.6-.6-2.281,2.279-2.281-2.279-.6.6,2.281,2.279-2.281,2.281.6.6,2.281-2.277L27.038,36.1Z" transform="translate(25.831 35.837)" fill="#f55d51"/>
      <rect id="Rectángulo_360687" data-name="Rectángulo 360687" width="21.384" height="42.159" transform="translate(88.978 56.132)" fill="#fff"/>
      <rect id="Rectángulo_360688" data-name="Rectángulo 360688" width="18.83" height="8.474" transform="translate(90.216 88.09)" fill="#fcf7ea"/>
      <rect id="Rectángulo_360689" data-name="Rectángulo 360689" width="1.114" height="7.22" transform="translate(91.232 88.718)" fill="#354546"/>
      <rect id="Rectángulo_360690" data-name="Rectángulo 360690" width="0.375" height="7.22" transform="translate(93.025 88.718)" fill="#354546"/>
      <rect id="Rectángulo_360691" data-name="Rectángulo 360691" width="0.375" height="7.22" transform="translate(105.234 88.718)" fill="#354546"/>
      <rect id="Rectángulo_360692" data-name="Rectángulo 360692" width="1.117" height="7.22" transform="translate(94.815 88.718)" fill="#354546"/>
      <rect id="Rectángulo_360693" data-name="Rectángulo 360693" width="0.558" height="7.22" transform="translate(96.61 88.718)" fill="#354546"/>
      <rect id="Rectángulo_360694" data-name="Rectángulo 360694" width="0.558" height="7.22" transform="translate(93.871 88.718)" fill="#354546"/>
      <rect id="Rectángulo_360695" data-name="Rectángulo 360695" width="1.862" height="7.22" transform="translate(97.654 88.718)" fill="#354546"/>
      <rect id="Rectángulo_360696" data-name="Rectángulo 360696" width="1.114" height="7.22" transform="translate(103.749 88.718)" fill="#354546"/>
      <rect id="Rectángulo_360697" data-name="Rectángulo 360697" width="1.114" height="7.22" transform="translate(101.205 88.718)" fill="#354546"/>
      <rect id="Rectángulo_360698" data-name="Rectángulo 360698" width="0.558" height="7.22" transform="translate(100.193 88.718)" fill="#354546"/>
      <rect id="Rectángulo_360699" data-name="Rectángulo 360699" width="0.556" height="7.22" transform="translate(102.674 88.718)" fill="#354546"/>
      <rect id="Rectángulo_360700" data-name="Rectángulo 360700" width="1.836" height="7.22" transform="translate(105.88 88.718)" fill="#354546"/>
      <rect id="Rectángulo_360701" data-name="Rectángulo 360701" width="18.83" height="1.4" transform="translate(90.216 67.666)" fill="#909090"/>
      <rect id="Rectángulo_360702" data-name="Rectángulo 360702" width="16.582" height="1.402" transform="translate(90.218 72.405)" fill="#909090"/>
      <rect id="Rectángulo_360703" data-name="Rectángulo 360703" width="18.83" height="1.4" transform="translate(90.216 74.777)" fill="#909090"/>
      <rect id="Rectángulo_360704" data-name="Rectángulo 360704" width="13.014" height="1.402" transform="translate(90.216 77.148)" fill="#909090"/>
      <rect id="Rectángulo_360705" data-name="Rectángulo 360705" width="18.83" height="1.402" transform="translate(90.216 81.89)" fill="#909090"/>
      <rect id="Rectángulo_360706" data-name="Rectángulo 360706" width="13.162" height="1.402" transform="translate(90.216 84.261)" fill="#909090"/>
      <path id="Trazado_762411" data-name="Trazado 762411" d="M42.421,31.994h-.914V27.626h2.5v.761h-1.59V29.51H43.9v.757H42.421Z" transform="translate(49.007 32.616)" fill="#354546"/>
      <path id="Trazado_762412" data-name="Trazado 762412" d="M46.137,31.089h-.528v.9h-.9v-.9H42.844v-.643l1.915-2.82h.85v2.745h.528Zm-1.428-.717V29.63c0-.122,0-.3.015-.539s.017-.369.024-.408h-.024a3.1,3.1,0,0,1-.266.475l-.8,1.212Z" transform="translate(50.584 32.616)" fill="#354546"/>
      <path id="Trazado_762413" data-name="Trazado 762413" d="M46.07,29.2a1.409,1.409,0,0,1,1.01.355,1.28,1.28,0,0,1,.373.973A1.424,1.424,0,0,1,47,31.66a1.914,1.914,0,0,1-1.293.395,2.529,2.529,0,0,1-1.175-.238v-.8a2.559,2.559,0,0,0,.55.2,2.44,2.44,0,0,0,.593.079c.565,0,.846-.233.846-.693q0-.661-.874-.661a2.342,2.342,0,0,0-.351.031,2.62,2.62,0,0,0-.31.07l-.366-.2.164-2.226h2.37v.783H45.595l-.081.857.1-.02a2.04,2.04,0,0,1,.451-.041" transform="translate(52.581 32.616)" fill="#354546"/>
      <rect id="Rectángulo_360707" data-name="Rectángulo 360707" width="99.126" height="2.366" transform="translate(13.418 51.021)" fill="#707070"/>
      <path id="Trazado_762414" data-name="Trazado 762414" d="M8.969,12.525h-1.5v-9H15.5v1.5H8.969Z" transform="translate(8.815 4.164)" fill="#e54d42"/>
      <path id="Trazado_762415" data-name="Trazado 762415" d="M16.306,24.91H7.465V16.164h1.5v7.244h7.336Z" transform="translate(8.814 19.083)" fill="#e54d42"/>
      <path id="Trazado_762416" data-name="Trazado 762416" d="M40.84,24.91H32.074v-1.5h7.264V16.164h1.5Z" transform="translate(37.868 19.083)" fill="#e54d42"/>
      <path id="Trazado_762417" data-name="Trazado 762417" d="M40.652,11.107h-1.5V5.032H32.233v-1.5h8.42Z" transform="translate(38.056 4.164)" fill="#e54d42"/>
    </g>
  </g>
</svg>
