<svg xmlns="http://www.w3.org/2000/svg" xmlns:xlink="http://www.w3.org/1999/xlink" width="398.995" height="214.865" viewBox="0 0 398.995 214.865">
  <defs>
    <clipPath id="clip-path">
      <rect id="Rectángulo_352791" data-name="Rectángulo 352791" width="197.311" height="100.658" fill="#12263f"/>
    </clipPath>
    <clipPath id="clip-path-2">
      <rect id="Rectángulo_358430" data-name="Rectángulo 358430" width="381.483" height="214.865" fill="none"/>
    </clipPath>
  </defs>
  <g id="Grupo_1022451" data-name="Grupo 1022451" transform="translate(8047.602 7550.755)">
    <g id="Grupo_1020694" data-name="Grupo 1020694" transform="translate(-8047.602 -7532)">
      <g id="Enmascarar_grupo_1018593" data-name="Enmascarar grupo 1018593" transform="translate(194.721 0)" clip-path="url(#clip-path)">
        <path id="Trazado_151731" data-name="Trazado 151731" d="M93.947,148.336a54.39,54.39,0,1,1,54.39-54.39,54.452,54.452,0,0,1-54.39,54.39m0,39.556A93.946,93.946,0,1,0,0,93.946,93.946,93.946,0,0,0,93.947,187.893Z" transform="translate(4.076 6.713)" fill="#4adbd1"/>
      </g>
      <g id="Grupo_1018971" data-name="Grupo 1018971" transform="translate(0 0)">
        <path id="Trazado_145969" data-name="Trazado 145969" d="M55.641,0A55.641,55.641,0,1,1,0,55.641,55.641,55.641,0,0,1,55.641,0Z" transform="translate(0 2.824)" fill="#ffca28" opacity="0.444" style="mix-blend-mode: multiply;isolation: isolate"/>
        <rect id="Rectángulo_34812" data-name="Rectángulo 34812" width="392.032" height="165.125" transform="translate(0)" fill="none"/>
        <path id="Trazado_145971" data-name="Trazado 145971" d="M6.35,0A6.35,6.35,0,1,1,0,6.35,6.35,6.35,0,0,1,6.35,0Z" transform="translate(25.088 139.84)" fill="#31313c" opacity="0.444" style="mix-blend-mode: multiply;isolation: isolate"/>
        <g id="Grupo_80270" data-name="Grupo 80270" transform="translate(267.108 48.717)">
          <path id="Trazado_145968" data-name="Trazado 145968" d="M62.462,0A62.462,62.462,0,1,1,0,62.462,62.462,62.462,0,0,1,62.462,0Z" transform="translate(0)" fill="#31313c" opacity="0.444" style="mix-blend-mode: multiply;isolation: isolate"/>
          <g id="Grupo_78276" data-name="Grupo 78276" transform="translate(24.387 25.822)">
            <g id="Grupo_53306" data-name="Grupo 53306">
              <path id="Trazado_99200" data-name="Trazado 99200" d="M415.91,51.035a.849.849,0,1,1-.849-.811A.83.83,0,0,1,415.91,51.035Z" transform="translate(-414.214 -50.224)" fill="#fff"/>
              <path id="Trazado_99201" data-name="Trazado 99201" d="M424.356,51.035a.849.849,0,1,1-.848-.811A.83.83,0,0,1,424.356,51.035Z" transform="translate(-415.027 -50.224)" fill="#fff"/>
              <path id="Trazado_99202" data-name="Trazado 99202" d="M432.8,51.035a.849.849,0,1,1-.848-.811A.83.83,0,0,1,432.8,51.035Z" transform="translate(-415.84 -50.224)" fill="#fff"/>
              <path id="Trazado_99203" data-name="Trazado 99203" d="M441.249,51.035a.849.849,0,1,1-.849-.811A.83.83,0,0,1,441.249,51.035Z" transform="translate(-416.653 -50.224)" fill="#fff"/>
              <path id="Trazado_99204" data-name="Trazado 99204" d="M449.7,51.035a.849.849,0,1,1-.848-.811A.83.83,0,0,1,449.7,51.035Z" transform="translate(-417.466 -50.224)" fill="#fff"/>
              <path id="Trazado_99205" data-name="Trazado 99205" d="M458.141,51.035a.849.849,0,1,1-.848-.811A.83.83,0,0,1,458.141,51.035Z" transform="translate(-418.278 -50.224)" fill="#fff"/>
              <path id="Trazado_99206" data-name="Trazado 99206" d="M466.588,51.035a.849.849,0,1,1-.849-.811A.831.831,0,0,1,466.588,51.035Z" transform="translate(-419.091 -50.224)" fill="#fff"/>
              <path id="Trazado_99207" data-name="Trazado 99207" d="M475.035,51.035a.849.849,0,1,1-.848-.811A.83.83,0,0,1,475.035,51.035Z" transform="translate(-419.904 -50.224)" fill="#fff"/>
              <path id="Trazado_99208" data-name="Trazado 99208" d="M483.48,51.035a.849.849,0,1,1-.848-.811A.83.83,0,0,1,483.48,51.035Z" transform="translate(-420.717 -50.224)" fill="#fff"/>
              <path id="Trazado_99209" data-name="Trazado 99209" d="M491.927,51.035a.849.849,0,1,1-.849-.811A.831.831,0,0,1,491.927,51.035Z" transform="translate(-421.53 -50.224)" fill="#fff"/>
              <path id="Trazado_99210" data-name="Trazado 99210" d="M500.374,51.035a.849.849,0,1,1-.849-.811A.83.83,0,0,1,500.374,51.035Z" transform="translate(-422.343 -50.224)" fill="#fff"/>
            </g>
            <g id="Grupo_53307" data-name="Grupo 53307" transform="translate(0 6.489)">
              <path id="Trazado_99211" data-name="Trazado 99211" d="M415.91,58.543a.849.849,0,1,1-.849-.811A.83.83,0,0,1,415.91,58.543Z" transform="translate(-414.214 -57.732)" fill="#fff"/>
              <path id="Trazado_99212" data-name="Trazado 99212" d="M424.356,58.543a.849.849,0,1,1-.848-.811A.83.83,0,0,1,424.356,58.543Z" transform="translate(-415.027 -57.732)" fill="#fff"/>
              <path id="Trazado_99213" data-name="Trazado 99213" d="M432.8,58.543a.849.849,0,1,1-.848-.811A.83.83,0,0,1,432.8,58.543Z" transform="translate(-415.84 -57.732)" fill="#fff"/>
              <path id="Trazado_99214" data-name="Trazado 99214" d="M441.249,58.543a.849.849,0,1,1-.849-.811A.83.83,0,0,1,441.249,58.543Z" transform="translate(-416.653 -57.732)" fill="#fff"/>
              <path id="Trazado_99215" data-name="Trazado 99215" d="M449.7,58.543a.849.849,0,1,1-.848-.811A.83.83,0,0,1,449.7,58.543Z" transform="translate(-417.466 -57.732)" fill="#fff"/>
              <path id="Trazado_99216" data-name="Trazado 99216" d="M458.141,58.543a.849.849,0,1,1-.848-.811A.83.83,0,0,1,458.141,58.543Z" transform="translate(-418.278 -57.732)" fill="#fff"/>
              <path id="Trazado_99217" data-name="Trazado 99217" d="M466.588,58.543a.849.849,0,1,1-.849-.811A.831.831,0,0,1,466.588,58.543Z" transform="translate(-419.091 -57.732)" fill="#fff"/>
              <path id="Trazado_99218" data-name="Trazado 99218" d="M475.035,58.543a.849.849,0,1,1-.848-.811A.83.83,0,0,1,475.035,58.543Z" transform="translate(-419.904 -57.732)" fill="#fff"/>
              <path id="Trazado_99219" data-name="Trazado 99219" d="M483.48,58.543a.849.849,0,1,1-.848-.811A.83.83,0,0,1,483.48,58.543Z" transform="translate(-420.717 -57.732)" fill="#fff"/>
              <path id="Trazado_99220" data-name="Trazado 99220" d="M491.927,58.543a.849.849,0,1,1-.849-.811A.831.831,0,0,1,491.927,58.543Z" transform="translate(-421.53 -57.732)" fill="#fff"/>
              <path id="Trazado_99221" data-name="Trazado 99221" d="M500.374,58.543a.849.849,0,1,1-.849-.811A.83.83,0,0,1,500.374,58.543Z" transform="translate(-422.343 -57.732)" fill="#fff"/>
            </g>
            <g id="Grupo_53308" data-name="Grupo 53308" transform="translate(0 12.978)">
              <ellipse id="Elipse_3955" data-name="Elipse 3955" cx="0.848" cy="0.811" rx="0.848" ry="0.811" fill="#fff"/>
              <path id="Trazado_99222" data-name="Trazado 99222" d="M424.356,66.051a.849.849,0,1,1-.848-.811A.83.83,0,0,1,424.356,66.051Z" transform="translate(-415.027 -65.24)" fill="#fff"/>
              <ellipse id="Elipse_3956" data-name="Elipse 3956" cx="0.848" cy="0.811" rx="0.848" ry="0.811" transform="translate(15.267)" fill="#fff"/>
              <path id="Trazado_99223" data-name="Trazado 99223" d="M441.249,66.051a.849.849,0,1,1-.849-.811A.831.831,0,0,1,441.249,66.051Z" transform="translate(-416.653 -65.24)" fill="#fff"/>
              <path id="Trazado_99224" data-name="Trazado 99224" d="M449.7,66.051a.849.849,0,1,1-.848-.811A.831.831,0,0,1,449.7,66.051Z" transform="translate(-417.466 -65.24)" fill="#fff"/>
              <ellipse id="Elipse_3957" data-name="Elipse 3957" cx="0.848" cy="0.811" rx="0.848" ry="0.811" transform="translate(38.167)" fill="#fff"/>
              <path id="Trazado_99225" data-name="Trazado 99225" d="M466.588,66.051a.849.849,0,1,1-.849-.811A.831.831,0,0,1,466.588,66.051Z" transform="translate(-419.091 -65.24)" fill="#fff"/>
              <ellipse id="Elipse_3958" data-name="Elipse 3958" cx="0.848" cy="0.811" rx="0.848" ry="0.811" transform="translate(53.434)" fill="#fff"/>
              <ellipse id="Elipse_3959" data-name="Elipse 3959" cx="0.848" cy="0.811" rx="0.848" ry="0.811" transform="translate(61.067)" fill="#fff"/>
              <path id="Trazado_99226" data-name="Trazado 99226" d="M491.927,66.051a.849.849,0,1,1-.849-.811A.831.831,0,0,1,491.927,66.051Z" transform="translate(-421.53 -65.24)" fill="#fff"/>
              <path id="Trazado_99227" data-name="Trazado 99227" d="M500.374,66.051a.849.849,0,1,1-.849-.811A.831.831,0,0,1,500.374,66.051Z" transform="translate(-422.343 -65.24)" fill="#fff"/>
            </g>
            <g id="Grupo_53309" data-name="Grupo 53309" transform="translate(0 19.466)">
              <ellipse id="Elipse_3960" data-name="Elipse 3960" cx="0.848" cy="0.811" rx="0.848" ry="0.811" transform="translate(0 0)" fill="#fff"/>
              <path id="Trazado_99228" data-name="Trazado 99228" d="M424.356,73.559a.849.849,0,1,1-.848-.812A.83.83,0,0,1,424.356,73.559Z" transform="translate(-415.027 -72.747)" fill="#fff"/>
              <ellipse id="Elipse_3961" data-name="Elipse 3961" cx="0.848" cy="0.811" rx="0.848" ry="0.811" transform="translate(15.267 0)" fill="#fff"/>
              <path id="Trazado_99229" data-name="Trazado 99229" d="M441.249,73.559a.849.849,0,1,1-.849-.812A.83.83,0,0,1,441.249,73.559Z" transform="translate(-416.653 -72.747)" fill="#fff"/>
              <path id="Trazado_99230" data-name="Trazado 99230" d="M449.7,73.559a.849.849,0,1,1-.848-.812A.83.83,0,0,1,449.7,73.559Z" transform="translate(-417.466 -72.747)" fill="#fff"/>
              <ellipse id="Elipse_3962" data-name="Elipse 3962" cx="0.848" cy="0.811" rx="0.848" ry="0.811" transform="translate(38.167 0)" fill="#fff"/>
              <path id="Trazado_99231" data-name="Trazado 99231" d="M466.588,73.559a.849.849,0,1,1-.849-.812A.831.831,0,0,1,466.588,73.559Z" transform="translate(-419.091 -72.747)" fill="#fff"/>
              <ellipse id="Elipse_3963" data-name="Elipse 3963" cx="0.848" cy="0.811" rx="0.848" ry="0.811" transform="translate(53.434 0)" fill="#fff"/>
              <ellipse id="Elipse_3964" data-name="Elipse 3964" cx="0.848" cy="0.811" rx="0.848" ry="0.811" transform="translate(61.067 0)" fill="#fff"/>
              <path id="Trazado_99232" data-name="Trazado 99232" d="M491.927,73.559a.849.849,0,1,1-.849-.812A.831.831,0,0,1,491.927,73.559Z" transform="translate(-421.53 -72.747)" fill="#fff"/>
              <path id="Trazado_99233" data-name="Trazado 99233" d="M500.374,73.559a.849.849,0,1,1-.849-.812A.83.83,0,0,1,500.374,73.559Z" transform="translate(-422.343 -72.747)" fill="#fff"/>
            </g>
            <g id="Grupo_53310" data-name="Grupo 53310" transform="translate(0 25.955)">
              <path id="Trazado_99234" data-name="Trazado 99234" d="M415.91,81.067a.849.849,0,1,1-.849-.812A.83.83,0,0,1,415.91,81.067Z" transform="translate(-414.214 -80.255)" fill="#fff"/>
              <path id="Trazado_99235" data-name="Trazado 99235" d="M424.356,81.067a.849.849,0,1,1-.848-.812A.83.83,0,0,1,424.356,81.067Z" transform="translate(-415.027 -80.255)" fill="#fff"/>
              <path id="Trazado_99236" data-name="Trazado 99236" d="M432.8,81.067a.849.849,0,1,1-.848-.812A.83.83,0,0,1,432.8,81.067Z" transform="translate(-415.84 -80.255)" fill="#fff"/>
              <path id="Trazado_99237" data-name="Trazado 99237" d="M441.249,81.067a.849.849,0,1,1-.849-.812A.83.83,0,0,1,441.249,81.067Z" transform="translate(-416.653 -80.255)" fill="#fff"/>
              <path id="Trazado_99238" data-name="Trazado 99238" d="M449.7,81.067a.849.849,0,1,1-.848-.812A.83.83,0,0,1,449.7,81.067Z" transform="translate(-417.466 -80.255)" fill="#fff"/>
              <path id="Trazado_99239" data-name="Trazado 99239" d="M458.141,81.067a.849.849,0,1,1-.848-.812A.83.83,0,0,1,458.141,81.067Z" transform="translate(-418.278 -80.255)" fill="#fff"/>
              <path id="Trazado_99240" data-name="Trazado 99240" d="M466.588,81.067a.849.849,0,1,1-.849-.812A.831.831,0,0,1,466.588,81.067Z" transform="translate(-419.091 -80.255)" fill="#fff"/>
              <path id="Trazado_99241" data-name="Trazado 99241" d="M475.035,81.067a.849.849,0,1,1-.848-.812A.83.83,0,0,1,475.035,81.067Z" transform="translate(-419.904 -80.255)" fill="#fff"/>
              <path id="Trazado_99242" data-name="Trazado 99242" d="M483.48,81.067a.849.849,0,1,1-.848-.812A.83.83,0,0,1,483.48,81.067Z" transform="translate(-420.717 -80.255)" fill="#fff"/>
              <path id="Trazado_99243" data-name="Trazado 99243" d="M491.927,81.067a.849.849,0,1,1-.849-.812A.831.831,0,0,1,491.927,81.067Z" transform="translate(-421.53 -80.255)" fill="#fff"/>
              <path id="Trazado_99244" data-name="Trazado 99244" d="M500.374,81.067a.849.849,0,1,1-.849-.812A.83.83,0,0,1,500.374,81.067Z" transform="translate(-422.343 -80.255)" fill="#fff"/>
            </g>
            <g id="Grupo_53311" data-name="Grupo 53311" transform="translate(0 32.444)">
              <ellipse id="Elipse_3965" data-name="Elipse 3965" cx="0.848" cy="0.811" rx="0.848" ry="0.811" transform="translate(0 0)" fill="#fff"/>
              <path id="Trazado_99245" data-name="Trazado 99245" d="M424.356,88.575a.849.849,0,1,1-.848-.812A.83.83,0,0,1,424.356,88.575Z" transform="translate(-415.027 -87.763)" fill="#fff"/>
              <ellipse id="Elipse_3966" data-name="Elipse 3966" cx="0.848" cy="0.811" rx="0.848" ry="0.811" transform="translate(15.267 0)" fill="#fff"/>
              <path id="Trazado_99246" data-name="Trazado 99246" d="M441.249,88.575a.849.849,0,1,1-.849-.812A.83.83,0,0,1,441.249,88.575Z" transform="translate(-416.653 -87.763)" fill="#fff"/>
              <path id="Trazado_99247" data-name="Trazado 99247" d="M449.7,88.575a.849.849,0,1,1-.848-.812A.83.83,0,0,1,449.7,88.575Z" transform="translate(-417.466 -87.763)" fill="#fff"/>
              <ellipse id="Elipse_3967" data-name="Elipse 3967" cx="0.848" cy="0.811" rx="0.848" ry="0.811" transform="translate(38.167 0)" fill="#fff"/>
              <path id="Trazado_99248" data-name="Trazado 99248" d="M466.588,88.575a.849.849,0,1,1-.849-.812A.831.831,0,0,1,466.588,88.575Z" transform="translate(-419.091 -87.763)" fill="#fff"/>
              <ellipse id="Elipse_3968" data-name="Elipse 3968" cx="0.848" cy="0.811" rx="0.848" ry="0.811" transform="translate(53.434 0)" fill="#fff"/>
              <ellipse id="Elipse_3969" data-name="Elipse 3969" cx="0.848" cy="0.811" rx="0.848" ry="0.811" transform="translate(61.067 0)" fill="#fff"/>
              <path id="Trazado_99249" data-name="Trazado 99249" d="M491.927,88.575a.849.849,0,1,1-.849-.812A.831.831,0,0,1,491.927,88.575Z" transform="translate(-421.53 -87.763)" fill="#fff"/>
              <path id="Trazado_99250" data-name="Trazado 99250" d="M500.374,88.575a.849.849,0,1,1-.849-.812A.83.83,0,0,1,500.374,88.575Z" transform="translate(-422.343 -87.763)" fill="#fff"/>
            </g>
            <g id="Grupo_53312" data-name="Grupo 53312" transform="translate(0 38.933)">
              <ellipse id="Elipse_3970" data-name="Elipse 3970" cx="0.848" cy="0.811" rx="0.848" ry="0.811" fill="#fff"/>
              <path id="Trazado_99251" data-name="Trazado 99251" d="M424.356,96.082a.849.849,0,1,1-.848-.811A.83.83,0,0,1,424.356,96.082Z" transform="translate(-415.027 -95.271)" fill="#fff"/>
              <ellipse id="Elipse_3971" data-name="Elipse 3971" cx="0.848" cy="0.811" rx="0.848" ry="0.811" transform="translate(15.267)" fill="#fff"/>
              <path id="Trazado_99252" data-name="Trazado 99252" d="M441.249,96.082a.849.849,0,1,1-.849-.811A.83.83,0,0,1,441.249,96.082Z" transform="translate(-416.653 -95.271)" fill="#fff"/>
              <path id="Trazado_99253" data-name="Trazado 99253" d="M449.7,96.082a.849.849,0,1,1-.848-.811A.83.83,0,0,1,449.7,96.082Z" transform="translate(-417.466 -95.271)" fill="#fff"/>
              <ellipse id="Elipse_3972" data-name="Elipse 3972" cx="0.848" cy="0.811" rx="0.848" ry="0.811" transform="translate(38.167)" fill="#fff"/>
              <path id="Trazado_99254" data-name="Trazado 99254" d="M466.588,96.082a.849.849,0,1,1-.849-.811A.831.831,0,0,1,466.588,96.082Z" transform="translate(-419.091 -95.271)" fill="#fff"/>
              <ellipse id="Elipse_3973" data-name="Elipse 3973" cx="0.848" cy="0.811" rx="0.848" ry="0.811" transform="translate(53.434)" fill="#fff"/>
              <ellipse id="Elipse_3974" data-name="Elipse 3974" cx="0.848" cy="0.811" rx="0.848" ry="0.811" transform="translate(61.067)" fill="#fff"/>
              <path id="Trazado_99255" data-name="Trazado 99255" d="M491.927,96.082a.849.849,0,1,1-.849-.811A.831.831,0,0,1,491.927,96.082Z" transform="translate(-421.53 -95.271)" fill="#fff"/>
              <path id="Trazado_99256" data-name="Trazado 99256" d="M500.374,96.082a.849.849,0,1,1-.849-.811A.83.83,0,0,1,500.374,96.082Z" transform="translate(-422.343 -95.271)" fill="#fff"/>
            </g>
            <g id="Grupo_53313" data-name="Grupo 53313" transform="translate(0 45.422)">
              <path id="Trazado_99257" data-name="Trazado 99257" d="M415.91,103.59a.849.849,0,1,1-.849-.811A.83.83,0,0,1,415.91,103.59Z" transform="translate(-414.214 -102.779)" fill="#fff"/>
              <path id="Trazado_99258" data-name="Trazado 99258" d="M424.356,103.59a.849.849,0,1,1-.848-.811A.83.83,0,0,1,424.356,103.59Z" transform="translate(-415.027 -102.779)" fill="#fff"/>
              <path id="Trazado_99259" data-name="Trazado 99259" d="M432.8,103.59a.849.849,0,1,1-.848-.811A.83.83,0,0,1,432.8,103.59Z" transform="translate(-415.84 -102.779)" fill="#fff"/>
              <path id="Trazado_99260" data-name="Trazado 99260" d="M441.249,103.59a.849.849,0,1,1-.849-.811A.83.83,0,0,1,441.249,103.59Z" transform="translate(-416.653 -102.779)" fill="#fff"/>
              <path id="Trazado_99261" data-name="Trazado 99261" d="M449.7,103.59a.849.849,0,1,1-.848-.811A.83.83,0,0,1,449.7,103.59Z" transform="translate(-417.466 -102.779)" fill="#fff"/>
              <path id="Trazado_99262" data-name="Trazado 99262" d="M458.141,103.59a.849.849,0,1,1-.848-.811A.83.83,0,0,1,458.141,103.59Z" transform="translate(-418.278 -102.779)" fill="#fff"/>
              <path id="Trazado_99263" data-name="Trazado 99263" d="M466.588,103.59a.849.849,0,1,1-.849-.811A.831.831,0,0,1,466.588,103.59Z" transform="translate(-419.091 -102.779)" fill="#fff"/>
              <path id="Trazado_99264" data-name="Trazado 99264" d="M475.035,103.59a.849.849,0,1,1-.848-.811A.83.83,0,0,1,475.035,103.59Z" transform="translate(-419.904 -102.779)" fill="#fff"/>
              <path id="Trazado_99265" data-name="Trazado 99265" d="M483.48,103.59a.849.849,0,1,1-.848-.811A.83.83,0,0,1,483.48,103.59Z" transform="translate(-420.717 -102.779)" fill="#fff"/>
              <path id="Trazado_99266" data-name="Trazado 99266" d="M491.927,103.59a.849.849,0,1,1-.849-.811A.831.831,0,0,1,491.927,103.59Z" transform="translate(-421.53 -102.779)" fill="#fff"/>
              <path id="Trazado_99267" data-name="Trazado 99267" d="M500.374,103.59a.849.849,0,1,1-.849-.811A.83.83,0,0,1,500.374,103.59Z" transform="translate(-422.343 -102.779)" fill="#fff"/>
            </g>
            <g id="Grupo_53314" data-name="Grupo 53314" transform="translate(0 51.911)">
              <ellipse id="Elipse_3975" data-name="Elipse 3975" cx="0.848" cy="0.811" rx="0.848" ry="0.811" fill="#fff"/>
              <path id="Trazado_99268" data-name="Trazado 99268" d="M424.356,111.1a.849.849,0,1,1-.848-.811A.831.831,0,0,1,424.356,111.1Z" transform="translate(-415.027 -110.287)" fill="#fff"/>
              <ellipse id="Elipse_3976" data-name="Elipse 3976" cx="0.848" cy="0.811" rx="0.848" ry="0.811" transform="translate(15.267)" fill="#fff"/>
              <path id="Trazado_99269" data-name="Trazado 99269" d="M441.249,111.1a.849.849,0,1,1-.849-.811A.831.831,0,0,1,441.249,111.1Z" transform="translate(-416.653 -110.287)" fill="#fff"/>
              <path id="Trazado_99270" data-name="Trazado 99270" d="M449.7,111.1a.849.849,0,1,1-.848-.811A.831.831,0,0,1,449.7,111.1Z" transform="translate(-417.466 -110.287)" fill="#fff"/>
              <ellipse id="Elipse_3977" data-name="Elipse 3977" cx="0.848" cy="0.811" rx="0.848" ry="0.811" transform="translate(38.167)" fill="#fff"/>
              <path id="Trazado_99271" data-name="Trazado 99271" d="M466.588,111.1a.849.849,0,1,1-.849-.811A.831.831,0,0,1,466.588,111.1Z" transform="translate(-419.091 -110.287)" fill="#fff"/>
              <ellipse id="Elipse_3978" data-name="Elipse 3978" cx="0.848" cy="0.811" rx="0.848" ry="0.811" transform="translate(53.434)" fill="#fff"/>
              <ellipse id="Elipse_3979" data-name="Elipse 3979" cx="0.848" cy="0.811" rx="0.848" ry="0.811" transform="translate(61.067)" fill="#fff"/>
              <path id="Trazado_99272" data-name="Trazado 99272" d="M491.927,111.1a.849.849,0,1,1-.849-.811A.831.831,0,0,1,491.927,111.1Z" transform="translate(-421.53 -110.287)" fill="#fff"/>
              <path id="Trazado_99273" data-name="Trazado 99273" d="M500.374,111.1a.849.849,0,1,1-.849-.811A.831.831,0,0,1,500.374,111.1Z" transform="translate(-422.343 -110.287)" fill="#fff"/>
            </g>
            <g id="Grupo_53315" data-name="Grupo 53315" transform="translate(0 58.399)">
              <path id="Trazado_99274" data-name="Trazado 99274" d="M415.91,118.606a.849.849,0,1,1-.849-.812A.831.831,0,0,1,415.91,118.606Z" transform="translate(-414.214 -117.794)" fill="#fff"/>
              <path id="Trazado_99275" data-name="Trazado 99275" d="M424.356,118.606a.849.849,0,1,1-.848-.812A.83.83,0,0,1,424.356,118.606Z" transform="translate(-415.027 -117.794)" fill="#fff"/>
              <path id="Trazado_99276" data-name="Trazado 99276" d="M432.8,118.606a.849.849,0,1,1-.848-.812A.831.831,0,0,1,432.8,118.606Z" transform="translate(-415.84 -117.794)" fill="#fff"/>
              <path id="Trazado_99277" data-name="Trazado 99277" d="M441.249,118.606a.849.849,0,1,1-.849-.812A.831.831,0,0,1,441.249,118.606Z" transform="translate(-416.653 -117.794)" fill="#fff"/>
              <path id="Trazado_99278" data-name="Trazado 99278" d="M449.7,118.606a.849.849,0,1,1-.848-.812A.831.831,0,0,1,449.7,118.606Z" transform="translate(-417.466 -117.794)" fill="#fff"/>
              <path id="Trazado_99279" data-name="Trazado 99279" d="M458.141,118.606a.849.849,0,1,1-.848-.812A.831.831,0,0,1,458.141,118.606Z" transform="translate(-418.278 -117.794)" fill="#fff"/>
              <path id="Trazado_99280" data-name="Trazado 99280" d="M466.588,118.606a.849.849,0,1,1-.849-.812A.831.831,0,0,1,466.588,118.606Z" transform="translate(-419.091 -117.794)" fill="#fff"/>
              <path id="Trazado_99281" data-name="Trazado 99281" d="M475.035,118.606a.849.849,0,1,1-.848-.812A.831.831,0,0,1,475.035,118.606Z" transform="translate(-419.904 -117.794)" fill="#fff"/>
              <path id="Trazado_99282" data-name="Trazado 99282" d="M483.48,118.606a.849.849,0,1,1-.848-.812A.831.831,0,0,1,483.48,118.606Z" transform="translate(-420.717 -117.794)" fill="#fff"/>
              <path id="Trazado_99283" data-name="Trazado 99283" d="M491.927,118.606a.849.849,0,1,1-.849-.812A.831.831,0,0,1,491.927,118.606Z" transform="translate(-421.53 -117.794)" fill="#fff"/>
              <path id="Trazado_99284" data-name="Trazado 99284" d="M500.374,118.606a.849.849,0,1,1-.849-.812A.831.831,0,0,1,500.374,118.606Z" transform="translate(-422.343 -117.794)" fill="#fff"/>
            </g>
            <g id="Grupo_53316" data-name="Grupo 53316" transform="translate(0 64.888)">
              <ellipse id="Elipse_3980" data-name="Elipse 3980" cx="0.848" cy="0.811" rx="0.848" ry="0.811" transform="translate(0 0)" fill="#fff"/>
              <path id="Trazado_99285" data-name="Trazado 99285" d="M424.356,126.114a.849.849,0,1,1-.848-.812A.83.83,0,0,1,424.356,126.114Z" transform="translate(-415.027 -125.302)" fill="#fff"/>
              <ellipse id="Elipse_3981" data-name="Elipse 3981" cx="0.848" cy="0.811" rx="0.848" ry="0.811" transform="translate(15.267 0)" fill="#fff"/>
              <path id="Trazado_99286" data-name="Trazado 99286" d="M441.249,126.114a.849.849,0,1,1-.849-.812A.83.83,0,0,1,441.249,126.114Z" transform="translate(-416.653 -125.302)" fill="#fff"/>
              <path id="Trazado_99287" data-name="Trazado 99287" d="M449.7,126.114a.849.849,0,1,1-.848-.812A.83.83,0,0,1,449.7,126.114Z" transform="translate(-417.466 -125.302)" fill="#fff"/>
              <ellipse id="Elipse_3982" data-name="Elipse 3982" cx="0.848" cy="0.811" rx="0.848" ry="0.811" transform="translate(38.167 0)" fill="#fff"/>
              <path id="Trazado_99288" data-name="Trazado 99288" d="M466.588,126.114a.849.849,0,1,1-.849-.812A.831.831,0,0,1,466.588,126.114Z" transform="translate(-419.091 -125.302)" fill="#fff"/>
              <ellipse id="Elipse_3983" data-name="Elipse 3983" cx="0.848" cy="0.811" rx="0.848" ry="0.811" transform="translate(53.434 0)" fill="#fff"/>
              <ellipse id="Elipse_3984" data-name="Elipse 3984" cx="0.848" cy="0.811" rx="0.848" ry="0.811" transform="translate(61.067 0)" fill="#fff"/>
              <path id="Trazado_99289" data-name="Trazado 99289" d="M491.927,126.114a.849.849,0,1,1-.849-.812A.831.831,0,0,1,491.927,126.114Z" transform="translate(-421.53 -125.302)" fill="#fff"/>
              <path id="Trazado_99290" data-name="Trazado 99290" d="M500.374,126.114a.849.849,0,1,1-.849-.812A.83.83,0,0,1,500.374,126.114Z" transform="translate(-422.343 -125.302)" fill="#fff"/>
            </g>
            <g id="Grupo_53317" data-name="Grupo 53317" transform="translate(0 71.378)">
              <ellipse id="Elipse_3985" data-name="Elipse 3985" cx="0.848" cy="0.811" rx="0.848" ry="0.811" transform="translate(0 0)" fill="#fff"/>
              <path id="Trazado_99291" data-name="Trazado 99291" d="M424.356,133.622a.849.849,0,1,1-.848-.812A.83.83,0,0,1,424.356,133.622Z" transform="translate(-415.027 -132.81)" fill="#fff"/>
              <ellipse id="Elipse_3986" data-name="Elipse 3986" cx="0.848" cy="0.811" rx="0.848" ry="0.811" transform="translate(15.267 0)" fill="#fff"/>
              <path id="Trazado_99292" data-name="Trazado 99292" d="M441.249,133.622a.849.849,0,1,1-.849-.812A.83.83,0,0,1,441.249,133.622Z" transform="translate(-416.653 -132.81)" fill="#fff"/>
              <path id="Trazado_99293" data-name="Trazado 99293" d="M449.7,133.622a.849.849,0,1,1-.848-.812A.83.83,0,0,1,449.7,133.622Z" transform="translate(-417.466 -132.81)" fill="#fff"/>
              <ellipse id="Elipse_3987" data-name="Elipse 3987" cx="0.848" cy="0.811" rx="0.848" ry="0.811" transform="translate(38.167 0)" fill="#fff"/>
              <path id="Trazado_99294" data-name="Trazado 99294" d="M466.588,133.622a.849.849,0,1,1-.849-.812A.831.831,0,0,1,466.588,133.622Z" transform="translate(-419.091 -132.81)" fill="#fff"/>
              <ellipse id="Elipse_3988" data-name="Elipse 3988" cx="0.848" cy="0.811" rx="0.848" ry="0.811" transform="translate(53.434 0)" fill="#fff"/>
              <ellipse id="Elipse_3989" data-name="Elipse 3989" cx="0.848" cy="0.811" rx="0.848" ry="0.811" transform="translate(61.067 0)" fill="#fff"/>
              <path id="Trazado_99295" data-name="Trazado 99295" d="M491.927,133.622a.849.849,0,1,1-.849-.812A.831.831,0,0,1,491.927,133.622Z" transform="translate(-421.53 -132.81)" fill="#fff"/>
              <path id="Trazado_99296" data-name="Trazado 99296" d="M500.374,133.622a.849.849,0,1,1-.849-.812A.83.83,0,0,1,500.374,133.622Z" transform="translate(-422.343 -132.81)" fill="#fff"/>
            </g>
          </g>
        </g>
        <line id="Línea_138" data-name="Línea 138" y2="118.58" transform="translate(13.623 28.542)" fill="none" stroke="#31313c" stroke-linecap="round" stroke-width="4" stroke-dasharray="8"/>
      </g>
    </g>
    <g id="Grupo_1022505" data-name="Grupo 1022505" transform="translate(-8030.09 -7550.755)">
      <rect id="Rectángulo_358345" data-name="Rectángulo 358345" width="32.534" height="26.827" transform="translate(78.5)" fill="#c3dafc"/>
      <rect id="Rectángulo_358346" data-name="Rectángulo 358346" width="32.534" height="26.827" transform="translate(94.767)" fill="#d4e4f8"/>
      <path id="Trazado_751608" data-name="Trazado 751608" d="M393.046,90.268H398.2l-.454-1.451.454-1.036h-5.155Z" transform="translate(-314.527 -70.245)" fill="#9dc3f3"/>
      <path id="Trazado_751609" data-name="Trazado 751609" d="M474.379,31.595h5.155l-.454-1.451.454-1.036h-5.155Z" transform="translate(-379.613 -23.293)" fill="#e3f0ff"/>
      <path id="Trazado_751610" data-name="Trazado 751610" d="M453.729,29.107h-5.155l.454,1.451-.454,1.037h5.155Z" transform="translate(-358.962 -23.293)" fill="#9dc3f3"/>
      <path id="Trazado_751611" data-name="Trazado 751611" d="M616.59,101.672h-5.155l.454,1.451-.454,1.037h5.155Z" transform="translate(-489.288 -81.361)" fill="#e3f0ff"/>
      <rect id="Rectángulo_358347" data-name="Rectángulo 358347" width="9.362" height="3.642" transform="translate(115.809 1.819)" fill="#fff"/>
      <rect id="Rectángulo_358348" data-name="Rectángulo 358348" width="21.689" height="17.884" transform="translate(286.023 8.942)" fill="#c3dafc"/>
      <rect id="Rectángulo_358349" data-name="Rectángulo 358349" width="21.689" height="17.884" transform="translate(296.868 8.942)" fill="#d4e4f8"/>
      <path id="Trazado_751612" data-name="Trazado 751612" d="M1431.825,104.941h3.437l-.3-.967.3-.691h-3.437Z" transform="translate(-1145.789 -82.65)" fill="#9dc3f3"/>
      <path id="Trazado_751613" data-name="Trazado 751613" d="M1486.049,65.825h3.437l-.3-.967.3-.691h-3.437Z" transform="translate(-1189.181 -51.348)" fill="#e3f0ff"/>
      <path id="Trazado_751614" data-name="Trazado 751614" d="M1472.282,64.167h-3.437l.3.967-.3.691h3.437Z" transform="translate(-1175.414 -51.348)" fill="#9dc3f3"/>
      <path id="Trazado_751615" data-name="Trazado 751615" d="M1580.856,112.543h-3.437l.3.967-.3.691h3.437Z" transform="translate(-1262.298 -90.061)" fill="#e3f0ff"/>
      <rect id="Rectángulo_358350" data-name="Rectángulo 358350" width="6.242" height="2.428" transform="translate(310.896 10.155)" fill="#fff"/>
      <rect id="Rectángulo_358351" data-name="Rectángulo 358351" width="28.12" height="23.186" transform="translate(238.405 3.64)" fill="#c3dafc"/>
      <rect id="Rectángulo_358352" data-name="Rectángulo 358352" width="28.12" height="23.186" transform="translate(252.465 3.64)" fill="#d4e4f8"/>
      <path id="Trazado_751616" data-name="Trazado 751616" d="M1193.481,96.241h4.456l-.393-1.254.393-.9h-4.456Z" transform="translate(-955.059 -75.294)" fill="#9dc3f3"/>
      <path id="Trazado_751617" data-name="Trazado 751617" d="M1263.779,45.529h4.456l-.392-1.254.392-.9h-4.456Z" transform="translate(-1011.314 -34.713)" fill="#e3f0ff"/>
      <path id="Trazado_751618" data-name="Trazado 751618" d="M1245.93,43.379h-4.456l.393,1.254-.393.9h4.456Z" transform="translate(-993.465 -34.713)" fill="#9dc3f3"/>
      <path id="Trazado_751619" data-name="Trazado 751619" d="M1386.693,106.1h-4.456l.392,1.254-.392.9h4.456Z" transform="translate(-1106.107 -84.903)" fill="#e3f0ff"/>
      <rect id="Rectángulo_358353" data-name="Rectángulo 358353" width="8.092" height="3.148" transform="translate(270.652 5.212)" fill="#fff"/>
      <rect id="Rectángulo_358354" data-name="Rectángulo 358354" width="32.534" height="26.827" transform="translate(21.045)" fill="#c3dafc"/>
      <rect id="Rectángulo_358355" data-name="Rectángulo 358355" width="32.534" height="26.827" transform="translate(37.312)" fill="#d4e4f8"/>
      <path id="Trazado_751620" data-name="Trazado 751620" d="M105.439,90.268h5.155l-.454-1.451.454-1.036h-5.155Z" transform="translate(-84.375 -70.245)" fill="#9dc3f3"/>
      <path id="Trazado_751621" data-name="Trazado 751621" d="M186.773,31.595h5.155l-.454-1.451.454-1.036h-5.155Z" transform="translate(-149.461 -23.293)" fill="#e3f0ff"/>
      <path id="Trazado_751622" data-name="Trazado 751622" d="M166.122,29.107h-5.155l.454,1.451-.454,1.037h5.155Z" transform="translate(-128.811 -23.293)" fill="#9dc3f3"/>
      <path id="Trazado_751623" data-name="Trazado 751623" d="M328.983,101.672h-5.155l.454,1.451-.454,1.037h5.155Z" transform="translate(-259.137 -81.361)" fill="#e3f0ff"/>
      <rect id="Rectángulo_358356" data-name="Rectángulo 358356" width="9.362" height="3.642" transform="translate(58.353 1.819)" fill="#fff"/>
      <rect id="Rectángulo_358357" data-name="Rectángulo 358357" width="12.513" height="149.254" transform="translate(0 26.827)" fill="#727997"/>
      <rect id="Rectángulo_358358" data-name="Rectángulo 358358" width="10.402" height="149.254" transform="translate(137.193 26.826)" fill="#727997"/>
      <rect id="Rectángulo_358359" data-name="Rectángulo 358359" width="135.082" height="3.885" transform="translate(12.513 26.826)" fill="#12263f"/>
      <rect id="Rectángulo_358360" data-name="Rectángulo 358360" width="135.082" height="3.884" transform="translate(12.513 97.569)" fill="#12263f"/>
      <rect id="Rectángulo_358361" data-name="Rectángulo 358361" width="135.082" height="3.884" transform="translate(12.513 156.902)" fill="#12263f"/>
      <rect id="Rectángulo_358362" data-name="Rectángulo 358362" width="33.636" height="27.735" transform="translate(80.753 69.834)" fill="#a9c8ed"/>
      <rect id="Rectángulo_358363" data-name="Rectángulo 358363" width="33.636" height="27.735" transform="translate(97.571 69.834)" fill="#d4e4f8"/>
      <path id="Trazado_751624" data-name="Trazado 751624" d="M404.326,442.9h5.33l-.469-1.5.469-1.072h-5.33Z" transform="translate(-323.554 -352.362)" fill="#9dc3f3"/>
      <path id="Trazado_751625" data-name="Trazado 751625" d="M488.416,382.237h5.33l-.469-1.5.469-1.072h-5.33Z" transform="translate(-390.845 -303.819)" fill="#e3f0ff"/>
      <path id="Trazado_751626" data-name="Trazado 751626" d="M467.065,379.665h-5.33l.469,1.5-.469,1.072h5.33Z" transform="translate(-369.494 -303.819)" fill="#9dc3f3"/>
      <path id="Trazado_751627" data-name="Trazado 751627" d="M635.443,454.688h-5.33l.469,1.5-.469,1.072h5.33Z" transform="translate(-504.236 -363.855)" fill="#e3f0ff"/>
      <rect id="Rectángulo_358364" data-name="Rectángulo 358364" width="9.679" height="3.766" transform="translate(119.325 71.714)" fill="#fff"/>
      <rect id="Rectángulo_358365" data-name="Rectángulo 358365" width="33.636" height="27.735" transform="translate(37.587 69.834)" fill="#c3dafc"/>
      <rect id="Rectángulo_358366" data-name="Rectángulo 358366" width="33.636" height="27.735" transform="translate(54.405 69.834)" fill="#d4e4f8"/>
      <path id="Trazado_751628" data-name="Trazado 751628" d="M188.248,442.9h5.33l-.469-1.5.469-1.072h-5.33Z" transform="translate(-150.642 -352.362)" fill="#9dc3f3"/>
      <path id="Trazado_751629" data-name="Trazado 751629" d="M272.337,382.237h5.33l-.469-1.5.469-1.072h-5.33Z" transform="translate(-217.932 -303.819)" fill="#e3f0ff"/>
      <path id="Trazado_751630" data-name="Trazado 751630" d="M250.986,379.665h-5.33l.469,1.5-.469,1.072h5.33Z" transform="translate(-196.581 -303.819)" fill="#9dc3f3"/>
      <path id="Trazado_751631" data-name="Trazado 751631" d="M419.365,454.688h-5.33l.469,1.5-.469,1.072h5.33Z" transform="translate(-331.323 -363.855)" fill="#e3f0ff"/>
      <path id="Trazado_751632" data-name="Trazado 751632" d="M419.365,377.835h-5.33l.469,1.5-.469,1.072h5.33Z" transform="translate(-331.323 -302.355)" fill="#e3f0ff"/>
      <rect id="Rectángulo_358367" data-name="Rectángulo 358367" width="15.776" height="6.138" transform="translate(57.802 88.461)" fill="#fff"/>
      <rect id="Rectángulo_358368" data-name="Rectángulo 358368" width="29.072" height="23.972" transform="translate(80.753 132.841)" fill="#c3dafc"/>
      <rect id="Rectángulo_358369" data-name="Rectángulo 358369" width="29.072" height="23.972" transform="translate(95.289 132.841)" fill="#d4e4f8"/>
      <path id="Trazado_751633" data-name="Trazado 751633" d="M404.313,745.63h4.607l-.406-1.3.406-.926h-4.607Z" transform="translate(-323.543 -594.897)" fill="#9dc3f3"/>
      <path id="Trazado_751634" data-name="Trazado 751634" d="M476.992,693.2H481.6l-.406-1.3.406-.926h-4.607Z" transform="translate(-381.703 -552.941)" fill="#e3f0ff"/>
      <path id="Trazado_751635" data-name="Trazado 751635" d="M458.539,690.978h-4.607l.406,1.3-.406.926h4.607Z" transform="translate(-363.25 -552.941)" fill="#9dc3f3"/>
      <path id="Trazado_751636" data-name="Trazado 751636" d="M604.07,755.822h-4.607l.406,1.3-.406.926h4.607Z" transform="translate(-479.709 -604.831)" fill="#e3f0ff"/>
      <rect id="Rectángulo_358370" data-name="Rectángulo 358370" width="8.366" height="3.255" transform="translate(114.092 134.466)" fill="#fff"/>
      <rect id="Rectángulo_358371" data-name="Rectángulo 358371" width="33.636" height="27.735" transform="translate(25.538 129.077)" fill="#c3dafc"/>
      <rect id="Rectángulo_358372" data-name="Rectángulo 358372" width="33.636" height="27.735" transform="translate(42.356 129.077)" fill="#d4e4f8"/>
      <path id="Trazado_751637" data-name="Trazado 751637" d="M127.936,739.456h5.33l-.469-1.5.469-1.072h-5.33Z" transform="translate(-102.378 -589.677)" fill="#2a4e96"/>
      <path id="Trazado_751638" data-name="Trazado 751638" d="M212.025,678.795h5.33l-.469-1.5.469-1.072h-5.33Z" transform="translate(-169.669 -541.134)" fill="#618dc1"/>
      <path id="Trazado_751639" data-name="Trazado 751639" d="M190.675,676.223h-5.33l.469,1.5-.469,1.072h5.33Z" transform="translate(-148.319 -541.134)" fill="#2a4e96"/>
      <path id="Trazado_751640" data-name="Trazado 751640" d="M359.052,751.247h-5.33l.469,1.5-.469,1.072h5.33Z" transform="translate(-283.059 -601.17)" fill="#618dc1"/>
      <rect id="Rectángulo_358373" data-name="Rectángulo 358373" width="9.679" height="3.766" transform="translate(64.111 130.958)" fill="#fff"/>
      <rect id="Rectángulo_358374" data-name="Rectángulo 358374" width="25.715" height="21.203" transform="translate(35.006 48.503)" fill="#c3dafc"/>
      <rect id="Rectángulo_358375" data-name="Rectángulo 358375" width="25.715" height="21.203" transform="translate(47.863 48.503)" fill="#d4e4f8"/>
      <path id="Trazado_751641" data-name="Trazado 751641" d="M175.3,314.143h4.075L179.02,313l.359-.819H175.3Z" transform="translate(-140.284 -249.814)" fill="#9dc3f3"/>
      <path id="Trazado_751642" data-name="Trazado 751642" d="M239.59,267.769h4.075l-.359-1.147.359-.819H239.59Z" transform="translate(-191.727 -212.703)" fill="#e3f0ff"/>
      <path id="Trazado_751643" data-name="Trazado 751643" d="M223.268,265.8h-4.075l.359,1.147-.359.819h4.075Z" transform="translate(-175.405 -212.703)" fill="#9dc3f3"/>
      <path id="Trazado_751644" data-name="Trazado 751644" d="M351.992,323.158h-4.075l.359,1.147-.359.819h4.075Z" transform="translate(-278.414 -258.601)" fill="#e3f0ff"/>
      <rect id="Rectángulo_358376" data-name="Rectángulo 358376" width="7.4" height="2.879" transform="translate(64.494 49.941)" fill="#fff"/>
      <rect id="Rectángulo_358377" data-name="Rectángulo 358377" width="25.715" height="21.203" transform="translate(80.949 48.503)" fill="#c3dafc"/>
      <rect id="Rectángulo_358378" data-name="Rectángulo 358378" width="25.715" height="21.203" transform="translate(93.807 48.503)" fill="#d4e4f8"/>
      <path id="Trazado_751645" data-name="Trazado 751645" d="M405.288,314.143h4.075L409,313l.359-.819h-4.075Z" transform="translate(-324.324 -249.814)" fill="#9dc3f3"/>
      <path id="Trazado_751646" data-name="Trazado 751646" d="M469.574,267.769h4.075l-.359-1.147.359-.819h-4.075Z" transform="translate(-375.767 -212.703)" fill="#e3f0ff"/>
      <path id="Trazado_751647" data-name="Trazado 751647" d="M453.251,265.8h-4.075l.359,1.147-.359.819h4.075Z" transform="translate(-359.445 -212.703)" fill="#9dc3f3"/>
      <path id="Trazado_751648" data-name="Trazado 751648" d="M581.975,323.158H577.9l.359,1.147-.359.819h4.075Z" transform="translate(-462.454 -258.601)" fill="#e3f0ff"/>
      <rect id="Rectángulo_358379" data-name="Rectángulo 358379" width="7.4" height="2.879" transform="translate(110.438 49.941)" fill="#fff"/>
      <rect id="Rectángulo_358380" data-name="Rectángulo 358380" width="19.49" height="16.071" transform="translate(43.799 112.992)" fill="#e6b046"/>
      <path id="Trazado_751778" data-name="Trazado 751778" d="M0,0H19.49V16.071H0Z" transform="translate(34.054 112.992)" fill="#f0dcc0"/>
      <path id="Trazado_751649" data-name="Trazado 751649" d="M304.384,619.684H301.3l.272-.869-.272-.621h3.088Z" transform="translate(-241.106 -494.697)" fill="#12263f"/>
      <path id="Trazado_751650" data-name="Trazado 751650" d="M255.66,584.535h-3.088l.272-.869-.272-.621h3.088Z" transform="translate(-202.115 -466.57)" fill="#12263f"/>
      <path id="Trazado_751651" data-name="Trazado 751651" d="M268.031,583.044h3.088l-.272.869.272.621h-3.088Z" transform="translate(-214.486 -466.57)" fill="#12263f"/>
      <path id="Trazado_751652" data-name="Trazado 751652" d="M170.466,626.516h3.088l-.272.869.272.621h-3.088Z" transform="translate(-136.412 -501.357)" fill="#12263f"/>
      <rect id="Rectángulo_358382" data-name="Rectángulo 358382" width="5.609" height="2.182" transform="translate(35.33 114.081)" fill="#fff"/>
      <rect id="Rectángulo_358383" data-name="Rectángulo 358383" width="30.663" height="30.663" transform="translate(12.513 26.827)" fill="#fff"/>
      <rect id="Rectángulo_358384" data-name="Rectángulo 358384" width="27.387" height="27.387" transform="translate(14.152 28.465)" fill="#12263f"/>
      <rect id="Rectángulo_358385" data-name="Rectángulo 358385" width="11.443" height="149.254" transform="translate(189.033 26.826)" fill="#727997"/>
      <rect id="Rectángulo_358386" data-name="Rectángulo 358386" width="11.108" height="149.254" transform="translate(324.45 26.826)" fill="#727997"/>
      <rect id="Rectángulo_358387" data-name="Rectángulo 358387" width="135.082" height="3.5" transform="translate(200.476 26.827)" fill="#12263f"/>
      <rect id="Rectángulo_358388" data-name="Rectángulo 358388" width="135.082" height="3.884" transform="translate(200.476 97.569)" fill="#12263f"/>
      <rect id="Rectángulo_358389" data-name="Rectángulo 358389" width="135.082" height="4.626" transform="translate(200.476 156.902)" fill="#12263f"/>
      <rect id="Rectángulo_358390" data-name="Rectángulo 358390" width="33.636" height="27.735" transform="translate(268.715 69.834)" fill="#c3dafc"/>
      <rect id="Rectángulo_358391" data-name="Rectángulo 358391" width="33.636" height="27.735" transform="translate(285.534 69.834)" fill="#d4e4f8"/>
      <path id="Trazado_751653" data-name="Trazado 751653" d="M1345.222,442.9h5.33l-.469-1.5.469-1.072h-5.33Z" transform="translate(-1076.487 -352.362)" fill="#9dc3f3"/>
      <path id="Trazado_751654" data-name="Trazado 751654" d="M1429.311,382.237h5.33l-.47-1.5.47-1.072h-5.33Z" transform="translate(-1143.777 -303.819)" fill="#e3f0ff"/>
      <path id="Trazado_751655" data-name="Trazado 751655" d="M1407.96,379.665h-5.33l.47,1.5-.47,1.072h5.33Z" transform="translate(-1122.426 -303.819)" fill="#9dc3f3"/>
      <path id="Trazado_751656" data-name="Trazado 751656" d="M1576.337,454.688h-5.33l.47,1.5-.47,1.072h5.33Z" transform="translate(-1257.167 -363.855)" fill="#e3f0ff"/>
      <rect id="Rectángulo_358392" data-name="Rectángulo 358392" width="9.679" height="3.766" transform="translate(307.288 71.714)" fill="#fff"/>
      <rect id="Rectángulo_358393" data-name="Rectángulo 358393" width="33.636" height="27.735" transform="translate(225.549 69.834)" fill="#c3dafc"/>
      <rect id="Rectángulo_358394" data-name="Rectángulo 358394" width="33.636" height="27.735" transform="translate(242.367 69.834)" fill="#d4e4f8"/>
      <path id="Trazado_751657" data-name="Trazado 751657" d="M1129.142,442.9h5.33l-.47-1.5.47-1.072h-5.33Z" transform="translate(-903.574 -352.362)" fill="#233862"/>
      <path id="Trazado_751658" data-name="Trazado 751658" d="M1213.232,382.237h5.33l-.469-1.5.469-1.072h-5.33Z" transform="translate(-970.864 -303.819)" fill="#2a4e96"/>
      <path id="Trazado_751659" data-name="Trazado 751659" d="M1191.881,379.665h-5.33l.469,1.5-.469,1.072h5.33Z" transform="translate(-949.514 -303.819)" fill="#233862"/>
      <path id="Trazado_751660" data-name="Trazado 751660" d="M1360.26,454.688h-5.33l.469,1.5-.469,1.072h5.33Z" transform="translate(-1084.255 -363.855)" fill="#2a4e96"/>
      <rect id="Rectángulo_358395" data-name="Rectángulo 358395" width="12.989" height="5.053" transform="translate(245.032 89.546)" fill="#fff"/>
      <rect id="Rectángulo_358396" data-name="Rectángulo 358396" width="28.595" height="23.579" transform="translate(219.273 133.234)" fill="#c3dafc"/>
      <rect id="Rectángulo_358397" data-name="Rectángulo 358397" width="28.595" height="23.579" transform="translate(233.571 133.234)" fill="#d4e4f8"/>
      <path id="Trazado_751661" data-name="Trazado 751661" d="M1097.712,746.276h4.531l-.4-1.275.4-.911h-4.531Z" transform="translate(-878.422 -595.443)" fill="#9dc3f3"/>
      <path id="Trazado_751662" data-name="Trazado 751662" d="M1169.2,694.706h4.531l-.4-1.275.4-.911H1169.2Z" transform="translate(-935.629 -554.175)" fill="#e3f0ff"/>
      <path id="Trazado_751663" data-name="Trazado 751663" d="M1151.049,692.519h-4.531l.4,1.275-.4.911h4.531Z" transform="translate(-917.478 -554.174)" fill="#9dc3f3"/>
      <path id="Trazado_751664" data-name="Trazado 751664" d="M1294.194,756.3h-4.531l.4,1.275-.4.911h4.531Z" transform="translate(-1032.027 -605.213)" fill="#e3f0ff"/>
      <rect id="Rectángulo_358398" data-name="Rectángulo 358398" width="8.229" height="3.201" transform="translate(252.066 134.832)" fill="#fff"/>
      <rect id="Rectángulo_358399" data-name="Rectángulo 358399" width="28.666" height="23.637" transform="translate(265.636 133.176)" fill="#c3dafc"/>
      <rect id="Rectángulo_358400" data-name="Rectángulo 358400" width="28.666" height="23.637" transform="translate(279.969 133.176)" fill="#d4e4f8"/>
      <path id="Trazado_751665" data-name="Trazado 751665" d="M1329.792,746.18h4.542l-.4-1.278.4-.913h-4.542Z" transform="translate(-1064.139 -595.362)" fill="#9dc3f3"/>
      <path id="Trazado_751666" data-name="Trazado 751666" d="M1401.455,694.483H1406l-.4-1.278.4-.913h-4.542Z" transform="translate(-1121.486 -553.992)" fill="#e3f0ff"/>
      <path id="Trazado_751667" data-name="Trazado 751667" d="M1383.26,692.292h-4.542l.4,1.278-.4.913h4.542Z" transform="translate(-1103.291 -553.992)" fill="#9dc3f3"/>
      <path id="Trazado_751668" data-name="Trazado 751668" d="M1526.758,756.229h-4.542l.4,1.278-.4.913h4.542Z" transform="translate(-1218.123 -605.157)" fill="#e3f0ff"/>
      <rect id="Rectángulo_358401" data-name="Rectángulo 358401" width="8.249" height="3.209" transform="translate(298.509 134.779)" fill="#fff"/>
      <rect id="Rectángulo_358402" data-name="Rectángulo 358402" width="25.715" height="21.203" transform="translate(222.95 48.667)" fill="#c3dafc"/>
      <rect id="Rectángulo_358403" data-name="Rectángulo 358403" width="25.715" height="21.203" transform="translate(235.807 48.667)" fill="#d4e4f8"/>
      <path id="Trazado_751669" data-name="Trazado 751669" d="M1116.108,314.964h4.075l-.359-1.147.359-.819h-4.075Z" transform="translate(-893.143 -250.47)" fill="#9dc3f3"/>
      <path id="Trazado_751670" data-name="Trazado 751670" d="M1180.394,268.59h4.075l-.359-1.146.359-.819h-4.075Z" transform="translate(-944.587 -213.36)" fill="#e3f0ff"/>
      <path id="Trazado_751671" data-name="Trazado 751671" d="M1164.072,266.624H1160l.359,1.147-.359.819h4.075Z" transform="translate(-928.264 -213.36)" fill="#9dc3f3"/>
      <path id="Trazado_751672" data-name="Trazado 751672" d="M1292.8,323.978h-4.075l.359,1.147-.359.819h4.075Z" transform="translate(-1031.273 -259.257)" fill="#e3f0ff"/>
      <rect id="Rectángulo_358404" data-name="Rectángulo 358404" width="7.4" height="2.879" transform="translate(252.439 50.105)" fill="#fff"/>
      <rect id="Rectángulo_358405" data-name="Rectángulo 358405" width="19.49" height="16.071" transform="translate(276.078 53.782)" fill="#e6b046"/>
      <rect id="Rectángulo_358406" data-name="Rectángulo 358406" width="19.49" height="16.071" transform="translate(266.333 53.782)" fill="#f0dcc0"/>
      <path id="Trazado_751673" data-name="Trazado 751673" d="M1467.113,323.3h-3.088l.272-.869-.272-.621h3.088Z" transform="translate(-1171.556 -257.519)" fill="#12263f"/>
      <path id="Trazado_751674" data-name="Trazado 751674" d="M1418.388,288.147H1415.3l.272-.869-.272-.621h3.089Z" transform="translate(-1132.565 -229.392)" fill="#12263f"/>
      <path id="Trazado_751675" data-name="Trazado 751675" d="M1430.76,286.657h3.088l-.272.869.272.621h-3.088Z" transform="translate(-1144.937 -229.391)" fill="#12263f"/>
      <path id="Trazado_751676" data-name="Trazado 751676" d="M1333.194,330.129h3.088l-.272.869.272.621h-3.088Z" transform="translate(-1066.862 -264.179)" fill="#12263f"/>
      <rect id="Rectángulo_358407" data-name="Rectángulo 358407" width="5.609" height="2.182" transform="translate(267.609 54.872)" fill="#fff"/>
      <rect id="Rectángulo_358408" data-name="Rectángulo 358408" width="30.663" height="30.663" transform="translate(200.476 26.827)" fill="#fff"/>
      <rect id="Rectángulo_358409" data-name="Rectángulo 358409" width="27.387" height="27.387" transform="translate(202.114 28.465)" fill="#12263f"/>
      <g id="Grupo_1022504" data-name="Grupo 1022504">
        <g id="Grupo_1022503" data-name="Grupo 1022503" clip-path="url(#clip-path-2)">
          <path id="Trazado_751677" data-name="Trazado 751677" d="M622.346,503.207s-1.31-2.761-.284-4.46,5.1-1.805,5.1-1.805-.354.195-.372.372,1.168-.46,1.982.973.776,2.775-.09,4.759-6.334.161-6.334.161" transform="translate(-497.478 -397.668)" fill="#233862"/>
          <path id="Trazado_751678" data-name="Trazado 751678" d="M668.762,581.688a23,23,0,0,1-6.836-.336,7.612,7.612,0,0,1-1.389-.433,2.145,2.145,0,0,1-1.005-.759,28.093,28.093,0,0,1-1.4-4.188c-1.671-5.811-4.023-15.413-4.023-15.413s4.723.964,5.722,1.787,1.882,13.875,2.822,14.227c.138.052.377.161.683.312l.045.022c.183.09.388.194.61.309,1.95,1,4.783,2.874,5.511,3.208.626.287.412,1-.735,1.264" transform="translate(-523.433 -448.576)" fill="#12263f"/>
          <path id="Trazado_751679" data-name="Trazado 751679" d="M614.412,568.262a3.731,3.731,0,0,0-.063-.668c-.608-3.341-5.44-6.7-5.535-6.7v0a2.132,2.132,0,0,1-2.045,1.534c-1.471.1-3.276-.636-3.276-1.483-.009,0-.837,0-1.114.034a11.9,11.9,0,0,0-4.54,1.533c-.958.724.4,5.289,1.235,8.522a12.933,12.933,0,0,1,.574,3c-.021.244-.241,3.563-.437,6.565-.162,2.477-.309,4.737-.313,4.879-.011.281,1.388,1.267,3.737,2.011a18.386,18.386,0,0,0,1.863.483,19.8,19.8,0,0,0,4.052.4c.485,0,.945-.026,1.378-.07,3.355-.329,4.5-4.152,4.484-20.046" transform="translate(-478.145 -448.848)" fill="#12263f"/>
          <path id="Trazado_751680" data-name="Trazado 751680" d="M694.521,647.167c-.113.028-.268.042-.466.071a24.891,24.891,0,0,1-2.811.028,15.911,15.911,0,0,1-4.958-.861,6.279,6.279,0,0,1,2.839-4.012c.862.424,2.232,1.144,3.461,1.85h.014c1.314.735,2.264,1.538,2.656,1.667.648.213.41,1-.734,1.257" transform="translate(-549.187 -514.062)" fill="#ffb27d"/>
          <path id="Trazado_751681" data-name="Trazado 751681" d="M627.373,543.78a28.449,28.449,0,0,1,.168-4.157l5.18.847s0,1.581-.023,3.335h.005s.141,1.627-1.863,1.865-3.522-.635-3.468-1.891" transform="translate(-502.035 -431.822)" fill="#ffb27d"/>
          <path id="Trazado_751682" data-name="Trazado 751682" d="M647.584,886.269c-.651-.4-.269-3.372-.269-3.372s3.051-2.422,3.462-.557,2.879,2.71,4.285,2.944a1.51,1.51,0,0,1,1.361,1.019Z" transform="translate(-517.912 -705.511)" fill="#233862"/>
          <path id="Trazado_751683" data-name="Trazado 751683" d="M600.791,886.269c-.651-.4-.268-3.372-.268-3.372s3.051-2.422,3.462-.557,2.88,2.71,4.285,2.944a1.51,1.51,0,0,1,1.361,1.019Z" transform="translate(-480.467 -705.511)" fill="#233862"/>
          <path id="Trazado_751684" data-name="Trazado 751684" d="M604.38,612.3c-.011.281,1.388,1.266,3.737,2.01.189.061.385.118.586.175a.006.006,0,0,1,0,.006c.219,2.57.812,6.2,1.347,9.706h0c.139.908.273,1.808.4,2.678a53.3,53.3,0,0,1,.6,5.913v.016a23.625,23.625,0,0,1-.617,2.822c-.027.244-.049.5-.065.773a31.449,31.449,0,0,0,.049,3.726c.384,5.958,1.958,13.581,2.52,13.906,1.117.646,3.148,0,4.181-.152a.853.853,0,0,0,.748-.859c-.5-9.888.945-23.658,2.028-32.124q.042-.331.084-.649c.13-1,.215-1.93.269-2.771.049-.737.073-1.407.084-1.987,0-.181,0-.354.005-.517,0-.53-.419-4-.438-19.894a.67.67,0,0,0-.668-.668h-9.72a1.685,1.685,0,0,0-1.683,1.708,27.074,27.074,0,0,1-.292,4.521c-.359,2.207-1.127,4.269-2.713,4.765a.005.005,0,0,0,0,0c-.007.016-.051.112-.12.273v0q-.023.6-.05,1.219c0,.083-.007.167-.011.251,0,.049,0,.1-.007.147,0,.084-.008.169-.012.253q-.009.209-.021.421c-.006.111-.012.223-.019.334q-.017.323-.039.653c0,.07-.008.14-.013.212-.018.284-.038.573-.06.863-.006.089-.013.178-.02.268,0,.043-.006.086-.01.13-.009.114-.018.228-.027.342s-.02.242-.031.365c-.039.446.019.844.007,1.157" transform="translate(-483.627 -475.667)" fill="#91b3fa"/>
          <path id="Trazado_751685" data-name="Trazado 751685" d="M634.333,723.483c.384,5.958,1.958,13.581,2.519,13.906,1.117.646,3.148,0,4.181-.152a.853.853,0,0,0,.748-.859c-.5-9.888.945-23.658,2.028-32.124q.042-.331.084-.649c.13-1,.215-1.93.269-2.771-.515-3.357-3.422-3.537-6.058,3.407.326,2.3-3.138,10.351-3.138,11.9v.016a23.686,23.686,0,0,1-.617,2.822c-.027.244-.05.5-.065.773a31.383,31.383,0,0,0,.049,3.726" transform="translate(-507.544 -559.024)" fill="#84a2e2"/>
          <path id="Trazado_751686" data-name="Trazado 751686" d="M597,695.855a23.568,23.568,0,0,1-.983,2.717c-1.333,5.359-.6,18.066.064,18.575,1.022.787,3.122.413,4.165.4a.852.852,0,0,0,.854-.753c.819-10.125,4.215-24.031,6.4-32.212a38.392,38.392,0,0,0,1.255-7.15s-10.205-6.252-11.309-2.837c-.977,3.023.171,15.973-.445,21.262" transform="translate(-476.357 -539.013)" fill="#91b3fa"/>
          <path id="Trazado_751687" data-name="Trazado 751687" d="M616.14,561.572s3.008,3.5,3.184,6.561H617.8a14.638,14.638,0,0,0-2.653-6.351Z" transform="translate(-492.255 -449.387)" fill="#91b3fa"/>
          <path id="Trazado_751688" data-name="Trazado 751688" d="M657.561,561.534a15.36,15.36,0,0,1,2.41,6.568H661.5a13.871,13.871,0,0,0-2.455-6.214h0c-.567-.158-1.091-.274-1.482-.354" transform="translate(-526.2 -449.356)" fill="#91b3fa"/>
          <path id="Trazado_751689" data-name="Trazado 751689" d="M592.7,581.219c.076,3.588-.371,10.732-.371,10.732h-2.117a57.85,57.85,0,0,1-1.352-10.024q0-.521,0-.97c.013-1.506.054-2.381.054-2.381-.4-9.127,1.426-14.007,2-14.679s3.192-1.276,3.192-1.276a36.006,36.006,0,0,1,1.218,4.55c.353,2.028-2.774,10.551-2.646,13.464.008.182.014.377.018.586" transform="translate(-471.227 -450.225)" fill="#12263f"/>
          <path id="Trazado_751690" data-name="Trazado 751690" d="M592.562,660.056c-.1,2.585-.24,4.788-.24,4.788H590.2c-.367-1.794-.635-3.362-.847-4.7a38.108,38.108,0,0,1-.509-5.311c0-.353,0-.678.014-.975a7.367,7.367,0,0,1,3.828.268c.028,1.6-.043,3.885-.127,5.933" transform="translate(-471.213 -523.123)" fill="#ffb27d"/>
          <path id="Trazado_751691" data-name="Trazado 751691" d="M598.109,708.785c.028.579-2.5,1.907-3.263,1.554s-.791-2.359-.353-4.209,2.119,0,2.119,0a11.471,11.471,0,0,1,1.5,2.656" transform="translate(-475.503 -564.408)" fill="#ffb27d"/>
          <path id="Trazado_751692" data-name="Trazado 751692" d="M730.558,661.193h-5.382l1.2-1.328a5.7,5.7,0,0,0,2.289,0c.9-.283,1.893,1.328,1.893,1.328" transform="translate(-580.308 -528.017)" fill="#ffb27d"/>
          <path id="Trazado_751693" data-name="Trazado 751693" d="M627.628,545.853a4.354,4.354,0,0,0,2.653,1.521,3.331,3.331,0,0,0,2.636-1.638Z" transform="translate(-502.247 -436.713)" fill="#ed975d"/>
          <path id="Trazado_751694" data-name="Trazado 751694" d="M630.633,520.2a7.119,7.119,0,0,1-2.406.835,19.266,19.266,0,0,1-2.586-.728c-.616-.373-.576-1.129-.608-2.18a16.4,16.4,0,0,1-.024-2.938c.165-.858.709-1.346,2.232-1.479,2.8-.243,3.96.457,4.009,1.395.013.252.024.492.033.719.112,2.923-.119,3.959-.649,4.376" transform="translate(-500.099 -411.046)" fill="#ffb27d"/>
          <path id="Trazado_751695" data-name="Trazado 751695" d="M623.351,511.43s-.231-2.5,1.238-2.5,3.451,1.876,4.336.672.759,1.662.759,1.662l.09-3.839-5.663-.212-1.186.885Z" transform="translate(-498.484 -405.891)" fill="#233862"/>
          <rect id="Rectángulo_358410" data-name="Rectángulo 358410" width="17.659" height="14.561" transform="translate(149.444 122.972)" fill="#e6b046"/>
          <rect id="Rectángulo_358411" data-name="Rectángulo 358411" width="17.659" height="14.561" transform="translate(140.614 122.972)" fill="#f0dcc0"/>
          <path id="Trazado_751696" data-name="Trazado 751696" d="M825.214,664.564h-2.8l.247-.787-.247-.563h2.8Z" transform="translate(-658.122 -530.724)" fill="#c15e1b"/>
          <path id="Trazado_751697" data-name="Trazado 751697" d="M781.067,632.718h-2.8l.247-.787-.247-.563h2.8Z" transform="translate(-622.794 -505.239)" fill="#12263f"/>
          <path id="Trazado_751698" data-name="Trazado 751698" d="M792.276,631.368h2.8l-.247.787.247.563h-2.8Z" transform="translate(-634.003 -505.239)" fill="#12263f"/>
          <path id="Trazado_751699" data-name="Trazado 751699" d="M703.878,670.755h2.8l-.246.787.246.563h-2.8Z" transform="translate(-563.264 -536.758)" fill="#12263f"/>
          <rect id="Rectángulo_358412" data-name="Rectángulo 358412" width="5.082" height="1.977" transform="translate(141.77 123.959)" fill="#fff"/>
          <path id="Trazado_751700" data-name="Trazado 751700" d="M727.223,682.286c-.429-.279-1.4-.89-1.444-.744a.636.636,0,0,0,.147.459,4.093,4.093,0,0,0-2.532.008,1.032,1.032,0,0,0-.659.471.454.454,0,0,0,.186.7c.718.409.5.156,1.5.753a2.871,2.871,0,0,0,2.895.24l.951-.2.058-1.578s-.548-.044-1.105-.115" transform="translate(-578.278 -545.373)" fill="#ffb27d"/>
          <path id="Trazado_751701" data-name="Trazado 751701" d="M847.334,583.079s-2.712,2.216-5.331.586a8.709,8.709,0,0,1-.138-2.67c.024-.134.047-.263.068-.386.214-1.223.3-1.916.3-1.916h0c.139-.03,4.652-.964,4.622-.822a7.563,7.563,0,0,0,.476,5.208" transform="translate(-673.637 -462.418)" fill="#ffb27d"/>
          <path id="Trazado_751702" data-name="Trazado 751702" d="M846.806,581.205a6.668,6.668,0,0,1-4.357,2.03c.214-1.223.3-1.916.3-1.916h0c.122-.01,4.215-.312,4.053-.114" transform="translate(-674.153 -465.044)" fill="#ed975d"/>
          <path id="Trazado_751703" data-name="Trazado 751703" d="M838.013,550.8s4.505,1.992,5.7-.833,2.585-4.47-.241-5.861-3.845-.551-4.474.294-2.128,5.809-.987,6.4" transform="translate(-670.27 -434.816)" fill="#ffb27d"/>
          <path id="Trazado_751704" data-name="Trazado 751704" d="M840.186,541.452c.057.053,1.012.555,3.65-2.911a3.39,3.39,0,0,0,.376-3.085c-.487-1.28-2.81-2.65-4.807-3.431s-2.712.291-3.419,1.37a6.431,6.431,0,0,1-2.41,1.868c1.6,1.332,4.016.309,4.717.683s.744,1.6.729,1.984.013.716,1.012.555.175,1.407-.035,1.7c0,0-.286.824.187,1.269" transform="translate(-667.052 -425.529)" fill="#a9453d"/>
          <path id="Trazado_751705" data-name="Trazado 751705" d="M900.812,928.188h2.9c.609,0,1.285-.609,1.455-1.725s1.42-1.725,1.691-2.639-1.117-2.2-1.117-2.2l-.232-.3-.241-.31-2.3.541s-.057.548-.092,1.245a15.942,15.942,0,0,0-.009,1.6c.068,1.218-.341,2.529-1.423,2.767s-.635,1.022-.635,1.022" transform="translate(-720.783 -737.025)" fill="#2c3a64"/>
          <path id="Trazado_751706" data-name="Trazado 751706" d="M800,940.13h7.7a.685.685,0,0,0,.164-.047c.514-.257.353-2.225.291-2.832-.012-.113-.02-.178-.02-.178s-2.706-2.165-3.079-.507c-.012.052-.026.1-.04.152h0c-.47,1.551-2.57,2.255-3.783,2.452a1.321,1.321,0,0,0-1.229.961" transform="translate(-640.182 -748.967)" fill="#2c3a64"/>
          <path id="Trazado_751707" data-name="Trazado 751707" d="M807.761,731.9s.411,5.128.894,11.292c.656,8.374,1.446,18.659,1.524,20.608.135,3.383.677,8.8.677,8.8a4.255,4.255,0,0,0,3.857.744,88.544,88.544,0,0,0,2.946-15.9c.01-.134.02-.269.03-.4.609-8.322,1.556-25.845,1.556-25.845Z" transform="translate(-646.395 -585.118)" fill="#57dbd8"/>
          <path id="Trazado_751708" data-name="Trazado 751708" d="M815.354,731.556a31.936,31.936,0,0,0,1.214,9.2c1.086,4.4,7.153,16.677,7.153,16.677.01-.134.02-.269.03-.4.609-8.322,1.556-25.845,1.556-25.845Z" transform="translate(-652.455 -585.118)" fill="#ed823a"/>
          <path id="Trazado_751709" data-name="Trazado 751709" d="M815.428,723.426s7.754,19.522,12.625,28.25,6.394,11.163,6.394,11.163,2.791-1.116,3.044-1.877c0,0-1.863-16.849-5.125-20.957-1.843-2.321-4.008-9.286-4.11-11.721s-.66-7.256-.66-7.256Z" transform="translate(-652.53 -576.987)" fill="#57dbd8"/>
          <path id="Trazado_751710" data-name="Trazado 751710" d="M813.461,623.488c1.085.065,12.532-.367,12.535-1.007a98.824,98.824,0,0,1,1.056-10.194q.159-1.222.252-2.422a36.818,36.818,0,0,0,.012-5.895,11.344,11.344,0,0,0-3.173-7.339c-.191-.16-.9.375-2.081.856a4.139,4.139,0,0,1-2.941-.149l-1.256,1.105a11.858,11.858,0,0,0-2.711,3.8s-1.789,21.241-1.692,21.248" transform="translate(-650.953 -477.419)" fill="#12263f"/>
          <path id="Trazado_751711" data-name="Trazado 751711" d="M810.595,624.826l3.127.727,4.3,11.653a4.261,4.261,0,0,0,4,2.785l-.377,5.753-13.883,1.04Z" transform="translate(-646.395 -500.004)" fill="#57dbd8"/>
          <path id="Trazado_751712" data-name="Trazado 751712" d="M746.835,635.771c-.1-.911.368-1.081.368-1.081s9.216-2.041,10-2.32,7.254-7.558,7.254-7.558,2.473-3.016,4.615-2.454A3.982,3.982,0,0,1,772,625.612a4.03,4.03,0,0,1-1.711,4.207c-3.092,2.065-9.284,6.138-10.761,6.634-3.286,1.1-12.251.552-12.251.552a2.886,2.886,0,0,1-.445-1.234" transform="translate(-597.629 -497.974)" fill="#12263f"/>
          <path id="Trazado_751713" data-name="Trazado 751713" d="M835.562,599.7c.728-.676,3.062-2.534,3.062-2.534l-.439-.426c-.312-.066-2.724,1.749-3.527,2.464-.968.861-3.652,3.675-3.652,3.675l1.317.2s2.383-2.579,3.24-3.375" transform="translate(-664.995 -477.528)" fill="#57dbd8"/>
          <path id="Trazado_751714" data-name="Trazado 751714" d="M1754.881,923.717h-18.242a4.036,4.036,0,0,1-4.024-4.024V903.221a4.036,4.036,0,0,1,4.024-4.024h18.242a4.036,4.036,0,0,1,4.024,4.024v16.471a4.036,4.036,0,0,1-4.024,4.024" transform="translate(-1386.49 -719.564)" fill="#163560"/>
          <path id="Trazado_751715" data-name="Trazado 751715" d="M1586.214,709.4a10.4,10.4,0,0,1-2.02-.056c-.341-.139-1.279-.691-1.142-1.312.085-.386.781.228,1.065.115s-.579-.2-.622-.343.712-.222.983-.269,1.055.581,1.674.751.061,1.115.061,1.115" transform="translate(-1266.795 -566.186)" fill="#ffb27d"/>
          <path id="Trazado_751716" data-name="Trazado 751716" d="M1620.162,686.451s-2.329,2.636-5.158,3.014-7.006,1.217-8.295,1.229-8.6-2.263-8.6-2.263a1,1,0,0,1,.022-.753,1.241,1.241,0,0,1,.519-.7s5.012.123,7.352.45c.972.136,7.6-3.813,8.633-6.2.408-.935,5.528,5.219,5.528,5.219" transform="translate(-1278.809 -545.064)" fill="#e6b046"/>
          <rect id="Rectángulo_358413" data-name="Rectángulo 358413" width="46.324" height="38.197" transform="translate(226.656 164.603)" fill="#e6b046"/>
          <rect id="Rectángulo_358414" data-name="Rectángulo 358414" width="46.324" height="38.197" transform="translate(203.494 164.603)" fill="#f0dcc0"/>
          <path id="Trazado_751717" data-name="Trazado 751717" d="M1336.933,952.49h-7.34l.646-2.066-.646-1.476h7.34Z" transform="translate(-1063.98 -759.377)" fill="#12263f"/>
          <path id="Trazado_751718" data-name="Trazado 751718" d="M1221.125,868.948h-7.34l.647-2.065-.647-1.476h7.34Z" transform="translate(-971.307 -692.524)" fill="#12263f"/>
          <path id="Trazado_751719" data-name="Trazado 751719" d="M1250.528,865.407h7.341l-.647,2.066.647,1.476h-7.341Z" transform="translate(-1000.71 -692.524)" fill="#12263f"/>
          <path id="Trazado_751720" data-name="Trazado 751720" d="M1018.638,968.729h7.341l-.647,2.066.647,1.476h-7.341Z" transform="translate(-815.144 -775.206)" fill="#12263f"/>
          <rect id="Rectángulo_358415" data-name="Rectángulo 358415" width="13.33" height="5.186" transform="translate(206.527 167.193)" fill="#fff"/>
          <rect id="Rectángulo_358416" data-name="Rectángulo 358416" width="46.324" height="38.197" transform="translate(221.665 126.441)" fill="#e6b046"/>
          <rect id="Rectángulo_358417" data-name="Rectángulo 358417" width="46.324" height="38.197" transform="translate(198.503 126.441)" fill="#f0dcc0"/>
          <path id="Trazado_751721" data-name="Trazado 751721" d="M1311.946,761.46h-7.34l.647-2.066-.647-1.476h7.34Z" transform="translate(-1043.984 -606.509)" fill="#12263f"/>
          <path id="Trazado_751722" data-name="Trazado 751722" d="M1196.138,677.918h-7.34l.646-2.066-.646-1.476h7.34Z" transform="translate(-951.312 -539.656)" fill="#12263f"/>
          <path id="Trazado_751723" data-name="Trazado 751723" d="M1225.542,674.376h7.34l-.647,2.065.647,1.476h-7.34Z" transform="translate(-980.715 -539.656)" fill="#12263f"/>
          <path id="Trazado_751724" data-name="Trazado 751724" d="M993.652,777.7h7.34l-.646,2.065.646,1.476h-7.34Z" transform="translate(-795.15 -622.338)" fill="#12263f"/>
          <rect id="Rectángulo_358418" data-name="Rectángulo 358418" width="13.33" height="5.186" transform="translate(201.536 129.031)" fill="#fff"/>
          <rect id="Rectángulo_358419" data-name="Rectángulo 358419" width="12.286" height="96.985" transform="translate(281.033 108.332)" fill="#163560"/>
          <path id="Trazado_751725" data-name="Trazado 751725" d="M1656.7,847.528h-31.131a4.185,4.185,0,0,1-4.173-4.173v-7.812a4.186,4.186,0,0,1,4.173-4.173H1656.7a4.186,4.186,0,0,1,4.173,4.173v7.812a4.185,4.185,0,0,1-4.173,4.173" transform="translate(-1297.487 -665.287)" fill="#699dee"/>
          <path id="Trazado_751726" data-name="Trazado 751726" d="M1485.384,900.424l50.01,2.027V881.808l-50.84.83Z" transform="translate(-1187.985 -705.649)" fill="#234884"/>
          <path id="Trazado_751727" data-name="Trazado 751727" d="M1424.122,936.04a15.482,15.482,0,1,1,15.482,15.482,15.483,15.483,0,0,1-15.482-15.482" transform="translate(-1139.625 -736.658)" fill="#2a4e96"/>
          <path id="Trazado_751728" data-name="Trazado 751728" d="M1456.962,962.32a8.922,8.922,0,1,1,8.922,8.922,8.922,8.922,0,0,1-8.922-8.922" transform="translate(-1165.905 -762.938)" fill="#163560"/>
          <path id="Trazado_751729" data-name="Trazado 751729" d="M1787.45,965.6a12.2,12.2,0,1,1,12.2,12.2,12.2,12.2,0,0,1-12.2-12.2" transform="translate(-1430.371 -762.938)" fill="#2a4e96"/>
          <path id="Trazado_751730" data-name="Trazado 751730" d="M1813.333,986.313a7.032,7.032,0,1,1,7.032,7.032,7.032,7.032,0,0,1-7.032-7.032" transform="translate(-1451.083 -783.65)" fill="#163560"/>
          <path id="Trazado_751731" data-name="Trazado 751731" d="M1629.018,815.378v9.216h-12.9l-30.842,20.274v15.066h30.515a5.778,5.778,0,0,0,5.778-5.778v-3.406a11.23,11.23,0,0,1,4.836-9.232h0a10.177,10.177,0,0,1,5.8-1.811h9.741a4.772,4.772,0,0,0,4.772-4.772V820.491a5.113,5.113,0,0,0-5.113-5.113Z" transform="translate(-1268.584 -652.49)" fill="#e6b046"/>
          <path id="Trazado_751732" data-name="Trazado 751732" d="M1472.518,634.326l-4.233-.466,23.784-56.371a19.826,19.826,0,0,1,18.3-12.143h19.951a8.93,8.93,0,0,1,8.92,8.92v50.244h-4.055V574.266a4.871,4.871,0,0,0-4.865-4.865h-19.951a15.779,15.779,0,0,0-14.567,9.664Z" transform="translate(-1174.966 -452.407)" fill="#163560"/>
          <path id="Trazado_751733" data-name="Trazado 751733" d="M1460.868,928.114a1.106,1.106,0,0,1-1.106-1.106V915.663A14.181,14.181,0,0,0,1445.6,901.5a1.134,1.134,0,0,1-.13-.008c-.086-.01-8.769-.944-15.407,4.228a1.106,1.106,0,0,1-1.359-1.745c7.126-5.552,16.022-4.786,16.957-4.688a16.4,16.4,0,0,1,16.315,16.377v11.345a1.106,1.106,0,0,1-1.106,1.106" transform="translate(-1142.948 -719.564)" fill="#163560"/>
          <rect id="Rectángulo_358420" data-name="Rectángulo 358420" width="81.16" height="2.967" transform="translate(199.873 202.349)" fill="#163560"/>
          <rect id="Rectángulo_358421" data-name="Rectángulo 358421" width="2.765" height="34.687" transform="translate(278.269 170.629)" fill="#163560"/>
          <path id="Trazado_751734" data-name="Trazado 751734" d="M1664.711,730.509l-1.463,18.568h-23.034s-1.218-5.189,2.6-5.415,12.972-1.606,12.972-1.606-.45-11.533,6.6-13.456a1.844,1.844,0,0,1,2.325,1.909" transform="translate(-1312.401 -582.994)" fill="#2a4e96"/>
          <path id="Trazado_751735" data-name="Trazado 751735" d="M1677.409,656.537a8.165,8.165,0,0,1-4.919,1.029s-.506-.129-.257-.723a7.517,7.517,0,0,1-.227-.793,11.921,11.921,0,0,1-.293-1.293l1.453-1.526,1.376-1.459a6.1,6.1,0,0,0,2.868,4.764" transform="translate(-1337.755 -521.568)" fill="#ffb27d"/>
          <path id="Trazado_751736" data-name="Trazado 751736" d="M1674.451,658.392a5.687,5.687,0,0,1-2.755,2.956c-.225-.82-.371-1.677-.371-1.677l1.53-1.142Z" transform="translate(-1337.444 -526.865)" fill="#ed985f"/>
          <path id="Trazado_751737" data-name="Trazado 751737" d="M1659.525,636.85s4.5.563,4.82-2.2,1.111-4.559-1.752-5.036-3.542.518-3.876,1.417-.355,5.605.808,5.823" transform="translate(-1327.196 -503.734)" fill="#ffb27d"/>
          <path id="Trazado_751738" data-name="Trazado 751738" d="M1659.465,622.3c.039-.048.131-.089.339-.109a.851.851,0,0,0-.394-.1,1.049,1.049,0,0,0-.732-.9.626.626,0,0,1,.32.44c-.6-.572-1.856-.958-5.276-.557-4.508.528-2.908,3.366-2.31,3.689s2.036-.679,3.13-.634,1.361,1.613,1.739,1.816.218-.175.71-.42.571.582.447,1.127.591,1.23.591,1.23l.667-.775c.667-.775,1.2-3.97.86-4.634l-.091-.178" transform="translate(-1320.894 -496.869)" fill="#2c3a64"/>
          <path id="Trazado_751739" data-name="Trazado 751739" d="M1597.038,761.992s-20.543.919-23.345,2.951-7.706,19.186-7.706,19.186,1,.865,3.944,0c0,0,4.152-5.286,5.739-8.913,1.41-3.22,1.914-4.843,2.518-4.678,1.284.35,14.457.8,18.349-1.707,2.493-1.609.172-6.84.5-6.838" transform="translate(-1253.15 -609.769)" fill="#163560"/>
          <path id="Trazado_751740" data-name="Trazado 751740" d="M1666.833,673.508s2.632,2.165,3.464,8.634,1.761,12.158,1.25,12.388c-3.6,1.625-13.288-.034-13.047-3.883s1.131-15.253,3.413-16.264a12.249,12.249,0,0,1,4.919-.875" transform="translate(-1327.179 -538.956)" fill="#f0dcc0"/>
          <path id="Trazado_751741" data-name="Trazado 751741" d="M1584.555,715.334h0a.843.843,0,0,1-1.1-.452l-4.266-10.221a.84.84,0,1,1,1.551-.647l4.266,10.221a.843.843,0,0,1-.452,1.1" transform="translate(-1263.663 -562.96)" fill="#163560"/>
          <path id="Trazado_751742" data-name="Trazado 751742" d="M1591.454,728.083a10.377,10.377,0,0,1-1.984.38c-.363-.062-1.4-.4-1.4-1.034,0-.4.812.055,1.064-.118s-.608-.067-.681-.2.647-.37.9-.474,1.156.34,1.8.372.3,1.075.3,1.075" transform="translate(-1270.822 -581.464)" fill="#ffb27d"/>
          <path id="Trazado_751743" data-name="Trazado 751743" d="M1625.1,685.174s-1.706,3.076-4.387,4.056-6.579,2.7-7.834,2.988-8.888-.355-8.888-.355a1,1,0,0,1-.141-.74,1.241,1.241,0,0,1,.356-.8s4.921-.96,7.277-1.145c.978-.077,6.594-5.361,7.095-7.91.2-1,6.523,3.9,6.523,3.9" transform="translate(-1283.441 -545.065)" fill="#f0dcc0"/>
          <path id="Trazado_751744" data-name="Trazado 751744" d="M1553.574,865.752s.232,2.684-.335,2.963l-7.26-.015s0-.838,1.166-1.024,3.215-.869,3.562-2.39,2.868.466,2.868.466" transform="translate(-1237.139 -691.969)" fill="#163560"/>
          <path id="Trazado_751745" data-name="Trazado 751745" d="M1543.837,726.621h3.3a2.024,2.024,0,0,1,1.905,1.34l.953,2.652a2.024,2.024,0,0,1-.115,1.63l-.547,1.037a8.139,8.139,0,0,1-6.615,4.319l-4.021.288,3.219-9.869a2.025,2.025,0,0,1,1.925-1.4" transform="translate(-1231.308 -581.464)" fill="#163560"/>
          <rect id="Rectángulo_358422" data-name="Rectángulo 358422" width="2.404" height="42.332" transform="translate(101.105 154.461)" fill="#b0c0d2"/>
          <path id="Trazado_751746" data-name="Trazado 751746" d="M476.3,768.895h5.98a1.766,1.766,0,0,0,0-3.532H476.3a1.766,1.766,0,0,0,0,3.532" transform="translate(-379.74 -612.466)" fill="#2a4e96"/>
          <path id="Trazado_751747" data-name="Trazado 751747" d="M517.264,879.146c.291.026,12.966,7.52,12.966,7.52V897.6H517.045Z" transform="translate(-413.755 -703.519)" fill="#b0c0d2"/>
          <path id="Trazado_751748" data-name="Trazado 751748" d="M859.322,973.325a3.582,3.582,0,1,0-3.582,3.583,3.582,3.582,0,0,0,3.582-3.583" transform="translate(-681.922 -776.017)" fill="#2a4e96"/>
          <path id="Trazado_751749" data-name="Trazado 751749" d="M863.345,978.687a2.244,2.244,0,1,0-2.244,2.244,2.244,2.244,0,0,0,2.244-2.244" transform="translate(-687.283 -781.379)" fill="#183e7a"/>
          <rect id="Rectángulo_358423" data-name="Rectángulo 358423" width="77.8" height="3.221" transform="translate(101.105 193.572)" fill="#b0c0d2"/>
          <path id="Trazado_751750" data-name="Trazado 751750" d="M500.982,954.174a5.708,5.708,0,1,0-5.708,5.708,5.708,5.708,0,0,0,5.708-5.708" transform="translate(-391.766 -758.991)" fill="#2a4e96"/>
          <path id="Trazado_751751" data-name="Trazado 751751" d="M507.393,962.716a3.575,3.575,0,1,0-3.575,3.575,3.575,3.575,0,0,0,3.575-3.575" transform="translate(-400.309 -767.533)" fill="#183e7a"/>
          <path id="Trazado_751752" data-name="Trazado 751752" d="M489.016,755.152s2.75,1.093,2.9,1.6.146,2.477-.583,2.477-1.493-1.676-1.821-1.712-1.238-.255-1.348-.656.856-1.712.856-1.712" transform="translate(-390.633 -604.295)" fill="#ffb27d"/>
          <path id="Trazado_751753" data-name="Trazado 751753" d="M408.76,679.023c.393-.827.008-1.142.008-1.142s-8.029-4.963-8.673-5.483-4.359-9.526-4.359-9.526-1.341-3.663-3.549-3.838a3.982,3.982,0,0,0-3.842,2.105,4.03,4.03,0,0,0,.229,4.535c2.239,2.968,6.744,8.854,7.975,9.808,2.739,2.124,11.385,4.557,11.385,4.557a2.882,2.882,0,0,0,.827-1.018" transform="translate(-310.293 -527.368)" fill="#1f437c"/>
          <path id="Trazado_751754" data-name="Trazado 751754" d="M379.342,985.769h-7.7a.7.7,0,0,1-.163-.047c-.514-.257-.353-2.225-.291-2.832.012-.112.02-.179.02-.179s2.706-2.164,3.079-.507c.012.052.026.1.04.152h0c.47,1.551,2.57,2.255,3.783,2.451a1.321,1.321,0,0,1,1.229.961" transform="translate(-296.98 -785.488)" fill="#2c3a64"/>
          <path id="Trazado_751755" data-name="Trazado 751755" d="M387.847,625.457s1.831,2.986,4.841,2.309a8.707,8.707,0,0,0,1.009-2.475c.021-.134.043-.264.064-.387.2-1.225.347-1.908.347-1.908h0c-.121-.074-4.075-2.443-4.093-2.3a7.562,7.562,0,0,1-2.165,4.761" transform="translate(-310.367 -496.695)" fill="#ffb27d"/>
          <path id="Trazado_751756" data-name="Trazado 751756" d="M400.2,624.909a6.668,6.668,0,0,0,3.445,3.352c.2-1.225.347-1.908.347-1.908h0c-.112-.049-3.877-1.683-3.79-1.443" transform="translate(-320.248 -500.051)" fill="#ed975d"/>
          <path id="Trazado_751757" data-name="Trazado 751757" d="M402.318,599.433s-4.91.4-5.109-2.665-.968-5.072,2.158-5.455,3.812.746,4.128,1.752.1,6.186-1.176,6.368" transform="translate(-317.674 -473.126)" fill="#ffb27d"/>
          <path id="Trazado_751758" data-name="Trazado 751758" d="M387.886,588.453c-.071.032-1.139.19-2.487-3.951a3.391,3.391,0,0,1,.661-3.036c.882-1.048,3.526-1.576,5.669-1.655s2.465,1.168,2.777,2.42a6.43,6.43,0,0,0,1.66,2.557c-1.948.731-3.894-1.031-4.679-.909s-1.229,1.264-1.342,1.633-.248.672-1.139.191-.629,1.271-.526,1.614c0,0,0,.872-.594,1.136" transform="translate(-308.313 -463.979)" fill="#2a4e96"/>
          <path id="Trazado_751759" data-name="Trazado 751759" d="M286.733,973.827h-2.9c-.609,0-1.285-.61-1.454-1.725s-1.421-1.725-1.691-2.639,1.117-2.2,1.117-2.2l.232-.3.241-.311,2.3.541s.057.548.092,1.245a15.933,15.933,0,0,1,.009,1.6c-.068,1.218.341,2.529,1.423,2.767s.635,1.023.635,1.023" transform="translate(-224.583 -773.546)" fill="#2c3a64"/>
          <path id="Trazado_751760" data-name="Trazado 751760" d="M358.52,777.537s-.411,5.128-.894,11.292c-.656,8.374-1.446,18.659-1.524,20.608-.135,3.384-.677,8.8-.677,8.8a4.254,4.254,0,0,1-3.856.744,88.521,88.521,0,0,1-2.946-15.9c-.01-.134-.02-.269-.031-.4-.609-8.322-1.556-25.845-1.556-25.845Z" transform="translate(-277.709 -621.639)" fill="#e6b046"/>
          <path id="Trazado_751761" data-name="Trazado 751761" d="M356.444,778.55s.809,1.845-.67,7.849c-1.086,4.4-7.153,16.677-7.153,16.677l-.031-.4c-.609-8.322-1.556-25.845-1.556-25.845Z" transform="translate(-277.708 -621.64)" fill="#cc962b"/>
          <path id="Trazado_751762" data-name="Trazado 751762" d="M308.474,769.065s-7.754,19.522-12.625,28.25-6.394,11.163-6.394,11.163-2.791-1.116-3.044-1.878c0,0,1.863-16.849,5.125-20.957,1.843-2.321,4.009-9.286,4.11-11.722s.66-7.256.66-7.256Z" transform="translate(-229.195 -613.51)" fill="#e6b046"/>
          <path id="Trazado_751763" data-name="Trazado 751763" d="M352.737,667.389c-1.046-.3-11.712-4.475-11.5-5.08a98.743,98.743,0,0,0,2.362-9.973q.252-1.206.56-2.37a36.806,36.806,0,0,1,1.93-5.57,11.344,11.344,0,0,1,5.414-5.884c.233-.088.723.65,1.683,1.494a4.141,4.141,0,0,0,2.827.828l.822,1.458a11.864,11.864,0,0,1,1.308,4.479s-5.309,20.645-5.4,20.619" transform="translate(-273.062 -510.951)" fill="#2a4e96"/>
          <path id="Trazado_751764" data-name="Trazado 751764" d="M353.909,678.5l-3.192-.344-7.9,9.585a4.261,4.261,0,0,1-4.691,1.313l-2.181,6.784,13.407,4.328Z" transform="translate(-268.832 -542.681)" fill="#e6b046"/>
          <path id="Trazado_751765" data-name="Trazado 751765" d="M391.912,642.2c-.465-.878-2.056-3.4-2.056-3.4l.556-.258c.316.04,2,2.549,2.518,3.489.63,1.132,2.238,4.673,2.238,4.673l-1.308-.248s-1.4-3.22-1.948-4.254" transform="translate(-311.975 -510.98)" fill="#e6b046"/>
          <path id="Trazado_751766" data-name="Trazado 751766" d="M471.921,760.214s2.75,1.093,2.9,1.6.146,2.477-.583,2.477-1.493-1.675-1.821-1.712-1.238-.255-1.348-.656.856-1.712.856-1.712" transform="translate(-376.953 -608.346)" fill="#ffb27d"/>
          <path id="Trazado_751767" data-name="Trazado 751767" d="M391.2,685.8c.393-.827.008-1.142.008-1.142s-8.029-4.963-8.673-5.483-4.359-9.526-4.359-9.526-1.341-3.663-3.549-3.838a3.983,3.983,0,0,0-3.842,2.105,4.03,4.03,0,0,0,.229,4.535c2.239,2.969,6.744,8.854,7.975,9.809,2.739,2.124,11.385,4.557,11.385,4.557a2.885,2.885,0,0,0,.827-1.018" transform="translate(-296.239 -532.794)" fill="#2a4e96"/>
          <rect id="Rectángulo_358424" data-name="Rectángulo 358424" width="32.534" height="26.826" transform="translate(139.04 167.098)" fill="#e6b046"/>
          <rect id="Rectángulo_358425" data-name="Rectángulo 358425" width="32.534" height="26.826" transform="translate(122.773 167.098)" fill="#f0dcc0"/>
          <path id="Trazado_751768" data-name="Trazado 751768" d="M838.111,926.717h-5.156l.454-1.451-.454-1.037h5.156Z" transform="translate(-666.556 -739.597)" fill="#12263f"/>
          <path id="Trazado_751769" data-name="Trazado 751769" d="M756.778,868.044h-5.155l.454-1.451-.454-1.036h5.155Z" transform="translate(-601.471 -692.645)" fill="#12263f"/>
          <path id="Trazado_751770" data-name="Trazado 751770" d="M777.428,865.557h5.155l-.454,1.451.454,1.036h-5.155Z" transform="translate(-622.121 -692.645)" fill="#12263f"/>
          <path id="Trazado_751771" data-name="Trazado 751771" d="M614.566,938.123h5.155l-.454,1.45.454,1.037h-5.155Z" transform="translate(-491.794 -750.714)" fill="#12263f"/>
          <rect id="Rectángulo_358426" data-name="Rectángulo 358426" width="9.362" height="3.642" transform="translate(124.903 168.917)" fill="#fff"/>
          <rect id="Rectángulo_358427" data-name="Rectángulo 358427" width="19.49" height="16.071" transform="translate(139.04 151.303)" fill="#e6b046"/>
          <rect id="Rectángulo_358428" data-name="Rectángulo 358428" width="19.49" height="16.071" transform="translate(148.785 151.303)" fill="#f0dcc0"/>
          <path id="Trazado_751772" data-name="Trazado 751772" d="M696.056,811.462h3.088l-.272-.869.272-.621h-3.088Z" transform="translate(-557.005 -648.164)" fill="#12263f"/>
          <path id="Trazado_751773" data-name="Trazado 751773" d="M744.781,776.313h3.088l-.272-.869.272-.621h-3.088Z" transform="translate(-595.996 -620.036)" fill="#12263f"/>
          <path id="Trazado_751774" data-name="Trazado 751774" d="M732.409,774.823h-3.088l.272.869-.272.621h3.088Z" transform="translate(-583.624 -620.036)" fill="#12263f"/>
          <path id="Trazado_751775" data-name="Trazado 751775" d="M829.975,818.294h-3.088l.272.869-.272.621h3.088Z" transform="translate(-661.699 -654.824)" fill="#12263f"/>
          <rect id="Rectángulo_358429" data-name="Rectángulo 358429" width="5.609" height="2.182" transform="translate(161.39 152.393)" fill="#fff"/>
          <path id="Trazado_751776" data-name="Trazado 751776" d="M122.274,183.345H111.212V181.15l5.22-5.564q.589-.644.993-1.174a8.822,8.822,0,0,0,.653-.975,3.8,3.8,0,0,0,.355-.827,2.766,2.766,0,0,0,.1-.737,2.472,2.472,0,0,0-.543-1.691,1.965,1.965,0,0,0-1.552-.615,2.318,2.318,0,0,0-1,.207,2.006,2.006,0,0,0-.732.565,2.491,2.491,0,0,0-.449.858,3.636,3.636,0,0,0-.155,1.087H110.89a5.455,5.455,0,0,1,.388-2.051,4.947,4.947,0,0,1,1.12-1.686,5.361,5.361,0,0,1,1.768-1.14,6.14,6.14,0,0,1,2.333-.422,7.4,7.4,0,0,1,2.256.315,4.564,4.564,0,0,1,1.646.9,3.779,3.779,0,0,1,1.008,1.439,5.1,5.1,0,0,1,.343,1.919,4.87,4.87,0,0,1-.254,1.564,7.282,7.282,0,0,1-.721,1.506,12.305,12.305,0,0,1-1.124,1.524q-.66.772-1.47,1.6l-2.848,3.006h6.939Z" transform="translate(-88.737 -133.626)" fill="#fff"/>
          <path id="Trazado_751777" data-name="Trazado 751777" d="M1057.169,173.859h1.707a2.408,2.408,0,0,0,1.806-.61,2.241,2.241,0,0,0,.587-1.62,2.515,2.515,0,0,0-.132-.827,1.7,1.7,0,0,0-.4-.652,1.883,1.883,0,0,0-.682-.427,2.937,2.937,0,0,0-1.8-.029,2.185,2.185,0,0,0-.687.36,1.73,1.73,0,0,0-.467.573,1.649,1.649,0,0,0-.171.758h-3.2a3.932,3.932,0,0,1,.415-1.813,4.174,4.174,0,0,1,1.13-1.384,5.316,5.316,0,0,1,1.681-.888,6.607,6.607,0,0,1,2.061-.315,7.886,7.886,0,0,1,2.223.294,4.916,4.916,0,0,1,1.723.875,3.969,3.969,0,0,1,1.12,1.442,4.663,4.663,0,0,1,.4,1.988,3.4,3.4,0,0,1-.161,1.031,3.485,3.485,0,0,1-.477.96,4.348,4.348,0,0,1-.77.83,4.441,4.441,0,0,1-1.042.649,4.024,4.024,0,0,1,2.034,1.463,3.968,3.968,0,0,1,.671,2.306,4.506,4.506,0,0,1-.439,2.017,4.3,4.3,0,0,1-1.2,1.49,5.387,5.387,0,0,1-1.813.92,7.764,7.764,0,0,1-2.266.318,7.393,7.393,0,0,1-2.017-.278,5.315,5.315,0,0,1-1.757-.853,4.4,4.4,0,0,1-1.24-1.447,4.265,4.265,0,0,1-.472-2.065h3.2a1.913,1.913,0,0,0,.671,1.479,2.368,2.368,0,0,0,.749.427,2.764,2.764,0,0,0,.942.154,3.144,3.144,0,0,0,1.019-.154,2.114,2.114,0,0,0,.77-.45,1.94,1.94,0,0,0,.483-.7,2.35,2.35,0,0,0,.167-.9,3,3,0,0,0-.183-1.1,1.832,1.832,0,0,0-.528-.747,2.2,2.2,0,0,0-.836-.427,4.066,4.066,0,0,0-1.1-.138h-1.707Z" transform="translate(-843.06 -133.627)" fill="#fff"/>
        </g>
      </g>
    </g>
  </g>
</svg>
