<svg xmlns="http://www.w3.org/2000/svg" xmlns:xlink="http://www.w3.org/1999/xlink" width="118.617" height="119.456" viewBox="0 0 118.617 119.456">
  <defs>
    <radialGradient id="radial-gradient" cx="0.076" cy="0.019" r="1.465" gradientTransform="translate(0.001)" gradientUnits="objectBoundingBox">
      <stop offset="0" stop-color="#f6f6f7"/>
      <stop offset="0.477" stop-color="#f9f9fa"/>
      <stop offset="0.715" stop-color="#fff"/>
    </radialGradient>
    <filter id="Trazado_40937" x="0" y="0.961" width="118.617" height="118.495" filterUnits="userSpaceOnUse">
      <feOffset dy="7" input="SourceAlpha"/>
      <feGaussianBlur stdDeviation="2.5" result="blur"/>
      <feFlood flood-opacity="0.102"/>
      <feComposite operator="in" in2="blur"/>
      <feComposite in="SourceGraphic"/>
    </filter>
  </defs>
  <g id="Grupo_1024395" data-name="Grupo 1024395" transform="translate(-273.883 -2940.187)">
    <g id="Grupo_18421" data-name="Grupo 18421" transform="translate(280.042 2940.187)">
      <g id="Grupo_18420" data-name="Grupo 18420">
        <g id="Grupo_18419" data-name="Grupo 18419">
          <path id="Trazado_40936" data-name="Trazado 40936" d="M299.581,2198.2a52.479,52.479,0,1,1-52.478-52.477A52.478,52.478,0,0,1,299.581,2198.2Z" transform="translate(-194.623 -2145.721)" fill="#fff"/>
        </g>
      </g>
    </g>
    <g id="Grupo_18422" data-name="Grupo 18422" transform="translate(289.34 2969.649)">
      <path id="Trazado_40939" data-name="Trazado 40939" d="M290.9,2164.488a52.485,52.485,0,0,1-90.354,52.261,52.318,52.318,0,0,0,90.354-52.261Z" transform="translate(-200.545 -2164.488)" fill="#eceef0"/>
    </g>
    <g id="Grupo_1024394" data-name="Grupo 1024394">
      <g transform="matrix(1, 0, 0, 1, 273.88, 2940.19)" filter="url(#Trazado_40937)">
        <path id="Trazado_40937-2" data-name="Trazado 40937" d="M299.094,2197.667a52.478,52.478,0,1,0-52.478,52.479A52.271,52.271,0,0,0,299.094,2197.667Z" transform="translate(-187.98 -2145.19)" fill="url(#radial-gradient)"/>
      </g>
      <path id="Trazado_40938" data-name="Trazado 40938" d="M289.67,2196.985a43.749,43.749,0,1,0-43.749,43.75A43.588,43.588,0,0,0,289.67,2196.985Z" transform="translate(86.712 795.802)" fill="none" stroke="#1a0f91" stroke-miterlimit="10" stroke-width="4"/>
      <g id="inventario_1_" data-name="inventario (1)" transform="translate(308.994 2942.596)">
        <g id="Grupo_1012841" data-name="Grupo 1012841" transform="translate(1.921 22.463)">
          <g id="Grupo_1012838" data-name="Grupo 1012838" transform="translate(0 0)">
            <path id="Trazado_730723" data-name="Trazado 730723" d="M47.065,69.964A2.142,2.142,0,0,1,49.2,72.1v42.926a2.142,2.142,0,0,1-2.138,2.138H11.138A2.142,2.142,0,0,1,9,115.028V72.1a2.142,2.142,0,0,1,2.138-2.138Z" transform="translate(-9 -65.338)" fill="#da8c36" fill-rule="evenodd"/>
            <path id="Trazado_730724" data-name="Trazado 730724" d="M39.446,100.409v40.235H67.564l5.117-5.117V100.409Z" transform="translate(-35.962 -92.299)" fill="#eff4f7" fill-rule="evenodd"/>
            <path id="Trazado_730725" data-name="Trazado 730725" d="M285.167,407.3v5.117l5.117-5.117Z" transform="translate(-253.565 -364.07)" fill="#e2e3e3" fill-rule="evenodd"/>
            <path id="Trazado_730726" data-name="Trazado 730726" d="M116.189,34.167h5.146L119.2,31.151a1.02,1.02,0,0,1,.834-1.61h6.678a1.02,1.02,0,0,1,.834,1.61l-2.133,3.015h5.146a.736.736,0,0,1,.734.734v3.387a.736.736,0,0,1-.734.734H116.189a.736.736,0,0,1-.734-.734V34.9A.736.736,0,0,1,116.189,34.167Z" transform="translate(-103.273 -29.541)" fill="#8d9ca8" fill-rule="evenodd"/>
          </g>
          <g id="Grupo_1012839" data-name="Grupo 1012839" transform="translate(7.737 13.904)">
            <path id="Trazado_730727" data-name="Trazado 730727" d="M88.979,151.044l12.364,4.808v11.34L88.979,172l-12.364-4.808v-11.34Z" transform="translate(-76.615 -151.044)" fill="#da8c36" fill-rule="evenodd"/>
            <path id="Trazado_730728" data-name="Trazado 730728" d="M184.666,151.044l12.364,4.808v11.34L184.666,172Z" transform="translate(-172.302 -151.044)" fill="#b06328" fill-rule="evenodd"/>
            <path id="Trazado_730729" data-name="Trazado 730729" d="M88.979,151.044l12.364,4.808-12.364,4.808-12.364-4.808Z" transform="translate(-76.615 -151.044)" fill="#c97629" fill-rule="evenodd"/>
            <path id="Trazado_730730" data-name="Trazado 730730" d="M116.563,171.385v3.823l-4.178-1.624v-3.823l12.364-4.808,4.178,1.625-.589.229Z" transform="translate(-108.292 -163.361)" fill="#b06328" fill-rule="evenodd"/>
          </g>
          <g id="Grupo_1012840" data-name="Grupo 1012840" transform="translate(19.874 9.899)">
            <path id="Trazado_730731" data-name="Trazado 730731" d="M376.149,312.032l1.93-2.062-3.9-3.9-2.068,1.924Z" transform="translate(-350.434 -284.325)" fill="#8d9ca8" fill-rule="evenodd"/>
            <circle id="Elipse_8451" data-name="Elipse 8451" cx="11.823" cy="11.823" r="11.823" transform="matrix(0.352, -0.936, 0.936, 0.352, 0, 22.132)" fill="#64b5f6"/>
            <path id="Trazado_730732" data-name="Trazado 730732" d="M244.039,168.111a9.258,9.258,0,1,1-9.258,9.258A9.258,9.258,0,0,1,244.039,168.111Z" transform="translate(-228.819 -162.153)" fill="#e6f8ff" fill-rule="evenodd"/>
            <path id="Trazado_730733" data-name="Trazado 730733" d="M398.466,329.23,395.9,331.8a.683.683,0,0,0,0,.964l7.82,7.82a2.5,2.5,0,0,0,3.531-3.531l-7.82-7.82A.682.682,0,0,0,398.466,329.23Z" transform="translate(-371.323 -304.658)" fill="#b4d2d7" fill-rule="evenodd"/>
            <path id="Trazado_730734" data-name="Trazado 730734" d="M395.9,332.76l1.792,1.792,3.531-3.531-1.792-1.792a.683.683,0,0,0-.964,0L395.9,331.8A.682.682,0,0,0,395.9,332.76Z" transform="translate(-371.323 -304.658)" fill="#9bb9c3" fill-rule="evenodd"/>
          </g>
        </g>
        <path id="Trazado_730735" data-name="Trazado 730735" d="M37.016,39.234a8.343,8.343,0,1,0,8.342,8.343A8.353,8.353,0,0,0,37.016,39.234Zm0-1.831A10.173,10.173,0,1,1,26.842,47.577,10.184,10.184,0,0,1,37.016,37.4ZM57.535,66.518a1.568,1.568,0,0,0-.459-1.118l-5.383-5.381-2.236,2.236,5.384,5.381a1.556,1.556,0,0,0,1.117.46,1.568,1.568,0,0,0,1.576-1.578ZM47.184,59.982l.98.979L50.4,58.724l-.98-.979Zm-.527-2.062.7-.7-1-1c-.224.243-.459.477-.7.7Zm-5.447,1.685V72.153a1.224,1.224,0,0,1-1.223,1.222H4.059a1.223,1.223,0,0,1-1.222-1.222V29.226A1.223,1.223,0,0,1,4.059,28h9.128v1.653H5.406a.915.915,0,0,0-.915.915V70.806a.915.915,0,0,0,.915.915H33.523a.914.914,0,0,0,.648-.268l5.117-5.117a.913.913,0,0,0,.268-.647V60.061a12.7,12.7,0,0,0,1.654-.456ZM15.018,28v3.025H29.027V28H24.063a.915.915,0,0,1-.747-1.444l2.132-3.016a.1.1,0,0,0-.086-.166H18.685a.1.1,0,0,0-.087.166l2.133,3.016A.916.916,0,0,1,19.983,28Zm24.968,0H30.858v1.653H38.64a.915.915,0,0,1,.915.915v4.522a12.694,12.694,0,0,1,1.654.454V29.226A1.224,1.224,0,0,0,39.986,28ZM27.268,39.388l-1.152-.448-9.838,3.826,1.651.642,8.89-3.457q.216-.289.449-.563Zm-1.929,3.1-4.883,1.9,1.567.61,2.793-1.086a12.579,12.579,0,0,1,.523-1.422Zm-2.4,13.491,3.476-1.351a12.661,12.661,0,0,1-2.136-7.053,12.933,12.933,0,0,1,.091-1.526l-1.431.556Zm-12.364-4.1,10.533,4.1V46.607l-2.262-.88v2.485a.916.916,0,0,1-1.247.853L13.42,47.441a.917.917,0,0,1-.584-.854v-3.2l-2.262-.88v9.375Zm3.178-10.1,9.838-3.825-1.567-.609-9.838,3.825Zm.915,4.179,2.347.913V45.015L14.667,44.1ZM34.439,66.605V68.6l1.992-1.991Zm3.286-6.31v4.479h-4.2a.916.916,0,0,0-.915.915v4.2H6.322v-38.4h6.866v.457a.916.916,0,0,0,.915.915h15.84a.915.915,0,0,0,.915-.915v-.457h6.867V34.86c-.235-.014-.472-.021-.709-.021a12.677,12.677,0,0,0-8.351,3.128l-6.311-2.454a.914.914,0,0,0-.664,0L9.327,40.32a.918.918,0,0,0-.584.854V52.513a.917.917,0,0,0,.584.853l12.364,4.807a.9.9,0,0,0,.664,0l5.236-2.035a12.712,12.712,0,0,0,9.425,4.177c.237,0,.474-.007.709-.019ZM37.016,36.67A10.907,10.907,0,1,1,26.109,47.577,10.92,10.92,0,0,1,37.016,36.67ZM59.365,66.518a3.41,3.41,0,0,1-5.818,2.414l-8.3-8.3a.915.915,0,0,1,0-1.294l.12-.12-1.139-1.14a13.021,13.021,0,0,1-1.182.724V72.153a3.057,3.057,0,0,1-3.054,3.053H4.059a3.057,3.057,0,0,1-3.053-3.053V29.226a3.057,3.057,0,0,1,3.053-3.053H18.215L17.1,24.6a1.934,1.934,0,0,1,1.581-3.054h6.677A1.935,1.935,0,0,1,26.943,24.6l-1.111,1.572H39.986a3.057,3.057,0,0,1,3.054,3.053v7.131a12.725,12.725,0,0,1,4.473,18.428l1.14,1.139.12-.12a.916.916,0,0,1,1.294,0l8.3,8.3a3.384,3.384,0,0,1,.993,2.412ZM15.387,61.811l-2.826,2.851-1.282-1.249A.916.916,0,0,0,10,64.724l1.932,1.884a.916.916,0,0,0,1.29-.012l3.465-3.5a.916.916,0,1,0-1.3-1.288ZM29.048,65.12H20.375a.916.916,0,0,0,0,1.831h8.673a.916.916,0,0,0,0-1.831Zm5.274-2.748a.915.915,0,0,0-.915-.916H20.375a.916.916,0,0,0,0,1.831H33.406A.915.915,0,0,0,34.322,62.371Z" fill-rule="evenodd"/>
      </g>
    </g>
  </g>
</svg>
