<svg id="Grupo_1023656" data-name="Grupo 1023656" xmlns="http://www.w3.org/2000/svg" width="66.542" height="83.545" viewBox="0 0 66.542 83.545">
  <g id="Grupo_1021531" data-name="Grupo 1021531">
    <path id="Trazado_750151" data-name="Trazado 750151" d="M0,78.813V53.684a1.855,1.855,0,0,1,1.63-1.006,1.858,1.858,0,0,1,1.647,2.069q0,11.988,0,23.975a1.414,1.414,0,0,0,1.458,1.525c.326.011.652.012.978.012q27.953.006,55.905.016a1.462,1.462,0,0,0,1.461-1.129,4.525,4.525,0,0,0,.188-1.421q-.018-31.151-.011-62.3c0-.3-.014-.6-.021-.9.036-.116,0-.175-.127-.154-2.2-.015-4.4-.055-6.6-.037-1.923.015-4.324-2.336-4.309-4.249.016-2.066-.016-4.132.015-6.2.008-.53-.173-.615-.652-.615q-23.272.011-46.544.012c-1.133,0-1.759.631-1.757,1.51q.031,17.741.018,35.482c0,.163.006.327,0,.489A1.758,1.758,0,0,1,1.63,42.452c-.776.169-1.118-.5-1.63-.843V3.753A9.081,9.081,0,0,1,1.315,1.5,8.452,8.452,0,0,1,3.914,0H4.4q.163.251.326,0H54.3c.351.32.716.627,1.052.963C58.8,4.4,62.224,7.856,65.685,11.276a2.67,2.67,0,0,1,.857,2.055q-.021,29.818-.021,59.636c0,2.107.073,4.212-.12,6.325a5.082,5.082,0,0,1-4.457,4.249q-28.82.008-57.641,0a2.6,2.6,0,0,1-.777-.111A5.778,5.778,0,0,1,0,79.955V79.3q.316-.245,0-.49M60.636,11.048l.124.008-.033-.159L55.642,5.81l-.158-.032.011.123c0,1.079-.019,2.158,0,3.236.019,1.344.563,1.89,1.911,1.914,1.078.018,2.156,0,3.234,0" fill="#fff"/>
    <path id="Trazado_750152" data-name="Trazado 750152" d="M0,282.276v-1.305a1.642,1.642,0,0,1,1.63-.843,1.58,1.58,0,0,1,1.644,1.558,1.624,1.624,0,0,1-1.644,1.6c-.841.148-1.2-.494-1.63-1.006" transform="translate(0 -234.304)" fill="#fff"/>
    <path id="Trazado_750155" data-name="Trazado 750155" d="M0,481.875q.315.245,0,.49Z" transform="translate(0 -403.062)" fill="#fff"/>
    <path id="Trazado_750156" data-name="Trazado 750156" d="M27.246,0q-.163.251-.326,0Z" transform="translate(-22.517)" fill="#fff"/>
    <path id="Trazado_750159" data-name="Trazado 750159" d="M385.961,88.01l-.127-.154c.13-.02.163.039.127.154" transform="translate(-322.729 -73.483)" fill="#fff"/>
    <path id="Trazado_750160" data-name="Trazado 750160" d="M370.74,66.775l.091-.151.033.159-.124-.008" transform="translate(-310.104 -55.727)" fill="#fff"/>
    <path id="Trazado_750161" data-name="Trazado 750161" d="M339.4,35.359l-.147.091-.01-.123.157.032" transform="translate(-283.756 -29.549)" fill="#fff"/>
    <path id="Trazado_750162" data-name="Trazado 750162" d="M86.012,59.411a7.022,7.022,0,0,1,4.43,4.111c-.034.117.037.154.131.173a7.806,7.806,0,0,1-.713,6.663c-.464.756-.2.864.281,1.107,2.506,1.267,3.145,3.555,3.283,6.077.079,1.436.022,2.88.012,4.32-.01,1.474-.59,2.055-2.035,2.055q-7.943,0-15.886,0a1.5,1.5,0,0,1-1.676-1.646c-.017-2.007-.091-4.016-.038-6.022.057-2.152,1.381-3.592,3.041-4.713.9-.606.964-.511.384-1.384a7.376,7.376,0,0,1,6.5-11.183,11.543,11.543,0,0,1,1.939.316c.061.187.2.158.342.126m-2.445,21.23c1.982,0,3.965-.018,5.947.013.513.008.649-.149.63-.642-.037-.95.045-1.906-.023-2.852A3.172,3.172,0,0,0,86.8,73.822c-2.19-.147-4.4-.051-6.6-.02a3.148,3.148,0,0,0-3.034,2.886c.009,1.114.007,2.228-.041,3.341-.023.523.169.63.652.623,1.928-.026,3.856-.011,5.784-.011m4.076-14.384c.25-1.984-1.675-4.021-4.117-4.04a4.036,4.036,0,0,0-4.036,3.888A4.231,4.231,0,0,0,83.5,70.538a4.113,4.113,0,0,0,4.138-4.28" transform="translate(-61.715 -49.324)" fill="#fff"/>
    <path id="Trazado_750163" data-name="Trazado 750163" d="M192.457,257.11H182.2a1.817,1.817,0,0,1-1.788-1.5,1.568,1.568,0,0,1,1.413-1.8,3.2,3.2,0,0,1,.8-.076q9.854,0,19.707.006a2.288,2.288,0,0,1,1.657.415,1.469,1.469,0,0,1,.464,1.793,1.648,1.648,0,0,1-1.656,1.109c-3.447-.019-6.895-.008-10.342-.008v.055" transform="translate(-150.899 -212.238)" fill="#fff"/>
    <path id="Trazado_750164" data-name="Trazado 750164" d="M192.454,351.753H182.1a1.667,1.667,0,0,1-1.622-1.346,1.576,1.576,0,0,1,1.163-1.839,3.788,3.788,0,0,1,1.032-.128q9.863-.011,19.725,0c1.44,0,2.224.619,2.2,1.725a1.671,1.671,0,0,1-1.636,1.59q-5.257,0-10.515,0" transform="translate(-150.956 -291.445)" fill="#fff"/>
    <path id="Trazado_750165" data-name="Trazado 750165" d="M192.455,304.451q-5.171,0-10.343,0a1.5,1.5,0,0,1-1.67-1.433,1.558,1.558,0,0,1,1.521-1.842,3.97,3.97,0,0,1,.407-.008q10.139,0,20.278,0c1.245,0,1.909.57,1.928,1.628a1.566,1.566,0,0,1-1.615,1.652q-5.253.005-10.506,0" transform="translate(-150.927 -251.909)" fill="#fff"/>
    <path id="Trazado_750166" data-name="Trazado 750166" d="M192.434,399.188H182.093a1.681,1.681,0,0,1-1.744-1.444c-.1-1.013.4-1.625,1.64-1.836a.48.48,0,0,1,.081,0q10.3,0,20.6,0a1.742,1.742,0,0,1,1.81,1.16,1.849,1.849,0,0,1-.931,2.014,1.115,1.115,0,0,1-.693.1q-5.212.01-10.423,0" transform="translate(-150.842 -331.151)" fill="#fff"/>
    <path id="Trazado_750167" data-name="Trazado 750167" d="M78.022,263.465c-.541.062-.871-.289-1.256-.585a27.306,27.306,0,0,1-2.473-2.019,1.559,1.559,0,0,1-.12-2.337,1.783,1.783,0,0,1,2.258-.087,4.587,4.587,0,0,1,.745.594c.454.522.717.4,1.116-.116,1.618-2.089,3.177-4.228,4.95-6.192a1.672,1.672,0,0,1,2.348-.138,1.546,1.546,0,0,1,.063,2.276c-1.255,1.593-2.522,3.176-3.776,4.769-.742.942-1.442,1.918-2.213,2.835-.42.5-.839,1.094-1.642,1" transform="translate(-61.649 -210.925)" fill="#fff"/>
    <path id="Trazado_750168" data-name="Trazado 750168" d="M83.859,354.689a11.8,11.8,0,0,1-1.785,2.514c-.844,1.1-1.807,2.121-2.558,3.28a1.928,1.928,0,0,1-2.8.52c-.813-.643-1.635-1.277-2.426-1.946a1.6,1.6,0,0,1-.045-2.665,2.13,2.13,0,0,1,2.292.2c1.147.879,1.131.866,2.072-.3q1.788-2.22,3.628-4.4a11.876,11.876,0,0,1,.848-1.249,1.757,1.757,0,0,1,2.318-.172,1.686,1.686,0,0,1,.239,2.126c-.3.434-.481,1-1.127,1.191-.123.036-.147.726-.652.786l-.118.014.118.1" transform="translate(-61.518 -292.85)" fill="#fff"/>
    <path id="Trazado_750169" data-name="Trazado 750169" d="M226.286,188.869l12.7.02a1.662,1.662,0,0,1,1.545.777,1.6,1.6,0,0,1-.07,1.851,1.229,1.229,0,0,1-1.11.645c-4.423,0-8.847,0-13.27-.007a1.676,1.676,0,0,1-1.561-1.453,1.625,1.625,0,0,1,.815-1.587c.205-.111.407-.228.611-.343.07.186.208.132.341.1" transform="translate(-187.796 -157.898)" fill="#fff"/>
    <path id="Trazado_750170" data-name="Trazado 750170" d="M232.366,112.97c-2.116,0-4.232.005-6.349,0a1.5,1.5,0,0,1-1.627-1.574,1.789,1.789,0,0,1,1.576-1.7c4.368.011,8.736-.01,13.1.006a1.633,1.633,0,0,1,1.616,1.692,1.7,1.7,0,0,1-1.728,1.575c-2.2.009-4.4,0-6.593,0Z" transform="translate(-187.689 -91.755)" fill="#fff"/>
    <path id="Trazado_750171" data-name="Trazado 750171" d="M269.519,153.076c-1.085,0-2.174-.061-3.252.02-.837.062-1.124-.461-1.237-1.052-.135-.7-.181-1.476.6-1.929a2.066,2.066,0,0,1,1.061-.305c2.034.008,4.069-.01,6.1.008a2.007,2.007,0,0,1,1.985,1.892c.045.588-.846,1.359-1.678,1.381-1.193.031-2.387.008-3.58.008v-.023" transform="translate(-221.617 -125.308)" fill="#fff"/>
    <path id="Trazado_750172" data-name="Trazado 750172" d="M225.5,150.459c1.177,0,1.629.424,1.631,1.537a1.759,1.759,0,0,1-1.5,1.727c-.723-.015-1.878-.884-1.848-1.451.056-1.05.74-2.057,1.719-1.813" transform="translate(-187.18 -125.82)" fill="#fff"/>
    <path id="Trazado_750173" data-name="Trazado 750173" d="M233.592,188.078c-.133.036-.271.09-.341-.1.2-.277.285-.142.341.1" transform="translate(-195.102 -157.108)" fill="#fff"/>
    <path id="Trazado_750174" data-name="Trazado 750174" d="M146.807,60.645c-.141.032-.282.061-.342-.126.149-.053.328-.187.342.126" transform="translate(-122.51 -50.559)" fill="#fff"/>
    <path id="Trazado_750175" data-name="Trazado 750175" d="M175.734,86.979c-.094-.019-.165-.056-.131-.173l.131.173" transform="translate(-146.875 -72.608)" fill="#fff"/>
    <path id="Trazado_750176" data-name="Trazado 750176" d="M136,377.5l-.118-.1.118-.014c0,.039,0,.078,0,.117" transform="translate(-113.654 -315.66)" fill="#fff"/>
  </g>
</svg>
