<svg xmlns="http://www.w3.org/2000/svg" xmlns:xlink="http://www.w3.org/1999/xlink" width="392.032" height="208.537" viewBox="0 0 392.032 208.537">
  <defs>
    <clipPath id="clip-path">
      <rect id="Rectángulo_352791" data-name="Rectángulo 352791" width="197.311" height="100.658" fill="#12263f"/>
    </clipPath>
    <clipPath id="clip-path-2">
      <rect id="Rectángulo_358293" data-name="Rectángulo 358293" width="352.132" height="204.488" fill="none"/>
    </clipPath>
  </defs>
  <g id="Grupo_1022441" data-name="Grupo 1022441" transform="translate(8047.602 7566.897)">
    <g id="Grupo_1020694" data-name="Grupo 1020694" transform="translate(-8047.602 -7532)">
      <g id="Enmascarar_grupo_1018593" data-name="Enmascarar grupo 1018593" transform="translate(194.721 0)" clip-path="url(#clip-path)">
        <path id="Trazado_151731" data-name="Trazado 151731" d="M93.947,148.336a54.39,54.39,0,1,1,54.39-54.39,54.452,54.452,0,0,1-54.39,54.39m0,39.556A93.946,93.946,0,1,0,0,93.946,93.946,93.946,0,0,0,93.947,187.893Z" transform="translate(4.076 6.713)" fill="#4adbd1"/>
      </g>
      <g id="Grupo_1018971" data-name="Grupo 1018971" transform="translate(0 0)">
        <path id="Trazado_145969" data-name="Trazado 145969" d="M55.641,0A55.641,55.641,0,1,1,0,55.641,55.641,55.641,0,0,1,55.641,0Z" transform="translate(0 2.824)" fill="#ffca28" opacity="0.444" style="mix-blend-mode: multiply;isolation: isolate"/>
        <rect id="Rectángulo_34812" data-name="Rectángulo 34812" width="392.032" height="165.125" transform="translate(0)" fill="none"/>
        <path id="Trazado_145971" data-name="Trazado 145971" d="M6.35,0A6.35,6.35,0,1,1,0,6.35,6.35,6.35,0,0,1,6.35,0Z" transform="translate(25.088 139.84)" fill="#31313c" opacity="0.444" style="mix-blend-mode: multiply;isolation: isolate"/>
        <g id="Grupo_80270" data-name="Grupo 80270" transform="translate(267.108 48.717)">
          <path id="Trazado_145968" data-name="Trazado 145968" d="M62.462,0A62.462,62.462,0,1,1,0,62.462,62.462,62.462,0,0,1,62.462,0Z" transform="translate(0)" fill="#31313c" opacity="0.444" style="mix-blend-mode: multiply;isolation: isolate"/>
          <g id="Grupo_78276" data-name="Grupo 78276" transform="translate(24.387 25.822)">
            <g id="Grupo_53306" data-name="Grupo 53306">
              <path id="Trazado_99200" data-name="Trazado 99200" d="M415.91,51.035a.849.849,0,1,1-.849-.811A.83.83,0,0,1,415.91,51.035Z" transform="translate(-414.214 -50.224)" fill="#fff"/>
              <path id="Trazado_99201" data-name="Trazado 99201" d="M424.356,51.035a.849.849,0,1,1-.848-.811A.83.83,0,0,1,424.356,51.035Z" transform="translate(-415.027 -50.224)" fill="#fff"/>
              <path id="Trazado_99202" data-name="Trazado 99202" d="M432.8,51.035a.849.849,0,1,1-.848-.811A.83.83,0,0,1,432.8,51.035Z" transform="translate(-415.84 -50.224)" fill="#fff"/>
              <path id="Trazado_99203" data-name="Trazado 99203" d="M441.249,51.035a.849.849,0,1,1-.849-.811A.83.83,0,0,1,441.249,51.035Z" transform="translate(-416.653 -50.224)" fill="#fff"/>
              <path id="Trazado_99204" data-name="Trazado 99204" d="M449.7,51.035a.849.849,0,1,1-.848-.811A.83.83,0,0,1,449.7,51.035Z" transform="translate(-417.466 -50.224)" fill="#fff"/>
              <path id="Trazado_99205" data-name="Trazado 99205" d="M458.141,51.035a.849.849,0,1,1-.848-.811A.83.83,0,0,1,458.141,51.035Z" transform="translate(-418.278 -50.224)" fill="#fff"/>
              <path id="Trazado_99206" data-name="Trazado 99206" d="M466.588,51.035a.849.849,0,1,1-.849-.811A.831.831,0,0,1,466.588,51.035Z" transform="translate(-419.091 -50.224)" fill="#fff"/>
              <path id="Trazado_99207" data-name="Trazado 99207" d="M475.035,51.035a.849.849,0,1,1-.848-.811A.83.83,0,0,1,475.035,51.035Z" transform="translate(-419.904 -50.224)" fill="#fff"/>
              <path id="Trazado_99208" data-name="Trazado 99208" d="M483.48,51.035a.849.849,0,1,1-.848-.811A.83.83,0,0,1,483.48,51.035Z" transform="translate(-420.717 -50.224)" fill="#fff"/>
              <path id="Trazado_99209" data-name="Trazado 99209" d="M491.927,51.035a.849.849,0,1,1-.849-.811A.831.831,0,0,1,491.927,51.035Z" transform="translate(-421.53 -50.224)" fill="#fff"/>
              <path id="Trazado_99210" data-name="Trazado 99210" d="M500.374,51.035a.849.849,0,1,1-.849-.811A.83.83,0,0,1,500.374,51.035Z" transform="translate(-422.343 -50.224)" fill="#fff"/>
            </g>
            <g id="Grupo_53307" data-name="Grupo 53307" transform="translate(0 6.489)">
              <path id="Trazado_99211" data-name="Trazado 99211" d="M415.91,58.543a.849.849,0,1,1-.849-.811A.83.83,0,0,1,415.91,58.543Z" transform="translate(-414.214 -57.732)" fill="#fff"/>
              <path id="Trazado_99212" data-name="Trazado 99212" d="M424.356,58.543a.849.849,0,1,1-.848-.811A.83.83,0,0,1,424.356,58.543Z" transform="translate(-415.027 -57.732)" fill="#fff"/>
              <path id="Trazado_99213" data-name="Trazado 99213" d="M432.8,58.543a.849.849,0,1,1-.848-.811A.83.83,0,0,1,432.8,58.543Z" transform="translate(-415.84 -57.732)" fill="#fff"/>
              <path id="Trazado_99214" data-name="Trazado 99214" d="M441.249,58.543a.849.849,0,1,1-.849-.811A.83.83,0,0,1,441.249,58.543Z" transform="translate(-416.653 -57.732)" fill="#fff"/>
              <path id="Trazado_99215" data-name="Trazado 99215" d="M449.7,58.543a.849.849,0,1,1-.848-.811A.83.83,0,0,1,449.7,58.543Z" transform="translate(-417.466 -57.732)" fill="#fff"/>
              <path id="Trazado_99216" data-name="Trazado 99216" d="M458.141,58.543a.849.849,0,1,1-.848-.811A.83.83,0,0,1,458.141,58.543Z" transform="translate(-418.278 -57.732)" fill="#fff"/>
              <path id="Trazado_99217" data-name="Trazado 99217" d="M466.588,58.543a.849.849,0,1,1-.849-.811A.831.831,0,0,1,466.588,58.543Z" transform="translate(-419.091 -57.732)" fill="#fff"/>
              <path id="Trazado_99218" data-name="Trazado 99218" d="M475.035,58.543a.849.849,0,1,1-.848-.811A.83.83,0,0,1,475.035,58.543Z" transform="translate(-419.904 -57.732)" fill="#fff"/>
              <path id="Trazado_99219" data-name="Trazado 99219" d="M483.48,58.543a.849.849,0,1,1-.848-.811A.83.83,0,0,1,483.48,58.543Z" transform="translate(-420.717 -57.732)" fill="#fff"/>
              <path id="Trazado_99220" data-name="Trazado 99220" d="M491.927,58.543a.849.849,0,1,1-.849-.811A.831.831,0,0,1,491.927,58.543Z" transform="translate(-421.53 -57.732)" fill="#fff"/>
              <path id="Trazado_99221" data-name="Trazado 99221" d="M500.374,58.543a.849.849,0,1,1-.849-.811A.83.83,0,0,1,500.374,58.543Z" transform="translate(-422.343 -57.732)" fill="#fff"/>
            </g>
            <g id="Grupo_53308" data-name="Grupo 53308" transform="translate(0 12.978)">
              <ellipse id="Elipse_3955" data-name="Elipse 3955" cx="0.848" cy="0.811" rx="0.848" ry="0.811" fill="#fff"/>
              <path id="Trazado_99222" data-name="Trazado 99222" d="M424.356,66.051a.849.849,0,1,1-.848-.811A.83.83,0,0,1,424.356,66.051Z" transform="translate(-415.027 -65.24)" fill="#fff"/>
              <ellipse id="Elipse_3956" data-name="Elipse 3956" cx="0.848" cy="0.811" rx="0.848" ry="0.811" transform="translate(15.267)" fill="#fff"/>
              <path id="Trazado_99223" data-name="Trazado 99223" d="M441.249,66.051a.849.849,0,1,1-.849-.811A.831.831,0,0,1,441.249,66.051Z" transform="translate(-416.653 -65.24)" fill="#fff"/>
              <path id="Trazado_99224" data-name="Trazado 99224" d="M449.7,66.051a.849.849,0,1,1-.848-.811A.831.831,0,0,1,449.7,66.051Z" transform="translate(-417.466 -65.24)" fill="#fff"/>
              <ellipse id="Elipse_3957" data-name="Elipse 3957" cx="0.848" cy="0.811" rx="0.848" ry="0.811" transform="translate(38.167)" fill="#fff"/>
              <path id="Trazado_99225" data-name="Trazado 99225" d="M466.588,66.051a.849.849,0,1,1-.849-.811A.831.831,0,0,1,466.588,66.051Z" transform="translate(-419.091 -65.24)" fill="#fff"/>
              <ellipse id="Elipse_3958" data-name="Elipse 3958" cx="0.848" cy="0.811" rx="0.848" ry="0.811" transform="translate(53.434)" fill="#fff"/>
              <ellipse id="Elipse_3959" data-name="Elipse 3959" cx="0.848" cy="0.811" rx="0.848" ry="0.811" transform="translate(61.067)" fill="#fff"/>
              <path id="Trazado_99226" data-name="Trazado 99226" d="M491.927,66.051a.849.849,0,1,1-.849-.811A.831.831,0,0,1,491.927,66.051Z" transform="translate(-421.53 -65.24)" fill="#fff"/>
              <path id="Trazado_99227" data-name="Trazado 99227" d="M500.374,66.051a.849.849,0,1,1-.849-.811A.831.831,0,0,1,500.374,66.051Z" transform="translate(-422.343 -65.24)" fill="#fff"/>
            </g>
            <g id="Grupo_53309" data-name="Grupo 53309" transform="translate(0 19.466)">
              <ellipse id="Elipse_3960" data-name="Elipse 3960" cx="0.848" cy="0.811" rx="0.848" ry="0.811" transform="translate(0 0)" fill="#fff"/>
              <path id="Trazado_99228" data-name="Trazado 99228" d="M424.356,73.559a.849.849,0,1,1-.848-.812A.83.83,0,0,1,424.356,73.559Z" transform="translate(-415.027 -72.747)" fill="#fff"/>
              <ellipse id="Elipse_3961" data-name="Elipse 3961" cx="0.848" cy="0.811" rx="0.848" ry="0.811" transform="translate(15.267 0)" fill="#fff"/>
              <path id="Trazado_99229" data-name="Trazado 99229" d="M441.249,73.559a.849.849,0,1,1-.849-.812A.83.83,0,0,1,441.249,73.559Z" transform="translate(-416.653 -72.747)" fill="#fff"/>
              <path id="Trazado_99230" data-name="Trazado 99230" d="M449.7,73.559a.849.849,0,1,1-.848-.812A.83.83,0,0,1,449.7,73.559Z" transform="translate(-417.466 -72.747)" fill="#fff"/>
              <ellipse id="Elipse_3962" data-name="Elipse 3962" cx="0.848" cy="0.811" rx="0.848" ry="0.811" transform="translate(38.167 0)" fill="#fff"/>
              <path id="Trazado_99231" data-name="Trazado 99231" d="M466.588,73.559a.849.849,0,1,1-.849-.812A.831.831,0,0,1,466.588,73.559Z" transform="translate(-419.091 -72.747)" fill="#fff"/>
              <ellipse id="Elipse_3963" data-name="Elipse 3963" cx="0.848" cy="0.811" rx="0.848" ry="0.811" transform="translate(53.434 0)" fill="#fff"/>
              <ellipse id="Elipse_3964" data-name="Elipse 3964" cx="0.848" cy="0.811" rx="0.848" ry="0.811" transform="translate(61.067 0)" fill="#fff"/>
              <path id="Trazado_99232" data-name="Trazado 99232" d="M491.927,73.559a.849.849,0,1,1-.849-.812A.831.831,0,0,1,491.927,73.559Z" transform="translate(-421.53 -72.747)" fill="#fff"/>
              <path id="Trazado_99233" data-name="Trazado 99233" d="M500.374,73.559a.849.849,0,1,1-.849-.812A.83.83,0,0,1,500.374,73.559Z" transform="translate(-422.343 -72.747)" fill="#fff"/>
            </g>
            <g id="Grupo_53310" data-name="Grupo 53310" transform="translate(0 25.955)">
              <path id="Trazado_99234" data-name="Trazado 99234" d="M415.91,81.067a.849.849,0,1,1-.849-.812A.83.83,0,0,1,415.91,81.067Z" transform="translate(-414.214 -80.255)" fill="#fff"/>
              <path id="Trazado_99235" data-name="Trazado 99235" d="M424.356,81.067a.849.849,0,1,1-.848-.812A.83.83,0,0,1,424.356,81.067Z" transform="translate(-415.027 -80.255)" fill="#fff"/>
              <path id="Trazado_99236" data-name="Trazado 99236" d="M432.8,81.067a.849.849,0,1,1-.848-.812A.83.83,0,0,1,432.8,81.067Z" transform="translate(-415.84 -80.255)" fill="#fff"/>
              <path id="Trazado_99237" data-name="Trazado 99237" d="M441.249,81.067a.849.849,0,1,1-.849-.812A.83.83,0,0,1,441.249,81.067Z" transform="translate(-416.653 -80.255)" fill="#fff"/>
              <path id="Trazado_99238" data-name="Trazado 99238" d="M449.7,81.067a.849.849,0,1,1-.848-.812A.83.83,0,0,1,449.7,81.067Z" transform="translate(-417.466 -80.255)" fill="#fff"/>
              <path id="Trazado_99239" data-name="Trazado 99239" d="M458.141,81.067a.849.849,0,1,1-.848-.812A.83.83,0,0,1,458.141,81.067Z" transform="translate(-418.278 -80.255)" fill="#fff"/>
              <path id="Trazado_99240" data-name="Trazado 99240" d="M466.588,81.067a.849.849,0,1,1-.849-.812A.831.831,0,0,1,466.588,81.067Z" transform="translate(-419.091 -80.255)" fill="#fff"/>
              <path id="Trazado_99241" data-name="Trazado 99241" d="M475.035,81.067a.849.849,0,1,1-.848-.812A.83.83,0,0,1,475.035,81.067Z" transform="translate(-419.904 -80.255)" fill="#fff"/>
              <path id="Trazado_99242" data-name="Trazado 99242" d="M483.48,81.067a.849.849,0,1,1-.848-.812A.83.83,0,0,1,483.48,81.067Z" transform="translate(-420.717 -80.255)" fill="#fff"/>
              <path id="Trazado_99243" data-name="Trazado 99243" d="M491.927,81.067a.849.849,0,1,1-.849-.812A.831.831,0,0,1,491.927,81.067Z" transform="translate(-421.53 -80.255)" fill="#fff"/>
              <path id="Trazado_99244" data-name="Trazado 99244" d="M500.374,81.067a.849.849,0,1,1-.849-.812A.83.83,0,0,1,500.374,81.067Z" transform="translate(-422.343 -80.255)" fill="#fff"/>
            </g>
            <g id="Grupo_53311" data-name="Grupo 53311" transform="translate(0 32.444)">
              <ellipse id="Elipse_3965" data-name="Elipse 3965" cx="0.848" cy="0.811" rx="0.848" ry="0.811" transform="translate(0 0)" fill="#fff"/>
              <path id="Trazado_99245" data-name="Trazado 99245" d="M424.356,88.575a.849.849,0,1,1-.848-.812A.83.83,0,0,1,424.356,88.575Z" transform="translate(-415.027 -87.763)" fill="#fff"/>
              <ellipse id="Elipse_3966" data-name="Elipse 3966" cx="0.848" cy="0.811" rx="0.848" ry="0.811" transform="translate(15.267 0)" fill="#fff"/>
              <path id="Trazado_99246" data-name="Trazado 99246" d="M441.249,88.575a.849.849,0,1,1-.849-.812A.83.83,0,0,1,441.249,88.575Z" transform="translate(-416.653 -87.763)" fill="#fff"/>
              <path id="Trazado_99247" data-name="Trazado 99247" d="M449.7,88.575a.849.849,0,1,1-.848-.812A.83.83,0,0,1,449.7,88.575Z" transform="translate(-417.466 -87.763)" fill="#fff"/>
              <ellipse id="Elipse_3967" data-name="Elipse 3967" cx="0.848" cy="0.811" rx="0.848" ry="0.811" transform="translate(38.167 0)" fill="#fff"/>
              <path id="Trazado_99248" data-name="Trazado 99248" d="M466.588,88.575a.849.849,0,1,1-.849-.812A.831.831,0,0,1,466.588,88.575Z" transform="translate(-419.091 -87.763)" fill="#fff"/>
              <ellipse id="Elipse_3968" data-name="Elipse 3968" cx="0.848" cy="0.811" rx="0.848" ry="0.811" transform="translate(53.434 0)" fill="#fff"/>
              <ellipse id="Elipse_3969" data-name="Elipse 3969" cx="0.848" cy="0.811" rx="0.848" ry="0.811" transform="translate(61.067 0)" fill="#fff"/>
              <path id="Trazado_99249" data-name="Trazado 99249" d="M491.927,88.575a.849.849,0,1,1-.849-.812A.831.831,0,0,1,491.927,88.575Z" transform="translate(-421.53 -87.763)" fill="#fff"/>
              <path id="Trazado_99250" data-name="Trazado 99250" d="M500.374,88.575a.849.849,0,1,1-.849-.812A.83.83,0,0,1,500.374,88.575Z" transform="translate(-422.343 -87.763)" fill="#fff"/>
            </g>
            <g id="Grupo_53312" data-name="Grupo 53312" transform="translate(0 38.933)">
              <ellipse id="Elipse_3970" data-name="Elipse 3970" cx="0.848" cy="0.811" rx="0.848" ry="0.811" fill="#fff"/>
              <path id="Trazado_99251" data-name="Trazado 99251" d="M424.356,96.082a.849.849,0,1,1-.848-.811A.83.83,0,0,1,424.356,96.082Z" transform="translate(-415.027 -95.271)" fill="#fff"/>
              <ellipse id="Elipse_3971" data-name="Elipse 3971" cx="0.848" cy="0.811" rx="0.848" ry="0.811" transform="translate(15.267)" fill="#fff"/>
              <path id="Trazado_99252" data-name="Trazado 99252" d="M441.249,96.082a.849.849,0,1,1-.849-.811A.83.83,0,0,1,441.249,96.082Z" transform="translate(-416.653 -95.271)" fill="#fff"/>
              <path id="Trazado_99253" data-name="Trazado 99253" d="M449.7,96.082a.849.849,0,1,1-.848-.811A.83.83,0,0,1,449.7,96.082Z" transform="translate(-417.466 -95.271)" fill="#fff"/>
              <ellipse id="Elipse_3972" data-name="Elipse 3972" cx="0.848" cy="0.811" rx="0.848" ry="0.811" transform="translate(38.167)" fill="#fff"/>
              <path id="Trazado_99254" data-name="Trazado 99254" d="M466.588,96.082a.849.849,0,1,1-.849-.811A.831.831,0,0,1,466.588,96.082Z" transform="translate(-419.091 -95.271)" fill="#fff"/>
              <ellipse id="Elipse_3973" data-name="Elipse 3973" cx="0.848" cy="0.811" rx="0.848" ry="0.811" transform="translate(53.434)" fill="#fff"/>
              <ellipse id="Elipse_3974" data-name="Elipse 3974" cx="0.848" cy="0.811" rx="0.848" ry="0.811" transform="translate(61.067)" fill="#fff"/>
              <path id="Trazado_99255" data-name="Trazado 99255" d="M491.927,96.082a.849.849,0,1,1-.849-.811A.831.831,0,0,1,491.927,96.082Z" transform="translate(-421.53 -95.271)" fill="#fff"/>
              <path id="Trazado_99256" data-name="Trazado 99256" d="M500.374,96.082a.849.849,0,1,1-.849-.811A.83.83,0,0,1,500.374,96.082Z" transform="translate(-422.343 -95.271)" fill="#fff"/>
            </g>
            <g id="Grupo_53313" data-name="Grupo 53313" transform="translate(0 45.422)">
              <path id="Trazado_99257" data-name="Trazado 99257" d="M415.91,103.59a.849.849,0,1,1-.849-.811A.83.83,0,0,1,415.91,103.59Z" transform="translate(-414.214 -102.779)" fill="#fff"/>
              <path id="Trazado_99258" data-name="Trazado 99258" d="M424.356,103.59a.849.849,0,1,1-.848-.811A.83.83,0,0,1,424.356,103.59Z" transform="translate(-415.027 -102.779)" fill="#fff"/>
              <path id="Trazado_99259" data-name="Trazado 99259" d="M432.8,103.59a.849.849,0,1,1-.848-.811A.83.83,0,0,1,432.8,103.59Z" transform="translate(-415.84 -102.779)" fill="#fff"/>
              <path id="Trazado_99260" data-name="Trazado 99260" d="M441.249,103.59a.849.849,0,1,1-.849-.811A.83.83,0,0,1,441.249,103.59Z" transform="translate(-416.653 -102.779)" fill="#fff"/>
              <path id="Trazado_99261" data-name="Trazado 99261" d="M449.7,103.59a.849.849,0,1,1-.848-.811A.83.83,0,0,1,449.7,103.59Z" transform="translate(-417.466 -102.779)" fill="#fff"/>
              <path id="Trazado_99262" data-name="Trazado 99262" d="M458.141,103.59a.849.849,0,1,1-.848-.811A.83.83,0,0,1,458.141,103.59Z" transform="translate(-418.278 -102.779)" fill="#fff"/>
              <path id="Trazado_99263" data-name="Trazado 99263" d="M466.588,103.59a.849.849,0,1,1-.849-.811A.831.831,0,0,1,466.588,103.59Z" transform="translate(-419.091 -102.779)" fill="#fff"/>
              <path id="Trazado_99264" data-name="Trazado 99264" d="M475.035,103.59a.849.849,0,1,1-.848-.811A.83.83,0,0,1,475.035,103.59Z" transform="translate(-419.904 -102.779)" fill="#fff"/>
              <path id="Trazado_99265" data-name="Trazado 99265" d="M483.48,103.59a.849.849,0,1,1-.848-.811A.83.83,0,0,1,483.48,103.59Z" transform="translate(-420.717 -102.779)" fill="#fff"/>
              <path id="Trazado_99266" data-name="Trazado 99266" d="M491.927,103.59a.849.849,0,1,1-.849-.811A.831.831,0,0,1,491.927,103.59Z" transform="translate(-421.53 -102.779)" fill="#fff"/>
              <path id="Trazado_99267" data-name="Trazado 99267" d="M500.374,103.59a.849.849,0,1,1-.849-.811A.83.83,0,0,1,500.374,103.59Z" transform="translate(-422.343 -102.779)" fill="#fff"/>
            </g>
            <g id="Grupo_53314" data-name="Grupo 53314" transform="translate(0 51.911)">
              <ellipse id="Elipse_3975" data-name="Elipse 3975" cx="0.848" cy="0.811" rx="0.848" ry="0.811" fill="#fff"/>
              <path id="Trazado_99268" data-name="Trazado 99268" d="M424.356,111.1a.849.849,0,1,1-.848-.811A.831.831,0,0,1,424.356,111.1Z" transform="translate(-415.027 -110.287)" fill="#fff"/>
              <ellipse id="Elipse_3976" data-name="Elipse 3976" cx="0.848" cy="0.811" rx="0.848" ry="0.811" transform="translate(15.267)" fill="#fff"/>
              <path id="Trazado_99269" data-name="Trazado 99269" d="M441.249,111.1a.849.849,0,1,1-.849-.811A.831.831,0,0,1,441.249,111.1Z" transform="translate(-416.653 -110.287)" fill="#fff"/>
              <path id="Trazado_99270" data-name="Trazado 99270" d="M449.7,111.1a.849.849,0,1,1-.848-.811A.831.831,0,0,1,449.7,111.1Z" transform="translate(-417.466 -110.287)" fill="#fff"/>
              <ellipse id="Elipse_3977" data-name="Elipse 3977" cx="0.848" cy="0.811" rx="0.848" ry="0.811" transform="translate(38.167)" fill="#fff"/>
              <path id="Trazado_99271" data-name="Trazado 99271" d="M466.588,111.1a.849.849,0,1,1-.849-.811A.831.831,0,0,1,466.588,111.1Z" transform="translate(-419.091 -110.287)" fill="#fff"/>
              <ellipse id="Elipse_3978" data-name="Elipse 3978" cx="0.848" cy="0.811" rx="0.848" ry="0.811" transform="translate(53.434)" fill="#fff"/>
              <ellipse id="Elipse_3979" data-name="Elipse 3979" cx="0.848" cy="0.811" rx="0.848" ry="0.811" transform="translate(61.067)" fill="#fff"/>
              <path id="Trazado_99272" data-name="Trazado 99272" d="M491.927,111.1a.849.849,0,1,1-.849-.811A.831.831,0,0,1,491.927,111.1Z" transform="translate(-421.53 -110.287)" fill="#fff"/>
              <path id="Trazado_99273" data-name="Trazado 99273" d="M500.374,111.1a.849.849,0,1,1-.849-.811A.831.831,0,0,1,500.374,111.1Z" transform="translate(-422.343 -110.287)" fill="#fff"/>
            </g>
            <g id="Grupo_53315" data-name="Grupo 53315" transform="translate(0 58.399)">
              <path id="Trazado_99274" data-name="Trazado 99274" d="M415.91,118.606a.849.849,0,1,1-.849-.812A.831.831,0,0,1,415.91,118.606Z" transform="translate(-414.214 -117.794)" fill="#fff"/>
              <path id="Trazado_99275" data-name="Trazado 99275" d="M424.356,118.606a.849.849,0,1,1-.848-.812A.83.83,0,0,1,424.356,118.606Z" transform="translate(-415.027 -117.794)" fill="#fff"/>
              <path id="Trazado_99276" data-name="Trazado 99276" d="M432.8,118.606a.849.849,0,1,1-.848-.812A.831.831,0,0,1,432.8,118.606Z" transform="translate(-415.84 -117.794)" fill="#fff"/>
              <path id="Trazado_99277" data-name="Trazado 99277" d="M441.249,118.606a.849.849,0,1,1-.849-.812A.831.831,0,0,1,441.249,118.606Z" transform="translate(-416.653 -117.794)" fill="#fff"/>
              <path id="Trazado_99278" data-name="Trazado 99278" d="M449.7,118.606a.849.849,0,1,1-.848-.812A.831.831,0,0,1,449.7,118.606Z" transform="translate(-417.466 -117.794)" fill="#fff"/>
              <path id="Trazado_99279" data-name="Trazado 99279" d="M458.141,118.606a.849.849,0,1,1-.848-.812A.831.831,0,0,1,458.141,118.606Z" transform="translate(-418.278 -117.794)" fill="#fff"/>
              <path id="Trazado_99280" data-name="Trazado 99280" d="M466.588,118.606a.849.849,0,1,1-.849-.812A.831.831,0,0,1,466.588,118.606Z" transform="translate(-419.091 -117.794)" fill="#fff"/>
              <path id="Trazado_99281" data-name="Trazado 99281" d="M475.035,118.606a.849.849,0,1,1-.848-.812A.831.831,0,0,1,475.035,118.606Z" transform="translate(-419.904 -117.794)" fill="#fff"/>
              <path id="Trazado_99282" data-name="Trazado 99282" d="M483.48,118.606a.849.849,0,1,1-.848-.812A.831.831,0,0,1,483.48,118.606Z" transform="translate(-420.717 -117.794)" fill="#fff"/>
              <path id="Trazado_99283" data-name="Trazado 99283" d="M491.927,118.606a.849.849,0,1,1-.849-.812A.831.831,0,0,1,491.927,118.606Z" transform="translate(-421.53 -117.794)" fill="#fff"/>
              <path id="Trazado_99284" data-name="Trazado 99284" d="M500.374,118.606a.849.849,0,1,1-.849-.812A.831.831,0,0,1,500.374,118.606Z" transform="translate(-422.343 -117.794)" fill="#fff"/>
            </g>
            <g id="Grupo_53316" data-name="Grupo 53316" transform="translate(0 64.888)">
              <ellipse id="Elipse_3980" data-name="Elipse 3980" cx="0.848" cy="0.811" rx="0.848" ry="0.811" transform="translate(0 0)" fill="#fff"/>
              <path id="Trazado_99285" data-name="Trazado 99285" d="M424.356,126.114a.849.849,0,1,1-.848-.812A.83.83,0,0,1,424.356,126.114Z" transform="translate(-415.027 -125.302)" fill="#fff"/>
              <ellipse id="Elipse_3981" data-name="Elipse 3981" cx="0.848" cy="0.811" rx="0.848" ry="0.811" transform="translate(15.267 0)" fill="#fff"/>
              <path id="Trazado_99286" data-name="Trazado 99286" d="M441.249,126.114a.849.849,0,1,1-.849-.812A.83.83,0,0,1,441.249,126.114Z" transform="translate(-416.653 -125.302)" fill="#fff"/>
              <path id="Trazado_99287" data-name="Trazado 99287" d="M449.7,126.114a.849.849,0,1,1-.848-.812A.83.83,0,0,1,449.7,126.114Z" transform="translate(-417.466 -125.302)" fill="#fff"/>
              <ellipse id="Elipse_3982" data-name="Elipse 3982" cx="0.848" cy="0.811" rx="0.848" ry="0.811" transform="translate(38.167 0)" fill="#fff"/>
              <path id="Trazado_99288" data-name="Trazado 99288" d="M466.588,126.114a.849.849,0,1,1-.849-.812A.831.831,0,0,1,466.588,126.114Z" transform="translate(-419.091 -125.302)" fill="#fff"/>
              <ellipse id="Elipse_3983" data-name="Elipse 3983" cx="0.848" cy="0.811" rx="0.848" ry="0.811" transform="translate(53.434 0)" fill="#fff"/>
              <ellipse id="Elipse_3984" data-name="Elipse 3984" cx="0.848" cy="0.811" rx="0.848" ry="0.811" transform="translate(61.067 0)" fill="#fff"/>
              <path id="Trazado_99289" data-name="Trazado 99289" d="M491.927,126.114a.849.849,0,1,1-.849-.812A.831.831,0,0,1,491.927,126.114Z" transform="translate(-421.53 -125.302)" fill="#fff"/>
              <path id="Trazado_99290" data-name="Trazado 99290" d="M500.374,126.114a.849.849,0,1,1-.849-.812A.83.83,0,0,1,500.374,126.114Z" transform="translate(-422.343 -125.302)" fill="#fff"/>
            </g>
            <g id="Grupo_53317" data-name="Grupo 53317" transform="translate(0 71.378)">
              <ellipse id="Elipse_3985" data-name="Elipse 3985" cx="0.848" cy="0.811" rx="0.848" ry="0.811" transform="translate(0 0)" fill="#fff"/>
              <path id="Trazado_99291" data-name="Trazado 99291" d="M424.356,133.622a.849.849,0,1,1-.848-.812A.83.83,0,0,1,424.356,133.622Z" transform="translate(-415.027 -132.81)" fill="#fff"/>
              <ellipse id="Elipse_3986" data-name="Elipse 3986" cx="0.848" cy="0.811" rx="0.848" ry="0.811" transform="translate(15.267 0)" fill="#fff"/>
              <path id="Trazado_99292" data-name="Trazado 99292" d="M441.249,133.622a.849.849,0,1,1-.849-.812A.83.83,0,0,1,441.249,133.622Z" transform="translate(-416.653 -132.81)" fill="#fff"/>
              <path id="Trazado_99293" data-name="Trazado 99293" d="M449.7,133.622a.849.849,0,1,1-.848-.812A.83.83,0,0,1,449.7,133.622Z" transform="translate(-417.466 -132.81)" fill="#fff"/>
              <ellipse id="Elipse_3987" data-name="Elipse 3987" cx="0.848" cy="0.811" rx="0.848" ry="0.811" transform="translate(38.167 0)" fill="#fff"/>
              <path id="Trazado_99294" data-name="Trazado 99294" d="M466.588,133.622a.849.849,0,1,1-.849-.812A.831.831,0,0,1,466.588,133.622Z" transform="translate(-419.091 -132.81)" fill="#fff"/>
              <ellipse id="Elipse_3988" data-name="Elipse 3988" cx="0.848" cy="0.811" rx="0.848" ry="0.811" transform="translate(53.434 0)" fill="#fff"/>
              <ellipse id="Elipse_3989" data-name="Elipse 3989" cx="0.848" cy="0.811" rx="0.848" ry="0.811" transform="translate(61.067 0)" fill="#fff"/>
              <path id="Trazado_99295" data-name="Trazado 99295" d="M491.927,133.622a.849.849,0,1,1-.849-.812A.831.831,0,0,1,491.927,133.622Z" transform="translate(-421.53 -132.81)" fill="#fff"/>
              <path id="Trazado_99296" data-name="Trazado 99296" d="M500.374,133.622a.849.849,0,1,1-.849-.812A.83.83,0,0,1,500.374,133.622Z" transform="translate(-422.343 -132.81)" fill="#fff"/>
            </g>
          </g>
        </g>
        <line id="Línea_138" data-name="Línea 138" y2="118.58" transform="translate(13.623 28.542)" fill="none" stroke="#31313c" stroke-linecap="round" stroke-width="4" stroke-dasharray="8"/>
      </g>
    </g>
    <g id="Grupo_1022460" data-name="Grupo 1022460" transform="translate(-8047.601 -7574.893)">
      <g id="Grupo_1022459" data-name="Grupo 1022459" transform="translate(10 7.996)">
        <g id="Grupo_1022458" data-name="Grupo 1022458" transform="translate(0 0)" clip-path="url(#clip-path-2)">
          <path id="Trazado_751303" data-name="Trazado 751303" d="M789.339,289.778H657.06a8.22,8.22,0,0,1-8.22-8.22V106.826a8.22,8.22,0,0,1,8.22-8.22H789.339a8.22,8.22,0,0,1,8.22,8.22V281.557a8.22,8.22,0,0,1-8.22,8.22" transform="translate(-563.389 -85.619)" fill="#1d2238"/>
          <rect id="Rectángulo_358263" data-name="Rectángulo 358263" width="130.193" height="168.406" transform="translate(94.715 24.37)" fill="#fff"/>
          <path id="Trazado_751304" data-name="Trazado 751304" d="M1095.38,9.981a10.091,10.091,0,0,0-20.18,0h-9.35V25.97h38.88V9.981Zm-10.09,1.6a3.559,3.559,0,1,1,3.559-3.559,3.559,3.559,0,0,1-3.559,3.559" transform="translate(-925.479 0.004)" fill="#e6b046"/>
          <rect id="Rectángulo_358264" data-name="Rectángulo 358264" width="88.124" height="5.383" transform="translate(131.466 41.957)" fill="#f1f2f5"/>
          <rect id="Rectángulo_358265" data-name="Rectángulo 358265" width="88.124" height="5.383" transform="translate(131.466 52.468)" fill="#f1f2f5"/>
          <rect id="Rectángulo_358266" data-name="Rectángulo 358266" width="42.946" height="5.383" transform="translate(131.465 62.979)" fill="#f1f2f5"/>
          <path id="Trazado_751305" data-name="Trazado 751305" d="M806.949,342.773H782.164v-27.2h24.785Zm-23.995-.79h23.2V316.367h-23.2Z" transform="translate(-679.154 -274.015)" fill="#9ea9bd"/>
          <path id="Trazado_751306" data-name="Trazado 751306" d="M827.957,309.1l5.809,8.079,16.013-15.062,2.843,3.672L832.936,324.6l-8.488-12.306Z" transform="translate(-715.869 -262.325)" fill="#12263f"/>
          <rect id="Rectángulo_358267" data-name="Rectángulo 358267" width="88.124" height="5.383" transform="translate(131.466 76.638)" fill="#f1f2f5"/>
          <rect id="Rectángulo_358268" data-name="Rectángulo 358268" width="88.124" height="5.383" transform="translate(131.466 87.149)" fill="#f1f2f5"/>
          <rect id="Rectángulo_358269" data-name="Rectángulo 358269" width="42.946" height="5.383" transform="translate(131.465 97.661)" fill="#f1f2f5"/>
          <path id="Trazado_751307" data-name="Trazado 751307" d="M806.949,606.11H782.164v-27.2h24.785Zm-23.995-.79h23.2V579.7h-23.2Z" transform="translate(-679.154 -502.671)" fill="#9ea9bd"/>
          <path id="Trazado_751308" data-name="Trazado 751308" d="M827.957,572.433l5.809,8.079,16.013-15.062,2.843,3.672-19.687,18.809-8.488-12.306Z" transform="translate(-715.869 -490.981)" fill="#12263f"/>
          <rect id="Rectángulo_358270" data-name="Rectángulo 358270" width="88.124" height="5.383" transform="translate(131.466 111.319)" fill="#f1f2f5"/>
          <rect id="Rectángulo_358271" data-name="Rectángulo 358271" width="88.124" height="5.383" transform="translate(131.466 121.83)" fill="#f1f2f5"/>
          <rect id="Rectángulo_358272" data-name="Rectángulo 358272" width="42.946" height="5.383" transform="translate(131.465 132.342)" fill="#f1f2f5"/>
          <path id="Trazado_751309" data-name="Trazado 751309" d="M806.949,869.447H782.164v-27.2h24.785Zm-23.995-.79h23.2V843.041h-23.2Z" transform="translate(-679.154 -731.327)" fill="#9ea9bd"/>
          <path id="Trazado_751310" data-name="Trazado 751310" d="M827.957,835.77l5.809,8.079,16.013-15.062,2.843,3.672L832.936,851.27l-8.488-12.306Z" transform="translate(-715.869 -719.637)" fill="#12263f"/>
          <rect id="Rectángulo_358273" data-name="Rectángulo 358273" width="88.124" height="5.383" transform="translate(131.466 146)" fill="#f1f2f5"/>
          <rect id="Rectángulo_358274" data-name="Rectángulo 358274" width="88.124" height="5.383" transform="translate(131.466 156.512)" fill="#f1f2f5"/>
          <rect id="Rectángulo_358275" data-name="Rectángulo 358275" width="42.946" height="5.383" transform="translate(131.465 167.023)" fill="#f1f2f5"/>
          <path id="Trazado_751311" data-name="Trazado 751311" d="M806.949,1132.783H782.164v-27.2h24.785Zm-23.995-.79h23.2v-25.616h-23.2Z" transform="translate(-679.154 -959.982)" fill="#9ea9bd"/>
          <path id="Trazado_751312" data-name="Trazado 751312" d="M827.957,1099.107l5.809,8.079,16.013-15.062,2.843,3.672-19.687,18.809-8.488-12.306Z" transform="translate(-715.869 -948.293)" fill="#12263f"/>
          <rect id="Rectángulo_358276" data-name="Rectángulo 358276" width="40.936" height="41.11" transform="translate(258.834 163.049)" fill="#9ea9bd"/>
          <rect id="Rectángulo_358277" data-name="Rectángulo 358277" width="4.934" height="6.509" transform="translate(276.835 163.048)" fill="#1d2238"/>
          <rect id="Rectángulo_358278" data-name="Rectángulo 358278" width="29.31" height="41.11" transform="translate(299.77 163.049)" fill="#d2d6e1"/>
          <rect id="Rectángulo_358279" data-name="Rectángulo 358279" width="3.752" height="6.509" transform="translate(312.549 163.048)" fill="#1d2238"/>
          <rect id="Rectángulo_358280" data-name="Rectángulo 358280" width="40.936" height="78.676" transform="translate(250.944 84.372)" fill="#f0dcc0"/>
          <rect id="Rectángulo_358281" data-name="Rectángulo 358281" width="4.934" height="12.458" transform="translate(268.945 84.372)" fill="#1d2238"/>
          <rect id="Rectángulo_358282" data-name="Rectángulo 358282" width="29.31" height="78.676" transform="translate(291.88 84.372)" fill="#e6b046"/>
          <rect id="Rectángulo_358283" data-name="Rectángulo 358283" width="3.752" height="12.458" transform="translate(304.66 84.372)" fill="#1d2238"/>
          <rect id="Rectángulo_358284" data-name="Rectángulo 358284" width="52.649" height="41.11" transform="translate(182.116 163.049)" fill="#e6b046"/>
          <rect id="Rectángulo_358285" data-name="Rectángulo 358285" width="6.346" height="6.509" transform="translate(205.267 163.048)" fill="#1d2238"/>
          <rect id="Rectángulo_358286" data-name="Rectángulo 358286" width="34.839" height="41.11" transform="translate(234.765 163.049)" fill="#f0dcc0"/>
          <rect id="Rectángulo_358287" data-name="Rectángulo 358287" width="6.346" height="6.509" transform="translate(250.035 163.048)" fill="#1d2238"/>
          <rect id="Rectángulo_358288" data-name="Rectángulo 358288" width="40.936" height="41.11" transform="translate(188.588 121.938)" fill="#d2d6e1"/>
          <rect id="Rectángulo_358289" data-name="Rectángulo 358289" width="4.934" height="6.509" transform="translate(206.589 121.938)" fill="#1d2238"/>
          <rect id="Rectángulo_358290" data-name="Rectángulo 358290" width="29.31" height="41.11" transform="translate(229.524 121.938)" fill="#f1f2f5"/>
          <rect id="Rectángulo_358291" data-name="Rectángulo 358291" width="3.752" height="6.509" transform="translate(242.303 121.938)" fill="#1d2238"/>
          <rect id="Rectángulo_358292" data-name="Rectángulo 358292" width="352.132" height="0.658" transform="translate(0 203.829)" fill="#1d2238"/>
          <path id="Trazado_751313" data-name="Trazado 751313" d="M441.26,555.821l-1.358.908-7.238-10.824a.817.817,0,1,1,1.358-.908Z" transform="translate(-375.562 -472.906)" fill="#1d2238"/>
          <path id="Trazado_751314" data-name="Trazado 751314" d="M444.4,618.28s.56-4.65,1.722-4.865a27.074,27.074,0,0,1,5.3,0,5.175,5.175,0,0,1,2.971,2.54l-7.362,7.147Z" transform="translate(-385.872 -532.515)" fill="#eb9481"/>
          <path id="Trazado_751315" data-name="Trazado 751315" d="M365.878,354.628a10.532,10.532,0,0,1,1.917,4.354,2.35,2.35,0,0,1-1.015,2.557l-4.995-6.911Z" transform="translate(-314.138 -307.923)" fill="#1d2238"/>
          <path id="Trazado_751316" data-name="Trazado 751316" d="M273.039,345.356h0a8.13,8.13,0,0,0-8.106,7.513l-.066-.011-1.758,10.971a4.429,4.429,0,0,0,3.672,5.074c2.415.387,4.268,1.073,5.074-3.672l.125-.778a8.12,8.12,0,0,0,9.191-8.061v-2.9a8.132,8.132,0,0,0-8.132-8.132" transform="translate(-228.408 -299.873)" fill="#eb9481"/>
          <path id="Trazado_751317" data-name="Trazado 751317" d="M376.159,396.476a5.855,5.855,0,0,1,.153.639c.023.106.037.213.054.319s.034.213.044.319c.025.213.049.426.06.639l.021.319.007.32-.361-.361c.136,0,.271-.009.407-.006.07,0,.123,0,.241.01a1.128,1.128,0,0,1,.3.081,1,1,0,0,1,.6.97.99.99,0,0,1-.206.531.9.9,0,0,1-.451.3.816.816,0,0,1-.259.028,1.545,1.545,0,0,1-.221-.036c-.136-.031-.271-.065-.407-.106l-.006,0a.02.02,0,0,1,.006-.039l.407-.006c.068,0,.137,0,.2-.006a.775.775,0,0,0,.188-.05.659.659,0,0,0,0-1.216.731.731,0,0,0-.186-.047c-.062,0-.132,0-.2,0H376.1v-.039c.006-.852,0-1.7.019-2.556a.02.02,0,0,1,.039-.006Z" transform="translate(-326.567 -344.243)" fill="#1d2238"/>
          <path id="Trazado_751318" data-name="Trazado 751318" d="M386.171,393.345a.565.565,0,1,1-.564-.564.564.564,0,0,1,.564.564" transform="translate(-334.332 -341.052)" fill="#1d2238"/>
          <path id="Trazado_751319" data-name="Trazado 751319" d="M361.606,431.664s-.936-1.364-3.663-1.328Z" transform="translate(-310.802 -373.661)" fill="#fff"/>
          <path id="Trazado_751320" data-name="Trazado 751320" d="M378.489,378.44c-.051.21.386.5.977.64s1.11.088,1.161-.122-.386-.5-.977-.64-1.11-.088-1.161.122" transform="translate(-328.639 -328.424)" fill="#1d2238"/>
          <path id="Trazado_751321" data-name="Trazado 751321" d="M361.324,395.335a.565.565,0,1,1-.564-.564.564.564,0,0,1,.564.564" transform="translate(-312.758 -342.78)" fill="#1d2238"/>
          <path id="Trazado_751322" data-name="Trazado 751322" d="M353.669,380.911c.054.21.575.256,1.163.1s1.021-.445.967-.654-.575-.256-1.163-.1-1.021.445-.967.654" transform="translate(-307.087 -330.1)" fill="#1d2238"/>
          <path id="Trazado_751323" data-name="Trazado 751323" d="M360.493,431.938a6.56,6.56,0,0,1-1.192-.218c-.195-.046-.382-.112-.574-.168s-.375-.132-.562-.2-.369-.147-.551-.227-.364-.161-.54-.256a6.627,6.627,0,0,1-1.036-.629l0,0a.016.016,0,0,1,.016-.028l2.233.832,2.221.863a.016.016,0,0,1,.009.021.016.016,0,0,1-.016.01Z" transform="translate(-309.14 -373.552)" fill="#1d2238"/>
          <path id="Trazado_751324" data-name="Trazado 751324" d="M251.9,325.179s7.083-6.241,13.94-6.239c0,0,3-.132,4.1,2.4,0,0-1.32-10.359-12.769-8.613s-6.882,13.438-6.882,13.438Z" transform="translate(-216.55 -271.373)" fill="#91b3fa"/>
          <path id="Trazado_751325" data-name="Trazado 751325" d="M286.76,370.864s-1.4,1.694-4.309,4.772c-.721.761-1.969,1.814-1.969,1.814a5.322,5.322,0,0,0-.236-2.755,27.563,27.563,0,0,1,6.515-3.832" transform="translate(-243.337 -322.021)" fill="#1d2238"/>
          <path id="Trazado_751326" data-name="Trazado 751326" d="M351.39,360.023a3.862,3.862,0,0,0,3.182,1.735s-3.652,1.2-5.076-1.339Z" transform="translate(-303.468 -312.608)" fill="#1d2238"/>
          <path id="Trazado_751327" data-name="Trazado 751327" d="M258.421,405.8l-.539,3.181-1.657-4.782,2.78-1.8Z" transform="translate(-222.48 -349.405)" fill="#1d2238"/>
          <path id="Trazado_751328" data-name="Trazado 751328" d="M260.022,398.371a1.656,1.656,0,1,0,1.619-2,1.842,1.842,0,0,0-1.619,2" transform="translate(-225.777 -344.166)" fill="#eb9481"/>
          <path id="Trazado_751329" data-name="Trazado 751329" d="M267.791,403.581a1.219,1.219,0,0,0-.438-.251.6.6,0,0,0-.2-.03.542.542,0,0,0-.178.028.8.8,0,0,0-.465.5,1.114,1.114,0,0,0-.057.186c0,.033-.014.065-.017.1l-.005.05,0,.036c0,.011,0,.008,0,.012s-.005-.007-.015-.023a.162.162,0,0,0-.1-.066c-.048,0,.027.021.094.012.145-.017.329-.056.514-.085a1.265,1.265,0,0,1,.587.024l.006,0a.02.02,0,0,1,.012.026.02.02,0,0,1-.018.013,1.588,1.588,0,0,0-.508.141c-.166.065-.33.14-.507.192a.545.545,0,0,1-.284.022.2.2,0,0,1-.124-.1.337.337,0,0,1-.038-.144,1.356,1.356,0,0,1,.088-.545,1.146,1.146,0,0,1,.313-.454.864.864,0,0,1,.506-.219.822.822,0,0,1,.53.143,1.075,1.075,0,0,1,.352.417.02.02,0,0,1-.03.024Z" transform="translate(-231 -349.924)" fill="#1d2238"/>
          <path id="Trazado_751330" data-name="Trazado 751330" d="M341.149,332.56s4.859-6.511,10.731-4.937-2.264,6.611-2.264,6.611-2.263-3.813-8.466-1.674" transform="translate(-296.22 -284.262)" fill="#f1f2f5"/>
          <path id="Trazado_751331" data-name="Trazado 751331" d="M285.219,314.377c.055.286-.556.645-1.366.8s-1.511.051-1.566-.235.556-.645,1.366-.8,1.511-.051,1.566.235" transform="translate(-245.107 -272.706)" fill="#1d2238"/>
          <path id="Trazado_751332" data-name="Trazado 751332" d="M306.966,471.553a17.185,17.185,0,0,1-3.621-2.852,5.826,5.826,0,0,0,3.5,3.631Z" transform="translate(-263.395 -406.973)" fill="#1d2238"/>
          <path id="Trazado_751333" data-name="Trazado 751333" d="M359.178,1474.128l12.307,5.366a4.952,4.952,0,0,1,2.972,4.632l-26.759-.058,1.424-9.962Z" transform="translate(-301.908 -1279.968)" fill="#4a4e60"/>
          <path id="Trazado_751334" data-name="Trazado 751334" d="M347.728,1534.5c2.2.127,4.408.2,6.612.245,1.1.03,2.2.038,3.306.057l3.306.023,3.307-.008c1.1-.014,2.2-.017,3.307-.042,2.2-.039,4.409-.1,6.614-.217-2.2-.128-4.408-.2-6.612-.245-1.1-.03-2.2-.037-3.306-.056l-3.306-.023-3.307.009c-1.1.014-2.2.017-3.307.042-2.2.039-4.409.1-6.614.216" transform="translate(-301.933 -1332.18)" fill="#1d2238"/>
          <path id="Trazado_751335" data-name="Trazado 751335" d="M372.183,1490.234a2.43,2.43,0,1,0,2.435-2.425,2.43,2.43,0,0,0-2.435,2.425" transform="translate(-323.167 -1291.866)" fill="#1d2238"/>
          <path id="Trazado_751336" data-name="Trazado 751336" d="M498.846,1506.908a1.635,1.635,0,0,0-.909-.086,2.146,2.146,0,0,0-.808.321,2.046,2.046,0,0,0-.621.638,1.42,1.42,0,0,0-.211.907l.051.029a3.212,3.212,0,0,1,.232-.313c.042-.049.08-.1.125-.149l.136-.139a3.967,3.967,0,0,1,.612-.479,5.258,5.258,0,0,1,.679-.384q.177-.083.36-.154c.12-.051.244-.1.367-.135Z" transform="translate(-430.928 -1308.352)" fill="#1d2238"/>
          <path id="Trazado_751337" data-name="Trazado 751337" d="M475,1496.73a1.636,1.636,0,0,0-.909-.086,2.147,2.147,0,0,0-.808.321,2.044,2.044,0,0,0-.621.639,1.421,1.421,0,0,0-.211.907l.051.03a3.2,3.2,0,0,1,.232-.313c.042-.049.08-.1.125-.149l.136-.139a3.958,3.958,0,0,1,.612-.479,5.3,5.3,0,0,1,.679-.384q.177-.083.36-.154c.12-.051.243-.1.367-.135Z" transform="translate(-410.219 -1299.514)" fill="#1d2238"/>
          <path id="Trazado_751338" data-name="Trazado 751338" d="M452.925,1487.493a1.635,1.635,0,0,0-.909-.086,2.144,2.144,0,0,0-.808.321,2.043,2.043,0,0,0-.621.638,1.42,1.42,0,0,0-.211.907l.051.03a3.2,3.2,0,0,1,.232-.313c.042-.049.08-.1.125-.149l.136-.139a3.979,3.979,0,0,1,.612-.479,5.284,5.284,0,0,1,.679-.384q.177-.083.36-.154c.12-.051.244-.1.367-.135Z" transform="translate(-391.054 -1291.494)" fill="#1d2238"/>
          <path id="Trazado_751339" data-name="Trazado 751339" d="M237.4,1474.128l12.307,5.366a4.952,4.952,0,0,1,2.972,4.632l-26.759-.058,1.424-9.962Z" transform="translate(-196.165 -1279.968)" fill="#9ea9bd"/>
          <path id="Trazado_751340" data-name="Trazado 751340" d="M225.947,1534.5c2.2.127,4.408.2,6.612.245,1.1.03,2.2.038,3.306.057l3.306.023,3.307-.008c1.1-.014,2.2-.017,3.307-.042,2.2-.039,4.409-.1,6.614-.217-2.2-.128-4.408-.2-6.613-.245-1.1-.03-2.2-.037-3.306-.056l-3.306-.023-3.307.009c-1.1.014-2.2.017-3.307.042-2.2.039-4.409.1-6.614.216" transform="translate(-196.19 -1332.18)" fill="#1d2238"/>
          <path id="Trazado_751341" data-name="Trazado 751341" d="M250.4,1490.234a2.43,2.43,0,1,0,2.435-2.425,2.43,2.43,0,0,0-2.435,2.425" transform="translate(-217.424 -1291.866)" fill="#1d2238"/>
          <path id="Trazado_751342" data-name="Trazado 751342" d="M377.065,1506.908a1.635,1.635,0,0,0-.909-.086,2.146,2.146,0,0,0-.808.321,2.046,2.046,0,0,0-.621.638,1.42,1.42,0,0,0-.211.907l.051.029a3.212,3.212,0,0,1,.232-.313c.042-.049.08-.1.125-.149l.136-.139a3.967,3.967,0,0,1,.612-.479,5.268,5.268,0,0,1,.679-.384q.177-.083.36-.154c.12-.051.243-.1.367-.135Z" transform="translate(-325.185 -1308.352)" fill="#1d2238"/>
          <path id="Trazado_751343" data-name="Trazado 751343" d="M353.216,1496.73a1.636,1.636,0,0,0-.909-.086,2.147,2.147,0,0,0-.808.321,2.044,2.044,0,0,0-.621.639,1.42,1.42,0,0,0-.211.907l.051.03a3.2,3.2,0,0,1,.232-.313c.042-.049.08-.1.125-.149l.136-.139a3.958,3.958,0,0,1,.612-.479,5.3,5.3,0,0,1,.679-.384q.177-.083.36-.154c.12-.051.244-.1.367-.135Z" transform="translate(-304.476 -1299.514)" fill="#1d2238"/>
          <path id="Trazado_751344" data-name="Trazado 751344" d="M331.144,1487.493a1.635,1.635,0,0,0-.909-.086,2.144,2.144,0,0,0-.808.321,2.043,2.043,0,0,0-.621.638,1.42,1.42,0,0,0-.211.907l.051.03a3.2,3.2,0,0,1,.232-.313c.042-.049.08-.1.125-.149l.136-.139a3.979,3.979,0,0,1,.612-.479,5.284,5.284,0,0,1,.679-.384q.177-.083.36-.154c.12-.051.244-.1.367-.135Z" transform="translate(-285.312 -1291.494)" fill="#1d2238"/>
          <path id="Trazado_751345" data-name="Trazado 751345" d="M205.471,928.129l-2.4-49.349a29.856,29.856,0,0,0-.491-4.13l-5.106-26.821-30.951-2.42s-3.04,12.364,3.189,24.265l3.207,58.847,16.518-.105,0-.185Z" transform="translate(-143.945 -734.069)" fill="#1d2238"/>
          <path id="Trazado_751346" data-name="Trazado 751346" d="M326.25,876.053l.211,2.462.2,2.463.392,4.927.72,9.858.18,2.465.164,2.466.325,4.932.649,9.863.036.617c.011.206,0,.412,0,.618l0,1.236-.008,2.471-.017,4.942-.017,4.942-.011,2.471-.026,2.471-.1,9.884-.084,4.942-.043,2.471-.057,2.47h-.044l-.011-19.761-.006-9.881,0-4.94v-3.705c0-.206.006-.412-.006-.617l-.039-.616-2.438-39.447Z" transform="translate(-283.245 -760.677)" fill="#4a4e60"/>
          <path id="Trazado_751347" data-name="Trazado 751347" d="M215.576,520.44l-4.242-6.6-9.8,2.652-2.564-17.559c-.025-.189-.048-.348-.069-.474-.641-3.863-7.475-10.582-7.475-10.582l-1.509,1.554-7.025-3.8a25.866,25.866,0,0,0-9.426,6.9c-3.587,4.553-2.7,40.483-2.7,40.483s7.252,5.877,12.5,6.842,19.015-2.807,19.015-2.807-.238-3.015-.589-7.367Z" transform="translate(-148.194 -421.667)" fill="#91b3fa"/>
          <path id="Trazado_751348" data-name="Trazado 751348" d="M259.226,489.429l-3.309,2.84a1.448,1.448,0,0,1-1.879.009c-1.528-1.294-4.239-3.956-3.386-5.927l1.549-.727Z" transform="translate(-217.501 -421.667)" fill="#fff"/>
          <path id="Trazado_751349" data-name="Trazado 751349" d="M316.823,504.266l1.634,1.762a.96.96,0,0,0,1.542-.184l.48-.858-2.147-2.275Z" transform="translate(-275.098 -436.505)" fill="#fff"/>
          <path id="Trazado_751350" data-name="Trazado 751350" d="M173.518,542.532l6.107,17.458,19-9.618,3.006,7.371-16.9,13.989A10.213,10.213,0,0,1,170,569.944c-2.861-3.863-6.486-9.156-6.853-11.635-.615-4.152-3.749-12.065,2.651-20.292Z" transform="translate(-140.528 -467.16)" fill="#91b3fa"/>
          <path id="Trazado_751351" data-name="Trazado 751351" d="M269.189,583.391q-1.543.859-3.1,1.692c-1.035.559-2.075,1.108-3.115,1.658s-2.081,1.1-3.128,1.633-2.088,1.083-3.137,1.614l-.3.15-.068-.328c-.157-.754-.329-1.51-.507-2.262s-.356-1.506-.547-2.255c-.384-1.5-.782-2.993-1.23-4.473s-.925-2.951-1.484-4.391c-.282-.719-.58-1.432-.92-2.126a13.2,13.2,0,0,0-1.169-2,11.826,11.826,0,0,1,1.317,1.923c.378.681.726,1.38,1.037,2.093.631,1.424,1.161,2.89,1.647,4.368s.913,2.974,1.3,4.479.747,3.016,1.057,4.544l-.366-.178c1.049-.53,2.106-1.048,3.159-1.57s2.113-1.034,3.169-1.551,2.118-1.024,3.182-1.526,2.128-1,3.2-1.493" transform="translate(-217.5 -496.93)" fill="#1d2238"/>
          <path id="Trazado_751352" data-name="Trazado 751352" d="M171.777,692.095l.633,1.146.626,1.149q.627,1.148,1.264,2.291c.422.763.847,1.524,1.281,2.279l.653,1.132q.329.569.647,1.141a23.213,23.213,0,0,0,2.843,4.314,8.78,8.78,0,0,0,.92.874c.16.139.334.255.5.379s.353.228.54.324a7.5,7.5,0,0,0,2.386.8,11.016,11.016,0,0,0,5.048-.429,12.992,12.992,0,0,0,2.363-1q.563-.31,1.092-.673c.352-.243.682-.511,1.024-.788q2.033-1.648,4.081-3.278l2.054-1.622,1.027-.811,1.033-.8-.983.865-.989.857-1.978,1.714q-1.987,1.7-3.983,3.4c-.33.28-.67.57-1.031.832a13.005,13.005,0,0,1-1.124.716,13.467,13.467,0,0,1-2.437,1.068,12.6,12.6,0,0,1-2.609.546,10.38,10.38,0,0,1-2.676-.074,8.018,8.018,0,0,1-2.547-.87c-.2-.1-.389-.23-.58-.351s-.37-.261-.54-.409a8.521,8.521,0,0,1-.968-.934,15.025,15.025,0,0,1-1.554-2.154c-.459-.752-.871-1.526-1.278-2.3q-.306-.579-.617-1.15c-.21-.383-.42-.766-.624-1.152q-.614-1.158-1.207-2.325t-1.161-2.347l-.573-1.177Z" transform="translate(-149.154 -600.946)" fill="#1d2238"/>
          <path id="Trazado_751353" data-name="Trazado 751353" d="M278.448,706.816c-.047-.158-.084-.318-.119-.48a3.409,3.409,0,0,1-.083-.49,5.946,5.946,0,0,1-.026-.995,6.432,6.432,0,0,1,.409-1.958,6.332,6.332,0,0,1,.983-1.745,4.7,4.7,0,0,1,1.5-1.291,17.162,17.162,0,0,0-.986,1.633,13.552,13.552,0,0,0-.762,1.681,13.764,13.764,0,0,0-.535,1.767c-.087.3-.128.61-.2.922s-.1.63-.185.956" transform="translate(-241.569 -607.686)" fill="#1d2238"/>
          <path id="Trazado_751354" data-name="Trazado 751354" d="M423.514,585.265l-7.841-3.277a.727.727,0,0,1-.214-1.2l20.227-18.735a.727.727,0,0,1,1.144.206l4.281,8.494a.774.774,0,0,1-.2.947l-16.388,13.422a.989.989,0,0,1-1.008.147" transform="translate(-360.541 -487.858)" fill="#4a4e60"/>
          <path id="Trazado_751355" data-name="Trazado 751355" d="M399.248,738.7c-.128-.805-.232-1.612-.325-2.42q-.073-.606-.133-1.212c-.043-.4-.084-.808-.118-1.213-.077-.809-.139-1.619-.2-2.429-.034-.4-.054-.811-.082-1.216s-.055-.811-.073-1.216l-.007-.159.129-.07c.4-.216.793-.437,1.193-.65s.8-.428,1.2-.634.806-.415,1.213-.616.815-.4,1.227-.59q-.559.39-1.13.761c-.379.25-.761.493-1.144.735s-.77.478-1.155.717-.776.467-1.164.7l.122-.229c.039.4.067.81.1,1.215s.066.81.09,1.215c.053.811.106,1.621.143,2.433.023.406.039.812.054,1.218s.031.812.039,1.219c.022.813.032,1.627.019,2.442" transform="translate(-345.853 -630.628)" fill="#1d2238"/>
          <path id="Trazado_751356" data-name="Trazado 751356" d="M505.415,662.761c-.031-.2-.087-.4-.136-.6-.1-.406-.2-.813-.3-1.219l-.413-1.7a1.072,1.072,0,0,0-2.084.507l.039.162a1.072,1.072,0,0,0-1.736,1.07q.065.268.131.535a.326.326,0,0,0-.124-.134.848.848,0,0,0-1.151.2,1.185,1.185,0,0,0-.075.736c.084,1.139.248,2.278.373,3.413l-2.086,1.94.477.744c.431-.149.829-.233,1.26-.382.572-.2,1.16-.357,1.714-.6a4.935,4.935,0,0,0,1.188-.789,17.552,17.552,0,0,0,1.936-1.991c.276-.323.547-.651.8-.99a1.132,1.132,0,0,0,.178-.9" transform="translate(-432.29 -571.713)" fill="#eb9481"/>
          <path id="Trazado_751357" data-name="Trazado 751357" d="M511.357,713.9a2.165,2.165,0,0,0,.207,1.56s-.775-.18-.5-1.283Z" transform="translate(-443.704 -619.877)" fill="#1d2238"/>
          <path id="Trazado_751358" data-name="Trazado 751358" d="M533.3,669.725a1.9,1.9,0,0,1,.641.929c.116.361.207.726.3,1.091s.176.732.252,1.1l.113.553c.033.186.07.37.1.557-.058-.18-.107-.361-.161-.542l-.149-.545c-.1-.363-.19-.728-.282-1.093l-.269-1.094a1.876,1.876,0,0,0-.209-.51,2.259,2.259,0,0,0-.336-.447" transform="translate(-463.065 -581.523)" fill="#1d2238"/>
          <path id="Trazado_751359" data-name="Trazado 751359" d="M521.112,681.926a1.412,1.412,0,0,1,.631.778c.1.324.164.651.235.978s.13.656.184.986l.078.5c.021.166.047.331.063.5-.046-.161-.084-.324-.127-.486l-.114-.488c-.077-.325-.144-.652-.213-.979s-.132-.655-.2-.978a1.133,1.133,0,0,0-.2-.437,1.99,1.99,0,0,0-.333-.367" transform="translate(-452.482 -592.117)" fill="#1d2238"/>
          <path id="Trazado_751360" data-name="Trazado 751360" d="M425.866,587.643c.777-.761,1.568-1.506,2.354-2.257s1.58-1.493,2.372-2.237l2.389-2.218,2.4-2.2c1.609-1.461,3.217-2.923,4.839-4.369l1.214-1.087,1.22-1.081q1.219-1.082,2.446-2.155l.2-.172.115.228.927,1.84.918,1.845.906,1.851q.456.924.9,1.856-.514-.894-1.016-1.794l-1.007-1.8-.994-1.8-.985-1.81.312.056q-1.193,1.111-2.4,2.21l-1.2,1.1-1.207,1.095c-1.607,1.463-3.227,2.911-4.847,4.36l-2.441,2.161-2.454,2.146c-.822.711-1.641,1.425-2.471,2.128s-1.651,1.414-2.488,2.108" transform="translate(-369.78 -494.813)" fill="#1d2238"/>
        </g>
      </g>
    </g>
  </g>
</svg>
