<svg xmlns="http://www.w3.org/2000/svg" xmlns:xlink="http://www.w3.org/1999/xlink" width="166" height="166" viewBox="0 0 166 166">
  <defs>
    <clipPath id="clip-path">
      <rect id="Rectángulo_360249" data-name="Rectángulo 360249" width="138.031" height="111.687" fill="none"/>
    </clipPath>
    <clipPath id="clip-path-3">
      <rect id="Rectángulo_360140" data-name="Rectángulo 360140" width="4.377" height="10.805" fill="none"/>
    </clipPath>
    <clipPath id="clip-path-6">
      <rect id="Rectángulo_360164" data-name="Rectángulo 360164" width="4.405" height="10.873" fill="none"/>
    </clipPath>
    <clipPath id="clip-path-7">
      <rect id="Rectángulo_360166" data-name="Rectángulo 360166" width="4.406" height="10.873" fill="none"/>
    </clipPath>
    <clipPath id="clip-path-10">
      <rect id="Rectángulo_360190" data-name="Rectángulo 360190" width="4.376" height="10.805" fill="none"/>
    </clipPath>
  </defs>
  <g id="Grupo_1017664" data-name="Grupo 1017664" transform="translate(-1131 -9375)">
    <circle id="Elipse_8445" data-name="Elipse 8445" cx="83" cy="83" r="83" transform="translate(1131 9375)" fill="#fff" opacity="0.45"/>
    <circle id="Elipse_8446" data-name="Elipse 8446" cx="67" cy="67" r="67" transform="translate(1147 9391)" fill="#fff"/>
    <g id="Grupo_1023289" data-name="Grupo 1023289" transform="translate(1144.985 9409.731)">
      <g id="Grupo_1023288" data-name="Grupo 1023288" clip-path="url(#clip-path)">
        <rect id="Rectángulo_360120" data-name="Rectángulo 360120" width="39.838" height="65.726" transform="translate(54.417 10.777)" fill="#d7ba76"/>
        <rect id="Rectángulo_360121" data-name="Rectángulo 360121" width="17.103" height="7.696" transform="translate(56.177 67.092)" fill="#fcf7ea"/>
        <rect id="Rectángulo_360122" data-name="Rectángulo 360122" width="1.011" height="6.558" transform="translate(57.101 67.661)" fill="#354546"/>
        <rect id="Rectángulo_360123" data-name="Rectángulo 360123" width="0.34" height="6.558" transform="translate(58.728 67.661)" fill="#354546"/>
        <rect id="Rectángulo_360124" data-name="Rectángulo 360124" width="0.34" height="6.558" transform="translate(69.816 67.661)" fill="#354546"/>
        <rect id="Rectángulo_360125" data-name="Rectángulo 360125" width="1.013" height="6.558" transform="translate(60.356 67.661)" fill="#354546"/>
        <rect id="Rectángulo_360126" data-name="Rectángulo 360126" width="0.506" height="6.558" transform="translate(61.984 67.661)" fill="#354546"/>
        <rect id="Rectángulo_360127" data-name="Rectángulo 360127" width="0.507" height="6.558" transform="translate(59.497 67.661)" fill="#354546"/>
        <rect id="Rectángulo_360128" data-name="Rectángulo 360128" width="1.692" height="6.558" transform="translate(62.931 67.661)" fill="#354546"/>
        <rect id="Rectángulo_360129" data-name="Rectángulo 360129" width="1.012" height="6.558" transform="translate(68.469 67.661)" fill="#354546"/>
        <rect id="Rectángulo_360130" data-name="Rectángulo 360130" width="1.013" height="6.558" transform="translate(66.157 67.661)" fill="#354546"/>
        <rect id="Rectángulo_360131" data-name="Rectángulo 360131" width="0.507" height="6.558" transform="translate(65.239 67.661)" fill="#354546"/>
        <rect id="Rectángulo_360132" data-name="Rectángulo 360132" width="0.506" height="6.558" transform="translate(67.492 67.661)" fill="#354546"/>
        <rect id="Rectángulo_360133" data-name="Rectángulo 360133" width="1.668" height="6.558" transform="translate(70.405 67.661)" fill="#354546"/>
        <rect id="Rectángulo_360134" data-name="Rectángulo 360134" width="1.244" height="65.726" transform="translate(74.336 10.777)" fill="#b59d63"/>
        <rect id="Rectángulo_360135" data-name="Rectángulo 360135" width="39.838" height="5.631" transform="translate(54.417 10.778)" fill="#b59d63"/>
        <rect id="Rectángulo_360136" data-name="Rectángulo 360136" width="1.059" height="4.248" transform="translate(79.922 68.836)" fill="#b59d63"/>
        <path id="Trazado_755190" data-name="Trazado 755190" d="M68.6,60.637l1.584-2.743,1.584,2.743Z" transform="translate(10.265 8.663)" fill="#b59d63"/>
        <rect id="Rectángulo_360137" data-name="Rectángulo 360137" width="1.06" height="4.248" transform="translate(83.424 68.836)" fill="#b59d63"/>
        <path id="Trazado_755191" data-name="Trazado 755191" d="M71.649,60.637l1.584-2.743,1.583,2.743Z" transform="translate(10.721 8.663)" fill="#b59d63"/>
        <rect id="Rectángulo_360138" data-name="Rectángulo 360138" width="6.67" height="0.666" transform="translate(78.867 73.553)" fill="#b59d63"/>
        <g id="Grupo_1023271" data-name="Grupo 1023271" transform="translate(0 0)">
          <g id="Grupo_1023270" data-name="Grupo 1023270" clip-path="url(#clip-path)">
            <g id="Grupo_1023266" data-name="Grupo 1023266" transform="translate(60.862 10.777)" style="mix-blend-mode: multiply;isolation: isolate">
              <g id="Grupo_1023265" data-name="Grupo 1023265">
                <g id="Grupo_1023264" data-name="Grupo 1023264" clip-path="url(#clip-path-3)">
                  <rect id="Rectángulo_360139" data-name="Rectángulo 360139" width="4.378" height="10.804" transform="translate(0 0)" fill="#b59d63"/>
                </g>
              </g>
            </g>
            <g id="Grupo_1023269" data-name="Grupo 1023269" transform="translate(82.616 10.777)" style="mix-blend-mode: multiply;isolation: isolate">
              <g id="Grupo_1023268" data-name="Grupo 1023268">
                <g id="Grupo_1023267" data-name="Grupo 1023267" clip-path="url(#clip-path-3)">
                  <rect id="Rectángulo_360141" data-name="Rectángulo 360141" width="4.378" height="10.804" transform="translate(0 0)" fill="#b59d63"/>
                </g>
              </g>
            </g>
          </g>
        </g>
        <rect id="Rectángulo_360144" data-name="Rectángulo 360144" width="40.091" height="21.131" transform="translate(5.988 10.763)" fill="#d7ba76"/>
        <rect id="Rectángulo_360145" data-name="Rectángulo 360145" width="17.212" height="7.745" transform="translate(7.759 22.423)" fill="#fcf7ea"/>
        <rect id="Rectángulo_360146" data-name="Rectángulo 360146" width="1.019" height="6.599" transform="translate(8.688 22.997)" fill="#354546"/>
        <rect id="Rectángulo_360147" data-name="Rectángulo 360147" width="0.343" height="6.599" transform="translate(10.326 22.997)" fill="#354546"/>
        <rect id="Rectángulo_360148" data-name="Rectángulo 360148" width="0.343" height="6.599" transform="translate(21.485 22.997)" fill="#354546"/>
        <rect id="Rectángulo_360149" data-name="Rectángulo 360149" width="1.019" height="6.599" transform="translate(11.965 22.997)" fill="#354546"/>
        <rect id="Rectángulo_360150" data-name="Rectángulo 360150" width="0.509" height="6.599" transform="translate(13.602 22.997)" fill="#354546"/>
        <rect id="Rectángulo_360151" data-name="Rectángulo 360151" width="0.51" height="6.599" transform="translate(11.1 22.997)" fill="#354546"/>
        <rect id="Rectángulo_360152" data-name="Rectángulo 360152" width="1.701" height="6.599" transform="translate(14.558 22.997)" fill="#354546"/>
        <rect id="Rectángulo_360153" data-name="Rectángulo 360153" width="1.019" height="6.599" transform="translate(20.129 22.997)" fill="#354546"/>
        <rect id="Rectángulo_360154" data-name="Rectángulo 360154" width="1.019" height="6.599" transform="translate(17.802 22.997)" fill="#354546"/>
        <rect id="Rectángulo_360155" data-name="Rectángulo 360155" width="0.509" height="6.599" transform="translate(16.88 22.997)" fill="#354546"/>
        <rect id="Rectángulo_360156" data-name="Rectángulo 360156" width="0.509" height="6.599" transform="translate(19.146 22.997)" fill="#354546"/>
        <rect id="Rectángulo_360157" data-name="Rectángulo 360157" width="1.678" height="6.599" transform="translate(22.078 22.997)" fill="#354546"/>
        <rect id="Rectángulo_360158" data-name="Rectángulo 360158" width="1.253" height="21.131" transform="translate(26.033 10.763)" fill="#b59d63"/>
        <rect id="Rectángulo_360159" data-name="Rectángulo 360159" width="40.091" height="5.668" transform="translate(5.988 10.763)" fill="#b59d63"/>
        <rect id="Rectángulo_360160" data-name="Rectángulo 360160" width="1.065" height="4.273" transform="translate(31.656 24.18)" fill="#b59d63"/>
        <path id="Trazado_755192" data-name="Trazado 755192" d="M26.612,21.8l1.593-2.76L29.8,21.8Z" transform="translate(3.982 2.848)" fill="#b59d63"/>
        <rect id="Rectángulo_360161" data-name="Rectángulo 360161" width="1.065" height="4.273" transform="translate(35.181 24.18)" fill="#b59d63"/>
        <path id="Trazado_755193" data-name="Trazado 755193" d="M29.679,21.8l1.595-2.76,1.593,2.76Z" transform="translate(4.441 2.848)" fill="#b59d63"/>
        <rect id="Rectángulo_360162" data-name="Rectángulo 360162" width="6.713" height="0.669" transform="translate(30.594 28.926)" fill="#b59d63"/>
        <g id="Grupo_1023279" data-name="Grupo 1023279" transform="translate(0 0)">
          <g id="Grupo_1023278" data-name="Grupo 1023278" clip-path="url(#clip-path)">
            <g id="Grupo_1023274" data-name="Grupo 1023274" transform="translate(12.474 10.763)" style="mix-blend-mode: multiply;isolation: isolate">
              <g id="Grupo_1023273" data-name="Grupo 1023273">
                <g id="Grupo_1023272" data-name="Grupo 1023272" clip-path="url(#clip-path-6)">
                  <rect id="Rectángulo_360163" data-name="Rectángulo 360163" width="4.405" height="10.873" transform="translate(0 0)" fill="#b59d63"/>
                </g>
              </g>
            </g>
            <g id="Grupo_1023277" data-name="Grupo 1023277" transform="translate(34.367 10.763)" style="mix-blend-mode: multiply;isolation: isolate">
              <g id="Grupo_1023276" data-name="Grupo 1023276">
                <g id="Grupo_1023275" data-name="Grupo 1023275" clip-path="url(#clip-path-7)">
                  <rect id="Rectángulo_360165" data-name="Rectángulo 360165" width="4.405" height="10.873" transform="translate(0.001 0)" fill="#b59d63"/>
                </g>
              </g>
            </g>
          </g>
        </g>
        <rect id="Rectángulo_360168" data-name="Rectángulo 360168" width="39.838" height="44.607" transform="translate(0 32.559)" fill="#d7ba76"/>
        <rect id="Rectángulo_360169" data-name="Rectángulo 360169" width="17.104" height="7.696" transform="translate(1.759 67.755)" fill="#fcf7ea"/>
        <rect id="Rectángulo_360170" data-name="Rectángulo 360170" width="1.013" height="6.558" transform="translate(2.683 68.324)" fill="#354546"/>
        <rect id="Rectángulo_360171" data-name="Rectángulo 360171" width="0.339" height="6.558" transform="translate(4.311 68.324)" fill="#354546"/>
        <rect id="Rectángulo_360172" data-name="Rectángulo 360172" width="0.339" height="6.558" transform="translate(15.4 68.324)" fill="#354546"/>
        <rect id="Rectángulo_360173" data-name="Rectángulo 360173" width="1.012" height="6.558" transform="translate(5.939 68.324)" fill="#354546"/>
        <rect id="Rectángulo_360174" data-name="Rectángulo 360174" width="0.507" height="6.558" transform="translate(7.567 68.324)" fill="#354546"/>
        <rect id="Rectángulo_360175" data-name="Rectángulo 360175" width="0.505" height="6.558" transform="translate(5.08 68.324)" fill="#354546"/>
        <rect id="Rectángulo_360176" data-name="Rectángulo 360176" width="1.692" height="6.558" transform="translate(8.514 68.324)" fill="#354546"/>
        <rect id="Rectángulo_360177" data-name="Rectángulo 360177" width="1.011" height="6.558" transform="translate(14.052 68.324)" fill="#354546"/>
        <rect id="Rectángulo_360178" data-name="Rectángulo 360178" width="1.011" height="6.558" transform="translate(11.74 68.324)" fill="#354546"/>
        <rect id="Rectángulo_360179" data-name="Rectángulo 360179" width="0.505" height="6.558" transform="translate(10.823 68.324)" fill="#354546"/>
        <rect id="Rectángulo_360180" data-name="Rectángulo 360180" width="0.506" height="6.558" transform="translate(13.075 68.324)" fill="#354546"/>
        <rect id="Rectángulo_360181" data-name="Rectángulo 360181" width="1.668" height="6.558" transform="translate(15.987 68.324)" fill="#354546"/>
        <rect id="Rectángulo_360182" data-name="Rectángulo 360182" width="1.245" height="44.607" transform="translate(19.919 32.56)" fill="#b59d63"/>
        <rect id="Rectángulo_360183" data-name="Rectángulo 360183" width="39.838" height="5.632" transform="translate(0 32.559)" fill="#b59d63"/>
        <rect id="Rectángulo_360184" data-name="Rectángulo 360184" width="1.059" height="4.248" transform="translate(25.505 69.499)" fill="#b59d63"/>
        <path id="Trazado_755194" data-name="Trazado 755194" d="M21.268,61.214l1.584-2.743,1.584,2.743Z" transform="translate(3.182 8.749)" fill="#b59d63"/>
        <rect id="Rectángulo_360185" data-name="Rectángulo 360185" width="1.059" height="4.248" transform="translate(29.008 69.499)" fill="#b59d63"/>
        <path id="Trazado_755195" data-name="Trazado 755195" d="M24.315,61.214,25.9,58.471l1.584,2.743Z" transform="translate(3.638 8.749)" fill="#b59d63"/>
        <rect id="Rectángulo_360186" data-name="Rectángulo 360186" width="6.67" height="0.664" transform="translate(24.45 74.217)" fill="#b59d63"/>
        <g id="Grupo_1023287" data-name="Grupo 1023287" transform="translate(0 0)">
          <g id="Grupo_1023286" data-name="Grupo 1023286" clip-path="url(#clip-path)">
            <g id="Grupo_1023282" data-name="Grupo 1023282" transform="translate(6.445 32.56)" style="mix-blend-mode: multiply;isolation: isolate">
              <g id="Grupo_1023281" data-name="Grupo 1023281">
                <g id="Grupo_1023280" data-name="Grupo 1023280" clip-path="url(#clip-path-3)">
                  <rect id="Rectángulo_360187" data-name="Rectángulo 360187" width="4.378" height="10.804" transform="translate(0 0)" fill="#b59d63"/>
                </g>
              </g>
            </g>
            <g id="Grupo_1023285" data-name="Grupo 1023285" transform="translate(28.2 32.56)" style="mix-blend-mode: multiply;isolation: isolate">
              <g id="Grupo_1023284" data-name="Grupo 1023284">
                <g id="Grupo_1023283" data-name="Grupo 1023283" clip-path="url(#clip-path-10)">
                  <rect id="Rectángulo_360189" data-name="Rectángulo 360189" width="4.377" height="10.804" transform="translate(0 0)" fill="#b59d63"/>
                </g>
              </g>
            </g>
            <path id="Trazado_755196" data-name="Trazado 755196" d="M12.42,66.808c.02,0,.038.017.056.017,11.1,2.848,20.89,5.506,28.541,7.547,1.33.338,2.606.678,3.806.984l.112,4.449c-1.231-.082-2.5-.2-3.789-.333A177.024,177.024,0,0,1,13.9,73.867Z" transform="translate(1.858 9.996)" fill="#eab99a"/>
            <path id="Trazado_755197" data-name="Trazado 755197" d="M74.858,66.808c-.018,0-.037.017-.056.017-11.1,2.848-20.889,5.506-28.54,7.547-1.331.338-2.607.678-3.806.984l-.112,4.449c1.23-.082,2.5-.2,3.789-.333a177.051,177.051,0,0,0,27.243-5.606Z" transform="translate(6.336 9.996)" fill="#eab99a"/>
            <path id="Trazado_755198" data-name="Trazado 755198" d="M62.816,22.422c0,12.383-19.074,42.656-19.074,42.656s-18.4-30.273-18.4-42.656S33.731,0,44.078,0,62.816,10.04,62.816,22.422" transform="translate(3.792 0)" fill="#7d4c2e"/>
            <path id="Trazado_755199" data-name="Trazado 755199" d="M30.675,45.269c-.131.394-1.557,4.431-3.509,9.672-.154.4-.307.812-.46,1.228-.571,1.514-1.163,3.094-1.777,4.717.022,0,0,.021,0,.021-.154.417-.329.833-.483,1.273-.483,1.228-.965,2.479-1.447,3.728l-.131.352c-1.251,3.2-1.12,6.338-1.361,9.014a3.865,3.865,0,0,1-3.881,3.487H17.6c-3.225-2.1-4.013-2-4.825-6.229a6.148,6.148,0,0,1-.285-2.654c2.829-11.426,5.132-17.261,9.717-27.635a1.534,1.534,0,0,1,.109-.307A4.422,4.422,0,0,1,27.364,39.7a2.057,2.057,0,0,1,.351.087,4.075,4.075,0,0,1,1.119.527,4.343,4.343,0,0,1,1.842,4.957" transform="translate(1.859 5.918)" fill="#eab99a"/>
            <path id="Trazado_755200" data-name="Trazado 755200" d="M72.72,72.531c-.812,4.234-1.58,4.124-4.825,6.229h-.023a3.867,3.867,0,0,1-3.882-3.487c-.241-2.675-.11-5.813-1.359-9.014l-.11-.352c-.482-1.25-.988-2.522-1.469-3.772-.965-2.5-1.887-4.957-2.7-7.194-1.951-5.241-3.378-9.278-3.509-9.672a4.362,4.362,0,0,1,1.82-4.956,4.3,4.3,0,0,1,1.12-.527,2.162,2.162,0,0,1,.372-.089,4.392,4.392,0,0,1,5.022,2.237c.044.109.089.2.132.307C67.872,52.616,70.175,58.45,73,69.876a6.164,6.164,0,0,1-.284,2.654" transform="translate(8.176 5.918)" fill="#eab99a"/>
            <path id="Trazado_755201" data-name="Trazado 755201" d="M65.119,56.178A5.947,5.947,0,0,1,66.962,60.3a5.407,5.407,0,0,1-.878,2.917,9.589,9.589,0,0,1-4.474,3.574.589.589,0,0,1-.153.09,9.209,9.209,0,0,1-1.162.437,1.974,1.974,0,0,1-.329.11.875.875,0,0,0-.067.22v.022A47.718,47.718,0,0,0,56.28,81.379H32.965A47.322,47.322,0,0,0,29.434,67.89a4.291,4.291,0,0,0-.176-.461,10.456,10.456,0,0,1-1.382-.5,14.127,14.127,0,0,1-2.346-1.274,8.449,8.449,0,0,1-2.369-2.39,5.572,5.572,0,0,1-.9-2.96A5.946,5.946,0,0,1,24.1,56.178L21.012,44.772c0-2.127,1.951-3.859,4.409-3.992H30.86a13.016,13.016,0,0,0,4.847-1.031,7.633,7.633,0,0,0,2.3-1.578,5.974,5.974,0,0,0,.768-.9,10.588,10.588,0,0,0,1.732-4.957h8.2a10.612,10.612,0,0,0,1.731,4.957,5.823,5.823,0,0,0,.746.9,7.786,7.786,0,0,0,2.325,1.578,13.022,13.022,0,0,0,4.848,1.031h5.154c2.588,0,4.693,1.8,4.693,3.992Z" transform="translate(3.144 4.835)" fill="#eab99a"/>
            <path id="Trazado_755202" data-name="Trazado 755202" d="M61.676,58.508A6.534,6.534,0,0,1,58.3,63.925a.575.575,0,0,1-.154.089,9.518,9.518,0,0,1-1.14.592,3.315,3.315,0,0,1-.417.175V64.8a12.141,12.141,0,0,1-4.167.723c-5.132,0-9.276-3.136-9.276-7.019,0-3.859,4.144-7.019,9.276-7.019a11.487,11.487,0,0,1,4.036.723c3.091,1.12,5.22,3.532,5.22,6.3" transform="translate(6.456 7.704)" fill="#f5c4a5"/>
            <path id="Trazado_755203" data-name="Trazado 755203" d="M41.814,58.508c0,3.882-4.166,7.019-9.276,7.019a11.665,11.665,0,0,1-3.443-.5,8.135,8.135,0,0,1-1.559-.592,8.99,8.99,0,0,1-2.346-1.645A6.26,6.26,0,0,1,23.3,59.121s.023-.021,0-.021a5.683,5.683,0,0,1-.021-.593,5.871,5.871,0,0,1,1.8-4.124,8.484,8.484,0,0,1,2.983-2.039,12.152,12.152,0,0,1,4.474-.855c5.11,0,9.276,3.159,9.276,7.019" transform="translate(3.484 7.704)" fill="#f5c4a5"/>
            <path id="Trazado_755204" data-name="Trazado 755204" d="M54.579,20.034c0,8.279-5.08,18.288-11.4,18.288a4.287,4.287,0,0,1-.866-.075C36.385,37.4,31.681,27.937,31.681,20.034c0-7.922,4.648-14.393,10.574-14.976.282-.02.564-.039.866-.039,6.322,0,11.458,6.717,11.458,15.015" transform="translate(4.741 0.751)" fill="#eab99a"/>
            <path id="Trazado_755205" data-name="Trazado 755205" d="M52.849,20.029c0,7.9-4.628,17.368-10.538,18.214C36.385,37.4,31.681,27.932,31.681,20.029a4.992,4.992,0,0,1,.038-.752c.187-5.514,2.653-10.255,6.191-12.607a9.435,9.435,0,0,1,3.18-1.412l.075-.018a.11.11,0,0,1,.075-.02,9.456,9.456,0,0,1,1.016-.168,9.266,9.266,0,0,1,2.144.489c4.309,1.542,7.6,6.266,8.3,12.136a19.458,19.458,0,0,1,.152,2.352" transform="translate(4.741 0.756)" fill="#f5c4a5"/>
            <path id="Trazado_755206" data-name="Trazado 755206" d="M30.614,9.409S32.8,14.584,42.133,16s11.216,5.645,12.157,8.467c0,0,5.174-12.231-2.667-16.935S34.063,1.57,30.614,9.409" transform="translate(4.581 0.562)" fill="#7d4c2e"/>
            <path id="Trazado_755207" data-name="Trazado 755207" d="M39.842,29.826c-8.4,0-8.973-7.928-8.976-8.009l1.094-.064a7.456,7.456,0,0,0,7.882,6.977Z" transform="translate(4.619 3.254)" fill="#606060"/>
            <path id="Trazado_755208" data-name="Trazado 755208" d="M31.46,25.092h0a.9.9,0,0,1-.9-.9v-3.16a.9.9,0,0,1,1.8,0v3.16a.9.9,0,0,1-.9.9" transform="translate(4.573 3.012)" fill="#606060"/>
            <path id="Trazado_755209" data-name="Trazado 755209" d="M41.292,28.255v.321a.74.74,0,0,1-.738.738H38.685a.74.74,0,0,1-.737-.738v-.321a.74.74,0,0,1,.737-.739h1.869a.741.741,0,0,1,.738.739" transform="translate(5.678 4.117)" fill="#404040"/>
            <path id="Trazado_755210" data-name="Trazado 755210" d="M67.217,62.251c.483,1.25.988,2.522,1.469,3.772l.11.352a15.533,15.533,0,0,1,.812,2.974,19.963,19.963,0,0,0,4.633-1.764c1.289-.73,2.442-1.646,3.659-2.467-2.317-8.431-4.559-13.973-8.423-22.76-.044-.11-.089-.2-.132-.307a4.394,4.394,0,0,0-5.023-2.237H59.5a13.022,13.022,0,0,1-4.848-1.031l-8.9,8.182L36.84,38.782a13.016,13.016,0,0,1-4.847,1.031H27.212a4.422,4.422,0,0,0-5.045,2.237,1.534,1.534,0,0,0-.109.307c-3.98,9.006-6.24,14.6-8.619,23.388,2.338,2.182,5.335,3.2,8.357,4.21a16.282,16.282,0,0,1,.92-3.581l.131-.352c.483-1.25.965-2.5,1.447-3.728a8.449,8.449,0,0,0,2.369,2.39,8.973,8.973,0,0,0,2.346,1.646,8.075,8.075,0,0,0,1.558.591A47.339,47.339,0,0,1,34.1,80.411H57.414A47.708,47.708,0,0,1,61.032,66.7v-.022a3.241,3.241,0,0,0,.416-.176,9.13,9.13,0,0,0,1.142-.592.553.553,0,0,0,.153-.089,9.589,9.589,0,0,0,4.474-3.574" transform="translate(2.011 5.803)" fill="#a0a0a0"/>
            <path id="Trazado_755211" data-name="Trazado 755211" d="M74.02,78.93H16.951a1.015,1.015,0,0,1,0-2.029H74.02a1.015,1.015,0,1,1,0,2.029" transform="translate(2.385 11.506)" fill="#303030"/>
            <path id="Trazado_755212" data-name="Trazado 755212" d="M70.336,54.633V80.686A2.039,2.039,0,0,1,68.3,82.718H21.069a2.04,2.04,0,0,1-2.033-2.033V54.633A2.04,2.04,0,0,1,21.069,52.6H68.3a2.039,2.039,0,0,1,2.033,2.033" transform="translate(2.848 7.87)" fill="#404040"/>
            <path id="Trazado_755213" data-name="Trazado 755213" d="M44.42,64.423A3.126,3.126,0,1,1,41.293,61.3a3.126,3.126,0,0,1,3.127,3.126" transform="translate(5.711 9.172)" fill="#909090"/>
            <path id="Trazado_755214" data-name="Trazado 755214" d="M122.082,86.5H96.051A1.854,1.854,0,0,1,94.2,84.643V48.253A1.855,1.855,0,0,1,96.051,46.4h26.031a1.854,1.854,0,0,1,1.853,1.854V84.643a1.853,1.853,0,0,1-1.853,1.853" transform="translate(14.095 6.942)" fill="#705412"/>
            <rect id="Rectángulo_360191" data-name="Rectángulo 360191" width="23.932" height="37.152" transform="translate(111.005 54.712)" fill="#fff"/>
            <path id="Trazado_755215" data-name="Trazado 755215" d="M110.971,49.056h-6.06a.8.8,0,0,1-.8-.8V46.666a.8.8,0,0,1,.8-.8h6.06a.8.8,0,0,1,.8.8v1.593a.8.8,0,0,1-.8.8" transform="translate(15.579 6.863)" fill="#505050"/>
            <path id="Trazado_755216" data-name="Trazado 755216" d="M101.416,53.434H97.975V49.992h3.441ZM98.5,52.905h2.385V50.521H98.5Z" transform="translate(14.66 7.48)" fill="silver"/>
            <path id="Trazado_755217" data-name="Trazado 755217" d="M101.416,57.539H97.975V54.1h3.441ZM98.5,57.01h2.385V54.625H98.5Z" transform="translate(14.66 8.094)" fill="silver"/>
            <path id="Trazado_755218" data-name="Trazado 755218" d="M101.416,61.643H97.975V58.2h3.441ZM98.5,61.114h2.385V58.73H98.5Z" transform="translate(14.66 8.708)" fill="silver"/>
            <path id="Trazado_755219" data-name="Trazado 755219" d="M101.416,65.747H97.975V62.306h3.441ZM98.5,65.218h2.385V62.834H98.5Z" transform="translate(14.66 9.323)" fill="silver"/>
            <path id="Trazado_755220" data-name="Trazado 755220" d="M101.416,69.852H97.975V66.41h3.441ZM98.5,69.324h2.385V66.939H98.5Z" transform="translate(14.66 9.937)" fill="silver"/>
            <path id="Trazado_755221" data-name="Trazado 755221" d="M101.416,73.956H97.975V70.514h3.441ZM98.5,73.427h2.385V71.042H98.5Z" transform="translate(14.66 10.551)" fill="silver"/>
            <path id="Trazado_755222" data-name="Trazado 755222" d="M101.416,78.061H97.975V74.619h3.441ZM98.5,77.533h2.385V75.148H98.5Z" transform="translate(14.66 11.165)" fill="silver"/>
            <rect id="Rectángulo_360192" data-name="Rectángulo 360192" width="13.546" height="1.458" transform="translate(116.915 59.192)" fill="silver"/>
            <rect id="Rectángulo_360193" data-name="Rectángulo 360193" width="13.546" height="1.458" transform="translate(116.915 63.912)" fill="silver"/>
            <rect id="Rectángulo_360194" data-name="Rectángulo 360194" width="13.546" height="1.458" transform="translate(116.915 68.63)" fill="silver"/>
            <rect id="Rectángulo_360195" data-name="Rectángulo 360195" width="13.546" height="1.458" transform="translate(116.915 73.349)" fill="silver"/>
            <rect id="Rectángulo_360196" data-name="Rectángulo 360196" width="13.546" height="1.458" transform="translate(116.915 78.067)" fill="silver"/>
            <rect id="Rectángulo_360197" data-name="Rectángulo 360197" width="13.546" height="1.458" transform="translate(116.915 82.786)" fill="silver"/>
            <rect id="Rectángulo_360198" data-name="Rectángulo 360198" width="13.546" height="1.458" transform="translate(116.915 87.504)" fill="silver"/>
            <path id="Trazado_755223" data-name="Trazado 755223" d="M100.4,52.75H98.532v-.278l.747-.752a5.82,5.82,0,0,0,.453-.494,1.349,1.349,0,0,0,.163-.289.836.836,0,0,0,.054-.3.48.48,0,0,0-.138-.36.529.529,0,0,0-.383-.133.959.959,0,0,0-.336.057,1.312,1.312,0,0,0-.353.214l-.172-.221a1.313,1.313,0,0,1,.856-.326.9.9,0,0,1,.629.2.705.705,0,0,1,.228.551,1.072,1.072,0,0,1-.151.536,3.321,3.321,0,0,1-.57.669l-.622.61v.015H100.4Z" transform="translate(14.744 7.461)" fill="#213f47"/>
            <path id="Trazado_755224" data-name="Trazado 755224" d="M99.705,56.9h-.314V54.876c0-.168,0-.328.015-.479-.028.029-.059.057-.092.087s-.187.155-.463.379l-.171-.223.754-.582h.271Z" transform="translate(14.766 8.089)" fill="#213f47"/>
            <path id="Trazado_755225" data-name="Trazado 755225" d="M99.412,59.325a1.048,1.048,0,0,1,.708.222.77.77,0,0,1,.258.612.878.878,0,0,1-.281.691,1.117,1.117,0,0,1-.775.252,1.433,1.433,0,0,1-.735-.154v-.31a1.111,1.111,0,0,0,.339.137,1.653,1.653,0,0,0,.4.049.8.8,0,0,0,.532-.161.579.579,0,0,0,.191-.468q0-.595-.73-.6a2.891,2.891,0,0,0-.494.057l-.167-.108.106-1.33h1.414v.3H99.04l-.074.854a2.376,2.376,0,0,1,.446-.045" transform="translate(14.752 8.711)" fill="#213f47"/>
            <path id="Trazado_755226" data-name="Trazado 755226" d="M98.562,64.01a2.018,2.018,0,0,1,.324-1.253,1.153,1.153,0,0,1,.965-.415,1.241,1.241,0,0,1,.346.038v.277a1.077,1.077,0,0,0-.343-.048.858.858,0,0,0-.7.284,1.451,1.451,0,0,0-.266.9h.023a.748.748,0,0,1,.677-.336.788.788,0,0,1,.6.232.869.869,0,0,1,.221.629.975.975,0,0,1-.241.7.862.862,0,0,1-.655.253.841.841,0,0,1-.7-.332,1.472,1.472,0,0,1-.256-.923m.954.982a.541.541,0,0,0,.429-.175.736.736,0,0,0,.153-.5.647.647,0,0,0-.141-.444.535.535,0,0,0-.425-.162.714.714,0,0,0-.321.072.6.6,0,0,0-.232.2.453.453,0,0,0-.086.263.906.906,0,0,0,.077.374.665.665,0,0,0,.222.275.552.552,0,0,0,.325.1" transform="translate(14.748 9.328)" fill="#213f47"/>
            <path id="Trazado_755227" data-name="Trazado 755227" d="M99.705,69.38h-.314V67.352c0-.168,0-.328.015-.479-.028.029-.059.057-.092.087s-.187.155-.463.379l-.171-.223.754-.582h.271Z" transform="translate(14.766 9.955)" fill="#213f47"/>
            <path id="Trazado_755228" data-name="Trazado 755228" d="M100.3,71.368a.654.654,0,0,1-.153.446.773.773,0,0,1-.433.231v.016a.812.812,0,0,1,.508.217.649.649,0,0,1,.166.459.747.747,0,0,1-.283.627,1.286,1.286,0,0,1-.8.218,2.317,2.317,0,0,1-.414-.034,1.382,1.382,0,0,1-.364-.12v-.307a1.855,1.855,0,0,0,.791.186q.736,0,.736-.577c0-.345-.27-.518-.813-.518h-.279v-.277h.284a.847.847,0,0,0,.527-.148.48.48,0,0,0,.2-.407.4.4,0,0,0-.144-.325.579.579,0,0,0-.387-.12,1.218,1.218,0,0,0-.353.051,1.583,1.583,0,0,0-.377.187l-.163-.218a1.373,1.373,0,0,1,.4-.217,1.457,1.457,0,0,1,.481-.078.985.985,0,0,1,.645.19.633.633,0,0,1,.23.52" transform="translate(14.742 10.572)" fill="#213f47"/>
            <path id="Trazado_755229" data-name="Trazado 755229" d="M99.705,77.7h-.314V75.669c0-.168,0-.328.015-.478-.028.029-.059.056-.092.086s-.187.156-.463.379l-.171-.222.754-.583h.271Z" transform="translate(14.766 11.2)" fill="#213f47"/>
            <path id="Trazado_755230" data-name="Trazado 755230" d="M113.4,52.921h-.02a.4.4,0,0,1-.329-.207l-.674-1.234a.4.4,0,0,1,.7-.381l.362.664.814-1.2a.4.4,0,1,1,.656.444l-1.178,1.739a.4.4,0,0,1-.328.175" transform="translate(16.808 7.539)" fill="#469da7"/>
            <path id="Trazado_755231" data-name="Trazado 755231" d="M113.4,61.272h-.02a.4.4,0,0,1-.329-.207l-.674-1.235a.4.4,0,1,1,.7-.379l.362.664.814-1.2a.4.4,0,1,1,.656.444L113.729,61.1a.4.4,0,0,1-.328.174" transform="translate(16.808 8.789)" fill="#469da7"/>
            <path id="Trazado_755232" data-name="Trazado 755232" d="M113.4,69.339h-.02a.4.4,0,0,1-.329-.207l-.674-1.235a.4.4,0,1,1,.7-.379l.362.664.814-1.2a.4.4,0,1,1,.656.444l-1.178,1.739a.4.4,0,0,1-.328.175" transform="translate(16.808 9.996)" fill="#469da7"/>
            <path id="Trazado_755233" data-name="Trazado 755233" d="M113.4,73.442h-.02a.4.4,0,0,1-.329-.206L112.379,72a.4.4,0,0,1,.7-.379l.362.663.814-1.2a.4.4,0,0,1,.656.445l-1.178,1.739a.4.4,0,0,1-.328.174" transform="translate(16.808 10.61)" fill="#469da7"/>
            <path id="Trazado_755234" data-name="Trazado 755234" d="M113.654,78.29c-.744,0-1.326-.844-1.326-1.923s.582-1.923,1.326-1.923,1.326.845,1.326,1.923-.581,1.923-1.326,1.923m0-3.055c-.217,0-.533.44-.533,1.131s.316,1.131.533,1.131.533-.44.533-1.131-.316-1.131-.533-1.131" transform="translate(16.808 11.139)" fill="#fd6d60"/>
            <path id="Trazado_755235" data-name="Trazado 755235" d="M115.636,68.228v30.9a.705.705,0,0,1-.053.275.809.809,0,0,1-.779.55H58.03a.8.8,0,0,1-.77-.55.666.666,0,0,1-.054-.275v-30.9a.828.828,0,0,1,.824-.823H114.8a.829.829,0,0,1,.832.823" transform="translate(8.56 10.086)" fill="#303030"/>
            <path id="Trazado_755236" data-name="Trazado 755236" d="M119.749,96a1.44,1.44,0,0,1-1.435,1.435H55.475A1.433,1.433,0,0,1,54.041,96a1.4,1.4,0,0,1,.221-.761h65.266a1.387,1.387,0,0,1,.222.761" transform="translate(8.086 14.251)" fill="silver"/>
            <path id="Trazado_755237" data-name="Trazado 755237" d="M79.316,95.242a1.917,1.917,0,0,0,1.731,1.1h4.128a1.912,1.912,0,0,0,1.732-1.1Z" transform="translate(11.868 14.251)" fill="#909090"/>
            <rect id="Rectángulo_360199" data-name="Rectángulo 360199" width="54.437" height="28.527" transform="translate(67.693 78.765)" fill="#469da7"/>
            <rect id="Rectángulo_360200" data-name="Rectángulo 360200" width="28.422" height="14.98" transform="translate(73.068 58.774)" fill="#e3d6b6"/>
            <rect id="Rectángulo_360201" data-name="Rectángulo 360201" width="12.202" height="5.491" transform="translate(74.325 67.039)" fill="#fcf7ea"/>
            <rect id="Rectángulo_360202" data-name="Rectángulo 360202" width="0.722" height="4.678" transform="translate(74.984 67.446)" fill="#354546"/>
            <rect id="Rectángulo_360203" data-name="Rectángulo 360203" width="0.243" height="4.678" transform="translate(76.145 67.446)" fill="#354546"/>
            <rect id="Rectángulo_360204" data-name="Rectángulo 360204" width="0.243" height="4.678" transform="translate(84.055 67.446)" fill="#354546"/>
            <rect id="Rectángulo_360205" data-name="Rectángulo 360205" width="0.722" height="4.678" transform="translate(77.306 67.446)" fill="#354546"/>
            <rect id="Rectángulo_360206" data-name="Rectángulo 360206" width="0.361" height="4.678" transform="translate(78.467 67.446)" fill="#354546"/>
            <rect id="Rectángulo_360207" data-name="Rectángulo 360207" width="0.361" height="4.678" transform="translate(76.693 67.446)" fill="#354546"/>
            <rect id="Rectángulo_360208" data-name="Rectángulo 360208" width="1.208" height="4.678" transform="translate(79.143 67.446)" fill="#354546"/>
            <rect id="Rectángulo_360209" data-name="Rectángulo 360209" width="0.722" height="4.678" transform="translate(83.093 67.446)" fill="#354546"/>
            <rect id="Rectángulo_360210" data-name="Rectángulo 360210" width="0.722" height="4.678" transform="translate(81.445 67.446)" fill="#354546"/>
            <rect id="Rectángulo_360211" data-name="Rectángulo 360211" width="0.361" height="4.678" transform="translate(80.79 67.446)" fill="#354546"/>
            <rect id="Rectángulo_360212" data-name="Rectángulo 360212" width="0.36" height="4.678" transform="translate(82.398 67.446)" fill="#354546"/>
            <rect id="Rectángulo_360213" data-name="Rectángulo 360213" width="1.19" height="4.678" transform="translate(84.476 67.446)" fill="#354546"/>
            <rect id="Rectángulo_360214" data-name="Rectángulo 360214" width="0.888" height="14.98" transform="translate(87.28 58.774)" fill="#b59d63"/>
            <rect id="Rectángulo_360215" data-name="Rectángulo 360215" width="0.754" height="3.03" transform="translate(91.266 68.284)" fill="#b59d63"/>
            <path id="Trazado_755238" data-name="Trazado 755238" d="M78.731,59.939l1.13-1.957,1.13,1.957Z" transform="translate(11.781 8.676)" fill="#b59d63"/>
            <rect id="Rectángulo_360216" data-name="Rectángulo 360216" width="0.755" height="3.03" transform="translate(93.765 68.284)" fill="#b59d63"/>
            <path id="Trazado_755239" data-name="Trazado 755239" d="M80.906,59.939l1.129-1.957,1.131,1.957Z" transform="translate(12.106 8.676)" fill="#b59d63"/>
            <rect id="Rectángulo_360217" data-name="Rectángulo 360217" width="4.761" height="0.474" transform="translate(90.512 71.65)" fill="#b59d63"/>
            <rect id="Rectángulo_360218" data-name="Rectángulo 360218" width="3.122" height="7.708" transform="translate(77.667 58.774)" fill="#b59d63"/>
            <rect id="Rectángulo_360219" data-name="Rectángulo 360219" width="3.124" height="7.708" transform="translate(93.187 58.774)" fill="#b59d63"/>
            <rect id="Rectángulo_360220" data-name="Rectángulo 360220" width="33.316" height="1.047" transform="translate(74.098 84.569)" fill="#64e1f0"/>
            <rect id="Rectángulo_360221" data-name="Rectángulo 360221" width="33.316" height="1.048" transform="translate(74.098 91.95)" fill="#64e1f0"/>
            <rect id="Rectángulo_360222" data-name="Rectángulo 360222" width="33.316" height="1.048" transform="translate(74.098 99.172)" fill="#64e1f0"/>
            <rect id="Rectángulo_360223" data-name="Rectángulo 360223" width="1.048" height="19.852" transform="translate(73.971 85.094)" fill="#64e1f0"/>
            <rect id="Rectángulo_360224" data-name="Rectángulo 360224" width="1.048" height="19.852" transform="translate(84.47 85.094)" fill="#64e1f0"/>
            <rect id="Rectángulo_360225" data-name="Rectángulo 360225" width="1.048" height="19.852" transform="translate(94.388 85.094)" fill="#64e1f0"/>
            <rect id="Rectángulo_360226" data-name="Rectángulo 360226" width="1.048" height="19.852" transform="translate(103.435 85.094)" fill="#64e1f0"/>
            <path id="Trazado_755240" data-name="Trazado 755240" d="M78.953,78.94l-1.2-1.2,1.2-1.2-.315-.314-1.2,1.2-1.2-1.2-.315.314,1.2,1.2-1.2,1.2.315.314,1.2-1.2,1.2,1.2Z" transform="translate(11.36 11.405)" fill="#f55d51"/>
            <rect id="Rectángulo_360227" data-name="Rectángulo 360227" width="11.273" height="22.226" transform="translate(109.036 82.324)" fill="#fff"/>
            <rect id="Rectángulo_360228" data-name="Rectángulo 360228" width="9.927" height="4.467" transform="translate(109.689 99.172)" fill="#fcf7ea"/>
            <rect id="Rectángulo_360229" data-name="Rectángulo 360229" width="0.587" height="3.806" transform="translate(110.225 99.503)" fill="#354546"/>
            <rect id="Rectángulo_360230" data-name="Rectángulo 360230" width="0.198" height="3.806" transform="translate(111.17 99.503)" fill="#354546"/>
            <rect id="Rectángulo_360231" data-name="Rectángulo 360231" width="0.198" height="3.806" transform="translate(117.606 99.503)" fill="#354546"/>
            <rect id="Rectángulo_360232" data-name="Rectángulo 360232" width="0.589" height="3.806" transform="translate(112.113 99.503)" fill="#354546"/>
            <rect id="Rectángulo_360233" data-name="Rectángulo 360233" width="0.294" height="3.806" transform="translate(113.06 99.503)" fill="#354546"/>
            <rect id="Rectángulo_360234" data-name="Rectángulo 360234" width="0.294" height="3.806" transform="translate(111.616 99.503)" fill="#354546"/>
            <rect id="Rectángulo_360235" data-name="Rectángulo 360235" width="0.982" height="3.806" transform="translate(113.61 99.503)" fill="#354546"/>
            <rect id="Rectángulo_360236" data-name="Rectángulo 360236" width="0.587" height="3.806" transform="translate(116.823 99.503)" fill="#354546"/>
            <rect id="Rectángulo_360237" data-name="Rectángulo 360237" width="0.587" height="3.806" transform="translate(115.482 99.503)" fill="#354546"/>
            <rect id="Rectángulo_360238" data-name="Rectángulo 360238" width="0.294" height="3.806" transform="translate(114.948 99.503)" fill="#354546"/>
            <rect id="Rectángulo_360239" data-name="Rectángulo 360239" width="0.293" height="3.806" transform="translate(116.257 99.503)" fill="#354546"/>
            <rect id="Rectángulo_360240" data-name="Rectángulo 360240" width="0.968" height="3.806" transform="translate(117.948 99.503)" fill="#354546"/>
            <rect id="Rectángulo_360241" data-name="Rectángulo 360241" width="9.927" height="0.738" transform="translate(109.689 88.404)" fill="#909090"/>
            <rect id="Rectángulo_360242" data-name="Rectángulo 360242" width="8.742" height="0.739" transform="translate(109.69 90.903)" fill="#909090"/>
            <rect id="Rectángulo_360243" data-name="Rectángulo 360243" width="9.927" height="0.738" transform="translate(109.689 92.153)" fill="#909090"/>
            <rect id="Rectángulo_360244" data-name="Rectángulo 360244" width="6.861" height="0.739" transform="translate(109.689 93.403)" fill="#909090"/>
            <rect id="Rectángulo_360245" data-name="Rectángulo 360245" width="9.927" height="0.739" transform="translate(109.689 95.904)" fill="#909090"/>
            <rect id="Rectángulo_360246" data-name="Rectángulo 360246" width="6.939" height="0.739" transform="translate(109.689 97.153)" fill="#909090"/>
            <path id="Trazado_755241" data-name="Trazado 755241" d="M96.03,75.8h-.482v-2.3h1.32v.4H96.03v.592h.781v.4H96.03Z" transform="translate(14.297 10.997)" fill="#354546"/>
            <path id="Trazado_755242" data-name="Trazado 755242" d="M98.621,75.32h-.278V75.8h-.475V75.32h-.983V74.98l1.009-1.486h.448v1.447h.278Zm-.753-.378v-.391c0-.064,0-.16.008-.284s.009-.194.013-.215h-.013a1.635,1.635,0,0,1-.14.251l-.422.639Z" transform="translate(14.497 10.997)" fill="#354546"/>
            <path id="Trazado_755243" data-name="Trazado 755243" d="M99.385,74.326a.743.743,0,0,1,.532.187.675.675,0,0,1,.2.513.751.751,0,0,1-.237.594,1.009,1.009,0,0,1-.682.208,1.333,1.333,0,0,1-.62-.125v-.42a1.35,1.35,0,0,0,.29.108,1.287,1.287,0,0,0,.313.041c.3,0,.446-.123.446-.366s-.154-.348-.461-.348a1.234,1.234,0,0,0-.185.016,1.386,1.386,0,0,0-.163.037l-.193-.1.086-1.174h1.25v.413h-.823l-.043.452.055-.01a1.075,1.075,0,0,1,.238-.022" transform="translate(14.75 10.997)" fill="#354546"/>
            <rect id="Rectángulo_360247" data-name="Rectángulo 360247" width="52.259" height="1.247" transform="translate(69.201 79.629)" fill="#707070"/>
            <path id="Trazado_755244" data-name="Trazado 755244" d="M62.3,54.139h-.792V49.4h4.238v.792H62.3Z" transform="translate(9.204 7.391)" fill="#e54d42"/>
            <path id="Trazado_755245" data-name="Trazado 755245" d="M66.167,66.643H61.507V62.032H62.3v3.819h3.867Z" transform="translate(9.203 9.282)" fill="#e54d42"/>
            <path id="Trazado_755246" data-name="Trazado 755246" d="M90.736,66.643H86.115v-.792h3.829V62.032h.792Z" transform="translate(12.886 9.282)" fill="#e54d42"/>
            <path id="Trazado_755247" data-name="Trazado 755247" d="M90.712,53.391H89.92v-3.2H86.274V49.4h4.439Z" transform="translate(12.909 7.391)" fill="#e54d42"/>
          </g>
        </g>
      </g>
    </g>
  </g>
</svg>
