<svg xmlns="http://www.w3.org/2000/svg" xmlns:xlink="http://www.w3.org/1999/xlink" width="820" height="121.223" viewBox="0 0 820 121.223">
  <defs>
    <clipPath id="clip-path">
      <rect id="Rectángulo_357510" data-name="Rectángulo 357510" width="83.578" height="63.308" fill="#12263f"/>
    </clipPath>
    <filter id="Trazado_752694" x="136.081" y="59.255" width="54.816" height="50.307" filterUnits="userSpaceOnUse">
      <feOffset dx="3" dy="3" input="SourceAlpha"/>
      <feGaussianBlur stdDeviation="3" result="blur"/>
      <feFlood flood-opacity="0.161"/>
      <feComposite operator="in" in2="blur"/>
      <feComposite in="SourceGraphic"/>
    </filter>
    <filter id="Trazado_752710" x="310.074" y="59.255" width="54.816" height="50.307" filterUnits="userSpaceOnUse">
      <feOffset dx="3" dy="3" input="SourceAlpha"/>
      <feGaussianBlur stdDeviation="3" result="blur-2"/>
      <feFlood flood-opacity="0.161"/>
      <feComposite operator="in" in2="blur-2"/>
      <feComposite in="SourceGraphic"/>
    </filter>
    <clipPath id="clip-path-2">
      <rect id="Rectángulo_358792" data-name="Rectángulo 358792" width="83.577" height="59.701" fill="#12263f"/>
    </clipPath>
    <clipPath id="clip-path-3">
      <rect id="Rectángulo_358793" data-name="Rectángulo 358793" width="109.221" height="83.233" fill="#12263f"/>
    </clipPath>
    <clipPath id="clip-path-5">
      <rect id="Rectángulo_358794" data-name="Rectángulo 358794" width="33.466" height="33.457" fill="#12263f"/>
    </clipPath>
    <filter id="Trazado_752715" x="488.321" y="59.255" width="54.816" height="50.307" filterUnits="userSpaceOnUse">
      <feOffset dx="3" dy="3" input="SourceAlpha"/>
      <feGaussianBlur stdDeviation="3" result="blur-3"/>
      <feFlood flood-opacity="0.161"/>
      <feComposite operator="in" in2="blur-3"/>
      <feComposite in="SourceGraphic"/>
    </filter>
    <filter id="Trazado_752718" x="649.233" y="59.255" width="54.816" height="50.307" filterUnits="userSpaceOnUse">
      <feOffset dx="3" dy="3" input="SourceAlpha"/>
      <feGaussianBlur stdDeviation="3" result="blur-4"/>
      <feFlood flood-opacity="0.161"/>
      <feComposite operator="in" in2="blur-4"/>
      <feComposite in="SourceGraphic"/>
    </filter>
    <clipPath id="clip-path-6">
      <rect id="Rectángulo_358799" data-name="Rectángulo 358799" width="43.44" height="43.432" fill="#12263f"/>
    </clipPath>
  </defs>
  <g id="Grupo_1024392" data-name="Grupo 1024392" transform="translate(-390 -10263.79)">
    <g id="Grupo_1022828" data-name="Grupo 1022828" transform="translate(-210 -249)">
      <g id="Grupo_1022816" data-name="Grupo 1022816" transform="translate(600 10562.544)">
        <g id="Grupo_1020854" data-name="Grupo 1020854" transform="translate(0)" clip-path="url(#clip-path)">
          <path id="Trazado_749379" data-name="Trazado 749379" d="M0,32.16V54.008a.189.189,0,0,1,.031.053,1.44,1.44,0,0,0,1.583,1.172c1.657-.012,3.314,0,4.971-.01.226,0,.291.074.328.282a9.189,9.189,0,0,0,2.935,5.333A9.4,9.4,0,0,0,16.234,63.3a7.946,7.946,0,0,0,2.589-.4,9.289,9.289,0,0,0,6.615-7.389c.045-.217.11-.289.343-.289q16,.011,31.994.006c.309,0,.306,0,.362.3a9.4,9.4,0,0,0,11.325,7.5,9.14,9.14,0,0,0,7-6.633c.116-.379.184-.772.279-1.176h.254q2.559,0,5.118,0a1.3,1.3,0,0,0,1.405-1.046,2.58,2.58,0,0,0,.059-.584q0-15.912,0-31.824,0-8.4,0-16.8a4.81,4.81,0,0,0-.707-2.706A4.662,4.662,0,0,0,79.7.107c-.088-.016-.177-.024-.3-.04L79.533,0H33.995c-.122.029-.243.068-.367.086A4.367,4.367,0,0,0,31.644.9a4.779,4.779,0,0,0-1.986,4.047c-.005,2.308,0,4.616,0,6.924v.251H13.766c-.091,0-.183,0-.274,0a1.362,1.362,0,0,0-1.157.653c-.8,1.254-1.6,2.5-2.407,3.753Q5.993,22.653,2.063,28.777A25.045,25.045,0,0,0,0,32.16m80.881,4.194H32.352v-.224q0-15.69,0-31.381A2.032,2.032,0,0,1,34.4,2.693q22.189,0,44.377,0a2.078,2.078,0,0,1,2.111,2.1q-.026,15.648-.01,31.3ZM76.716,52.526c-.031-.167-.058-.311-.086-.455A9.438,9.438,0,0,0,68.264,44.5a8.5,8.5,0,0,0-4.052.537,9.273,9.273,0,0,0-6.079,7.257c-.036.184-.1.248-.3.248q-12.626-.008-25.252,0h-.222V39.075h48.5v13.45Zm-51.225,0c-.029-.154-.056-.3-.084-.443a9.435,9.435,0,0,0-10.436-7.54A9.446,9.446,0,0,0,6.906,52.3c-.03.174-.1.239-.284.237-1.243-.01-2.485,0-3.728-.005-.061,0-.122-.007-.183-.01V44.452c.857,0,1.7.005,2.54,0A3.913,3.913,0,0,0,6.775,44.2a4.044,4.044,0,0,0,2.656-3.918,3.529,3.529,0,0,0-.71-2.118,3.894,3.894,0,0,0-3-1.754c-.931-.054-1.866-.027-2.8-.036H2.707V33.676H24.071a1.373,1.373,0,0,0,1.541-1.546V17.755c0-.07,0-.14,0-.21A1.3,1.3,0,0,0,24.423,16.2a3.193,3.193,0,0,0-.482-.034q-5.17,0-10.341,0h-.281c.268-.414.523-.79.756-1.178a.309.309,0,0,1,.312-.173q7.519.006,15.038,0h.221V52.524ZM3.808,30.975a.69.69,0,0,1,.035-.082q1.364-2.122,2.729-4.244,2.447-3.8,4.893-7.6a.365.365,0,0,1,.353-.193q5.432.007,10.865,0H22.9V30.975ZM67.586,60.6a6.729,6.729,0,1,1,6.553-7.16,6.711,6.711,0,0,1-6.553,7.16m-51.226,0a6.73,6.73,0,1,1,6.554-7.158A6.71,6.71,0,0,1,16.36,60.6M2.7,39.064c.907,0,1.792-.007,2.675,0a1.342,1.342,0,0,1,.058,2.682c-.9.024-1.8,0-2.695,0-.011,0-.022-.014-.038-.024Z" transform="translate(0.001 0.001)" fill="#12263f"/>
          <path id="Trazado_749380" data-name="Trazado 749380" d="M206.32,250.034q2.643,0,5.285,0a1.349,1.349,0,0,0,1.43-1.083,1.3,1.3,0,0,0-.793-1.479,2.39,2.39,0,0,0-.741-.126q-5.243-.012-10.487,0a1.349,1.349,0,1,0,.019,2.692c1.706,0,3.411,0,5.117,0h.168" transform="translate(-163.185 -205.581)" fill="#12263f"/>
          <path id="Trazado_749381" data-name="Trazado 749381" d="M242.894,273.958c.639,0,1.277,0,1.916,0a1.348,1.348,0,0,0,1.408-1.083,1.3,1.3,0,0,0-.794-1.479,2.2,2.2,0,0,0-.678-.124q-1.926-.017-3.853,0a1.347,1.347,0,1,0,.043,2.69c.653.007,1.305,0,1.958,0" transform="translate(-203.106 -225.464)" fill="#12263f"/>
          <path id="Trazado_749382" data-name="Trazado 749382" d="M346.692,218.108c.639,0,1.277,0,1.916,0a1.347,1.347,0,0,0,1.409-1.083,1.3,1.3,0,0,0-.792-1.479,2.357,2.357,0,0,0-.72-.125c-1.263-.012-2.526-.01-3.789,0a1.348,1.348,0,1,0,.019,2.692h1.958" transform="translate(-324.429 -179.043)" fill="#12263f"/>
          <path id="Trazado_749383" data-name="Trazado 749383" d="M72.007,299.172a4.058,4.058,0,0,0,4.122,4.15,4.032,4.032,0,0,0-.092-8.064,4.082,4.082,0,0,0-4.03,3.913m4.057,1.466a1.347,1.347,0,1,1,1.325-1.37,1.348,1.348,0,0,1-1.325,1.37" transform="translate(-8.642 -245.411)" fill="#12263f"/>
          <path id="Trazado_749384" data-name="Trazado 749384" d="M379.452,295.232a4.034,4.034,0,1,0,.072,8.068,4.035,4.035,0,0,0-.072-8.068m0,2.69a1.347,1.347,0,1,1-1.343,1.354,1.344,1.344,0,0,1,1.343-1.354" transform="translate(-363.272 -245.388)" fill="#12263f"/>
        </g>
      </g>
      <path id="Trazado_752693" data-name="Trazado 752693" d="M227.029,303.564v-.833q0-5.8,0-11.591c0-1.26.376-1.636,1.633-1.637q6.551,0,13.1,0c1.259,0,1.635.376,1.635,1.635q0,13.58,0,27.159c0,1.3-.359,1.652-1.679,1.652h-27.1c-1.285,0-1.665-.383-1.666-1.686q0-6.515,0-13.031c0-1.3.373-1.667,1.678-1.668q5.762,0,11.525,0Zm-.081,14.017V305.957h-2.179a.685.685,0,0,0-.064.17c-.008.936-.011,1.873-.018,2.809-.008,1.249-.4,1.652-1.633,1.657-1.188.005-2.376,0-3.565,0-1.528,0-1.84-.315-1.842-1.855,0-.926,0-1.852,0-2.784h-2.3V317.58Zm11.776-11.6c0,1.052,0,2.053,0,3.054,0,1.153-.407,1.553-1.581,1.559q-1.921.01-3.842,0c-1.2-.006-1.585-.4-1.588-1.618,0-1,0-1.994,0-2.994H229.43v11.583h11.6V305.979Zm-9.308-14.1V303.47h11.6V291.877h-2.288c0,1.033,0,2.032,0,3.03,0,1.26-.36,1.615-1.639,1.618q-1.851.005-3.7,0c-1.326,0-1.669-.342-1.671-1.652,0-1,0-1.991,0-2.995Zm4.669,2.26h2.254v-2.267h-2.254Zm.006,14.064h2.255V305.97h-2.255ZM222.3,305.967h-2.251v2.247H222.3Z" transform="translate(479.745 10301.222)" fill="#12263f"/>
      <path id="Trazado_752719" data-name="Trazado 752719" d="M227.029,303.564v-.833q0-5.8,0-11.591c0-1.26.376-1.636,1.633-1.637q6.551,0,13.1,0c1.259,0,1.635.376,1.635,1.635q0,13.58,0,27.159c0,1.3-.359,1.652-1.679,1.652h-27.1c-1.285,0-1.665-.383-1.666-1.686q0-6.515,0-13.031c0-1.3.373-1.667,1.678-1.668q5.762,0,11.525,0Zm-.081,14.017V305.957h-2.179a.685.685,0,0,0-.064.17c-.008.936-.011,1.873-.018,2.809-.008,1.249-.4,1.652-1.633,1.657-1.188.005-2.376,0-3.565,0-1.528,0-1.84-.315-1.842-1.855,0-.926,0-1.852,0-2.784h-2.3V317.58Zm11.776-11.6c0,1.052,0,2.053,0,3.054,0,1.153-.407,1.553-1.581,1.559q-1.921.01-3.842,0c-1.2-.006-1.585-.4-1.588-1.618,0-1,0-1.994,0-2.994H229.43v11.583h11.6V305.979Zm-9.308-14.1V303.47h11.6V291.877h-2.288c0,1.033,0,2.032,0,3.03,0,1.26-.36,1.615-1.639,1.618q-1.851.005-3.7,0c-1.326,0-1.669-.342-1.671-1.652,0-1,0-1.991,0-2.995Zm4.669,2.26h2.254v-2.267h-2.254Zm.006,14.064h2.255V305.97h-2.255ZM222.3,305.967h-2.251v2.247H222.3Z" transform="translate(1088.612 10301.222)" fill="#12263f"/>
      <g transform="matrix(1, 0, 0, 1, 600, 10512.79)" filter="url(#Trazado_752694)">
        <g id="Trazado_752694-2" data-name="Trazado 752694" transform="translate(-66.42 60.05)" fill="#fff">
          <path d="M 231.3870086669922 36.51607894897461 C 231.3586120605469 36.51607894897461 231.3334503173828 36.50629043579102 231.3122253417969 36.48696899414062 C 231.2895202636719 36.46625900268555 231.2761993408203 36.43617248535156 231.2760620117188 36.40473175048828 L 231.2760620117188 33.22079086303711 C 231.2760620117188 31.07102012634277 229.527099609375 29.32206153869629 227.3773498535156 29.32206153869629 L 211.3987274169922 29.32206153869629 C 210.3517761230469 29.32206153869629 209.5000152587891 28.47030067443848 209.5000152587891 27.42334175109863 L 209.5000152587891 15.28736114501953 C 209.5000152587891 14.24040126800537 210.3517761230469 13.38864040374756 211.3987274169922 13.38864040374756 L 227.3725128173828 13.38864040374756 C 229.5222778320312 13.38864040374756 231.2712249755859 11.63968086242676 231.2712249755859 9.489920616149902 L 231.2712249755859 6.315820693969727 C 231.2714691162109 6.25869083404541 231.3212890625 6.208981037139893 231.3822937011719 6.208981037139893 C 231.4130401611328 6.209128379821777 231.4427032470703 6.222021102905273 231.4637145996094 6.244409561157227 L 243.7466125488281 19.87490081787109 C 244.5079498291016 20.72135162353516 244.5079498291016 21.99901008605957 243.7459869384766 22.84617042541504 L 231.4689178466797 36.48039627075195 C 231.4416351318359 36.50986862182617 231.4093627929688 36.51607894897461 231.3870086669922 36.51607894897461 Z" stroke="none"/>
          <path d="M 232.2712249755859 8.634311676025391 L 232.2712249755859 9.489921569824219 C 232.2712249755859 12.19108009338379 230.0736694335938 14.38864135742188 227.3725128173828 14.38864135742188 L 211.3987274169922 14.38864135742188 C 210.9031829833984 14.38864135742188 210.5000152587891 14.79180145263672 210.5000152587891 15.28736114501953 L 210.5000152587891 27.42333984375 C 210.5000152587891 27.91889953613281 210.9031829833984 28.32205963134766 211.3987274169922 28.32205963134766 L 227.3773498535156 28.32205963134766 C 230.0785064697266 28.32205963134766 232.2760620117188 30.51962089538574 232.2760620117188 33.22079086303711 L 232.2760620117188 34.08958435058594 L 243.0024871826172 22.17743110656738 C 243.4215393066406 21.71152114868164 243.4215393066406 21.00885009765625 243.0037384033203 20.54433059692383 L 232.2712249755859 8.634311676025391 M 231.3822784423828 5.208980560302734 C 231.3837738037109 5.208980560302734 231.38525390625 5.208984375 231.3867492675781 5.208992004394531 C 231.6979217529297 5.210441589355469 231.9940643310547 5.341850280761719 232.2037506103516 5.571811676025391 L 244.4894866943359 19.20547103881836 C 245.5914764404297 20.43066024780273 245.5914764404297 22.28970146179199 244.4894866943359 23.51490020751953 L 232.2085723876953 37.15338897705078 C 231.7950439453125 37.6070442199707 231.0925445556641 37.63940811157227 230.6389312744141 37.22634124755859 C 230.4089202880859 37.01666259765625 230.2775115966797 36.72051239013672 230.2760620117188 36.40938186645508 L 230.2760620117188 33.22079086303711 C 230.2760620117188 31.61973190307617 228.9784088134766 30.32205963134766 227.3773498535156 30.32205963134766 L 211.3987274169922 30.32205963134766 C 209.7976837158203 30.32205963134766 208.5000152587891 29.02440071105957 208.5000152587891 27.42333984375 L 208.5000152587891 15.28736114501953 C 208.5000152587891 13.68630027770996 209.7976837158203 12.38864135742188 211.3987274169922 12.38864135742188 L 227.3725128173828 12.38864135742188 C 228.9735870361328 12.38864135742188 230.2712249755859 11.09098052978516 230.2712249755859 9.489921569824219 L 230.2712249755859 6.315822601318359 C 230.2736663818359 5.703750610351562 230.7708129882812 5.208992004394531 231.3822784423828 5.208980560302734 Z" stroke="none" fill="#12263f"/>
        </g>
      </g>
      <g transform="matrix(1, 0, 0, 1, 600, 10512.79)" filter="url(#Trazado_752710)">
        <g id="Trazado_752710-2" data-name="Trazado 752710" transform="translate(107.57 60.05)" fill="#fff">
          <path d="M 231.3870086669922 36.51607894897461 C 231.3586120605469 36.51607894897461 231.3334503173828 36.50629043579102 231.3122253417969 36.48696899414062 C 231.2895202636719 36.46625900268555 231.2761993408203 36.43617248535156 231.2760620117188 36.40473175048828 L 231.2760620117188 33.22079086303711 C 231.2760620117188 31.07102012634277 229.527099609375 29.32206153869629 227.3773498535156 29.32206153869629 L 211.3987274169922 29.32206153869629 C 210.3517761230469 29.32206153869629 209.5000152587891 28.47030067443848 209.5000152587891 27.42334175109863 L 209.5000152587891 15.28736114501953 C 209.5000152587891 14.24040126800537 210.3517761230469 13.38864040374756 211.3987274169922 13.38864040374756 L 227.3725128173828 13.38864040374756 C 229.5222778320312 13.38864040374756 231.2712249755859 11.63968086242676 231.2712249755859 9.489920616149902 L 231.2712249755859 6.315820693969727 C 231.2714691162109 6.25869083404541 231.3212890625 6.208981037139893 231.3822937011719 6.208981037139893 C 231.4130401611328 6.209128379821777 231.4427032470703 6.222021102905273 231.4637145996094 6.244409561157227 L 243.7466125488281 19.87490081787109 C 244.5079498291016 20.72135162353516 244.5079498291016 21.99901008605957 243.7459869384766 22.84617042541504 L 231.4689178466797 36.48039627075195 C 231.4416351318359 36.50986862182617 231.4093627929688 36.51607894897461 231.3870086669922 36.51607894897461 Z" stroke="none"/>
          <path d="M 232.2712249755859 8.634311676025391 L 232.2712249755859 9.489921569824219 C 232.2712249755859 12.19108009338379 230.0736694335938 14.38864135742188 227.3725128173828 14.38864135742188 L 211.3987274169922 14.38864135742188 C 210.9031829833984 14.38864135742188 210.5000152587891 14.79180145263672 210.5000152587891 15.28736114501953 L 210.5000152587891 27.42333984375 C 210.5000152587891 27.91889953613281 210.9031829833984 28.32205963134766 211.3987274169922 28.32205963134766 L 227.3773498535156 28.32205963134766 C 230.0785064697266 28.32205963134766 232.2760620117188 30.51962089538574 232.2760620117188 33.22079086303711 L 232.2760620117188 34.08958435058594 L 243.0024871826172 22.17743110656738 C 243.4215393066406 21.71152114868164 243.4215393066406 21.00885009765625 243.0037384033203 20.54433059692383 L 232.2712249755859 8.634311676025391 M 231.3822784423828 5.208980560302734 C 231.3837738037109 5.208980560302734 231.38525390625 5.208984375 231.3867492675781 5.208992004394531 C 231.6979217529297 5.210441589355469 231.9940643310547 5.341850280761719 232.2037506103516 5.571811676025391 L 244.4894866943359 19.20547103881836 C 245.5914764404297 20.43066024780273 245.5914764404297 22.28970146179199 244.4894866943359 23.51490020751953 L 232.2085723876953 37.15338897705078 C 231.7950439453125 37.6070442199707 231.0925445556641 37.63940811157227 230.6389312744141 37.22634124755859 C 230.4089202880859 37.01666259765625 230.2775115966797 36.72051239013672 230.2760620117188 36.40938186645508 L 230.2760620117188 33.22079086303711 C 230.2760620117188 31.61973190307617 228.9784088134766 30.32205963134766 227.3773498535156 30.32205963134766 L 211.3987274169922 30.32205963134766 C 209.7976837158203 30.32205963134766 208.5000152587891 29.02440071105957 208.5000152587891 27.42333984375 L 208.5000152587891 15.28736114501953 C 208.5000152587891 13.68630027770996 209.7976837158203 12.38864135742188 211.3987274169922 12.38864135742188 L 227.3725128173828 12.38864135742188 C 228.9735870361328 12.38864135742188 230.2712249755859 11.09098052978516 230.2712249755859 9.489921569824219 L 230.2712249755859 6.315822601318359 C 230.2736663818359 5.703750610351562 230.7708129882812 5.208992004394531 231.3822784423828 5.208980560302734 Z" stroke="none" fill="#12263f"/>
        </g>
      </g>
      <g id="Grupo_1022817" data-name="Grupo 1022817" transform="translate(1336.423 10562.544)" clip-path="url(#clip-path-2)">
        <path id="Trazado_752695" data-name="Trazado 752695" d="M83.577,30.328v20.6a.176.176,0,0,0-.031.05,1.431,1.431,0,0,1-1.583,1.1c-1.657-.011-3.314,0-4.971-.009-.226,0-.291.07-.328.266a8.544,8.544,0,0,1-2.935,5.029A9.729,9.729,0,0,1,67.342,59.7a8.387,8.387,0,0,1-2.588-.38,8.961,8.961,0,0,1-6.615-6.968c-.045-.2-.11-.272-.343-.272q-16,.01-31.993.006c-.309,0-.306,0-.362.287A8.328,8.328,0,0,1,22.8,57.1a9.391,9.391,0,0,1-8.688,2.345,8.933,8.933,0,0,1-7-6.255c-.116-.357-.184-.728-.279-1.109H6.585q-2.559,0-5.118,0a1.292,1.292,0,0,1-1.405-.986A2.3,2.3,0,0,1,0,50.544q0-15.005,0-30.01Q0,12.614,0,4.7A4.339,4.339,0,0,1,.709,2.143,4.675,4.675,0,0,1,3.876.1c.088-.015.177-.023.3-.038L4.044,0H49.582c.122.028.243.064.367.081a4.515,4.515,0,0,1,1.984.768,4.423,4.423,0,0,1,1.986,3.817c.005,2.177,0,4.353,0,6.53v.237H69.81c.091,0,.183,0,.274,0a1.381,1.381,0,0,1,1.157.616c.8,1.183,1.6,2.36,2.407,3.539,2.623,3.848,5.256,7.691,7.865,11.547a23.412,23.412,0,0,1,2.064,3.19M2.7,34.283H51.224v-.211q0-14.8,0-29.593a1.976,1.976,0,0,0-2.051-1.94q-22.188,0-44.377,0A2.018,2.018,0,0,0,2.686,4.521q.026,14.757.01,29.513Zm4.164,15.25c.031-.157.058-.293.086-.429a9.246,9.246,0,0,1,8.366-7.141,8.969,8.969,0,0,1,4.052.506,8.9,8.9,0,0,1,6.079,6.843c.036.173.1.234.3.234q12.626-.008,25.252,0h.222V36.849H2.71V49.533Zm51.225,0c.029-.146.056-.282.084-.418.976-4.772,5.777-7.7,10.435-7.111a9.5,9.5,0,0,1,4.823,2,8.631,8.631,0,0,1,3.242,5.317c.03.164.1.225.284.224,1.243-.009,2.485,0,3.728-.005.061,0,.122-.006.183-.01V41.919c-.857,0-1.7,0-2.54,0a4.126,4.126,0,0,1-1.525-.239,3.825,3.825,0,0,1-2.656-3.695,3.206,3.206,0,0,1,.71-2,3.943,3.943,0,0,1,3-1.655c.931-.05,1.866-.025,2.8-.034h.216V31.757H59.505c-1.016,0-1.541-.5-1.541-1.458V16.743c0-.066,0-.132,0-.2a1.249,1.249,0,0,1,1.188-1.268,3.383,3.383,0,0,1,.482-.032q5.17,0,10.341,0h.281c-.268-.391-.523-.745-.756-1.111a.313.313,0,0,0-.312-.163q-7.519.006-15.038,0H53.93V49.531ZM79.768,29.21a.63.63,0,0,0-.035-.077q-1.364-2-2.729-4-2.447-3.584-4.893-7.169a.37.37,0,0,0-.353-.182q-5.432.007-10.865,0h-.217V29.21ZM15.991,57.15a6.356,6.356,0,1,0,.417-12.685A6.6,6.6,0,0,0,9.438,50.4a6.5,6.5,0,0,0,6.553,6.752m51.225,0a6.36,6.36,0,1,0-6.554-6.75,6.561,6.561,0,0,0,6.554,6.75M80.872,36.839c-.907,0-1.792-.006-2.675,0a1.309,1.309,0,0,0-1.358,1.25,1.29,1.29,0,0,0,1.3,1.28c.9.023,1.8,0,2.695,0,.011,0,.022-.013.038-.023Z" transform="translate(0 0.001)" fill="#12263f"/>
        <path id="Trazado_752696" data-name="Trazado 752696" d="M206.328,249.88q-2.643,0-5.285,0a1.338,1.338,0,0,1-1.43-1.021,1.209,1.209,0,0,1,.793-1.395,2.52,2.52,0,0,1,.741-.119q5.243-.011,10.486,0a1.28,1.28,0,1,1-.019,2.538c-1.706,0-3.411,0-5.117,0h-.168" transform="translate(-165.886 -207.96)" fill="#12263f"/>
        <path id="Trazado_752697" data-name="Trazado 752697" d="M242.857,273.8c-.639,0-1.277,0-1.916,0a1.335,1.335,0,0,1-1.408-1.022,1.212,1.212,0,0,1,.794-1.395,2.319,2.319,0,0,1,.678-.117q1.926-.016,3.852,0a1.3,1.3,0,0,1,1.39,1.317,1.324,1.324,0,0,1-1.433,1.22c-.653.006-1.305,0-1.958,0" transform="translate(-199.067 -228.074)" fill="#12263f"/>
        <path id="Trazado_752698" data-name="Trazado 752698" d="M346.657,217.954c-.638,0-1.277,0-1.916,0a1.335,1.335,0,0,1-1.409-1.021,1.21,1.21,0,0,1,.792-1.395,2.486,2.486,0,0,1,.72-.118c1.263-.011,2.526-.009,3.789,0a1.31,1.31,0,0,1,1.413,1.316,1.328,1.328,0,0,1-1.432,1.223h-1.958" transform="translate(-285.342 -181.115)" fill="#12263f"/>
        <path id="Trazado_752699" data-name="Trazado 752699" d="M80.063,298.949a3.947,3.947,0,0,1-4.122,3.914,3.806,3.806,0,1,1,.092-7.6,3.974,3.974,0,0,1,4.03,3.69m-4.057,1.382a1.273,1.273,0,1,0-1.325-1.292,1.313,1.313,0,0,0,1.325,1.292" transform="translate(-59.85 -248.251)" fill="#12263f"/>
        <path id="Trazado_752700" data-name="Trazado 752700" d="M379.433,295.232a3.813,3.813,0,1,1-.072,7.608,3.881,3.881,0,0,1-3.943-3.883,3.932,3.932,0,0,1,4.015-3.726m0,2.537a1.272,1.272,0,1,0,1.343,1.277,1.307,1.307,0,0,0-1.343-1.277" transform="translate(-312.036 -248.228)" fill="#12263f"/>
      </g>
      <g id="Grupo_1022819" data-name="Grupo 1022819" transform="translate(797.728 10550.778)">
        <g id="Grupo_1022818" data-name="Grupo 1022818" clip-path="url(#clip-path-3)">
          <path id="Trazado_752701" data-name="Trazado 752701" d="M234.058,183.625a11.777,11.777,0,0,1,7.389,4.318,11.822,11.822,0,0,1-7.709,19.12,11.738,11.738,0,0,1-1.625.132q-25.245.01-50.49,0a11.838,11.838,0,0,1-.824-23.657c.674-.023,1.349,0,2.157,0,0-.455,0-.817,0-1.179,0-3.475.073-6.952-.03-10.424a3.4,3.4,0,0,1,3.36-3.5c4.428-.048,8.858-.057,13.286,0a3.357,3.357,0,0,1,3.388,3.587c.01,3.779,0,7.559,0,11.5,1.243,0,2.454,0,3.666,0,.34,0,.745-.1,1.006.042.365.2.832.576.868.917a1.491,1.491,0,0,1-.648,1.086,2.244,2.244,0,0,1-1.183.154c-8.347.008-16.695.111-25.039-.036a9.744,9.744,0,0,0-9.879,9.6A9.632,9.632,0,0,0,181.507,205q25.449.037,50.9,0a9.664,9.664,0,0,0,1.424-19.194,10.949,10.949,0,0,0-1.734-.073q-8.074-.007-16.148,0c-1.584,0-1.9-.485-1.388-1.985a3.183,3.183,0,0,0,.082-1.005q.009-7.767.009-15.533c0-1.222.367-1.6,1.572-1.606q8.167,0,16.334,0c1.149,0,1.5.359,1.5,1.552q.008,7.665,0,15.331c0,.367,0,.733,0,1.136m-41.152-.1q3.27,0,6.54,0c.885,0,1.354-.294,1.338-1.321-.054-3.337-.018-6.676-.021-10.014,0-1.171-.388-1.583-1.6-1.587q-6.233-.022-12.466,0c-1.2,0-1.575.4-1.577,1.6q-.008,4.854,0,9.708c0,1.442.158,1.606,1.658,1.611,2.044.008,4.087,0,6.131,0m38.884-11.187H216.9v10.993H231.79Zm.024-4.515H216.9v2.16h14.917Z" transform="translate(-134.905 -131.744)" fill="#12263f"/>
          <path id="Trazado_752702" data-name="Trazado 752702" d="M360.132,284.177a6.93,6.93,0,0,1,13.86.068,6.93,6.93,0,1,1-13.86-.068m6.908,4.809a4.748,4.748,0,0,0,4.755-4.7,4.738,4.738,0,1,0-4.755,4.7" transform="translate(-286.502 -220.627)" fill="#12263f"/>
          <path id="Trazado_752703" data-name="Trazado 752703" d="M208,284.218a6.925,6.925,0,1,1-6.949-6.909A6.878,6.878,0,0,1,208,284.218m-6.957-4.71a4.672,4.672,0,0,0-4.7,4.733,4.736,4.736,0,0,0,9.471.022,4.666,4.666,0,0,0-4.774-4.755" transform="translate(-154.455 -220.612)" fill="#12263f"/>
          <path id="Trazado_752704" data-name="Trazado 752704" d="M292.281,284.268a6.9,6.9,0,0,1-6.859,6.9,6.928,6.928,0,1,1-.017-13.856,6.838,6.838,0,0,1,6.876,6.957m-6.884-4.762a4.74,4.74,0,0,0-4.777,4.681,4.824,4.824,0,0,0,4.7,4.792,4.755,4.755,0,0,0,4.8-4.764,4.686,4.686,0,0,0-4.73-4.708" transform="translate(-221.521 -220.614)" fill="#12263f"/>
          <path id="Trazado_752705" data-name="Trazado 752705" d="M441.859,284.254a6.9,6.9,0,1,1,13.808-.008,6.9,6.9,0,1,1-13.808.008m6.918,4.721a4.829,4.829,0,0,0,4.748-4.75,4.778,4.778,0,0,0-9.557.049,4.828,4.828,0,0,0,4.808,4.7" transform="translate(-351.52 -220.613)" fill="#12263f"/>
          <path id="Trazado_752706" data-name="Trazado 752706" d="M370.427,252.537c.282.417.8.85.776,1.247a1.492,1.492,0,0,1-.971,1.032.883.883,0,0,1-1.075-1.008c.066-.451.5-.848.771-1.269Z" transform="translate(-293.674 -200.905)" fill="#12263f"/>
          <path id="Trazado_752707" data-name="Trazado 752707" d="M413.607,7.5c0,1.5-.042,3,.029,4.492a1.646,1.646,0,0,0,.619,1.1,3.663,3.663,0,0,1,1.662,3.591,1.4,1.4,0,0,0,.352,1.013c.992.979,2.086,1.857,3.056,2.856a2.457,2.457,0,0,1,.681,1.47c.075,2.074.019,4.152.035,6.228.006.823-.242,1.486-1.154,1.461-.853-.023-1.067-.69-1.062-1.454.011-1.8.035-3.609-.02-5.412a2.014,2.014,0,0,0-.514-1.218,24.17,24.17,0,0,0-2.411-2.2,1.905,1.905,0,0,0-1.048-.185c-.891-.026-1.784-.033-2.676-.007a5.656,5.656,0,0,0-1.051.2c-.057.013-.1.091-.148.137-.92.857-2.369,1.574-2.64,2.6-.455,1.721-.16,3.64-.176,5.476,0,.306.126.674,0,.905-.236.425-.56,1-.952,1.1-.636.162-1.08-.356-1.139-1.013-.07-.778-.061-1.564-.065-2.346-.008-1.4-.066-2.8.032-4.185a2.739,2.739,0,0,1,.7-1.573c.961-1.007,2.06-1.88,3.05-2.861a1.424,1.424,0,0,0,.35-1.028,3.347,3.347,0,0,1,1.624-3.473,1.287,1.287,0,0,0,.713-1.292c-.029-3.029-.009-6.059-.013-9.088,0-.778.249-1.406,1.128-1.363.792.038,1.045.643,1.042,1.374,0,1.566,0,3.132,0,4.7Zm.143,8.517a1.243,1.243,0,1,0-1.185,1.293,1.192,1.192,0,0,0,1.185-1.293" transform="translate(-322.164 -1.134)" fill="#12263f"/>
          <path id="Trazado_752708" data-name="Trazado 752708" d="M17.324,164.716c-.2.215-.369.416-.554.6a5.751,5.751,0,0,1-4.6,1.777,5.966,5.966,0,0,1-5.424-4.791,8.7,8.7,0,0,1-.125-1.536q-.01-10.336,0-20.673c0-.041-.007-.082-.01-.119-.372.122-.729.268-1.1.357A4.483,4.483,0,0,1,.062,136.8a3.462,3.462,0,0,1-.056-.64c0-7.586-.014-15.171.007-22.757a7.368,7.368,0,0,1,1.131-3.76,8.328,8.328,0,0,1,5.969-4.082,8.7,8.7,0,0,1,1.492-.123q8.7-.012,17.4,0a8.433,8.433,0,0,1,8.55,7.2,20.758,20.758,0,0,1,.1,3.3q.01,9.629.007,19.259a6.979,6.979,0,0,1-.152,1.941,4.364,4.364,0,0,1-3.334,3.227,4.436,4.436,0,0,1-3.126-.411c-.011.024-.032.047-.032.071q0,10.573.011,21.146a5.987,5.987,0,0,1-5.226,5.89,5.822,5.822,0,0,1-5.345-2.2c-.041-.048-.083-.094-.131-.15M9.006,139.673h-.03q0,1.193,0,2.385c0,6.4-.015,12.794,0,19.19a3.342,3.342,0,0,0,2.06,3.159,3.317,3.317,0,0,0,3.528-.288,3.357,3.357,0,0,0,1.552-2.858q0-12.324,0-24.649c0-.065,0-.129,0-.193a1.2,1.2,0,1,1,2.4.1q0,12.356.006,24.713a3.4,3.4,0,0,0,2.059,3.191,3.538,3.538,0,0,0,4.5-1.312,4.155,4.155,0,0,0,.585-2.357q-.026-12.8-.04-25.593-.009-8.112,0-16.225c0-.344,0-.688.016-1.031a1.22,1.22,0,0,1,1.127-1.218,1.187,1.187,0,0,1,1.247.956,2.279,2.279,0,0,1,.049.512q0,8.542,0,17.084c0,.344-.009.689.017,1.031a1.778,1.778,0,0,0,.141.6,2.135,2.135,0,0,0,2.292,1.214,2.055,2.055,0,0,0,1.719-1.663,4.937,4.937,0,0,0,.066-.961q0-10.606.006-21.211a7.073,7.073,0,0,0-.366-2.424,5.968,5.968,0,0,0-3.271-3.528,6.793,6.793,0,0,0-2.91-.5q-8.378,0-16.757,0a10.973,10.973,0,0,0-1.624.088,6.05,6.05,0,0,0-5.056,5.925q0,7.349,0,14.7,0,3.621,0,7.242a2.287,2.287,0,0,0,.717,1.817,2.032,2.032,0,0,0,2.259.348,1.9,1.9,0,0,0,1.266-1.9q-.005-8.843,0-17.685a4.089,4.089,0,0,1,.034-.621,1.211,1.211,0,0,1,1.169-1.03,1.174,1.174,0,0,1,1.182,1,4.6,4.6,0,0,1,.045.749q0,10.616,0,21.231" transform="translate(0 -83.874)" fill="#12263f"/>
          <path id="Trazado_752709" data-name="Trazado 752709" d="M39.086,9.325A9.318,9.318,0,0,1,57.722,9.31a9.318,9.318,0,1,1-18.636.015m2.369.019A6.958,6.958,0,1,0,55.37,9.35a6.958,6.958,0,1,0-13.915-.006" transform="translate(-31.095 0)" fill="#12263f"/>
        </g>
      </g>
      <g id="Grupo_1022820" data-name="Grupo 1022820" transform="translate(971.721 10550.778)">
        <g id="Grupo_1022818-2" data-name="Grupo 1022818" clip-path="url(#clip-path-3)">
          <path id="Trazado_752701-2" data-name="Trazado 752701" d="M234.058,183.625a11.777,11.777,0,0,1,7.389,4.318,11.822,11.822,0,0,1-7.709,19.12,11.738,11.738,0,0,1-1.625.132q-25.245.01-50.49,0a11.838,11.838,0,0,1-.824-23.657c.674-.023,1.349,0,2.157,0,0-.455,0-.817,0-1.179,0-3.475.073-6.952-.03-10.424a3.4,3.4,0,0,1,3.36-3.5c4.428-.048,8.858-.057,13.286,0a3.357,3.357,0,0,1,3.388,3.587c.01,3.779,0,7.559,0,11.5,1.243,0,2.454,0,3.666,0,.34,0,.745-.1,1.006.042.365.2.832.576.868.917a1.491,1.491,0,0,1-.648,1.086,2.244,2.244,0,0,1-1.183.154c-8.347.008-16.695.111-25.039-.036a9.744,9.744,0,0,0-9.879,9.6A9.632,9.632,0,0,0,181.507,205q25.449.037,50.9,0a9.664,9.664,0,0,0,1.424-19.194,10.949,10.949,0,0,0-1.734-.073q-8.074-.007-16.148,0c-1.584,0-1.9-.485-1.388-1.985a3.183,3.183,0,0,0,.082-1.005q.009-7.767.009-15.533c0-1.222.367-1.6,1.572-1.606q8.167,0,16.334,0c1.149,0,1.5.359,1.5,1.552q.008,7.665,0,15.331c0,.367,0,.733,0,1.136m-41.152-.1q3.27,0,6.54,0c.885,0,1.354-.294,1.338-1.321-.054-3.337-.018-6.676-.021-10.014,0-1.171-.388-1.583-1.6-1.587q-6.233-.022-12.466,0c-1.2,0-1.575.4-1.577,1.6q-.008,4.854,0,9.708c0,1.442.158,1.606,1.658,1.611,2.044.008,4.087,0,6.131,0m38.884-11.187H216.9v10.993H231.79Zm.024-4.515H216.9v2.16h14.917Z" transform="translate(-134.905 -131.744)" fill="#12263f"/>
          <path id="Trazado_752702-2" data-name="Trazado 752702" d="M360.132,284.177a6.93,6.93,0,0,1,13.86.068,6.93,6.93,0,1,1-13.86-.068m6.908,4.809a4.748,4.748,0,0,0,4.755-4.7,4.738,4.738,0,1,0-4.755,4.7" transform="translate(-286.502 -220.627)" fill="#12263f"/>
          <path id="Trazado_752703-2" data-name="Trazado 752703" d="M208,284.218a6.925,6.925,0,1,1-6.949-6.909A6.878,6.878,0,0,1,208,284.218m-6.957-4.71a4.672,4.672,0,0,0-4.7,4.733,4.736,4.736,0,0,0,9.471.022,4.666,4.666,0,0,0-4.774-4.755" transform="translate(-154.455 -220.612)" fill="#12263f"/>
          <path id="Trazado_752704-2" data-name="Trazado 752704" d="M292.281,284.268a6.9,6.9,0,0,1-6.859,6.9,6.928,6.928,0,1,1-.017-13.856,6.838,6.838,0,0,1,6.876,6.957m-6.884-4.762a4.74,4.74,0,0,0-4.777,4.681,4.824,4.824,0,0,0,4.7,4.792,4.755,4.755,0,0,0,4.8-4.764,4.686,4.686,0,0,0-4.73-4.708" transform="translate(-221.521 -220.614)" fill="#12263f"/>
          <path id="Trazado_752705-2" data-name="Trazado 752705" d="M441.859,284.254a6.9,6.9,0,1,1,13.808-.008,6.9,6.9,0,1,1-13.808.008m6.918,4.721a4.829,4.829,0,0,0,4.748-4.75,4.778,4.778,0,0,0-9.557.049,4.828,4.828,0,0,0,4.808,4.7" transform="translate(-351.52 -220.613)" fill="#12263f"/>
          <path id="Trazado_752706-2" data-name="Trazado 752706" d="M370.427,252.537c.282.417.8.85.776,1.247a1.492,1.492,0,0,1-.971,1.032.883.883,0,0,1-1.075-1.008c.066-.451.5-.848.771-1.269Z" transform="translate(-293.674 -200.905)" fill="#12263f"/>
          <path id="Trazado_752708-2" data-name="Trazado 752708" d="M17.324,164.716c-.2.215-.369.416-.554.6a5.751,5.751,0,0,1-4.6,1.777,5.966,5.966,0,0,1-5.424-4.791,8.7,8.7,0,0,1-.125-1.536q-.01-10.336,0-20.673c0-.041-.007-.082-.01-.119-.372.122-.729.268-1.1.357A4.483,4.483,0,0,1,.062,136.8a3.462,3.462,0,0,1-.056-.64c0-7.586-.014-15.171.007-22.757a7.368,7.368,0,0,1,1.131-3.76,8.328,8.328,0,0,1,5.969-4.082,8.7,8.7,0,0,1,1.492-.123q8.7-.012,17.4,0a8.433,8.433,0,0,1,8.55,7.2,20.758,20.758,0,0,1,.1,3.3q.01,9.629.007,19.259a6.979,6.979,0,0,1-.152,1.941,4.364,4.364,0,0,1-3.334,3.227,4.436,4.436,0,0,1-3.126-.411c-.011.024-.032.047-.032.071q0,10.573.011,21.146a5.987,5.987,0,0,1-5.226,5.89,5.822,5.822,0,0,1-5.345-2.2c-.041-.048-.083-.094-.131-.15M9.006,139.673h-.03q0,1.193,0,2.385c0,6.4-.015,12.794,0,19.19a3.342,3.342,0,0,0,2.06,3.159,3.317,3.317,0,0,0,3.528-.288,3.357,3.357,0,0,0,1.552-2.858q0-12.324,0-24.649c0-.065,0-.129,0-.193a1.2,1.2,0,1,1,2.4.1q0,12.356.006,24.713a3.4,3.4,0,0,0,2.059,3.191,3.538,3.538,0,0,0,4.5-1.312,4.155,4.155,0,0,0,.585-2.357q-.026-12.8-.04-25.593-.009-8.112,0-16.225c0-.344,0-.688.016-1.031a1.22,1.22,0,0,1,1.127-1.218,1.187,1.187,0,0,1,1.247.956,2.279,2.279,0,0,1,.049.512q0,8.542,0,17.084c0,.344-.009.689.017,1.031a1.778,1.778,0,0,0,.141.6,2.135,2.135,0,0,0,2.292,1.214,2.055,2.055,0,0,0,1.719-1.663,4.937,4.937,0,0,0,.066-.961q0-10.606.006-21.211a7.073,7.073,0,0,0-.366-2.424,5.968,5.968,0,0,0-3.271-3.528,6.793,6.793,0,0,0-2.91-.5q-8.378,0-16.757,0a10.973,10.973,0,0,0-1.624.088,6.05,6.05,0,0,0-5.056,5.925q0,7.349,0,14.7,0,3.621,0,7.242a2.287,2.287,0,0,0,.717,1.817,2.032,2.032,0,0,0,2.259.348,1.9,1.9,0,0,0,1.266-1.9q-.005-8.843,0-17.685a4.089,4.089,0,0,1,.034-.621,1.211,1.211,0,0,1,1.169-1.03,1.174,1.174,0,0,1,1.182,1,4.6,4.6,0,0,1,.045.749q0,10.616,0,21.231" transform="translate(0 -83.874)" fill="#12263f"/>
          <path id="Trazado_752709-2" data-name="Trazado 752709" d="M39.086,9.325A9.318,9.318,0,0,1,57.722,9.31a9.318,9.318,0,1,1-18.636.015m2.369.019A6.958,6.958,0,1,0,55.37,9.35a6.958,6.958,0,1,0-13.915-.006" transform="translate(-31.095 0)" fill="#12263f"/>
        </g>
      </g>
      <g id="Grupo_1022822" data-name="Grupo 1022822" transform="translate(1009.598 10550.778)">
        <g id="Grupo_1022821" data-name="Grupo 1022821" clip-path="url(#clip-path-5)">
          <path id="Trazado_752711" data-name="Trazado 752711" d="M4.11,33.457a4.2,4.2,0,0,0,1.757-.733,6.026,6.026,0,0,0,.49-.431q3.5-3.5,7-7c.06-.06.115-.125.207-.225l-1.189-1.139,1.73-1.73c.349.215.711.455,1.088.667a12.23,12.23,0,0,0,17.913-7.723c.149-.6.2-1.222.3-1.833.014-.085.037-.168.056-.252V11.423c-.106-.652-.185-1.31-.324-1.955A12.224,12.224,0,0,0,9.4,9.136a11.953,11.953,0,0,0,1.664,9.9c.059.091.12.181.178.273a.1.1,0,0,1,.011.043L9.54,21.063,8.391,19.881c-.088.077-.138.116-.182.16q-3.548,3.547-7.093,7.1a3.674,3.674,0,0,0,1.3,6.1c.253.091.517.15.776.223Zm7.821-8.376L9.472,27.539c-1.333,1.333-2.659,2.673-4,4a2.515,2.515,0,1,1-3.524-3.587Q5.081,24.8,8.232,21.66c.037-.036.079-.067.162-.138l1.09,1.167L12.771,19.4a11.086,11.086,0,1,1,17.71-1.1A10.667,10.667,0,0,1,24.144,22.9,11.049,11.049,0,0,1,13.932,20.59l-2.473,2.495-.426-.542-.84.822,1.737,1.716" transform="translate(0 0)" fill="#12263f"/>
          <path id="Trazado_752712" data-name="Trazado 752712" d="M55.07,64.048a9.239,9.239,0,1,0-9.25-9.212,9.231,9.231,0,0,0,9.25,9.212M63.131,54.8a8.077,8.077,0,1,1-8.085-8.069A8.079,8.079,0,0,1,63.131,54.8" transform="translate(-33.83 -42.585)" fill="#12263f"/>
          <path id="Trazado_752713" data-name="Trazado 752713" d="M415.561,434.566a1.331,1.331,0,0,0,1.9.051c.56-.532,1.1-1.088,1.639-1.627l-.839-.814c-.457.459-.935.95-1.429,1.424a1.876,1.876,0,0,1-.4.2,1.258,1.258,0,0,0-.229.167c-.21.189-.415.383-.642.595" transform="translate(-412.859 -403.863)" fill="#12263f"/>
          <path id="Trazado_752714" data-name="Trazado 752714" d="M87.747,87.4v1.117A5.418,5.418,0,0,1,93.1,93.865h1.1A6.406,6.406,0,0,0,87.747,87.4" transform="translate(-66.495 -81.672)" fill="#12263f"/>
        </g>
      </g>
      <g transform="matrix(1, 0, 0, 1, 600, 10512.79)" filter="url(#Trazado_752715)">
        <g id="Trazado_752715-2" data-name="Trazado 752715" transform="translate(285.82 60.05)" fill="#fff">
          <path d="M 231.3870086669922 36.51607894897461 C 231.3586120605469 36.51607894897461 231.3334503173828 36.50629043579102 231.3122253417969 36.48696899414062 C 231.2895202636719 36.46625900268555 231.2761993408203 36.43617248535156 231.2760620117188 36.40473175048828 L 231.2760620117188 33.22079086303711 C 231.2760620117188 31.07102012634277 229.527099609375 29.32206153869629 227.3773498535156 29.32206153869629 L 211.3987274169922 29.32206153869629 C 210.3517761230469 29.32206153869629 209.5000152587891 28.47030067443848 209.5000152587891 27.42334175109863 L 209.5000152587891 15.28736114501953 C 209.5000152587891 14.24040126800537 210.3517761230469 13.38864040374756 211.3987274169922 13.38864040374756 L 227.3725128173828 13.38864040374756 C 229.5222778320312 13.38864040374756 231.2712249755859 11.63968086242676 231.2712249755859 9.489920616149902 L 231.2712249755859 6.315820693969727 C 231.2714691162109 6.25869083404541 231.3212890625 6.208981037139893 231.3822937011719 6.208981037139893 C 231.4130401611328 6.209128379821777 231.4427032470703 6.222021102905273 231.4637145996094 6.244409561157227 L 243.7466125488281 19.87490081787109 C 244.5079498291016 20.72135162353516 244.5079498291016 21.99901008605957 243.7459869384766 22.84617042541504 L 231.4689178466797 36.48039627075195 C 231.4416351318359 36.50986862182617 231.4093627929688 36.51607894897461 231.3870086669922 36.51607894897461 Z" stroke="none"/>
          <path d="M 232.2712249755859 8.634311676025391 L 232.2712249755859 9.489921569824219 C 232.2712249755859 12.19108009338379 230.0736694335938 14.38864135742188 227.3725128173828 14.38864135742188 L 211.3987274169922 14.38864135742188 C 210.9031829833984 14.38864135742188 210.5000152587891 14.79180145263672 210.5000152587891 15.28736114501953 L 210.5000152587891 27.42333984375 C 210.5000152587891 27.91889953613281 210.9031829833984 28.32205963134766 211.3987274169922 28.32205963134766 L 227.3773498535156 28.32205963134766 C 230.0785064697266 28.32205963134766 232.2760620117188 30.51962089538574 232.2760620117188 33.22079086303711 L 232.2760620117188 34.08958435058594 L 243.0024871826172 22.17743110656738 C 243.4215393066406 21.71152114868164 243.4215393066406 21.00885009765625 243.0037384033203 20.54433059692383 L 232.2712249755859 8.634311676025391 M 231.3822784423828 5.208980560302734 C 231.3837738037109 5.208980560302734 231.38525390625 5.208984375 231.3867492675781 5.208992004394531 C 231.6979217529297 5.210441589355469 231.9940643310547 5.341850280761719 232.2037506103516 5.571811676025391 L 244.4894866943359 19.20547103881836 C 245.5914764404297 20.43066024780273 245.5914764404297 22.28970146179199 244.4894866943359 23.51490020751953 L 232.2085723876953 37.15338897705078 C 231.7950439453125 37.6070442199707 231.0925445556641 37.63940811157227 230.6389312744141 37.22634124755859 C 230.4089202880859 37.01666259765625 230.2775115966797 36.72051239013672 230.2760620117188 36.40938186645508 L 230.2760620117188 33.22079086303711 C 230.2760620117188 31.61973190307617 228.9784088134766 30.32205963134766 227.3773498535156 30.32205963134766 L 211.3987274169922 30.32205963134766 C 209.7976837158203 30.32205963134766 208.5000152587891 29.02440071105957 208.5000152587891 27.42333984375 L 208.5000152587891 15.28736114501953 C 208.5000152587891 13.68630027770996 209.7976837158203 12.38864135742188 211.3987274169922 12.38864135742188 L 227.3725128173828 12.38864135742188 C 228.9735870361328 12.38864135742188 230.2712249755859 11.09098052978516 230.2712249755859 9.489921569824219 L 230.2712249755859 6.315822601318359 C 230.2736663818359 5.703750610351562 230.7708129882812 5.208992004394531 231.3822784423828 5.208980560302734 Z" stroke="none" fill="#12263f"/>
        </g>
      </g>
      <g transform="matrix(1, 0, 0, 1, 600, 10512.79)" filter="url(#Trazado_752718)">
        <g id="Trazado_752718-2" data-name="Trazado 752718" transform="translate(446.73 60.05)" fill="#fff">
          <path d="M 231.3870086669922 36.51607894897461 C 231.3586120605469 36.51607894897461 231.3334503173828 36.50629043579102 231.3122253417969 36.48696899414062 C 231.2895202636719 36.46625900268555 231.2761993408203 36.43617248535156 231.2760620117188 36.40473175048828 L 231.2760620117188 33.22079086303711 C 231.2760620117188 31.07102012634277 229.527099609375 29.32206153869629 227.3773498535156 29.32206153869629 L 211.3987274169922 29.32206153869629 C 210.3517761230469 29.32206153869629 209.5000152587891 28.47030067443848 209.5000152587891 27.42334175109863 L 209.5000152587891 15.28736114501953 C 209.5000152587891 14.24040126800537 210.3517761230469 13.38864040374756 211.3987274169922 13.38864040374756 L 227.3725128173828 13.38864040374756 C 229.5222778320312 13.38864040374756 231.2712249755859 11.63968086242676 231.2712249755859 9.489920616149902 L 231.2712249755859 6.315820693969727 C 231.2714691162109 6.25869083404541 231.3212890625 6.208981037139893 231.3822937011719 6.208981037139893 C 231.4130401611328 6.209128379821777 231.4427032470703 6.222021102905273 231.4637145996094 6.244409561157227 L 243.7466125488281 19.87490081787109 C 244.5079498291016 20.72135162353516 244.5079498291016 21.99901008605957 243.7459869384766 22.84617042541504 L 231.4689178466797 36.48039627075195 C 231.4416351318359 36.50986862182617 231.4093627929688 36.51607894897461 231.3870086669922 36.51607894897461 Z" stroke="none"/>
          <path d="M 232.2712249755859 8.634311676025391 L 232.2712249755859 9.489921569824219 C 232.2712249755859 12.19108009338379 230.0736694335938 14.38864135742188 227.3725128173828 14.38864135742188 L 211.3987274169922 14.38864135742188 C 210.9031829833984 14.38864135742188 210.5000152587891 14.79180145263672 210.5000152587891 15.28736114501953 L 210.5000152587891 27.42333984375 C 210.5000152587891 27.91889953613281 210.9031829833984 28.32205963134766 211.3987274169922 28.32205963134766 L 227.3773498535156 28.32205963134766 C 230.0785064697266 28.32205963134766 232.2760620117188 30.51962089538574 232.2760620117188 33.22079086303711 L 232.2760620117188 34.08958435058594 L 243.0024871826172 22.17743110656738 C 243.4215393066406 21.71152114868164 243.4215393066406 21.00885009765625 243.0037384033203 20.54433059692383 L 232.2712249755859 8.634311676025391 M 231.3822784423828 5.208980560302734 C 231.3837738037109 5.208980560302734 231.38525390625 5.208984375 231.3867492675781 5.208992004394531 C 231.6979217529297 5.210441589355469 231.9940643310547 5.341850280761719 232.2037506103516 5.571811676025391 L 244.4894866943359 19.20547103881836 C 245.5914764404297 20.43066024780273 245.5914764404297 22.28970146179199 244.4894866943359 23.51490020751953 L 232.2085723876953 37.15338897705078 C 231.7950439453125 37.6070442199707 231.0925445556641 37.63940811157227 230.6389312744141 37.22634124755859 C 230.4089202880859 37.01666259765625 230.2775115966797 36.72051239013672 230.2760620117188 36.40938186645508 L 230.2760620117188 33.22079086303711 C 230.2760620117188 31.61973190307617 228.9784088134766 30.32205963134766 227.3773498535156 30.32205963134766 L 211.3987274169922 30.32205963134766 C 209.7976837158203 30.32205963134766 208.5000152587891 29.02440071105957 208.5000152587891 27.42333984375 L 208.5000152587891 15.28736114501953 C 208.5000152587891 13.68630027770996 209.7976837158203 12.38864135742188 211.3987274169922 12.38864135742188 L 227.3725128173828 12.38864135742188 C 228.9735870361328 12.38864135742188 230.2712249755859 11.09098052978516 230.2712249755859 9.489921569824219 L 230.2712249755859 6.315822601318359 C 230.2736663818359 5.703750610351562 230.7708129882812 5.208992004394531 231.3822784423828 5.208980560302734 Z" stroke="none" fill="#12263f"/>
        </g>
      </g>
      <g id="Grupo_1022823" data-name="Grupo 1022823" transform="translate(1149.968 10550.778)">
        <g id="Grupo_1022825" data-name="Grupo 1022825" transform="translate(0 0)">
          <path id="Trazado_752708-3" data-name="Trazado 752708" d="M17.324,164.716c-.2.215-.369.416-.554.6a5.751,5.751,0,0,1-4.6,1.777,5.966,5.966,0,0,1-5.424-4.791,8.7,8.7,0,0,1-.125-1.536q-.01-10.336,0-20.673c0-.041-.007-.082-.01-.119-.372.122-.729.268-1.1.357A4.483,4.483,0,0,1,.062,136.8a3.462,3.462,0,0,1-.056-.64c0-7.586-.014-15.171.007-22.757a7.368,7.368,0,0,1,1.131-3.76,8.328,8.328,0,0,1,5.969-4.082,8.7,8.7,0,0,1,1.492-.123q8.7-.012,17.4,0a8.433,8.433,0,0,1,8.55,7.2,20.758,20.758,0,0,1,.1,3.3q.01,9.629.007,19.259a6.979,6.979,0,0,1-.152,1.941,4.364,4.364,0,0,1-3.334,3.227,4.436,4.436,0,0,1-3.126-.411c-.011.024-.032.047-.032.071q0,10.573.011,21.146a5.987,5.987,0,0,1-5.226,5.89,5.822,5.822,0,0,1-5.345-2.2c-.041-.048-.083-.094-.131-.15M9.006,139.673h-.03q0,1.193,0,2.385c0,6.4-.015,12.794,0,19.19a3.342,3.342,0,0,0,2.06,3.159,3.317,3.317,0,0,0,3.528-.288,3.357,3.357,0,0,0,1.552-2.858q0-12.324,0-24.649c0-.065,0-.129,0-.193a1.2,1.2,0,1,1,2.4.1q0,12.356.006,24.713a3.4,3.4,0,0,0,2.059,3.191,3.538,3.538,0,0,0,4.5-1.312,4.155,4.155,0,0,0,.585-2.357q-.026-12.8-.04-25.593-.009-8.112,0-16.225c0-.344,0-.688.016-1.031a1.22,1.22,0,0,1,1.127-1.218,1.187,1.187,0,0,1,1.247.956,2.279,2.279,0,0,1,.049.512q0,8.542,0,17.084c0,.344-.009.689.017,1.031a1.778,1.778,0,0,0,.141.6,2.135,2.135,0,0,0,2.292,1.214,2.055,2.055,0,0,0,1.719-1.663,4.937,4.937,0,0,0,.066-.961q0-10.606.006-21.211a7.073,7.073,0,0,0-.366-2.424,5.968,5.968,0,0,0-3.271-3.528,6.793,6.793,0,0,0-2.91-.5q-8.378,0-16.757,0a10.973,10.973,0,0,0-1.624.088,6.05,6.05,0,0,0-5.056,5.925q0,7.349,0,14.7,0,3.621,0,7.242a2.287,2.287,0,0,0,.717,1.817,2.032,2.032,0,0,0,2.259.348,1.9,1.9,0,0,0,1.266-1.9q-.005-8.843,0-17.685a4.089,4.089,0,0,1,.034-.621,1.211,1.211,0,0,1,1.169-1.03,1.174,1.174,0,0,1,1.182,1,4.6,4.6,0,0,1,.045.749q0,10.616,0,21.231" transform="translate(0 -83.874)" fill="#12263f"/>
          <path id="Trazado_752709-3" data-name="Trazado 752709" d="M39.086,9.325A9.318,9.318,0,0,1,57.722,9.31a9.318,9.318,0,1,1-18.636.015m2.369.019A6.958,6.958,0,1,0,55.37,9.35a6.958,6.958,0,1,0-13.915-.006" transform="translate(-31.095 0)" fill="#12263f"/>
        </g>
      </g>
      <g id="Grupo_1022827" data-name="Grupo 1022827" transform="translate(1193.185 10588.664)">
        <g id="Grupo_1022826" data-name="Grupo 1022826" clip-path="url(#clip-path-6)">
          <path id="Trazado_752716" data-name="Trazado 752716" d="M0,22.224c.254-.486.516-.968.762-1.458q1.492-2.972,2.969-5.95a.521.521,0,0,1,.549-.339c1.781.014,3.563.007,5.344.007h.482V5.8H8.734a2.286,2.286,0,0,1-.05-.317c0-1.074-.014-2.149,0-3.223A2.137,2.137,0,0,1,11,0Q26.053,0,41.111,0a2.145,2.145,0,0,1,2.327,2.321q0,1.527,0,3.054c0,.123-.013.247-.021.405H42.012V33.266H38.4V31.873h2.114V5.816H11.624v8.642H22.21l-.7-1.781c.148-.07.282-.138.418-.2q1.807-.783,3.615-1.563a2.266,2.266,0,0,1,3.3,1.382Q33.627,24.75,38.41,37.2a2.249,2.249,0,0,1-.036,2.149,2.06,2.06,0,0,1-.77.757c-1.545.723-3.115,1.392-4.728,2.1L30.5,36,30.423,36c-.007.13-.02.26-.02.39q0,3.265,0,6.531c0,.168-.017.337-.027.505H0V22.224M1.456,41.961H28.929c.009-.12.022-.216.022-.313q0-4.707,0-9.414a1.652,1.652,0,0,0-.118-.573c-1.035-2.7-2.085-5.4-3.11-8.1a.539.539,0,0,0-.611-.408q-11.6.015-23.2.008H1.456Zm21.93-28.567L33.738,40.319l2.848-1.195c.692-.29.811-.577.536-1.29l-3.181-8.252-6.529-16.94c-.2-.53-.511-.737-.952-.559-1.018.411-2.022.858-3.074,1.31M10.157,4.3H41.994c0-.613,0-1.191,0-1.769,0-.917-.17-1.088-1.085-1.088H11.217a3.074,3.074,0,0,0-.466.012.6.6,0,0,0-.587.57c-.024.758-.007,1.518-.007,2.275M24.967,21.7c-.227-.624-.459-1.212-.652-1.811a.447.447,0,0,0-.518-.355c-1.68.014-3.361.025-5.041-.005a.772.772,0,0,0-.855.537c-.228.549-.519,1.072-.8,1.634Zm-8.417-2.1c-.08-.035-.1-.055-.129-.055-1.992,0-3.984-.007-5.976,0a.4.4,0,0,0-.3.157c-.34.644-.659,1.3-.984,1.952.058.031.08.054.1.054,2.006,0,4.012.008,6.018,0a.39.39,0,0,0,.293-.163c.334-.635.649-1.28.98-1.945m1.8-3.6c-.074-.036-.1-.058-.122-.058q-3-.005-6.009,0a.352.352,0,0,0-.267.14c-.338.644-.659,1.3-.983,1.944.055.034.066.047.078.047q3.025.011,6.049.016a.327.327,0,0,0,.251-.1c.343-.656.671-1.32,1-1.982m-9.737,3.54c-1.875,0-3.652,0-5.429.006a.361.361,0,0,0-.275.135c-.344.657-.67,1.324-1.025,2.036,1.862,0,3.653,0,5.444-.006a.351.351,0,0,0,.265-.141c.337-.646.656-1.3,1.019-2.029M3.7,18.088c1.86,0,3.64,0,5.42-.005a.367.367,0,0,0,.28-.128c.338-.645.657-1.3.98-1.949-.068-.039-.091-.064-.113-.064-1.767,0-3.534-.009-5.3,0a.352.352,0,0,0-.263.151c-.331.636-.646,1.28-1,2m19.887-.022c-.267-.673-.514-1.314-.783-1.946a.375.375,0,0,0-.28-.181c-.775-.015-1.551-.011-2.326,0-.087,0-.221.033-.253.093-.348.663-.68,1.335-1.033,2.037Z" transform="translate(0 0.001)" fill="#12263f"/>
          <rect id="Rectángulo_358795" data-name="Rectángulo 358795" width="5.726" height="1.406" transform="translate(32.608 7.992)" fill="#12263f"/>
          <rect id="Rectángulo_358796" data-name="Rectángulo 358796" width="5.738" height="1.4" transform="translate(32.606 10.881)" fill="#12263f"/>
          <path id="Trazado_752717" data-name="Trazado 752717" d="M54.249,147.381c-1.5,0-3,.019-4.493-.007a2.03,2.03,0,0,1-1.921-1.41,2.2,2.2,0,0,1,.616-2.394,2.147,2.147,0,0,1,1.443-.522c2.882,0,5.765-.012,8.648,0a2.166,2.166,0,1,1,.031,4.331c-1.441.022-2.882.005-4.324.005v-.006m-.011-1.441h1.78c.862,0,1.724.007,2.585-.009a.655.655,0,0,0,.685-.66.7.7,0,0,0-.632-.765,2.568,2.568,0,0,0-.38-.014h-8.1a2.512,2.512,0,0,0-.423.019.672.672,0,0,0-.6.747c.018.438.283.677.8.679,1.427.007,2.854,0,4.281,0" transform="translate(-39.019 -116.992)" fill="#12263f"/>
          <rect id="Rectángulo_358797" data-name="Rectángulo 358797" width="5.743" height="1.385" transform="translate(3.647 35.492)" fill="#12263f"/>
          <rect id="Rectángulo_358798" data-name="Rectángulo 358798" width="5.741" height="1.385" transform="translate(3.648 38.386)" fill="#12263f"/>
        </g>
      </g>
    </g>
    <g id="Grupo_1022829" data-name="Grupo 1022829" transform="translate(423.819 10263.79)">
      <circle id="Elipse_8447" data-name="Elipse 8447" cx="18.994" cy="18.994" r="18.994" transform="translate(0 0)" fill="#91b3fa"/>
      <circle id="Elipse_8448" data-name="Elipse 8448" cx="15.914" cy="15.914" r="15.914" transform="translate(3.08 3.08)" fill="#fff"/>
      <text id="_1" data-name="1" transform="translate(13.181 26.402)" fill="#12263f" font-size="22" font-family="Roboto-Bold, Roboto" font-weight="700"><tspan x="0" y="0">1</tspan></text>
    </g>
    <g id="Grupo_1022830" data-name="Grupo 1022830" transform="translate(622.819 10263.79)">
      <circle id="Elipse_8447-2" data-name="Elipse 8447" cx="18.994" cy="18.994" r="18.994" transform="translate(0 0)" fill="#57dbd8"/>
      <circle id="Elipse_8448-2" data-name="Elipse 8448" cx="15.914" cy="15.914" r="15.914" transform="translate(3.08 3.08)" fill="#fff"/>
      <text id="_2" data-name="2" transform="translate(13.181 26.402)" fill="#12263f" font-size="22" font-family="Roboto-Bold, Roboto" font-weight="700"><tspan x="0" y="0">2</tspan></text>
    </g>
    <g id="Grupo_1022831" data-name="Grupo 1022831" transform="translate(825.819 10263.79)">
      <circle id="Elipse_8447-3" data-name="Elipse 8447" cx="18.994" cy="18.994" r="18.994" transform="translate(0 0)" fill="#91b3fa"/>
      <circle id="Elipse_8448-3" data-name="Elipse 8448" cx="15.914" cy="15.914" r="15.914" transform="translate(3.08 3.08)" fill="#fff"/>
      <text id="_3" data-name="3" transform="translate(13.181 26.402)" fill="#12263f" font-size="22" font-family="Roboto-Bold, Roboto" font-weight="700"><tspan x="0" y="0">3</tspan></text>
    </g>
    <g id="Grupo_1022832" data-name="Grupo 1022832" transform="translate(982.012 10263.79)">
      <circle id="Elipse_8447-4" data-name="Elipse 8447" cx="18.994" cy="18.994" r="18.994" transform="translate(0 0)" fill="#57dbd8"/>
      <circle id="Elipse_8448-4" data-name="Elipse 8448" cx="15.914" cy="15.914" r="15.914" transform="translate(3.08 3.08)" fill="#fff"/>
      <text id="_4" data-name="4" transform="translate(13.181 26.402)" fill="#12263f" font-size="22" font-family="Roboto-Bold, Roboto" font-weight="700"><tspan x="0" y="0">4</tspan></text>
    </g>
    <g id="Grupo_1022833" data-name="Grupo 1022833" transform="translate(1125 10263.79)">
      <circle id="Elipse_8447-5" data-name="Elipse 8447" cx="18.994" cy="18.994" r="18.994" transform="translate(0 0)" fill="#91b3fa"/>
      <circle id="Elipse_8448-5" data-name="Elipse 8448" cx="15.914" cy="15.914" r="15.914" transform="translate(3.08 3.08)" fill="#fff"/>
      <text id="_5" data-name="5" transform="translate(13.181 26.402)" fill="#12263f" font-size="22" font-family="Roboto-Bold, Roboto" font-weight="700"><tspan x="0" y="0">5</tspan></text>
    </g>
  </g>
</svg>
