<svg xmlns="http://www.w3.org/2000/svg" xmlns:xlink="http://www.w3.org/1999/xlink" width="136.934" height="135.983" viewBox="0 0 136.934 135.983">
  <defs>
    <clipPath id="clip-path">
      <rect id="Rectángulo_352576" data-name="Rectángulo 352576" width="68.016" height="67.953" fill="none"/>
    </clipPath>
  </defs>
  <g id="Grupo_1022424" data-name="Grupo 1022424" transform="translate(-263 -595.534)">
    <g id="Grupo_156356" data-name="Grupo 156356" transform="translate(263 650.743)">
      <g id="Grupo_156332" data-name="Grupo 156332" transform="translate(0 0)">
        <path id="Trazado_99257" data-name="Trazado 99257" d="M419.306,105.213a2.549,2.549,0,1,1-2.548-2.434A2.492,2.492,0,0,1,419.306,105.213Z" transform="translate(-414.214 -102.779)" fill="#12263f"/>
        <path id="Trazado_116526" data-name="Trazado 116526" d="M419.306,105.213a2.549,2.549,0,1,1-2.548-2.434A2.492,2.492,0,0,1,419.306,105.213Z" transform="translate(-356.555 -102.779)" fill="#12263f"/>
        <path id="Trazado_99258" data-name="Trazado 99258" d="M427.752,105.213a2.549,2.549,0,1,1-2.545-2.434A2.492,2.492,0,0,1,427.752,105.213Z" transform="translate(-411.129 -102.779)" fill="#12263f"/>
        <path id="Trazado_116527" data-name="Trazado 116527" d="M427.752,105.213a2.549,2.549,0,1,1-2.545-2.434A2.492,2.492,0,0,1,427.752,105.213Z" transform="translate(-353.469 -102.779)" fill="#12263f"/>
        <path id="Trazado_99259" data-name="Trazado 99259" d="M436.2,105.213a2.549,2.549,0,1,1-2.545-2.434A2.492,2.492,0,0,1,436.2,105.213Z" transform="translate(-408.043 -102.779)" fill="#12263f"/>
        <path id="Trazado_116531" data-name="Trazado 116531" d="M436.2,105.213a2.549,2.549,0,1,1-2.545-2.434A2.492,2.492,0,0,1,436.2,105.213Z" transform="translate(-350.384 -102.779)" fill="#12263f"/>
        <path id="Trazado_99260" data-name="Trazado 99260" d="M444.645,105.213a2.549,2.549,0,1,1-2.547-2.434A2.492,2.492,0,0,1,444.645,105.213Z" transform="translate(-404.958 -102.779)" fill="#12263f"/>
        <path id="Trazado_116532" data-name="Trazado 116532" d="M444.645,105.213a2.549,2.549,0,1,1-2.547-2.434A2.492,2.492,0,0,1,444.645,105.213Z" transform="translate(-347.298 -102.779)" fill="#12263f"/>
        <path id="Trazado_99261" data-name="Trazado 99261" d="M453.091,105.213a2.549,2.549,0,1,1-2.545-2.434A2.492,2.492,0,0,1,453.091,105.213Z" transform="translate(-401.872 -102.779)" fill="#12263f"/>
      </g>
      <g id="Grupo_156331" data-name="Grupo 156331" transform="translate(0 12.649)">
        <ellipse id="Elipse_3975" data-name="Elipse 3975" cx="2.546" cy="2.435" rx="2.546" ry="2.435" transform="translate(0 0.001)" fill="#12263f"/>
        <ellipse id="Elipse_4742" data-name="Elipse 4742" cx="2.546" cy="2.435" rx="2.546" ry="2.435" transform="translate(57.659 0.001)" fill="#12263f"/>
        <path id="Trazado_99268" data-name="Trazado 99268" d="M427.752,112.721a2.549,2.549,0,1,1-2.545-2.434A2.493,2.493,0,0,1,427.752,112.721Z" transform="translate(-411.129 -110.287)" fill="#12263f"/>
        <path id="Trazado_116528" data-name="Trazado 116528" d="M427.752,112.721a2.549,2.549,0,1,1-2.545-2.434A2.493,2.493,0,0,1,427.752,112.721Z" transform="translate(-353.469 -110.287)" fill="#12263f"/>
        <ellipse id="Elipse_3976" data-name="Elipse 3976" cx="2.546" cy="2.435" rx="2.546" ry="2.435" transform="translate(23.064 0.001)" fill="#12263f"/>
        <ellipse id="Elipse_4743" data-name="Elipse 4743" cx="2.546" cy="2.435" rx="2.546" ry="2.435" transform="translate(80.723 0.001)" fill="#12263f"/>
        <path id="Trazado_99269" data-name="Trazado 99269" d="M444.645,112.721a2.549,2.549,0,1,1-2.547-2.434A2.494,2.494,0,0,1,444.645,112.721Z" transform="translate(-404.958 -110.287)" fill="#12263f"/>
        <path id="Trazado_116533" data-name="Trazado 116533" d="M444.645,112.721a2.549,2.549,0,1,1-2.547-2.434A2.494,2.494,0,0,1,444.645,112.721Z" transform="translate(-347.298 -110.287)" fill="#12263f"/>
        <path id="Trazado_99270" data-name="Trazado 99270" d="M453.091,112.721a2.549,2.549,0,1,1-2.545-2.434A2.493,2.493,0,0,1,453.091,112.721Z" transform="translate(-401.872 -110.287)" fill="#12263f"/>
      </g>
      <g id="Grupo_156330" data-name="Grupo 156330" transform="translate(0 25.3)">
        <path id="Trazado_99274" data-name="Trazado 99274" d="M419.306,120.23a2.549,2.549,0,1,1-2.548-2.436A2.494,2.494,0,0,1,419.306,120.23Z" transform="translate(-414.214 -117.794)" fill="#12263f"/>
        <path id="Trazado_116529" data-name="Trazado 116529" d="M419.306,120.23a2.549,2.549,0,1,1-2.548-2.436A2.494,2.494,0,0,1,419.306,120.23Z" transform="translate(-356.555 -117.794)" fill="#12263f"/>
        <path id="Trazado_99275" data-name="Trazado 99275" d="M427.752,120.23a2.549,2.549,0,1,1-2.545-2.436A2.493,2.493,0,0,1,427.752,120.23Z" transform="translate(-411.129 -117.794)" fill="#12263f"/>
        <path id="Trazado_116530" data-name="Trazado 116530" d="M427.752,120.23a2.549,2.549,0,1,1-2.545-2.436A2.493,2.493,0,0,1,427.752,120.23Z" transform="translate(-353.469 -117.794)" fill="#12263f"/>
        <path id="Trazado_99276" data-name="Trazado 99276" d="M436.2,120.23a2.549,2.549,0,1,1-2.545-2.436A2.493,2.493,0,0,1,436.2,120.23Z" transform="translate(-408.043 -117.794)" fill="#12263f"/>
        <path id="Trazado_116534" data-name="Trazado 116534" d="M436.2,120.23a2.549,2.549,0,1,1-2.545-2.436A2.493,2.493,0,0,1,436.2,120.23Z" transform="translate(-350.384 -117.794)" fill="#12263f"/>
        <path id="Trazado_99277" data-name="Trazado 99277" d="M444.645,120.23a2.549,2.549,0,1,1-2.547-2.436A2.494,2.494,0,0,1,444.645,120.23Z" transform="translate(-404.958 -117.794)" fill="#12263f"/>
        <path id="Trazado_116535" data-name="Trazado 116535" d="M444.645,120.23a2.549,2.549,0,1,1-2.547-2.436A2.494,2.494,0,0,1,444.645,120.23Z" transform="translate(-347.298 -117.794)" fill="#12263f"/>
        <path id="Trazado_99278" data-name="Trazado 99278" d="M453.091,120.23a2.549,2.549,0,1,1-2.545-2.436A2.493,2.493,0,0,1,453.091,120.23Z" transform="translate(-401.872 -117.794)" fill="#12263f"/>
      </g>
      <g id="Grupo_156327" data-name="Grupo 156327" transform="translate(0 63.252)">
        <path id="Trazado_116550" data-name="Trazado 116550" d="M419.306,120.23a2.549,2.549,0,1,1-2.548-2.436A2.494,2.494,0,0,1,419.306,120.23Z" transform="translate(-414.214 -117.794)" fill="#12263f"/>
        <path id="Trazado_116551" data-name="Trazado 116551" d="M419.306,120.23a2.549,2.549,0,1,1-2.548-2.436A2.494,2.494,0,0,1,419.306,120.23Z" transform="translate(-356.555 -117.794)" fill="#12263f"/>
        <path id="Trazado_116552" data-name="Trazado 116552" d="M427.752,120.23a2.549,2.549,0,1,1-2.545-2.436A2.493,2.493,0,0,1,427.752,120.23Z" transform="translate(-411.129 -117.794)" fill="#12263f"/>
        <path id="Trazado_116553" data-name="Trazado 116553" d="M427.752,120.23a2.549,2.549,0,1,1-2.545-2.436A2.493,2.493,0,0,1,427.752,120.23Z" transform="translate(-353.469 -117.794)" fill="#12263f"/>
        <path id="Trazado_116554" data-name="Trazado 116554" d="M436.2,120.23a2.549,2.549,0,1,1-2.545-2.436A2.493,2.493,0,0,1,436.2,120.23Z" transform="translate(-408.043 -117.794)" fill="#12263f"/>
        <path id="Trazado_116555" data-name="Trazado 116555" d="M436.2,120.23a2.549,2.549,0,1,1-2.545-2.436A2.493,2.493,0,0,1,436.2,120.23Z" transform="translate(-350.384 -117.794)" fill="#12263f"/>
        <path id="Trazado_116556" data-name="Trazado 116556" d="M444.645,120.23a2.549,2.549,0,1,1-2.547-2.436A2.494,2.494,0,0,1,444.645,120.23Z" transform="translate(-404.958 -117.794)" fill="#12263f"/>
        <path id="Trazado_116557" data-name="Trazado 116557" d="M444.645,120.23a2.549,2.549,0,1,1-2.547-2.436A2.494,2.494,0,0,1,444.645,120.23Z" transform="translate(-347.298 -117.794)" fill="#12263f"/>
        <path id="Trazado_116558" data-name="Trazado 116558" d="M453.091,120.23a2.549,2.549,0,1,1-2.545-2.436A2.493,2.493,0,0,1,453.091,120.23Z" transform="translate(-401.872 -117.794)" fill="#12263f"/>
      </g>
      <g id="Grupo_156329" data-name="Grupo 156329" transform="translate(0 37.951)">
        <ellipse id="Elipse_3980" data-name="Elipse 3980" cx="2.546" cy="2.435" rx="2.546" ry="2.435" transform="translate(0 0.002)" fill="#12263f"/>
        <ellipse id="Elipse_4744" data-name="Elipse 4744" cx="2.546" cy="2.435" rx="2.546" ry="2.435" transform="translate(57.659 0.002)" fill="#12263f"/>
        <path id="Trazado_99285" data-name="Trazado 99285" d="M427.752,127.738a2.549,2.549,0,1,1-2.545-2.436A2.491,2.491,0,0,1,427.752,127.738Z" transform="translate(-411.129 -125.302)" fill="#12263f"/>
        <path id="Trazado_116536" data-name="Trazado 116536" d="M427.752,127.738a2.549,2.549,0,1,1-2.545-2.436A2.491,2.491,0,0,1,427.752,127.738Z" transform="translate(-353.469 -125.302)" fill="#12263f"/>
        <ellipse id="Elipse_3981" data-name="Elipse 3981" cx="2.546" cy="2.435" rx="2.546" ry="2.435" transform="translate(23.064 0.002)" fill="#12263f"/>
        <ellipse id="Elipse_4745" data-name="Elipse 4745" cx="2.546" cy="2.435" rx="2.546" ry="2.435" transform="translate(80.723 0.002)" fill="#12263f"/>
        <path id="Trazado_99286" data-name="Trazado 99286" d="M444.645,127.738A2.549,2.549,0,1,1,442.1,125.3,2.492,2.492,0,0,1,444.645,127.738Z" transform="translate(-404.958 -125.302)" fill="#12263f"/>
        <path id="Trazado_116537" data-name="Trazado 116537" d="M444.645,127.738A2.549,2.549,0,1,1,442.1,125.3,2.492,2.492,0,0,1,444.645,127.738Z" transform="translate(-347.298 -125.302)" fill="#12263f"/>
        <path id="Trazado_99287" data-name="Trazado 99287" d="M453.091,127.738a2.549,2.549,0,1,1-2.545-2.436A2.491,2.491,0,0,1,453.091,127.738Z" transform="translate(-401.872 -125.302)" fill="#12263f"/>
      </g>
      <g id="Grupo_156326" data-name="Grupo 156326" transform="translate(0 75.904)">
        <ellipse id="Elipse_4754" data-name="Elipse 4754" cx="2.546" cy="2.435" rx="2.546" ry="2.435" transform="translate(0 0.001)" fill="#12263f"/>
        <ellipse id="Elipse_4750" data-name="Elipse 4750" cx="2.546" cy="2.435" rx="2.546" ry="2.435" transform="translate(57.659 0.001)" fill="#12263f"/>
        <path id="Trazado_116548" data-name="Trazado 116548" d="M427.752,127.738a2.549,2.549,0,1,1-2.545-2.436A2.491,2.491,0,0,1,427.752,127.738Z" transform="translate(-411.129 -125.302)" fill="#12263f"/>
        <path id="Trazado_116542" data-name="Trazado 116542" d="M427.752,127.738a2.549,2.549,0,1,1-2.545-2.436A2.491,2.491,0,0,1,427.752,127.738Z" transform="translate(-353.469 -125.302)" fill="#12263f"/>
        <ellipse id="Elipse_4751" data-name="Elipse 4751" cx="2.546" cy="2.435" rx="2.546" ry="2.435" transform="translate(23.064 0.001)" fill="#12263f"/>
        <ellipse id="Elipse_4752" data-name="Elipse 4752" cx="2.546" cy="2.435" rx="2.546" ry="2.435" transform="translate(80.723 0.001)" fill="#12263f"/>
        <path id="Trazado_116543" data-name="Trazado 116543" d="M444.645,127.738A2.549,2.549,0,1,1,442.1,125.3,2.492,2.492,0,0,1,444.645,127.738Z" transform="translate(-404.958 -125.302)" fill="#12263f"/>
        <path id="Trazado_116544" data-name="Trazado 116544" d="M444.645,127.738A2.549,2.549,0,1,1,442.1,125.3,2.492,2.492,0,0,1,444.645,127.738Z" transform="translate(-347.298 -125.302)" fill="#12263f"/>
        <path id="Trazado_116545" data-name="Trazado 116545" d="M453.091,127.738a2.549,2.549,0,1,1-2.545-2.436A2.491,2.491,0,0,1,453.091,127.738Z" transform="translate(-401.872 -125.302)" fill="#12263f"/>
      </g>
      <g id="Grupo_156328" data-name="Grupo 156328" transform="translate(0 50.602)">
        <ellipse id="Elipse_3985" data-name="Elipse 3985" cx="2.546" cy="2.435" rx="2.546" ry="2.435" transform="translate(0 0.001)" fill="#12263f"/>
        <ellipse id="Elipse_4746" data-name="Elipse 4746" cx="2.546" cy="2.435" rx="2.546" ry="2.435" transform="translate(57.659 0.001)" fill="#12263f"/>
        <path id="Trazado_99291" data-name="Trazado 99291" d="M427.752,135.246a2.549,2.549,0,1,1-2.545-2.436A2.491,2.491,0,0,1,427.752,135.246Z" transform="translate(-411.129 -132.81)" fill="#12263f"/>
        <path id="Trazado_116538" data-name="Trazado 116538" d="M427.752,135.246a2.549,2.549,0,1,1-2.545-2.436A2.491,2.491,0,0,1,427.752,135.246Z" transform="translate(-353.469 -132.81)" fill="#12263f"/>
        <ellipse id="Elipse_3986" data-name="Elipse 3986" cx="2.546" cy="2.435" rx="2.546" ry="2.435" transform="translate(23.064 0.001)" fill="#12263f"/>
        <ellipse id="Elipse_4747" data-name="Elipse 4747" cx="2.546" cy="2.435" rx="2.546" ry="2.435" transform="translate(80.723 0.001)" fill="#12263f"/>
        <path id="Trazado_99292" data-name="Trazado 99292" d="M444.645,135.246a2.549,2.549,0,1,1-2.547-2.436A2.492,2.492,0,0,1,444.645,135.246Z" transform="translate(-404.958 -132.81)" fill="#12263f"/>
        <path id="Trazado_116539" data-name="Trazado 116539" d="M444.645,135.246a2.549,2.549,0,1,1-2.547-2.436A2.492,2.492,0,0,1,444.645,135.246Z" transform="translate(-347.298 -132.81)" fill="#12263f"/>
        <path id="Trazado_99293" data-name="Trazado 99293" d="M453.091,135.246a2.549,2.549,0,1,1-2.545-2.436A2.491,2.491,0,0,1,453.091,135.246Z" transform="translate(-401.872 -132.81)" fill="#12263f"/>
      </g>
    </g>
    <g id="Grupo_1015138" data-name="Grupo 1015138" transform="translate(277.562 595.534)">
      <circle id="Elipse_8447" data-name="Elipse 8447" cx="61.186" cy="61.186" r="61.186" transform="translate(0 0)" fill="#91b3fa"/>
      <circle id="Elipse_8448" data-name="Elipse 8448" cx="51.264" cy="51.264" r="51.264" transform="translate(9.922 9.922)" fill="#fff"/>
      <g id="Grupo_1018567" data-name="Grupo 1018567" transform="translate(25.938 21.949)">
        <g id="Grupo_1018566" data-name="Grupo 1018566" clip-path="url(#clip-path)">
          <path id="Trazado_732029" data-name="Trazado 732029" d="M12.767,51.757c-.337-.244-.8-.281-1.054-.663-.011-.281-.21-.272-.408-.266a5.155,5.155,0,0,1-1.738-2.809,1.156,1.156,0,0,1,.018-.406.991.991,0,0,0-.756-1.16,5.409,5.409,0,0,1-4.071-3.989,10.044,10.044,0,0,1-.143-2.9c0-.342-.053-.5-.44-.625A5.612,5.612,0,0,1,1.542,37.38,4.856,4.856,0,0,1,.233,35.121a10.573,10.573,0,0,1-.211-2.652,20.16,20.16,0,0,1,.144-3.214,5.226,5.226,0,0,1,3.776-4.038.776.776,0,0,0,.68-.928,7.017,7.017,0,0,1,.575-3.84,5.009,5.009,0,0,1,3.888-2.82c.179-.02.29-.041.289-.282a5.251,5.251,0,0,1,5.221-5.31,5.883,5.883,0,0,1,4.5,2.152,5.065,5.065,0,0,1,3.024-2.009,4.522,4.522,0,0,1,2.623.006c.439.19.534-.039.515-.414a10.814,10.814,0,0,1,1.551-5.834c.485-.878.884-1.253,1.866-.68.624.6.239,1.153-.092,1.683a8.991,8.991,0,0,0-1.318,4.007,9.845,9.845,0,0,0,1.451,6.161,9.031,9.031,0,0,0,2.145,2.445c.795.613,1.666,1.128,2.5,1.686l.089.1c.009.819-.015,1.639.036,2.455.048.773.084,1.577,1.055,1.865a6.306,6.306,0,0,0,.908.071c.555.088.811-.074.745-.7a17.237,17.237,0,0,1-.013-1.791q0-3.452,0-6.9c0-.322.015-.523-.454-.592a4.644,4.644,0,0,1-2.915-1.8.81.81,0,0,1,.022-1.029,1.022,1.022,0,0,1,1.684-.04,2.885,2.885,0,0,0,1.613.992,6.142,6.142,0,0,0,2.331-.17,6.938,6.938,0,0,0,1.676-1.076.931.931,0,0,1,1.306.255.737.737,0,0,1-.032,1.189,6.3,6.3,0,0,1-2.867,1.691c-.218.063-.355.085-.351.356.024,1.525.035,3.051.05,4.576q-.018,2.311-.034,4.623c0,.171-.01.34.221.417a1.933,1.933,0,0,0,2.5-1.74q.018-1.321.031-2.643l.095-.14a1.1,1.1,0,0,1,.587-.485A9.794,9.794,0,0,0,46.778,9.5a9.735,9.735,0,0,0-5.884-6.818A4.783,4.783,0,0,0,38.1,2.076c-.372.063-.758-.215-1.16-.09a3.02,3.02,0,0,1-.563.1,8.123,8.123,0,0,0-3.987,1.089A1.12,1.12,0,0,1,30.835,3c-.184-.829-.131-1.039,1.049-1.724A10.18,10.18,0,0,1,37.1,0a11.772,11.772,0,0,1,11.8,10.106,12.011,12.011,0,0,1-.527,5.624,11.575,11.575,0,0,1-5.153,6.389c-.31.183-.3.381-.3.636a7.735,7.735,0,0,1-.257,2.652,3.375,3.375,0,0,1-1.5,1.734c-.415.253-.545.461-.024.734a3.945,3.945,0,0,1,1.3,1.194c.291.4.47.259.63.009a5.627,5.627,0,0,1,3.1-2.105,5.725,5.725,0,0,1,1.88-.181q7.668-.019,15.336,0A4.171,4.171,0,0,1,67.8,29.818c.032.091.041.273.215.291V63.837a.321.321,0,0,0,0,.531v.4c-.192-.024-.228.064-.276.25a3.645,3.645,0,0,1-.9,1.569,5.147,5.147,0,0,1-2.279,1.368H59.385a1.023,1.023,0,0,1-.536-.926c.083-.781.372-1.052,1.133-1.066.332-.006.663-.015.994-.023.881.008,1.762.022,2.642.022a2.263,2.263,0,0,0,2.413-2.628c-.022-.311-.12-.426-.43-.422-1.277.019-2.554.023-3.831.033-4.687-.009-9.375-.053-14.061-.006a3.777,3.777,0,0,0-3.514,2.3c-.332.688-.312.725.44.725q4.875,0,9.751,0c.846,0,1.085.23,1.167,1.079a1.386,1.386,0,0,1-.683.911H21.009a4.417,4.417,0,0,1-2.668-1.677,3.094,3.094,0,0,1-.744-2.04l.149-.069-.152-.065q-.018-4.341-.034-8.682c0-1.344,0-2.687,0-4.126a5.544,5.544,0,0,1-4.516.564c-.012-.254-.157-.142-.276-.1m6.912,11.179c-.075-.008-.108.029-.108.1-.3,2.059,1.1,2.986,2.763,2.952,4.245-.087,8.493-.029,12.739-.029,2.013,0,4.025-.008,6.038.006.436,0,.57-.107.364-.53A3.954,3.954,0,0,0,38.1,62.986c-1.344-.123-2.686-.063-4.028-.066-4.8-.007-9.6.009-14.4.016m5.6-25.761-.1.018.1.062c0,.686.023,1.372,0,2.057a1.11,1.11,0,0,1-1.049,1.154c-.59-.03-.934-.455-.942-1.184-.007-.6.012-1.195,0-1.792a4.89,4.89,0,0,1,2.352-4.311,4.714,4.714,0,0,1,4.2-.562,4.988,4.988,0,0,1,3.7,4.389,3.524,3.524,0,0,0,2.622-3.718c-.023-.244-.048-.327-.336-.413a2.845,2.845,0,0,1-2.21-2.43,25.285,25.285,0,0,1-.073-2.648c-.019-.433-.658-.983-1.057-.83a1.683,1.683,0,0,1-.7.071c-1.383-.04-2.762.028-4.151-.089A4.97,4.97,0,0,1,23.269,22.3c-.014-.742.243-1.065.813-1.085a1,1,0,0,1,1.176,1.057,2.725,2.725,0,0,0,2,2.521,18.7,18.7,0,0,0,4.074.131c.252.009.152-.219.151-.354,0-.6-.021-1.193-.021-1.79a.543.543,0,0,0-.311-.558,10.729,10.729,0,0,1-2.876-2.338,1.051,1.051,0,0,0-.976-.479c-.663.023-1.327,0-1.991,0a.866.866,0,0,1-.98-.829.972.972,0,0,1,.788-1.158c.455-.128.917.018,1.4-.094a15.583,15.583,0,0,1-.753-1.925,1.8,1.8,0,0,0-1.221-1.194,3.876,3.876,0,0,0-.831-.12A3.16,3.16,0,0,0,20.1,16.964c-.021,9.844,0,19.688-.014,29.532a3.693,3.693,0,0,0,.263,1.521,3.273,3.273,0,0,0,4.863,1.528,3.414,3.414,0,0,0,1.608-3.057c-.009-.929-.007-1.858.016-2.787a.785.785,0,0,1,.929-.847c.589.024.922.42.939,1.156.008.357.019.774.529.481a4.14,4.14,0,0,0,2.4-3.927c-.037-.95.019-1.9-.014-2.853a3.333,3.333,0,0,0-1.051-2.5,3.164,3.164,0,0,0-3.086-.785,3.055,3.055,0,0,0-2.21,2.751M12.915,19.384c-.817,0-1.634.006-2.45.013a3.836,3.836,0,0,0-2.5.755,3.321,3.321,0,0,0-1.382,2.062,15.947,15.947,0,0,0,.035,2.479c.008.329.26.236.435.237.906.008,1.818-.063,2.717.018a2.943,2.943,0,0,0,3.146-2.889.774.774,0,0,1,.911-.852c.824.045,1.22.649,1.047,1.531a5.821,5.821,0,0,1-1.864,3.258l-.107.118a5.612,5.612,0,0,1-3.052.847c-1.393-.02-2.786-.048-4.178-.024A3.5,3.5,0,0,0,2.019,30.57c.014.995.007,1.99,0,2.985a3.338,3.338,0,0,0,1.792,3.082.477.477,0,0,0,.585-.026c.126-.051.491.143.27-.264.064-.51.446-.926.437-1.458.145-.031.436.061.227-.269a5.588,5.588,0,0,1,3.636-2.149A5.066,5.066,0,0,1,13.463,34c1.6,1.523,1.555,3.493,1.428,5.44-.053.814-.323.912-1.136.9-.52-.01-.821-.409-.831-1.06-.008-.509,0-1.018,0-1.526a3.2,3.2,0,0,0-2.568-3.334,3.024,3.024,0,0,0-3.688,2.611c-.058,1.413,0,2.831-.04,4.245a3.61,3.61,0,0,0,2.192,3.139c.337.123.515.071.518-.367,0-.815.384-1.208,1.05-1.19s1.029.463,1.037,1.242c.011,1-.014,1.992.026,2.986a3.223,3.223,0,0,0,4.136,2.856,3.373,3.373,0,0,0,2.512-3.37c.013-1.15,0-2.3,0-3.451q-.011-12.94-.022-25.879c.214-.338-.088-.236-.231-.27a2.55,2.55,0,0,0-1.267-2.4A3.441,3.441,0,0,0,11.341,16.9c-.071.365-.009.614.44.6a9.815,9.815,0,0,0,.994-.01.993.993,0,0,1,1.1.746.822.822,0,0,1-.7,1c-.131-.025-.248-.025-.257.153M35.417,47.2c.805.1,1.06.373,1,1.067a1.114,1.114,0,0,1-1.164.932c-1.925,0-3.851,0-5.776,0-.726,0-1.472-.138-1.855.77-.2.472-.863.544-1.128.943-.533.8-1.443.8-2.189,1.029a2.234,2.234,0,0,1-1.057.2,6.559,6.559,0,0,1-3.677-1.726c-.008.171-.015.251-.015.33,0,3.12.018,6.241-.016,9.361-.007.638.111.829.8.833,6.032.042,12.067-.187,18.1.112a5.541,5.541,0,0,1,2.7.937c.161.1.268.334.494.242.282-.115.135-.387.135-.581q.012-14.175.008-28.349a5.282,5.282,0,0,0-.72-2.78l-.04-.184-.088.146c-.052.039-.135.067-.153.117a3,3,0,0,1-2.5,2.3c-.117.016-.13.09-.138.181-.037.405.138.857-.258,1.184.408.628-.221,1.077-.322,1.613-.191,1.016-1.132,1.544-1.845,2.193a3.841,3.841,0,0,1-1.657.806c-.161.042-.405.1-.412.247a5.881,5.881,0,0,0,.038,2.037c.119.366.836.085,1.28.142.109.014.221,0,.332,0a1.121,1.121,0,0,1,1.115,1.047c.007.623-.309.935-1.051.973-.552.028-1.106.024-1.658,0a.8.8,0,0,0-.838.45,5.251,5.251,0,0,1-3.658,2.691c-.166.031-.562,0-.5.438.063.465.4.261.61.264,2.034.024,4.069.025,6.1.033-.02.036-.075.079.017.095l-.017-.1m25.56-18.4q-6.636-.011-13.272-.019a4.288,4.288,0,0,0-3.849,2.876,5.27,5.27,0,0,0-.053,1.675q0,14.136,0,28.272v.83A8.083,8.083,0,0,1,49.3,60.9c4.114.048,8.228,0,12.342-.007,1.239.008,2.479-.015,3.715.038.555.024.683-.128.681-.68-.022-6.417-.014-12.835-.014-19.253,0-3.231.018-6.462-.008-9.693a2.226,2.226,0,0,0-2.253-2.519c-.924-.061-1.857,0-2.786.01m-22.157.274c0-.287-.021-.575,0-.859.04-.439-.09-.646-.577-.618-.659.037-1.322.009-1.983.012-.461,0-.75.144-.685.7a11.05,11.05,0,0,1,.01,1.255c0,1.112.231,1.335,1.363,1.336,1.831,0,1.867-.033,1.867-1.826" transform="translate(0 0)" fill="#080808"/>
          <path id="Trazado_732030" data-name="Trazado 732030" d="M510.11,480.161a.321.321,0,0,1,0-.531Z" transform="translate(-442.094 -415.793)" fill="#0a0a0a"/>
          <path id="Trazado_732031" data-name="Trazado 732031" d="M208.145,15.936a1.12,1.12,0,0,0,1.557.176,8.122,8.122,0,0,1,3.987-1.089,3.031,3.031,0,0,0,.563-.1c.287.544.887.688,1.336,1.018a10.978,10.978,0,0,1,1.466,16.531,4.241,4.241,0,0,1-1.5,1.148c-.015-1.525-.025-3.051-.05-4.576,0-.271.133-.293.351-.356A6.293,6.293,0,0,0,218.726,27a.737.737,0,0,0,.032-1.189.931.931,0,0,0-1.306-.255,6.934,6.934,0,0,1-1.676,1.076,6.145,6.145,0,0,1-2.331.17,2.884,2.884,0,0,1-1.613-.991,1.022,1.022,0,0,0-1.684.04.81.81,0,0,0-.022,1.029,4.644,4.644,0,0,0,2.915,1.8c.469.07.454.27.454.592q-.005,3.452,0,6.9a17.232,17.232,0,0,0,.013,1.791c.066.626-.19.787-.745.7a6.325,6.325,0,0,1-.908-.071c-.971-.288-1.007-1.092-1.055-1.865-.05-.816-.027-1.636-.036-2.455.036-.092,0-.115-.089-.1-.837-.558-1.708-1.073-2.5-1.686a9.03,9.03,0,0,1-2.145-2.445,9.844,9.844,0,0,1-1.451-6.161,8.991,8.991,0,0,1,1.318-4.007c.331-.53.716-1.087.092-1.683-.054-.321.211-.462.383-.641a9.815,9.815,0,0,1,1.778-1.618" transform="translate(-177.31 -12.938)" fill="#ffe000"/>
          <path id="Trazado_732032" data-name="Trazado 732032" d="M84.934,381.876c.2-.006.4-.015.408.266a.427.427,0,0,1-.408-.266" transform="translate(-73.63 -331.048)" fill="#0a0a0a"/>
          <path id="Trazado_732033" data-name="Trazado 732033" d="M95.92,388.477c.119-.042.264-.153.276.1-.112.022-.225.046-.276-.1" transform="translate(-83.153 -336.72)" fill="#0a0a0a"/>
          <path id="Trazado_732034" data-name="Trazado 732034" d="M132.186,481.622l.152.065-.149.069c0-.045,0-.089,0-.134" transform="translate(-114.593 -417.52)" fill="#0a0a0a"/>
          <path id="Trazado_732035" data-name="Trazado 732035" d="M346.672,248.37c-4.114.008-8.229.055-12.342.007a8.083,8.083,0,0,0-5.5,1.531v-.83q0-14.136,0-28.272a5.269,5.269,0,0,1,.053-1.675,4.287,4.287,0,0,1,3.849-2.876q6.636,0,13.272.019a5.2,5.2,0,0,1,.674,3.163q-.026,14.466-.01,28.933m-6.753-17.587v.022h4.709a1.083,1.083,0,0,0,1.115-1,.985.985,0,0,0-1.032-1.021c-3.206-.014-6.412-.008-9.618,0a.907.907,0,0,0-.817.34,1.1,1.1,0,0,0-.169,1.05.887.887,0,0,0,.9.612c1.636,0,3.271,0,4.907,0m-.124-5.862v.006c1.615,0,3.231.007,4.846,0a1.074,1.074,0,0,0,1.1-.98.948.948,0,0,0-1.037-1.022q-4.813-.021-9.626,0a.955.955,0,0,0-1.023,1.022c0,.651.294.962,1.024.97,1.571.018,3.142.005,4.713.005m.139,11.747v0c1.526,0,3.053,0,4.579,0,.735,0,1.207-.372,1.23-1,.021-.586-.457-1.012-1.174-1.018-1.15-.009-2.3,0-3.451,0-1.947,0-3.893-.005-5.84.005-.362,0-.769-.054-1.009.331a1.087,1.087,0,0,0-.116,1.094.953.953,0,0,0,1,.583c1.592.012,3.185,0,4.778,0m-.042,3.842v0c-1.569,0-3.138.007-4.707,0a.97.97,0,0,0-1.118,1.046c-.038.588.422.962,1.141.964q4.673.01,9.347,0c.781,0,1.166-.34,1.188-1a1.1,1.1,0,0,0-1.211-1c-1.547-.007-3.094,0-4.64,0" transform="translate(-285.03 -187.472)" fill="#f4f9f9"/>
          <path id="Trazado_732036" data-name="Trazado 732036" d="M168.292,229.076a5.284,5.284,0,0,1,.72,2.781q0,14.175-.008,28.349c0,.194.147.466-.135.582-.225.092-.333-.139-.494-.242a5.541,5.541,0,0,0-2.7-.937c-6.03-.3-12.064-.07-18.1-.112-.693,0-.811-.2-.8-.833.034-3.12.016-6.241.016-9.361,0-.08.007-.159.015-.33a6.56,6.56,0,0,0,3.677,1.726,2.234,2.234,0,0,0,1.057-.2c.746-.228,1.656-.225,2.189-1.028.265-.4.929-.472,1.128-.943.383-.908,1.129-.771,1.855-.77,1.925,0,3.851,0,5.776,0a1.115,1.115,0,0,0,1.164-.932c.064-.693-.19-.966-1-1.067h0c-2.034-.008-4.069-.009-6.1-.033-.209,0-.547.2-.61-.263-.059-.435.337-.407.5-.438a5.251,5.251,0,0,0,3.658-2.691.8.8,0,0,1,.838-.45c.552.024,1.107.028,1.658,0,.742-.038,1.058-.35,1.051-.973a1.121,1.121,0,0,0-1.115-1.047c-.11-.007-.223.011-.331,0-.444-.057-1.161.223-1.28-.142a5.887,5.887,0,0,1-.038-2.037c.008-.152.252-.2.413-.247a3.84,3.84,0,0,0,1.656-.806c.713-.649,1.654-1.177,1.845-2.193.1-.536.73-.985.322-1.613.4-.327.221-.779.258-1.184.008-.091.021-.165.138-.181a3,3,0,0,0,2.5-2.3c.017-.051.1-.079.152-.117l.128.038M157.872,253.6c1.636,0,3.273.005,4.909,0a.968.968,0,0,0,.869-1.081.88.88,0,0,0-.9-.938c-2.211.007-4.423.005-6.634.009-1.039,0-2.078.01-3.117.013a.785.785,0,0,0-.818.52,1,1,0,0,0,.915,1.472c1.592.02,3.184.006,4.776.008" transform="translate(-127.237 -198.554)" fill="#e8ecec"/>
          <path id="Trazado_732037" data-name="Trazado 732037" d="M26.32,110.583a.822.822,0,0,0,.7-1,.993.993,0,0,0-1.1-.746,9.852,9.852,0,0,1-.994.01c-.448.014-.511-.235-.44-.6a3.441,3.441,0,0,1,5.239-2.336,2.55,2.55,0,0,1,1.267,2.4c0,.152.119.21.231.27q.011,12.94.022,25.879c0,1.15.01,2.3,0,3.451a3.372,3.372,0,0,1-2.512,3.37,3.223,3.223,0,0,1-4.136-2.856c-.04-.994-.016-1.99-.026-2.986-.008-.779-.385-1.224-1.037-1.242s-1.045.374-1.05,1.19c0,.439-.18.49-.518.367a3.61,3.61,0,0,1-2.192-3.139c.041-1.414-.019-2.832.04-4.245a3.024,3.024,0,0,1,3.688-2.611,3.2,3.2,0,0,1,2.568,3.334c.007.509,0,1.018,0,1.526.01.651.311,1.049.831,1.06.813.016,1.083-.082,1.136-.9.126-1.947.176-3.916-1.428-5.44a5.066,5.066,0,0,0-4.494-1.524,5.587,5.587,0,0,0-3.636,2.149c-.11.06-.227.115-.227.269.009.532-.373.947-.437,1.458l-.27.264a.477.477,0,0,1-.585.026,3.338,3.338,0,0,1-1.792-3.082c0-.995.011-1.99,0-2.985a3.5,3.5,0,0,1,3.657-3.635c1.392-.025,2.785,0,4.178.024a5.612,5.612,0,0,0,3.052-.847c.083,0,.13-.025.107-.118a5.821,5.821,0,0,0,1.864-3.258c.174-.882-.222-1.486-1.047-1.531a.774.774,0,0,0-.911.852A2.943,2.943,0,0,1,22.92,116.3c-.9-.081-1.811-.01-2.717-.018-.175,0-.427.092-.435-.237a15.949,15.949,0,0,1-.035-2.48,3.321,3.321,0,0,1,1.382-2.061,3.835,3.835,0,0,1,2.5-.755c.817-.007,1.634-.009,2.45-.013.214.164.2-.059.258-.153" transform="translate(-13.147 -91.352)" fill="#6f88da"/>
          <path id="Trazado_732038" data-name="Trazado 732038" d="M156.124,128.6a3.055,3.055,0,0,1,2.21-2.751,3.164,3.164,0,0,1,3.086.785,3.333,3.333,0,0,1,1.051,2.5c.033.95-.023,1.9.014,2.853a4.141,4.141,0,0,1-2.4,3.927c-.511.293-.521-.124-.529-.481-.017-.736-.35-1.132-.939-1.156a.785.785,0,0,0-.929.847c-.024.928-.025,1.858-.016,2.787a3.414,3.414,0,0,1-1.608,3.057,3.273,3.273,0,0,1-4.863-1.529,3.688,3.688,0,0,1-.263-1.521c.014-9.844-.007-19.688.014-29.532a3.16,3.16,0,0,1,3.611-2.878,3.859,3.859,0,0,1,.831.12,1.8,1.8,0,0,1,1.221,1.194,15.58,15.58,0,0,0,.753,1.924c-.479.112-.942-.033-1.4.094a.972.972,0,0,0-.788,1.158.866.866,0,0,0,.98.829c.664,0,1.328.022,1.991,0a1.051,1.051,0,0,1,.976.479,10.726,10.726,0,0,0,2.875,2.338.543.543,0,0,1,.311.558c0,.6.017,1.193.021,1.79,0,.136.1.363-.151.354a18.719,18.719,0,0,1-4.074-.131,2.725,2.725,0,0,1-2-2.521,1,1,0,0,0-1.176-1.057c-.57.02-.827.343-.813,1.085a4.97,4.97,0,0,0,4.355,4.651c1.388.118,2.768.049,4.151.089a1.681,1.681,0,0,0,.7-.071c.4-.153,1.038.4,1.057.83a25.283,25.283,0,0,0,.073,2.648,2.845,2.845,0,0,0,2.21,2.43c.287.086.313.169.336.413a3.524,3.524,0,0,1-2.622,3.718,4.988,4.988,0,0,0-3.7-4.389,4.714,4.714,0,0,0-4.2.562,4.89,4.89,0,0,0-2.352,4.311c.015.6,0,1.195,0,1.792.009.728.352,1.153.942,1.184a1.11,1.11,0,0,0,1.049-1.154c.025-.685,0-1.371,0-2.057a.046.046,0,0,0,0-.079" transform="translate(-130.851 -91.424)" fill="#4adbd1"/>
          <path id="Trazado_732039" data-name="Trazado 732039" d="M458.811,248.257q0-14.467.01-28.933a5.194,5.194,0,0,0-.674-3.163c.929-.008,1.861-.071,2.786-.01a2.226,2.226,0,0,1,2.253,2.519c.026,3.231.008,6.462.008,9.693,0,6.418-.008,12.835.014,19.253,0,.553-.127.7-.681.68-1.237-.053-2.477-.03-3.715-.038" transform="translate(-397.17 -187.359)" fill="#eef3f3"/>
          <path id="Trazado_732040" data-name="Trazado 732040" d="M278.865,33.407a4.241,4.241,0,0,0,1.5-1.148,10.978,10.978,0,0,0-1.466-16.531c-.448-.33-1.049-.475-1.336-1.018.4-.126.788.152,1.16.09a4.782,4.782,0,0,1,2.793.611,10.015,10.015,0,0,1,5.864,11.77,9.725,9.725,0,0,1-5.114,6.259,1.1,1.1,0,0,0-.587.485c-.069.021-.129.049-.094.14q-.016,1.321-.031,2.643a1.933,1.933,0,0,1-2.5,1.74c-.231-.077-.222-.246-.221-.418q.013-2.311.034-4.623" transform="translate(-240.617 -12.723)" fill="#f4d200"/>
          <path id="Trazado_732041" data-name="Trazado 732041" d="M146.888,472.681c4.8-.007,9.6-.023,14.4-.016,1.342,0,2.684-.057,4.028.066a3.954,3.954,0,0,1,3.372,2.451c.205.423.071.533-.364.531-2.013-.013-4.025-.006-6.038-.006-4.247,0-8.495-.058-12.739.029-1.665.034-3.062-.894-2.763-2.952l.108-.1" transform="translate(-127.21 -409.744)" fill="#564f6f"/>
          <path id="Trazado_732042" data-name="Trazado 732042" d="M345.371,476.825a17.762,17.762,0,0,0-3.3.015c-.082-.85-.321-1.079-1.167-1.079q-4.876,0-9.751,0c-.752,0-.772-.037-.44-.725a3.777,3.777,0,0,1,3.514-2.3c4.687-.047,9.374,0,14.061.006a5.433,5.433,0,0,1-.795,3c-.331.008-.663.017-.994.023-.761.013-1.05.284-1.133,1.066" transform="translate(-286.522 -409.798)" fill="#564f6f"/>
          <path id="Trazado_732043" data-name="Trazado 732043" d="M458.134,475.7a5.431,5.431,0,0,0,.795-3c1.277-.009,2.554-.014,3.831-.033.31,0,.408.111.43.421a2.263,2.263,0,0,1-2.413,2.628c-.881,0-1.762-.014-2.642-.022" transform="translate(-397.159 -409.759)" fill="#4d4667"/>
          <path id="Trazado_732044" data-name="Trazado 732044" d="M270.506,208.818c0,1.793-.036,1.828-1.867,1.826-1.132,0-1.361-.225-1.363-1.336a11.043,11.043,0,0,0-.01-1.255c-.065-.555.224-.7.685-.7.661,0,1.324.025,1.983-.012.487-.027.617.18.577.618-.026.284,0,.572,0,.859" transform="translate(-231.686 -179.742)" fill="#564f6f"/>
          <path id="Trazado_732045" data-name="Trazado 732045" d="M33.054,273.357l.271-.264c.221.407-.145.212-.271.264" transform="translate(-28.655 -236.746)" fill="#0a0a0a"/>
          <path id="Trazado_732046" data-name="Trazado 732046" d="M38.367,260.391c0-.154.116-.209.227-.269.209.33-.082.238-.227.269" transform="translate(-33.261 -225.501)" fill="#0a0a0a"/>
          <path id="Trazado_732047" data-name="Trazado 732047" d="M134.322,127.718c-.112-.06-.226-.118-.231-.27.142.034.445-.068.231.27" transform="translate(-116.244 -110.485)" fill="#0a0a0a"/>
          <path id="Trazado_732048" data-name="Trazado 732048" d="M97.295,144.408c-.06.094-.044.317-.258.153.01-.179.126-.179.258-.153" transform="translate(-84.122 -125.177)" fill="#696a6a"/>
          <path id="Trazado_732049" data-name="Trazado 732049" d="M307.629,228.124l-.128-.038.088-.146.04.184" transform="translate(-266.574 -197.602)" fill="#0a0a0a"/>
          <path id="Trazado_732050" data-name="Trazado 732050" d="M265.876,354.648h0l.017.1c-.092-.016-.038-.058-.017-.095" transform="translate(-230.459 -307.445)" fill="#8e9191"/>
          <path id="Trazado_732051" data-name="Trazado 732051" d="M97.074,195.31c.023.093-.023.122-.107.118l.107-.118" transform="translate(-84.061 -169.315)" fill="#0a0a0a"/>
          <path id="Trazado_732052" data-name="Trazado 732052" d="M147.152,472.86l-.108.1c0-.073.032-.109.108-.1" transform="translate(-127.473 -409.924)" fill="#4d4667"/>
          <path id="Trazado_732053" data-name="Trazado 732053" d="M307.7,159.432c-.035-.091.025-.119.095-.14l-.095.14" transform="translate(-266.734 -138.091)" fill="#0a0a0a"/>
          <path id="Trazado_732054" data-name="Trazado 732054" d="M250.671,159.551c.084-.017.125.006.089.1l-.089-.1" transform="translate(-217.308 -138.311)" fill="#2e2028"/>
          <path id="Trazado_732055" data-name="Trazado 732055" d="M189.264,279.314a.046.046,0,0,1,0,.079l-.1-.062.1-.018" transform="translate(-163.991 -242.139)" fill="#c589ac"/>
          <path id="Trazado_732056" data-name="Trazado 732056" d="M374.1,312.341c-1.636,0-3.272,0-4.907,0a.887.887,0,0,1-.9-.612,1.1,1.1,0,0,1,.17-1.05.907.907,0,0,1,.817-.34c3.206-.007,6.412-.013,9.618,0a.985.985,0,0,1,1.032,1.021,1.083,1.083,0,0,1-1.115,1H374.1v-.022" transform="translate(-319.213 -269.029)" fill="#080808"/>
          <path id="Trazado_732057" data-name="Trazado 732057" d="M374.1,268.286c-1.571,0-3.142.012-4.713-.005-.73-.008-1.029-.319-1.024-.97a.955.955,0,0,1,1.023-1.022q4.813-.021,9.626,0a.947.947,0,0,1,1.037,1.021,1.073,1.073,0,0,1-1.1.98c-1.615.011-3.231,0-4.846,0v-.006" transform="translate(-319.334 -230.837)" fill="#080808"/>
          <path id="Trazado_732058" data-name="Trazado 732058" d="M374.226,356.471c-1.593,0-3.185.007-4.778,0a.953.953,0,0,1-1-.583,1.087,1.087,0,0,1,.116-1.094c.24-.385.646-.329,1.009-.331,1.947-.01,3.893,0,5.84-.005,1.15,0,2.3-.006,3.451,0,.717.006,1.195.432,1.174,1.018-.023.63-.495,1.005-1.23,1-1.526-.006-3.053,0-4.579,0Z" transform="translate(-319.322 -307.275)" fill="#080808"/>
          <path id="Trazado_732059" data-name="Trazado 732059" d="M374.242,398.482c1.547,0,3.094,0,4.64,0a1.1,1.1,0,0,1,1.211,1c-.023.665-.407,1-1.188,1q-4.673.008-9.347,0c-.72,0-1.179-.376-1.141-.964a.97.97,0,0,1,1.118-1.046c1.569.009,3.138,0,4.707,0Z" transform="translate(-319.38 -345.445)" fill="#080808"/>
          <path id="Trazado_732060" data-name="Trazado 732060" d="M192.433,400.442c-1.592,0-3.185.014-4.776-.006a1,1,0,0,1-.915-1.472.785.785,0,0,1,.818-.52c1.039,0,2.078-.011,3.117-.013,2.211,0,4.423,0,6.634-.009a.88.88,0,0,1,.9.938.968.968,0,0,1-.869,1.081c-1.636.008-3.273,0-4.909,0" transform="translate(-161.799 -345.394)" fill="#080808"/>
        </g>
      </g>
    </g>
  </g>
</svg>
