<svg xmlns="http://www.w3.org/2000/svg" width="505" height="433" viewBox="0 0 505 433">
  <g id="Grupo_1024392" data-name="Grupo 1024392" transform="translate(-180 -7924)">
    <path id="Trazado_762490" data-name="Trazado 762490" d="M0,0H503V389H0Z" transform="translate(182 7968)" fill="#f6f6f6"/>
    <path id="Trazado_762491" data-name="Trazado 762491" d="M153.454,19H151.8l1.028-5.915h-6.249L145.552,19H143.9l2.224-12.8h1.652l-.958,5.5h6.24l.958-5.5h1.661Zm15.609-7.154h-7.119l.246-1.415h7.128Zm-.633,3.647h-7.119l.246-1.406h7.128ZM176.4,19H174.82l1.652-9.51h1.582Zm1.31-12.981a.87.87,0,0,1,.672.242.9.9,0,0,1,.268.681.938.938,0,0,1-.94.958.876.876,0,0,1-.677-.237.86.86,0,0,1-.255-.668,1,1,0,0,1,.264-.686A.93.93,0,0,1,177.711,6.019Zm8.807,4.3-2.435-.79.6-1.264,2.443.992.448-3.055h1.318l-.615,3.02,2.663-.948.167,1.4-2.769.8,1.292,2.417-1.125.773-1.151-2.549L185.4,13.573l-1-.861Zm18.923,4.6a5.1,5.1,0,0,1-1.8,3.146,5.036,5.036,0,0,1-3.423,1.107,3.987,3.987,0,0,1-2.074-.584,3.693,3.693,0,0,1-1.38-1.608,6.007,6.007,0,0,1-.545-2.325,7.451,7.451,0,0,1,.062-1.406l.149-1.055a7.96,7.96,0,0,1,2.026-4.548,5.112,5.112,0,0,1,3.924-1.622,3.828,3.828,0,0,1,2.856,1.165,4.632,4.632,0,0,1,1.116,3.133h-1.644q-.114-2.689-2.109-2.9l-.29-.018a3.4,3.4,0,0,0-2.773,1.235,6.685,6.685,0,0,0-1.437,3.494l-.193,1.327-.053.773a4.35,4.35,0,0,0,.576,2.571,2.171,2.171,0,0,0,1.868.989,3.29,3.29,0,0,0,2.21-.642,4.269,4.269,0,0,0,1.332-2.206Z" transform="translate(244 8023)" fill="#12263f"/>
    <path id="Trazado_762492" data-name="Trazado 762492" d="M116.165,14.922a5.1,5.1,0,0,1-1.8,3.146,5.036,5.036,0,0,1-3.423,1.107,3.987,3.987,0,0,1-2.074-.584,3.693,3.693,0,0,1-1.38-1.608,6.007,6.007,0,0,1-.545-2.325,7.451,7.451,0,0,1,.062-1.406l.149-1.055a7.96,7.96,0,0,1,2.026-4.548,5.112,5.112,0,0,1,3.924-1.622,3.828,3.828,0,0,1,2.856,1.165,4.632,4.632,0,0,1,1.116,3.133h-1.644q-.114-2.689-2.109-2.9l-.29-.018a3.4,3.4,0,0,0-2.773,1.235,6.685,6.685,0,0,0-1.437,3.494l-.193,1.327-.053.773a4.35,4.35,0,0,0,.576,2.571,2.171,2.171,0,0,0,1.868.989,3.29,3.29,0,0,0,2.21-.642,4.269,4.269,0,0,0,1.332-2.206ZM122.9,9.314a3.428,3.428,0,0,1,2.048.65,3.7,3.7,0,0,1,1.261,1.745,5.4,5.4,0,0,1,.277,2.43l-.018.193a6.4,6.4,0,0,1-.826,2.509,4.848,4.848,0,0,1-1.705,1.745,4.158,4.158,0,0,1-2.294.589,3.434,3.434,0,0,1-2.043-.65,3.611,3.611,0,0,1-1.252-1.723,5.547,5.547,0,0,1-.281-2.4,6.48,6.48,0,0,1,.8-2.654,4.96,4.96,0,0,1,1.718-1.824A4.109,4.109,0,0,1,122.9,9.314Zm-3.234,5.1a5.4,5.4,0,0,0,0,1.151,2.821,2.821,0,0,0,.62,1.652,1.86,1.86,0,0,0,1.419.642,2.534,2.534,0,0,0,1.459-.391,3.284,3.284,0,0,0,1.125-1.261,5.311,5.311,0,0,0,.589-1.872,8.431,8.431,0,0,0,.026-1.362,2.927,2.927,0,0,0-.642-1.679,1.9,1.9,0,0,0-1.424-.65,2.592,2.592,0,0,0-2.092.967,4.776,4.776,0,0,0-1.063,2.6Zm13.887,2.013q.132-.984-1.081-1.389l-1.652-.483q-2.092-.721-2.021-2.391a2.634,2.634,0,0,1,1.147-2.061,4.085,4.085,0,0,1,2.553-.787,3.406,3.406,0,0,1,2.342.839,2.659,2.659,0,0,1,.866,2.14l-1.582-.009a1.484,1.484,0,0,0-.448-1.16,1.774,1.774,0,0,0-1.239-.466,2.316,2.316,0,0,0-1.424.4,1.48,1.48,0,0,0-.642,1.037q-.114.826,1.011,1.2l.8.22a5.15,5.15,0,0,1,2.32,1.1,2.1,2.1,0,0,1,.633,1.679,2.666,2.666,0,0,1-.58,1.547,3.317,3.317,0,0,1-1.406,1.006,4.7,4.7,0,0,1-1.872.321,3.71,3.71,0,0,1-2.5-.883,2.731,2.731,0,0,1-.949-2.228l1.591.009a1.686,1.686,0,0,0,.51,1.283,1.948,1.948,0,0,0,1.4.483,2.741,2.741,0,0,0,1.5-.365A1.4,1.4,0,0,0,133.55,16.425Zm7.4-9.237-.4,2.3h1.731l-.22,1.257h-1.723l-.993,5.915a2.062,2.062,0,0,0-.009.422.67.67,0,0,0,.747.686,4.556,4.556,0,0,0,.773-.088l-.123,1.327a4.328,4.328,0,0,1-1.16.158,1.661,1.661,0,0,1-1.424-.7,2.7,2.7,0,0,1-.369-1.833l.967-5.889h-1.679l.22-1.257h1.679l.4-2.3Zm6.7,2.127a3.428,3.428,0,0,1,2.048.65,3.7,3.7,0,0,1,1.261,1.745,5.4,5.4,0,0,1,.277,2.43l-.018.193a6.4,6.4,0,0,1-.826,2.509,4.848,4.848,0,0,1-1.705,1.745,4.158,4.158,0,0,1-2.294.589,3.434,3.434,0,0,1-2.043-.65,3.611,3.611,0,0,1-1.252-1.723,5.547,5.547,0,0,1-.281-2.4,6.48,6.48,0,0,1,.8-2.654,4.96,4.96,0,0,1,1.718-1.824A4.109,4.109,0,0,1,147.647,9.314Zm-3.234,5.1a5.4,5.4,0,0,0,0,1.151,2.821,2.821,0,0,0,.62,1.652,1.86,1.86,0,0,0,1.419.642,2.534,2.534,0,0,0,1.459-.391,3.284,3.284,0,0,0,1.125-1.261,5.311,5.311,0,0,0,.589-1.872,8.431,8.431,0,0,0,.026-1.362,2.927,2.927,0,0,0-.642-1.679,1.9,1.9,0,0,0-1.424-.65,2.592,2.592,0,0,0-2.092.967,4.776,4.776,0,0,0-1.063,2.6ZM162.642,19a2.13,2.13,0,0,1-.062-.5l.026-.5a3.9,3.9,0,0,1-2.777,1.178,2.841,2.841,0,0,1-2.043-.8,2.407,2.407,0,0,1-.716-1.947,2.927,2.927,0,0,1,1.323-2.36,5.631,5.631,0,0,1,3.248-.848l1.661.009.105-.756a1.738,1.738,0,0,0-.33-1.349,1.591,1.591,0,0,0-1.252-.514,2.453,2.453,0,0,0-1.446.4,1.7,1.7,0,0,0-.769,1.1l-1.6.009a2.55,2.55,0,0,1,.65-1.481,3.784,3.784,0,0,1,1.468-1,4.742,4.742,0,0,1,1.854-.338,3.153,3.153,0,0,1,2.312.9,2.794,2.794,0,0,1,.694,2.3l-.773,4.711-.044.677a3.318,3.318,0,0,0,.105.958l-.018.149Zm-2.5-1.23a2.774,2.774,0,0,0,1.446-.365,3.661,3.661,0,0,0,1.173-1.059l.343-1.96-1.2-.009a4.561,4.561,0,0,0-2.3.475A1.748,1.748,0,0,0,158.7,16.2a1.361,1.361,0,0,0,.312,1.112A1.486,1.486,0,0,0,160.146,17.77Zm9.422-8.288-.229,1.2a3.749,3.749,0,0,1,2.918-1.371,2.359,2.359,0,0,1,1.986.932,3.619,3.619,0,0,1,.475,2.522L173.681,19H172.09l1.046-6.251a3.332,3.332,0,0,0,.009-.8,1.314,1.314,0,0,0-1.45-1.255,2.994,2.994,0,0,0-2.514,1.528L168,19h-1.591l1.652-9.51Zm12.6,8.578a3.673,3.673,0,0,1-2.839,1.116,2.37,2.37,0,0,1-2.017-.976,3.731,3.731,0,0,1-.488-2.566l1.02-6.144h1.591l-1.028,6.17a4.1,4.1,0,0,0-.018.756,1.573,1.573,0,0,0,.378.993,1.29,1.29,0,0,0,.932.387,2.854,2.854,0,0,0,2.637-1.38l1.2-6.926h1.591L183.472,19h-1.5Zm9.492.94a2.13,2.13,0,0,1-.062-.5l.026-.5a3.9,3.9,0,0,1-2.777,1.178,2.841,2.841,0,0,1-2.043-.8,2.407,2.407,0,0,1-.716-1.947,2.927,2.927,0,0,1,1.323-2.36,5.631,5.631,0,0,1,3.248-.848l1.661.009.105-.756a1.738,1.738,0,0,0-.33-1.349,1.591,1.591,0,0,0-1.252-.514,2.453,2.453,0,0,0-1.446.4,1.7,1.7,0,0,0-.769,1.1l-1.6.009a2.55,2.55,0,0,1,.65-1.481,3.784,3.784,0,0,1,1.468-1A4.742,4.742,0,0,1,191,9.306a3.153,3.153,0,0,1,2.312.9,2.794,2.794,0,0,1,.694,2.3l-.773,4.711-.044.677a3.318,3.318,0,0,0,.105.958L193.28,19Zm-2.5-1.23a2.774,2.774,0,0,0,1.446-.365,3.661,3.661,0,0,0,1.173-1.059l.343-1.96-1.2-.009a4.561,4.561,0,0,0-2.3.475,1.748,1.748,0,0,0-.905,1.345,1.361,1.361,0,0,0,.312,1.112A1.486,1.486,0,0,0,189.167,17.77ZM197.156,19h-1.582l2.338-13.5H199.5Zm7.471-4.772a7.4,7.4,0,0,1,.8-2.619,4.534,4.534,0,0,1,1.538-1.749,3.517,3.517,0,0,1,2.013-.554,2.971,2.971,0,0,1,2.443,1.16l.914-4.966h1.591L211.588,19h-1.45l.167-1.02a3.506,3.506,0,0,1-2.777,1.2,2.627,2.627,0,0,1-2.1-1.033,4.5,4.5,0,0,1-.844-2.676A8.547,8.547,0,0,1,204.627,14.228Zm1.529.909a3.3,3.3,0,0,0,.448,1.949,1.617,1.617,0,0,0,1.389.711,2.874,2.874,0,0,0,2.452-1.387l.756-4.389a1.973,1.973,0,0,0-1.916-1.334,2.411,2.411,0,0,0-1.657.566,3.663,3.663,0,0,0-1.09,1.659A6.842,6.842,0,0,0,206.156,15.136Zm12.059,4.04a3.429,3.429,0,0,1-2.777-1.31,4.507,4.507,0,0,1-.844-3.261l.044-.378a6.327,6.327,0,0,1,.839-2.584,4.882,4.882,0,0,1,1.683-1.762,3.927,3.927,0,0,1,2.145-.567,3.024,3.024,0,0,1,2.3.976,4.012,4.012,0,0,1,.914,2.549,7.448,7.448,0,0,1-.035,1.143l-.1.729h-6.214a3.212,3.212,0,0,0,.426,2.2,2.019,2.019,0,0,0,1.745.94,3.383,3.383,0,0,0,2.6-1.266l.914.773a4.183,4.183,0,0,1-1.542,1.349A4.371,4.371,0,0,1,218.215,19.176Zm1.011-8.534a2.324,2.324,0,0,0-1.718.668,4.748,4.748,0,0,0-1.165,2.065l4.623.009.035-.141a2.6,2.6,0,0,0-.356-1.841A1.674,1.674,0,0,0,219.226,10.642Zm17.235,3.647a7.545,7.545,0,0,1-.782,2.61,4.442,4.442,0,0,1-1.5,1.736,3.44,3.44,0,0,1-1.986.549,3.167,3.167,0,0,1-2.531-1.116l-.853,4.588h-1.591L229.5,9.49l1.441-.009-.176,1.063a3.608,3.608,0,0,1,2.821-1.23,2.653,2.653,0,0,1,2.136,1.011,4.448,4.448,0,0,1,.809,2.689,9.464,9.464,0,0,1-.044,1.09Zm-1.564-.18.044-.737a3.34,3.34,0,0,0-.488-1.962,1.715,1.715,0,0,0-1.411-.715A2.821,2.821,0,0,0,230.66,12l-.8,4.556a1.99,1.99,0,0,0,1.925,1.3,2.5,2.5,0,0,0,2.017-.926A5.374,5.374,0,0,0,234.9,14.109Zm6.952,5.067a3.429,3.429,0,0,1-2.777-1.31,4.507,4.507,0,0,1-.844-3.261l.044-.378a6.327,6.327,0,0,1,.839-2.584,4.882,4.882,0,0,1,1.683-1.762,3.927,3.927,0,0,1,2.145-.567,3.024,3.024,0,0,1,2.3.976,4.012,4.012,0,0,1,.914,2.549,7.448,7.448,0,0,1-.035,1.143l-.1.729H239.81a3.212,3.212,0,0,0,.426,2.2,2.019,2.019,0,0,0,1.745.94,3.383,3.383,0,0,0,2.6-1.266l.914.773a4.183,4.183,0,0,1-1.542,1.349A4.371,4.371,0,0,1,241.849,19.176Zm1.011-8.534a2.324,2.324,0,0,0-1.718.668,4.748,4.748,0,0,0-1.165,2.065l4.623.009.035-.141a2.6,2.6,0,0,0-.356-1.841A1.674,1.674,0,0,0,242.859,10.642Zm4.667,3.586a7.4,7.4,0,0,1,.8-2.619,4.534,4.534,0,0,1,1.538-1.749,3.517,3.517,0,0,1,2.013-.554,2.971,2.971,0,0,1,2.443,1.16l.914-4.966h1.591L254.487,19h-1.45l.167-1.02a3.506,3.506,0,0,1-2.777,1.2,2.627,2.627,0,0,1-2.1-1.033,4.5,4.5,0,0,1-.844-2.676A8.547,8.547,0,0,1,247.526,14.228Zm1.529.909a3.3,3.3,0,0,0,.448,1.949,1.617,1.617,0,0,0,1.389.711,2.874,2.874,0,0,0,2.452-1.387l.756-4.389a1.973,1.973,0,0,0-1.916-1.334,2.411,2.411,0,0,0-1.657.566,3.663,3.663,0,0,0-1.09,1.659A6.842,6.842,0,0,0,249.056,15.136ZM258.724,19h-1.582l1.652-9.51h1.582Zm1.31-12.981a.87.87,0,0,1,.672.242.9.9,0,0,1,.268.681.938.938,0,0,1-.94.958.876.876,0,0,1-.677-.237.86.86,0,0,1-.255-.668,1,1,0,0,1,.264-.686A.93.93,0,0,1,260.033,6.019Zm7.207,4.922-.747-.079a2.722,2.722,0,0,0-2.408,1.38L262.916,19h-1.591l1.652-9.51,1.538-.009-.237,1.107A2.843,2.843,0,0,1,266.66,9.3a2.918,2.918,0,0,1,.756.132Zm9.773-1.626a3.428,3.428,0,0,1,2.048.65,3.7,3.7,0,0,1,1.261,1.745,5.4,5.4,0,0,1,.277,2.43l-.018.193a6.4,6.4,0,0,1-.826,2.509,4.848,4.848,0,0,1-1.705,1.745,4.158,4.158,0,0,1-2.294.589,3.434,3.434,0,0,1-2.043-.65,3.611,3.611,0,0,1-1.252-1.723,5.547,5.547,0,0,1-.281-2.4,6.48,6.48,0,0,1,.8-2.654A4.96,4.96,0,0,1,274.7,9.925,4.109,4.109,0,0,1,277.014,9.314Zm-3.234,5.1a5.4,5.4,0,0,0,0,1.151,2.821,2.821,0,0,0,.62,1.652,1.86,1.86,0,0,0,1.419.642,2.534,2.534,0,0,0,1.459-.391,3.284,3.284,0,0,0,1.125-1.261,5.311,5.311,0,0,0,.589-1.872,8.431,8.431,0,0,0,.026-1.362,2.927,2.927,0,0,0-.642-1.679,1.9,1.9,0,0,0-1.424-.65,2.592,2.592,0,0,0-2.092.967,4.776,4.776,0,0,0-1.063,2.6ZM292.008,19a2.13,2.13,0,0,1-.062-.5l.026-.5a3.9,3.9,0,0,1-2.777,1.178,2.841,2.841,0,0,1-2.043-.8,2.407,2.407,0,0,1-.716-1.947,2.927,2.927,0,0,1,1.323-2.36,5.631,5.631,0,0,1,3.248-.848l1.661.009.105-.756a1.738,1.738,0,0,0-.33-1.349,1.591,1.591,0,0,0-1.252-.514,2.453,2.453,0,0,0-1.446.4,1.7,1.7,0,0,0-.769,1.1l-1.6.009a2.55,2.55,0,0,1,.65-1.481,3.784,3.784,0,0,1,1.468-1,4.742,4.742,0,0,1,1.854-.338,3.153,3.153,0,0,1,2.312.9,2.794,2.794,0,0,1,.694,2.3l-.773,4.711-.044.677a3.318,3.318,0,0,0,.105.958l-.018.149Zm-2.5-1.23a2.774,2.774,0,0,0,1.446-.365,3.661,3.661,0,0,0,1.173-1.059l.343-1.96-1.2-.009a4.561,4.561,0,0,0-2.3.475,1.748,1.748,0,0,0-.905,1.345,1.361,1.361,0,0,0,.312,1.112A1.486,1.486,0,0,0,289.512,17.77ZM297.5,19h-1.582l2.338-13.5h1.591Zm4.324,0h-1.582L301.9,9.49h1.582Zm1.31-12.981a.87.87,0,0,1,.672.242.9.9,0,0,1,.268.681.938.938,0,0,1-.94.958.876.876,0,0,1-.677-.237.86.86,0,0,1-.255-.668,1,1,0,0,1,.264-.686A.93.93,0,0,1,303.135,6.019Zm7.181,10.406q.132-.984-1.081-1.389l-1.652-.483q-2.092-.721-2.021-2.391a2.634,2.634,0,0,1,1.147-2.061,4.085,4.085,0,0,1,2.553-.787,3.406,3.406,0,0,1,2.342.839,2.659,2.659,0,0,1,.866,2.14l-1.582-.009a1.484,1.484,0,0,0-.448-1.16,1.774,1.774,0,0,0-1.239-.466,2.316,2.316,0,0,0-1.424.4,1.48,1.48,0,0,0-.642,1.037q-.114.826,1.011,1.2l.8.22a5.15,5.15,0,0,1,2.32,1.1A2.1,2.1,0,0,1,311.9,16.3a2.666,2.666,0,0,1-.58,1.547,3.317,3.317,0,0,1-1.406,1.006,4.7,4.7,0,0,1-1.872.321,3.71,3.71,0,0,1-2.5-.883,2.731,2.731,0,0,1-.949-2.228l1.591.009a1.686,1.686,0,0,0,.51,1.283,1.948,1.948,0,0,0,1.4.483,2.741,2.741,0,0,0,1.5-.365A1.4,1.4,0,0,0,310.315,16.425Zm7.4-9.237-.4,2.3h1.731l-.22,1.257H317.1l-.993,5.915a2.062,2.062,0,0,0-.009.422.67.67,0,0,0,.747.686,4.556,4.556,0,0,0,.773-.088l-.123,1.327a4.328,4.328,0,0,1-1.16.158,1.661,1.661,0,0,1-1.424-.7,2.7,2.7,0,0,1-.369-1.833l.967-5.889h-1.679l.22-1.257h1.679l.4-2.3ZM325.125,19a2.13,2.13,0,0,1-.062-.5l.026-.5a3.9,3.9,0,0,1-2.777,1.178,2.841,2.841,0,0,1-2.043-.8,2.407,2.407,0,0,1-.716-1.947,2.927,2.927,0,0,1,1.323-2.36,5.631,5.631,0,0,1,3.248-.848l1.661.009.105-.756a1.738,1.738,0,0,0-.33-1.349,1.591,1.591,0,0,0-1.252-.514,2.453,2.453,0,0,0-1.446.4,1.7,1.7,0,0,0-.769,1.1l-1.6.009a2.55,2.55,0,0,1,.65-1.481,3.784,3.784,0,0,1,1.468-1,4.742,4.742,0,0,1,1.854-.338,3.153,3.153,0,0,1,2.312.9,2.794,2.794,0,0,1,.694,2.3l-.773,4.711-.044.677a3.318,3.318,0,0,0,.105.958l-.018.149Zm-2.5-1.23a2.774,2.774,0,0,0,1.446-.365,3.661,3.661,0,0,0,1.173-1.059l.343-1.96-1.2-.009a4.561,4.561,0,0,0-2.3.475,1.748,1.748,0,0,0-.905,1.345,1.361,1.361,0,0,0,.312,1.112A1.486,1.486,0,0,0,322.629,17.77Zm12.182-6.829-.747-.079a2.722,2.722,0,0,0-2.408,1.38L330.486,19H328.9l1.652-9.51,1.538-.009-.237,1.107A2.843,2.843,0,0,1,334.23,9.3a2.918,2.918,0,0,1,.756.132Zm17.367.905h-7.119l.246-1.415h7.128Zm-.633,3.647h-7.119l.246-1.406H351.8Z" transform="translate(163 8080)" fill="#12263f"/>
    <path id="Trazado_762493" data-name="Trazado 762493" d="M110.036,14.922a5.1,5.1,0,0,1-1.8,3.146,5.036,5.036,0,0,1-3.423,1.107,3.987,3.987,0,0,1-2.074-.584,3.693,3.693,0,0,1-1.38-1.608,6.007,6.007,0,0,1-.545-2.325,7.451,7.451,0,0,1,.062-1.406l.149-1.055a7.96,7.96,0,0,1,2.026-4.548,5.112,5.112,0,0,1,3.924-1.622,3.828,3.828,0,0,1,2.856,1.165,4.632,4.632,0,0,1,1.116,3.133h-1.644q-.114-2.689-2.109-2.9l-.29-.018a3.4,3.4,0,0,0-2.773,1.235,6.685,6.685,0,0,0-1.437,3.494l-.193,1.327-.053.773a4.35,4.35,0,0,0,.576,2.571,2.171,2.171,0,0,0,1.868.989,3.29,3.29,0,0,0,2.21-.642,4.269,4.269,0,0,0,1.332-2.206Zm6.732-5.607a3.428,3.428,0,0,1,2.048.65,3.7,3.7,0,0,1,1.261,1.745,5.4,5.4,0,0,1,.277,2.43l-.018.193a6.4,6.4,0,0,1-.826,2.509,4.848,4.848,0,0,1-1.705,1.745,4.158,4.158,0,0,1-2.294.589,3.434,3.434,0,0,1-2.043-.65,3.611,3.611,0,0,1-1.252-1.723,5.547,5.547,0,0,1-.281-2.4,6.48,6.48,0,0,1,.8-2.654,4.96,4.96,0,0,1,1.718-1.824A4.109,4.109,0,0,1,116.768,9.314Zm-3.234,5.1a5.4,5.4,0,0,0,0,1.151,2.821,2.821,0,0,0,.62,1.652,1.86,1.86,0,0,0,1.419.642,2.534,2.534,0,0,0,1.459-.391,3.284,3.284,0,0,0,1.125-1.261,5.311,5.311,0,0,0,.589-1.872,8.431,8.431,0,0,0,.026-1.362,2.927,2.927,0,0,0-.642-1.679,1.9,1.9,0,0,0-1.424-.65,2.592,2.592,0,0,0-2.092.967,4.776,4.776,0,0,0-1.063,2.6Zm13.887,2.013q.132-.984-1.081-1.389l-1.652-.483q-2.092-.721-2.021-2.391a2.634,2.634,0,0,1,1.147-2.061,4.085,4.085,0,0,1,2.553-.787,3.406,3.406,0,0,1,2.342.839,2.659,2.659,0,0,1,.866,2.14l-1.582-.009a1.484,1.484,0,0,0-.448-1.16,1.774,1.774,0,0,0-1.239-.466,2.316,2.316,0,0,0-1.424.4,1.48,1.48,0,0,0-.642,1.037q-.114.826,1.011,1.2l.8.22a5.15,5.15,0,0,1,2.32,1.1A2.1,2.1,0,0,1,129,16.3a2.666,2.666,0,0,1-.58,1.547,3.317,3.317,0,0,1-1.406,1.006,4.7,4.7,0,0,1-1.872.321,3.71,3.71,0,0,1-2.5-.883,2.731,2.731,0,0,1-.949-2.228l1.591.009a1.686,1.686,0,0,0,.51,1.283,1.948,1.948,0,0,0,1.4.483,2.741,2.741,0,0,0,1.5-.365A1.4,1.4,0,0,0,127.42,16.425Zm7.4-9.237-.4,2.3h1.731l-.22,1.257h-1.723l-.993,5.915a2.062,2.062,0,0,0-.009.422.67.67,0,0,0,.747.686,4.556,4.556,0,0,0,.773-.088l-.123,1.327a4.328,4.328,0,0,1-1.16.158,1.661,1.661,0,0,1-1.424-.7,2.7,2.7,0,0,1-.369-1.833l.967-5.889h-1.679l.22-1.257h1.679l.4-2.3Zm6.7,2.127a3.428,3.428,0,0,1,2.048.65,3.7,3.7,0,0,1,1.261,1.745,5.4,5.4,0,0,1,.277,2.43l-.018.193a6.4,6.4,0,0,1-.826,2.509,4.848,4.848,0,0,1-1.705,1.745,4.158,4.158,0,0,1-2.294.589,3.434,3.434,0,0,1-2.043-.65,3.611,3.611,0,0,1-1.252-1.723,5.547,5.547,0,0,1-.281-2.4,6.48,6.48,0,0,1,.8-2.654A4.96,4.96,0,0,1,139.2,9.925,4.109,4.109,0,0,1,141.518,9.314Zm-3.234,5.1a5.4,5.4,0,0,0,0,1.151,2.821,2.821,0,0,0,.62,1.652,1.86,1.86,0,0,0,1.419.642,2.534,2.534,0,0,0,1.459-.391,3.284,3.284,0,0,0,1.125-1.261,5.311,5.311,0,0,0,.589-1.872,8.431,8.431,0,0,0,.026-1.362,2.927,2.927,0,0,0-.642-1.679,1.9,1.9,0,0,0-1.424-.65,2.592,2.592,0,0,0-2.092.967,4.776,4.776,0,0,0-1.063,2.6ZM156.512,19a2.13,2.13,0,0,1-.062-.5l.026-.5a3.9,3.9,0,0,1-2.777,1.178,2.841,2.841,0,0,1-2.043-.8,2.407,2.407,0,0,1-.716-1.947,2.927,2.927,0,0,1,1.323-2.36,5.631,5.631,0,0,1,3.248-.848l1.661.009.105-.756a1.738,1.738,0,0,0-.33-1.349,1.591,1.591,0,0,0-1.252-.514,2.453,2.453,0,0,0-1.446.4,1.7,1.7,0,0,0-.769,1.1l-1.6.009a2.55,2.55,0,0,1,.65-1.481,3.784,3.784,0,0,1,1.468-1,4.742,4.742,0,0,1,1.854-.338,3.153,3.153,0,0,1,2.312.9,2.794,2.794,0,0,1,.694,2.3l-.773,4.711-.044.677a3.318,3.318,0,0,0,.105.958l-.018.149Zm-2.5-1.23a2.774,2.774,0,0,0,1.446-.365,3.661,3.661,0,0,0,1.173-1.059l.343-1.96-1.2-.009a4.561,4.561,0,0,0-2.3.475,1.748,1.748,0,0,0-.905,1.345,1.361,1.361,0,0,0,.312,1.112A1.486,1.486,0,0,0,154.016,17.77Zm9.422-8.288-.229,1.2a3.749,3.749,0,0,1,2.918-1.371,2.359,2.359,0,0,1,1.986.932,3.619,3.619,0,0,1,.475,2.522L167.551,19H165.96l1.046-6.251a3.332,3.332,0,0,0,.009-.8,1.314,1.314,0,0,0-1.45-1.255,2.994,2.994,0,0,0-2.514,1.528L161.874,19h-1.591l1.652-9.51Zm12.6,8.578a3.673,3.673,0,0,1-2.839,1.116,2.37,2.37,0,0,1-2.017-.976,3.731,3.731,0,0,1-.488-2.566l1.02-6.144h1.591l-1.028,6.17a4.1,4.1,0,0,0-.018.756,1.573,1.573,0,0,0,.378.993,1.29,1.29,0,0,0,.932.387,2.854,2.854,0,0,0,2.637-1.38l1.2-6.926h1.591L177.342,19h-1.5Zm9.492.94a2.13,2.13,0,0,1-.062-.5l.026-.5a3.9,3.9,0,0,1-2.777,1.178,2.841,2.841,0,0,1-2.043-.8,2.407,2.407,0,0,1-.716-1.947,2.927,2.927,0,0,1,1.323-2.36,5.631,5.631,0,0,1,3.248-.848l1.661.009.105-.756a1.738,1.738,0,0,0-.33-1.349,1.591,1.591,0,0,0-1.252-.514,2.453,2.453,0,0,0-1.446.4,1.7,1.7,0,0,0-.769,1.1l-1.6.009a2.55,2.55,0,0,1,.65-1.481,3.784,3.784,0,0,1,1.468-1,4.742,4.742,0,0,1,1.854-.338,3.153,3.153,0,0,1,2.312.9,2.794,2.794,0,0,1,.694,2.3l-.773,4.711-.044.677a3.318,3.318,0,0,0,.105.958l-.018.149Zm-2.5-1.23a2.774,2.774,0,0,0,1.446-.365,3.661,3.661,0,0,0,1.173-1.059l.343-1.96-1.2-.009a4.561,4.561,0,0,0-2.3.475,1.748,1.748,0,0,0-.905,1.345,1.361,1.361,0,0,0,.312,1.112A1.486,1.486,0,0,0,183.038,17.77ZM191.027,19h-1.582l2.338-13.5h1.591Zm7.471-4.772a7.4,7.4,0,0,1,.8-2.619,4.534,4.534,0,0,1,1.538-1.749,3.517,3.517,0,0,1,2.013-.554,2.971,2.971,0,0,1,2.443,1.16l.914-4.966H207.8L205.458,19h-1.45l.167-1.02a3.506,3.506,0,0,1-2.777,1.2,2.627,2.627,0,0,1-2.1-1.033,4.5,4.5,0,0,1-.844-2.676A8.547,8.547,0,0,1,198.5,14.228Zm1.529.909a3.3,3.3,0,0,0,.448,1.949,1.617,1.617,0,0,0,1.389.711,2.874,2.874,0,0,0,2.452-1.387l.756-4.389a1.973,1.973,0,0,0-1.916-1.334,2.411,2.411,0,0,0-1.657.566,3.663,3.663,0,0,0-1.09,1.659A6.842,6.842,0,0,0,200.027,15.136Zm12.059,4.04a3.429,3.429,0,0,1-2.777-1.31,4.507,4.507,0,0,1-.844-3.261l.044-.378a6.327,6.327,0,0,1,.839-2.584,4.882,4.882,0,0,1,1.683-1.762,3.927,3.927,0,0,1,2.145-.567,3.024,3.024,0,0,1,2.3.976,4.012,4.012,0,0,1,.914,2.549,7.448,7.448,0,0,1-.035,1.143l-.1.729h-6.214a3.212,3.212,0,0,0,.426,2.2,2.019,2.019,0,0,0,1.745.94,3.383,3.383,0,0,0,2.6-1.266l.914.773a4.183,4.183,0,0,1-1.542,1.349A4.371,4.371,0,0,1,212.085,19.176Zm1.011-8.534a2.324,2.324,0,0,0-1.718.668,4.748,4.748,0,0,0-1.165,2.065l4.623.009.035-.141a2.6,2.6,0,0,0-.356-1.841A1.674,1.674,0,0,0,213.1,10.642Zm11.76-1.16-.2,1.063a3.718,3.718,0,0,1,2.892-1.23,2.934,2.934,0,0,1,1.534.413,2.026,2.026,0,0,1,.866,1.116A3.927,3.927,0,0,1,233.1,9.314a2.515,2.515,0,0,1,2.1.958,3.422,3.422,0,0,1,.5,2.479L234.656,19h-1.582l1.037-6.267a3.311,3.311,0,0,0,0-.835q-.167-1.2-1.564-1.222a2.4,2.4,0,0,0-1.578.541,2.5,2.5,0,0,0-.91,1.463L228.978,19h-1.6l1.055-6.258a2.009,2.009,0,0,0-.294-1.5,1.549,1.549,0,0,0-1.27-.545,2.6,2.6,0,0,0-2.364,1.354L223.3,19h-1.591l1.652-9.51ZM242.926,19a2.13,2.13,0,0,1-.062-.5l.026-.5a3.9,3.9,0,0,1-2.777,1.178,2.841,2.841,0,0,1-2.043-.8,2.407,2.407,0,0,1-.716-1.947,2.927,2.927,0,0,1,1.323-2.36,5.631,5.631,0,0,1,3.248-.848l1.661.009.105-.756a1.738,1.738,0,0,0-.33-1.349,1.591,1.591,0,0,0-1.252-.514,2.453,2.453,0,0,0-1.446.4,1.7,1.7,0,0,0-.769,1.1l-1.6.009a2.55,2.55,0,0,1,.65-1.481,3.784,3.784,0,0,1,1.468-1,4.742,4.742,0,0,1,1.854-.338,3.153,3.153,0,0,1,2.312.9,2.794,2.794,0,0,1,.694,2.3l-.773,4.711-.044.677a3.318,3.318,0,0,0,.105.958l-.018.149Zm-2.5-1.23a2.774,2.774,0,0,0,1.446-.365,3.661,3.661,0,0,0,1.173-1.059l.343-1.96-1.2-.009a4.561,4.561,0,0,0-2.3.475,1.748,1.748,0,0,0-.905,1.345,1.361,1.361,0,0,0,.312,1.112A1.486,1.486,0,0,0,240.43,17.77Zm9.422-8.288-.229,1.2a3.749,3.749,0,0,1,2.918-1.371,2.359,2.359,0,0,1,1.986.932A3.619,3.619,0,0,1,255,12.769L253.965,19h-1.591l1.046-6.251a3.332,3.332,0,0,0,.009-.8,1.314,1.314,0,0,0-1.45-1.255,2.994,2.994,0,0,0-2.514,1.528L248.288,19H246.7l1.652-9.51Zm10.767-2.294-.4,2.3h1.731l-.22,1.257H260l-.993,5.915a2.062,2.062,0,0,0-.009.422.67.67,0,0,0,.747.686,4.556,4.556,0,0,0,.773-.088l-.123,1.327a4.328,4.328,0,0,1-1.16.158,1.661,1.661,0,0,1-1.424-.7,2.7,2.7,0,0,1-.369-1.833l.967-5.889h-1.679l.22-1.257h1.679l.4-2.3Zm5.7,11.988a3.429,3.429,0,0,1-2.777-1.31,4.507,4.507,0,0,1-.844-3.261l.044-.378a6.327,6.327,0,0,1,.839-2.584,4.882,4.882,0,0,1,1.683-1.762,3.927,3.927,0,0,1,2.145-.567,3.024,3.024,0,0,1,2.3.976,4.012,4.012,0,0,1,.914,2.549,7.448,7.448,0,0,1-.035,1.143l-.1.729h-6.214a3.212,3.212,0,0,0,.426,2.2,2.019,2.019,0,0,0,1.745.94,3.383,3.383,0,0,0,2.6-1.266l.914.773a4.183,4.183,0,0,1-1.542,1.349A4.371,4.371,0,0,1,266.323,19.176Zm1.011-8.534a2.324,2.324,0,0,0-1.718.668,4.748,4.748,0,0,0-1.165,2.065l4.623.009.035-.141a2.6,2.6,0,0,0-.356-1.841A1.674,1.674,0,0,0,267.333,10.642Zm7.365-1.16-.229,1.2a3.749,3.749,0,0,1,2.918-1.371,2.359,2.359,0,0,1,1.986.932,3.619,3.619,0,0,1,.475,2.522L278.812,19h-1.591l1.046-6.251a3.332,3.332,0,0,0,.009-.8,1.314,1.314,0,0,0-1.45-1.255,2.994,2.994,0,0,0-2.514,1.528L273.134,19h-1.591L273.2,9.49ZM282.987,19H281.4l1.652-9.51h1.582ZM284.3,6.019a.87.87,0,0,1,.672.242.9.9,0,0,1,.268.681.938.938,0,0,1-.94.958.876.876,0,0,1-.677-.237.86.86,0,0,1-.255-.668,1,1,0,0,1,.264-.686A.93.93,0,0,1,284.3,6.019Zm4.43,3.463-.2,1.063a3.718,3.718,0,0,1,2.892-1.23,2.934,2.934,0,0,1,1.534.413,2.026,2.026,0,0,1,.866,1.116,3.927,3.927,0,0,1,3.155-1.529,2.515,2.515,0,0,1,2.1.958,3.422,3.422,0,0,1,.5,2.479L298.526,19h-1.582l1.037-6.267a3.311,3.311,0,0,0,0-.835q-.167-1.2-1.564-1.222a2.4,2.4,0,0,0-1.578.541,2.5,2.5,0,0,0-.91,1.463L292.848,19h-1.6l1.055-6.258a2.009,2.009,0,0,0-.294-1.5,1.549,1.549,0,0,0-1.27-.545,2.6,2.6,0,0,0-2.364,1.354L287.17,19H285.58l1.652-9.51ZM302.7,19h-1.582l1.652-9.51h1.582Zm1.31-12.981a.87.87,0,0,1,.672.242.9.9,0,0,1,.268.681.938.938,0,0,1-.94.958.876.876,0,0,1-.677-.237.86.86,0,0,1-.255-.668,1,1,0,0,1,.264-.686A.93.93,0,0,1,304.01,6.019Zm5.405,13.157a3.429,3.429,0,0,1-2.777-1.31,4.507,4.507,0,0,1-.844-3.261l.044-.378a6.327,6.327,0,0,1,.839-2.584,4.882,4.882,0,0,1,1.683-1.762,3.927,3.927,0,0,1,2.145-.567,3.024,3.024,0,0,1,2.3.976,4.012,4.012,0,0,1,.914,2.549,7.448,7.448,0,0,1-.035,1.143l-.1.729h-6.214a3.212,3.212,0,0,0,.426,2.2,2.019,2.019,0,0,0,1.745.94,3.383,3.383,0,0,0,2.6-1.266l.914.773a4.183,4.183,0,0,1-1.542,1.349A4.371,4.371,0,0,1,309.416,19.176Zm1.011-8.534a2.324,2.324,0,0,0-1.718.668,4.748,4.748,0,0,0-1.165,2.065l4.623.009.035-.141a2.6,2.6,0,0,0-.356-1.841A1.674,1.674,0,0,0,310.426,10.642Zm7.365-1.16-.229,1.2a3.749,3.749,0,0,1,2.918-1.371,2.359,2.359,0,0,1,1.986.932,3.619,3.619,0,0,1,.475,2.522L321.9,19h-1.591l1.046-6.251a3.332,3.332,0,0,0,.009-.8,1.314,1.314,0,0,0-1.45-1.255,2.994,2.994,0,0,0-2.514,1.528L316.227,19h-1.591l1.652-9.51Zm10.767-2.294-.4,2.3h1.731l-.22,1.257h-1.723l-.993,5.915a2.062,2.062,0,0,0-.009.422.67.67,0,0,0,.747.686,4.556,4.556,0,0,0,.773-.088l-.123,1.327a4.328,4.328,0,0,1-1.16.158,1.661,1.661,0,0,1-1.424-.7,2.7,2.7,0,0,1-.369-1.833l.967-5.889h-1.679l.22-1.257h1.679l.4-2.3Zm6.7,2.127a3.428,3.428,0,0,1,2.048.65,3.7,3.7,0,0,1,1.261,1.745,5.4,5.4,0,0,1,.277,2.43l-.018.193A6.4,6.4,0,0,1,338,16.842a4.848,4.848,0,0,1-1.705,1.745,4.158,4.158,0,0,1-2.294.589,3.434,3.434,0,0,1-2.043-.65A3.611,3.611,0,0,1,330.7,16.8a5.547,5.547,0,0,1-.281-2.4,6.48,6.48,0,0,1,.8-2.654,4.96,4.96,0,0,1,1.718-1.824A4.109,4.109,0,0,1,335.255,9.314Zm-3.234,5.1a5.4,5.4,0,0,0,0,1.151,2.821,2.821,0,0,0,.62,1.652,1.86,1.86,0,0,0,1.419.642,2.534,2.534,0,0,0,1.459-.391,3.284,3.284,0,0,0,1.125-1.261,5.311,5.311,0,0,0,.589-1.872,8.431,8.431,0,0,0,.026-1.362,2.927,2.927,0,0,0-.642-1.679,1.9,1.9,0,0,0-1.424-.65,2.592,2.592,0,0,0-2.092.967,4.776,4.776,0,0,0-1.063,2.6Zm25.286-2.566h-7.119l.246-1.415h7.128Zm-.633,3.647h-7.119l.246-1.406h7.128Z" transform="translate(163 8155)" fill="#12263f"/>
    <path id="Trazado_762494" data-name="Trazado 762494" d="M36.147,7.583H32.166L30.188,19H28.544L30.522,7.583H26.541l.246-1.38h9.606Zm5.44,6.249H38.634L37.738,19H36.077L38.3,6.2l3.85.009a4.29,4.29,0,0,1,3.067,1.021A3.184,3.184,0,0,1,46.1,9.987a3.646,3.646,0,0,1-.875,2.121,4.777,4.777,0,0,1-2.07,1.381l1.986,5.4L45.138,19H43.38Zm-2.716-1.389,2.426.009a3.388,3.388,0,0,0,2.136-.672,2.617,2.617,0,0,0,1.02-1.8,2.067,2.067,0,0,0-.439-1.723,2.348,2.348,0,0,0-1.74-.659l-2.558-.009Zm17.807,2.479a5.1,5.1,0,0,1-1.8,3.146,5.036,5.036,0,0,1-3.423,1.107,3.987,3.987,0,0,1-2.074-.584A3.693,3.693,0,0,1,48,16.983a6.007,6.007,0,0,1-.545-2.325,7.451,7.451,0,0,1,.062-1.406l.149-1.055A7.96,7.96,0,0,1,49.7,7.649,5.112,5.112,0,0,1,53.62,6.027a3.828,3.828,0,0,1,2.856,1.165,4.632,4.632,0,0,1,1.116,3.133H55.949q-.114-2.689-2.109-2.9l-.29-.018a3.4,3.4,0,0,0-2.773,1.235,6.685,6.685,0,0,0-1.437,3.494l-.193,1.327-.053.773a4.35,4.35,0,0,0,.576,2.571,2.171,2.171,0,0,0,1.868.989,3.29,3.29,0,0,0,2.21-.642,4.269,4.269,0,0,0,1.332-2.206ZM71,11.846H63.885l.246-1.415h7.128Zm-.633,3.647H63.252l.246-1.406h7.128Z" transform="translate(269 8225)" fill="#12263f"/>
    <path id="Trazado_762495" data-name="Trazado 762495" d="M18.187,9.837h3.173v2.294H18.187v3.586H15.77V12.131H12.588V9.837H15.77V6.4h2.417Z" transform="translate(452 8225)" fill="#12263f"/>
    <path id="Trazado_762496" data-name="Trazado 762496" d="M-6.71,0l2.841-16.352,4.245.011a5.894,5.894,0,0,1,3.442,1A5.513,5.513,0,0,1,5.89-12.584a8.57,8.57,0,0,1,.371,3.936l-.112.82a9.246,9.246,0,0,1-2.774,5.7A8.067,8.067,0,0,1-2.353,0Zm4.638-14.588L-4.3-1.774l2.078.011A5.838,5.838,0,0,0,1.819-3.246,7.037,7.037,0,0,0,3.97-7.311a13.227,13.227,0,0,0,.27-3.515A4.281,4.281,0,0,0,3.083-13.55a3.745,3.745,0,0,0-2.65-1.028Z" transform="translate(575 8088)" fill="#12263f"/>
    <path id="Trazado_762497" data-name="Trazado 762497" d="M2.353-.816,4.684,1.429,3.19,2.643.462.032A7.5,7.5,0,0,1-1.128.2,4.823,4.823,0,0,1-3.717-.51a4.64,4.64,0,0,1-1.735-2.03,7.752,7.752,0,0,1-.682-3,14.279,14.279,0,0,1,.285-3.228,10.936,10.936,0,0,1,1.2-3.384A7.883,7.883,0,0,1-2.6-14.588a6.106,6.106,0,0,1,3.932-1.268,5.073,5.073,0,0,1,2.632.73A4.572,4.572,0,0,1,5.693-13.1a7.816,7.816,0,0,1,.677,3A11.533,11.533,0,0,1,6.295-8.3l-.129.913Q5.5-2.761,2.353-.816ZM4.372-9.6a5.316,5.316,0,0,0-.741-3.3,2.844,2.844,0,0,0-2.385-1.192,4.074,4.074,0,0,0-2.573.773,5.855,5.855,0,0,0-1.858,2.444A12.592,12.592,0,0,0-4.1-6.757l-.032.7a6.936,6.936,0,0,0,.29,2.31A3.173,3.173,0,0,0-2.788-2.116a2.982,2.982,0,0,0,1.778.591A4.066,4.066,0,0,0,2.315-2.954,8.226,8.226,0,0,0,4.114-7.2,18.47,18.47,0,0,0,4.372-9.6Z" transform="translate(586 8161)" fill="#12263f"/>
    <path id="Trazado_762498" data-name="Trazado 762498" d="M-6.71,0l2.841-16.352,4.245.011a5.894,5.894,0,0,1,3.442,1A5.513,5.513,0,0,1,5.89-12.584a8.57,8.57,0,0,1,.371,3.936l-.112.82a9.246,9.246,0,0,1-2.774,5.7A8.067,8.067,0,0,1-2.353,0Zm4.638-14.588L-4.3-1.774l2.078.011A5.838,5.838,0,0,0,1.819-3.246,7.037,7.037,0,0,0,3.97-7.311a13.227,13.227,0,0,0,.27-3.515A4.281,4.281,0,0,0,3.083-13.55a3.745,3.745,0,0,0-2.65-1.028Z" transform="translate(388 8230)" fill="#12263f"/>
    <path id="Trazado_762499" data-name="Trazado 762499" d="M2.353-.816,4.684,1.429,3.19,2.643.462.032A7.5,7.5,0,0,1-1.128.2,4.823,4.823,0,0,1-3.717-.51a4.64,4.64,0,0,1-1.735-2.03,7.752,7.752,0,0,1-.682-3,14.279,14.279,0,0,1,.285-3.228,10.936,10.936,0,0,1,1.2-3.384A7.883,7.883,0,0,1-2.6-14.588a6.106,6.106,0,0,1,3.932-1.268,5.073,5.073,0,0,1,2.632.73A4.572,4.572,0,0,1,5.693-13.1a7.816,7.816,0,0,1,.677,3A11.533,11.533,0,0,1,6.295-8.3l-.129.913Q5.5-2.761,2.353-.816ZM4.372-9.6a5.316,5.316,0,0,0-.741-3.3,2.844,2.844,0,0,0-2.385-1.192,4.074,4.074,0,0,0-2.573.773,5.855,5.855,0,0,0-1.858,2.444A12.592,12.592,0,0,0-4.1-6.757l-.032.7a6.936,6.936,0,0,0,.29,2.31A3.173,3.173,0,0,0-2.788-2.116a2.982,2.982,0,0,0,1.778.591A4.066,4.066,0,0,0,2.315-2.954,8.226,8.226,0,0,0,4.114-7.2,18.47,18.47,0,0,0,4.372-9.6Z" transform="translate(515 8229)" fill="#12263f"/>
    <path id="Trazado_762500" data-name="Trazado 762500" d="M2.353-.816,4.684,1.429,3.19,2.643.462.032A7.5,7.5,0,0,1-1.128.2,4.823,4.823,0,0,1-3.717-.51a4.64,4.64,0,0,1-1.735-2.03,7.752,7.752,0,0,1-.682-3,14.279,14.279,0,0,1,.285-3.228,10.936,10.936,0,0,1,1.2-3.384A7.883,7.883,0,0,1-2.6-14.588a6.106,6.106,0,0,1,3.932-1.268,5.073,5.073,0,0,1,2.632.73A4.572,4.572,0,0,1,5.693-13.1a7.816,7.816,0,0,1,.677,3A11.533,11.533,0,0,1,6.295-8.3l-.129.913Q5.5-2.761,2.353-.816ZM4.372-9.6a5.316,5.316,0,0,0-.741-3.3,2.844,2.844,0,0,0-2.385-1.192,4.074,4.074,0,0,0-2.573.773,5.855,5.855,0,0,0-1.858,2.444A12.592,12.592,0,0,0-4.1-6.757l-.032.7a6.936,6.936,0,0,0,.29,2.31A3.173,3.173,0,0,0-2.788-2.116a2.982,2.982,0,0,0,1.778.591A4.066,4.066,0,0,0,2.315-2.954,8.226,8.226,0,0,0,4.114-7.2,18.47,18.47,0,0,0,4.372-9.6Z" transform="translate(575 8120)" fill="#12263f"/>
    <path id="Trazado_762501" data-name="Trazado 762501" d="M4.346,0H-6.064l.247-1.583L.213-7.446l1.1-1.089a6.445,6.445,0,0,0,2.1-3.5,2.6,2.6,0,0,0-.483-2.016,2.272,2.272,0,0,0-1.774-.825,3.346,3.346,0,0,0-2.459.859,3.946,3.946,0,0,0-1.2,2.476l-2.01.011A5.687,5.687,0,0,1-3.588-14.2a5.161,5.161,0,0,1,2.055-1.786,5.905,5.905,0,0,1,2.768-.59,4.537,4.537,0,0,1,3.229,1.23,3.644,3.644,0,0,1,1.028,3.072A7.827,7.827,0,0,1,3.01-7.738L1.977-6.693l-5.256,5h7.9Z" transform="translate(587 8195)" fill="#12263f"/>
    <path id="Trazado_762502" data-name="Trazado 762502" d="M2.353-.816,4.684,1.429,3.19,2.643.462.032A7.5,7.5,0,0,1-1.128.2,4.823,4.823,0,0,1-3.717-.51a4.64,4.64,0,0,1-1.735-2.03,7.752,7.752,0,0,1-.682-3,14.279,14.279,0,0,1,.285-3.228,10.936,10.936,0,0,1,1.2-3.384A7.883,7.883,0,0,1-2.6-14.588a6.106,6.106,0,0,1,3.932-1.268,5.073,5.073,0,0,1,2.632.73A4.572,4.572,0,0,1,5.693-13.1a7.816,7.816,0,0,1,.677,3A11.533,11.533,0,0,1,6.295-8.3l-.129.913Q5.5-2.761,2.353-.816ZM4.372-9.6a5.316,5.316,0,0,0-.741-3.3,2.844,2.844,0,0,0-2.385-1.192,4.074,4.074,0,0,0-2.573.773,5.855,5.855,0,0,0-1.858,2.444A12.592,12.592,0,0,0-4.1-6.757l-.032.7a6.936,6.936,0,0,0,.29,2.31A3.173,3.173,0,0,0-2.788-2.116a2.982,2.982,0,0,0,1.778.591A4.066,4.066,0,0,0,2.315-2.954,8.226,8.226,0,0,0,4.114-7.2,18.47,18.47,0,0,0,4.372-9.6Z" transform="translate(388 8262)" fill="#12263f"/>
    <path id="Trazado_762503" data-name="Trazado 762503" d="M4.346,0H-6.064l.247-1.583L.213-7.446l1.1-1.089a6.445,6.445,0,0,0,2.1-3.5,2.6,2.6,0,0,0-.483-2.016,2.272,2.272,0,0,0-1.774-.825,3.346,3.346,0,0,0-2.459.859,3.946,3.946,0,0,0-1.2,2.476l-2.01.011A5.687,5.687,0,0,1-3.588-14.2a5.161,5.161,0,0,1,2.055-1.786,5.905,5.905,0,0,1,2.768-.59,4.537,4.537,0,0,1,3.229,1.23,3.644,3.644,0,0,1,1.028,3.072A7.827,7.827,0,0,1,3.01-7.738L1.977-6.693l-5.256,5h7.9Z" transform="translate(515 8263)" fill="#12263f"/>
    <path id="Trazado_762504" data-name="Trazado 762504" d="M-10.046-11.09l-3.111-1.01.764-1.615,3.122,1.268.573-3.9h1.685L-7.8-12.492-4.4-13.7l.213,1.784L-7.721-10.9-6.07-7.811l-1.437.988-1.471-3.257-2.493,3.145-1.28-1.1Zm20.9,6.879q.247-1.8-1.864-2.628L7.047-7.547,6.4-7.828q-3.279-1.494-3.066-4.2a4.393,4.393,0,0,1,.932-2.4,5.3,5.3,0,0,1,2.173-1.612,6.971,6.971,0,0,1,2.881-.533,5.75,5.75,0,0,1,2.645.663,4.258,4.258,0,0,1,1.769,1.758,4.791,4.791,0,0,1,.539,2.544l-2.123-.011a2.929,2.929,0,0,0-.674-2.339,3.017,3.017,0,0,0-2.246-.851,4.184,4.184,0,0,0-2.572.72,2.811,2.811,0,0,0-1.19,2.025q-.225,1.676,2.055,2.543l1.673.6.842.359q3.167,1.46,2.931,4.335a4.33,4.33,0,0,1-.932,2.386,5.212,5.212,0,0,1-2.2,1.555A7.569,7.569,0,0,1,6.856.225,6.238,6.238,0,0,1,4.043-.432,4.59,4.59,0,0,1,2.106-2.2,4.424,4.424,0,0,1,1.522-4.75l2.111.011A2.782,2.782,0,0,0,4.425-2.42a3.564,3.564,0,0,0,2.521.882A4.5,4.5,0,0,0,9.63-2.246,2.755,2.755,0,0,0,10.854-4.211Z" transform="translate(614 8106)" fill="#12263f"/>
    <path id="Trazado_762505" data-name="Trazado 762505" d="M-10.882-10.608l-2.976-.966.73-1.545,2.986,1.213.548-3.734h1.611l-.752,3.691,3.255-1.159.2,1.706-3.384.977,1.579,2.954-1.375.945L-9.861-9.641l-2.385,3.008-1.225-1.053ZM12,0H9.979l1.257-7.229H3.6L2.342,0H.322L3.04-15.641H5.06L3.889-8.916h7.627l1.171-6.725h2.03Z" transform="translate(625 8179)" fill="#12263f"/>
    <path id="Trazado_762506" data-name="Trazado 762506" d="M-10.046-11.09l-3.111-1.01.764-1.615,3.122,1.268.573-3.9h1.685L-7.8-12.492-4.4-13.7l.213,1.784L-7.721-10.9-6.07-7.811l-1.437.988-1.471-3.257-2.493,3.145-1.28-1.1Zm20.9,6.879q.247-1.8-1.864-2.628L7.047-7.547,6.4-7.828q-3.279-1.494-3.066-4.2a4.393,4.393,0,0,1,.932-2.4,5.3,5.3,0,0,1,2.173-1.612,6.971,6.971,0,0,1,2.881-.533,5.75,5.75,0,0,1,2.645.663,4.258,4.258,0,0,1,1.769,1.758,4.791,4.791,0,0,1,.539,2.544l-2.123-.011a2.929,2.929,0,0,0-.674-2.339,3.017,3.017,0,0,0-2.246-.851,4.184,4.184,0,0,0-2.572.72,2.811,2.811,0,0,0-1.19,2.025q-.225,1.676,2.055,2.543l1.673.6.842.359q3.167,1.46,2.931,4.335a4.33,4.33,0,0,1-.932,2.386,5.212,5.212,0,0,1-2.2,1.555A7.569,7.569,0,0,1,6.856.225,6.238,6.238,0,0,1,4.043-.432,4.59,4.59,0,0,1,2.106-2.2,4.424,4.424,0,0,1,1.522-4.75l2.111.011A2.782,2.782,0,0,0,4.425-2.42a3.564,3.564,0,0,0,2.521.882A4.5,4.5,0,0,0,9.63-2.246,2.755,2.755,0,0,0,10.854-4.211Z" transform="translate(426 8248)" fill="#12263f"/>
    <path id="Trazado_762507" data-name="Trazado 762507" d="M-10.882-10.608l-2.976-.966.73-1.545,2.986,1.213.548-3.734h1.611l-.752,3.691,3.255-1.159.2,1.706-3.384.977,1.579,2.954-1.375.945L-9.861-9.641l-2.385,3.008-1.225-1.053ZM12,0H9.979l1.257-7.229H3.6L2.342,0H.322L3.04-15.641H5.06L3.889-8.916h7.627l1.171-6.725h2.03Z" transform="translate(553 8247)" fill="#12263f"/>
    <path id="Trazado_762508" data-name="Trazado 762508" d="M0,0H26V4H0Z" transform="translate(563 8095)" fill="#12263f"/>
    <path id="Trazado_762509" data-name="Trazado 762509" d="M0,0H27V3H0Z" transform="translate(574 8170)" fill="#12263f"/>
    <path id="Trazado_762510" data-name="Trazado 762510" d="M0,0H26V3H0Z" transform="translate(376 8238)" fill="#12263f"/>
    <path id="Trazado_762511" data-name="Trazado 762511" d="M0,0H26V3H0Z" transform="translate(503 8238)" fill="#12263f"/>
    <path id="Trazado_762512" data-name="Trazado 762512" d="M-6.251-17.026a44.54,44.54,0,0,1,1.743-12.5,36.32,36.32,0,0,1,5.2-10.89,22.122,22.122,0,0,1,7.173-6.914l1.095,3.515q-4.206,3.227-6.9,9.853A42.712,42.712,0,0,0-.893-19.129L-.922-16.68A42.935,42.935,0,0,0,3.14,2.622a23.053,23.053,0,0,0,5.819,7.663L7.865,13.54A22.832,22.832,0,0,1,.547,6.4Q-6.251-3.4-6.251-17.026Z" transform="translate(364 8257)" fill="#12263f"/>
    <path id="Trazado_762513" data-name="Trazado 762513" d="M-6.251-17.026a44.54,44.54,0,0,1,1.743-12.5,36.32,36.32,0,0,1,5.2-10.89,22.122,22.122,0,0,1,7.173-6.914l1.095,3.515q-4.206,3.227-6.9,9.853A42.712,42.712,0,0,0-.893-19.129L-.922-16.68A42.935,42.935,0,0,0,3.14,2.622a23.053,23.053,0,0,0,5.819,7.663L7.865,13.54A22.832,22.832,0,0,1,.547,6.4Q-6.251-3.4-6.251-17.026Z" transform="translate(491 8257)" fill="#12263f"/>
    <path id="Trazado_762514" data-name="Trazado 762514" d="M6.285-17.305A46.072,46.072,0,0,1,4.542-4.572,37.652,37.652,0,0,1-.789,6.672,23.359,23.359,0,0,1-8.31,14l-1.162-3.366Q-4.885,7.119-2.1-.283A47.226,47.226,0,0,0,.745-16.709v-.953A49.033,49.033,0,0,0-.566-29.294a39.255,39.255,0,0,0-3.649-9.635,22.256,22.256,0,0,0-5.257-6.642l1.162-3.366A23.268,23.268,0,0,1-.819-41.669,37.732,37.732,0,0,1,4.512-30.44,47.136,47.136,0,0,1,6.285-17.305Z" transform="translate(447 8259)" fill="#12263f"/>
    <path id="Trazado_762515" data-name="Trazado 762515" d="M6.285-17.305A46.072,46.072,0,0,1,4.542-4.572,37.652,37.652,0,0,1-.789,6.672,23.359,23.359,0,0,1-8.31,14l-1.162-3.366Q-4.885,7.119-2.1-.283A47.226,47.226,0,0,0,.745-16.709v-.953A49.033,49.033,0,0,0-.566-29.294a39.255,39.255,0,0,0-3.649-9.635,22.256,22.256,0,0,0-5.257-6.642l1.162-3.366A23.268,23.268,0,0,1-.819-41.669,37.732,37.732,0,0,1,4.512-30.44,47.136,47.136,0,0,1,6.285-17.305Z" transform="translate(574 8259)" fill="#12263f"/>
    <path id="Trazado_762488" data-name="Trazado 762488" d="M0,0H505V44H0Z" transform="translate(180 7924)" fill="#91b3fa"/>
    <path id="Trazado_762489" data-name="Trazado 762489" d="M113.1,13.117h4.977V15h-7.32V3.625H113.1ZM124.172,15a2.507,2.507,0,0,1-.227-.758,2.732,2.732,0,0,1-2.133.914,3,3,0,0,1-2.059-.719,2.312,2.312,0,0,1-.816-1.812,2.389,2.389,0,0,1,1-2.062,4.915,4.915,0,0,1,2.879-.727h1.039V9.352a1.393,1.393,0,0,0-.3-.937,1.183,1.183,0,0,0-.949-.352,1.345,1.345,0,0,0-.895.273.929.929,0,0,0-.324.75h-2.258a2.268,2.268,0,0,1,.453-1.359,3,3,0,0,1,1.281-.98,4.669,4.669,0,0,1,1.859-.355,3.689,3.689,0,0,1,2.48.785,2.747,2.747,0,0,1,.918,2.207v3.664a4.041,4.041,0,0,0,.336,1.82V15ZM122.3,13.43a1.945,1.945,0,0,0,.922-.223,1.462,1.462,0,0,0,.625-.6V11.156h-.844q-1.7,0-1.8,1.172l-.008.133a.9.9,0,0,0,.3.7A1.153,1.153,0,0,0,122.3,13.43Zm10.125-.766a.727.727,0,0,0-.41-.652,4.659,4.659,0,0,0-1.316-.426q-3.016-.633-3.016-2.562a2.323,2.323,0,0,1,.934-1.879,3.766,3.766,0,0,1,2.441-.754,4.053,4.053,0,0,1,2.574.758,2.388,2.388,0,0,1,.965,1.969h-2.258a1.092,1.092,0,0,0-.312-.8A1.322,1.322,0,0,0,131.055,8a1.351,1.351,0,0,0-.883.258.814.814,0,0,0-.312.656.7.7,0,0,0,.355.605,3.657,3.657,0,0,0,1.2.4,9.8,9.8,0,0,1,1.422.379,2.336,2.336,0,0,1,1.789,2.273,2.205,2.205,0,0,1-.992,1.871,4.28,4.28,0,0,1-2.562.715,4.47,4.47,0,0,1-1.887-.379,3.166,3.166,0,0,1-1.293-1.039,2.414,2.414,0,0,1-.469-1.426h2.141a1.179,1.179,0,0,0,.445.922,1.766,1.766,0,0,0,1.109.32,1.635,1.635,0,0,0,.98-.246A.766.766,0,0,0,132.43,12.664Zm11.523,2.492a4.15,4.15,0,0,1-3.027-1.141,4.054,4.054,0,0,1-1.168-3.039v-.219a5.106,5.106,0,0,1,.492-2.277,3.612,3.612,0,0,1,1.395-1.547,3.914,3.914,0,0,1,2.059-.543,3.508,3.508,0,0,1,2.73,1.094,4.444,4.444,0,0,1,1,3.1v.922h-5.383a2.1,2.1,0,0,0,.66,1.328,2,2,0,0,0,1.395.5,2.437,2.437,0,0,0,2.039-.945l1.109,1.242a3.389,3.389,0,0,1-1.375,1.121A4.511,4.511,0,0,1,143.953,15.156ZM143.7,8.211a1.411,1.411,0,0,0-1.09.455,2.357,2.357,0,0,0-.535,1.3h3.141V9.788a1.681,1.681,0,0,0-.406-1.165A1.456,1.456,0,0,0,143.7,8.211Zm8.531,5.125a1.481,1.481,0,0,0,1.016-.344,1.2,1.2,0,0,0,.406-.914h2.117a2.9,2.9,0,0,1-.469,1.574,3.093,3.093,0,0,1-1.262,1.109,3.949,3.949,0,0,1-1.77.395A3.67,3.67,0,0,1,149.406,14a4.56,4.56,0,0,1-1.047-3.184v-.148A4.508,4.508,0,0,1,149.4,7.555a3.627,3.627,0,0,1,2.852-1.164,3.555,3.555,0,0,1,2.543.9,3.2,3.2,0,0,1,.973,2.4h-2.117a1.551,1.551,0,0,0-.406-1.072,1.51,1.51,0,0,0-2.223.163,3.333,3.333,0,0,0-.4,1.866v.235a3.375,3.375,0,0,0,.4,1.878A1.377,1.377,0,0,0,152.227,13.336Zm9.891.8a2.831,2.831,0,0,1-2.312,1.016,2.67,2.67,0,0,1-2.074-.781,3.335,3.335,0,0,1-.73-2.289V6.547h2.258v5.467q0,1.322,1.2,1.322a1.63,1.63,0,0,0,1.578-.8V6.547H164.3V15H162.18Zm8.789.859a2.507,2.507,0,0,1-.227-.758,2.732,2.732,0,0,1-2.133.914,3,3,0,0,1-2.059-.719,2.312,2.312,0,0,1-.816-1.812,2.389,2.389,0,0,1,1-2.062,4.915,4.915,0,0,1,2.879-.727h1.039V9.352a1.393,1.393,0,0,0-.3-.937,1.183,1.183,0,0,0-.949-.352,1.345,1.345,0,0,0-.895.273.929.929,0,0,0-.324.75h-2.258a2.268,2.268,0,0,1,.453-1.359,3,3,0,0,1,1.281-.98,4.669,4.669,0,0,1,1.859-.355,3.689,3.689,0,0,1,2.48.785,2.747,2.747,0,0,1,.918,2.207v3.664a4.041,4.041,0,0,0,.336,1.82V15Zm-1.867-1.57a1.945,1.945,0,0,0,.922-.223,1.462,1.462,0,0,0,.625-.6V11.156h-.844q-1.7,0-1.8,1.172l-.008.133a.9.9,0,0,0,.3.7A1.153,1.153,0,0,0,169.039,13.43Zm9.063-.094a1.481,1.481,0,0,0,1.016-.344,1.2,1.2,0,0,0,.406-.914h2.117a2.9,2.9,0,0,1-.469,1.574,3.093,3.093,0,0,1-1.262,1.109,3.949,3.949,0,0,1-1.77.395A3.67,3.67,0,0,1,175.281,14a4.56,4.56,0,0,1-1.047-3.184v-.148a4.508,4.508,0,0,1,1.039-3.117,3.627,3.627,0,0,1,2.852-1.164,3.555,3.555,0,0,1,2.543.9,3.2,3.2,0,0,1,.973,2.4h-2.117a1.551,1.551,0,0,0-.406-1.072,1.51,1.51,0,0,0-2.223.163,3.333,3.333,0,0,0-.4,1.866v.235a3.375,3.375,0,0,0,.4,1.878A1.377,1.377,0,0,0,178.1,13.336ZM185.313,15h-2.266V6.547h2.266Zm-2.4-10.641a1.112,1.112,0,0,1,.34-.836,1.465,1.465,0,0,1,1.848,0,1.105,1.105,0,0,1,.344.836,1.109,1.109,0,0,1-.348.844,1.448,1.448,0,0,1-1.836,0A1.109,1.109,0,0,1,182.914,4.359ZM186.82,10.7a5.013,5.013,0,0,1,.484-2.242A3.546,3.546,0,0,1,188.7,6.93a4.069,4.069,0,0,1,2.113-.539,3.849,3.849,0,0,1,2.793,1.047,4.2,4.2,0,0,1,1.207,2.844l.016.578a4.418,4.418,0,0,1-1.086,3.121,4.209,4.209,0,0,1-5.832,0,4.5,4.5,0,0,1-1.09-3.187Zm2.258.16a3.16,3.16,0,0,0,.453,1.843,1.628,1.628,0,0,0,2.578.008,3.457,3.457,0,0,0,.461-2.015,3.128,3.128,0,0,0-.461-1.831,1.5,1.5,0,0,0-1.3-.649,1.474,1.474,0,0,0-1.281.646A3.516,3.516,0,0,0,189.078,10.856ZM198.3,6.547l.07.977a2.951,2.951,0,0,1,2.43-1.133,2.453,2.453,0,0,1,2,.789,3.682,3.682,0,0,1,.672,2.359V15h-2.258V9.594a1.465,1.465,0,0,0-.312-1.043,1.4,1.4,0,0,0-1.039-.324,1.553,1.553,0,0,0-1.43.813V15h-2.258V6.547Zm10.773,8.609a4.15,4.15,0,0,1-3.027-1.141,4.054,4.054,0,0,1-1.168-3.039v-.219a5.106,5.106,0,0,1,.492-2.277,3.612,3.612,0,0,1,1.395-1.547,3.914,3.914,0,0,1,2.059-.543,3.508,3.508,0,0,1,2.73,1.094,4.444,4.444,0,0,1,1,3.1v.922h-5.383a2.1,2.1,0,0,0,.66,1.328,2,2,0,0,0,1.395.5,2.437,2.437,0,0,0,2.039-.945l1.109,1.242a3.389,3.389,0,0,1-1.375,1.121A4.511,4.511,0,0,1,209.07,15.156Zm-.258-6.945a1.411,1.411,0,0,0-1.09.455,2.357,2.357,0,0,0-.535,1.3h3.141V9.788a1.681,1.681,0,0,0-.406-1.165A1.456,1.456,0,0,0,208.813,8.211Zm9.594,4.453a.727.727,0,0,0-.41-.652,4.659,4.659,0,0,0-1.316-.426q-3.016-.633-3.016-2.562a2.323,2.323,0,0,1,.934-1.879,3.766,3.766,0,0,1,2.441-.754,4.053,4.053,0,0,1,2.574.758,2.388,2.388,0,0,1,.965,1.969H218.32a1.092,1.092,0,0,0-.312-.8A1.322,1.322,0,0,0,217.031,8a1.351,1.351,0,0,0-.883.258.814.814,0,0,0-.312.656.7.7,0,0,0,.355.605,3.657,3.657,0,0,0,1.2.4,9.8,9.8,0,0,1,1.422.379A2.336,2.336,0,0,1,220.6,12.57a2.205,2.205,0,0,1-.992,1.871,4.28,4.28,0,0,1-2.562.715,4.47,4.47,0,0,1-1.887-.379,3.166,3.166,0,0,1-1.293-1.039,2.414,2.414,0,0,1-.469-1.426h2.141a1.179,1.179,0,0,0,.445.922,1.766,1.766,0,0,0,1.109.32,1.635,1.635,0,0,0,.98-.246A.766.766,0,0,0,218.406,12.664Zm7.281-1.969a5.053,5.053,0,0,1,.887-3.148,2.9,2.9,0,0,1,2.434-1.156,2.6,2.6,0,0,1,2.164,1.039l.148-.883H233.3v11.7h-2.266V14.273a2.6,2.6,0,0,1-2.047.883,2.878,2.878,0,0,1-2.406-1.172A5.3,5.3,0,0,1,225.688,10.7Zm2.258.16a3.314,3.314,0,0,0,.426,1.847,1.363,1.363,0,0,0,1.2.634,1.518,1.518,0,0,0,1.469-.829v-3.5a1.506,1.506,0,0,0-1.453-.8,1.38,1.38,0,0,0-1.211.634A3.661,3.661,0,0,0,227.945,10.856Zm12.2,3.285a2.831,2.831,0,0,1-2.312,1.016,2.67,2.67,0,0,1-2.074-.781,3.335,3.335,0,0,1-.73-2.289V6.547h2.258v5.467q0,1.322,1.2,1.322a1.63,1.63,0,0,0,1.578-.8V6.547h2.266V15H240.2Zm7.781,1.016a4.15,4.15,0,0,1-3.027-1.141,4.054,4.054,0,0,1-1.168-3.039v-.219a5.106,5.106,0,0,1,.492-2.277,3.612,3.612,0,0,1,1.395-1.547,3.914,3.914,0,0,1,2.059-.543,3.508,3.508,0,0,1,2.73,1.094,4.444,4.444,0,0,1,1,3.1v.922h-5.383a2.1,2.1,0,0,0,.66,1.328,2,2,0,0,0,1.395.5,2.437,2.437,0,0,0,2.039-.945l1.109,1.242a3.389,3.389,0,0,1-1.375,1.121A4.511,4.511,0,0,1,247.922,15.156Zm-.258-6.945a1.411,1.411,0,0,0-1.09.455,2.357,2.357,0,0,0-.535,1.3h3.141V9.788a1.681,1.681,0,0,0-.406-1.165A1.456,1.456,0,0,0,247.664,8.211Zm11.117-1.664.07.945a2.971,2.971,0,0,1,2.43-1.1,2.255,2.255,0,0,1,2.242,1.289,2.9,2.9,0,0,1,2.539-1.289,2.521,2.521,0,0,1,2.047.8,3.681,3.681,0,0,1,.672,2.41V15h-2.266V9.609a1.61,1.61,0,0,0-.281-1.051,1.246,1.246,0,0,0-.992-.332,1.409,1.409,0,0,0-1.406.969l.008,5.8h-2.258V9.617a1.59,1.59,0,0,0-.289-1.062,1.259,1.259,0,0,0-.984-.328,1.463,1.463,0,0,0-1.391.8V15h-2.258V6.547ZM275.414,15a2.508,2.508,0,0,1-.227-.758,2.732,2.732,0,0,1-2.133.914A3,3,0,0,1,271,14.438a2.312,2.312,0,0,1-.816-1.812,2.389,2.389,0,0,1,1-2.062,4.915,4.915,0,0,1,2.879-.727h1.039V9.352a1.393,1.393,0,0,0-.3-.937,1.183,1.183,0,0,0-.949-.352,1.345,1.345,0,0,0-.895.273.929.929,0,0,0-.324.75h-2.258a2.268,2.268,0,0,1,.453-1.359,3,3,0,0,1,1.281-.98,4.669,4.669,0,0,1,1.859-.355,3.689,3.689,0,0,1,2.48.785,2.747,2.747,0,0,1,.918,2.207v3.664a4.041,4.041,0,0,0,.336,1.82V15Zm-1.867-1.57a1.945,1.945,0,0,0,.922-.223,1.462,1.462,0,0,0,.625-.6V11.156h-.844q-1.7,0-1.8,1.172l-.008.133a.9.9,0,0,0,.3.7A1.153,1.153,0,0,0,273.547,13.43Zm7.625-6.883.07.977a2.951,2.951,0,0,1,2.43-1.133,2.453,2.453,0,0,1,2,.789,3.681,3.681,0,0,1,.672,2.359V15h-2.258V9.594a1.465,1.465,0,0,0-.312-1.043,1.4,1.4,0,0,0-1.039-.324,1.553,1.553,0,0,0-1.43.813V15h-2.258V6.547Zm10.773,8.609a4.15,4.15,0,0,1-3.027-1.141,4.054,4.054,0,0,1-1.168-3.039v-.219a5.106,5.106,0,0,1,.492-2.277,3.612,3.612,0,0,1,1.395-1.547,3.914,3.914,0,0,1,2.059-.543,3.508,3.508,0,0,1,2.73,1.094,4.444,4.444,0,0,1,1,3.1v.922h-5.383a2.1,2.1,0,0,0,.66,1.328,2,2,0,0,0,1.395.5,2.437,2.437,0,0,0,2.039-.945l1.109,1.242a3.389,3.389,0,0,1-1.375,1.121A4.511,4.511,0,0,1,291.945,15.156Zm-.258-6.945a1.411,1.411,0,0,0-1.09.455,2.357,2.357,0,0,0-.535,1.3H293.2V9.788a1.681,1.681,0,0,0-.406-1.165A1.456,1.456,0,0,0,291.688,8.211Zm7.406-1.664v8.914a3.024,3.024,0,0,1-.742,2.176,2.821,2.821,0,0,1-2.141.777,4.591,4.591,0,0,1-1.117-.133V16.492a4.238,4.238,0,0,0,.711.07q1.023,0,1.023-1.086V6.547Zm-2.445-2.187a1.112,1.112,0,0,1,.34-.836,1.47,1.47,0,0,1,1.852,0,1.112,1.112,0,0,1,.34.836,1.108,1.108,0,0,1-.348.844A1.448,1.448,0,0,1,297,5.2,1.108,1.108,0,0,1,296.648,4.359ZM305.758,15a2.508,2.508,0,0,1-.227-.758,2.732,2.732,0,0,1-2.133.914,3,3,0,0,1-2.059-.719,2.312,2.312,0,0,1-.816-1.812,2.389,2.389,0,0,1,1-2.062,4.915,4.915,0,0,1,2.879-.727h1.039V9.352a1.393,1.393,0,0,0-.3-.937,1.183,1.183,0,0,0-.949-.352,1.345,1.345,0,0,0-.895.273.929.929,0,0,0-.324.75h-2.258a2.268,2.268,0,0,1,.453-1.359,3,3,0,0,1,1.281-.98,4.669,4.669,0,0,1,1.859-.355,3.689,3.689,0,0,1,2.48.785,2.747,2.747,0,0,1,.918,2.207v3.664a4.041,4.041,0,0,0,.336,1.82V15Zm-1.867-1.57a1.945,1.945,0,0,0,.922-.223,1.462,1.462,0,0,0,.625-.6V11.156h-.844q-1.7,0-1.8,1.172l-.008.133a.9.9,0,0,0,.3.7A1.153,1.153,0,0,0,303.891,13.43Zm13.422,1.727a4.15,4.15,0,0,1-3.027-1.141,4.054,4.054,0,0,1-1.168-3.039v-.219a5.106,5.106,0,0,1,.492-2.277A3.612,3.612,0,0,1,315,6.934a3.914,3.914,0,0,1,2.059-.543,3.508,3.508,0,0,1,2.73,1.094,4.444,4.444,0,0,1,1,3.1v.922h-5.383a2.1,2.1,0,0,0,.66,1.328,2,2,0,0,0,1.395.5,2.437,2.437,0,0,0,2.039-.945l1.109,1.242a3.389,3.389,0,0,1-1.375,1.121A4.511,4.511,0,0,1,317.313,15.156Zm-.258-6.945a1.411,1.411,0,0,0-1.09.455,2.357,2.357,0,0,0-.535,1.3h3.141V9.788a1.681,1.681,0,0,0-.406-1.165A1.456,1.456,0,0,0,317.055,8.211Zm7.4,6.789h-2.266V3h2.266Zm12.836-4.93h-4.5v3.047h5.281V15h-7.625V3.625h7.609v1.9h-5.266V8.234h4.5Zm11.5-.5a6.867,6.867,0,0,1-.594,2.945,4.472,4.472,0,0,1-1.7,1.953,5.021,5.021,0,0,1-5.059.008,4.515,4.515,0,0,1-1.719-1.941,6.67,6.67,0,0,1-.617-2.9V9.07a6.831,6.831,0,0,1,.605-2.957,4.508,4.508,0,0,1,1.711-1.961,5.014,5.014,0,0,1,5.055,0,4.508,4.508,0,0,1,1.711,1.961,6.811,6.811,0,0,1,.605,2.949Zm-2.375-.516a4.787,4.787,0,0,0-.641-2.719,2.263,2.263,0,0,0-3.648-.012,4.732,4.732,0,0,0-.648,2.691V9.57a4.847,4.847,0,0,0,.641,2.7,2.243,2.243,0,0,0,3.656.035,4.819,4.819,0,0,0,.641-2.7Zm13.406.516a6.853,6.853,0,0,1-.516,2.77,4.754,4.754,0,0,1-1.43,1.887l1.891,1.484-1.492,1.32-2.422-1.945a5.126,5.126,0,0,1-.859.07,4.732,4.732,0,0,1-2.523-.68,4.515,4.515,0,0,1-1.719-1.941,6.67,6.67,0,0,1-.617-2.9V9.07a6.831,6.831,0,0,1,.605-2.957,4.508,4.508,0,0,1,1.711-1.961,5.014,5.014,0,0,1,5.055,0,4.508,4.508,0,0,1,1.711,1.961,6.811,6.811,0,0,1,.605,2.949Zm-2.375-.516a4.787,4.787,0,0,0-.641-2.719,2.263,2.263,0,0,0-3.648-.012,4.732,4.732,0,0,0-.648,2.691V9.57a4.847,4.847,0,0,0,.641,2.7,2.243,2.243,0,0,0,3.656.035,4.819,4.819,0,0,0,.641-2.7Zm12.508,3.609a.727.727,0,0,0-.41-.652,4.659,4.659,0,0,0-1.316-.426q-3.016-.633-3.016-2.562a2.323,2.323,0,0,1,.934-1.879,3.766,3.766,0,0,1,2.441-.754,4.053,4.053,0,0,1,2.574.758,2.388,2.388,0,0,1,.965,1.969h-2.258a1.092,1.092,0,0,0-.312-.8A1.322,1.322,0,0,0,368.578,8a1.351,1.351,0,0,0-.883.258.814.814,0,0,0-.312.656.7.7,0,0,0,.355.605,3.657,3.657,0,0,0,1.2.4,9.8,9.8,0,0,1,1.422.379,2.336,2.336,0,0,1,1.789,2.273,2.2,2.2,0,0,1-.992,1.871,4.28,4.28,0,0,1-2.562.715,4.47,4.47,0,0,1-1.887-.379,3.166,3.166,0,0,1-1.293-1.039,2.414,2.414,0,0,1-.469-1.426h2.141a1.179,1.179,0,0,0,.445.922,1.766,1.766,0,0,0,1.109.32,1.635,1.635,0,0,0,.98-.246A.766.766,0,0,0,369.953,12.664Zm3.3-1.969a5.013,5.013,0,0,1,.484-2.242,3.546,3.546,0,0,1,1.395-1.523,4.069,4.069,0,0,1,2.113-.539,3.849,3.849,0,0,1,2.793,1.047,4.2,4.2,0,0,1,1.207,2.844l.016.578a4.418,4.418,0,0,1-1.086,3.121,4.209,4.209,0,0,1-5.832,0,4.5,4.5,0,0,1-1.09-3.187Zm2.258.16a3.16,3.16,0,0,0,.453,1.843,1.628,1.628,0,0,0,2.578.008A3.458,3.458,0,0,0,379,10.691a3.128,3.128,0,0,0-.461-1.831,1.5,1.5,0,0,0-1.3-.649,1.474,1.474,0,0,0-1.281.646A3.516,3.516,0,0,0,375.508,10.856Zm9.219-4.309.07.977a2.951,2.951,0,0,1,2.43-1.133,2.453,2.453,0,0,1,2,.789,3.681,3.681,0,0,1,.672,2.359V15h-2.258V9.594a1.465,1.465,0,0,0-.312-1.043,1.4,1.4,0,0,0-1.039-.324,1.553,1.553,0,0,0-1.43.813V15H382.6V6.547Zm6.992,7.344a1.137,1.137,0,0,1,.363-.875,1.412,1.412,0,0,1,1.828,0,1.137,1.137,0,0,1,.363.875,1.121,1.121,0,0,1-.359.863,1.435,1.435,0,0,1-1.836,0A1.121,1.121,0,0,1,391.719,13.891Zm0-6.4a1.137,1.137,0,0,1,.363-.875,1.412,1.412,0,0,1,1.828,0,1.137,1.137,0,0,1,.363.875,1.121,1.121,0,0,1-.359.863,1.435,1.435,0,0,1-1.836,0A1.121,1.121,0,0,1,391.719,7.492Z" transform="translate(180 7932)" fill="#12263f"/>
  </g>
</svg>
