<svg xmlns="http://www.w3.org/2000/svg" xmlns:xlink="http://www.w3.org/1999/xlink" width="136.934" height="135.983" viewBox="0 0 136.934 135.983">
  <defs>
    <clipPath id="clip-path">
      <rect id="Rectángulo_358784" data-name="Rectángulo 358784" width="77.601" height="74.572" fill="none"/>
    </clipPath>
  </defs>
  <g id="Grupo_1022805" data-name="Grupo 1022805" transform="translate(-263 -595.534)">
    <g id="Grupo_156356" data-name="Grupo 156356" transform="translate(263 650.743)">
      <g id="Grupo_156332" data-name="Grupo 156332" transform="translate(0 0)">
        <path id="Trazado_99257" data-name="Trazado 99257" d="M419.306,105.213a2.549,2.549,0,1,1-2.548-2.434A2.492,2.492,0,0,1,419.306,105.213Z" transform="translate(-414.214 -102.779)" fill="#12263f"/>
        <path id="Trazado_116526" data-name="Trazado 116526" d="M419.306,105.213a2.549,2.549,0,1,1-2.548-2.434A2.492,2.492,0,0,1,419.306,105.213Z" transform="translate(-356.555 -102.779)" fill="#12263f"/>
        <path id="Trazado_99258" data-name="Trazado 99258" d="M427.752,105.213a2.549,2.549,0,1,1-2.545-2.434A2.492,2.492,0,0,1,427.752,105.213Z" transform="translate(-411.129 -102.779)" fill="#12263f"/>
        <path id="Trazado_116527" data-name="Trazado 116527" d="M427.752,105.213a2.549,2.549,0,1,1-2.545-2.434A2.492,2.492,0,0,1,427.752,105.213Z" transform="translate(-353.469 -102.779)" fill="#12263f"/>
        <path id="Trazado_99259" data-name="Trazado 99259" d="M436.2,105.213a2.549,2.549,0,1,1-2.545-2.434A2.492,2.492,0,0,1,436.2,105.213Z" transform="translate(-408.043 -102.779)" fill="#12263f"/>
        <path id="Trazado_116531" data-name="Trazado 116531" d="M436.2,105.213a2.549,2.549,0,1,1-2.545-2.434A2.492,2.492,0,0,1,436.2,105.213Z" transform="translate(-350.384 -102.779)" fill="#12263f"/>
        <path id="Trazado_99260" data-name="Trazado 99260" d="M444.645,105.213a2.549,2.549,0,1,1-2.547-2.434A2.492,2.492,0,0,1,444.645,105.213Z" transform="translate(-404.958 -102.779)" fill="#12263f"/>
        <path id="Trazado_116532" data-name="Trazado 116532" d="M444.645,105.213a2.549,2.549,0,1,1-2.547-2.434A2.492,2.492,0,0,1,444.645,105.213Z" transform="translate(-347.298 -102.779)" fill="#12263f"/>
        <path id="Trazado_99261" data-name="Trazado 99261" d="M453.091,105.213a2.549,2.549,0,1,1-2.545-2.434A2.492,2.492,0,0,1,453.091,105.213Z" transform="translate(-401.872 -102.779)" fill="#12263f"/>
      </g>
      <g id="Grupo_156331" data-name="Grupo 156331" transform="translate(0 12.649)">
        <ellipse id="Elipse_3975" data-name="Elipse 3975" cx="2.546" cy="2.435" rx="2.546" ry="2.435" transform="translate(0 0.001)" fill="#12263f"/>
        <ellipse id="Elipse_4742" data-name="Elipse 4742" cx="2.546" cy="2.435" rx="2.546" ry="2.435" transform="translate(57.659 0.001)" fill="#12263f"/>
        <path id="Trazado_99268" data-name="Trazado 99268" d="M427.752,112.721a2.549,2.549,0,1,1-2.545-2.434A2.493,2.493,0,0,1,427.752,112.721Z" transform="translate(-411.129 -110.287)" fill="#12263f"/>
        <path id="Trazado_116528" data-name="Trazado 116528" d="M427.752,112.721a2.549,2.549,0,1,1-2.545-2.434A2.493,2.493,0,0,1,427.752,112.721Z" transform="translate(-353.469 -110.287)" fill="#12263f"/>
        <ellipse id="Elipse_3976" data-name="Elipse 3976" cx="2.546" cy="2.435" rx="2.546" ry="2.435" transform="translate(23.064 0.001)" fill="#12263f"/>
        <ellipse id="Elipse_4743" data-name="Elipse 4743" cx="2.546" cy="2.435" rx="2.546" ry="2.435" transform="translate(80.723 0.001)" fill="#12263f"/>
        <path id="Trazado_99269" data-name="Trazado 99269" d="M444.645,112.721a2.549,2.549,0,1,1-2.547-2.434A2.494,2.494,0,0,1,444.645,112.721Z" transform="translate(-404.958 -110.287)" fill="#12263f"/>
        <path id="Trazado_116533" data-name="Trazado 116533" d="M444.645,112.721a2.549,2.549,0,1,1-2.547-2.434A2.494,2.494,0,0,1,444.645,112.721Z" transform="translate(-347.298 -110.287)" fill="#12263f"/>
        <path id="Trazado_99270" data-name="Trazado 99270" d="M453.091,112.721a2.549,2.549,0,1,1-2.545-2.434A2.493,2.493,0,0,1,453.091,112.721Z" transform="translate(-401.872 -110.287)" fill="#12263f"/>
      </g>
      <g id="Grupo_156330" data-name="Grupo 156330" transform="translate(0 25.3)">
        <path id="Trazado_99274" data-name="Trazado 99274" d="M419.306,120.23a2.549,2.549,0,1,1-2.548-2.436A2.494,2.494,0,0,1,419.306,120.23Z" transform="translate(-414.214 -117.794)" fill="#12263f"/>
        <path id="Trazado_116529" data-name="Trazado 116529" d="M419.306,120.23a2.549,2.549,0,1,1-2.548-2.436A2.494,2.494,0,0,1,419.306,120.23Z" transform="translate(-356.555 -117.794)" fill="#12263f"/>
        <path id="Trazado_99275" data-name="Trazado 99275" d="M427.752,120.23a2.549,2.549,0,1,1-2.545-2.436A2.493,2.493,0,0,1,427.752,120.23Z" transform="translate(-411.129 -117.794)" fill="#12263f"/>
        <path id="Trazado_116530" data-name="Trazado 116530" d="M427.752,120.23a2.549,2.549,0,1,1-2.545-2.436A2.493,2.493,0,0,1,427.752,120.23Z" transform="translate(-353.469 -117.794)" fill="#12263f"/>
        <path id="Trazado_99276" data-name="Trazado 99276" d="M436.2,120.23a2.549,2.549,0,1,1-2.545-2.436A2.493,2.493,0,0,1,436.2,120.23Z" transform="translate(-408.043 -117.794)" fill="#12263f"/>
        <path id="Trazado_116534" data-name="Trazado 116534" d="M436.2,120.23a2.549,2.549,0,1,1-2.545-2.436A2.493,2.493,0,0,1,436.2,120.23Z" transform="translate(-350.384 -117.794)" fill="#12263f"/>
        <path id="Trazado_99277" data-name="Trazado 99277" d="M444.645,120.23a2.549,2.549,0,1,1-2.547-2.436A2.494,2.494,0,0,1,444.645,120.23Z" transform="translate(-404.958 -117.794)" fill="#12263f"/>
        <path id="Trazado_116535" data-name="Trazado 116535" d="M444.645,120.23a2.549,2.549,0,1,1-2.547-2.436A2.494,2.494,0,0,1,444.645,120.23Z" transform="translate(-347.298 -117.794)" fill="#12263f"/>
        <path id="Trazado_99278" data-name="Trazado 99278" d="M453.091,120.23a2.549,2.549,0,1,1-2.545-2.436A2.493,2.493,0,0,1,453.091,120.23Z" transform="translate(-401.872 -117.794)" fill="#12263f"/>
      </g>
      <g id="Grupo_156327" data-name="Grupo 156327" transform="translate(0 63.252)">
        <path id="Trazado_116550" data-name="Trazado 116550" d="M419.306,120.23a2.549,2.549,0,1,1-2.548-2.436A2.494,2.494,0,0,1,419.306,120.23Z" transform="translate(-414.214 -117.794)" fill="#12263f"/>
        <path id="Trazado_116551" data-name="Trazado 116551" d="M419.306,120.23a2.549,2.549,0,1,1-2.548-2.436A2.494,2.494,0,0,1,419.306,120.23Z" transform="translate(-356.555 -117.794)" fill="#12263f"/>
        <path id="Trazado_116552" data-name="Trazado 116552" d="M427.752,120.23a2.549,2.549,0,1,1-2.545-2.436A2.493,2.493,0,0,1,427.752,120.23Z" transform="translate(-411.129 -117.794)" fill="#12263f"/>
        <path id="Trazado_116553" data-name="Trazado 116553" d="M427.752,120.23a2.549,2.549,0,1,1-2.545-2.436A2.493,2.493,0,0,1,427.752,120.23Z" transform="translate(-353.469 -117.794)" fill="#12263f"/>
        <path id="Trazado_116554" data-name="Trazado 116554" d="M436.2,120.23a2.549,2.549,0,1,1-2.545-2.436A2.493,2.493,0,0,1,436.2,120.23Z" transform="translate(-408.043 -117.794)" fill="#12263f"/>
        <path id="Trazado_116555" data-name="Trazado 116555" d="M436.2,120.23a2.549,2.549,0,1,1-2.545-2.436A2.493,2.493,0,0,1,436.2,120.23Z" transform="translate(-350.384 -117.794)" fill="#12263f"/>
        <path id="Trazado_116556" data-name="Trazado 116556" d="M444.645,120.23a2.549,2.549,0,1,1-2.547-2.436A2.494,2.494,0,0,1,444.645,120.23Z" transform="translate(-404.958 -117.794)" fill="#12263f"/>
        <path id="Trazado_116557" data-name="Trazado 116557" d="M444.645,120.23a2.549,2.549,0,1,1-2.547-2.436A2.494,2.494,0,0,1,444.645,120.23Z" transform="translate(-347.298 -117.794)" fill="#12263f"/>
        <path id="Trazado_116558" data-name="Trazado 116558" d="M453.091,120.23a2.549,2.549,0,1,1-2.545-2.436A2.493,2.493,0,0,1,453.091,120.23Z" transform="translate(-401.872 -117.794)" fill="#12263f"/>
      </g>
      <g id="Grupo_156329" data-name="Grupo 156329" transform="translate(0 37.951)">
        <ellipse id="Elipse_3980" data-name="Elipse 3980" cx="2.546" cy="2.435" rx="2.546" ry="2.435" transform="translate(0 0.002)" fill="#12263f"/>
        <ellipse id="Elipse_4744" data-name="Elipse 4744" cx="2.546" cy="2.435" rx="2.546" ry="2.435" transform="translate(57.659 0.002)" fill="#12263f"/>
        <path id="Trazado_99285" data-name="Trazado 99285" d="M427.752,127.738a2.549,2.549,0,1,1-2.545-2.436A2.491,2.491,0,0,1,427.752,127.738Z" transform="translate(-411.129 -125.302)" fill="#12263f"/>
        <path id="Trazado_116536" data-name="Trazado 116536" d="M427.752,127.738a2.549,2.549,0,1,1-2.545-2.436A2.491,2.491,0,0,1,427.752,127.738Z" transform="translate(-353.469 -125.302)" fill="#12263f"/>
        <ellipse id="Elipse_3981" data-name="Elipse 3981" cx="2.546" cy="2.435" rx="2.546" ry="2.435" transform="translate(23.064 0.002)" fill="#12263f"/>
        <ellipse id="Elipse_4745" data-name="Elipse 4745" cx="2.546" cy="2.435" rx="2.546" ry="2.435" transform="translate(80.723 0.002)" fill="#12263f"/>
        <path id="Trazado_99286" data-name="Trazado 99286" d="M444.645,127.738A2.549,2.549,0,1,1,442.1,125.3,2.492,2.492,0,0,1,444.645,127.738Z" transform="translate(-404.958 -125.302)" fill="#12263f"/>
        <path id="Trazado_116537" data-name="Trazado 116537" d="M444.645,127.738A2.549,2.549,0,1,1,442.1,125.3,2.492,2.492,0,0,1,444.645,127.738Z" transform="translate(-347.298 -125.302)" fill="#12263f"/>
        <path id="Trazado_99287" data-name="Trazado 99287" d="M453.091,127.738a2.549,2.549,0,1,1-2.545-2.436A2.491,2.491,0,0,1,453.091,127.738Z" transform="translate(-401.872 -125.302)" fill="#12263f"/>
      </g>
      <g id="Grupo_156326" data-name="Grupo 156326" transform="translate(0 75.904)">
        <ellipse id="Elipse_4754" data-name="Elipse 4754" cx="2.546" cy="2.435" rx="2.546" ry="2.435" transform="translate(0 0.001)" fill="#12263f"/>
        <ellipse id="Elipse_4750" data-name="Elipse 4750" cx="2.546" cy="2.435" rx="2.546" ry="2.435" transform="translate(57.659 0.001)" fill="#12263f"/>
        <path id="Trazado_116548" data-name="Trazado 116548" d="M427.752,127.738a2.549,2.549,0,1,1-2.545-2.436A2.491,2.491,0,0,1,427.752,127.738Z" transform="translate(-411.129 -125.302)" fill="#12263f"/>
        <path id="Trazado_116542" data-name="Trazado 116542" d="M427.752,127.738a2.549,2.549,0,1,1-2.545-2.436A2.491,2.491,0,0,1,427.752,127.738Z" transform="translate(-353.469 -125.302)" fill="#12263f"/>
        <ellipse id="Elipse_4751" data-name="Elipse 4751" cx="2.546" cy="2.435" rx="2.546" ry="2.435" transform="translate(23.064 0.001)" fill="#12263f"/>
        <ellipse id="Elipse_4752" data-name="Elipse 4752" cx="2.546" cy="2.435" rx="2.546" ry="2.435" transform="translate(80.723 0.001)" fill="#12263f"/>
        <path id="Trazado_116543" data-name="Trazado 116543" d="M444.645,127.738A2.549,2.549,0,1,1,442.1,125.3,2.492,2.492,0,0,1,444.645,127.738Z" transform="translate(-404.958 -125.302)" fill="#12263f"/>
        <path id="Trazado_116544" data-name="Trazado 116544" d="M444.645,127.738A2.549,2.549,0,1,1,442.1,125.3,2.492,2.492,0,0,1,444.645,127.738Z" transform="translate(-347.298 -125.302)" fill="#12263f"/>
        <path id="Trazado_116545" data-name="Trazado 116545" d="M453.091,127.738a2.549,2.549,0,1,1-2.545-2.436A2.491,2.491,0,0,1,453.091,127.738Z" transform="translate(-401.872 -125.302)" fill="#12263f"/>
      </g>
      <g id="Grupo_156328" data-name="Grupo 156328" transform="translate(0 50.602)">
        <ellipse id="Elipse_3985" data-name="Elipse 3985" cx="2.546" cy="2.435" rx="2.546" ry="2.435" transform="translate(0 0.001)" fill="#12263f"/>
        <ellipse id="Elipse_4746" data-name="Elipse 4746" cx="2.546" cy="2.435" rx="2.546" ry="2.435" transform="translate(57.659 0.001)" fill="#12263f"/>
        <path id="Trazado_99291" data-name="Trazado 99291" d="M427.752,135.246a2.549,2.549,0,1,1-2.545-2.436A2.491,2.491,0,0,1,427.752,135.246Z" transform="translate(-411.129 -132.81)" fill="#12263f"/>
        <path id="Trazado_116538" data-name="Trazado 116538" d="M427.752,135.246a2.549,2.549,0,1,1-2.545-2.436A2.491,2.491,0,0,1,427.752,135.246Z" transform="translate(-353.469 -132.81)" fill="#12263f"/>
        <ellipse id="Elipse_3986" data-name="Elipse 3986" cx="2.546" cy="2.435" rx="2.546" ry="2.435" transform="translate(23.064 0.001)" fill="#12263f"/>
        <ellipse id="Elipse_4747" data-name="Elipse 4747" cx="2.546" cy="2.435" rx="2.546" ry="2.435" transform="translate(80.723 0.001)" fill="#12263f"/>
        <path id="Trazado_99292" data-name="Trazado 99292" d="M444.645,135.246a2.549,2.549,0,1,1-2.547-2.436A2.492,2.492,0,0,1,444.645,135.246Z" transform="translate(-404.958 -132.81)" fill="#12263f"/>
        <path id="Trazado_116539" data-name="Trazado 116539" d="M444.645,135.246a2.549,2.549,0,1,1-2.547-2.436A2.492,2.492,0,0,1,444.645,135.246Z" transform="translate(-347.298 -132.81)" fill="#12263f"/>
        <path id="Trazado_99293" data-name="Trazado 99293" d="M453.091,135.246a2.549,2.549,0,1,1-2.545-2.436A2.491,2.491,0,0,1,453.091,135.246Z" transform="translate(-401.872 -132.81)" fill="#12263f"/>
      </g>
    </g>
    <g id="Grupo_1015138" data-name="Grupo 1015138" transform="translate(277.562 595.534)">
      <circle id="Elipse_8447" data-name="Elipse 8447" cx="61.186" cy="61.186" r="61.186" transform="translate(0 0)" fill="#91b3fa"/>
      <circle id="Elipse_8448" data-name="Elipse 8448" cx="51.264" cy="51.264" r="51.264" transform="translate(9.922 9.922)" fill="#fff"/>
      <g id="Grupo_1022807" data-name="Grupo 1022807" transform="translate(22.585 26.049)">
        <g id="Grupo_1022806" data-name="Grupo 1022806" clip-path="url(#clip-path)">
          <path id="Trazado_752621" data-name="Trazado 752621" d="M40.593,3.912a1.02,1.02,0,0,1,.675-1.35c1.683-.52,3.35-1.087,5.056-1.541A12.5,12.5,0,0,1,48.629.4a5.63,5.63,0,0,1,4.724,1.451,47.622,47.622,0,0,1,3.8,5.093c.979,1.322,1.7,2.911,3.449,3.494,2.234.746,4.442,1.578,6.7,2.248a6.06,6.06,0,0,1,4.26,5.83c-.095,1.658-.034,3.327,0,4.99a14.83,14.83,0,0,1-.168,1.7c-.178,1.859.9,3.193,1.881,4.58,1.237,1.744,2.522,3.454,3.661,5.267.31.493.154,1.165.675,1.549v2.269a14.839,14.839,0,0,1-1.086,2.182c-1.348,1.887-2.778,3.716-4.177,5.567a4.279,4.279,0,0,0-1.231,2.519c.045,2.638-.183,5.267-.174,7.9a5.767,5.767,0,0,1-3.909,5.43c-2.4.789-4.819,1.532-7.24,2.26a3.774,3.774,0,0,0-2.014,1.281c-1.285,1.687-2.544,3.393-3.808,5.1-1.161,1.564-2.442,2.946-4.53,3.223-.309.041-.716-.2-.93.238h-.606a.4.4,0,0,0-.525-.3,1.8,1.8,0,0,1-1.1-.143c-2.318-.786-4.65-1.532-6.967-2.323a4.8,4.8,0,0,0-2.244-.137,16.784,16.784,0,0,0-1.9.615c-1.738.526-3.49,1.038-5.2,1.609a5.7,5.7,0,0,1-5.556-1.02l-.165-.116a3.153,3.153,0,0,1-.494-.45c-1.377-1.916-2.756-3.832-4.107-5.766A5.263,5.263,0,0,0,17.117,64.2c-2.005-.671-4.005-1.356-6.01-2.027a7.207,7.207,0,0,1-4.255-2.9,6.485,6.485,0,0,1-.939-3.725c.068-1.651-.1-3.3.122-4.96a8.665,8.665,0,0,0-.05-2.776C5.7,46.343,4.6,45.349,3.851,44.156,2.558,42.1.784,40.34,0,37.968v-.756q.293-.227,0-.454v-.3c.2-.151.2-.3,0-.454v-.454c.622-2.218,2.289-3.777,3.557-5.585.709-1.011,1.484-1.975,2.205-2.977a3.006,3.006,0,0,0,.607-1.932c-.119-2.662.151-5.317.181-7.978a5.409,5.409,0,0,1,2.074-4.071l.164-.114a16.8,16.8,0,0,1,5.036-1.867,48.74,48.74,0,0,0,5.033-1.708c.8-.329,1.161-1.264,1.69-1.943,1.128-1.447,2.145-2.982,3.282-4.422A6.929,6.929,0,0,1,27.776.128a5.434,5.434,0,0,1,2.906.156c1.964.64,3.914,1.327,5.89,1.924.842.254,1.288.675,1.193,1.573a1.28,1.28,0,0,1-1.719.642c-1.03-.29-2-.723-3.022-1.03A17.228,17.228,0,0,0,28.806,2.26c-.077-.2-.254-.164-.383-.124a6.918,6.918,0,0,0-3.256,2.681,68.96,68.96,0,0,1-4.723,6.067c-.639.208-1.09.738-1.758.936-2.1.62-4.172,1.31-6.256,1.973-.132-.032-.263-.059-.316.119l.005-.005a3.686,3.686,0,0,0-3.318,3.2c-.085,2.708-.117,5.418-.159,8.127a4.835,4.835,0,0,1-.742,2.58,74.613,74.613,0,0,1-4.8,6.472,4.031,4.031,0,0,0-.328,4.359c1.179,1.763,2.392,3.508,3.669,5.2A7.832,7.832,0,0,1,8.35,49.3c-.062.793-.112,1.592-.143,2.386-.058,1.472,0,2.949.049,4.423a3.5,3.5,0,0,0,.264,1.457,4.218,4.218,0,0,0,3.293,2.349l-.008-.008c.021.087.063.145.165.118,2.422.873,4.9,1.591,7.273,2.6l.156.146,0,0c.005.093.043.149.147.131l.145.043-.011-.009c.051.109.073.251.157.322a15.065,15.065,0,0,1,2.3,2.911c1.1,1.52,2.165,3.067,3.315,4.548a2.937,2.937,0,0,0,2.436,1.255,2.78,2.78,0,0,0,.958-.07c2.428-.753,4.872-1.457,7.3-2.206a6.149,6.149,0,0,1,3.664-.1c2.493.776,4.93,1.73,7.42,2.516a3.6,3.6,0,0,0,3.908-1.085c1.243-1.407,2.257-3.012,3.425-4.489a13.138,13.138,0,0,1,2.683-3.08c1.438-.977,3.152-1.164,4.73-1.738a48.33,48.33,0,0,0,4.743-1.559,2.983,2.983,0,0,0,1.93-2.61c.032-1.3.037-2.6.133-3.9.106-1.429-.019-2.873.038-4.307a4.947,4.947,0,0,1,.868-2.841c1.517-2.048,3-4.124,4.545-6.148a3.827,3.827,0,0,0,.284-4.87c-1.041-1.646-2.2-3.219-3.376-4.777a8.011,8.011,0,0,1-2.033-5.469c.042-.595.178-1.175.167-1.782-.032-1.789-.024-3.579-.009-5.368a2.659,2.659,0,0,0-.423-1.48,4.243,4.243,0,0,0-2.564-1.856c-2.078-.6-4.08-1.44-6.151-2.079a6.042,6.042,0,0,1-3.421-2.422c-1-1.523-2.038-3.028-3.14-4.48A11.509,11.509,0,0,0,51.827,3.49a4.212,4.212,0,0,0-4.574-.5,19.911,19.911,0,0,1-4.36,1.271c-.131-.029-.261-.053-.318.117-1.045.573-1.453.477-1.981-.469" transform="translate(0 0)" fill="#12263f"/>
          <path id="Trazado_752622" data-name="Trazado 752622" d="M0,237.438c.2.151.2.3,0,.454Z" transform="translate(0 -201.437)" fill="#010203"/>
          <path id="Trazado_752623" data-name="Trazado 752623" d="M0,242.426q.293.227,0,.454Z" transform="translate(0 -205.668)" fill="#010203"/>
          <path id="Trazado_752624" data-name="Trazado 752624" d="M66.6,16.907a19.9,19.9,0,0,0,4.36-1.271,4.212,4.212,0,0,1,4.574.5,11.52,11.52,0,0,1,1.745,2.283c1.1,1.452,2.137,2.958,3.139,4.48a6.043,6.043,0,0,0,3.421,2.422c2.071.639,4.073,1.478,6.151,2.079a4.243,4.243,0,0,1,2.564,1.856,2.66,2.66,0,0,1,.423,1.48c-.015,1.789-.023,3.579.009,5.368.011.606-.125,1.187-.167,1.782a8.01,8.01,0,0,0,2.033,5.469c1.172,1.558,2.335,3.131,3.376,4.777A3.827,3.827,0,0,1,97.947,53c-1.549,2.024-3.028,4.1-4.545,6.148a4.947,4.947,0,0,0-.868,2.841c-.057,1.434.068,2.879-.038,4.307-.1,1.3-.1,2.6-.133,3.9a2.983,2.983,0,0,1-1.93,2.61,48.322,48.322,0,0,1-4.743,1.559c-1.577.573-3.292.761-4.73,1.738a13.141,13.141,0,0,0-2.683,3.08c-1.167,1.477-2.182,3.082-3.425,4.489a3.6,3.6,0,0,1-3.908,1.085c-2.49-.786-4.927-1.74-7.42-2.516a6.148,6.148,0,0,0-3.664.1c-2.43.749-4.874,1.453-7.3,2.206a2.784,2.784,0,0,1-.958.07.39.39,0,0,0-.03-.146c-1.756-2.46-3.474-4.95-5.293-7.362a3.636,3.636,0,0,0-2.886-1.528l.011.009-.144-.175H43.11l0,0-.156-.146c-2.374-1.007-4.851-1.725-7.273-2.6l-.166-.118.007.008c.019-.361-.287-.51-.481-.729a4.146,4.146,0,0,1-1.166-2.863c.041-2.186-.116-4.372.119-6.56a5.592,5.592,0,0,0-.74-3.845C31.87,56.528,30.5,54.476,29,52.531a5.226,5.226,0,0,1-.175-6.043C30.2,44.7,31.509,42.856,32.9,41.078a6.315,6.315,0,0,0,1.443-4.164c-.039-2.411.074-4.825.134-7.238a6.021,6.021,0,0,1,.135-.735c.142-.932.941-1.529,1.218-2.391l-.005.005a.321.321,0,0,0,.316-.119c2.084-.663,4.159-1.353,6.256-1.973.668-.2,1.119-.727,1.758-.936a3.819,3.819,0,0,0,2.617-1.154,53.784,53.784,0,0,0,4.058-5.2,15.865,15.865,0,0,0,1.686-2.27,17.221,17.221,0,0,1,4.217,1.134c1.019.307,1.992.74,3.022,1.03a1.28,1.28,0,0,0,1.719-.642,4.454,4.454,0,0,0,2.829.131c.529.946.937,1.042,1.981.469.139.05.306.174.319-.117m-22.739,10.4a.274.274,0,0,0-.31.309c-.212.413-.672.521-.982.8a34.2,34.2,0,0,0-3.249,3.51,26.094,26.094,0,0,0-2.576,3.915,24.078,24.078,0,0,0-2.4,5.842,27.869,27.869,0,0,0-.852,3.858c-.035.281.2.506.034.755a4.382,4.382,0,0,0-.393,2.372,27.35,27.35,0,0,0,.088,3.672A31.108,31.108,0,0,0,34.5,58.763a25.331,25.331,0,0,0,2.341,5.371,31.33,31.33,0,0,0,5.736,7.23,29.507,29.507,0,0,0,18.133,7.82,28.539,28.539,0,0,0,5.157-.156,18.471,18.471,0,0,0,2.694-.466,31.226,31.226,0,0,0,9.626-4.057c.444-.293.852-.791,1.241-.987A12.525,12.525,0,0,0,81.9,71.634l.155-.113a32.41,32.41,0,0,0,2.455-2.54,27.649,27.649,0,0,0,4.861-7.634l.11-.157a27.331,27.331,0,0,0,1.43-4.389c.095-.75.659-1.451.274-2.256.163-.036.494.075.268-.3,0-.611.192-1.2.171-1.821-.022-.662-.276-1.015-.932-1.077a10.072,10.072,0,0,0-.136-2.718,1.49,1.49,0,0,0,1.083-1.645,14.68,14.68,0,0,0-.4-2.585,23.339,23.339,0,0,0-1.605-5.572l-.108-.157a24.757,24.757,0,0,0-2.278-4.432,8.594,8.594,0,0,0-1.4-1.788c-.433-.407-.7-1.108-1.111-1.6a29.463,29.463,0,0,0-10.991-8.016,24.508,24.508,0,0,0-5.346-1.582,36.813,36.813,0,0,0-4.253-.572c-1.307-.086-2.625-.034-3.938-.006a6,6,0,0,0-3.059.591h-.1c-.327.332-.669-.053-1.037.027-.96.21-1.864.582-2.8.852a27.356,27.356,0,0,0-6.966,3.345,9.315,9.315,0,0,0-2.388,1.815" transform="translate(-23.709 -12.643)" fill="#ffe06b"/>
          <path id="Trazado_752625" data-name="Trazado 752625" d="M57.043,84.96l-.164.114c.025-.081.056-.153.164-.114" transform="translate(-48.255 -72.068)" fill="#010203"/>
          <path id="Trazado_752626" data-name="Trazado 752626" d="M24.86,91.712c-.277.862-1.075,1.46-1.218,2.391a6.027,6.027,0,0,0-.135.735c-.06,2.413-.173,4.827-.134,7.238a6.317,6.317,0,0,1-1.443,4.164c-1.39,1.778-2.7,3.62-4.075,5.41a5.226,5.226,0,0,0,.175,6.043c1.5,1.945,2.87,4,4.252,6.032a5.591,5.591,0,0,1,.74,3.845c-.234,2.188-.078,4.374-.119,6.56a4.147,4.147,0,0,0,1.166,2.863c.194.219.5.369.481.729a4.217,4.217,0,0,1-3.293-2.349A3.494,3.494,0,0,1,21,133.918c-.049-1.474-.107-2.952-.049-4.423.031-.793.082-1.592.143-2.386a7.831,7.831,0,0,0-1.908-5.455c-1.277-1.694-2.49-3.438-3.669-5.2a4.031,4.031,0,0,1,.328-4.359,74.641,74.641,0,0,0,4.8-6.472,4.833,4.833,0,0,0,.742-2.581c.042-2.709.074-5.419.159-8.127a3.686,3.686,0,0,1,3.318-3.2" transform="translate(-12.741 -77.806)" fill="#fece4b"/>
          <path id="Trazado_752627" data-name="Trazado 752627" d="M129.806,415.1a3.635,3.635,0,0,1,2.886,1.528c1.82,2.413,3.538,4.9,5.293,7.362a.392.392,0,0,1,.03.146,2.937,2.937,0,0,1-2.436-1.255c-1.15-1.481-2.215-3.028-3.314-4.548a15.076,15.076,0,0,0-2.3-2.911c-.083-.07-.106-.213-.157-.322" transform="translate(-110.124 -352.162)" fill="#fece4b"/>
          <path id="Trazado_752628" data-name="Trazado 752628" d="M143.2,14.041a15.856,15.856,0,0,1-1.686,2.27,53.745,53.745,0,0,1-4.058,5.2,3.819,3.819,0,0,1-2.617,1.154,68.962,68.962,0,0,0,4.723-6.067,6.918,6.918,0,0,1,3.256-2.681c.129-.041.306-.072.383.124" transform="translate(-114.392 -11.781)" fill="#fece4b"/>
          <path id="Trazado_752629" data-name="Trazado 752629" d="M281.109,28.006c-.013.291-.18.167-.319.117.058-.17.187-.147.319-.117" transform="translate(-238.215 -23.742)" fill="#fcdd6a"/>
          <path id="Trazado_752630" data-name="Trazado 752630" d="M80.212,90.835a.322.322,0,0,1-.316.119c.053-.178.184-.15.316-.119" transform="translate(-67.782 -77.043)" fill="#fece4b"/>
          <path id="Trazado_752631" data-name="Trazado 752631" d="M77.854,395.115l.166.118c-.1.027-.145-.031-.166-.118" transform="translate(-66.049 -335.206)" fill="#fece4b"/>
          <path id="Trazado_752632" data-name="Trazado 752632" d="M126.911,413.031l.156.146-.156-.146" transform="translate(-107.668 -350.406)" fill="#fcdd6a"/>
          <path id="Trazado_752633" data-name="Trazado 752633" d="M127.953,414.006h.148c0,.044,0,.088,0,.133-.1.018-.142-.039-.147-.131" transform="translate(-108.552 -351.232)" fill="#fcdd6a"/>
          <path id="Trazado_752634" data-name="Trazado 752634" d="M128.923,414.138c0-.044,0-.088,0-.133l.144.175-.145-.043" transform="translate(-109.375 -351.232)" fill="#fece4b"/>
          <path id="Trazado_752635" data-name="Trazado 752635" d="M160,480.005c-.108.037-.14-.034-.165-.115l.165.115" transform="translate(-135.601 -407.127)" fill="#010203"/>
          <path id="Trazado_752636" data-name="Trazado 752636" d="M118.271,93.409a27.646,27.646,0,0,1-4.861,7.634,32.382,32.382,0,0,1-2.455,2.54c-.1-.035-.136.031-.155.113a12.534,12.534,0,0,1-2.472,1.885c-.39.2-.8.694-1.242.987a31.223,31.223,0,0,1-9.626,4.057,18.476,18.476,0,0,1-2.694.466,28.544,28.544,0,0,1-5.158.156,29.507,29.507,0,0,1-18.133-7.82,31.326,31.326,0,0,1-5.736-7.23A25.322,25.322,0,0,1,63.4,90.825,31.1,31.1,0,0,1,62.12,84.4a27.351,27.351,0,0,1-.088-3.672,4.383,4.383,0,0,1,.393-2.372c.163-.249-.069-.474-.034-.755a27.846,27.846,0,0,1,.852-3.858,24.078,24.078,0,0,1,2.4-5.842,26.094,26.094,0,0,1,2.576-3.915,34.182,34.182,0,0,1,3.249-3.51c.31-.274.77-.383.982-.8a.273.273,0,0,0,.31-.309,9.313,9.313,0,0,1,2.388-1.816,27.359,27.359,0,0,1,6.966-3.345c.937-.27,1.841-.642,2.8-.852.368-.081.71.3,1.037-.028l.071.119.031-.119a6,6,0,0,1,3.059-.591c1.312-.028,2.63-.08,3.937.006a36.762,36.762,0,0,1,4.253.572,24.516,24.516,0,0,1,5.346,1.581,29.463,29.463,0,0,1,10.991,8.016c.413.487.678,1.188,1.111,1.6a8.594,8.594,0,0,1,1.4,1.788,24.768,24.768,0,0,1,2.278,4.432c-.042.106.028.135.108.157a23.332,23.332,0,0,1,1.605,5.572,14.7,14.7,0,0,1,.4,2.585,1.49,1.49,0,0,1-1.083,1.645c-.5.116-.682-.275-.924-.572l-.113-.16c-.008-.25-.218-.433-.193-.707a10.437,10.437,0,0,0-.528-3.339,26.523,26.523,0,0,0-8.411-14.139l-.126-.119c-.191-.158-.39-.307-.572-.474a20.485,20.485,0,0,0-4.409-2.98,26.265,26.265,0,0,0-6.807-2.584,29.534,29.534,0,0,0-5.383-.623,7.483,7.483,0,0,1-2.457-.166c-.061-.022-.175-.061-.182-.048-.362.675-.992.281-1.494.365a32.41,32.41,0,0,0-3.668.741,27.965,27.965,0,0,0-15.216,10.91,26.127,26.127,0,0,0-3.741,7.945,16.768,16.768,0,0,0-.907,5.21c.093,1.589-.307,3.174.084,4.761.2.8.147,1.65.3,2.476a11.716,11.716,0,0,0,.473,2.088c.51,1.313.94,2.658,1.556,3.941a28.87,28.87,0,0,0,4.486,6.821,25.386,25.386,0,0,0,6.23,5.073,11.548,11.548,0,0,0,3.14,1.53l.009,0,.2.091-.005,0,.456.282.271.035c.059.163.212.122.332.151l-.006-.006c.018.086.059.141.159.119a23.535,23.535,0,0,0,4.529,1.222c1.5.168,2.989.439,4.515.459a13.233,13.233,0,0,0,4.6-.561c.016.1.042.22.153.2.2-.033.128-.222.151-.353.227.082.533.3.669.224.968-.556,2.137-.325,3.112-.85a10.422,10.422,0,0,1,1.841-.755,12.3,12.3,0,0,0,3.5-1.826c.191.107.285.061.266-.166l0,.005.159-.121a1.212,1.212,0,0,0,.607-.229,27.762,27.762,0,0,0,6.219-5.7.272.272,0,0,0,.3-.3,7.331,7.331,0,0,0,.592-.76c.615-1.037,1.392-1.962,1.978-3.032.448-.819.842-1.682,1.249-2.507A19.979,19.979,0,0,0,117.7,88.2a8.113,8.113,0,0,0,.491-1.89,15.465,15.465,0,0,1,.09-1.731c.076-.712.429-1.277,1.31-1.171.656.062.91.415.932,1.077.021.623-.167,1.21-.171,1.821-.131.065-.253.137-.268.3.385.805-.179,1.506-.274,2.256a27.3,27.3,0,0,1-1.43,4.389c-.081.022-.15.052-.11.157" transform="translate(-52.605 -44.705)" fill="#12263f"/>
          <path id="Trazado_752637" data-name="Trazado 752637" d="M136.024,110.481a27.764,27.764,0,0,1-6.219,5.7,1.211,1.211,0,0,1-.607.23c-.1-.023-.139.037-.159.121l0-.005c-.1.042-.261-.023-.266.166a12.294,12.294,0,0,1-3.5,1.826,10.423,10.423,0,0,0-1.842.755c-.975.526-2.144.295-3.112.85-.135.078-.441-.142-.668-.224l-.3.151a13.231,13.231,0,0,1-4.6.561c-1.526-.02-3.014-.29-4.515-.459a23.523,23.523,0,0,1-4.529-1.222l-.159-.119.006.006c-.067-.146-.194-.159-.332-.151l-.271-.035c-.031-.289-.234-.3-.456-.282l.005,0a.143.143,0,0,0-.2-.091l-.008,0c.03-.271-.192-.326-.365-.415a23.579,23.579,0,0,1-5.408-4.056A27.733,27.733,0,0,1,90.648,99.6a29.02,29.02,0,0,1-.705-6.086,22.979,22.979,0,0,1,.265-3.822,34.681,34.681,0,0,1,1.586-6.178A31.207,31.207,0,0,1,93.6,79.795a27.4,27.4,0,0,1,3.958-5.56,26.443,26.443,0,0,1,5.651-4.6c.22-.136.537-.217.538-.573a26.377,26.377,0,0,1,4.142-1.559,32.442,32.442,0,0,1,3.668-.741c.5-.084,1.132.311,1.494-.365.007-.013.121.025.182.047a7.482,7.482,0,0,0,2.457.166,29.521,29.521,0,0,1,5.383.623,26.257,26.257,0,0,1,6.807,2.584,20.471,20.471,0,0,1,4.409,2.98c.182.168.381.317.572.474-.01.1.027.14.126.119A26.522,26.522,0,0,1,141.4,87.532a10.438,10.438,0,0,1,.528,3.339c-.026.274.185.457.193.707-.031.1.033.136.113.16.242.3.426.687.924.572a10.076,10.076,0,0,1,.136,2.718c-.881-.106-1.234.459-1.31,1.171a15.432,15.432,0,0,0-.09,1.732,8.112,8.112,0,0,1-.491,1.89,19.98,19.98,0,0,1-1.256,4.059c-.408.825-.8,1.688-1.249,2.507-.586,1.07-1.362,1.994-1.978,3.032a7.331,7.331,0,0,1-.592.76c-.166.035-.405,0-.3.3m-4.554,1.242a24.228,24.228,0,0,0,2.02-2.105,22.561,22.561,0,0,0,3.923-5.982,21.046,21.046,0,0,0,1.916-6.316,4.475,4.475,0,0,0,.056-2.42l.118-.113c.279-.178.157-.461.146-.687a18.506,18.506,0,0,0-.1-2.9c-.222-1.1-.265-2.257-.572-3.344a25.654,25.654,0,0,0-2.342-5.951l.1-.114-.106-.062c-.3-.446-.621-.882-.909-1.338A23.566,23.566,0,0,0,130.7,74.7a23.217,23.217,0,0,0-5.594-3.458,19.054,19.054,0,0,0-6.05-1.892c-1.266-.09-2.529-.223-3.8-.308a24.251,24.251,0,0,0-3.269.277,19.131,19.131,0,0,0-5.2,1.153,24.783,24.783,0,0,0-10.271,7.083,25.968,25.968,0,0,0-3.117,4.423c-.425.752-.651,1.567-1.01,2.335a10.223,10.223,0,0,0-1.253,4.237c-.191.036-.354.084-.132.3a7.463,7.463,0,0,0-.34,1.72c-.211.973.148,1.539,1.108,1.637a9.6,9.6,0,0,0-.128,2.669c-1.052.365-1.271.809-.781,1.581l.114.106a4.81,4.81,0,0,0,.1,2.62c.089.47.569.731.522,1.181a3.935,3.935,0,0,0,.449,1.85,25.151,25.151,0,0,0,4.969,7.975,24.011,24.011,0,0,0,6.518,5.04,22.1,22.1,0,0,0,11.174,2.864,30.945,30.945,0,0,0,3.831-.208,22.9,22.9,0,0,0,5.533-1.489,26.275,26.275,0,0,0,7.233-4.559l.165-.115" transform="translate(-76.304 -56.33)" fill="#91b3fa"/>
          <path id="Trazado_752638" data-name="Trazado 752638" d="M445.045,274.648c.015-.167.137-.239.268-.3.227.379-.1.268-.268.3" transform="translate(-377.565 -232.747)" fill="#fcdd6a"/>
          <path id="Trazado_752639" data-name="Trazado 752639" d="M131.19,96.709a.273.273,0,0,1-.31.309.273.273,0,0,1,.31-.309" transform="translate(-111.035 -82.046)" fill="#010203"/>
          <path id="Trazado_752640" data-name="Trazado 752640" d="M434.132,171.779c-.08-.022-.15-.051-.108-.157l.108.157" transform="translate(-368.205 -145.6)" fill="#fcdd6a"/>
          <path id="Trazado_752641" data-name="Trazado 752641" d="M433.018,320.334c-.039-.105.029-.136.11-.157l-.11.157" transform="translate(-367.352 -271.63)" fill="#fcdd6a"/>
          <path id="Trazado_752642" data-name="Trazado 752642" d="M383.8,388.371c.02-.082.051-.147.155-.113l-.155.113" transform="translate(-325.608 -329.381)" fill="#fcdd6a"/>
          <path id="Trazado_752643" data-name="Trazado 752643" d="M220.03,56.864l-.031.12-.071-.119h.1" transform="translate(-186.582 -48.242)" fill="#fcdd6a"/>
          <path id="Trazado_752644" data-name="Trazado 752644" d="M92.507,83.983c0,.356-.318.437-.538.573a26.442,26.442,0,0,0-5.651,4.6,27.414,27.414,0,0,0-3.958,5.559,31.243,31.243,0,0,0-1.806,3.717,34.68,34.68,0,0,0-1.586,6.178,22.979,22.979,0,0,0-.265,3.822,29.023,29.023,0,0,0,.705,6.086,27.736,27.736,0,0,0,7.869,14.193,23.583,23.583,0,0,0,5.408,4.056c.173.089.395.144.365.415a11.539,11.539,0,0,1-3.14-1.53,25.392,25.392,0,0,1-6.23-5.073,28.868,28.868,0,0,1-4.486-6.821c-.616-1.283-1.046-2.627-1.556-3.941a11.717,11.717,0,0,1-.473-2.088c-.151-.826-.1-1.675-.3-2.476-.391-1.587.009-3.172-.084-4.761a16.762,16.762,0,0,1,.907-5.21,27.347,27.347,0,0,1,14.815-17.3" transform="translate(-65.065 -71.249)" fill="#6a94eb"/>
          <path id="Trazado_752645" data-name="Trazado 752645" d="M393.721,355.456c-.105-.3.134-.266.3-.3a.272.272,0,0,1-.3.3" transform="translate(-334.001 -301.305)" fill="#010203"/>
          <path id="Trazado_752646" data-name="Trazado 752646" d="M283.887,419.388l.3-.151c-.024.131.052.319-.151.353-.111.018-.136-.107-.153-.2" transform="translate(-240.843 -355.671)" fill="#010203"/>
          <path id="Trazado_752647" data-name="Trazado 752647" d="M185.911,408.981c.222-.019.425-.007.456.282l-.456-.282" transform="translate(-157.722 -346.964)" fill="#2e79c9"/>
          <path id="Trazado_752648" data-name="Trazado 752648" d="M346.069,397.153c0-.189.169-.124.266-.166.019.227-.076.273-.266.166" transform="translate(-293.597 -336.794)" fill="#010203"/>
          <path id="Trazado_752649" data-name="Trazado 752649" d="M190.708,411.093c.137-.008.265.006.332.151-.12-.029-.273.012-.332-.151" transform="translate(-161.792 -348.76)" fill="#6798d8"/>
          <path id="Trazado_752650" data-name="Trazado 752650" d="M434.127,232.636c-.079-.024-.143-.059-.113-.16l.113.16" transform="translate(-368.2 -197.227)" fill="#010203"/>
          <path id="Trazado_752651" data-name="Trazado 752651" d="M184.629,408.355a.143.143,0,0,1,.2.091l-.2-.091" transform="translate(-156.635 -346.427)" fill="#2e79c9"/>
          <path id="Trazado_752652" data-name="Trazado 752652" d="M373.118,111.874c-.1.021-.137-.024-.126-.119l.126.119" transform="translate(-316.435 -94.81)" fill="#010203"/>
          <path id="Trazado_752653" data-name="Trazado 752653" d="M192.855,412.059l.159.119c-.1.022-.141-.033-.159-.119" transform="translate(-163.614 -349.581)" fill="#6798d8"/>
          <path id="Trazado_752654" data-name="Trazado 752654" d="M347.8,396.317c.019-.084.058-.144.159-.121l-.159.121" transform="translate(-295.064 -336.119)" fill="#010203"/>
          <path id="Trazado_752655" data-name="Trazado 752655" d="M100.957,187.5a9.6,9.6,0,0,1,.128-2.669,1.033,1.033,0,0,0,1.017-.919c.074-.405.137-.829.184-1.247a24,24,0,0,1,1.062-3.979,31.359,31.359,0,0,1,1.247-2.958l.123-.117c.3-.01.6-.028.907-.028q15.119,0,30.237,0,3.751,0,7.5,0c.282,0,.593-.1.764.289a25.137,25.137,0,0,1,1.165,2.523,22.655,22.655,0,0,1,1.279,9.049,22.421,22.421,0,0,1-.5,3.931c-.155.553-.011,1.2-.314,1.637a14.831,14.831,0,0,0-1.269,2.921c-.286.676-.548.848-1.2.847q-14.02-.022-28.039-.01c-3.309,0-6.618-.028-9.927.011a.826.826,0,0,1-.947-.568,23.731,23.731,0,0,1-2.088-6.747c-.117-.818-.05-1.875-1.323-1.969m14.661-7.238a3.48,3.48,0,0,0,1.053,5.927c1.177.385,2.31.911,3.456,1.388.984.409,1.525,1.378,1.084,2.091a2.6,2.6,0,0,1-2.111,1.325,4.177,4.177,0,0,1-3.129-1.2c-.968-.9-1.791-.711-2.166.348-.214.6.147.981.53,1.3a6.564,6.564,0,0,0,5.4,1.692,4.467,4.467,0,0,0,3.485-2.477,2.979,2.979,0,0,0,.43-1.6,4.02,4.02,0,0,0-2.194-3.3c-1.291-.661-2.681-1.128-4.014-1.71a1.14,1.14,0,0,1-.375-1.968,2.4,2.4,0,0,1,2.343-.524,4.726,4.726,0,0,1,2.045.933,1.129,1.129,0,0,0,1.4-1.761,5.759,5.759,0,0,0-2.513-1.273,4.987,4.987,0,0,0-4.558.7c-.107-.034-.14.035-.163.117m24.415,5.843c.235-3.671-3.112-7.007-7.17-6.9a7.011,7.011,0,1,0,7.17,6.9m-29.1.039h-.005c0-1.914.011-3.827-.005-5.741a1.1,1.1,0,0,0-1.226-1.18c-.531.062-1.031.333-1.034.962q-.02,5.93.007,11.86c0,.908.519,1.3,1.385,1.074a1.2,1.2,0,0,0,.881-1.31c-.008-1.889,0-3.777,0-5.666" transform="translate(-85.622 -148.951)" fill="#f0f6f7"/>
          <path id="Trazado_752656" data-name="Trazado 752656" d="M95.332,109.6c1.273.094,1.206,1.151,1.323,1.969a23.729,23.729,0,0,0,2.088,6.747.825.825,0,0,0,.947.568c3.309-.039,6.618-.012,9.927-.011q14.02,0,28.039.01c.656,0,.918-.17,1.2-.847a14.83,14.83,0,0,1,1.269-2.921c.3-.432.159-1.084.314-1.637a24.554,24.554,0,0,0-.774-12.98A25.15,25.15,0,0,0,138.5,97.98c-.171-.387-.482-.289-.764-.289q-3.751-.008-7.5,0-15.119,0-30.237,0c-.3,0-.6.018-.907.028-.108-.031-.143.014-.124.117a31.3,31.3,0,0,0-1.246,2.958,23.992,23.992,0,0,0-1.063,3.979c-.047.417-.11.841-.184,1.247a1.033,1.033,0,0,1-1.017.919c-.96-.1-1.319-.665-1.108-1.637a7.471,7.471,0,0,1,.34-1.72c.153-.052.157-.17.132-.3a10.218,10.218,0,0,1,1.253-4.237c.359-.768.585-1.583,1.01-2.335a25.977,25.977,0,0,1,3.117-4.423A24.784,24.784,0,0,1,110.475,85.2a19.131,19.131,0,0,1,5.2-1.153,24.249,24.249,0,0,1,3.269-.277c1.267.085,2.53.218,3.8.308a19.05,19.05,0,0,1,6.05,1.892,23.222,23.222,0,0,1,5.594,3.458,23.564,23.564,0,0,1,5.027,5.695c.288.455.605.892.909,1.338,0,.059,0,.117,0,.176a25.654,25.654,0,0,1,2.342,5.951c.307,1.087.35,2.241.572,3.344a18.52,18.52,0,0,1,.1,2.9c.011.227.133.509-.146.687-.1-.028-.137.014-.118.112a4.475,4.475,0,0,1-.056,2.42,21.046,21.046,0,0,1-1.916,6.316,22.559,22.559,0,0,1-3.923,5.982,24.227,24.227,0,0,1-2.02,2.105c-.1-.028-.138.036-.165.115a26.274,26.274,0,0,1-7.233,4.559,22.9,22.9,0,0,1-5.533,1.489,30.945,30.945,0,0,1-3.831.208,22.1,22.1,0,0,1-11.174-2.864,24.011,24.011,0,0,1-6.518-5.04,25.154,25.154,0,0,1-4.969-7.975,3.935,3.935,0,0,1-.449-1.85c.047-.451-.434-.711-.522-1.181a4.808,4.808,0,0,1-.1-2.62c.017-.094-.015-.136-.114-.106-.491-.772-.272-1.216.781-1.581m41.521,11.7.094-.1-.124-.036-6.958,0c-.1-.023-.14.013-.112.115a1.624,1.624,0,0,0-.177.319,23.875,23.875,0,0,1-2.09,4.879c-.566,1.026-1.3,1.939-2.038,3.041a21.551,21.551,0,0,0,5.362-2.5,22.117,22.117,0,0,0,6.042-5.717m-36.088.115a4.568,4.568,0,0,0,.342.571,22.721,22.721,0,0,0,3.785,3.788,22.4,22.4,0,0,0,5.651,3.3c.411.157.882.557,1.437.292-.082-.424-.433-.594-.634-.868a24.729,24.729,0,0,1-3.412-6.826.643.643,0,0,0-.738-.536c-2.142.021-4.284.02-6.426.027-.278.08-.1.17-.006.257M117.67,90.812c0-1.386-.005-2.772,0-4.157,0-.4-.053-.479-.516-.363a6.2,6.2,0,0,0-2.9,1.852,19.146,19.146,0,0,0-3.945,6.756c-.179.475.007.529.425.526,2.121-.016,4.242-.022,6.362,0,.49.006.591-.173.584-.612-.022-1.335-.008-2.671-.008-4.006m-7.48,30.334a1.584,1.584,0,0,0,.034.273,19.8,19.8,0,0,0,3.931,6.912A6.672,6.672,0,0,0,117,130.286c.308.1.658.229.658-.339q0-4.187.017-8.375c0-.257-.051-.432-.37-.431-2.362.006-4.724,0-7.111,0m9.739-34.941c0,2.986,0,5.923,0,8.859,0,.317.183.357.44.356,2.315,0,4.63,0,7,0a20.612,20.612,0,0,0-3.31-6.33,7.521,7.521,0,0,0-4.133-2.883m3.7,34.94c-1.06,0-2.12.006-3.18,0-.31,0-.534.018-.531.426q.024,4.194.02,8.388c0,.409.165.456.517.332a6.731,6.731,0,0,0,2.368-1.476,17.106,17.106,0,0,0,4.362-7.167c.172-.506-.018-.5-.376-.5-1.06,0-2.12,0-3.18,0M100.645,95.34c.229.151.485.073.724.075,1.716.008,3.435-.052,5.148.027a1.355,1.355,0,0,0,1.637-1.111,20.413,20.413,0,0,1,4.016-7.224c-4.01.758-9.478,4.786-11.525,8.233m36.361.078a22.631,22.631,0,0,0-11.637-8.38c.506.67.93,1.174,1.292,1.72a25.643,25.643,0,0,1,2.93,6.071c.078.233.039.6.511.6,2.257-.021,4.514-.009,6.9-.009" transform="translate(-79.996 -71.059)" fill="#12263f"/>
          <path id="Trazado_752657" data-name="Trazado 752657" d="M96.45,212.5c.025.13.021.248-.132.3-.222-.217-.059-.264.132-.3" transform="translate(-81.623 -180.277)" fill="#6798d8"/>
          <path id="Trazado_752658" data-name="Trazado 752658" d="M95.993,264.6c.1-.03.13.012.114.106l-.114-.106" transform="translate(-81.438 -224.469)" fill="#6798d8"/>
          <path id="Trazado_752659" data-name="Trazado 752659" d="M362.748,365.411c.026-.079.063-.143.165-.115l-.165.115" transform="translate(-307.747 -309.902)" fill="#6798d8"/>
          <path id="Trazado_752660" data-name="Trazado 752660" d="M416.009,253.7c-.019-.1.016-.14.117-.112l-.117.112" transform="translate(-352.927 -215.131)" fill="#6798d8"/>
          <path id="Trazado_752661" data-name="Trazado 752661" d="M397.871,167.711q0-.088,0-.176l.106.062-.1.114" transform="translate(-337.543 -142.133)" fill="#010203"/>
          <path id="Trazado_752662" data-name="Trazado 752662" d="M280.905,206.422a6.967,6.967,0,1,1-7.17-6.9c4.058-.112,7.405,3.224,7.17,6.9m-2.274.178a4.516,4.516,0,0,0-4.691-4.781,4.689,4.689,0,0,0-4.721,4.737,4.789,4.789,0,0,0,4.892,4.755c2.09-.032,4.738-2.068,4.52-4.712" transform="translate(-226.494 -169.271)" fill="#12263f"/>
          <path id="Trazado_752663" data-name="Trazado 752663" d="M187.5,200.415a4.987,4.987,0,0,1,4.557-.7,5.759,5.759,0,0,1,2.513,1.273,1.129,1.129,0,0,1-1.4,1.761,4.725,4.725,0,0,0-2.045-.933,2.4,2.4,0,0,0-2.343.524,1.14,1.14,0,0,0,.375,1.968c1.334.581,2.723,1.049,4.015,1.71a4.02,4.02,0,0,1,2.194,3.3,2.979,2.979,0,0,1-.43,1.6,4.467,4.467,0,0,1-3.485,2.477,6.564,6.564,0,0,1-5.4-1.692c-.383-.319-.744-.7-.53-1.3.375-1.058,1.2-1.249,2.166-.348a4.177,4.177,0,0,0,3.129,1.2,2.6,2.6,0,0,0,2.111-1.325c.441-.714-.1-1.682-1.084-2.091-1.146-.477-2.279-1-3.456-1.388a3.48,3.48,0,0,1-1.053-5.927l.163-.117" transform="translate(-157.34 -169.224)" fill="#12263f"/>
          <path id="Trazado_752664" data-name="Trazado 752664" d="M154.215,206.507c0,1.888-.005,3.777,0,5.666a1.2,1.2,0,0,1-.881,1.31c-.866.23-1.38-.166-1.385-1.074q-.029-5.93-.007-11.86c0-.629.5-.9,1.034-.962a1.1,1.1,0,0,1,1.226,1.18c.016,1.914.005,3.827.005,5.741Z" transform="translate(-128.898 -169.317)" fill="#12263f"/>
          <path id="Trazado_752665" data-name="Trazado 752665" d="M198,205.66l-.163.117c.023-.082.056-.152.163-.117" transform="translate(-167.837 -174.47)" fill="#12263f"/>
          <path id="Trazado_752666" data-name="Trazado 752666" d="M125.106,175.878c-.02-.1.015-.148.124-.117l-.124.117" transform="translate(-106.132 -149.103)" fill="#e0e6e7"/>
          <path id="Trazado_752667" data-name="Trazado 752667" d="M206.886,104.711c0,1.335-.014,2.671.008,4.006.007.44-.094.618-.584.612-2.12-.027-4.241-.02-6.362,0-.418,0-.6-.051-.425-.526a19.151,19.151,0,0,1,3.945-6.756,6.2,6.2,0,0,1,2.9-1.852c.463-.116.519-.037.516.363-.008,1.386,0,2.772,0,4.157" transform="translate(-169.213 -84.958)" fill="#91b3fa"/>
          <path id="Trazado_752668" data-name="Trazado 752668" d="M199.131,330.318c2.387,0,4.749,0,7.111,0,.319,0,.37.174.37.431q-.012,4.187-.017,8.375c0,.568-.349.439-.658.339A6.673,6.673,0,0,1,203.1,337.5a19.8,19.8,0,0,1-3.931-6.912,1.584,1.584,0,0,1-.034-.273" transform="translate(-168.938 -280.231)" fill="#91b3fa"/>
          <path id="Trazado_752669" data-name="Trazado 752669" d="M263.35,99.894a7.52,7.52,0,0,1,4.133,2.883,20.609,20.609,0,0,1,3.31,6.33c-2.375,0-4.69,0-7.005,0-.258,0-.441-.039-.44-.356,0-2.936,0-5.873,0-8.859" transform="translate(-223.418 -84.748)" fill="#91b3fa"/>
          <path id="Trazado_752670" data-name="Trazado 752670" d="M267.015,330.312c1.06,0,2.12,0,3.18,0,.358,0,.548-.006.376.5a17.105,17.105,0,0,1-4.363,7.167,6.726,6.726,0,0,1-2.368,1.476c-.352.124-.517.077-.517-.332q0-4.194-.02-8.388c0-.408.222-.429.531-.426,1.06.009,2.12,0,3.18,0" transform="translate(-223.38 -280.225)" fill="#91b3fa"/>
          <path id="Trazado_752671" data-name="Trazado 752671" d="M136.978,330.311c2.142-.007,4.284-.005,6.426-.027a.643.643,0,0,1,.737.536,24.729,24.729,0,0,0,3.412,6.826c.2.274.552.444.634.868-.555.266-1.026-.135-1.437-.292a22.4,22.4,0,0,1-5.651-3.3,22.712,22.712,0,0,1-3.785-3.788,4.558,4.558,0,0,1-.342-.57q0-.129.006-.258" transform="translate(-116.204 -280.205)" fill="#91b3fa"/>
          <path id="Trazado_752672" data-name="Trazado 752672" d="M136.184,114.071c2.047-3.448,7.515-7.476,11.525-8.233a20.415,20.415,0,0,0-4.016,7.224,1.355,1.355,0,0,1-1.637,1.111c-1.713-.079-3.432-.019-5.148-.027-.239,0-.495.076-.724-.075" transform="translate(-115.535 -89.79)" fill="#91b3fa"/>
          <path id="Trazado_752673" data-name="Trazado 752673" d="M304.185,330.479l6.958,0a.259.259,0,0,0,.029.137,22.113,22.113,0,0,1-6.042,5.717,21.543,21.543,0,0,1-5.362,2.5c.741-1.1,1.472-2.016,2.038-3.041a23.883,23.883,0,0,0,2.09-4.879,1.615,1.615,0,0,1,.177-.319l.112-.115" transform="translate(-254.316 -280.37)" fill="#91b3fa"/>
          <path id="Trazado_752674" data-name="Trazado 752674" d="M310.883,113.764c-2.391,0-4.648-.012-6.9.009-.473,0-.433-.366-.511-.6a25.645,25.645,0,0,0-2.93-6.071c-.361-.545-.785-1.05-1.292-1.72a22.631,22.631,0,0,1,11.637,8.38" transform="translate(-253.873 -89.405)" fill="#91b3fa"/>
          <path id="Trazado_752675" data-name="Trazado 752675" d="M136.169,330.462q0,.129-.006.257c-.1-.088-.272-.178.006-.257" transform="translate(-115.395 -280.356)" fill="#537bae"/>
          <path id="Trazado_752676" data-name="Trazado 752676" d="M328.222,330.441l-.112.115c-.028-.1.011-.139.112-.115" transform="translate(-278.353 -280.332)" fill="#537bae"/>
          <path id="Trazado_752677" data-name="Trazado 752677" d="M374.816,330.637a.258.258,0,0,1-.029-.137l.124.036-.094.1" transform="translate(-317.959 -280.388)" fill="#537bae"/>
          <path id="Trazado_752678" data-name="Trazado 752678" d="M291.2,219.439c.217,2.644-2.43,4.68-4.52,4.712a4.789,4.789,0,0,1-4.892-4.755,4.688,4.688,0,0,1,4.721-4.737,4.516,4.516,0,0,1,4.691,4.781" transform="translate(-239.059 -182.11)" fill="#f0f6f7"/>
        </g>
      </g>
    </g>
  </g>
</svg>
