<svg xmlns="http://www.w3.org/2000/svg" xmlns:xlink="http://www.w3.org/1999/xlink" width="93" height="94" viewBox="0 0 93 94">
  <defs>
    <clipPath id="clip-path">
      <rect id="Rectángulo_358605" data-name="Rectángulo 358605" width="50" height="50" fill="#12263f"/>
    </clipPath>
  </defs>
  <g id="Grupo_1023661" data-name="Grupo 1023661" transform="translate(0.275 -0.334)">
    <ellipse id="Elipse_4870" data-name="Elipse 4870" cx="46.5" cy="47" rx="46.5" ry="47" transform="translate(-0.275 0.334)" fill="#57dbd8"/>
    <g id="Grupo_1022768" data-name="Grupo 1022768" transform="translate(21.726 19.834)">
      <g id="Grupo_1022767" data-name="Grupo 1022767" clip-path="url(#clip-path)">
        <path id="Trazado_752476" data-name="Trazado 752476" d="M0,48.731c.226-1.094.467-2.184.677-3.281Q2.768,34.507,4.848,23.561q1.09-5.724,2.179-11.448c.033-.176.066-.352.107-.525a.835.835,0,0,1,.98-.721.874.874,0,0,1,.638,1.093q-.492,2.587-.987,5.172Q5.885,27,4.006,36.867q-1.049,5.508-2.1,11.017c-.024.125-.039.253-.063.414H29.991L39.02,1.712H5v5.8H33.659a3.747,3.747,0,0,1,.585.017.782.782,0,0,1,.716.743.793.793,0,0,1-.633.862,2.362,2.362,0,0,1-.533.039q-14.648,0-29.3,0C3.559,9.176,3.305,8.926,3.3,8c0-2.279.012-4.557-.009-6.836A1.151,1.151,0,0,1,3.906,0h36.23a1.321,1.321,0,0,1,.783,1.132q2.1,11.228,4.231,22.452,2.084,11.034,4.175,22.066c.208,1.1.449,2.184.675,3.275V50H0V48.731m40.894-38.7-.093-.009c-.008.143-.023.286-.023.429q0,15.99-.008,31.98a.7.7,0,0,0,.4.689c2.086,1.232,4.162,2.481,6.242,3.723.129.077.264.142.475.254l-7-37.066m-1.788.629-.12-.01L31.909,47.159c.216-.122.357-.2.494-.279,2.079-1.242,4.153-2.493,6.243-3.718a.844.844,0,0,0,.47-.849Q39.1,26.742,39.105,11.17ZM46.53,48.312c-.076-.089-.092-.121-.118-.136-2.076-1.243-4.15-2.49-6.237-3.714a.662.662,0,0,0-.554.049c-2,1.177-3.994,2.371-5.987,3.563a3.866,3.866,0,0,0-.308.238Z" fill="#12263f"/>
        <path id="Trazado_752477" data-name="Trazado 752477" d="M87.944,248.952q-5.029,0-10.057,0c-1.012,0-1.289-.346-1.092-1.323q.775-3.847,1.54-7.7c.154-.773.37-.963,1.146-.963q10.13,0,20.261,0c.9,0,1.207.371,1.031,1.257q-.784,3.945-1.577,7.887c-.13.649-.375.836-1.1.837q-5.077,0-10.155,0m9.584-1.684,1.255-6.6H80.021l-1.252,6.6Z" transform="translate(-69.242 -215.632)" fill="#12263f"/>
        <path id="Trazado_752478" data-name="Trazado 752478" d="M156.484,198.732c-.2.281-.324.6-.544.7a1.071,1.071,0,0,1-.852-.02,10.455,10.455,0,0,0-3.018-1.317,7.359,7.359,0,0,0-5.178.8c-.3.162-.583.353-.878.523a.81.81,0,0,1-1.155-.216.82.82,0,0,1,.3-1.174,9.02,9.02,0,0,1,10.785.028,3.4,3.4,0,0,1,.541.67" transform="translate(-130.586 -177.093)" fill="#12263f"/>
        <path id="Trazado_752479" data-name="Trazado 752479" d="M133.5,353.258a9.237,9.237,0,0,1-5.406-1.816.813.813,0,0,1-.263-1.109.782.782,0,0,1,1.144-.251,9.723,9.723,0,0,0,3.056,1.344,7.329,7.329,0,0,0,5.171-.825c.313-.17.606-.38.921-.548a.81.81,0,0,1,.873,1.362,9.254,9.254,0,0,1-5.5,1.842" transform="translate(-115.237 -315.762)" fill="#12263f"/>
      </g>
    </g>
  </g>
</svg>
