<svg xmlns="http://www.w3.org/2000/svg" xmlns:xlink="http://www.w3.org/1999/xlink" width="93" height="94" viewBox="0 0 93 94">
  <defs>
    <clipPath id="clip-path">
      <rect id="Rectángulo_358609" data-name="Rectángulo 358609" width="50.465" height="61.883" fill="#12263f"/>
    </clipPath>
  </defs>
  <g id="Grupo_1023663" data-name="Grupo 1023663" transform="translate(0.275 -0.334)">
    <ellipse id="Elipse_4870" data-name="Elipse 4870" cx="46.5" cy="47" rx="46.5" ry="47" transform="translate(-0.275 0.334)" fill="#57dbd8"/>
    <g id="Grupo_1022772" data-name="Grupo 1022772" transform="translate(21.011 15.009)">
      <g id="Grupo_1022771" data-name="Grupo 1022771" clip-path="url(#clip-path)">
        <path id="Trazado_752486" data-name="Trazado 752486" d="M4.756,3.743c0-.85,0-1.642,0-2.435C4.757.408,5.162,0,6.062,0H49.171c.894,0,1.292.406,1.293,1.32q0,23.958,0,47.915,0,3.788,0,7.577c0,.921-.407,1.33-1.321,1.332-1.006,0-2.011,0-3.017,0h-.418c0,.82,0,1.6,0,2.379a2.6,2.6,0,0,1-.026.454,1.068,1.068,0,0,1-1.051.9c-.093,0-.187,0-.281,0h-43c-.094,0-.187,0-.281,0A1.071,1.071,0,0,1,.02,60.93,3.524,3.524,0,0,1,0,60.44Q0,32.73,0,5.019A1.128,1.128,0,0,1,1.27,3.743q1.526,0,3.052,0h.434M43.5,5.961H2.223V59.684H43.5ZM6.974,2.2V3.739H44.252c.129,0,.258,0,.386,0a1.1,1.1,0,0,1,1.07,1.087c.008.175,0,.351,0,.526q0,25.065,0,50.13v.467h2.533V2.2Z" transform="translate(0 0)" fill="#12263f"/>
        <path id="Trazado_752487" data-name="Trazado 752487" d="M98.483,499.64c1.152,1.149,2.261,2.254,3.369,3.36.778.776,1.56,1.548,2.327,2.335a1.064,1.064,0,0,1,.12,1.41,1.076,1.076,0,0,1-1.341.354,1.509,1.509,0,0,1-.39-.291q-3.154-3.145-6.3-6.3a1.1,1.1,0,0,1-.009-1.723c.278-.281.578-.541.868-.81l-.039-.108-9.475-2.033,2.054,9.58c.33-.347.587-.629.857-.9a1.139,1.139,0,0,1,1.783-.008c.885.884,1.774,1.764,2.651,2.656a1.079,1.079,0,0,1-.1,1.682,1.1,1.1,0,0,1-1.465-.156c-.647-.641-1.289-1.287-1.968-1.966-.288.285-.568.559-.846.835-.24.239-.482.477-.717.721a1.088,1.088,0,0,1-1.143.346,1.108,1.108,0,0,1-.8-.928q-.744-3.5-1.5-6.993c-.343-1.6-.7-3.2-1.016-4.8-.069-.346-.219-.408-.538-.408-4.2.01-8.395.005-12.592.009a1.068,1.068,0,0,1-.994-.4,1.564,1.564,0,0,1-.257-.774c-.024-1.555-.017-3.11-.01-4.665a1.088,1.088,0,0,1,1.2-1.168q15.661,0,31.323,0a1.09,1.09,0,0,1,1.194,1.2q0,2.3,0,4.595a1.094,1.094,0,1,1-2.179.012c0-1.111,0-2.221,0-3.332,0-.079-.012-.159-.02-.264h-29.3v2.6h.425c3.508,0,7.015.024,10.523-.012a18.287,18.287,0,0,1,4.2.443c3.672.819,7.356,1.586,11.033,2.386a1.641,1.641,0,0,1,.714.333,1.06,1.06,0,0,1-.009,1.563c-.523.532-1.058,1.053-1.622,1.612" transform="translate(-66.02 -454.225)" fill="#12263f"/>
        <path id="Trazado_752488" data-name="Trazado 752488" d="M87.941,125.017H72.4c-.944,0-1.34-.4-1.339-1.346q0-2.175,0-4.35c0-.907.4-1.314,1.3-1.314h31.116c.894,0,1.3.415,1.3,1.31q0,2.193,0,4.385c0,.9-.4,1.316-1.3,1.316H87.941m-14.668-2.21h29.292v-2.592H73.273Z" transform="translate(-66.075 -109.728)" fill="#12263f"/>
        <path id="Trazado_752489" data-name="Trazado 752489" d="M87.917,364.989h15.505c.948,0,1.332.392,1.332,1.348q0,2.21,0,4.42A1.1,1.1,0,0,1,103.523,372q-15.628,0-31.256,0a1.1,1.1,0,0,1-1.227-1.211q-.009-2.3,0-4.6a1.1,1.1,0,0,1,1.231-1.2H87.917m14.636,2.208h-29.3v2.59h29.3Z" transform="translate(-66.052 -339.38)" fill="#12263f"/>
        <path id="Trazado_752490" data-name="Trazado 752490" d="M87.893,248.533h-15.5c-.946,0-1.335-.392-1.336-1.345q0-2.192,0-4.385a1.116,1.116,0,0,1,1.269-1.272q15.592,0,31.185,0a1.111,1.111,0,0,1,1.262,1.274q0,2.227,0,4.455a1.112,1.112,0,0,1-1.265,1.271H87.893m-14.629-2.211h29.3v-2.569h-29.3Z" transform="translate(-66.066 -224.584)" fill="#12263f"/>
      </g>
    </g>
  </g>
</svg>
